G04 #@! TF.GenerationSoftware,KiCad,Pcbnew,5.1.5-52549c5~86~ubuntu19.10.1*
G04 #@! TF.CreationDate,2020-05-08T07:49:48-07:00*
G04 #@! TF.ProjectId,tipi,74697069-2e6b-4696-9361-645f70636258,2*
G04 #@! TF.SameCoordinates,Original*
G04 #@! TF.FileFunction,Copper,L2,Bot*
G04 #@! TF.FilePolarity,Positive*
%FSLAX46Y46*%
G04 Gerber Fmt 4.6, Leading zero omitted, Abs format (unit mm)*
G04 Created by KiCad (PCBNEW 5.1.5-52549c5~86~ubuntu19.10.1) date 2020-05-08 07:49:48*
%MOMM*%
%LPD*%
G04 APERTURE LIST*
%ADD10R,1.600000X1.600000*%
%ADD11O,1.600000X1.600000*%
%ADD12R,1.727200X1.727200*%
%ADD13O,1.727200X1.727200*%
%ADD14R,1.800000X1.800000*%
%ADD15C,1.800000*%
%ADD16R,1.700000X1.700000*%
%ADD17O,1.700000X1.700000*%
%ADD18C,0.685800*%
%ADD19C,0.500000*%
%ADD20C,0.250000*%
%ADD21C,0.254000*%
G04 APERTURE END LIST*
D10*
X75120500Y-117983000D03*
D11*
X108140500Y-102743000D03*
X77660500Y-117983000D03*
X105600500Y-102743000D03*
X80200500Y-117983000D03*
X103060500Y-102743000D03*
X82740500Y-117983000D03*
X100520500Y-102743000D03*
X85280500Y-117983000D03*
X97980500Y-102743000D03*
X87820500Y-117983000D03*
X95440500Y-102743000D03*
X90360500Y-117983000D03*
X92900500Y-102743000D03*
X92900500Y-117983000D03*
X90360500Y-102743000D03*
X95440500Y-117983000D03*
X87820500Y-102743000D03*
X97980500Y-117983000D03*
X85280500Y-102743000D03*
X100520500Y-117983000D03*
X82740500Y-102743000D03*
X103060500Y-117983000D03*
X80200500Y-102743000D03*
X105600500Y-117983000D03*
X77660500Y-102743000D03*
X108140500Y-117983000D03*
X75120500Y-102743000D03*
D12*
X49466500Y-105473500D03*
D13*
X49466500Y-102933500D03*
X52006500Y-105473500D03*
X52006500Y-102933500D03*
X54546500Y-105473500D03*
X54546500Y-102933500D03*
X57086500Y-105473500D03*
X57086500Y-102933500D03*
X59626500Y-105473500D03*
X59626500Y-102933500D03*
D14*
X40449500Y-107632500D03*
D15*
X40449500Y-105092500D03*
D16*
X44450000Y-140970000D03*
D17*
X44450000Y-138430000D03*
X46990000Y-140970000D03*
X46990000Y-138430000D03*
X49530000Y-140970000D03*
X49530000Y-138430000D03*
X52070000Y-140970000D03*
X52070000Y-138430000D03*
X54610000Y-140970000D03*
X54610000Y-138430000D03*
X57150000Y-140970000D03*
X57150000Y-138430000D03*
X59690000Y-140970000D03*
X59690000Y-138430000D03*
X62230000Y-140970000D03*
X62230000Y-138430000D03*
X64770000Y-140970000D03*
X64770000Y-138430000D03*
X67310000Y-140970000D03*
X67310000Y-138430000D03*
X69850000Y-140970000D03*
X69850000Y-138430000D03*
X72390000Y-140970000D03*
X72390000Y-138430000D03*
X74930000Y-140970000D03*
X74930000Y-138430000D03*
X77470000Y-140970000D03*
X77470000Y-138430000D03*
X80010000Y-140970000D03*
X80010000Y-138430000D03*
X82550000Y-140970000D03*
X82550000Y-138430000D03*
X85090000Y-140970000D03*
X85090000Y-138430000D03*
X87630000Y-140970000D03*
X87630000Y-138430000D03*
X90170000Y-140970000D03*
X90170000Y-138430000D03*
X92710000Y-140970000D03*
X92710000Y-138430000D03*
X95250000Y-140970000D03*
X95250000Y-138430000D03*
X97790000Y-140970000D03*
X97790000Y-138430000D03*
D12*
X108458000Y-136969500D03*
D13*
X110998000Y-136969500D03*
X108458000Y-139509500D03*
X110998000Y-139509500D03*
X108458000Y-142049500D03*
X110998000Y-142049500D03*
X108458000Y-144589500D03*
X110998000Y-144589500D03*
X108458000Y-147129500D03*
X110998000Y-147129500D03*
D16*
X38608000Y-124523500D03*
D17*
X41148000Y-124523500D03*
X38608000Y-127063500D03*
X41148000Y-127063500D03*
X38608000Y-129603500D03*
X41148000Y-129603500D03*
X38608000Y-132143500D03*
X41148000Y-132143500D03*
D18*
X49473480Y-116107302D03*
X70104000Y-129521801D03*
X59897000Y-114864500D03*
X41592500Y-135445500D03*
X73653544Y-143571679D03*
X43370500Y-144462500D03*
X70098169Y-132321487D03*
X66675000Y-115951000D03*
X66675000Y-113982500D03*
X59880500Y-135699500D03*
X46672500Y-135382000D03*
X57785000Y-134431551D03*
X42815000Y-113268000D03*
X42719589Y-121856500D03*
X76195466Y-129521801D03*
X71945500Y-109601000D03*
X71945500Y-116586000D03*
X62357000Y-110172500D03*
X76200000Y-132588000D03*
X109296224Y-125066135D03*
X50165000Y-133667500D03*
X47498000Y-145415000D03*
X43811648Y-130669024D03*
X109466807Y-127767035D03*
X38290500Y-120015000D03*
X52003636Y-110802332D03*
X54919478Y-130913251D03*
X54273606Y-129882478D03*
X56356084Y-130053643D03*
X55567128Y-129676828D03*
X57090394Y-125523357D03*
X58381463Y-129582624D03*
X59168485Y-124533017D03*
X59994702Y-130124295D03*
X60418618Y-130960353D03*
X61081729Y-123463378D03*
X61869839Y-122910889D03*
X62314468Y-131125210D03*
X65535707Y-130029204D03*
X65569725Y-131063985D03*
X62673144Y-123483383D03*
X87011175Y-134347895D03*
X88387644Y-132597098D03*
X66235697Y-127239307D03*
X86398258Y-135146529D03*
X87759386Y-133531859D03*
X85650972Y-135960539D03*
X89000415Y-131757054D03*
X53975000Y-119951500D03*
X45847000Y-119951500D03*
X69151500Y-115824000D03*
X56896000Y-121348500D03*
X64469377Y-128063590D03*
X104140000Y-125793500D03*
X101815696Y-113410845D03*
X102968117Y-121669806D03*
X63927706Y-128840770D03*
X89090500Y-128079500D03*
X105570064Y-114930770D03*
X105367267Y-121828059D03*
X97964402Y-113550840D03*
X102298500Y-122174000D03*
X105600500Y-115887500D03*
X104314314Y-113834339D03*
X104348956Y-121148315D03*
X106833150Y-113782510D03*
D19*
X41592500Y-135445500D02*
X44880640Y-132157360D01*
X44880640Y-132157360D02*
X44880640Y-117130816D01*
X44880640Y-117130816D02*
X45904154Y-116107302D01*
X45904154Y-116107302D02*
X49473480Y-116107302D01*
X49816379Y-115764403D02*
X49473480Y-116107302D01*
X59897000Y-114864500D02*
X50716282Y-114864500D01*
X50716282Y-114864500D02*
X49816379Y-115764403D01*
X46672500Y-135382000D02*
X48777674Y-135382000D01*
X48777674Y-135382000D02*
X48779010Y-135383336D01*
X59564336Y-135383336D02*
X59880500Y-135699500D01*
X48779010Y-135383336D02*
X59564336Y-135383336D01*
X66675000Y-113982500D02*
X62686427Y-113982500D01*
X62686427Y-113982500D02*
X61804427Y-114864500D01*
X61804427Y-114864500D02*
X59897000Y-114864500D01*
D20*
X59897000Y-114864500D02*
X53293645Y-108261145D01*
X53293645Y-108261145D02*
X53293645Y-104220645D01*
X53293645Y-104220645D02*
X52870099Y-103797099D01*
X52870099Y-103797099D02*
X52006500Y-102933500D01*
X70098169Y-132321487D02*
X70098169Y-129527632D01*
X70098169Y-129527632D02*
X70104000Y-129521801D01*
D19*
X41592500Y-135445500D02*
X46609000Y-135445500D01*
X46609000Y-135445500D02*
X46672500Y-135382000D01*
X44261321Y-143571679D02*
X60833000Y-143571679D01*
X60833000Y-143571679D02*
X73229280Y-143571679D01*
X73229280Y-143571679D02*
X73653544Y-143571679D01*
X43370500Y-144462500D02*
X44261321Y-143571679D01*
D20*
X73653544Y-135876862D02*
X73653544Y-143147415D01*
X73653544Y-143147415D02*
X73653544Y-143571679D01*
X70098169Y-132321487D02*
X73653544Y-135876862D01*
X66675000Y-113982500D02*
X66675000Y-115951000D01*
X65087500Y-134429500D02*
X68722599Y-138064599D01*
X68722599Y-139842599D02*
X69000001Y-140120001D01*
X68722599Y-138064599D02*
X68722599Y-139842599D01*
X69000001Y-140120001D02*
X69850000Y-140970000D01*
X58271984Y-134429500D02*
X65087500Y-134429500D01*
X57785000Y-134431551D02*
X58269933Y-134431551D01*
X58269933Y-134431551D02*
X58271984Y-134429500D01*
X57785000Y-134431551D02*
X50929051Y-134431551D01*
X50929051Y-134431551D02*
X50165000Y-133667500D01*
X50165000Y-133667500D02*
X50166408Y-133667500D01*
D19*
X42719589Y-121856500D02*
X42719589Y-113363411D01*
X42719589Y-113363411D02*
X42815000Y-113268000D01*
D20*
X76200000Y-129526335D02*
X76195466Y-129521801D01*
X76200000Y-132588000D02*
X76200000Y-129526335D01*
D19*
X71945500Y-116586000D02*
X71945500Y-109601000D01*
X62357000Y-110172500D02*
X62357000Y-105664000D01*
X62357000Y-105664000D02*
X59626500Y-102933500D01*
X50990500Y-101409500D02*
X58102500Y-101409500D01*
X49466500Y-102933500D02*
X50990500Y-101409500D01*
X58102500Y-101409500D02*
X59626500Y-102933500D01*
D20*
X74930000Y-140970000D02*
X76192949Y-139707051D01*
X76192949Y-139707051D02*
X76192949Y-132595051D01*
X76192949Y-132595051D02*
X76200000Y-132588000D01*
D19*
X108996225Y-124766136D02*
X109296224Y-125066135D01*
X108140500Y-123910411D02*
X108996225Y-124766136D01*
X108140500Y-117983000D02*
X108140500Y-123910411D01*
X75120500Y-102743000D02*
X77372721Y-100490779D01*
X110708063Y-101818063D02*
X110708063Y-126525779D01*
X77372721Y-100490779D02*
X109380779Y-100490779D01*
X109380779Y-100490779D02*
X110708063Y-101818063D01*
X110708063Y-126525779D02*
X109766806Y-127467036D01*
X109766806Y-127467036D02*
X109466807Y-127767035D01*
X109466807Y-127767035D02*
X109466807Y-131501307D01*
X109466807Y-131501307D02*
X113157000Y-135191500D01*
X48323500Y-144589500D02*
X47498000Y-145415000D01*
X113157000Y-135191500D02*
X113157000Y-147510500D01*
X113157000Y-147510500D02*
X111448198Y-149219302D01*
X111448198Y-149219302D02*
X61462302Y-149219302D01*
X61462302Y-149219302D02*
X56832500Y-144589500D01*
X56832500Y-144589500D02*
X48323500Y-144589500D01*
X38290500Y-120015000D02*
X39595658Y-120015000D01*
X39595658Y-120015000D02*
X43811648Y-124230990D01*
X43811648Y-124230990D02*
X43811648Y-130244760D01*
X43811648Y-130244760D02*
X43811648Y-130669024D01*
X75120500Y-117983000D02*
X75120500Y-116933000D01*
X75120500Y-116933000D02*
X75120500Y-102743000D01*
D20*
X52006500Y-105473500D02*
X52006500Y-110799468D01*
X52006500Y-110799468D02*
X52003636Y-110802332D01*
X66244550Y-123286269D02*
X62064851Y-127465968D01*
X55404411Y-130913251D02*
X54919478Y-130913251D01*
X58239718Y-130913251D02*
X55404411Y-130913251D01*
X66993178Y-123263409D02*
X66970318Y-123286269D01*
X91630500Y-104013000D02*
X91630500Y-119526116D01*
X92900500Y-102743000D02*
X91630500Y-104013000D01*
X87893207Y-123263409D02*
X66993178Y-123263409D01*
X66970318Y-123286269D02*
X66244550Y-123286269D01*
X62064851Y-127465968D02*
X61687001Y-127465968D01*
X91630500Y-119526116D02*
X87893207Y-123263409D01*
X61687001Y-127465968D02*
X58239718Y-130913251D01*
X65391597Y-121676625D02*
X61729220Y-125339002D01*
X58817082Y-125339002D02*
X54616505Y-129539579D01*
X85280500Y-117983000D02*
X85280500Y-119114370D01*
X66326442Y-121653765D02*
X66303582Y-121676625D01*
X82741105Y-121653765D02*
X66326442Y-121653765D01*
X85280500Y-119114370D02*
X82741105Y-121653765D01*
X66303582Y-121676625D02*
X65391597Y-121676625D01*
X61729220Y-125339002D02*
X58817082Y-125339002D01*
X54616505Y-129539579D02*
X54273606Y-129882478D01*
X89054118Y-119428846D02*
X86024377Y-122458587D01*
X86024377Y-122458587D02*
X66659810Y-122458587D01*
X66659810Y-122458587D02*
X66636950Y-122481447D01*
X89054118Y-103976618D02*
X89054118Y-119428846D01*
X87820500Y-102743000D02*
X89054118Y-103976618D01*
X56698983Y-129710744D02*
X56356084Y-130053643D01*
X65816494Y-122481447D02*
X61805941Y-126492000D01*
X59917727Y-126492000D02*
X56698983Y-129710744D01*
X61805941Y-126492000D02*
X59917727Y-126492000D01*
X66636950Y-122481447D02*
X65816494Y-122481447D01*
X87820500Y-117983000D02*
X83747324Y-122056176D01*
X66470266Y-122079036D02*
X65582494Y-122079036D01*
X61850563Y-125810967D02*
X59432989Y-125810967D01*
X83747324Y-122056176D02*
X66493126Y-122056176D01*
X59432989Y-125810967D02*
X55910027Y-129333929D01*
X65582494Y-122079036D02*
X61850563Y-125810967D01*
X66493126Y-122056176D02*
X66470266Y-122079036D01*
X55910027Y-129333929D02*
X55567128Y-129676828D01*
X57433293Y-125180458D02*
X57090394Y-125523357D01*
X65493022Y-119641710D02*
X65470162Y-119664570D01*
X77660500Y-117983000D02*
X76001790Y-119641710D01*
X65470162Y-119664570D02*
X62949181Y-119664570D01*
X76001790Y-119641710D02*
X65493022Y-119641710D01*
X62949181Y-119664570D02*
X57433293Y-125180458D01*
X61918395Y-127015957D02*
X60948130Y-127015957D01*
X60948130Y-127015957D02*
X58724362Y-129239725D01*
X86613872Y-122860998D02*
X66826494Y-122860998D01*
X58724362Y-129239725D02*
X58381463Y-129582624D01*
X66826494Y-122860998D02*
X66803634Y-122883858D01*
X66050494Y-122883858D02*
X61918395Y-127015957D01*
X66803634Y-122883858D02*
X66050494Y-122883858D01*
X90360500Y-117983000D02*
X90360500Y-119114370D01*
X90360500Y-119114370D02*
X86613872Y-122860998D01*
X65636846Y-120066981D02*
X63149588Y-120066981D01*
X65659706Y-120044121D02*
X65636846Y-120066981D01*
X78139379Y-120044121D02*
X65659706Y-120044121D01*
X63149588Y-120066981D02*
X59168485Y-124048084D01*
X80200500Y-117983000D02*
X78139379Y-120044121D01*
X59168485Y-124048084D02*
X59168485Y-124533017D01*
X60337601Y-129762313D02*
X60337601Y-129781396D01*
X66411234Y-123688680D02*
X60337601Y-129762313D01*
X60337601Y-129781396D02*
X59994702Y-130124295D01*
X67137002Y-123688680D02*
X66411234Y-123688680D01*
X67159862Y-123665820D02*
X67137002Y-123688680D01*
X92900500Y-119114370D02*
X88349050Y-123665820D01*
X88349050Y-123665820D02*
X67159862Y-123665820D01*
X92900500Y-117983000D02*
X92900500Y-119114370D01*
X60761517Y-129907492D02*
X60761517Y-130617454D01*
X89355269Y-124068231D02*
X67326546Y-124068231D01*
X67326546Y-124068231D02*
X67303686Y-124091091D01*
X60761517Y-130617454D02*
X60418618Y-130960353D01*
X66577918Y-124091091D02*
X60761517Y-129907492D01*
X67303686Y-124091091D02*
X66577918Y-124091091D01*
X95440500Y-117983000D02*
X89355269Y-124068231D01*
X63417662Y-120469392D02*
X61081729Y-122805325D01*
X81452189Y-119799088D02*
X80804745Y-120446532D01*
X65826390Y-120446532D02*
X65803530Y-120469392D01*
X80804745Y-120446532D02*
X65826390Y-120446532D01*
X61081729Y-122805325D02*
X61081729Y-122978445D01*
X61081729Y-122978445D02*
X61081729Y-123463378D01*
X65803530Y-120469392D02*
X63417662Y-120469392D01*
X82740500Y-102743000D02*
X81452189Y-104031311D01*
X81452189Y-104031311D02*
X81452189Y-119799088D01*
X65993074Y-120848943D02*
X65970214Y-120871803D01*
X81005927Y-120848943D02*
X65993074Y-120848943D01*
X82740500Y-119114370D02*
X81005927Y-120848943D01*
X63908925Y-120871803D02*
X62212738Y-122567990D01*
X82740500Y-117983000D02*
X82740500Y-119114370D01*
X65970214Y-120871803D02*
X63908925Y-120871803D01*
X62212738Y-122567990D02*
X61869839Y-122910889D01*
X96704546Y-124470642D02*
X67493230Y-124470642D01*
X97980500Y-123194688D02*
X96704546Y-124470642D01*
X97980500Y-117983000D02*
X97980500Y-123194688D01*
X62314468Y-128923636D02*
X62314468Y-130640277D01*
X62314468Y-130640277D02*
X62314468Y-131125210D01*
X67493230Y-124470642D02*
X67470370Y-124493502D01*
X66744602Y-124493502D02*
X62314468Y-128923636D01*
X67470370Y-124493502D02*
X66744602Y-124493502D01*
X64944725Y-130620186D02*
X65235708Y-130329203D01*
X64944725Y-133524725D02*
X64944725Y-130620186D01*
X69850000Y-138430000D02*
X64944725Y-133524725D01*
X65235708Y-130329203D02*
X65535707Y-130029204D01*
X72390000Y-138430000D02*
X65569725Y-131609725D01*
X65569725Y-131488249D02*
X65569725Y-131063985D01*
X65569725Y-131609725D02*
X65569725Y-131488249D01*
X64882313Y-121274214D02*
X63016043Y-123140484D01*
X66136898Y-121274214D02*
X64882313Y-121274214D01*
X66159758Y-121251354D02*
X66136898Y-121274214D01*
X84010927Y-119712302D02*
X82471875Y-121251354D01*
X84010927Y-104012573D02*
X84010927Y-119712302D01*
X63016043Y-123140484D02*
X62673144Y-123483383D01*
X82471875Y-121251354D02*
X66159758Y-121251354D01*
X85280500Y-102743000D02*
X84010927Y-104012573D01*
X110998000Y-144589500D02*
X109722489Y-143313989D01*
X109722489Y-143313989D02*
X107265002Y-143313989D01*
X107265002Y-143313989D02*
X98298908Y-134347895D01*
X98298908Y-134347895D02*
X87435439Y-134347895D01*
X87435439Y-134347895D02*
X87011175Y-134347895D01*
X110998000Y-142049500D02*
X109715981Y-140767481D01*
X109715981Y-140767481D02*
X107257097Y-140767481D01*
X99086714Y-132597098D02*
X88811908Y-132597098D01*
X107257097Y-140767481D02*
X99086714Y-132597098D01*
X88811908Y-132597098D02*
X88387644Y-132597098D01*
X66720630Y-127239307D02*
X66235697Y-127239307D01*
X97614207Y-127239307D02*
X66720630Y-127239307D01*
X107344400Y-136969500D02*
X97614207Y-127239307D01*
X108458000Y-136969500D02*
X107344400Y-136969500D01*
X108458000Y-144589500D02*
X107236686Y-144589500D01*
X107236686Y-144589500D02*
X97793715Y-135146529D01*
X97793715Y-135146529D02*
X86822522Y-135146529D01*
X86822522Y-135146529D02*
X86398258Y-135146529D01*
X108458000Y-142049500D02*
X107211050Y-142049500D01*
X107211050Y-142049500D02*
X98693409Y-133531859D01*
X98693409Y-133531859D02*
X89124754Y-133531859D01*
X89124754Y-133531859D02*
X87759386Y-133531859D01*
X110998000Y-147129500D02*
X109771952Y-145903452D01*
X109771952Y-145903452D02*
X107268849Y-145903452D01*
X107268849Y-145903452D02*
X97325936Y-135960539D01*
X97325936Y-135960539D02*
X86665145Y-135960539D01*
X86665145Y-135960539D02*
X85650972Y-135960539D01*
X108458000Y-139509500D02*
X107186148Y-139509500D01*
X107186148Y-139509500D02*
X99433702Y-131757054D01*
X99433702Y-131757054D02*
X89424679Y-131757054D01*
X89424679Y-131757054D02*
X89000415Y-131757054D01*
X53975000Y-119951500D02*
X45847000Y-119951500D01*
X57238899Y-121005601D02*
X56896000Y-121348500D01*
X58982341Y-119262159D02*
X57238899Y-121005601D01*
X65736201Y-119239299D02*
X65326338Y-119239299D01*
X65303478Y-119262159D02*
X58982341Y-119262159D01*
X69151500Y-115824000D02*
X65736201Y-119239299D01*
X65326338Y-119239299D02*
X65303478Y-119262159D01*
X104140000Y-125793500D02*
X104101241Y-125832259D01*
X104101241Y-125832259D02*
X66700708Y-125832259D01*
X66700708Y-125832259D02*
X64812276Y-127720691D01*
X64812276Y-127720691D02*
X64469377Y-128063590D01*
X101815696Y-104038196D02*
X101815696Y-112925912D01*
X101815696Y-113895778D02*
X101815696Y-113410845D01*
X102968117Y-121669806D02*
X101815696Y-120517385D01*
X101815696Y-112925912D02*
X101815696Y-113410845D01*
X100520500Y-102743000D02*
X101815696Y-104038196D01*
X101815696Y-120517385D02*
X101815696Y-113895778D01*
X64412639Y-128840770D02*
X63927706Y-128840770D01*
X89090500Y-128079500D02*
X88329230Y-128840770D01*
X88329230Y-128840770D02*
X64412639Y-128840770D01*
X106882814Y-116243520D02*
X105912963Y-115273669D01*
X105367267Y-121828059D02*
X106882814Y-120312512D01*
X105600500Y-114900334D02*
X105570064Y-114930770D01*
X105600500Y-102743000D02*
X105600500Y-114900334D01*
X105912963Y-115273669D02*
X105570064Y-114930770D01*
X106882814Y-120312512D02*
X106882814Y-116243520D01*
X97980500Y-113534742D02*
X97964402Y-113550840D01*
X97980500Y-102743000D02*
X97980500Y-113534742D01*
X98307301Y-113893739D02*
X97964402Y-113550840D01*
X99274590Y-119150090D02*
X99274590Y-114861028D01*
X102298500Y-122174000D02*
X99274590Y-119150090D01*
X99274590Y-114861028D02*
X98307301Y-113893739D01*
X105600500Y-115887500D02*
X105600500Y-117983000D01*
X103060500Y-112580525D02*
X103971415Y-113491440D01*
X103060500Y-102743000D02*
X103060500Y-112580525D01*
X104348956Y-113868981D02*
X104314314Y-113834339D01*
X104348956Y-121148315D02*
X104348956Y-113868981D01*
X103971415Y-113491440D02*
X104314314Y-113834339D01*
X107176049Y-113439611D02*
X106833150Y-113782510D01*
X108140500Y-112475160D02*
X107176049Y-113439611D01*
X108140500Y-102743000D02*
X108140500Y-112475160D01*
X38608000Y-129603500D02*
X38608000Y-130805581D01*
X38608000Y-130805581D02*
X38608000Y-132143500D01*
X38608000Y-127063500D02*
X38608000Y-129603500D01*
X38608000Y-124523500D02*
X38608000Y-125623500D01*
X38608000Y-125623500D02*
X38608000Y-127063500D01*
D21*
G36*
X76777674Y-99834247D02*
G01*
X76777672Y-99834249D01*
X76743904Y-99861962D01*
X76716191Y-99895730D01*
X75296939Y-101314983D01*
X75261835Y-101308000D01*
X74979165Y-101308000D01*
X74701926Y-101363147D01*
X74440773Y-101471320D01*
X74205741Y-101628363D01*
X74005863Y-101828241D01*
X73848820Y-102063273D01*
X73740647Y-102324426D01*
X73685500Y-102601665D01*
X73685500Y-102884335D01*
X73740647Y-103161574D01*
X73848820Y-103422727D01*
X74005863Y-103657759D01*
X74205741Y-103857637D01*
X74235501Y-103877522D01*
X74235500Y-116553299D01*
X74196018Y-116557188D01*
X74076320Y-116593498D01*
X73966006Y-116652463D01*
X73869315Y-116731815D01*
X73789963Y-116828506D01*
X73730998Y-116938820D01*
X73694688Y-117058518D01*
X73682428Y-117183000D01*
X73682428Y-118783000D01*
X73692150Y-118881710D01*
X67168591Y-118881710D01*
X69248548Y-116801754D01*
X69436743Y-116764320D01*
X69614710Y-116690604D01*
X69774875Y-116583585D01*
X69911085Y-116447375D01*
X70018104Y-116287210D01*
X70091820Y-116109243D01*
X70129400Y-115920315D01*
X70129400Y-115727685D01*
X70091820Y-115538757D01*
X70018104Y-115360790D01*
X69911085Y-115200625D01*
X69774875Y-115064415D01*
X69614710Y-114957396D01*
X69436743Y-114883680D01*
X69247815Y-114846100D01*
X69055185Y-114846100D01*
X68866257Y-114883680D01*
X68688290Y-114957396D01*
X68528125Y-115064415D01*
X68391915Y-115200625D01*
X68284896Y-115360790D01*
X68211180Y-115538757D01*
X68173746Y-115726952D01*
X67580576Y-116320122D01*
X67615320Y-116236243D01*
X67652900Y-116047315D01*
X67652900Y-115854685D01*
X67615320Y-115665757D01*
X67541604Y-115487790D01*
X67435000Y-115328246D01*
X67435000Y-114605254D01*
X67541604Y-114445710D01*
X67615320Y-114267743D01*
X67652900Y-114078815D01*
X67652900Y-113886185D01*
X67615320Y-113697257D01*
X67541604Y-113519290D01*
X67434585Y-113359125D01*
X67298375Y-113222915D01*
X67138210Y-113115896D01*
X66960243Y-113042180D01*
X66771315Y-113004600D01*
X66578685Y-113004600D01*
X66389757Y-113042180D01*
X66256202Y-113097500D01*
X62729892Y-113097500D01*
X62686426Y-113093219D01*
X62642960Y-113097500D01*
X62642950Y-113097500D01*
X62512937Y-113110305D01*
X62346114Y-113160911D01*
X62192368Y-113243089D01*
X62192366Y-113243090D01*
X62192367Y-113243090D01*
X62091380Y-113325968D01*
X62091378Y-113325970D01*
X62057610Y-113353683D01*
X62029897Y-113387451D01*
X61437849Y-113979500D01*
X60315798Y-113979500D01*
X60182243Y-113924180D01*
X59994048Y-113886746D01*
X54053645Y-107946344D01*
X54053645Y-106891426D01*
X54109375Y-106914510D01*
X54398901Y-106972100D01*
X54694099Y-106972100D01*
X54983625Y-106914510D01*
X55256353Y-106801542D01*
X55501802Y-106637539D01*
X55710539Y-106428802D01*
X55816500Y-106270219D01*
X55922461Y-106428802D01*
X56131198Y-106637539D01*
X56376647Y-106801542D01*
X56649375Y-106914510D01*
X56938901Y-106972100D01*
X57234099Y-106972100D01*
X57523625Y-106914510D01*
X57796353Y-106801542D01*
X58041802Y-106637539D01*
X58250539Y-106428802D01*
X58356500Y-106270219D01*
X58462461Y-106428802D01*
X58671198Y-106637539D01*
X58916647Y-106801542D01*
X59189375Y-106914510D01*
X59478901Y-106972100D01*
X59774099Y-106972100D01*
X60063625Y-106914510D01*
X60336353Y-106801542D01*
X60581802Y-106637539D01*
X60790539Y-106428802D01*
X60954542Y-106183353D01*
X61067510Y-105910625D01*
X61125100Y-105621099D01*
X61125100Y-105325901D01*
X61067510Y-105036375D01*
X60954542Y-104763647D01*
X60790539Y-104518198D01*
X60581802Y-104309461D01*
X60421625Y-104202435D01*
X60645951Y-104031917D01*
X60840653Y-103811926D01*
X60988696Y-103558178D01*
X61084390Y-103280424D01*
X61106177Y-103170895D01*
X60966347Y-102936500D01*
X59629500Y-102936500D01*
X59629500Y-102956500D01*
X59623500Y-102956500D01*
X59623500Y-102936500D01*
X59603500Y-102936500D01*
X59603500Y-102930500D01*
X59623500Y-102930500D01*
X59623500Y-101593653D01*
X59629500Y-101593653D01*
X59629500Y-102930500D01*
X60966347Y-102930500D01*
X61106177Y-102696105D01*
X61084390Y-102586576D01*
X60988696Y-102308822D01*
X60840653Y-102055074D01*
X60645951Y-101835083D01*
X60412072Y-101657304D01*
X60148004Y-101528568D01*
X59863895Y-101453823D01*
X59629500Y-101593653D01*
X59623500Y-101593653D01*
X59389105Y-101453823D01*
X59104996Y-101528568D01*
X58840928Y-101657304D01*
X58607049Y-101835083D01*
X58412347Y-102055074D01*
X58360866Y-102143314D01*
X58250539Y-101978198D01*
X58041802Y-101769461D01*
X57796353Y-101605458D01*
X57523625Y-101492490D01*
X57234099Y-101434900D01*
X56938901Y-101434900D01*
X56649375Y-101492490D01*
X56376647Y-101605458D01*
X56131198Y-101769461D01*
X55922461Y-101978198D01*
X55816500Y-102136781D01*
X55710539Y-101978198D01*
X55501802Y-101769461D01*
X55256353Y-101605458D01*
X54983625Y-101492490D01*
X54694099Y-101434900D01*
X54398901Y-101434900D01*
X54109375Y-101492490D01*
X53836647Y-101605458D01*
X53591198Y-101769461D01*
X53382461Y-101978198D01*
X53276500Y-102136781D01*
X53170539Y-101978198D01*
X52961802Y-101769461D01*
X52716353Y-101605458D01*
X52443625Y-101492490D01*
X52154099Y-101434900D01*
X51858901Y-101434900D01*
X51569375Y-101492490D01*
X51296647Y-101605458D01*
X51051198Y-101769461D01*
X50842461Y-101978198D01*
X50732134Y-102143314D01*
X50680653Y-102055074D01*
X50485951Y-101835083D01*
X50252072Y-101657304D01*
X49988004Y-101528568D01*
X49703895Y-101453823D01*
X49469500Y-101593653D01*
X49469500Y-102930500D01*
X49489500Y-102930500D01*
X49489500Y-102936500D01*
X49469500Y-102936500D01*
X49469500Y-102956500D01*
X49463500Y-102956500D01*
X49463500Y-102936500D01*
X48126653Y-102936500D01*
X47986823Y-103170895D01*
X48008610Y-103280424D01*
X48104304Y-103558178D01*
X48252347Y-103811926D01*
X48420317Y-104001713D01*
X48358720Y-104020398D01*
X48248406Y-104079363D01*
X48151715Y-104158715D01*
X48072363Y-104255406D01*
X48013398Y-104365720D01*
X47977088Y-104485418D01*
X47964828Y-104609900D01*
X47964828Y-106337100D01*
X47977088Y-106461582D01*
X48013398Y-106581280D01*
X48072363Y-106691594D01*
X48151715Y-106788285D01*
X48248406Y-106867637D01*
X48358720Y-106926602D01*
X48478418Y-106962912D01*
X48602900Y-106975172D01*
X50330100Y-106975172D01*
X50454582Y-106962912D01*
X50574280Y-106926602D01*
X50684594Y-106867637D01*
X50781285Y-106788285D01*
X50860637Y-106691594D01*
X50919602Y-106581280D01*
X50937136Y-106523477D01*
X51051198Y-106637539D01*
X51246500Y-106768035D01*
X51246501Y-110176507D01*
X51244051Y-110178957D01*
X51137032Y-110339122D01*
X51063316Y-110517089D01*
X51025736Y-110706017D01*
X51025736Y-110898647D01*
X51063316Y-111087575D01*
X51137032Y-111265542D01*
X51244051Y-111425707D01*
X51380261Y-111561917D01*
X51540426Y-111668936D01*
X51718393Y-111742652D01*
X51907321Y-111780232D01*
X52099951Y-111780232D01*
X52288879Y-111742652D01*
X52466846Y-111668936D01*
X52627011Y-111561917D01*
X52763221Y-111425707D01*
X52870240Y-111265542D01*
X52943956Y-111087575D01*
X52981536Y-110898647D01*
X52981536Y-110706017D01*
X52943956Y-110517089D01*
X52870240Y-110339122D01*
X52766500Y-110183864D01*
X52766500Y-108811697D01*
X52782648Y-108824949D01*
X57937198Y-113979500D01*
X50759748Y-113979500D01*
X50716281Y-113975219D01*
X50672815Y-113979500D01*
X50672805Y-113979500D01*
X50542792Y-113992305D01*
X50375969Y-114042911D01*
X50222223Y-114125089D01*
X50222221Y-114125090D01*
X50222222Y-114125090D01*
X50121235Y-114207968D01*
X50121233Y-114207970D01*
X50087465Y-114235683D01*
X50059752Y-114269451D01*
X49221333Y-115107871D01*
X49143827Y-115185377D01*
X49054682Y-115222302D01*
X45947619Y-115222302D01*
X45904153Y-115218021D01*
X45860687Y-115222302D01*
X45860677Y-115222302D01*
X45730664Y-115235107D01*
X45563841Y-115285713D01*
X45410095Y-115367891D01*
X45410093Y-115367892D01*
X45410094Y-115367892D01*
X45309107Y-115450770D01*
X45309105Y-115450772D01*
X45275337Y-115478485D01*
X45247624Y-115512253D01*
X44285591Y-116474287D01*
X44251824Y-116501999D01*
X44224112Y-116535766D01*
X44224108Y-116535770D01*
X44141230Y-116636757D01*
X44059052Y-116790503D01*
X44008445Y-116957326D01*
X43991359Y-117130816D01*
X43995641Y-117174295D01*
X43995641Y-123163404D01*
X40252192Y-119419956D01*
X40224475Y-119386183D01*
X40089717Y-119275589D01*
X39935971Y-119193411D01*
X39769148Y-119142805D01*
X39639135Y-119130000D01*
X39639127Y-119130000D01*
X39595658Y-119125719D01*
X39552189Y-119130000D01*
X38709298Y-119130000D01*
X38575743Y-119074680D01*
X38386815Y-119037100D01*
X38194185Y-119037100D01*
X38005257Y-119074680D01*
X37827290Y-119148396D01*
X37667125Y-119255415D01*
X37530915Y-119391625D01*
X37423896Y-119551790D01*
X37350180Y-119729757D01*
X37312600Y-119918685D01*
X37312600Y-120111315D01*
X37350180Y-120300243D01*
X37423896Y-120478210D01*
X37530915Y-120638375D01*
X37667125Y-120774585D01*
X37827290Y-120881604D01*
X38005257Y-120955320D01*
X38194185Y-120992900D01*
X38386815Y-120992900D01*
X38575743Y-120955320D01*
X38709298Y-120900000D01*
X39229080Y-120900000D01*
X41385785Y-123056706D01*
X41294260Y-123038500D01*
X41001740Y-123038500D01*
X40714842Y-123095568D01*
X40444589Y-123207510D01*
X40201368Y-123370025D01*
X40069513Y-123501880D01*
X40047502Y-123429320D01*
X39988537Y-123319006D01*
X39909185Y-123222315D01*
X39812494Y-123142963D01*
X39702180Y-123083998D01*
X39582482Y-123047688D01*
X39458000Y-123035428D01*
X37758000Y-123035428D01*
X37633518Y-123047688D01*
X37513820Y-123083998D01*
X37403506Y-123142963D01*
X37306815Y-123222315D01*
X37227463Y-123319006D01*
X37168498Y-123429320D01*
X37132188Y-123549018D01*
X37119928Y-123673500D01*
X37119928Y-125373500D01*
X37132188Y-125497982D01*
X37168498Y-125617680D01*
X37227463Y-125727994D01*
X37306815Y-125824685D01*
X37403506Y-125904037D01*
X37513820Y-125963002D01*
X37586380Y-125985013D01*
X37454525Y-126116868D01*
X37292010Y-126360089D01*
X37180068Y-126630342D01*
X37123000Y-126917240D01*
X37123000Y-127209760D01*
X37180068Y-127496658D01*
X37292010Y-127766911D01*
X37454525Y-128010132D01*
X37661368Y-128216975D01*
X37835760Y-128333500D01*
X37661368Y-128450025D01*
X37454525Y-128656868D01*
X37292010Y-128900089D01*
X37180068Y-129170342D01*
X37123000Y-129457240D01*
X37123000Y-129749760D01*
X37180068Y-130036658D01*
X37292010Y-130306911D01*
X37454525Y-130550132D01*
X37661368Y-130756975D01*
X37835760Y-130873500D01*
X37661368Y-130990025D01*
X37454525Y-131196868D01*
X37292010Y-131440089D01*
X37180068Y-131710342D01*
X37123000Y-131997240D01*
X37123000Y-132289760D01*
X37180068Y-132576658D01*
X37292010Y-132846911D01*
X37454525Y-133090132D01*
X37661368Y-133296975D01*
X37904589Y-133459490D01*
X38174842Y-133571432D01*
X38461740Y-133628500D01*
X38754260Y-133628500D01*
X39041158Y-133571432D01*
X39311411Y-133459490D01*
X39554632Y-133296975D01*
X39761475Y-133090132D01*
X39878000Y-132915740D01*
X39994525Y-133090132D01*
X40201368Y-133296975D01*
X40444589Y-133459490D01*
X40714842Y-133571432D01*
X41001740Y-133628500D01*
X41294260Y-133628500D01*
X41581158Y-133571432D01*
X41851411Y-133459490D01*
X42094632Y-133296975D01*
X42301475Y-133090132D01*
X42463990Y-132846911D01*
X42575932Y-132576658D01*
X42633000Y-132289760D01*
X42633000Y-131997240D01*
X42575932Y-131710342D01*
X42463990Y-131440089D01*
X42301475Y-131196868D01*
X42094632Y-130990025D01*
X41920240Y-130873500D01*
X42094632Y-130756975D01*
X42301475Y-130550132D01*
X42463990Y-130306911D01*
X42575932Y-130036658D01*
X42633000Y-129749760D01*
X42633000Y-129457240D01*
X42575932Y-129170342D01*
X42463990Y-128900089D01*
X42301475Y-128656868D01*
X42094632Y-128450025D01*
X41920240Y-128333500D01*
X42094632Y-128216975D01*
X42301475Y-128010132D01*
X42463990Y-127766911D01*
X42575932Y-127496658D01*
X42633000Y-127209760D01*
X42633000Y-126917240D01*
X42575932Y-126630342D01*
X42463990Y-126360089D01*
X42301475Y-126116868D01*
X42094632Y-125910025D01*
X41920240Y-125793500D01*
X42094632Y-125676975D01*
X42301475Y-125470132D01*
X42463990Y-125226911D01*
X42575932Y-124956658D01*
X42633000Y-124669760D01*
X42633000Y-124377240D01*
X42614794Y-124285715D01*
X42926648Y-124597569D01*
X42926649Y-130201274D01*
X42926648Y-130201284D01*
X42926648Y-130250226D01*
X42871328Y-130383781D01*
X42833748Y-130572709D01*
X42833748Y-130765339D01*
X42871328Y-130954267D01*
X42945044Y-131132234D01*
X43052063Y-131292399D01*
X43188273Y-131428609D01*
X43348438Y-131535628D01*
X43526405Y-131609344D01*
X43715333Y-131646924D01*
X43907963Y-131646924D01*
X43995640Y-131629484D01*
X43995640Y-131790781D01*
X41262847Y-134523575D01*
X41129290Y-134578896D01*
X40969125Y-134685915D01*
X40832915Y-134822125D01*
X40725896Y-134982290D01*
X40652180Y-135160257D01*
X40614600Y-135349185D01*
X40614600Y-135541815D01*
X40652180Y-135730743D01*
X40725896Y-135908710D01*
X40832915Y-136068875D01*
X40969125Y-136205085D01*
X41129290Y-136312104D01*
X41307257Y-136385820D01*
X41496185Y-136423400D01*
X41688815Y-136423400D01*
X41877743Y-136385820D01*
X42011298Y-136330500D01*
X46428381Y-136330500D01*
X46576185Y-136359900D01*
X46768815Y-136359900D01*
X46957743Y-136322320D01*
X47091298Y-136267000D01*
X48721968Y-136267000D01*
X48735533Y-136268336D01*
X48735543Y-136268336D01*
X48779009Y-136272617D01*
X48822475Y-136268336D01*
X59084473Y-136268336D01*
X59120915Y-136322875D01*
X59257125Y-136459085D01*
X59417290Y-136566104D01*
X59595257Y-136639820D01*
X59784185Y-136677400D01*
X59976815Y-136677400D01*
X60165743Y-136639820D01*
X60343710Y-136566104D01*
X60503875Y-136459085D01*
X60640085Y-136322875D01*
X60747104Y-136162710D01*
X60820820Y-135984743D01*
X60858400Y-135795815D01*
X60858400Y-135603185D01*
X60820820Y-135414257D01*
X60747104Y-135236290D01*
X60640085Y-135076125D01*
X60503875Y-134939915D01*
X60343710Y-134832896D01*
X60213065Y-134778781D01*
X60193153Y-134754519D01*
X60058395Y-134643925D01*
X59904649Y-134561747D01*
X59737826Y-134511141D01*
X59607813Y-134498336D01*
X59607805Y-134498336D01*
X59564336Y-134494055D01*
X59520867Y-134498336D01*
X48834716Y-134498336D01*
X48821151Y-134497000D01*
X48821143Y-134497000D01*
X48777674Y-134492719D01*
X48734205Y-134497000D01*
X47091298Y-134497000D01*
X46957743Y-134441680D01*
X46768815Y-134404100D01*
X46576185Y-134404100D01*
X46387257Y-134441680D01*
X46209290Y-134515396D01*
X46141787Y-134560500D01*
X43729078Y-134560500D01*
X45475690Y-132813889D01*
X45509457Y-132786177D01*
X45542625Y-132745763D01*
X45620050Y-132651420D01*
X45620051Y-132651419D01*
X45702229Y-132497673D01*
X45752835Y-132330850D01*
X45765640Y-132200837D01*
X45765640Y-132200827D01*
X45769921Y-132157361D01*
X45765640Y-132113895D01*
X45765640Y-120929400D01*
X45943315Y-120929400D01*
X46132243Y-120891820D01*
X46310210Y-120818104D01*
X46469754Y-120711500D01*
X53352246Y-120711500D01*
X53511790Y-120818104D01*
X53689757Y-120891820D01*
X53878685Y-120929400D01*
X54071315Y-120929400D01*
X54260243Y-120891820D01*
X54438210Y-120818104D01*
X54598375Y-120711085D01*
X54734585Y-120574875D01*
X54841604Y-120414710D01*
X54915320Y-120236743D01*
X54952900Y-120047815D01*
X54952900Y-119855185D01*
X54915320Y-119666257D01*
X54841604Y-119488290D01*
X54734585Y-119328125D01*
X54598375Y-119191915D01*
X54438210Y-119084896D01*
X54260243Y-119011180D01*
X54071315Y-118973600D01*
X53878685Y-118973600D01*
X53689757Y-119011180D01*
X53511790Y-119084896D01*
X53352246Y-119191500D01*
X46469754Y-119191500D01*
X46310210Y-119084896D01*
X46132243Y-119011180D01*
X45943315Y-118973600D01*
X45765640Y-118973600D01*
X45765640Y-117497394D01*
X46270733Y-116992302D01*
X49054682Y-116992302D01*
X49188237Y-117047622D01*
X49377165Y-117085202D01*
X49569795Y-117085202D01*
X49758723Y-117047622D01*
X49936690Y-116973906D01*
X50096855Y-116866887D01*
X50233065Y-116730677D01*
X50340084Y-116570512D01*
X50395405Y-116436955D01*
X50472911Y-116359449D01*
X51082861Y-115749500D01*
X59478202Y-115749500D01*
X59611757Y-115804820D01*
X59800685Y-115842400D01*
X59993315Y-115842400D01*
X60182243Y-115804820D01*
X60315798Y-115749500D01*
X61760958Y-115749500D01*
X61804427Y-115753781D01*
X61847896Y-115749500D01*
X61847904Y-115749500D01*
X61977917Y-115736695D01*
X62144740Y-115686089D01*
X62298486Y-115603911D01*
X62433244Y-115493317D01*
X62460961Y-115459544D01*
X63053006Y-114867500D01*
X65915000Y-114867500D01*
X65915001Y-115328245D01*
X65808396Y-115487790D01*
X65734680Y-115665757D01*
X65697100Y-115854685D01*
X65697100Y-116047315D01*
X65734680Y-116236243D01*
X65808396Y-116414210D01*
X65915415Y-116574375D01*
X66051625Y-116710585D01*
X66211790Y-116817604D01*
X66389757Y-116891320D01*
X66578685Y-116928900D01*
X66771315Y-116928900D01*
X66960243Y-116891320D01*
X67044122Y-116856576D01*
X65421400Y-118479299D01*
X65363661Y-118479299D01*
X65326338Y-118475623D01*
X65289016Y-118479299D01*
X65289005Y-118479299D01*
X65177352Y-118490296D01*
X65138244Y-118502159D01*
X59019663Y-118502159D01*
X58982340Y-118498483D01*
X58945017Y-118502159D01*
X58945008Y-118502159D01*
X58833355Y-118513156D01*
X58690094Y-118556613D01*
X58558065Y-118627185D01*
X58442340Y-118722158D01*
X58418542Y-118751156D01*
X56798953Y-120370746D01*
X56610757Y-120408180D01*
X56432790Y-120481896D01*
X56272625Y-120588915D01*
X56136415Y-120725125D01*
X56029396Y-120885290D01*
X55955680Y-121063257D01*
X55918100Y-121252185D01*
X55918100Y-121444815D01*
X55955680Y-121633743D01*
X56029396Y-121811710D01*
X56136415Y-121971875D01*
X56272625Y-122108085D01*
X56432790Y-122215104D01*
X56610757Y-122288820D01*
X56799685Y-122326400D01*
X56992315Y-122326400D01*
X57181243Y-122288820D01*
X57359210Y-122215104D01*
X57519375Y-122108085D01*
X57655585Y-121971875D01*
X57762604Y-121811710D01*
X57836320Y-121633743D01*
X57873754Y-121445547D01*
X59297143Y-120022159D01*
X61516790Y-120022159D01*
X56993347Y-124545603D01*
X56805151Y-124583037D01*
X56627184Y-124656753D01*
X56467019Y-124763772D01*
X56330809Y-124899982D01*
X56223790Y-125060147D01*
X56150074Y-125238114D01*
X56112494Y-125427042D01*
X56112494Y-125619672D01*
X56150074Y-125808600D01*
X56223790Y-125986567D01*
X56330809Y-126146732D01*
X56467019Y-126282942D01*
X56627184Y-126389961D01*
X56672536Y-126408746D01*
X54176559Y-128904724D01*
X53988363Y-128942158D01*
X53810396Y-129015874D01*
X53650231Y-129122893D01*
X53514021Y-129259103D01*
X53407002Y-129419268D01*
X53333286Y-129597235D01*
X53295706Y-129786163D01*
X53295706Y-129978793D01*
X53333286Y-130167721D01*
X53407002Y-130345688D01*
X53514021Y-130505853D01*
X53650231Y-130642063D01*
X53810396Y-130749082D01*
X53944062Y-130804448D01*
X53941578Y-130816936D01*
X53941578Y-131009566D01*
X53979158Y-131198494D01*
X54052874Y-131376461D01*
X54159893Y-131536626D01*
X54296103Y-131672836D01*
X54456268Y-131779855D01*
X54634235Y-131853571D01*
X54823163Y-131891151D01*
X55015793Y-131891151D01*
X55204721Y-131853571D01*
X55382688Y-131779855D01*
X55542232Y-131673251D01*
X58202396Y-131673251D01*
X58239718Y-131676927D01*
X58277040Y-131673251D01*
X58277051Y-131673251D01*
X58388704Y-131662254D01*
X58531965Y-131618797D01*
X58663994Y-131548225D01*
X58779719Y-131453252D01*
X58803522Y-131424248D01*
X59357609Y-130870162D01*
X59371327Y-130883880D01*
X59440718Y-130930246D01*
X59440718Y-131056668D01*
X59478298Y-131245596D01*
X59552014Y-131423563D01*
X59659033Y-131583728D01*
X59795243Y-131719938D01*
X59955408Y-131826957D01*
X60133375Y-131900673D01*
X60322303Y-131938253D01*
X60514933Y-131938253D01*
X60703861Y-131900673D01*
X60881828Y-131826957D01*
X61041993Y-131719938D01*
X61178203Y-131583728D01*
X61285222Y-131423563D01*
X61347060Y-131274272D01*
X61374148Y-131410453D01*
X61447864Y-131588420D01*
X61554883Y-131748585D01*
X61691093Y-131884795D01*
X61851258Y-131991814D01*
X62029225Y-132065530D01*
X62218153Y-132103110D01*
X62410783Y-132103110D01*
X62599711Y-132065530D01*
X62777678Y-131991814D01*
X62937843Y-131884795D01*
X63074053Y-131748585D01*
X63181072Y-131588420D01*
X63254788Y-131410453D01*
X63292368Y-131221525D01*
X63292368Y-131028895D01*
X63254788Y-130839967D01*
X63181072Y-130662000D01*
X63074468Y-130502456D01*
X63074468Y-129323984D01*
X63168121Y-129464145D01*
X63304331Y-129600355D01*
X63464496Y-129707374D01*
X63642463Y-129781090D01*
X63831391Y-129818670D01*
X64024021Y-129818670D01*
X64212949Y-129781090D01*
X64390916Y-129707374D01*
X64550460Y-129600770D01*
X64654698Y-129600770D01*
X64595387Y-129743961D01*
X64557953Y-129932157D01*
X64433723Y-130056387D01*
X64404725Y-130080185D01*
X64380927Y-130109183D01*
X64380926Y-130109184D01*
X64309751Y-130195910D01*
X64239179Y-130327940D01*
X64220838Y-130388405D01*
X64196552Y-130468469D01*
X64195723Y-130471201D01*
X64181049Y-130620186D01*
X64184726Y-130657518D01*
X64184725Y-133487402D01*
X64181049Y-133524725D01*
X64184725Y-133562047D01*
X64184725Y-133562057D01*
X64195722Y-133673710D01*
X64211135Y-133724520D01*
X64239179Y-133816971D01*
X64309751Y-133949001D01*
X64349596Y-133997551D01*
X64404724Y-134064726D01*
X64433728Y-134088529D01*
X67290198Y-136945000D01*
X67163740Y-136945000D01*
X66876842Y-137002068D01*
X66606589Y-137114010D01*
X66363368Y-137276525D01*
X66156525Y-137483368D01*
X66040000Y-137657760D01*
X65923475Y-137483368D01*
X65716632Y-137276525D01*
X65473411Y-137114010D01*
X65203158Y-137002068D01*
X64916260Y-136945000D01*
X64623740Y-136945000D01*
X64336842Y-137002068D01*
X64066589Y-137114010D01*
X63823368Y-137276525D01*
X63616525Y-137483368D01*
X63500000Y-137657760D01*
X63383475Y-137483368D01*
X63176632Y-137276525D01*
X62933411Y-137114010D01*
X62663158Y-137002068D01*
X62376260Y-136945000D01*
X62083740Y-136945000D01*
X61796842Y-137002068D01*
X61526589Y-137114010D01*
X61283368Y-137276525D01*
X61076525Y-137483368D01*
X60960000Y-137657760D01*
X60843475Y-137483368D01*
X60636632Y-137276525D01*
X60393411Y-137114010D01*
X60123158Y-137002068D01*
X59836260Y-136945000D01*
X59543740Y-136945000D01*
X59256842Y-137002068D01*
X58986589Y-137114010D01*
X58743368Y-137276525D01*
X58536525Y-137483368D01*
X58420000Y-137657760D01*
X58303475Y-137483368D01*
X58096632Y-137276525D01*
X57853411Y-137114010D01*
X57583158Y-137002068D01*
X57296260Y-136945000D01*
X57003740Y-136945000D01*
X56716842Y-137002068D01*
X56446589Y-137114010D01*
X56203368Y-137276525D01*
X55996525Y-137483368D01*
X55880000Y-137657760D01*
X55763475Y-137483368D01*
X55556632Y-137276525D01*
X55313411Y-137114010D01*
X55043158Y-137002068D01*
X54756260Y-136945000D01*
X54463740Y-136945000D01*
X54176842Y-137002068D01*
X53906589Y-137114010D01*
X53663368Y-137276525D01*
X53456525Y-137483368D01*
X53340000Y-137657760D01*
X53223475Y-137483368D01*
X53016632Y-137276525D01*
X52773411Y-137114010D01*
X52503158Y-137002068D01*
X52216260Y-136945000D01*
X51923740Y-136945000D01*
X51636842Y-137002068D01*
X51366589Y-137114010D01*
X51123368Y-137276525D01*
X50916525Y-137483368D01*
X50800000Y-137657760D01*
X50683475Y-137483368D01*
X50476632Y-137276525D01*
X50233411Y-137114010D01*
X49963158Y-137002068D01*
X49676260Y-136945000D01*
X49383740Y-136945000D01*
X49096842Y-137002068D01*
X48826589Y-137114010D01*
X48583368Y-137276525D01*
X48376525Y-137483368D01*
X48260000Y-137657760D01*
X48143475Y-137483368D01*
X47936632Y-137276525D01*
X47693411Y-137114010D01*
X47423158Y-137002068D01*
X47136260Y-136945000D01*
X46843740Y-136945000D01*
X46556842Y-137002068D01*
X46286589Y-137114010D01*
X46043368Y-137276525D01*
X45836525Y-137483368D01*
X45720000Y-137657760D01*
X45603475Y-137483368D01*
X45396632Y-137276525D01*
X45153411Y-137114010D01*
X44883158Y-137002068D01*
X44596260Y-136945000D01*
X44303740Y-136945000D01*
X44016842Y-137002068D01*
X43746589Y-137114010D01*
X43503368Y-137276525D01*
X43296525Y-137483368D01*
X43134010Y-137726589D01*
X43022068Y-137996842D01*
X42965000Y-138283740D01*
X42965000Y-138576260D01*
X43022068Y-138863158D01*
X43134010Y-139133411D01*
X43296525Y-139376632D01*
X43428380Y-139508487D01*
X43355820Y-139530498D01*
X43245506Y-139589463D01*
X43148815Y-139668815D01*
X43069463Y-139765506D01*
X43010498Y-139875820D01*
X42974188Y-139995518D01*
X42961928Y-140120000D01*
X42961928Y-141820000D01*
X42974188Y-141944482D01*
X43010498Y-142064180D01*
X43069463Y-142174494D01*
X43148815Y-142271185D01*
X43245506Y-142350537D01*
X43355820Y-142409502D01*
X43475518Y-142445812D01*
X43600000Y-142458072D01*
X45300000Y-142458072D01*
X45424482Y-142445812D01*
X45544180Y-142409502D01*
X45654494Y-142350537D01*
X45751185Y-142271185D01*
X45830537Y-142174494D01*
X45889502Y-142064180D01*
X45911513Y-141991620D01*
X46043368Y-142123475D01*
X46286589Y-142285990D01*
X46556842Y-142397932D01*
X46843740Y-142455000D01*
X47136260Y-142455000D01*
X47423158Y-142397932D01*
X47693411Y-142285990D01*
X47936632Y-142123475D01*
X48143475Y-141916632D01*
X48260000Y-141742240D01*
X48376525Y-141916632D01*
X48583368Y-142123475D01*
X48826589Y-142285990D01*
X49096842Y-142397932D01*
X49383740Y-142455000D01*
X49676260Y-142455000D01*
X49963158Y-142397932D01*
X50233411Y-142285990D01*
X50476632Y-142123475D01*
X50683475Y-141916632D01*
X50800000Y-141742240D01*
X50916525Y-141916632D01*
X51123368Y-142123475D01*
X51366589Y-142285990D01*
X51636842Y-142397932D01*
X51923740Y-142455000D01*
X52216260Y-142455000D01*
X52503158Y-142397932D01*
X52773411Y-142285990D01*
X53016632Y-142123475D01*
X53223475Y-141916632D01*
X53340000Y-141742240D01*
X53456525Y-141916632D01*
X53663368Y-142123475D01*
X53906589Y-142285990D01*
X54176842Y-142397932D01*
X54463740Y-142455000D01*
X54756260Y-142455000D01*
X55043158Y-142397932D01*
X55313411Y-142285990D01*
X55556632Y-142123475D01*
X55763475Y-141916632D01*
X55880000Y-141742240D01*
X55996525Y-141916632D01*
X56203368Y-142123475D01*
X56446589Y-142285990D01*
X56716842Y-142397932D01*
X57003740Y-142455000D01*
X57296260Y-142455000D01*
X57583158Y-142397932D01*
X57853411Y-142285990D01*
X58096632Y-142123475D01*
X58303475Y-141916632D01*
X58420000Y-141742240D01*
X58536525Y-141916632D01*
X58743368Y-142123475D01*
X58986589Y-142285990D01*
X59256842Y-142397932D01*
X59543740Y-142455000D01*
X59836260Y-142455000D01*
X60123158Y-142397932D01*
X60393411Y-142285990D01*
X60636632Y-142123475D01*
X60843475Y-141916632D01*
X60960000Y-141742240D01*
X61076525Y-141916632D01*
X61283368Y-142123475D01*
X61526589Y-142285990D01*
X61796842Y-142397932D01*
X62083740Y-142455000D01*
X62376260Y-142455000D01*
X62663158Y-142397932D01*
X62933411Y-142285990D01*
X63176632Y-142123475D01*
X63383475Y-141916632D01*
X63500000Y-141742240D01*
X63616525Y-141916632D01*
X63823368Y-142123475D01*
X64066589Y-142285990D01*
X64336842Y-142397932D01*
X64623740Y-142455000D01*
X64916260Y-142455000D01*
X65203158Y-142397932D01*
X65473411Y-142285990D01*
X65716632Y-142123475D01*
X65923475Y-141916632D01*
X66040000Y-141742240D01*
X66156525Y-141916632D01*
X66363368Y-142123475D01*
X66606589Y-142285990D01*
X66876842Y-142397932D01*
X67163740Y-142455000D01*
X67456260Y-142455000D01*
X67743158Y-142397932D01*
X68013411Y-142285990D01*
X68256632Y-142123475D01*
X68463475Y-141916632D01*
X68581367Y-141740194D01*
X68585400Y-141748467D01*
X68761570Y-141980220D01*
X68979568Y-142173151D01*
X69231016Y-142319846D01*
X69506251Y-142414667D01*
X69614732Y-142436245D01*
X69847000Y-142296247D01*
X69847000Y-140973000D01*
X69853000Y-140973000D01*
X69853000Y-142296247D01*
X70085268Y-142436245D01*
X70193749Y-142414667D01*
X70468984Y-142319846D01*
X70720432Y-142173151D01*
X70938430Y-141980220D01*
X71114600Y-141748467D01*
X71120000Y-141737391D01*
X71125400Y-141748467D01*
X71301570Y-141980220D01*
X71519568Y-142173151D01*
X71771016Y-142319846D01*
X72046251Y-142414667D01*
X72154732Y-142436245D01*
X72387000Y-142296247D01*
X72387000Y-140973000D01*
X69853000Y-140973000D01*
X69847000Y-140973000D01*
X69827000Y-140973000D01*
X69827000Y-140967000D01*
X69847000Y-140967000D01*
X69847000Y-140947000D01*
X69853000Y-140947000D01*
X69853000Y-140967000D01*
X72387000Y-140967000D01*
X72387000Y-140947000D01*
X72393000Y-140947000D01*
X72393000Y-140967000D01*
X72413000Y-140967000D01*
X72413000Y-140973000D01*
X72393000Y-140973000D01*
X72393000Y-142296247D01*
X72625268Y-142436245D01*
X72733749Y-142414667D01*
X72893545Y-142359616D01*
X72893545Y-142686679D01*
X44304786Y-142686679D01*
X44261320Y-142682398D01*
X44217854Y-142686679D01*
X44217844Y-142686679D01*
X44087831Y-142699484D01*
X43921008Y-142750090D01*
X43767262Y-142832268D01*
X43767260Y-142832269D01*
X43767261Y-142832269D01*
X43666274Y-142915147D01*
X43666272Y-142915149D01*
X43632504Y-142942862D01*
X43604791Y-142976630D01*
X43040846Y-143540575D01*
X42907290Y-143595896D01*
X42747125Y-143702915D01*
X42610915Y-143839125D01*
X42503896Y-143999290D01*
X42430180Y-144177257D01*
X42392600Y-144366185D01*
X42392600Y-144558815D01*
X42430180Y-144747743D01*
X42503896Y-144925710D01*
X42610915Y-145085875D01*
X42747125Y-145222085D01*
X42907290Y-145329104D01*
X43085257Y-145402820D01*
X43274185Y-145440400D01*
X43466815Y-145440400D01*
X43655743Y-145402820D01*
X43833710Y-145329104D01*
X43993875Y-145222085D01*
X44130085Y-145085875D01*
X44237104Y-144925710D01*
X44292425Y-144792154D01*
X44627900Y-144456679D01*
X47204743Y-144456679D01*
X47168346Y-144493075D01*
X47034790Y-144548396D01*
X46874625Y-144655415D01*
X46738415Y-144791625D01*
X46631396Y-144951790D01*
X46557680Y-145129757D01*
X46520100Y-145318685D01*
X46520100Y-145511315D01*
X46557680Y-145700243D01*
X46631396Y-145878210D01*
X46738415Y-146038375D01*
X46874625Y-146174585D01*
X47034790Y-146281604D01*
X47212757Y-146355320D01*
X47401685Y-146392900D01*
X47594315Y-146392900D01*
X47783243Y-146355320D01*
X47961210Y-146281604D01*
X48121375Y-146174585D01*
X48257585Y-146038375D01*
X48364604Y-145878210D01*
X48419925Y-145744654D01*
X48690079Y-145474500D01*
X56465922Y-145474500D01*
X60805772Y-149814351D01*
X60833485Y-149848119D01*
X60867253Y-149875832D01*
X60867255Y-149875834D01*
X60968242Y-149958712D01*
X60968243Y-149958713D01*
X61121989Y-150040891D01*
X61288812Y-150091497D01*
X61418825Y-150104302D01*
X61418833Y-150104302D01*
X61462302Y-150108583D01*
X61505771Y-150104302D01*
X111404729Y-150104302D01*
X111448198Y-150108583D01*
X111491667Y-150104302D01*
X111491675Y-150104302D01*
X111621688Y-150091497D01*
X111788511Y-150040891D01*
X111942257Y-149958713D01*
X112077015Y-149848119D01*
X112104732Y-149814346D01*
X113538000Y-148381079D01*
X113538000Y-154813000D01*
X36322000Y-154813000D01*
X36322000Y-106732500D01*
X38911428Y-106732500D01*
X38911428Y-108532500D01*
X38923688Y-108656982D01*
X38959998Y-108776680D01*
X39018963Y-108886994D01*
X39098315Y-108983685D01*
X39195006Y-109063037D01*
X39305320Y-109122002D01*
X39425018Y-109158312D01*
X39549500Y-109170572D01*
X41349500Y-109170572D01*
X41473982Y-109158312D01*
X41593680Y-109122002D01*
X41703994Y-109063037D01*
X41800685Y-108983685D01*
X41880037Y-108886994D01*
X41939002Y-108776680D01*
X41975312Y-108656982D01*
X41987572Y-108532500D01*
X41987572Y-106732500D01*
X41975312Y-106608018D01*
X41939002Y-106488320D01*
X41880037Y-106378006D01*
X41800685Y-106281315D01*
X41703994Y-106201963D01*
X41593680Y-106142998D01*
X41575373Y-106137444D01*
X41641812Y-106071005D01*
X41809799Y-105819595D01*
X41925511Y-105540243D01*
X41984500Y-105243684D01*
X41984500Y-104941316D01*
X41925511Y-104644757D01*
X41809799Y-104365405D01*
X41641812Y-104113995D01*
X41428005Y-103900188D01*
X41176595Y-103732201D01*
X40897243Y-103616489D01*
X40600684Y-103557500D01*
X40298316Y-103557500D01*
X40001757Y-103616489D01*
X39722405Y-103732201D01*
X39470995Y-103900188D01*
X39257188Y-104113995D01*
X39089201Y-104365405D01*
X38973489Y-104644757D01*
X38914500Y-104941316D01*
X38914500Y-105243684D01*
X38973489Y-105540243D01*
X39089201Y-105819595D01*
X39257188Y-106071005D01*
X39323627Y-106137444D01*
X39305320Y-106142998D01*
X39195006Y-106201963D01*
X39098315Y-106281315D01*
X39018963Y-106378006D01*
X38959998Y-106488320D01*
X38923688Y-106608018D01*
X38911428Y-106732500D01*
X36322000Y-106732500D01*
X36322000Y-102696105D01*
X47986823Y-102696105D01*
X48126653Y-102930500D01*
X49463500Y-102930500D01*
X49463500Y-101593653D01*
X49229105Y-101453823D01*
X48944996Y-101528568D01*
X48680928Y-101657304D01*
X48447049Y-101835083D01*
X48252347Y-102055074D01*
X48104304Y-102308822D01*
X48008610Y-102586576D01*
X47986823Y-102696105D01*
X36322000Y-102696105D01*
X36322000Y-99822000D01*
X76792597Y-99822000D01*
X76777674Y-99834247D01*
G37*
X76777674Y-99834247D02*
X76777672Y-99834249D01*
X76743904Y-99861962D01*
X76716191Y-99895730D01*
X75296939Y-101314983D01*
X75261835Y-101308000D01*
X74979165Y-101308000D01*
X74701926Y-101363147D01*
X74440773Y-101471320D01*
X74205741Y-101628363D01*
X74005863Y-101828241D01*
X73848820Y-102063273D01*
X73740647Y-102324426D01*
X73685500Y-102601665D01*
X73685500Y-102884335D01*
X73740647Y-103161574D01*
X73848820Y-103422727D01*
X74005863Y-103657759D01*
X74205741Y-103857637D01*
X74235501Y-103877522D01*
X74235500Y-116553299D01*
X74196018Y-116557188D01*
X74076320Y-116593498D01*
X73966006Y-116652463D01*
X73869315Y-116731815D01*
X73789963Y-116828506D01*
X73730998Y-116938820D01*
X73694688Y-117058518D01*
X73682428Y-117183000D01*
X73682428Y-118783000D01*
X73692150Y-118881710D01*
X67168591Y-118881710D01*
X69248548Y-116801754D01*
X69436743Y-116764320D01*
X69614710Y-116690604D01*
X69774875Y-116583585D01*
X69911085Y-116447375D01*
X70018104Y-116287210D01*
X70091820Y-116109243D01*
X70129400Y-115920315D01*
X70129400Y-115727685D01*
X70091820Y-115538757D01*
X70018104Y-115360790D01*
X69911085Y-115200625D01*
X69774875Y-115064415D01*
X69614710Y-114957396D01*
X69436743Y-114883680D01*
X69247815Y-114846100D01*
X69055185Y-114846100D01*
X68866257Y-114883680D01*
X68688290Y-114957396D01*
X68528125Y-115064415D01*
X68391915Y-115200625D01*
X68284896Y-115360790D01*
X68211180Y-115538757D01*
X68173746Y-115726952D01*
X67580576Y-116320122D01*
X67615320Y-116236243D01*
X67652900Y-116047315D01*
X67652900Y-115854685D01*
X67615320Y-115665757D01*
X67541604Y-115487790D01*
X67435000Y-115328246D01*
X67435000Y-114605254D01*
X67541604Y-114445710D01*
X67615320Y-114267743D01*
X67652900Y-114078815D01*
X67652900Y-113886185D01*
X67615320Y-113697257D01*
X67541604Y-113519290D01*
X67434585Y-113359125D01*
X67298375Y-113222915D01*
X67138210Y-113115896D01*
X66960243Y-113042180D01*
X66771315Y-113004600D01*
X66578685Y-113004600D01*
X66389757Y-113042180D01*
X66256202Y-113097500D01*
X62729892Y-113097500D01*
X62686426Y-113093219D01*
X62642960Y-113097500D01*
X62642950Y-113097500D01*
X62512937Y-113110305D01*
X62346114Y-113160911D01*
X62192368Y-113243089D01*
X62192366Y-113243090D01*
X62192367Y-113243090D01*
X62091380Y-113325968D01*
X62091378Y-113325970D01*
X62057610Y-113353683D01*
X62029897Y-113387451D01*
X61437849Y-113979500D01*
X60315798Y-113979500D01*
X60182243Y-113924180D01*
X59994048Y-113886746D01*
X54053645Y-107946344D01*
X54053645Y-106891426D01*
X54109375Y-106914510D01*
X54398901Y-106972100D01*
X54694099Y-106972100D01*
X54983625Y-106914510D01*
X55256353Y-106801542D01*
X55501802Y-106637539D01*
X55710539Y-106428802D01*
X55816500Y-106270219D01*
X55922461Y-106428802D01*
X56131198Y-106637539D01*
X56376647Y-106801542D01*
X56649375Y-106914510D01*
X56938901Y-106972100D01*
X57234099Y-106972100D01*
X57523625Y-106914510D01*
X57796353Y-106801542D01*
X58041802Y-106637539D01*
X58250539Y-106428802D01*
X58356500Y-106270219D01*
X58462461Y-106428802D01*
X58671198Y-106637539D01*
X58916647Y-106801542D01*
X59189375Y-106914510D01*
X59478901Y-106972100D01*
X59774099Y-106972100D01*
X60063625Y-106914510D01*
X60336353Y-106801542D01*
X60581802Y-106637539D01*
X60790539Y-106428802D01*
X60954542Y-106183353D01*
X61067510Y-105910625D01*
X61125100Y-105621099D01*
X61125100Y-105325901D01*
X61067510Y-105036375D01*
X60954542Y-104763647D01*
X60790539Y-104518198D01*
X60581802Y-104309461D01*
X60421625Y-104202435D01*
X60645951Y-104031917D01*
X60840653Y-103811926D01*
X60988696Y-103558178D01*
X61084390Y-103280424D01*
X61106177Y-103170895D01*
X60966347Y-102936500D01*
X59629500Y-102936500D01*
X59629500Y-102956500D01*
X59623500Y-102956500D01*
X59623500Y-102936500D01*
X59603500Y-102936500D01*
X59603500Y-102930500D01*
X59623500Y-102930500D01*
X59623500Y-101593653D01*
X59629500Y-101593653D01*
X59629500Y-102930500D01*
X60966347Y-102930500D01*
X61106177Y-102696105D01*
X61084390Y-102586576D01*
X60988696Y-102308822D01*
X60840653Y-102055074D01*
X60645951Y-101835083D01*
X60412072Y-101657304D01*
X60148004Y-101528568D01*
X59863895Y-101453823D01*
X59629500Y-101593653D01*
X59623500Y-101593653D01*
X59389105Y-101453823D01*
X59104996Y-101528568D01*
X58840928Y-101657304D01*
X58607049Y-101835083D01*
X58412347Y-102055074D01*
X58360866Y-102143314D01*
X58250539Y-101978198D01*
X58041802Y-101769461D01*
X57796353Y-101605458D01*
X57523625Y-101492490D01*
X57234099Y-101434900D01*
X56938901Y-101434900D01*
X56649375Y-101492490D01*
X56376647Y-101605458D01*
X56131198Y-101769461D01*
X55922461Y-101978198D01*
X55816500Y-102136781D01*
X55710539Y-101978198D01*
X55501802Y-101769461D01*
X55256353Y-101605458D01*
X54983625Y-101492490D01*
X54694099Y-101434900D01*
X54398901Y-101434900D01*
X54109375Y-101492490D01*
X53836647Y-101605458D01*
X53591198Y-101769461D01*
X53382461Y-101978198D01*
X53276500Y-102136781D01*
X53170539Y-101978198D01*
X52961802Y-101769461D01*
X52716353Y-101605458D01*
X52443625Y-101492490D01*
X52154099Y-101434900D01*
X51858901Y-101434900D01*
X51569375Y-101492490D01*
X51296647Y-101605458D01*
X51051198Y-101769461D01*
X50842461Y-101978198D01*
X50732134Y-102143314D01*
X50680653Y-102055074D01*
X50485951Y-101835083D01*
X50252072Y-101657304D01*
X49988004Y-101528568D01*
X49703895Y-101453823D01*
X49469500Y-101593653D01*
X49469500Y-102930500D01*
X49489500Y-102930500D01*
X49489500Y-102936500D01*
X49469500Y-102936500D01*
X49469500Y-102956500D01*
X49463500Y-102956500D01*
X49463500Y-102936500D01*
X48126653Y-102936500D01*
X47986823Y-103170895D01*
X48008610Y-103280424D01*
X48104304Y-103558178D01*
X48252347Y-103811926D01*
X48420317Y-104001713D01*
X48358720Y-104020398D01*
X48248406Y-104079363D01*
X48151715Y-104158715D01*
X48072363Y-104255406D01*
X48013398Y-104365720D01*
X47977088Y-104485418D01*
X47964828Y-104609900D01*
X47964828Y-106337100D01*
X47977088Y-106461582D01*
X48013398Y-106581280D01*
X48072363Y-106691594D01*
X48151715Y-106788285D01*
X48248406Y-106867637D01*
X48358720Y-106926602D01*
X48478418Y-106962912D01*
X48602900Y-106975172D01*
X50330100Y-106975172D01*
X50454582Y-106962912D01*
X50574280Y-106926602D01*
X50684594Y-106867637D01*
X50781285Y-106788285D01*
X50860637Y-106691594D01*
X50919602Y-106581280D01*
X50937136Y-106523477D01*
X51051198Y-106637539D01*
X51246500Y-106768035D01*
X51246501Y-110176507D01*
X51244051Y-110178957D01*
X51137032Y-110339122D01*
X51063316Y-110517089D01*
X51025736Y-110706017D01*
X51025736Y-110898647D01*
X51063316Y-111087575D01*
X51137032Y-111265542D01*
X51244051Y-111425707D01*
X51380261Y-111561917D01*
X51540426Y-111668936D01*
X51718393Y-111742652D01*
X51907321Y-111780232D01*
X52099951Y-111780232D01*
X52288879Y-111742652D01*
X52466846Y-111668936D01*
X52627011Y-111561917D01*
X52763221Y-111425707D01*
X52870240Y-111265542D01*
X52943956Y-111087575D01*
X52981536Y-110898647D01*
X52981536Y-110706017D01*
X52943956Y-110517089D01*
X52870240Y-110339122D01*
X52766500Y-110183864D01*
X52766500Y-108811697D01*
X52782648Y-108824949D01*
X57937198Y-113979500D01*
X50759748Y-113979500D01*
X50716281Y-113975219D01*
X50672815Y-113979500D01*
X50672805Y-113979500D01*
X50542792Y-113992305D01*
X50375969Y-114042911D01*
X50222223Y-114125089D01*
X50222221Y-114125090D01*
X50222222Y-114125090D01*
X50121235Y-114207968D01*
X50121233Y-114207970D01*
X50087465Y-114235683D01*
X50059752Y-114269451D01*
X49221333Y-115107871D01*
X49143827Y-115185377D01*
X49054682Y-115222302D01*
X45947619Y-115222302D01*
X45904153Y-115218021D01*
X45860687Y-115222302D01*
X45860677Y-115222302D01*
X45730664Y-115235107D01*
X45563841Y-115285713D01*
X45410095Y-115367891D01*
X45410093Y-115367892D01*
X45410094Y-115367892D01*
X45309107Y-115450770D01*
X45309105Y-115450772D01*
X45275337Y-115478485D01*
X45247624Y-115512253D01*
X44285591Y-116474287D01*
X44251824Y-116501999D01*
X44224112Y-116535766D01*
X44224108Y-116535770D01*
X44141230Y-116636757D01*
X44059052Y-116790503D01*
X44008445Y-116957326D01*
X43991359Y-117130816D01*
X43995641Y-117174295D01*
X43995641Y-123163404D01*
X40252192Y-119419956D01*
X40224475Y-119386183D01*
X40089717Y-119275589D01*
X39935971Y-119193411D01*
X39769148Y-119142805D01*
X39639135Y-119130000D01*
X39639127Y-119130000D01*
X39595658Y-119125719D01*
X39552189Y-119130000D01*
X38709298Y-119130000D01*
X38575743Y-119074680D01*
X38386815Y-119037100D01*
X38194185Y-119037100D01*
X38005257Y-119074680D01*
X37827290Y-119148396D01*
X37667125Y-119255415D01*
X37530915Y-119391625D01*
X37423896Y-119551790D01*
X37350180Y-119729757D01*
X37312600Y-119918685D01*
X37312600Y-120111315D01*
X37350180Y-120300243D01*
X37423896Y-120478210D01*
X37530915Y-120638375D01*
X37667125Y-120774585D01*
X37827290Y-120881604D01*
X38005257Y-120955320D01*
X38194185Y-120992900D01*
X38386815Y-120992900D01*
X38575743Y-120955320D01*
X38709298Y-120900000D01*
X39229080Y-120900000D01*
X41385785Y-123056706D01*
X41294260Y-123038500D01*
X41001740Y-123038500D01*
X40714842Y-123095568D01*
X40444589Y-123207510D01*
X40201368Y-123370025D01*
X40069513Y-123501880D01*
X40047502Y-123429320D01*
X39988537Y-123319006D01*
X39909185Y-123222315D01*
X39812494Y-123142963D01*
X39702180Y-123083998D01*
X39582482Y-123047688D01*
X39458000Y-123035428D01*
X37758000Y-123035428D01*
X37633518Y-123047688D01*
X37513820Y-123083998D01*
X37403506Y-123142963D01*
X37306815Y-123222315D01*
X37227463Y-123319006D01*
X37168498Y-123429320D01*
X37132188Y-123549018D01*
X37119928Y-123673500D01*
X37119928Y-125373500D01*
X37132188Y-125497982D01*
X37168498Y-125617680D01*
X37227463Y-125727994D01*
X37306815Y-125824685D01*
X37403506Y-125904037D01*
X37513820Y-125963002D01*
X37586380Y-125985013D01*
X37454525Y-126116868D01*
X37292010Y-126360089D01*
X37180068Y-126630342D01*
X37123000Y-126917240D01*
X37123000Y-127209760D01*
X37180068Y-127496658D01*
X37292010Y-127766911D01*
X37454525Y-128010132D01*
X37661368Y-128216975D01*
X37835760Y-128333500D01*
X37661368Y-128450025D01*
X37454525Y-128656868D01*
X37292010Y-128900089D01*
X37180068Y-129170342D01*
X37123000Y-129457240D01*
X37123000Y-129749760D01*
X37180068Y-130036658D01*
X37292010Y-130306911D01*
X37454525Y-130550132D01*
X37661368Y-130756975D01*
X37835760Y-130873500D01*
X37661368Y-130990025D01*
X37454525Y-131196868D01*
X37292010Y-131440089D01*
X37180068Y-131710342D01*
X37123000Y-131997240D01*
X37123000Y-132289760D01*
X37180068Y-132576658D01*
X37292010Y-132846911D01*
X37454525Y-133090132D01*
X37661368Y-133296975D01*
X37904589Y-133459490D01*
X38174842Y-133571432D01*
X38461740Y-133628500D01*
X38754260Y-133628500D01*
X39041158Y-133571432D01*
X39311411Y-133459490D01*
X39554632Y-133296975D01*
X39761475Y-133090132D01*
X39878000Y-132915740D01*
X39994525Y-133090132D01*
X40201368Y-133296975D01*
X40444589Y-133459490D01*
X40714842Y-133571432D01*
X41001740Y-133628500D01*
X41294260Y-133628500D01*
X41581158Y-133571432D01*
X41851411Y-133459490D01*
X42094632Y-133296975D01*
X42301475Y-133090132D01*
X42463990Y-132846911D01*
X42575932Y-132576658D01*
X42633000Y-132289760D01*
X42633000Y-131997240D01*
X42575932Y-131710342D01*
X42463990Y-131440089D01*
X42301475Y-131196868D01*
X42094632Y-130990025D01*
X41920240Y-130873500D01*
X42094632Y-130756975D01*
X42301475Y-130550132D01*
X42463990Y-130306911D01*
X42575932Y-130036658D01*
X42633000Y-129749760D01*
X42633000Y-129457240D01*
X42575932Y-129170342D01*
X42463990Y-128900089D01*
X42301475Y-128656868D01*
X42094632Y-128450025D01*
X41920240Y-128333500D01*
X42094632Y-128216975D01*
X42301475Y-128010132D01*
X42463990Y-127766911D01*
X42575932Y-127496658D01*
X42633000Y-127209760D01*
X42633000Y-126917240D01*
X42575932Y-126630342D01*
X42463990Y-126360089D01*
X42301475Y-126116868D01*
X42094632Y-125910025D01*
X41920240Y-125793500D01*
X42094632Y-125676975D01*
X42301475Y-125470132D01*
X42463990Y-125226911D01*
X42575932Y-124956658D01*
X42633000Y-124669760D01*
X42633000Y-124377240D01*
X42614794Y-124285715D01*
X42926648Y-124597569D01*
X42926649Y-130201274D01*
X42926648Y-130201284D01*
X42926648Y-130250226D01*
X42871328Y-130383781D01*
X42833748Y-130572709D01*
X42833748Y-130765339D01*
X42871328Y-130954267D01*
X42945044Y-131132234D01*
X43052063Y-131292399D01*
X43188273Y-131428609D01*
X43348438Y-131535628D01*
X43526405Y-131609344D01*
X43715333Y-131646924D01*
X43907963Y-131646924D01*
X43995640Y-131629484D01*
X43995640Y-131790781D01*
X41262847Y-134523575D01*
X41129290Y-134578896D01*
X40969125Y-134685915D01*
X40832915Y-134822125D01*
X40725896Y-134982290D01*
X40652180Y-135160257D01*
X40614600Y-135349185D01*
X40614600Y-135541815D01*
X40652180Y-135730743D01*
X40725896Y-135908710D01*
X40832915Y-136068875D01*
X40969125Y-136205085D01*
X41129290Y-136312104D01*
X41307257Y-136385820D01*
X41496185Y-136423400D01*
X41688815Y-136423400D01*
X41877743Y-136385820D01*
X42011298Y-136330500D01*
X46428381Y-136330500D01*
X46576185Y-136359900D01*
X46768815Y-136359900D01*
X46957743Y-136322320D01*
X47091298Y-136267000D01*
X48721968Y-136267000D01*
X48735533Y-136268336D01*
X48735543Y-136268336D01*
X48779009Y-136272617D01*
X48822475Y-136268336D01*
X59084473Y-136268336D01*
X59120915Y-136322875D01*
X59257125Y-136459085D01*
X59417290Y-136566104D01*
X59595257Y-136639820D01*
X59784185Y-136677400D01*
X59976815Y-136677400D01*
X60165743Y-136639820D01*
X60343710Y-136566104D01*
X60503875Y-136459085D01*
X60640085Y-136322875D01*
X60747104Y-136162710D01*
X60820820Y-135984743D01*
X60858400Y-135795815D01*
X60858400Y-135603185D01*
X60820820Y-135414257D01*
X60747104Y-135236290D01*
X60640085Y-135076125D01*
X60503875Y-134939915D01*
X60343710Y-134832896D01*
X60213065Y-134778781D01*
X60193153Y-134754519D01*
X60058395Y-134643925D01*
X59904649Y-134561747D01*
X59737826Y-134511141D01*
X59607813Y-134498336D01*
X59607805Y-134498336D01*
X59564336Y-134494055D01*
X59520867Y-134498336D01*
X48834716Y-134498336D01*
X48821151Y-134497000D01*
X48821143Y-134497000D01*
X48777674Y-134492719D01*
X48734205Y-134497000D01*
X47091298Y-134497000D01*
X46957743Y-134441680D01*
X46768815Y-134404100D01*
X46576185Y-134404100D01*
X46387257Y-134441680D01*
X46209290Y-134515396D01*
X46141787Y-134560500D01*
X43729078Y-134560500D01*
X45475690Y-132813889D01*
X45509457Y-132786177D01*
X45542625Y-132745763D01*
X45620050Y-132651420D01*
X45620051Y-132651419D01*
X45702229Y-132497673D01*
X45752835Y-132330850D01*
X45765640Y-132200837D01*
X45765640Y-132200827D01*
X45769921Y-132157361D01*
X45765640Y-132113895D01*
X45765640Y-120929400D01*
X45943315Y-120929400D01*
X46132243Y-120891820D01*
X46310210Y-120818104D01*
X46469754Y-120711500D01*
X53352246Y-120711500D01*
X53511790Y-120818104D01*
X53689757Y-120891820D01*
X53878685Y-120929400D01*
X54071315Y-120929400D01*
X54260243Y-120891820D01*
X54438210Y-120818104D01*
X54598375Y-120711085D01*
X54734585Y-120574875D01*
X54841604Y-120414710D01*
X54915320Y-120236743D01*
X54952900Y-120047815D01*
X54952900Y-119855185D01*
X54915320Y-119666257D01*
X54841604Y-119488290D01*
X54734585Y-119328125D01*
X54598375Y-119191915D01*
X54438210Y-119084896D01*
X54260243Y-119011180D01*
X54071315Y-118973600D01*
X53878685Y-118973600D01*
X53689757Y-119011180D01*
X53511790Y-119084896D01*
X53352246Y-119191500D01*
X46469754Y-119191500D01*
X46310210Y-119084896D01*
X46132243Y-119011180D01*
X45943315Y-118973600D01*
X45765640Y-118973600D01*
X45765640Y-117497394D01*
X46270733Y-116992302D01*
X49054682Y-116992302D01*
X49188237Y-117047622D01*
X49377165Y-117085202D01*
X49569795Y-117085202D01*
X49758723Y-117047622D01*
X49936690Y-116973906D01*
X50096855Y-116866887D01*
X50233065Y-116730677D01*
X50340084Y-116570512D01*
X50395405Y-116436955D01*
X50472911Y-116359449D01*
X51082861Y-115749500D01*
X59478202Y-115749500D01*
X59611757Y-115804820D01*
X59800685Y-115842400D01*
X59993315Y-115842400D01*
X60182243Y-115804820D01*
X60315798Y-115749500D01*
X61760958Y-115749500D01*
X61804427Y-115753781D01*
X61847896Y-115749500D01*
X61847904Y-115749500D01*
X61977917Y-115736695D01*
X62144740Y-115686089D01*
X62298486Y-115603911D01*
X62433244Y-115493317D01*
X62460961Y-115459544D01*
X63053006Y-114867500D01*
X65915000Y-114867500D01*
X65915001Y-115328245D01*
X65808396Y-115487790D01*
X65734680Y-115665757D01*
X65697100Y-115854685D01*
X65697100Y-116047315D01*
X65734680Y-116236243D01*
X65808396Y-116414210D01*
X65915415Y-116574375D01*
X66051625Y-116710585D01*
X66211790Y-116817604D01*
X66389757Y-116891320D01*
X66578685Y-116928900D01*
X66771315Y-116928900D01*
X66960243Y-116891320D01*
X67044122Y-116856576D01*
X65421400Y-118479299D01*
X65363661Y-118479299D01*
X65326338Y-118475623D01*
X65289016Y-118479299D01*
X65289005Y-118479299D01*
X65177352Y-118490296D01*
X65138244Y-118502159D01*
X59019663Y-118502159D01*
X58982340Y-118498483D01*
X58945017Y-118502159D01*
X58945008Y-118502159D01*
X58833355Y-118513156D01*
X58690094Y-118556613D01*
X58558065Y-118627185D01*
X58442340Y-118722158D01*
X58418542Y-118751156D01*
X56798953Y-120370746D01*
X56610757Y-120408180D01*
X56432790Y-120481896D01*
X56272625Y-120588915D01*
X56136415Y-120725125D01*
X56029396Y-120885290D01*
X55955680Y-121063257D01*
X55918100Y-121252185D01*
X55918100Y-121444815D01*
X55955680Y-121633743D01*
X56029396Y-121811710D01*
X56136415Y-121971875D01*
X56272625Y-122108085D01*
X56432790Y-122215104D01*
X56610757Y-122288820D01*
X56799685Y-122326400D01*
X56992315Y-122326400D01*
X57181243Y-122288820D01*
X57359210Y-122215104D01*
X57519375Y-122108085D01*
X57655585Y-121971875D01*
X57762604Y-121811710D01*
X57836320Y-121633743D01*
X57873754Y-121445547D01*
X59297143Y-120022159D01*
X61516790Y-120022159D01*
X56993347Y-124545603D01*
X56805151Y-124583037D01*
X56627184Y-124656753D01*
X56467019Y-124763772D01*
X56330809Y-124899982D01*
X56223790Y-125060147D01*
X56150074Y-125238114D01*
X56112494Y-125427042D01*
X56112494Y-125619672D01*
X56150074Y-125808600D01*
X56223790Y-125986567D01*
X56330809Y-126146732D01*
X56467019Y-126282942D01*
X56627184Y-126389961D01*
X56672536Y-126408746D01*
X54176559Y-128904724D01*
X53988363Y-128942158D01*
X53810396Y-129015874D01*
X53650231Y-129122893D01*
X53514021Y-129259103D01*
X53407002Y-129419268D01*
X53333286Y-129597235D01*
X53295706Y-129786163D01*
X53295706Y-129978793D01*
X53333286Y-130167721D01*
X53407002Y-130345688D01*
X53514021Y-130505853D01*
X53650231Y-130642063D01*
X53810396Y-130749082D01*
X53944062Y-130804448D01*
X53941578Y-130816936D01*
X53941578Y-131009566D01*
X53979158Y-131198494D01*
X54052874Y-131376461D01*
X54159893Y-131536626D01*
X54296103Y-131672836D01*
X54456268Y-131779855D01*
X54634235Y-131853571D01*
X54823163Y-131891151D01*
X55015793Y-131891151D01*
X55204721Y-131853571D01*
X55382688Y-131779855D01*
X55542232Y-131673251D01*
X58202396Y-131673251D01*
X58239718Y-131676927D01*
X58277040Y-131673251D01*
X58277051Y-131673251D01*
X58388704Y-131662254D01*
X58531965Y-131618797D01*
X58663994Y-131548225D01*
X58779719Y-131453252D01*
X58803522Y-131424248D01*
X59357609Y-130870162D01*
X59371327Y-130883880D01*
X59440718Y-130930246D01*
X59440718Y-131056668D01*
X59478298Y-131245596D01*
X59552014Y-131423563D01*
X59659033Y-131583728D01*
X59795243Y-131719938D01*
X59955408Y-131826957D01*
X60133375Y-131900673D01*
X60322303Y-131938253D01*
X60514933Y-131938253D01*
X60703861Y-131900673D01*
X60881828Y-131826957D01*
X61041993Y-131719938D01*
X61178203Y-131583728D01*
X61285222Y-131423563D01*
X61347060Y-131274272D01*
X61374148Y-131410453D01*
X61447864Y-131588420D01*
X61554883Y-131748585D01*
X61691093Y-131884795D01*
X61851258Y-131991814D01*
X62029225Y-132065530D01*
X62218153Y-132103110D01*
X62410783Y-132103110D01*
X62599711Y-132065530D01*
X62777678Y-131991814D01*
X62937843Y-131884795D01*
X63074053Y-131748585D01*
X63181072Y-131588420D01*
X63254788Y-131410453D01*
X63292368Y-131221525D01*
X63292368Y-131028895D01*
X63254788Y-130839967D01*
X63181072Y-130662000D01*
X63074468Y-130502456D01*
X63074468Y-129323984D01*
X63168121Y-129464145D01*
X63304331Y-129600355D01*
X63464496Y-129707374D01*
X63642463Y-129781090D01*
X63831391Y-129818670D01*
X64024021Y-129818670D01*
X64212949Y-129781090D01*
X64390916Y-129707374D01*
X64550460Y-129600770D01*
X64654698Y-129600770D01*
X64595387Y-129743961D01*
X64557953Y-129932157D01*
X64433723Y-130056387D01*
X64404725Y-130080185D01*
X64380927Y-130109183D01*
X64380926Y-130109184D01*
X64309751Y-130195910D01*
X64239179Y-130327940D01*
X64220838Y-130388405D01*
X64196552Y-130468469D01*
X64195723Y-130471201D01*
X64181049Y-130620186D01*
X64184726Y-130657518D01*
X64184725Y-133487402D01*
X64181049Y-133524725D01*
X64184725Y-133562047D01*
X64184725Y-133562057D01*
X64195722Y-133673710D01*
X64211135Y-133724520D01*
X64239179Y-133816971D01*
X64309751Y-133949001D01*
X64349596Y-133997551D01*
X64404724Y-134064726D01*
X64433728Y-134088529D01*
X67290198Y-136945000D01*
X67163740Y-136945000D01*
X66876842Y-137002068D01*
X66606589Y-137114010D01*
X66363368Y-137276525D01*
X66156525Y-137483368D01*
X66040000Y-137657760D01*
X65923475Y-137483368D01*
X65716632Y-137276525D01*
X65473411Y-137114010D01*
X65203158Y-137002068D01*
X64916260Y-136945000D01*
X64623740Y-136945000D01*
X64336842Y-137002068D01*
X64066589Y-137114010D01*
X63823368Y-137276525D01*
X63616525Y-137483368D01*
X63500000Y-137657760D01*
X63383475Y-137483368D01*
X63176632Y-137276525D01*
X62933411Y-137114010D01*
X62663158Y-137002068D01*
X62376260Y-136945000D01*
X62083740Y-136945000D01*
X61796842Y-137002068D01*
X61526589Y-137114010D01*
X61283368Y-137276525D01*
X61076525Y-137483368D01*
X60960000Y-137657760D01*
X60843475Y-137483368D01*
X60636632Y-137276525D01*
X60393411Y-137114010D01*
X60123158Y-137002068D01*
X59836260Y-136945000D01*
X59543740Y-136945000D01*
X59256842Y-137002068D01*
X58986589Y-137114010D01*
X58743368Y-137276525D01*
X58536525Y-137483368D01*
X58420000Y-137657760D01*
X58303475Y-137483368D01*
X58096632Y-137276525D01*
X57853411Y-137114010D01*
X57583158Y-137002068D01*
X57296260Y-136945000D01*
X57003740Y-136945000D01*
X56716842Y-137002068D01*
X56446589Y-137114010D01*
X56203368Y-137276525D01*
X55996525Y-137483368D01*
X55880000Y-137657760D01*
X55763475Y-137483368D01*
X55556632Y-137276525D01*
X55313411Y-137114010D01*
X55043158Y-137002068D01*
X54756260Y-136945000D01*
X54463740Y-136945000D01*
X54176842Y-137002068D01*
X53906589Y-137114010D01*
X53663368Y-137276525D01*
X53456525Y-137483368D01*
X53340000Y-137657760D01*
X53223475Y-137483368D01*
X53016632Y-137276525D01*
X52773411Y-137114010D01*
X52503158Y-137002068D01*
X52216260Y-136945000D01*
X51923740Y-136945000D01*
X51636842Y-137002068D01*
X51366589Y-137114010D01*
X51123368Y-137276525D01*
X50916525Y-137483368D01*
X50800000Y-137657760D01*
X50683475Y-137483368D01*
X50476632Y-137276525D01*
X50233411Y-137114010D01*
X49963158Y-137002068D01*
X49676260Y-136945000D01*
X49383740Y-136945000D01*
X49096842Y-137002068D01*
X48826589Y-137114010D01*
X48583368Y-137276525D01*
X48376525Y-137483368D01*
X48260000Y-137657760D01*
X48143475Y-137483368D01*
X47936632Y-137276525D01*
X47693411Y-137114010D01*
X47423158Y-137002068D01*
X47136260Y-136945000D01*
X46843740Y-136945000D01*
X46556842Y-137002068D01*
X46286589Y-137114010D01*
X46043368Y-137276525D01*
X45836525Y-137483368D01*
X45720000Y-137657760D01*
X45603475Y-137483368D01*
X45396632Y-137276525D01*
X45153411Y-137114010D01*
X44883158Y-137002068D01*
X44596260Y-136945000D01*
X44303740Y-136945000D01*
X44016842Y-137002068D01*
X43746589Y-137114010D01*
X43503368Y-137276525D01*
X43296525Y-137483368D01*
X43134010Y-137726589D01*
X43022068Y-137996842D01*
X42965000Y-138283740D01*
X42965000Y-138576260D01*
X43022068Y-138863158D01*
X43134010Y-139133411D01*
X43296525Y-139376632D01*
X43428380Y-139508487D01*
X43355820Y-139530498D01*
X43245506Y-139589463D01*
X43148815Y-139668815D01*
X43069463Y-139765506D01*
X43010498Y-139875820D01*
X42974188Y-139995518D01*
X42961928Y-140120000D01*
X42961928Y-141820000D01*
X42974188Y-141944482D01*
X43010498Y-142064180D01*
X43069463Y-142174494D01*
X43148815Y-142271185D01*
X43245506Y-142350537D01*
X43355820Y-142409502D01*
X43475518Y-142445812D01*
X43600000Y-142458072D01*
X45300000Y-142458072D01*
X45424482Y-142445812D01*
X45544180Y-142409502D01*
X45654494Y-142350537D01*
X45751185Y-142271185D01*
X45830537Y-142174494D01*
X45889502Y-142064180D01*
X45911513Y-141991620D01*
X46043368Y-142123475D01*
X46286589Y-142285990D01*
X46556842Y-142397932D01*
X46843740Y-142455000D01*
X47136260Y-142455000D01*
X47423158Y-142397932D01*
X47693411Y-142285990D01*
X47936632Y-142123475D01*
X48143475Y-141916632D01*
X48260000Y-141742240D01*
X48376525Y-141916632D01*
X48583368Y-142123475D01*
X48826589Y-142285990D01*
X49096842Y-142397932D01*
X49383740Y-142455000D01*
X49676260Y-142455000D01*
X49963158Y-142397932D01*
X50233411Y-142285990D01*
X50476632Y-142123475D01*
X50683475Y-141916632D01*
X50800000Y-141742240D01*
X50916525Y-141916632D01*
X51123368Y-142123475D01*
X51366589Y-142285990D01*
X51636842Y-142397932D01*
X51923740Y-142455000D01*
X52216260Y-142455000D01*
X52503158Y-142397932D01*
X52773411Y-142285990D01*
X53016632Y-142123475D01*
X53223475Y-141916632D01*
X53340000Y-141742240D01*
X53456525Y-141916632D01*
X53663368Y-142123475D01*
X53906589Y-142285990D01*
X54176842Y-142397932D01*
X54463740Y-142455000D01*
X54756260Y-142455000D01*
X55043158Y-142397932D01*
X55313411Y-142285990D01*
X55556632Y-142123475D01*
X55763475Y-141916632D01*
X55880000Y-141742240D01*
X55996525Y-141916632D01*
X56203368Y-142123475D01*
X56446589Y-142285990D01*
X56716842Y-142397932D01*
X57003740Y-142455000D01*
X57296260Y-142455000D01*
X57583158Y-142397932D01*
X57853411Y-142285990D01*
X58096632Y-142123475D01*
X58303475Y-141916632D01*
X58420000Y-141742240D01*
X58536525Y-141916632D01*
X58743368Y-142123475D01*
X58986589Y-142285990D01*
X59256842Y-142397932D01*
X59543740Y-142455000D01*
X59836260Y-142455000D01*
X60123158Y-142397932D01*
X60393411Y-142285990D01*
X60636632Y-142123475D01*
X60843475Y-141916632D01*
X60960000Y-141742240D01*
X61076525Y-141916632D01*
X61283368Y-142123475D01*
X61526589Y-142285990D01*
X61796842Y-142397932D01*
X62083740Y-142455000D01*
X62376260Y-142455000D01*
X62663158Y-142397932D01*
X62933411Y-142285990D01*
X63176632Y-142123475D01*
X63383475Y-141916632D01*
X63500000Y-141742240D01*
X63616525Y-141916632D01*
X63823368Y-142123475D01*
X64066589Y-142285990D01*
X64336842Y-142397932D01*
X64623740Y-142455000D01*
X64916260Y-142455000D01*
X65203158Y-142397932D01*
X65473411Y-142285990D01*
X65716632Y-142123475D01*
X65923475Y-141916632D01*
X66040000Y-141742240D01*
X66156525Y-141916632D01*
X66363368Y-142123475D01*
X66606589Y-142285990D01*
X66876842Y-142397932D01*
X67163740Y-142455000D01*
X67456260Y-142455000D01*
X67743158Y-142397932D01*
X68013411Y-142285990D01*
X68256632Y-142123475D01*
X68463475Y-141916632D01*
X68581367Y-141740194D01*
X68585400Y-141748467D01*
X68761570Y-141980220D01*
X68979568Y-142173151D01*
X69231016Y-142319846D01*
X69506251Y-142414667D01*
X69614732Y-142436245D01*
X69847000Y-142296247D01*
X69847000Y-140973000D01*
X69853000Y-140973000D01*
X69853000Y-142296247D01*
X70085268Y-142436245D01*
X70193749Y-142414667D01*
X70468984Y-142319846D01*
X70720432Y-142173151D01*
X70938430Y-141980220D01*
X71114600Y-141748467D01*
X71120000Y-141737391D01*
X71125400Y-141748467D01*
X71301570Y-141980220D01*
X71519568Y-142173151D01*
X71771016Y-142319846D01*
X72046251Y-142414667D01*
X72154732Y-142436245D01*
X72387000Y-142296247D01*
X72387000Y-140973000D01*
X69853000Y-140973000D01*
X69847000Y-140973000D01*
X69827000Y-140973000D01*
X69827000Y-140967000D01*
X69847000Y-140967000D01*
X69847000Y-140947000D01*
X69853000Y-140947000D01*
X69853000Y-140967000D01*
X72387000Y-140967000D01*
X72387000Y-140947000D01*
X72393000Y-140947000D01*
X72393000Y-140967000D01*
X72413000Y-140967000D01*
X72413000Y-140973000D01*
X72393000Y-140973000D01*
X72393000Y-142296247D01*
X72625268Y-142436245D01*
X72733749Y-142414667D01*
X72893545Y-142359616D01*
X72893545Y-142686679D01*
X44304786Y-142686679D01*
X44261320Y-142682398D01*
X44217854Y-142686679D01*
X44217844Y-142686679D01*
X44087831Y-142699484D01*
X43921008Y-142750090D01*
X43767262Y-142832268D01*
X43767260Y-142832269D01*
X43767261Y-142832269D01*
X43666274Y-142915147D01*
X43666272Y-142915149D01*
X43632504Y-142942862D01*
X43604791Y-142976630D01*
X43040846Y-143540575D01*
X42907290Y-143595896D01*
X42747125Y-143702915D01*
X42610915Y-143839125D01*
X42503896Y-143999290D01*
X42430180Y-144177257D01*
X42392600Y-144366185D01*
X42392600Y-144558815D01*
X42430180Y-144747743D01*
X42503896Y-144925710D01*
X42610915Y-145085875D01*
X42747125Y-145222085D01*
X42907290Y-145329104D01*
X43085257Y-145402820D01*
X43274185Y-145440400D01*
X43466815Y-145440400D01*
X43655743Y-145402820D01*
X43833710Y-145329104D01*
X43993875Y-145222085D01*
X44130085Y-145085875D01*
X44237104Y-144925710D01*
X44292425Y-144792154D01*
X44627900Y-144456679D01*
X47204743Y-144456679D01*
X47168346Y-144493075D01*
X47034790Y-144548396D01*
X46874625Y-144655415D01*
X46738415Y-144791625D01*
X46631396Y-144951790D01*
X46557680Y-145129757D01*
X46520100Y-145318685D01*
X46520100Y-145511315D01*
X46557680Y-145700243D01*
X46631396Y-145878210D01*
X46738415Y-146038375D01*
X46874625Y-146174585D01*
X47034790Y-146281604D01*
X47212757Y-146355320D01*
X47401685Y-146392900D01*
X47594315Y-146392900D01*
X47783243Y-146355320D01*
X47961210Y-146281604D01*
X48121375Y-146174585D01*
X48257585Y-146038375D01*
X48364604Y-145878210D01*
X48419925Y-145744654D01*
X48690079Y-145474500D01*
X56465922Y-145474500D01*
X60805772Y-149814351D01*
X60833485Y-149848119D01*
X60867253Y-149875832D01*
X60867255Y-149875834D01*
X60968242Y-149958712D01*
X60968243Y-149958713D01*
X61121989Y-150040891D01*
X61288812Y-150091497D01*
X61418825Y-150104302D01*
X61418833Y-150104302D01*
X61462302Y-150108583D01*
X61505771Y-150104302D01*
X111404729Y-150104302D01*
X111448198Y-150108583D01*
X111491667Y-150104302D01*
X111491675Y-150104302D01*
X111621688Y-150091497D01*
X111788511Y-150040891D01*
X111942257Y-149958713D01*
X112077015Y-149848119D01*
X112104732Y-149814346D01*
X113538000Y-148381079D01*
X113538000Y-154813000D01*
X36322000Y-154813000D01*
X36322000Y-106732500D01*
X38911428Y-106732500D01*
X38911428Y-108532500D01*
X38923688Y-108656982D01*
X38959998Y-108776680D01*
X39018963Y-108886994D01*
X39098315Y-108983685D01*
X39195006Y-109063037D01*
X39305320Y-109122002D01*
X39425018Y-109158312D01*
X39549500Y-109170572D01*
X41349500Y-109170572D01*
X41473982Y-109158312D01*
X41593680Y-109122002D01*
X41703994Y-109063037D01*
X41800685Y-108983685D01*
X41880037Y-108886994D01*
X41939002Y-108776680D01*
X41975312Y-108656982D01*
X41987572Y-108532500D01*
X41987572Y-106732500D01*
X41975312Y-106608018D01*
X41939002Y-106488320D01*
X41880037Y-106378006D01*
X41800685Y-106281315D01*
X41703994Y-106201963D01*
X41593680Y-106142998D01*
X41575373Y-106137444D01*
X41641812Y-106071005D01*
X41809799Y-105819595D01*
X41925511Y-105540243D01*
X41984500Y-105243684D01*
X41984500Y-104941316D01*
X41925511Y-104644757D01*
X41809799Y-104365405D01*
X41641812Y-104113995D01*
X41428005Y-103900188D01*
X41176595Y-103732201D01*
X40897243Y-103616489D01*
X40600684Y-103557500D01*
X40298316Y-103557500D01*
X40001757Y-103616489D01*
X39722405Y-103732201D01*
X39470995Y-103900188D01*
X39257188Y-104113995D01*
X39089201Y-104365405D01*
X38973489Y-104644757D01*
X38914500Y-104941316D01*
X38914500Y-105243684D01*
X38973489Y-105540243D01*
X39089201Y-105819595D01*
X39257188Y-106071005D01*
X39323627Y-106137444D01*
X39305320Y-106142998D01*
X39195006Y-106201963D01*
X39098315Y-106281315D01*
X39018963Y-106378006D01*
X38959998Y-106488320D01*
X38923688Y-106608018D01*
X38911428Y-106732500D01*
X36322000Y-106732500D01*
X36322000Y-102696105D01*
X47986823Y-102696105D01*
X48126653Y-102930500D01*
X49463500Y-102930500D01*
X49463500Y-101593653D01*
X49229105Y-101453823D01*
X48944996Y-101528568D01*
X48680928Y-101657304D01*
X48447049Y-101835083D01*
X48252347Y-102055074D01*
X48104304Y-102308822D01*
X48008610Y-102586576D01*
X47986823Y-102696105D01*
X36322000Y-102696105D01*
X36322000Y-99822000D01*
X76792597Y-99822000D01*
X76777674Y-99834247D01*
G36*
X106705054Y-146414460D02*
G01*
X106728848Y-146443453D01*
X106757841Y-146467247D01*
X106757845Y-146467251D01*
X106828534Y-146525263D01*
X106844573Y-146538426D01*
X106976602Y-146608998D01*
X107047173Y-146630405D01*
X106978323Y-146892105D01*
X107118153Y-147126500D01*
X108455000Y-147126500D01*
X108455000Y-147106500D01*
X108461000Y-147106500D01*
X108461000Y-147126500D01*
X108481000Y-147126500D01*
X108481000Y-147132500D01*
X108461000Y-147132500D01*
X108461000Y-147152500D01*
X108455000Y-147152500D01*
X108455000Y-147132500D01*
X107118153Y-147132500D01*
X106978323Y-147366895D01*
X107053068Y-147651004D01*
X107181804Y-147915072D01*
X107359583Y-148148951D01*
X107569008Y-148334302D01*
X61828881Y-148334302D01*
X57951257Y-144456679D01*
X73234746Y-144456679D01*
X73368301Y-144511999D01*
X73557229Y-144549579D01*
X73749859Y-144549579D01*
X73938787Y-144511999D01*
X74116754Y-144438283D01*
X74276919Y-144331264D01*
X74413129Y-144195054D01*
X74520148Y-144034889D01*
X74593864Y-143856922D01*
X74631444Y-143667994D01*
X74631444Y-143475364D01*
X74593864Y-143286436D01*
X74520148Y-143108469D01*
X74413544Y-142948925D01*
X74413544Y-142355168D01*
X74586251Y-142414667D01*
X74694732Y-142436245D01*
X74927000Y-142296247D01*
X74927000Y-140973000D01*
X74933000Y-140973000D01*
X74933000Y-142296247D01*
X75165268Y-142436245D01*
X75273749Y-142414667D01*
X75548984Y-142319846D01*
X75800432Y-142173151D01*
X76018430Y-141980220D01*
X76194600Y-141748467D01*
X76200000Y-141737391D01*
X76205400Y-141748467D01*
X76381570Y-141980220D01*
X76599568Y-142173151D01*
X76851016Y-142319846D01*
X77126251Y-142414667D01*
X77234732Y-142436245D01*
X77467000Y-142296247D01*
X77467000Y-140973000D01*
X74933000Y-140973000D01*
X74927000Y-140973000D01*
X74907000Y-140973000D01*
X74907000Y-140967000D01*
X74927000Y-140967000D01*
X74927000Y-140947000D01*
X74933000Y-140947000D01*
X74933000Y-140967000D01*
X77467000Y-140967000D01*
X77467000Y-140947000D01*
X77473000Y-140947000D01*
X77473000Y-140967000D01*
X77493000Y-140967000D01*
X77493000Y-140973000D01*
X77473000Y-140973000D01*
X77473000Y-142296247D01*
X77705268Y-142436245D01*
X77813749Y-142414667D01*
X78088984Y-142319846D01*
X78340432Y-142173151D01*
X78558430Y-141980220D01*
X78734600Y-141748467D01*
X78738633Y-141740194D01*
X78856525Y-141916632D01*
X79063368Y-142123475D01*
X79306589Y-142285990D01*
X79576842Y-142397932D01*
X79863740Y-142455000D01*
X80156260Y-142455000D01*
X80443158Y-142397932D01*
X80713411Y-142285990D01*
X80956632Y-142123475D01*
X81163475Y-141916632D01*
X81280000Y-141742240D01*
X81396525Y-141916632D01*
X81603368Y-142123475D01*
X81846589Y-142285990D01*
X82116842Y-142397932D01*
X82403740Y-142455000D01*
X82696260Y-142455000D01*
X82983158Y-142397932D01*
X83253411Y-142285990D01*
X83496632Y-142123475D01*
X83703475Y-141916632D01*
X83820000Y-141742240D01*
X83936525Y-141916632D01*
X84143368Y-142123475D01*
X84386589Y-142285990D01*
X84656842Y-142397932D01*
X84943740Y-142455000D01*
X85236260Y-142455000D01*
X85523158Y-142397932D01*
X85793411Y-142285990D01*
X86036632Y-142123475D01*
X86243475Y-141916632D01*
X86360000Y-141742240D01*
X86476525Y-141916632D01*
X86683368Y-142123475D01*
X86926589Y-142285990D01*
X87196842Y-142397932D01*
X87483740Y-142455000D01*
X87776260Y-142455000D01*
X88063158Y-142397932D01*
X88333411Y-142285990D01*
X88576632Y-142123475D01*
X88783475Y-141916632D01*
X88900000Y-141742240D01*
X89016525Y-141916632D01*
X89223368Y-142123475D01*
X89466589Y-142285990D01*
X89736842Y-142397932D01*
X90023740Y-142455000D01*
X90316260Y-142455000D01*
X90603158Y-142397932D01*
X90873411Y-142285990D01*
X91116632Y-142123475D01*
X91323475Y-141916632D01*
X91440000Y-141742240D01*
X91556525Y-141916632D01*
X91763368Y-142123475D01*
X92006589Y-142285990D01*
X92276842Y-142397932D01*
X92563740Y-142455000D01*
X92856260Y-142455000D01*
X93143158Y-142397932D01*
X93413411Y-142285990D01*
X93656632Y-142123475D01*
X93863475Y-141916632D01*
X93980000Y-141742240D01*
X94096525Y-141916632D01*
X94303368Y-142123475D01*
X94546589Y-142285990D01*
X94816842Y-142397932D01*
X95103740Y-142455000D01*
X95396260Y-142455000D01*
X95683158Y-142397932D01*
X95953411Y-142285990D01*
X96196632Y-142123475D01*
X96403475Y-141916632D01*
X96520000Y-141742240D01*
X96636525Y-141916632D01*
X96843368Y-142123475D01*
X97086589Y-142285990D01*
X97356842Y-142397932D01*
X97643740Y-142455000D01*
X97936260Y-142455000D01*
X98223158Y-142397932D01*
X98493411Y-142285990D01*
X98736632Y-142123475D01*
X98943475Y-141916632D01*
X99105990Y-141673411D01*
X99217932Y-141403158D01*
X99275000Y-141116260D01*
X99275000Y-140823740D01*
X99217932Y-140536842D01*
X99105990Y-140266589D01*
X98943475Y-140023368D01*
X98736632Y-139816525D01*
X98562240Y-139700000D01*
X98736632Y-139583475D01*
X98943475Y-139376632D01*
X99105990Y-139133411D01*
X99199135Y-138908539D01*
X106705054Y-146414460D01*
G37*
X106705054Y-146414460D02*
X106728848Y-146443453D01*
X106757841Y-146467247D01*
X106757845Y-146467251D01*
X106828534Y-146525263D01*
X106844573Y-146538426D01*
X106976602Y-146608998D01*
X107047173Y-146630405D01*
X106978323Y-146892105D01*
X107118153Y-147126500D01*
X108455000Y-147126500D01*
X108455000Y-147106500D01*
X108461000Y-147106500D01*
X108461000Y-147126500D01*
X108481000Y-147126500D01*
X108481000Y-147132500D01*
X108461000Y-147132500D01*
X108461000Y-147152500D01*
X108455000Y-147152500D01*
X108455000Y-147132500D01*
X107118153Y-147132500D01*
X106978323Y-147366895D01*
X107053068Y-147651004D01*
X107181804Y-147915072D01*
X107359583Y-148148951D01*
X107569008Y-148334302D01*
X61828881Y-148334302D01*
X57951257Y-144456679D01*
X73234746Y-144456679D01*
X73368301Y-144511999D01*
X73557229Y-144549579D01*
X73749859Y-144549579D01*
X73938787Y-144511999D01*
X74116754Y-144438283D01*
X74276919Y-144331264D01*
X74413129Y-144195054D01*
X74520148Y-144034889D01*
X74593864Y-143856922D01*
X74631444Y-143667994D01*
X74631444Y-143475364D01*
X74593864Y-143286436D01*
X74520148Y-143108469D01*
X74413544Y-142948925D01*
X74413544Y-142355168D01*
X74586251Y-142414667D01*
X74694732Y-142436245D01*
X74927000Y-142296247D01*
X74927000Y-140973000D01*
X74933000Y-140973000D01*
X74933000Y-142296247D01*
X75165268Y-142436245D01*
X75273749Y-142414667D01*
X75548984Y-142319846D01*
X75800432Y-142173151D01*
X76018430Y-141980220D01*
X76194600Y-141748467D01*
X76200000Y-141737391D01*
X76205400Y-141748467D01*
X76381570Y-141980220D01*
X76599568Y-142173151D01*
X76851016Y-142319846D01*
X77126251Y-142414667D01*
X77234732Y-142436245D01*
X77467000Y-142296247D01*
X77467000Y-140973000D01*
X74933000Y-140973000D01*
X74927000Y-140973000D01*
X74907000Y-140973000D01*
X74907000Y-140967000D01*
X74927000Y-140967000D01*
X74927000Y-140947000D01*
X74933000Y-140947000D01*
X74933000Y-140967000D01*
X77467000Y-140967000D01*
X77467000Y-140947000D01*
X77473000Y-140947000D01*
X77473000Y-140967000D01*
X77493000Y-140967000D01*
X77493000Y-140973000D01*
X77473000Y-140973000D01*
X77473000Y-142296247D01*
X77705268Y-142436245D01*
X77813749Y-142414667D01*
X78088984Y-142319846D01*
X78340432Y-142173151D01*
X78558430Y-141980220D01*
X78734600Y-141748467D01*
X78738633Y-141740194D01*
X78856525Y-141916632D01*
X79063368Y-142123475D01*
X79306589Y-142285990D01*
X79576842Y-142397932D01*
X79863740Y-142455000D01*
X80156260Y-142455000D01*
X80443158Y-142397932D01*
X80713411Y-142285990D01*
X80956632Y-142123475D01*
X81163475Y-141916632D01*
X81280000Y-141742240D01*
X81396525Y-141916632D01*
X81603368Y-142123475D01*
X81846589Y-142285990D01*
X82116842Y-142397932D01*
X82403740Y-142455000D01*
X82696260Y-142455000D01*
X82983158Y-142397932D01*
X83253411Y-142285990D01*
X83496632Y-142123475D01*
X83703475Y-141916632D01*
X83820000Y-141742240D01*
X83936525Y-141916632D01*
X84143368Y-142123475D01*
X84386589Y-142285990D01*
X84656842Y-142397932D01*
X84943740Y-142455000D01*
X85236260Y-142455000D01*
X85523158Y-142397932D01*
X85793411Y-142285990D01*
X86036632Y-142123475D01*
X86243475Y-141916632D01*
X86360000Y-141742240D01*
X86476525Y-141916632D01*
X86683368Y-142123475D01*
X86926589Y-142285990D01*
X87196842Y-142397932D01*
X87483740Y-142455000D01*
X87776260Y-142455000D01*
X88063158Y-142397932D01*
X88333411Y-142285990D01*
X88576632Y-142123475D01*
X88783475Y-141916632D01*
X88900000Y-141742240D01*
X89016525Y-141916632D01*
X89223368Y-142123475D01*
X89466589Y-142285990D01*
X89736842Y-142397932D01*
X90023740Y-142455000D01*
X90316260Y-142455000D01*
X90603158Y-142397932D01*
X90873411Y-142285990D01*
X91116632Y-142123475D01*
X91323475Y-141916632D01*
X91440000Y-141742240D01*
X91556525Y-141916632D01*
X91763368Y-142123475D01*
X92006589Y-142285990D01*
X92276842Y-142397932D01*
X92563740Y-142455000D01*
X92856260Y-142455000D01*
X93143158Y-142397932D01*
X93413411Y-142285990D01*
X93656632Y-142123475D01*
X93863475Y-141916632D01*
X93980000Y-141742240D01*
X94096525Y-141916632D01*
X94303368Y-142123475D01*
X94546589Y-142285990D01*
X94816842Y-142397932D01*
X95103740Y-142455000D01*
X95396260Y-142455000D01*
X95683158Y-142397932D01*
X95953411Y-142285990D01*
X96196632Y-142123475D01*
X96403475Y-141916632D01*
X96520000Y-141742240D01*
X96636525Y-141916632D01*
X96843368Y-142123475D01*
X97086589Y-142285990D01*
X97356842Y-142397932D01*
X97643740Y-142455000D01*
X97936260Y-142455000D01*
X98223158Y-142397932D01*
X98493411Y-142285990D01*
X98736632Y-142123475D01*
X98943475Y-141916632D01*
X99105990Y-141673411D01*
X99217932Y-141403158D01*
X99275000Y-141116260D01*
X99275000Y-140823740D01*
X99217932Y-140536842D01*
X99105990Y-140266589D01*
X98943475Y-140023368D01*
X98736632Y-139816525D01*
X98562240Y-139700000D01*
X98736632Y-139583475D01*
X98943475Y-139376632D01*
X99105990Y-139133411D01*
X99199135Y-138908539D01*
X106705054Y-146414460D01*
G36*
X76316525Y-139376632D02*
G01*
X76523368Y-139583475D01*
X76705401Y-139705106D01*
X76599568Y-139766849D01*
X76381570Y-139959780D01*
X76205400Y-140191533D01*
X76200000Y-140202609D01*
X76194600Y-140191533D01*
X76018430Y-139959780D01*
X75800432Y-139766849D01*
X75694599Y-139705106D01*
X75876632Y-139583475D01*
X76083475Y-139376632D01*
X76200000Y-139202240D01*
X76316525Y-139376632D01*
G37*
X76316525Y-139376632D02*
X76523368Y-139583475D01*
X76705401Y-139705106D01*
X76599568Y-139766849D01*
X76381570Y-139959780D01*
X76205400Y-140191533D01*
X76200000Y-140202609D01*
X76194600Y-140191533D01*
X76018430Y-139959780D01*
X75800432Y-139766849D01*
X75694599Y-139705106D01*
X75876632Y-139583475D01*
X76083475Y-139376632D01*
X76200000Y-139202240D01*
X76316525Y-139376632D01*
G36*
X68696525Y-139376632D02*
G01*
X68903368Y-139583475D01*
X69085401Y-139705106D01*
X68979568Y-139766849D01*
X68761570Y-139959780D01*
X68585400Y-140191533D01*
X68581367Y-140199806D01*
X68463475Y-140023368D01*
X68256632Y-139816525D01*
X68082240Y-139700000D01*
X68256632Y-139583475D01*
X68463475Y-139376632D01*
X68580000Y-139202240D01*
X68696525Y-139376632D01*
G37*
X68696525Y-139376632D02*
X68903368Y-139583475D01*
X69085401Y-139705106D01*
X68979568Y-139766849D01*
X68761570Y-139959780D01*
X68585400Y-140191533D01*
X68581367Y-140199806D01*
X68463475Y-140023368D01*
X68256632Y-139816525D01*
X68082240Y-139700000D01*
X68256632Y-139583475D01*
X68463475Y-139376632D01*
X68580000Y-139202240D01*
X68696525Y-139376632D01*
G36*
X111001000Y-139506500D02*
G01*
X111021000Y-139506500D01*
X111021000Y-139512500D01*
X111001000Y-139512500D01*
X111001000Y-139532500D01*
X110995000Y-139532500D01*
X110995000Y-139512500D01*
X110975000Y-139512500D01*
X110975000Y-139506500D01*
X110995000Y-139506500D01*
X110995000Y-139486500D01*
X111001000Y-139486500D01*
X111001000Y-139506500D01*
G37*
X111001000Y-139506500D02*
X111021000Y-139506500D01*
X111021000Y-139512500D01*
X111001000Y-139512500D01*
X111001000Y-139532500D01*
X110995000Y-139532500D01*
X110995000Y-139512500D01*
X110975000Y-139512500D01*
X110975000Y-139506500D01*
X110995000Y-139506500D01*
X110995000Y-139486500D01*
X111001000Y-139486500D01*
X111001000Y-139506500D01*
G36*
X106780601Y-137480503D02*
G01*
X106804399Y-137509501D01*
X106833397Y-137533299D01*
X106920123Y-137604474D01*
X106956328Y-137623826D01*
X106956328Y-137833100D01*
X106968588Y-137957582D01*
X107004898Y-138077280D01*
X107063863Y-138187594D01*
X107143215Y-138284285D01*
X107239906Y-138363637D01*
X107350220Y-138422602D01*
X107408023Y-138440136D01*
X107299804Y-138548355D01*
X99997506Y-131246057D01*
X99973703Y-131217053D01*
X99857978Y-131122080D01*
X99725949Y-131051508D01*
X99582688Y-131008051D01*
X99471035Y-130997054D01*
X99471024Y-130997054D01*
X99433702Y-130993378D01*
X99396380Y-130997054D01*
X89623169Y-130997054D01*
X89463625Y-130890450D01*
X89285658Y-130816734D01*
X89096730Y-130779154D01*
X88904100Y-130779154D01*
X88715172Y-130816734D01*
X88537205Y-130890450D01*
X88377040Y-130997469D01*
X88240830Y-131133679D01*
X88133811Y-131293844D01*
X88060095Y-131471811D01*
X88022515Y-131660739D01*
X88022515Y-131689868D01*
X87924434Y-131730494D01*
X87764269Y-131837513D01*
X87628059Y-131973723D01*
X87521040Y-132133888D01*
X87447324Y-132311855D01*
X87409744Y-132500783D01*
X87409744Y-132618214D01*
X87296176Y-132665255D01*
X87136011Y-132772274D01*
X86999801Y-132908484D01*
X86892782Y-133068649D01*
X86819066Y-133246616D01*
X86789567Y-133394917D01*
X86725932Y-133407575D01*
X86547965Y-133481291D01*
X86387800Y-133588310D01*
X86251590Y-133724520D01*
X86144571Y-133884685D01*
X86070855Y-134062652D01*
X86035950Y-134238130D01*
X85935048Y-134279925D01*
X85774883Y-134386944D01*
X85638673Y-134523154D01*
X85531654Y-134683319D01*
X85457938Y-134861286D01*
X85428821Y-135007669D01*
X85365729Y-135020219D01*
X85187762Y-135093935D01*
X85027597Y-135200954D01*
X84891387Y-135337164D01*
X84784368Y-135497329D01*
X84710652Y-135675296D01*
X84673072Y-135864224D01*
X84673072Y-136056854D01*
X84710652Y-136245782D01*
X84784368Y-136423749D01*
X84891387Y-136583914D01*
X85027597Y-136720124D01*
X85187762Y-136827143D01*
X85365729Y-136900859D01*
X85554657Y-136938439D01*
X85747287Y-136938439D01*
X85936215Y-136900859D01*
X86114182Y-136827143D01*
X86273726Y-136720539D01*
X97011135Y-136720539D01*
X97311461Y-137020865D01*
X97086589Y-137114010D01*
X96843368Y-137276525D01*
X96636525Y-137483368D01*
X96520000Y-137657760D01*
X96403475Y-137483368D01*
X96196632Y-137276525D01*
X95953411Y-137114010D01*
X95683158Y-137002068D01*
X95396260Y-136945000D01*
X95103740Y-136945000D01*
X94816842Y-137002068D01*
X94546589Y-137114010D01*
X94303368Y-137276525D01*
X94096525Y-137483368D01*
X93980000Y-137657760D01*
X93863475Y-137483368D01*
X93656632Y-137276525D01*
X93413411Y-137114010D01*
X93143158Y-137002068D01*
X92856260Y-136945000D01*
X92563740Y-136945000D01*
X92276842Y-137002068D01*
X92006589Y-137114010D01*
X91763368Y-137276525D01*
X91556525Y-137483368D01*
X91440000Y-137657760D01*
X91323475Y-137483368D01*
X91116632Y-137276525D01*
X90873411Y-137114010D01*
X90603158Y-137002068D01*
X90316260Y-136945000D01*
X90023740Y-136945000D01*
X89736842Y-137002068D01*
X89466589Y-137114010D01*
X89223368Y-137276525D01*
X89016525Y-137483368D01*
X88900000Y-137657760D01*
X88783475Y-137483368D01*
X88576632Y-137276525D01*
X88333411Y-137114010D01*
X88063158Y-137002068D01*
X87776260Y-136945000D01*
X87483740Y-136945000D01*
X87196842Y-137002068D01*
X86926589Y-137114010D01*
X86683368Y-137276525D01*
X86476525Y-137483368D01*
X86360000Y-137657760D01*
X86243475Y-137483368D01*
X86036632Y-137276525D01*
X85793411Y-137114010D01*
X85523158Y-137002068D01*
X85236260Y-136945000D01*
X84943740Y-136945000D01*
X84656842Y-137002068D01*
X84386589Y-137114010D01*
X84143368Y-137276525D01*
X83936525Y-137483368D01*
X83820000Y-137657760D01*
X83703475Y-137483368D01*
X83496632Y-137276525D01*
X83253411Y-137114010D01*
X82983158Y-137002068D01*
X82696260Y-136945000D01*
X82403740Y-136945000D01*
X82116842Y-137002068D01*
X81846589Y-137114010D01*
X81603368Y-137276525D01*
X81396525Y-137483368D01*
X81280000Y-137657760D01*
X81163475Y-137483368D01*
X80956632Y-137276525D01*
X80713411Y-137114010D01*
X80443158Y-137002068D01*
X80156260Y-136945000D01*
X79863740Y-136945000D01*
X79576842Y-137002068D01*
X79306589Y-137114010D01*
X79063368Y-137276525D01*
X78856525Y-137483368D01*
X78740000Y-137657760D01*
X78623475Y-137483368D01*
X78416632Y-137276525D01*
X78173411Y-137114010D01*
X77903158Y-137002068D01*
X77616260Y-136945000D01*
X77323740Y-136945000D01*
X77036842Y-137002068D01*
X76766589Y-137114010D01*
X76523368Y-137276525D01*
X76316525Y-137483368D01*
X76200000Y-137657760D01*
X76083475Y-137483368D01*
X75876632Y-137276525D01*
X75633411Y-137114010D01*
X75363158Y-137002068D01*
X75076260Y-136945000D01*
X74783740Y-136945000D01*
X74496842Y-137002068D01*
X74413544Y-137036571D01*
X74413544Y-135914195D01*
X74417221Y-135876862D01*
X74402547Y-135727876D01*
X74359090Y-135584615D01*
X74288518Y-135452586D01*
X74217343Y-135365859D01*
X74193545Y-135336861D01*
X74164548Y-135313064D01*
X71075923Y-132224440D01*
X71038489Y-132036244D01*
X70964773Y-131858277D01*
X70858169Y-131698733D01*
X70858169Y-130150592D01*
X70863585Y-130145176D01*
X70970604Y-129985011D01*
X71044320Y-129807044D01*
X71081900Y-129618116D01*
X71081900Y-129600770D01*
X88291908Y-129600770D01*
X88329230Y-129604446D01*
X88366552Y-129600770D01*
X88366563Y-129600770D01*
X88478216Y-129589773D01*
X88621477Y-129546316D01*
X88753506Y-129475744D01*
X88869231Y-129380771D01*
X88893033Y-129351768D01*
X89187547Y-129057254D01*
X89375743Y-129019820D01*
X89553710Y-128946104D01*
X89713875Y-128839085D01*
X89850085Y-128702875D01*
X89957104Y-128542710D01*
X90030820Y-128364743D01*
X90068400Y-128175815D01*
X90068400Y-127999307D01*
X97299406Y-127999307D01*
X106780601Y-137480503D01*
G37*
X106780601Y-137480503D02*
X106804399Y-137509501D01*
X106833397Y-137533299D01*
X106920123Y-137604474D01*
X106956328Y-137623826D01*
X106956328Y-137833100D01*
X106968588Y-137957582D01*
X107004898Y-138077280D01*
X107063863Y-138187594D01*
X107143215Y-138284285D01*
X107239906Y-138363637D01*
X107350220Y-138422602D01*
X107408023Y-138440136D01*
X107299804Y-138548355D01*
X99997506Y-131246057D01*
X99973703Y-131217053D01*
X99857978Y-131122080D01*
X99725949Y-131051508D01*
X99582688Y-131008051D01*
X99471035Y-130997054D01*
X99471024Y-130997054D01*
X99433702Y-130993378D01*
X99396380Y-130997054D01*
X89623169Y-130997054D01*
X89463625Y-130890450D01*
X89285658Y-130816734D01*
X89096730Y-130779154D01*
X88904100Y-130779154D01*
X88715172Y-130816734D01*
X88537205Y-130890450D01*
X88377040Y-130997469D01*
X88240830Y-131133679D01*
X88133811Y-131293844D01*
X88060095Y-131471811D01*
X88022515Y-131660739D01*
X88022515Y-131689868D01*
X87924434Y-131730494D01*
X87764269Y-131837513D01*
X87628059Y-131973723D01*
X87521040Y-132133888D01*
X87447324Y-132311855D01*
X87409744Y-132500783D01*
X87409744Y-132618214D01*
X87296176Y-132665255D01*
X87136011Y-132772274D01*
X86999801Y-132908484D01*
X86892782Y-133068649D01*
X86819066Y-133246616D01*
X86789567Y-133394917D01*
X86725932Y-133407575D01*
X86547965Y-133481291D01*
X86387800Y-133588310D01*
X86251590Y-133724520D01*
X86144571Y-133884685D01*
X86070855Y-134062652D01*
X86035950Y-134238130D01*
X85935048Y-134279925D01*
X85774883Y-134386944D01*
X85638673Y-134523154D01*
X85531654Y-134683319D01*
X85457938Y-134861286D01*
X85428821Y-135007669D01*
X85365729Y-135020219D01*
X85187762Y-135093935D01*
X85027597Y-135200954D01*
X84891387Y-135337164D01*
X84784368Y-135497329D01*
X84710652Y-135675296D01*
X84673072Y-135864224D01*
X84673072Y-136056854D01*
X84710652Y-136245782D01*
X84784368Y-136423749D01*
X84891387Y-136583914D01*
X85027597Y-136720124D01*
X85187762Y-136827143D01*
X85365729Y-136900859D01*
X85554657Y-136938439D01*
X85747287Y-136938439D01*
X85936215Y-136900859D01*
X86114182Y-136827143D01*
X86273726Y-136720539D01*
X97011135Y-136720539D01*
X97311461Y-137020865D01*
X97086589Y-137114010D01*
X96843368Y-137276525D01*
X96636525Y-137483368D01*
X96520000Y-137657760D01*
X96403475Y-137483368D01*
X96196632Y-137276525D01*
X95953411Y-137114010D01*
X95683158Y-137002068D01*
X95396260Y-136945000D01*
X95103740Y-136945000D01*
X94816842Y-137002068D01*
X94546589Y-137114010D01*
X94303368Y-137276525D01*
X94096525Y-137483368D01*
X93980000Y-137657760D01*
X93863475Y-137483368D01*
X93656632Y-137276525D01*
X93413411Y-137114010D01*
X93143158Y-137002068D01*
X92856260Y-136945000D01*
X92563740Y-136945000D01*
X92276842Y-137002068D01*
X92006589Y-137114010D01*
X91763368Y-137276525D01*
X91556525Y-137483368D01*
X91440000Y-137657760D01*
X91323475Y-137483368D01*
X91116632Y-137276525D01*
X90873411Y-137114010D01*
X90603158Y-137002068D01*
X90316260Y-136945000D01*
X90023740Y-136945000D01*
X89736842Y-137002068D01*
X89466589Y-137114010D01*
X89223368Y-137276525D01*
X89016525Y-137483368D01*
X88900000Y-137657760D01*
X88783475Y-137483368D01*
X88576632Y-137276525D01*
X88333411Y-137114010D01*
X88063158Y-137002068D01*
X87776260Y-136945000D01*
X87483740Y-136945000D01*
X87196842Y-137002068D01*
X86926589Y-137114010D01*
X86683368Y-137276525D01*
X86476525Y-137483368D01*
X86360000Y-137657760D01*
X86243475Y-137483368D01*
X86036632Y-137276525D01*
X85793411Y-137114010D01*
X85523158Y-137002068D01*
X85236260Y-136945000D01*
X84943740Y-136945000D01*
X84656842Y-137002068D01*
X84386589Y-137114010D01*
X84143368Y-137276525D01*
X83936525Y-137483368D01*
X83820000Y-137657760D01*
X83703475Y-137483368D01*
X83496632Y-137276525D01*
X83253411Y-137114010D01*
X82983158Y-137002068D01*
X82696260Y-136945000D01*
X82403740Y-136945000D01*
X82116842Y-137002068D01*
X81846589Y-137114010D01*
X81603368Y-137276525D01*
X81396525Y-137483368D01*
X81280000Y-137657760D01*
X81163475Y-137483368D01*
X80956632Y-137276525D01*
X80713411Y-137114010D01*
X80443158Y-137002068D01*
X80156260Y-136945000D01*
X79863740Y-136945000D01*
X79576842Y-137002068D01*
X79306589Y-137114010D01*
X79063368Y-137276525D01*
X78856525Y-137483368D01*
X78740000Y-137657760D01*
X78623475Y-137483368D01*
X78416632Y-137276525D01*
X78173411Y-137114010D01*
X77903158Y-137002068D01*
X77616260Y-136945000D01*
X77323740Y-136945000D01*
X77036842Y-137002068D01*
X76766589Y-137114010D01*
X76523368Y-137276525D01*
X76316525Y-137483368D01*
X76200000Y-137657760D01*
X76083475Y-137483368D01*
X75876632Y-137276525D01*
X75633411Y-137114010D01*
X75363158Y-137002068D01*
X75076260Y-136945000D01*
X74783740Y-136945000D01*
X74496842Y-137002068D01*
X74413544Y-137036571D01*
X74413544Y-135914195D01*
X74417221Y-135876862D01*
X74402547Y-135727876D01*
X74359090Y-135584615D01*
X74288518Y-135452586D01*
X74217343Y-135365859D01*
X74193545Y-135336861D01*
X74164548Y-135313064D01*
X71075923Y-132224440D01*
X71038489Y-132036244D01*
X70964773Y-131858277D01*
X70858169Y-131698733D01*
X70858169Y-130150592D01*
X70863585Y-130145176D01*
X70970604Y-129985011D01*
X71044320Y-129807044D01*
X71081900Y-129618116D01*
X71081900Y-129600770D01*
X88291908Y-129600770D01*
X88329230Y-129604446D01*
X88366552Y-129600770D01*
X88366563Y-129600770D01*
X88478216Y-129589773D01*
X88621477Y-129546316D01*
X88753506Y-129475744D01*
X88869231Y-129380771D01*
X88893033Y-129351768D01*
X89187547Y-129057254D01*
X89375743Y-129019820D01*
X89553710Y-128946104D01*
X89713875Y-128839085D01*
X89850085Y-128702875D01*
X89957104Y-128542710D01*
X90030820Y-128364743D01*
X90068400Y-128175815D01*
X90068400Y-127999307D01*
X97299406Y-127999307D01*
X106780601Y-137480503D01*
G36*
X109823063Y-102184642D02*
G01*
X109823064Y-126159199D01*
X109171760Y-126810504D01*
X109137154Y-126845110D01*
X109003597Y-126900431D01*
X108843432Y-127007450D01*
X108707222Y-127143660D01*
X108600203Y-127303825D01*
X108526487Y-127481792D01*
X108488907Y-127670720D01*
X108488907Y-127863350D01*
X108526487Y-128052278D01*
X108581807Y-128185833D01*
X108581808Y-131457828D01*
X108577526Y-131501307D01*
X108594612Y-131674797D01*
X108645219Y-131841620D01*
X108727397Y-131995366D01*
X108810275Y-132096353D01*
X108810278Y-132096356D01*
X108837991Y-132130124D01*
X108871758Y-132157837D01*
X112272000Y-135558079D01*
X112272000Y-136178767D01*
X112162039Y-136014198D01*
X111953302Y-135805461D01*
X111707853Y-135641458D01*
X111435125Y-135528490D01*
X111145599Y-135470900D01*
X110850401Y-135470900D01*
X110560875Y-135528490D01*
X110288147Y-135641458D01*
X110042698Y-135805461D01*
X109928636Y-135919523D01*
X109911102Y-135861720D01*
X109852137Y-135751406D01*
X109772785Y-135654715D01*
X109676094Y-135575363D01*
X109565780Y-135516398D01*
X109446082Y-135480088D01*
X109321600Y-135467828D01*
X107594400Y-135467828D01*
X107469918Y-135480088D01*
X107350220Y-135516398D01*
X107239906Y-135575363D01*
X107143215Y-135654715D01*
X107125727Y-135676025D01*
X98178011Y-126728310D01*
X98154208Y-126699306D01*
X98038483Y-126604333D01*
X98015894Y-126592259D01*
X103575253Y-126592259D01*
X103676790Y-126660104D01*
X103854757Y-126733820D01*
X104043685Y-126771400D01*
X104236315Y-126771400D01*
X104425243Y-126733820D01*
X104603210Y-126660104D01*
X104763375Y-126553085D01*
X104899585Y-126416875D01*
X105006604Y-126256710D01*
X105080320Y-126078743D01*
X105117900Y-125889815D01*
X105117900Y-125697185D01*
X105080320Y-125508257D01*
X105006604Y-125330290D01*
X104899585Y-125170125D01*
X104763375Y-125033915D01*
X104603210Y-124926896D01*
X104425243Y-124853180D01*
X104236315Y-124815600D01*
X104043685Y-124815600D01*
X103854757Y-124853180D01*
X103676790Y-124926896D01*
X103516625Y-125033915D01*
X103478281Y-125072259D01*
X97169468Y-125072259D01*
X97244547Y-125010643D01*
X97268349Y-124981640D01*
X98491508Y-123758483D01*
X98520501Y-123734689D01*
X98544295Y-123705696D01*
X98544299Y-123705692D01*
X98615473Y-123618965D01*
X98615474Y-123618964D01*
X98686046Y-123486935D01*
X98729503Y-123343674D01*
X98740500Y-123232021D01*
X98740500Y-123232012D01*
X98744176Y-123194689D01*
X98740500Y-123157366D01*
X98740500Y-119694942D01*
X98763593Y-119713894D01*
X101320746Y-122271048D01*
X101358180Y-122459243D01*
X101431896Y-122637210D01*
X101538915Y-122797375D01*
X101675125Y-122933585D01*
X101835290Y-123040604D01*
X102013257Y-123114320D01*
X102202185Y-123151900D01*
X102394815Y-123151900D01*
X102583743Y-123114320D01*
X102761710Y-123040604D01*
X102921875Y-122933585D01*
X103058085Y-122797375D01*
X103165104Y-122637210D01*
X103169405Y-122626826D01*
X103253360Y-122610126D01*
X103431327Y-122536410D01*
X103591492Y-122429391D01*
X103727702Y-122293181D01*
X103834721Y-122133016D01*
X103884095Y-122013816D01*
X103885746Y-122014919D01*
X104063713Y-122088635D01*
X104252641Y-122126215D01*
X104432296Y-122126215D01*
X104500663Y-122291269D01*
X104607682Y-122451434D01*
X104743892Y-122587644D01*
X104904057Y-122694663D01*
X105082024Y-122768379D01*
X105270952Y-122805959D01*
X105463582Y-122805959D01*
X105652510Y-122768379D01*
X105830477Y-122694663D01*
X105990642Y-122587644D01*
X106126852Y-122451434D01*
X106233871Y-122291269D01*
X106307587Y-122113302D01*
X106345021Y-121925106D01*
X107393818Y-120876310D01*
X107422815Y-120852513D01*
X107458007Y-120809631D01*
X107517788Y-120736789D01*
X107588360Y-120604759D01*
X107595468Y-120581326D01*
X107631817Y-120461498D01*
X107642814Y-120349845D01*
X107642814Y-120349836D01*
X107646490Y-120312513D01*
X107642814Y-120275190D01*
X107642814Y-119322008D01*
X107808423Y-119379049D01*
X107913054Y-119399861D01*
X108137500Y-119259246D01*
X108137500Y-117986000D01*
X108143500Y-117986000D01*
X108143500Y-119259246D01*
X108367946Y-119399861D01*
X108472577Y-119379049D01*
X108738552Y-119287439D01*
X108981544Y-119145700D01*
X109192215Y-118959280D01*
X109362469Y-118735342D01*
X109485764Y-118482492D01*
X109557361Y-118210446D01*
X109416747Y-117986000D01*
X108143500Y-117986000D01*
X108137500Y-117986000D01*
X108117500Y-117986000D01*
X108117500Y-117980000D01*
X108137500Y-117980000D01*
X108137500Y-116706754D01*
X108143500Y-116706754D01*
X108143500Y-117980000D01*
X109416747Y-117980000D01*
X109557361Y-117755554D01*
X109485764Y-117483508D01*
X109362469Y-117230658D01*
X109192215Y-117006720D01*
X108981544Y-116820300D01*
X108738552Y-116678561D01*
X108472577Y-116586951D01*
X108367946Y-116566139D01*
X108143500Y-116706754D01*
X108137500Y-116706754D01*
X107913054Y-116566139D01*
X107808423Y-116586951D01*
X107642814Y-116643992D01*
X107642814Y-116280842D01*
X107646490Y-116243519D01*
X107642814Y-116206196D01*
X107642814Y-116206187D01*
X107631817Y-116094534D01*
X107588360Y-115951273D01*
X107517788Y-115819244D01*
X107489415Y-115784671D01*
X107446613Y-115732516D01*
X107446609Y-115732512D01*
X107422815Y-115703519D01*
X107393822Y-115679725D01*
X106547818Y-114833723D01*
X106523772Y-114712833D01*
X106547907Y-114722830D01*
X106736835Y-114760410D01*
X106929465Y-114760410D01*
X107118393Y-114722830D01*
X107296360Y-114649114D01*
X107456525Y-114542095D01*
X107592735Y-114405885D01*
X107699754Y-114245720D01*
X107773470Y-114067753D01*
X107810904Y-113879557D01*
X108651503Y-113038959D01*
X108680501Y-113015161D01*
X108775474Y-112899436D01*
X108846046Y-112767407D01*
X108889503Y-112624146D01*
X108900500Y-112512493D01*
X108900500Y-112512485D01*
X108904176Y-112475160D01*
X108900500Y-112437835D01*
X108900500Y-103961043D01*
X109055259Y-103857637D01*
X109255137Y-103657759D01*
X109412180Y-103422727D01*
X109520353Y-103161574D01*
X109575500Y-102884335D01*
X109575500Y-102601665D01*
X109520353Y-102324426D01*
X109412180Y-102063273D01*
X109255137Y-101828241D01*
X109055259Y-101628363D01*
X108820227Y-101471320D01*
X108589570Y-101375779D01*
X109014201Y-101375779D01*
X109823063Y-102184642D01*
G37*
X109823063Y-102184642D02*
X109823064Y-126159199D01*
X109171760Y-126810504D01*
X109137154Y-126845110D01*
X109003597Y-126900431D01*
X108843432Y-127007450D01*
X108707222Y-127143660D01*
X108600203Y-127303825D01*
X108526487Y-127481792D01*
X108488907Y-127670720D01*
X108488907Y-127863350D01*
X108526487Y-128052278D01*
X108581807Y-128185833D01*
X108581808Y-131457828D01*
X108577526Y-131501307D01*
X108594612Y-131674797D01*
X108645219Y-131841620D01*
X108727397Y-131995366D01*
X108810275Y-132096353D01*
X108810278Y-132096356D01*
X108837991Y-132130124D01*
X108871758Y-132157837D01*
X112272000Y-135558079D01*
X112272000Y-136178767D01*
X112162039Y-136014198D01*
X111953302Y-135805461D01*
X111707853Y-135641458D01*
X111435125Y-135528490D01*
X111145599Y-135470900D01*
X110850401Y-135470900D01*
X110560875Y-135528490D01*
X110288147Y-135641458D01*
X110042698Y-135805461D01*
X109928636Y-135919523D01*
X109911102Y-135861720D01*
X109852137Y-135751406D01*
X109772785Y-135654715D01*
X109676094Y-135575363D01*
X109565780Y-135516398D01*
X109446082Y-135480088D01*
X109321600Y-135467828D01*
X107594400Y-135467828D01*
X107469918Y-135480088D01*
X107350220Y-135516398D01*
X107239906Y-135575363D01*
X107143215Y-135654715D01*
X107125727Y-135676025D01*
X98178011Y-126728310D01*
X98154208Y-126699306D01*
X98038483Y-126604333D01*
X98015894Y-126592259D01*
X103575253Y-126592259D01*
X103676790Y-126660104D01*
X103854757Y-126733820D01*
X104043685Y-126771400D01*
X104236315Y-126771400D01*
X104425243Y-126733820D01*
X104603210Y-126660104D01*
X104763375Y-126553085D01*
X104899585Y-126416875D01*
X105006604Y-126256710D01*
X105080320Y-126078743D01*
X105117900Y-125889815D01*
X105117900Y-125697185D01*
X105080320Y-125508257D01*
X105006604Y-125330290D01*
X104899585Y-125170125D01*
X104763375Y-125033915D01*
X104603210Y-124926896D01*
X104425243Y-124853180D01*
X104236315Y-124815600D01*
X104043685Y-124815600D01*
X103854757Y-124853180D01*
X103676790Y-124926896D01*
X103516625Y-125033915D01*
X103478281Y-125072259D01*
X97169468Y-125072259D01*
X97244547Y-125010643D01*
X97268349Y-124981640D01*
X98491508Y-123758483D01*
X98520501Y-123734689D01*
X98544295Y-123705696D01*
X98544299Y-123705692D01*
X98615473Y-123618965D01*
X98615474Y-123618964D01*
X98686046Y-123486935D01*
X98729503Y-123343674D01*
X98740500Y-123232021D01*
X98740500Y-123232012D01*
X98744176Y-123194689D01*
X98740500Y-123157366D01*
X98740500Y-119694942D01*
X98763593Y-119713894D01*
X101320746Y-122271048D01*
X101358180Y-122459243D01*
X101431896Y-122637210D01*
X101538915Y-122797375D01*
X101675125Y-122933585D01*
X101835290Y-123040604D01*
X102013257Y-123114320D01*
X102202185Y-123151900D01*
X102394815Y-123151900D01*
X102583743Y-123114320D01*
X102761710Y-123040604D01*
X102921875Y-122933585D01*
X103058085Y-122797375D01*
X103165104Y-122637210D01*
X103169405Y-122626826D01*
X103253360Y-122610126D01*
X103431327Y-122536410D01*
X103591492Y-122429391D01*
X103727702Y-122293181D01*
X103834721Y-122133016D01*
X103884095Y-122013816D01*
X103885746Y-122014919D01*
X104063713Y-122088635D01*
X104252641Y-122126215D01*
X104432296Y-122126215D01*
X104500663Y-122291269D01*
X104607682Y-122451434D01*
X104743892Y-122587644D01*
X104904057Y-122694663D01*
X105082024Y-122768379D01*
X105270952Y-122805959D01*
X105463582Y-122805959D01*
X105652510Y-122768379D01*
X105830477Y-122694663D01*
X105990642Y-122587644D01*
X106126852Y-122451434D01*
X106233871Y-122291269D01*
X106307587Y-122113302D01*
X106345021Y-121925106D01*
X107393818Y-120876310D01*
X107422815Y-120852513D01*
X107458007Y-120809631D01*
X107517788Y-120736789D01*
X107588360Y-120604759D01*
X107595468Y-120581326D01*
X107631817Y-120461498D01*
X107642814Y-120349845D01*
X107642814Y-120349836D01*
X107646490Y-120312513D01*
X107642814Y-120275190D01*
X107642814Y-119322008D01*
X107808423Y-119379049D01*
X107913054Y-119399861D01*
X108137500Y-119259246D01*
X108137500Y-117986000D01*
X108143500Y-117986000D01*
X108143500Y-119259246D01*
X108367946Y-119399861D01*
X108472577Y-119379049D01*
X108738552Y-119287439D01*
X108981544Y-119145700D01*
X109192215Y-118959280D01*
X109362469Y-118735342D01*
X109485764Y-118482492D01*
X109557361Y-118210446D01*
X109416747Y-117986000D01*
X108143500Y-117986000D01*
X108137500Y-117986000D01*
X108117500Y-117986000D01*
X108117500Y-117980000D01*
X108137500Y-117980000D01*
X108137500Y-116706754D01*
X108143500Y-116706754D01*
X108143500Y-117980000D01*
X109416747Y-117980000D01*
X109557361Y-117755554D01*
X109485764Y-117483508D01*
X109362469Y-117230658D01*
X109192215Y-117006720D01*
X108981544Y-116820300D01*
X108738552Y-116678561D01*
X108472577Y-116586951D01*
X108367946Y-116566139D01*
X108143500Y-116706754D01*
X108137500Y-116706754D01*
X107913054Y-116566139D01*
X107808423Y-116586951D01*
X107642814Y-116643992D01*
X107642814Y-116280842D01*
X107646490Y-116243519D01*
X107642814Y-116206196D01*
X107642814Y-116206187D01*
X107631817Y-116094534D01*
X107588360Y-115951273D01*
X107517788Y-115819244D01*
X107489415Y-115784671D01*
X107446613Y-115732516D01*
X107446609Y-115732512D01*
X107422815Y-115703519D01*
X107393822Y-115679725D01*
X106547818Y-114833723D01*
X106523772Y-114712833D01*
X106547907Y-114722830D01*
X106736835Y-114760410D01*
X106929465Y-114760410D01*
X107118393Y-114722830D01*
X107296360Y-114649114D01*
X107456525Y-114542095D01*
X107592735Y-114405885D01*
X107699754Y-114245720D01*
X107773470Y-114067753D01*
X107810904Y-113879557D01*
X108651503Y-113038959D01*
X108680501Y-113015161D01*
X108775474Y-112899436D01*
X108846046Y-112767407D01*
X108889503Y-112624146D01*
X108900500Y-112512493D01*
X108900500Y-112512485D01*
X108904176Y-112475160D01*
X108900500Y-112437835D01*
X108900500Y-103961043D01*
X109055259Y-103857637D01*
X109255137Y-103657759D01*
X109412180Y-103422727D01*
X109520353Y-103161574D01*
X109575500Y-102884335D01*
X109575500Y-102601665D01*
X109520353Y-102324426D01*
X109412180Y-102063273D01*
X109255137Y-101828241D01*
X109055259Y-101628363D01*
X108820227Y-101471320D01*
X108589570Y-101375779D01*
X109014201Y-101375779D01*
X109823063Y-102184642D01*
M02*
