G04 #@! TF.GenerationSoftware,KiCad,Pcbnew,5.1.5-52549c5~86~ubuntu19.10.1*
G04 #@! TF.CreationDate,2020-05-08T07:49:48-07:00*
G04 #@! TF.ProjectId,tipi,74697069-2e6b-4696-9361-645f70636258,2*
G04 #@! TF.SameCoordinates,Original*
G04 #@! TF.FileFunction,Soldermask,Top*
G04 #@! TF.FilePolarity,Negative*
%FSLAX46Y46*%
G04 Gerber Fmt 4.6, Leading zero omitted, Abs format (unit mm)*
G04 Created by KiCad (PCBNEW 5.1.5-52549c5~86~ubuntu19.10.1) date 2020-05-08 07:49:48*
%MOMM*%
%LPD*%
G04 APERTURE LIST*
%ADD10R,1.900000X0.700000*%
%ADD11R,0.700000X1.900000*%
%ADD12R,2.000000X2.000000*%
%ADD13O,2.000000X2.000000*%
%ADD14R,1.900000X1.650000*%
%ADD15R,2.127200X2.127200*%
%ADD16O,2.127200X2.127200*%
%ADD17R,2.200000X2.200000*%
%ADD18C,2.200000*%
%ADD19R,2.100000X2.100000*%
%ADD20O,2.100000X2.100000*%
%ADD21R,1.200000X1.300000*%
%ADD22R,1.700000X1.900000*%
%ADD23R,0.806400X1.670000*%
%ADD24R,1.900000X1.700000*%
%ADD25R,1.650000X1.900000*%
%ADD26R,1.400000X1.900000*%
%ADD27R,1.900000X1.400000*%
%ADD28R,2.400000X4.200000*%
%ADD29R,2.400000X1.900000*%
G04 APERTURE END LIST*
D10*
X67597000Y-131064000D03*
X67597000Y-130564000D03*
X67597000Y-130064000D03*
X67597000Y-129564000D03*
X67597000Y-129064000D03*
X67597000Y-128564000D03*
X67597000Y-128064000D03*
X67597000Y-127564000D03*
X67597000Y-127064000D03*
X67597000Y-126564000D03*
X67597000Y-126064000D03*
X67597000Y-125564000D03*
X67597000Y-125064000D03*
X67597000Y-124564000D03*
X67597000Y-124064000D03*
X67597000Y-123564000D03*
X67597000Y-123064000D03*
X67597000Y-122564000D03*
X67597000Y-122064000D03*
X67597000Y-121564000D03*
X67597000Y-121064000D03*
X67597000Y-120564000D03*
X67597000Y-120064000D03*
X67597000Y-119564000D03*
X67597000Y-119064000D03*
D11*
X65897000Y-117364000D03*
X65397000Y-117364000D03*
X64897000Y-117364000D03*
X64397000Y-117364000D03*
X63897000Y-117364000D03*
X63397000Y-117364000D03*
X62897000Y-117364000D03*
X62397000Y-117364000D03*
X61897000Y-117364000D03*
X61397000Y-117364000D03*
X60897000Y-117364000D03*
X60397000Y-117364000D03*
X59897000Y-117364000D03*
X59397000Y-117364000D03*
X58897000Y-117364000D03*
X58397000Y-117364000D03*
X57897000Y-117364000D03*
X57397000Y-117364000D03*
X56897000Y-117364000D03*
X56397000Y-117364000D03*
X55897000Y-117364000D03*
X55397000Y-117364000D03*
X54897000Y-117364000D03*
X54397000Y-117364000D03*
X53897000Y-117364000D03*
D10*
X52197000Y-119064000D03*
X52197000Y-119564000D03*
X52197000Y-120064000D03*
X52197000Y-120564000D03*
X52197000Y-121064000D03*
X52197000Y-121564000D03*
X52197000Y-122064000D03*
X52197000Y-122564000D03*
X52197000Y-123064000D03*
X52197000Y-123564000D03*
X52197000Y-124064000D03*
X52197000Y-124564000D03*
X52197000Y-125064000D03*
X52197000Y-125564000D03*
X52197000Y-126064000D03*
X52197000Y-126564000D03*
X52197000Y-127064000D03*
X52197000Y-127564000D03*
X52197000Y-128064000D03*
X52197000Y-128564000D03*
X52197000Y-129064000D03*
X52197000Y-129564000D03*
X52197000Y-130064000D03*
X52197000Y-130564000D03*
X52197000Y-131064000D03*
D11*
X53897000Y-132764000D03*
X54397000Y-132764000D03*
X54897000Y-132764000D03*
X55397000Y-132764000D03*
X55897000Y-132764000D03*
X56397000Y-132764000D03*
X56897000Y-132764000D03*
X57397000Y-132764000D03*
X57897000Y-132764000D03*
X58397000Y-132764000D03*
X58897000Y-132764000D03*
X59397000Y-132764000D03*
X59897000Y-132764000D03*
X60397000Y-132764000D03*
X60897000Y-132764000D03*
X61397000Y-132764000D03*
X61897000Y-132764000D03*
X62397000Y-132764000D03*
X62897000Y-132764000D03*
X63397000Y-132764000D03*
X63897000Y-132764000D03*
X64397000Y-132764000D03*
X64897000Y-132764000D03*
X65397000Y-132764000D03*
X65897000Y-132764000D03*
D12*
X75120500Y-117983000D03*
D13*
X108140500Y-102743000D03*
X77660500Y-117983000D03*
X105600500Y-102743000D03*
X80200500Y-117983000D03*
X103060500Y-102743000D03*
X82740500Y-117983000D03*
X100520500Y-102743000D03*
X85280500Y-117983000D03*
X97980500Y-102743000D03*
X87820500Y-117983000D03*
X95440500Y-102743000D03*
X90360500Y-117983000D03*
X92900500Y-102743000D03*
X92900500Y-117983000D03*
X90360500Y-102743000D03*
X95440500Y-117983000D03*
X87820500Y-102743000D03*
X97980500Y-117983000D03*
X85280500Y-102743000D03*
X100520500Y-117983000D03*
X82740500Y-102743000D03*
X103060500Y-117983000D03*
X80200500Y-102743000D03*
X105600500Y-117983000D03*
X77660500Y-102743000D03*
X108140500Y-117983000D03*
X75120500Y-102743000D03*
D14*
X49212500Y-121920000D03*
X46712500Y-121920000D03*
X46057500Y-133687500D03*
X48557500Y-133687500D03*
D15*
X49466500Y-105473500D03*
D16*
X49466500Y-102933500D03*
X52006500Y-105473500D03*
X52006500Y-102933500D03*
X54546500Y-105473500D03*
X54546500Y-102933500D03*
X57086500Y-105473500D03*
X57086500Y-102933500D03*
X59626500Y-105473500D03*
X59626500Y-102933500D03*
D17*
X40449500Y-107632500D03*
D18*
X40449500Y-105092500D03*
D19*
X44450000Y-140970000D03*
D20*
X44450000Y-138430000D03*
X46990000Y-140970000D03*
X46990000Y-138430000D03*
X49530000Y-140970000D03*
X49530000Y-138430000D03*
X52070000Y-140970000D03*
X52070000Y-138430000D03*
X54610000Y-140970000D03*
X54610000Y-138430000D03*
X57150000Y-140970000D03*
X57150000Y-138430000D03*
X59690000Y-140970000D03*
X59690000Y-138430000D03*
X62230000Y-140970000D03*
X62230000Y-138430000D03*
X64770000Y-140970000D03*
X64770000Y-138430000D03*
X67310000Y-140970000D03*
X67310000Y-138430000D03*
X69850000Y-140970000D03*
X69850000Y-138430000D03*
X72390000Y-140970000D03*
X72390000Y-138430000D03*
X74930000Y-140970000D03*
X74930000Y-138430000D03*
X77470000Y-140970000D03*
X77470000Y-138430000D03*
X80010000Y-140970000D03*
X80010000Y-138430000D03*
X82550000Y-140970000D03*
X82550000Y-138430000D03*
X85090000Y-140970000D03*
X85090000Y-138430000D03*
X87630000Y-140970000D03*
X87630000Y-138430000D03*
X90170000Y-140970000D03*
X90170000Y-138430000D03*
X92710000Y-140970000D03*
X92710000Y-138430000D03*
X95250000Y-140970000D03*
X95250000Y-138430000D03*
X97790000Y-140970000D03*
X97790000Y-138430000D03*
D15*
X108458000Y-136969500D03*
D16*
X110998000Y-136969500D03*
X108458000Y-139509500D03*
X110998000Y-139509500D03*
X108458000Y-142049500D03*
X110998000Y-142049500D03*
X108458000Y-144589500D03*
X110998000Y-144589500D03*
X108458000Y-147129500D03*
X110998000Y-147129500D03*
D19*
X38608000Y-124523500D03*
D20*
X41148000Y-124523500D03*
X38608000Y-127063500D03*
X41148000Y-127063500D03*
X38608000Y-129603500D03*
X41148000Y-129603500D03*
X38608000Y-132143500D03*
X41148000Y-132143500D03*
D21*
X41844000Y-111268000D03*
X39944000Y-111268000D03*
X40894000Y-113268000D03*
D22*
X40322500Y-115570000D03*
X40322500Y-118270000D03*
X38290500Y-118270000D03*
X38290500Y-115570000D03*
D23*
X105016300Y-124015500D03*
X104381300Y-124015500D03*
X103720900Y-124015500D03*
X103060500Y-124015500D03*
X102425500Y-124015500D03*
X101765100Y-124015500D03*
X101104700Y-124015500D03*
X100469700Y-124015500D03*
X99809300Y-124015500D03*
X99174300Y-124015500D03*
X99174300Y-129349500D03*
X99809300Y-129349500D03*
X100469700Y-129349500D03*
X101104700Y-129349500D03*
X101765100Y-129349500D03*
X102425500Y-129349500D03*
X103060500Y-129349500D03*
X103720900Y-129349500D03*
X104381300Y-129349500D03*
X105016300Y-129349500D03*
D14*
X49466500Y-118237000D03*
X46966500Y-118237000D03*
D24*
X66484500Y-107505500D03*
X69184500Y-107505500D03*
X66484500Y-105410000D03*
X69184500Y-105410000D03*
X66515000Y-103314500D03*
X69215000Y-103314500D03*
D14*
X50927000Y-147002500D03*
X53427000Y-147002500D03*
X50903500Y-149288500D03*
X53403500Y-149288500D03*
X71858500Y-128524000D03*
X74358500Y-128524000D03*
X65873000Y-112331500D03*
X63373000Y-112331500D03*
X60539000Y-113347500D03*
X58039000Y-113347500D03*
X71668000Y-132524500D03*
X74168000Y-132524500D03*
D25*
X107124500Y-125222000D03*
X107124500Y-127722000D03*
X72009000Y-107505500D03*
X72009000Y-105005500D03*
D26*
X110998000Y-129603500D03*
D27*
X46926500Y-127000000D03*
X49403000Y-127000000D03*
X46863000Y-124777500D03*
X49403000Y-125031500D03*
D22*
X38608000Y-135890000D03*
X38608000Y-138590000D03*
D28*
X41046000Y-149352000D03*
D29*
X47346000Y-149352000D03*
X47346000Y-147052000D03*
X47346000Y-151652000D03*
M02*
