%TF.GenerationSoftware,KiCad,Pcbnew,4.0.7-e2-6376~61~ubuntu18.04.1*%
%TF.CreationDate,2018-07-10T18:24:55-07:00*%
%TF.ProjectId,tipi-peb,746970692D7065622E6B696361645F70,rev?*%
%TF.FileFunction,Soldermask,Top*%
%FSLAX46Y46*%
G04 Gerber Fmt 4.6, Leading zero omitted, Abs format (unit mm)*
G04 Created by KiCad (PCBNEW 4.0.7-e2-6376~61~ubuntu18.04.1) date Tue Jul 10 18:24:55 2018*
%MOMM*%
%LPD*%
G01*
G04 APERTURE LIST*
%ADD10C,0.150000*%
%ADD11C,3.600000*%
%ADD12R,1.900000X1.650000*%
%ADD13R,1.650000X1.900000*%
%ADD14R,2.100000X2.100000*%
%ADD15O,2.100000X2.100000*%
%ADD16R,2.200000X2.200000*%
%ADD17C,2.200000*%
%ADD18R,1.800000X12.400000*%
%ADD19R,1.300000X1.200000*%
%ADD20R,1.900000X1.700000*%
%ADD21R,1.700000X1.900000*%
%ADD22R,2.000000X2.000000*%
%ADD23O,2.000000X2.000000*%
%ADD24R,1.670000X0.806400*%
%ADD25R,1.900000X0.700000*%
%ADD26R,0.700000X1.900000*%
%ADD27R,1.900000X0.850000*%
%ADD28R,4.200000X2.400000*%
%ADD29R,1.900000X2.400000*%
%ADD30R,1.370000X1.670000*%
G04 APERTURE END LIST*
D10*
D11*
X138176000Y-78740000D03*
X196088000Y-78740000D03*
X138176000Y-29972000D03*
D12*
X64556000Y-158496000D03*
X67056000Y-158496000D03*
X62270000Y-99314000D03*
X64770000Y-99314000D03*
D13*
X104394000Y-136184000D03*
X104394000Y-138684000D03*
X130048000Y-136692000D03*
X130048000Y-139192000D03*
X93726000Y-79248000D03*
X93726000Y-76748000D03*
D12*
X83312000Y-83058000D03*
X80812000Y-83058000D03*
D13*
X92964000Y-103926000D03*
X92964000Y-106426000D03*
X117094000Y-136672000D03*
X117094000Y-139172000D03*
X100584000Y-103632000D03*
X100584000Y-106132000D03*
D12*
X106934000Y-94996000D03*
X109434000Y-94996000D03*
D13*
X99568000Y-79228000D03*
X99568000Y-76728000D03*
D12*
X83292000Y-88138000D03*
X80792000Y-88138000D03*
X144992643Y-139059519D03*
X147492643Y-139059519D03*
D13*
X199136000Y-148082000D03*
X199136000Y-145582000D03*
D12*
X186396000Y-148082000D03*
X183896000Y-148082000D03*
X201716000Y-148082000D03*
X204216000Y-148082000D03*
X181396000Y-145542000D03*
X183896000Y-145542000D03*
D14*
X50800000Y-90424000D03*
D15*
X48260000Y-90424000D03*
X50800000Y-87884000D03*
X48260000Y-87884000D03*
X50800000Y-85344000D03*
X48260000Y-85344000D03*
X50800000Y-82804000D03*
X48260000Y-82804000D03*
D16*
X39370000Y-152654000D03*
D17*
X39370000Y-155194000D03*
D18*
X165100000Y-164084000D03*
X167640000Y-164084000D03*
X162560000Y-164084000D03*
X160020000Y-164084000D03*
X157480000Y-164084000D03*
X154940000Y-164084000D03*
X152400000Y-164084000D03*
X149860000Y-164084000D03*
X147320000Y-164084000D03*
X144780000Y-164084000D03*
X142240000Y-164084000D03*
X139700000Y-164084000D03*
X137160000Y-164084000D03*
X134620000Y-164084000D03*
X132080000Y-164084000D03*
X129540000Y-164084000D03*
X127000000Y-164084000D03*
X124460000Y-164084000D03*
X121920000Y-164084000D03*
X119380000Y-164084000D03*
X116840000Y-164084000D03*
X114300000Y-164084000D03*
X111760000Y-164084000D03*
X109220000Y-164084000D03*
X106680000Y-164084000D03*
X104140000Y-164084000D03*
X101600000Y-164084000D03*
X99060000Y-164084000D03*
X96520000Y-164084000D03*
X93980000Y-164084000D03*
D14*
X48260000Y-65278000D03*
D15*
X48260000Y-62738000D03*
X50800000Y-65278000D03*
X50800000Y-62738000D03*
X53340000Y-65278000D03*
X53340000Y-62738000D03*
X55880000Y-65278000D03*
X55880000Y-62738000D03*
X58420000Y-65278000D03*
X58420000Y-62738000D03*
D19*
X46514000Y-152466000D03*
X46514000Y-154366000D03*
X48514000Y-153416000D03*
D20*
X94996000Y-140208000D03*
X97696000Y-140208000D03*
D21*
X124206000Y-137762000D03*
X124206000Y-140462000D03*
X110744000Y-138176000D03*
X110744000Y-140876000D03*
X48260000Y-78486000D03*
X48260000Y-75786000D03*
D20*
X46228000Y-145796000D03*
X43528000Y-145796000D03*
X55880000Y-155194000D03*
X53180000Y-155194000D03*
X64008000Y-66294000D03*
X66708000Y-66294000D03*
X64008000Y-63500000D03*
X66708000Y-63500000D03*
X64008000Y-60706000D03*
X66708000Y-60706000D03*
D14*
X249936000Y-80518000D03*
D15*
X252476000Y-80518000D03*
X249936000Y-83058000D03*
X252476000Y-83058000D03*
X249936000Y-85598000D03*
X252476000Y-85598000D03*
X249936000Y-88138000D03*
X252476000Y-88138000D03*
X249936000Y-90678000D03*
X252476000Y-90678000D03*
D22*
X52070000Y-103124000D03*
D23*
X67310000Y-136144000D03*
X52070000Y-105664000D03*
X67310000Y-133604000D03*
X52070000Y-108204000D03*
X67310000Y-131064000D03*
X52070000Y-110744000D03*
X67310000Y-128524000D03*
X52070000Y-113284000D03*
X67310000Y-125984000D03*
X52070000Y-115824000D03*
X67310000Y-123444000D03*
X52070000Y-118364000D03*
X67310000Y-120904000D03*
X52070000Y-120904000D03*
X67310000Y-118364000D03*
X52070000Y-123444000D03*
X67310000Y-115824000D03*
X52070000Y-125984000D03*
X67310000Y-113284000D03*
X52070000Y-128524000D03*
X67310000Y-110744000D03*
X52070000Y-131064000D03*
X67310000Y-108204000D03*
X52070000Y-133604000D03*
X67310000Y-105664000D03*
X52070000Y-136144000D03*
X67310000Y-103124000D03*
D24*
X99060000Y-142494000D03*
X99060000Y-143129000D03*
X99060000Y-143789400D03*
X99060000Y-144449800D03*
X99060000Y-145084800D03*
X99060000Y-145745200D03*
X99060000Y-146405600D03*
X99060000Y-147040600D03*
X99060000Y-147701000D03*
X99060000Y-148336000D03*
X104394000Y-148336000D03*
X104394000Y-147701000D03*
X104394000Y-147040600D03*
X104394000Y-146405600D03*
X104394000Y-145745200D03*
X104394000Y-145084800D03*
X104394000Y-144449800D03*
X104394000Y-143789400D03*
X104394000Y-143129000D03*
X104394000Y-142494000D03*
X126373867Y-142267125D03*
X126373867Y-142902125D03*
X126373867Y-143562525D03*
X126373867Y-144222925D03*
X126373867Y-144857925D03*
X126373867Y-145518325D03*
X126373867Y-146178725D03*
X126373867Y-146813725D03*
X126373867Y-147474125D03*
X126373867Y-148109125D03*
X131707867Y-148109125D03*
X131707867Y-147474125D03*
X131707867Y-146813725D03*
X131707867Y-146178725D03*
X131707867Y-145518325D03*
X131707867Y-144857925D03*
X131707867Y-144222925D03*
X131707867Y-143562525D03*
X131707867Y-142902125D03*
X131707867Y-142267125D03*
X113030000Y-142494000D03*
X113030000Y-143129000D03*
X113030000Y-143789400D03*
X113030000Y-144449800D03*
X113030000Y-145084800D03*
X113030000Y-145745200D03*
X113030000Y-146405600D03*
X113030000Y-147040600D03*
X113030000Y-147701000D03*
X113030000Y-148336000D03*
X118364000Y-148336000D03*
X118364000Y-147701000D03*
X118364000Y-147040600D03*
X118364000Y-146405600D03*
X118364000Y-145745200D03*
X118364000Y-145084800D03*
X118364000Y-144449800D03*
X118364000Y-143789400D03*
X118364000Y-143129000D03*
X118364000Y-142494000D03*
D25*
X101354000Y-97106000D03*
X101354000Y-96606000D03*
X101354000Y-96106000D03*
X101354000Y-95606000D03*
X101354000Y-95106000D03*
X101354000Y-94606000D03*
X101354000Y-94106000D03*
X101354000Y-93606000D03*
X101354000Y-93106000D03*
X101354000Y-92606000D03*
X101354000Y-92106000D03*
X101354000Y-91606000D03*
X101354000Y-91106000D03*
X101354000Y-90606000D03*
X101354000Y-90106000D03*
X101354000Y-89606000D03*
X101354000Y-89106000D03*
X101354000Y-88606000D03*
X101354000Y-88106000D03*
X101354000Y-87606000D03*
X101354000Y-87106000D03*
X101354000Y-86606000D03*
X101354000Y-86106000D03*
X101354000Y-85606000D03*
X101354000Y-85106000D03*
D26*
X99654000Y-83406000D03*
X99154000Y-83406000D03*
X98654000Y-83406000D03*
X98154000Y-83406000D03*
X97654000Y-83406000D03*
X97154000Y-83406000D03*
X96654000Y-83406000D03*
X96154000Y-83406000D03*
X95654000Y-83406000D03*
X95154000Y-83406000D03*
X94654000Y-83406000D03*
X94154000Y-83406000D03*
X93654000Y-83406000D03*
X93154000Y-83406000D03*
X92654000Y-83406000D03*
X92154000Y-83406000D03*
X91654000Y-83406000D03*
X91154000Y-83406000D03*
X90654000Y-83406000D03*
X90154000Y-83406000D03*
X89654000Y-83406000D03*
X89154000Y-83406000D03*
X88654000Y-83406000D03*
X88154000Y-83406000D03*
X87654000Y-83406000D03*
D25*
X85954000Y-85106000D03*
X85954000Y-85606000D03*
X85954000Y-86106000D03*
X85954000Y-86606000D03*
X85954000Y-87106000D03*
X85954000Y-87606000D03*
X85954000Y-88106000D03*
X85954000Y-88606000D03*
X85954000Y-89106000D03*
X85954000Y-89606000D03*
X85954000Y-90106000D03*
X85954000Y-90606000D03*
X85954000Y-91106000D03*
X85954000Y-91606000D03*
X85954000Y-92106000D03*
X85954000Y-92606000D03*
X85954000Y-93106000D03*
X85954000Y-93606000D03*
X85954000Y-94106000D03*
X85954000Y-94606000D03*
X85954000Y-95106000D03*
X85954000Y-95606000D03*
X85954000Y-96106000D03*
X85954000Y-96606000D03*
X85954000Y-97106000D03*
D26*
X87654000Y-98806000D03*
X88154000Y-98806000D03*
X88654000Y-98806000D03*
X89154000Y-98806000D03*
X89654000Y-98806000D03*
X90154000Y-98806000D03*
X90654000Y-98806000D03*
X91154000Y-98806000D03*
X91654000Y-98806000D03*
X92154000Y-98806000D03*
X92654000Y-98806000D03*
X93154000Y-98806000D03*
X93654000Y-98806000D03*
X94154000Y-98806000D03*
X94654000Y-98806000D03*
X95154000Y-98806000D03*
X95654000Y-98806000D03*
X96154000Y-98806000D03*
X96654000Y-98806000D03*
X97154000Y-98806000D03*
X97654000Y-98806000D03*
X98154000Y-98806000D03*
X98654000Y-98806000D03*
X99154000Y-98806000D03*
X99654000Y-98806000D03*
D24*
X142158643Y-142107519D03*
X142158643Y-142742519D03*
X142158643Y-143402919D03*
X142158643Y-144063319D03*
X142158643Y-144698319D03*
X142158643Y-145358719D03*
X142158643Y-146019119D03*
X142158643Y-146654119D03*
X142158643Y-147314519D03*
X142158643Y-147949519D03*
X147492643Y-147949519D03*
X147492643Y-147314519D03*
X147492643Y-146654119D03*
X147492643Y-146019119D03*
X147492643Y-145358719D03*
X147492643Y-144698319D03*
X147492643Y-144063319D03*
X147492643Y-143402919D03*
X147492643Y-142742519D03*
X147492643Y-142107519D03*
D27*
X76962000Y-158668000D03*
X76962000Y-158018000D03*
X76962000Y-157368000D03*
X76962000Y-156718000D03*
X76962000Y-156068000D03*
X76962000Y-155418000D03*
X76962000Y-154768000D03*
X76962000Y-154118000D03*
X71062000Y-154118000D03*
X71062000Y-154768000D03*
X71062000Y-155418000D03*
X71062000Y-156068000D03*
X71062000Y-156718000D03*
X71062000Y-157368000D03*
X71062000Y-158018000D03*
X71062000Y-158668000D03*
D20*
X97536000Y-135636000D03*
X94836000Y-135636000D03*
D28*
X183896000Y-158192000D03*
D29*
X183896000Y-151892000D03*
X181596000Y-151892000D03*
X186196000Y-151892000D03*
D28*
X201676000Y-158242000D03*
D29*
X201676000Y-151942000D03*
X199376000Y-151942000D03*
X203976000Y-151942000D03*
D11*
X196088000Y-29718000D03*
D20*
X245778000Y-86868000D03*
X243078000Y-86868000D03*
D30*
X85344000Y-147828000D03*
X86614000Y-147828000D03*
X87884000Y-147828000D03*
X85344000Y-144018000D03*
X86614000Y-144018000D03*
X87884000Y-144018000D03*
D20*
X88044000Y-135890000D03*
X85344000Y-135890000D03*
X87884000Y-139446000D03*
X85184000Y-139446000D03*
M02*
