%TF.GenerationSoftware,KiCad,Pcbnew,4.0.7-e2-6376~61~ubuntu18.04.1*%
%TF.CreationDate,2018-07-10T18:24:55-07:00*%
%TF.ProjectId,tipi-peb,746970692D7065622E6B696361645F70,rev?*%
%TF.FileFunction,Legend,Top*%
%FSLAX46Y46*%
G04 Gerber Fmt 4.6, Leading zero omitted, Abs format (unit mm)*
G04 Created by KiCad (PCBNEW 4.0.7-e2-6376~61~ubuntu18.04.1) date Tue Jul 10 18:24:55 2018*
%MOMM*%
%LPD*%
G01*
G04 APERTURE LIST*
%ADD10C,0.150000*%
%ADD11C,0.300000*%
%ADD12C,0.500000*%
%ADD13C,0.200000*%
%ADD14C,0.120000*%
G04 APERTURE END LIST*
D10*
D11*
X178365144Y-124884571D02*
X178365144Y-123884571D01*
X178365144Y-124170286D02*
X178436572Y-124027429D01*
X178508001Y-123956000D01*
X178650858Y-123884571D01*
X178793715Y-123884571D01*
X179865143Y-124813143D02*
X179722286Y-124884571D01*
X179436572Y-124884571D01*
X179293715Y-124813143D01*
X179222286Y-124670286D01*
X179222286Y-124098857D01*
X179293715Y-123956000D01*
X179436572Y-123884571D01*
X179722286Y-123884571D01*
X179865143Y-123956000D01*
X179936572Y-124098857D01*
X179936572Y-124241714D01*
X179222286Y-124384571D01*
X180436572Y-123884571D02*
X180793715Y-124884571D01*
X181150857Y-123884571D01*
X181650857Y-123527429D02*
X181722286Y-123456000D01*
X181865143Y-123384571D01*
X182222286Y-123384571D01*
X182365143Y-123456000D01*
X182436572Y-123527429D01*
X182508000Y-123670286D01*
X182508000Y-123813143D01*
X182436572Y-124027429D01*
X181579429Y-124884571D01*
X182508000Y-124884571D01*
X184293714Y-124313143D02*
X185436571Y-124313143D01*
X187079428Y-123884571D02*
X187650857Y-123884571D01*
X187293714Y-123384571D02*
X187293714Y-124670286D01*
X187365142Y-124813143D01*
X187508000Y-124884571D01*
X187650857Y-124884571D01*
X188150857Y-124884571D02*
X188150857Y-123884571D01*
X188150857Y-123384571D02*
X188079428Y-123456000D01*
X188150857Y-123527429D01*
X188222285Y-123456000D01*
X188150857Y-123384571D01*
X188150857Y-123527429D01*
X188936571Y-124884571D02*
X189222286Y-124884571D01*
X189365143Y-124813143D01*
X189436571Y-124741714D01*
X189579429Y-124527429D01*
X189650857Y-124241714D01*
X189650857Y-123670286D01*
X189579429Y-123527429D01*
X189508000Y-123456000D01*
X189365143Y-123384571D01*
X189079429Y-123384571D01*
X188936571Y-123456000D01*
X188865143Y-123527429D01*
X188793714Y-123670286D01*
X188793714Y-124027429D01*
X188865143Y-124170286D01*
X188936571Y-124241714D01*
X189079429Y-124313143D01*
X189365143Y-124313143D01*
X189508000Y-124241714D01*
X189579429Y-124170286D01*
X189650857Y-124027429D01*
X190365142Y-124884571D02*
X190650857Y-124884571D01*
X190793714Y-124813143D01*
X190865142Y-124741714D01*
X191008000Y-124527429D01*
X191079428Y-124241714D01*
X191079428Y-123670286D01*
X191008000Y-123527429D01*
X190936571Y-123456000D01*
X190793714Y-123384571D01*
X190508000Y-123384571D01*
X190365142Y-123456000D01*
X190293714Y-123527429D01*
X190222285Y-123670286D01*
X190222285Y-124027429D01*
X190293714Y-124170286D01*
X190365142Y-124241714D01*
X190508000Y-124313143D01*
X190793714Y-124313143D01*
X190936571Y-124241714D01*
X191008000Y-124170286D01*
X191079428Y-124027429D01*
X192365142Y-123884571D02*
X192365142Y-124884571D01*
X192007999Y-123313143D02*
X191650856Y-124384571D01*
X192579428Y-124384571D01*
X193793713Y-124884571D02*
X193793713Y-124098857D01*
X193722284Y-123956000D01*
X193579427Y-123884571D01*
X193293713Y-123884571D01*
X193150856Y-123956000D01*
X193793713Y-124813143D02*
X193650856Y-124884571D01*
X193293713Y-124884571D01*
X193150856Y-124813143D01*
X193079427Y-124670286D01*
X193079427Y-124527429D01*
X193150856Y-124384571D01*
X193293713Y-124313143D01*
X193650856Y-124313143D01*
X193793713Y-124241714D01*
X194507999Y-124741714D02*
X194579427Y-124813143D01*
X194507999Y-124884571D01*
X194436570Y-124813143D01*
X194507999Y-124741714D01*
X194507999Y-124884571D01*
X195865142Y-124813143D02*
X195722285Y-124884571D01*
X195436571Y-124884571D01*
X195293713Y-124813143D01*
X195222285Y-124741714D01*
X195150856Y-124598857D01*
X195150856Y-124170286D01*
X195222285Y-124027429D01*
X195293713Y-123956000D01*
X195436571Y-123884571D01*
X195722285Y-123884571D01*
X195865142Y-123956000D01*
X196365142Y-123884571D02*
X196650856Y-124884571D01*
X196936570Y-124170286D01*
X197222285Y-124884571D01*
X197507999Y-123884571D01*
X197865142Y-123884571D02*
X198436571Y-123884571D01*
X198079428Y-124884571D02*
X198079428Y-123598857D01*
X198150856Y-123456000D01*
X198293714Y-123384571D01*
X198436571Y-123384571D01*
X198936571Y-124884571D02*
X198936571Y-123384571D01*
X199079428Y-124313143D02*
X199507999Y-124884571D01*
X199507999Y-123884571D02*
X198936571Y-124456000D01*
X200150857Y-124741714D02*
X200222285Y-124813143D01*
X200150857Y-124884571D01*
X200079428Y-124813143D01*
X200150857Y-124741714D01*
X200150857Y-124884571D01*
X200865143Y-123884571D02*
X200865143Y-124884571D01*
X200865143Y-124027429D02*
X200936571Y-123956000D01*
X201079429Y-123884571D01*
X201293714Y-123884571D01*
X201436571Y-123956000D01*
X201508000Y-124098857D01*
X201508000Y-124884571D01*
X202793714Y-124813143D02*
X202650857Y-124884571D01*
X202365143Y-124884571D01*
X202222286Y-124813143D01*
X202150857Y-124670286D01*
X202150857Y-124098857D01*
X202222286Y-123956000D01*
X202365143Y-123884571D01*
X202650857Y-123884571D01*
X202793714Y-123956000D01*
X202865143Y-124098857D01*
X202865143Y-124241714D01*
X202150857Y-124384571D01*
X203293714Y-123884571D02*
X203865143Y-123884571D01*
X203508000Y-123384571D02*
X203508000Y-124670286D01*
X203579428Y-124813143D01*
X203722286Y-124884571D01*
X203865143Y-124884571D01*
D12*
X160000000Y-103000000D02*
X204216000Y-103000000D01*
X152835429Y-103045238D02*
X160092572Y-103045238D01*
X156464000Y-115745238D02*
X156464000Y-103045238D01*
X161451428Y-115775810D02*
X161451428Y-109109143D01*
X161451428Y-105775810D02*
X160975238Y-106252000D01*
X161451428Y-106728190D01*
X161927619Y-106252000D01*
X161451428Y-105775810D01*
X161451428Y-106728190D01*
X166213333Y-109109143D02*
X166213333Y-119109143D01*
X166213333Y-109585333D02*
X167165714Y-109109143D01*
X169070476Y-109109143D01*
X170022857Y-109585333D01*
X170499048Y-110061524D01*
X170975238Y-111013905D01*
X170975238Y-113871048D01*
X170499048Y-114823429D01*
X170022857Y-115299619D01*
X169070476Y-115775810D01*
X167165714Y-115775810D01*
X166213333Y-115299619D01*
X175260952Y-115775810D02*
X175260952Y-109109143D01*
X175260952Y-105775810D02*
X174784762Y-106252000D01*
X175260952Y-106728190D01*
X175737143Y-106252000D01*
X175260952Y-105775810D01*
X175260952Y-106728190D01*
X180022857Y-115775810D02*
X180022857Y-105775810D01*
X183832381Y-105775810D01*
X184784762Y-106252000D01*
X185260953Y-106728190D01*
X185737143Y-107680571D01*
X185737143Y-109109143D01*
X185260953Y-110061524D01*
X184784762Y-110537714D01*
X183832381Y-111013905D01*
X180022857Y-111013905D01*
X190022857Y-110537714D02*
X193356191Y-110537714D01*
X194784762Y-115775810D02*
X190022857Y-115775810D01*
X190022857Y-105775810D01*
X194784762Y-105775810D01*
X202403810Y-110537714D02*
X203832381Y-111013905D01*
X204308572Y-111490095D01*
X204784762Y-112442476D01*
X204784762Y-113871048D01*
X204308572Y-114823429D01*
X203832381Y-115299619D01*
X202880000Y-115775810D01*
X199070476Y-115775810D01*
X199070476Y-105775810D01*
X202403810Y-105775810D01*
X203356191Y-106252000D01*
X203832381Y-106728190D01*
X204308572Y-107680571D01*
X204308572Y-108632952D01*
X203832381Y-109585333D01*
X203356191Y-110061524D01*
X202403810Y-110537714D01*
X199070476Y-110537714D01*
D11*
X41513144Y-82610429D02*
X41370286Y-82539000D01*
X41298858Y-82467571D01*
X41227429Y-82324714D01*
X41227429Y-82253286D01*
X41298858Y-82110429D01*
X41370286Y-82039000D01*
X41513144Y-81967571D01*
X41798858Y-81967571D01*
X41941715Y-82039000D01*
X42013144Y-82110429D01*
X42084572Y-82253286D01*
X42084572Y-82324714D01*
X42013144Y-82467571D01*
X41941715Y-82539000D01*
X41798858Y-82610429D01*
X41513144Y-82610429D01*
X41370286Y-82681857D01*
X41298858Y-82753286D01*
X41227429Y-82896143D01*
X41227429Y-83181857D01*
X41298858Y-83324714D01*
X41370286Y-83396143D01*
X41513144Y-83467571D01*
X41798858Y-83467571D01*
X41941715Y-83396143D01*
X42013144Y-83324714D01*
X42084572Y-83181857D01*
X42084572Y-82896143D01*
X42013144Y-82753286D01*
X41941715Y-82681857D01*
X41798858Y-82610429D01*
X41941715Y-85017571D02*
X41941715Y-86017571D01*
X41584572Y-84446143D02*
X41227429Y-85517571D01*
X42156001Y-85517571D01*
X41227429Y-87210429D02*
X41298858Y-87139000D01*
X41441715Y-87067571D01*
X41798858Y-87067571D01*
X41941715Y-87139000D01*
X42013144Y-87210429D01*
X42084572Y-87353286D01*
X42084572Y-87496143D01*
X42013144Y-87710429D01*
X41156001Y-88567571D01*
X42084572Y-88567571D01*
X42084572Y-91117571D02*
X41227429Y-91117571D01*
X41656001Y-91117571D02*
X41656001Y-89617571D01*
X41513144Y-89831857D01*
X41370286Y-89974714D01*
X41227429Y-90046143D01*
D13*
X45720000Y-90424000D02*
X42672000Y-90424000D01*
X45720000Y-87884000D02*
X42672000Y-87884000D01*
X45720000Y-85344000D02*
X42672000Y-85344000D01*
X45720000Y-82804000D02*
X42672000Y-82804000D01*
D11*
X38044858Y-79942571D02*
X39187715Y-80371143D01*
X38044858Y-80799714D01*
X40687715Y-80942571D02*
X39830572Y-80942571D01*
X40259144Y-80942571D02*
X40259144Y-79442571D01*
X40116287Y-79656857D01*
X39973429Y-79799714D01*
X39830572Y-79871143D01*
X41544858Y-80799714D02*
X41616286Y-80871143D01*
X41544858Y-80942571D01*
X41473429Y-80871143D01*
X41544858Y-80799714D01*
X41544858Y-80942571D01*
X41259143Y-79514000D02*
X41402000Y-79442571D01*
X41759143Y-79442571D01*
X41902000Y-79514000D01*
X41973429Y-79656857D01*
X41973429Y-79799714D01*
X41902000Y-79942571D01*
X41830572Y-80014000D01*
X41687715Y-80085429D01*
X41616286Y-80156857D01*
X41544858Y-80299714D01*
X41544858Y-80371143D01*
X42902000Y-79442571D02*
X43044857Y-79442571D01*
X43187714Y-79514000D01*
X43259143Y-79585429D01*
X43330572Y-79728286D01*
X43402000Y-80014000D01*
X43402000Y-80371143D01*
X43330572Y-80656857D01*
X43259143Y-80799714D01*
X43187714Y-80871143D01*
X43044857Y-80942571D01*
X42902000Y-80942571D01*
X42759143Y-80871143D01*
X42687714Y-80799714D01*
X42616286Y-80656857D01*
X42544857Y-80371143D01*
X42544857Y-80014000D01*
X42616286Y-79728286D01*
X42687714Y-79585429D01*
X42759143Y-79514000D01*
X42902000Y-79442571D01*
X44330571Y-79442571D02*
X44473428Y-79442571D01*
X44616285Y-79514000D01*
X44687714Y-79585429D01*
X44759143Y-79728286D01*
X44830571Y-80014000D01*
X44830571Y-80371143D01*
X44759143Y-80656857D01*
X44687714Y-80799714D01*
X44616285Y-80871143D01*
X44473428Y-80942571D01*
X44330571Y-80942571D01*
X44187714Y-80871143D01*
X44116285Y-80799714D01*
X44044857Y-80656857D01*
X43973428Y-80371143D01*
X43973428Y-80014000D01*
X44044857Y-79728286D01*
X44116285Y-79585429D01*
X44187714Y-79514000D01*
X44330571Y-79442571D01*
D13*
X89162000Y-148613523D02*
X89114381Y-148708761D01*
X89114381Y-148851618D01*
X89162000Y-148994476D01*
X89257238Y-149089714D01*
X89352476Y-149137333D01*
X89542952Y-149184952D01*
X89685810Y-149184952D01*
X89876286Y-149137333D01*
X89971524Y-149089714D01*
X90066762Y-148994476D01*
X90114381Y-148851618D01*
X90114381Y-148756380D01*
X90066762Y-148613523D01*
X90019143Y-148565904D01*
X89685810Y-148565904D01*
X89685810Y-148756380D01*
X89590571Y-148137333D02*
X89590571Y-147803999D01*
X90114381Y-147661142D02*
X90114381Y-148137333D01*
X89114381Y-148137333D01*
X89114381Y-147661142D01*
X90114381Y-147232571D02*
X89114381Y-147232571D01*
X90114381Y-146661142D01*
X89114381Y-146661142D01*
X90114381Y-146184952D02*
X89114381Y-146184952D01*
X89828667Y-145851618D01*
X89114381Y-145518285D01*
X90114381Y-145518285D01*
X89114381Y-144851619D02*
X89114381Y-144661142D01*
X89162000Y-144565904D01*
X89257238Y-144470666D01*
X89447714Y-144423047D01*
X89781048Y-144423047D01*
X89971524Y-144470666D01*
X90066762Y-144565904D01*
X90114381Y-144661142D01*
X90114381Y-144851619D01*
X90066762Y-144946857D01*
X89971524Y-145042095D01*
X89781048Y-145089714D01*
X89447714Y-145089714D01*
X89257238Y-145042095D01*
X89162000Y-144946857D01*
X89114381Y-144851619D01*
X90114381Y-143994476D02*
X89114381Y-143994476D01*
X89114381Y-143756381D01*
X89162000Y-143613523D01*
X89257238Y-143518285D01*
X89352476Y-143470666D01*
X89542952Y-143423047D01*
X89685810Y-143423047D01*
X89876286Y-143470666D01*
X89971524Y-143518285D01*
X90066762Y-143613523D01*
X90114381Y-143756381D01*
X90114381Y-143994476D01*
X81954762Y-139898381D02*
X81383333Y-139898381D01*
X81669047Y-139898381D02*
X81669047Y-138898381D01*
X81573809Y-139041238D01*
X81478571Y-139136476D01*
X81383333Y-139184095D01*
X82573809Y-138898381D02*
X82669048Y-138898381D01*
X82764286Y-138946000D01*
X82811905Y-138993619D01*
X82859524Y-139088857D01*
X82907143Y-139279333D01*
X82907143Y-139517429D01*
X82859524Y-139707905D01*
X82811905Y-139803143D01*
X82764286Y-139850762D01*
X82669048Y-139898381D01*
X82573809Y-139898381D01*
X82478571Y-139850762D01*
X82430952Y-139803143D01*
X82383333Y-139707905D01*
X82335714Y-139517429D01*
X82335714Y-139279333D01*
X82383333Y-139088857D01*
X82430952Y-138993619D01*
X82478571Y-138946000D01*
X82573809Y-138898381D01*
X83335714Y-139898381D02*
X83335714Y-138898381D01*
X83430952Y-139517429D02*
X83716667Y-139898381D01*
X83716667Y-139231714D02*
X83335714Y-139612667D01*
X83192953Y-136342381D02*
X82621524Y-136342381D01*
X82907238Y-136342381D02*
X82907238Y-135342381D01*
X82812000Y-135485238D01*
X82716762Y-135580476D01*
X82621524Y-135628095D01*
X83621524Y-136342381D02*
X83621524Y-135342381D01*
X83716762Y-135961429D02*
X84002477Y-136342381D01*
X84002477Y-135675714D02*
X83621524Y-136056667D01*
X73604381Y-158305238D02*
X72604381Y-158305238D01*
X73080571Y-158305238D02*
X73080571Y-157733809D01*
X73604381Y-157733809D02*
X72604381Y-157733809D01*
X72604381Y-157400476D02*
X72604381Y-156829047D01*
X73604381Y-157114762D02*
X72604381Y-157114762D01*
X73604381Y-155971904D02*
X73604381Y-156543333D01*
X73604381Y-156257619D02*
X72604381Y-156257619D01*
X72747238Y-156352857D01*
X72842476Y-156448095D01*
X72890095Y-156543333D01*
X72604381Y-155638571D02*
X72604381Y-155019523D01*
X72985333Y-155352857D01*
X72985333Y-155209999D01*
X73032952Y-155114761D01*
X73080571Y-155067142D01*
X73175810Y-155019523D01*
X73413905Y-155019523D01*
X73509143Y-155067142D01*
X73556762Y-155114761D01*
X73604381Y-155209999D01*
X73604381Y-155495714D01*
X73556762Y-155590952D01*
X73509143Y-155638571D01*
X73032952Y-154448095D02*
X72985333Y-154543333D01*
X72937714Y-154590952D01*
X72842476Y-154638571D01*
X72794857Y-154638571D01*
X72699619Y-154590952D01*
X72652000Y-154543333D01*
X72604381Y-154448095D01*
X72604381Y-154257618D01*
X72652000Y-154162380D01*
X72699619Y-154114761D01*
X72794857Y-154067142D01*
X72842476Y-154067142D01*
X72937714Y-154114761D01*
X72985333Y-154162380D01*
X73032952Y-154257618D01*
X73032952Y-154448095D01*
X73080571Y-154543333D01*
X73128190Y-154590952D01*
X73223429Y-154638571D01*
X73413905Y-154638571D01*
X73509143Y-154590952D01*
X73556762Y-154543333D01*
X73604381Y-154448095D01*
X73604381Y-154257618D01*
X73556762Y-154162380D01*
X73509143Y-154114761D01*
X73413905Y-154067142D01*
X73223429Y-154067142D01*
X73128190Y-154114761D01*
X73080571Y-154162380D01*
X73032952Y-154257618D01*
X101655619Y-143192762D02*
X102655619Y-143192762D01*
X102179429Y-143192762D02*
X102179429Y-143764191D01*
X101655619Y-143764191D02*
X102655619Y-143764191D01*
X102655619Y-144097524D02*
X102655619Y-144668953D01*
X101655619Y-144383238D02*
X102655619Y-144383238D01*
X102560381Y-144954667D02*
X102608000Y-145002286D01*
X102655619Y-145097524D01*
X102655619Y-145335620D01*
X102608000Y-145430858D01*
X102560381Y-145478477D01*
X102465143Y-145526096D01*
X102369905Y-145526096D01*
X102227048Y-145478477D01*
X101655619Y-144907048D01*
X101655619Y-145526096D01*
X102322286Y-146383239D02*
X101655619Y-146383239D01*
X102703238Y-146145143D02*
X101988952Y-145907048D01*
X101988952Y-146526096D01*
X102322286Y-147335620D02*
X101655619Y-147335620D01*
X102703238Y-147097524D02*
X101988952Y-146859429D01*
X101988952Y-147478477D01*
X115625619Y-143192762D02*
X116625619Y-143192762D01*
X116149429Y-143192762D02*
X116149429Y-143764191D01*
X115625619Y-143764191D02*
X116625619Y-143764191D01*
X116625619Y-144097524D02*
X116625619Y-144668953D01*
X115625619Y-144383238D02*
X116625619Y-144383238D01*
X116530381Y-144954667D02*
X116578000Y-145002286D01*
X116625619Y-145097524D01*
X116625619Y-145335620D01*
X116578000Y-145430858D01*
X116530381Y-145478477D01*
X116435143Y-145526096D01*
X116339905Y-145526096D01*
X116197048Y-145478477D01*
X115625619Y-144907048D01*
X115625619Y-145526096D01*
X116292286Y-146383239D02*
X115625619Y-146383239D01*
X116673238Y-146145143D02*
X115958952Y-145907048D01*
X115958952Y-146526096D01*
X116292286Y-147335620D02*
X115625619Y-147335620D01*
X116673238Y-147097524D02*
X115958952Y-146859429D01*
X115958952Y-147478477D01*
X129087619Y-142938762D02*
X130087619Y-142938762D01*
X129611429Y-142938762D02*
X129611429Y-143510191D01*
X129087619Y-143510191D02*
X130087619Y-143510191D01*
X130087619Y-143843524D02*
X130087619Y-144414953D01*
X129087619Y-144129238D02*
X130087619Y-144129238D01*
X129992381Y-144700667D02*
X130040000Y-144748286D01*
X130087619Y-144843524D01*
X130087619Y-145081620D01*
X130040000Y-145176858D01*
X129992381Y-145224477D01*
X129897143Y-145272096D01*
X129801905Y-145272096D01*
X129659048Y-145224477D01*
X129087619Y-144653048D01*
X129087619Y-145272096D01*
X129754286Y-146129239D02*
X129087619Y-146129239D01*
X130135238Y-145891143D02*
X129420952Y-145653048D01*
X129420952Y-146272096D01*
X129754286Y-147081620D02*
X129087619Y-147081620D01*
X130135238Y-146843524D02*
X129420952Y-146605429D01*
X129420952Y-147224477D01*
X144835619Y-142684762D02*
X145835619Y-142684762D01*
X145359429Y-142684762D02*
X145359429Y-143256191D01*
X144835619Y-143256191D02*
X145835619Y-143256191D01*
X145835619Y-143589524D02*
X145835619Y-144160953D01*
X144835619Y-143875238D02*
X145835619Y-143875238D01*
X145740381Y-144446667D02*
X145788000Y-144494286D01*
X145835619Y-144589524D01*
X145835619Y-144827620D01*
X145788000Y-144922858D01*
X145740381Y-144970477D01*
X145645143Y-145018096D01*
X145549905Y-145018096D01*
X145407048Y-144970477D01*
X144835619Y-144399048D01*
X144835619Y-145018096D01*
X145502286Y-145875239D02*
X144835619Y-145875239D01*
X145883238Y-145637143D02*
X145168952Y-145399048D01*
X145168952Y-146018096D01*
X145835619Y-146875239D02*
X145835619Y-146399048D01*
X145359429Y-146351429D01*
X145407048Y-146399048D01*
X145454667Y-146494286D01*
X145454667Y-146732382D01*
X145407048Y-146827620D01*
X145359429Y-146875239D01*
X145264190Y-146922858D01*
X145026095Y-146922858D01*
X144930857Y-146875239D01*
X144883238Y-146827620D01*
X144835619Y-146732382D01*
X144835619Y-146494286D01*
X144883238Y-146399048D01*
X144930857Y-146351429D01*
X60396381Y-108815524D02*
X60444000Y-108863143D01*
X60491619Y-108958381D01*
X60491619Y-109196477D01*
X60444000Y-109291715D01*
X60396381Y-109339334D01*
X60301143Y-109386953D01*
X60205905Y-109386953D01*
X60063048Y-109339334D01*
X59491619Y-108767905D01*
X59491619Y-109386953D01*
X60491619Y-109720286D02*
X60491619Y-110386953D01*
X59491619Y-109958381D01*
X59586857Y-111339334D02*
X59539238Y-111291715D01*
X59491619Y-111148858D01*
X59491619Y-111053620D01*
X59539238Y-110910762D01*
X59634476Y-110815524D01*
X59729714Y-110767905D01*
X59920190Y-110720286D01*
X60063048Y-110720286D01*
X60253524Y-110767905D01*
X60348762Y-110815524D01*
X60444000Y-110910762D01*
X60491619Y-111053620D01*
X60491619Y-111148858D01*
X60444000Y-111291715D01*
X60396381Y-111339334D01*
X60396381Y-111720286D02*
X60444000Y-111767905D01*
X60491619Y-111863143D01*
X60491619Y-112101239D01*
X60444000Y-112196477D01*
X60396381Y-112244096D01*
X60301143Y-112291715D01*
X60205905Y-112291715D01*
X60063048Y-112244096D01*
X59491619Y-111672667D01*
X59491619Y-112291715D01*
X60491619Y-113196477D02*
X60491619Y-112720286D01*
X60015429Y-112672667D01*
X60063048Y-112720286D01*
X60110667Y-112815524D01*
X60110667Y-113053620D01*
X60063048Y-113148858D01*
X60015429Y-113196477D01*
X59920190Y-113244096D01*
X59682095Y-113244096D01*
X59586857Y-113196477D01*
X59539238Y-113148858D01*
X59491619Y-113053620D01*
X59491619Y-112815524D01*
X59539238Y-112720286D01*
X59586857Y-112672667D01*
X60491619Y-114101239D02*
X60491619Y-113910762D01*
X60444000Y-113815524D01*
X60396381Y-113767905D01*
X60253524Y-113672667D01*
X60063048Y-113625048D01*
X59682095Y-113625048D01*
X59586857Y-113672667D01*
X59539238Y-113720286D01*
X59491619Y-113815524D01*
X59491619Y-114006001D01*
X59539238Y-114101239D01*
X59586857Y-114148858D01*
X59682095Y-114196477D01*
X59920190Y-114196477D01*
X60015429Y-114148858D01*
X60063048Y-114101239D01*
X60110667Y-114006001D01*
X60110667Y-113815524D01*
X60063048Y-113720286D01*
X60015429Y-113672667D01*
X59920190Y-113625048D01*
X62254000Y-100544381D02*
X62349239Y-100544381D01*
X62444477Y-100592000D01*
X62492096Y-100639619D01*
X62539715Y-100734857D01*
X62587334Y-100925333D01*
X62587334Y-101163429D01*
X62539715Y-101353905D01*
X62492096Y-101449143D01*
X62444477Y-101496762D01*
X62349239Y-101544381D01*
X62254000Y-101544381D01*
X62158762Y-101496762D01*
X62111143Y-101449143D01*
X62063524Y-101353905D01*
X62015905Y-101163429D01*
X62015905Y-100925333D01*
X62063524Y-100734857D01*
X62111143Y-100639619D01*
X62158762Y-100592000D01*
X62254000Y-100544381D01*
X63015905Y-101449143D02*
X63063524Y-101496762D01*
X63015905Y-101544381D01*
X62968286Y-101496762D01*
X63015905Y-101449143D01*
X63015905Y-101544381D01*
X64015905Y-101544381D02*
X63444476Y-101544381D01*
X63730190Y-101544381D02*
X63730190Y-100544381D01*
X63634952Y-100687238D01*
X63539714Y-100782476D01*
X63444476Y-100830095D01*
X64873048Y-100877714D02*
X64873048Y-101544381D01*
X64444476Y-100877714D02*
X64444476Y-101401524D01*
X64492095Y-101496762D01*
X64587333Y-101544381D01*
X64730191Y-101544381D01*
X64825429Y-101496762D01*
X64873048Y-101449143D01*
X65206381Y-100877714D02*
X65587333Y-100877714D01*
X65349238Y-101544381D02*
X65349238Y-100687238D01*
X65396857Y-100592000D01*
X65492095Y-100544381D01*
X65587333Y-100544381D01*
X195413429Y-148534381D02*
X194842000Y-148534381D01*
X195127714Y-148534381D02*
X195127714Y-147534381D01*
X195032476Y-147677238D01*
X194937238Y-147772476D01*
X194842000Y-147820095D01*
X196032476Y-147534381D02*
X196127715Y-147534381D01*
X196222953Y-147582000D01*
X196270572Y-147629619D01*
X196318191Y-147724857D01*
X196365810Y-147915333D01*
X196365810Y-148153429D01*
X196318191Y-148343905D01*
X196270572Y-148439143D01*
X196222953Y-148486762D01*
X196127715Y-148534381D01*
X196032476Y-148534381D01*
X195937238Y-148486762D01*
X195889619Y-148439143D01*
X195842000Y-148343905D01*
X195794381Y-148153429D01*
X195794381Y-147915333D01*
X195842000Y-147724857D01*
X195889619Y-147629619D01*
X195937238Y-147582000D01*
X196032476Y-147534381D01*
X197222953Y-147867714D02*
X197222953Y-148534381D01*
X196794381Y-147867714D02*
X196794381Y-148391524D01*
X196842000Y-148486762D01*
X196937238Y-148534381D01*
X197080096Y-148534381D01*
X197175334Y-148486762D01*
X197222953Y-148439143D01*
X197556286Y-147867714D02*
X197937238Y-147867714D01*
X197699143Y-148534381D02*
X197699143Y-147677238D01*
X197746762Y-147582000D01*
X197842000Y-147534381D01*
X197937238Y-147534381D01*
X188301429Y-148534381D02*
X187730000Y-148534381D01*
X188015714Y-148534381D02*
X188015714Y-147534381D01*
X187920476Y-147677238D01*
X187825238Y-147772476D01*
X187730000Y-147820095D01*
X188920476Y-147534381D02*
X189015715Y-147534381D01*
X189110953Y-147582000D01*
X189158572Y-147629619D01*
X189206191Y-147724857D01*
X189253810Y-147915333D01*
X189253810Y-148153429D01*
X189206191Y-148343905D01*
X189158572Y-148439143D01*
X189110953Y-148486762D01*
X189015715Y-148534381D01*
X188920476Y-148534381D01*
X188825238Y-148486762D01*
X188777619Y-148439143D01*
X188730000Y-148343905D01*
X188682381Y-148153429D01*
X188682381Y-147915333D01*
X188730000Y-147724857D01*
X188777619Y-147629619D01*
X188825238Y-147582000D01*
X188920476Y-147534381D01*
X190110953Y-147867714D02*
X190110953Y-148534381D01*
X189682381Y-147867714D02*
X189682381Y-148391524D01*
X189730000Y-148486762D01*
X189825238Y-148534381D01*
X189968096Y-148534381D01*
X190063334Y-148486762D01*
X190110953Y-148439143D01*
X190444286Y-147867714D02*
X190825238Y-147867714D01*
X190587143Y-148534381D02*
X190587143Y-147677238D01*
X190634762Y-147582000D01*
X190730000Y-147534381D01*
X190825238Y-147534381D01*
X205764000Y-147629619D02*
X205811619Y-147582000D01*
X205906857Y-147534381D01*
X206144953Y-147534381D01*
X206240191Y-147582000D01*
X206287810Y-147629619D01*
X206335429Y-147724857D01*
X206335429Y-147820095D01*
X206287810Y-147962952D01*
X205716381Y-148534381D01*
X206335429Y-148534381D01*
X206716381Y-147629619D02*
X206764000Y-147582000D01*
X206859238Y-147534381D01*
X207097334Y-147534381D01*
X207192572Y-147582000D01*
X207240191Y-147629619D01*
X207287810Y-147724857D01*
X207287810Y-147820095D01*
X207240191Y-147962952D01*
X206668762Y-148534381D01*
X207287810Y-148534381D01*
X208144953Y-147867714D02*
X208144953Y-148534381D01*
X207716381Y-147867714D02*
X207716381Y-148391524D01*
X207764000Y-148486762D01*
X207859238Y-148534381D01*
X208002096Y-148534381D01*
X208097334Y-148486762D01*
X208144953Y-148439143D01*
X208478286Y-147867714D02*
X208859238Y-147867714D01*
X208621143Y-148534381D02*
X208621143Y-147677238D01*
X208668762Y-147582000D01*
X208764000Y-147534381D01*
X208859238Y-147534381D01*
X176808000Y-145089619D02*
X176855619Y-145042000D01*
X176950857Y-144994381D01*
X177188953Y-144994381D01*
X177284191Y-145042000D01*
X177331810Y-145089619D01*
X177379429Y-145184857D01*
X177379429Y-145280095D01*
X177331810Y-145422952D01*
X176760381Y-145994381D01*
X177379429Y-145994381D01*
X177760381Y-145089619D02*
X177808000Y-145042000D01*
X177903238Y-144994381D01*
X178141334Y-144994381D01*
X178236572Y-145042000D01*
X178284191Y-145089619D01*
X178331810Y-145184857D01*
X178331810Y-145280095D01*
X178284191Y-145422952D01*
X177712762Y-145994381D01*
X178331810Y-145994381D01*
X179188953Y-145327714D02*
X179188953Y-145994381D01*
X178760381Y-145327714D02*
X178760381Y-145851524D01*
X178808000Y-145946762D01*
X178903238Y-145994381D01*
X179046096Y-145994381D01*
X179141334Y-145946762D01*
X179188953Y-145899143D01*
X179522286Y-145327714D02*
X179903238Y-145327714D01*
X179665143Y-145994381D02*
X179665143Y-145137238D01*
X179712762Y-145042000D01*
X179808000Y-144994381D01*
X179903238Y-144994381D01*
X78510000Y-85812381D02*
X78605239Y-85812381D01*
X78700477Y-85860000D01*
X78748096Y-85907619D01*
X78795715Y-86002857D01*
X78843334Y-86193333D01*
X78843334Y-86431429D01*
X78795715Y-86621905D01*
X78748096Y-86717143D01*
X78700477Y-86764762D01*
X78605239Y-86812381D01*
X78510000Y-86812381D01*
X78414762Y-86764762D01*
X78367143Y-86717143D01*
X78319524Y-86621905D01*
X78271905Y-86431429D01*
X78271905Y-86193333D01*
X78319524Y-86002857D01*
X78367143Y-85907619D01*
X78414762Y-85860000D01*
X78510000Y-85812381D01*
X79271905Y-86717143D02*
X79319524Y-86764762D01*
X79271905Y-86812381D01*
X79224286Y-86764762D01*
X79271905Y-86717143D01*
X79271905Y-86812381D01*
X80271905Y-86812381D02*
X79700476Y-86812381D01*
X79986190Y-86812381D02*
X79986190Y-85812381D01*
X79890952Y-85955238D01*
X79795714Y-86050476D01*
X79700476Y-86098095D01*
X81129048Y-86145714D02*
X81129048Y-86812381D01*
X80700476Y-86145714D02*
X80700476Y-86669524D01*
X80748095Y-86764762D01*
X80843333Y-86812381D01*
X80986191Y-86812381D01*
X81081429Y-86764762D01*
X81129048Y-86717143D01*
X81462381Y-86145714D02*
X81843333Y-86145714D01*
X81605238Y-86812381D02*
X81605238Y-85955238D01*
X81652857Y-85860000D01*
X81748095Y-85812381D01*
X81843333Y-85812381D01*
X79018000Y-80732381D02*
X79113239Y-80732381D01*
X79208477Y-80780000D01*
X79256096Y-80827619D01*
X79303715Y-80922857D01*
X79351334Y-81113333D01*
X79351334Y-81351429D01*
X79303715Y-81541905D01*
X79256096Y-81637143D01*
X79208477Y-81684762D01*
X79113239Y-81732381D01*
X79018000Y-81732381D01*
X78922762Y-81684762D01*
X78875143Y-81637143D01*
X78827524Y-81541905D01*
X78779905Y-81351429D01*
X78779905Y-81113333D01*
X78827524Y-80922857D01*
X78875143Y-80827619D01*
X78922762Y-80780000D01*
X79018000Y-80732381D01*
X79779905Y-81637143D02*
X79827524Y-81684762D01*
X79779905Y-81732381D01*
X79732286Y-81684762D01*
X79779905Y-81637143D01*
X79779905Y-81732381D01*
X80779905Y-81732381D02*
X80208476Y-81732381D01*
X80494190Y-81732381D02*
X80494190Y-80732381D01*
X80398952Y-80875238D01*
X80303714Y-80970476D01*
X80208476Y-81018095D01*
X81637048Y-81065714D02*
X81637048Y-81732381D01*
X81208476Y-81065714D02*
X81208476Y-81589524D01*
X81256095Y-81684762D01*
X81351333Y-81732381D01*
X81494191Y-81732381D01*
X81589429Y-81684762D01*
X81637048Y-81637143D01*
X81970381Y-81065714D02*
X82351333Y-81065714D01*
X82113238Y-81732381D02*
X82113238Y-80875238D01*
X82160857Y-80780000D01*
X82256095Y-80732381D01*
X82351333Y-80732381D01*
X94956381Y-79478000D02*
X94956381Y-79382761D01*
X95004000Y-79287523D01*
X95051619Y-79239904D01*
X95146857Y-79192285D01*
X95337333Y-79144666D01*
X95575429Y-79144666D01*
X95765905Y-79192285D01*
X95861143Y-79239904D01*
X95908762Y-79287523D01*
X95956381Y-79382761D01*
X95956381Y-79478000D01*
X95908762Y-79573238D01*
X95861143Y-79620857D01*
X95765905Y-79668476D01*
X95575429Y-79716095D01*
X95337333Y-79716095D01*
X95146857Y-79668476D01*
X95051619Y-79620857D01*
X95004000Y-79573238D01*
X94956381Y-79478000D01*
X95861143Y-78716095D02*
X95908762Y-78668476D01*
X95956381Y-78716095D01*
X95908762Y-78763714D01*
X95861143Y-78716095D01*
X95956381Y-78716095D01*
X95956381Y-77716095D02*
X95956381Y-78287524D01*
X95956381Y-78001810D02*
X94956381Y-78001810D01*
X95099238Y-78097048D01*
X95194476Y-78192286D01*
X95242095Y-78287524D01*
X95289714Y-76858952D02*
X95956381Y-76858952D01*
X95289714Y-77287524D02*
X95813524Y-77287524D01*
X95908762Y-77239905D01*
X95956381Y-77144667D01*
X95956381Y-77001809D01*
X95908762Y-76906571D01*
X95861143Y-76858952D01*
X95289714Y-76525619D02*
X95289714Y-76144667D01*
X95956381Y-76382762D02*
X95099238Y-76382762D01*
X95004000Y-76335143D01*
X94956381Y-76239905D01*
X94956381Y-76144667D01*
X100798381Y-78208000D02*
X100798381Y-78112761D01*
X100846000Y-78017523D01*
X100893619Y-77969904D01*
X100988857Y-77922285D01*
X101179333Y-77874666D01*
X101417429Y-77874666D01*
X101607905Y-77922285D01*
X101703143Y-77969904D01*
X101750762Y-78017523D01*
X101798381Y-78112761D01*
X101798381Y-78208000D01*
X101750762Y-78303238D01*
X101703143Y-78350857D01*
X101607905Y-78398476D01*
X101417429Y-78446095D01*
X101179333Y-78446095D01*
X100988857Y-78398476D01*
X100893619Y-78350857D01*
X100846000Y-78303238D01*
X100798381Y-78208000D01*
X101703143Y-77446095D02*
X101750762Y-77398476D01*
X101798381Y-77446095D01*
X101750762Y-77493714D01*
X101703143Y-77446095D01*
X101798381Y-77446095D01*
X101798381Y-76446095D02*
X101798381Y-77017524D01*
X101798381Y-76731810D02*
X100798381Y-76731810D01*
X100941238Y-76827048D01*
X101036476Y-76922286D01*
X101084095Y-77017524D01*
X101131714Y-75588952D02*
X101798381Y-75588952D01*
X101131714Y-76017524D02*
X101655524Y-76017524D01*
X101750762Y-75969905D01*
X101798381Y-75874667D01*
X101798381Y-75731809D01*
X101750762Y-75636571D01*
X101703143Y-75588952D01*
X101131714Y-75255619D02*
X101131714Y-74874667D01*
X101798381Y-75112762D02*
X100941238Y-75112762D01*
X100846000Y-75065143D01*
X100798381Y-74969905D01*
X100798381Y-74874667D01*
X106704000Y-96226381D02*
X106799239Y-96226381D01*
X106894477Y-96274000D01*
X106942096Y-96321619D01*
X106989715Y-96416857D01*
X107037334Y-96607333D01*
X107037334Y-96845429D01*
X106989715Y-97035905D01*
X106942096Y-97131143D01*
X106894477Y-97178762D01*
X106799239Y-97226381D01*
X106704000Y-97226381D01*
X106608762Y-97178762D01*
X106561143Y-97131143D01*
X106513524Y-97035905D01*
X106465905Y-96845429D01*
X106465905Y-96607333D01*
X106513524Y-96416857D01*
X106561143Y-96321619D01*
X106608762Y-96274000D01*
X106704000Y-96226381D01*
X107465905Y-97131143D02*
X107513524Y-97178762D01*
X107465905Y-97226381D01*
X107418286Y-97178762D01*
X107465905Y-97131143D01*
X107465905Y-97226381D01*
X108465905Y-97226381D02*
X107894476Y-97226381D01*
X108180190Y-97226381D02*
X108180190Y-96226381D01*
X108084952Y-96369238D01*
X107989714Y-96464476D01*
X107894476Y-96512095D01*
X109323048Y-96559714D02*
X109323048Y-97226381D01*
X108894476Y-96559714D02*
X108894476Y-97083524D01*
X108942095Y-97178762D01*
X109037333Y-97226381D01*
X109180191Y-97226381D01*
X109275429Y-97178762D01*
X109323048Y-97131143D01*
X109656381Y-96559714D02*
X110037333Y-96559714D01*
X109799238Y-97226381D02*
X109799238Y-96369238D01*
X109846857Y-96274000D01*
X109942095Y-96226381D01*
X110037333Y-96226381D01*
X98258381Y-106402000D02*
X98258381Y-106306761D01*
X98306000Y-106211523D01*
X98353619Y-106163904D01*
X98448857Y-106116285D01*
X98639333Y-106068666D01*
X98877429Y-106068666D01*
X99067905Y-106116285D01*
X99163143Y-106163904D01*
X99210762Y-106211523D01*
X99258381Y-106306761D01*
X99258381Y-106402000D01*
X99210762Y-106497238D01*
X99163143Y-106544857D01*
X99067905Y-106592476D01*
X98877429Y-106640095D01*
X98639333Y-106640095D01*
X98448857Y-106592476D01*
X98353619Y-106544857D01*
X98306000Y-106497238D01*
X98258381Y-106402000D01*
X99163143Y-105640095D02*
X99210762Y-105592476D01*
X99258381Y-105640095D01*
X99210762Y-105687714D01*
X99163143Y-105640095D01*
X99258381Y-105640095D01*
X99258381Y-104640095D02*
X99258381Y-105211524D01*
X99258381Y-104925810D02*
X98258381Y-104925810D01*
X98401238Y-105021048D01*
X98496476Y-105116286D01*
X98544095Y-105211524D01*
X98591714Y-103782952D02*
X99258381Y-103782952D01*
X98591714Y-104211524D02*
X99115524Y-104211524D01*
X99210762Y-104163905D01*
X99258381Y-104068667D01*
X99258381Y-103925809D01*
X99210762Y-103830571D01*
X99163143Y-103782952D01*
X98591714Y-103449619D02*
X98591714Y-103068667D01*
X99258381Y-103306762D02*
X98401238Y-103306762D01*
X98306000Y-103259143D01*
X98258381Y-103163905D01*
X98258381Y-103068667D01*
X90638381Y-109196000D02*
X90638381Y-109100761D01*
X90686000Y-109005523D01*
X90733619Y-108957904D01*
X90828857Y-108910285D01*
X91019333Y-108862666D01*
X91257429Y-108862666D01*
X91447905Y-108910285D01*
X91543143Y-108957904D01*
X91590762Y-109005523D01*
X91638381Y-109100761D01*
X91638381Y-109196000D01*
X91590762Y-109291238D01*
X91543143Y-109338857D01*
X91447905Y-109386476D01*
X91257429Y-109434095D01*
X91019333Y-109434095D01*
X90828857Y-109386476D01*
X90733619Y-109338857D01*
X90686000Y-109291238D01*
X90638381Y-109196000D01*
X91543143Y-108434095D02*
X91590762Y-108386476D01*
X91638381Y-108434095D01*
X91590762Y-108481714D01*
X91543143Y-108434095D01*
X91638381Y-108434095D01*
X91638381Y-107434095D02*
X91638381Y-108005524D01*
X91638381Y-107719810D02*
X90638381Y-107719810D01*
X90781238Y-107815048D01*
X90876476Y-107910286D01*
X90924095Y-108005524D01*
X90971714Y-106576952D02*
X91638381Y-106576952D01*
X90971714Y-107005524D02*
X91495524Y-107005524D01*
X91590762Y-106957905D01*
X91638381Y-106862667D01*
X91638381Y-106719809D01*
X91590762Y-106624571D01*
X91543143Y-106576952D01*
X90971714Y-106243619D02*
X90971714Y-105862667D01*
X91638381Y-106100762D02*
X90781238Y-106100762D01*
X90686000Y-106053143D01*
X90638381Y-105957905D01*
X90638381Y-105862667D01*
X64286000Y-159726381D02*
X64381239Y-159726381D01*
X64476477Y-159774000D01*
X64524096Y-159821619D01*
X64571715Y-159916857D01*
X64619334Y-160107333D01*
X64619334Y-160345429D01*
X64571715Y-160535905D01*
X64524096Y-160631143D01*
X64476477Y-160678762D01*
X64381239Y-160726381D01*
X64286000Y-160726381D01*
X64190762Y-160678762D01*
X64143143Y-160631143D01*
X64095524Y-160535905D01*
X64047905Y-160345429D01*
X64047905Y-160107333D01*
X64095524Y-159916857D01*
X64143143Y-159821619D01*
X64190762Y-159774000D01*
X64286000Y-159726381D01*
X65047905Y-160631143D02*
X65095524Y-160678762D01*
X65047905Y-160726381D01*
X65000286Y-160678762D01*
X65047905Y-160631143D01*
X65047905Y-160726381D01*
X66047905Y-160726381D02*
X65476476Y-160726381D01*
X65762190Y-160726381D02*
X65762190Y-159726381D01*
X65666952Y-159869238D01*
X65571714Y-159964476D01*
X65476476Y-160012095D01*
X66905048Y-160059714D02*
X66905048Y-160726381D01*
X66476476Y-160059714D02*
X66476476Y-160583524D01*
X66524095Y-160678762D01*
X66619333Y-160726381D01*
X66762191Y-160726381D01*
X66857429Y-160678762D01*
X66905048Y-160631143D01*
X67238381Y-160059714D02*
X67619333Y-160059714D01*
X67381238Y-160726381D02*
X67381238Y-159869238D01*
X67428857Y-159774000D01*
X67524095Y-159726381D01*
X67619333Y-159726381D01*
X102068381Y-138914000D02*
X102068381Y-138818761D01*
X102116000Y-138723523D01*
X102163619Y-138675904D01*
X102258857Y-138628285D01*
X102449333Y-138580666D01*
X102687429Y-138580666D01*
X102877905Y-138628285D01*
X102973143Y-138675904D01*
X103020762Y-138723523D01*
X103068381Y-138818761D01*
X103068381Y-138914000D01*
X103020762Y-139009238D01*
X102973143Y-139056857D01*
X102877905Y-139104476D01*
X102687429Y-139152095D01*
X102449333Y-139152095D01*
X102258857Y-139104476D01*
X102163619Y-139056857D01*
X102116000Y-139009238D01*
X102068381Y-138914000D01*
X102973143Y-138152095D02*
X103020762Y-138104476D01*
X103068381Y-138152095D01*
X103020762Y-138199714D01*
X102973143Y-138152095D01*
X103068381Y-138152095D01*
X103068381Y-137152095D02*
X103068381Y-137723524D01*
X103068381Y-137437810D02*
X102068381Y-137437810D01*
X102211238Y-137533048D01*
X102306476Y-137628286D01*
X102354095Y-137723524D01*
X102401714Y-136294952D02*
X103068381Y-136294952D01*
X102401714Y-136723524D02*
X102925524Y-136723524D01*
X103020762Y-136675905D01*
X103068381Y-136580667D01*
X103068381Y-136437809D01*
X103020762Y-136342571D01*
X102973143Y-136294952D01*
X102401714Y-135961619D02*
X102401714Y-135580667D01*
X103068381Y-135818762D02*
X102211238Y-135818762D01*
X102116000Y-135771143D01*
X102068381Y-135675905D01*
X102068381Y-135580667D01*
X114768381Y-138152000D02*
X114768381Y-138056761D01*
X114816000Y-137961523D01*
X114863619Y-137913904D01*
X114958857Y-137866285D01*
X115149333Y-137818666D01*
X115387429Y-137818666D01*
X115577905Y-137866285D01*
X115673143Y-137913904D01*
X115720762Y-137961523D01*
X115768381Y-138056761D01*
X115768381Y-138152000D01*
X115720762Y-138247238D01*
X115673143Y-138294857D01*
X115577905Y-138342476D01*
X115387429Y-138390095D01*
X115149333Y-138390095D01*
X114958857Y-138342476D01*
X114863619Y-138294857D01*
X114816000Y-138247238D01*
X114768381Y-138152000D01*
X115673143Y-137390095D02*
X115720762Y-137342476D01*
X115768381Y-137390095D01*
X115720762Y-137437714D01*
X115673143Y-137390095D01*
X115768381Y-137390095D01*
X115768381Y-136390095D02*
X115768381Y-136961524D01*
X115768381Y-136675810D02*
X114768381Y-136675810D01*
X114911238Y-136771048D01*
X115006476Y-136866286D01*
X115054095Y-136961524D01*
X115101714Y-135532952D02*
X115768381Y-135532952D01*
X115101714Y-135961524D02*
X115625524Y-135961524D01*
X115720762Y-135913905D01*
X115768381Y-135818667D01*
X115768381Y-135675809D01*
X115720762Y-135580571D01*
X115673143Y-135532952D01*
X115101714Y-135199619D02*
X115101714Y-134818667D01*
X115768381Y-135056762D02*
X114911238Y-135056762D01*
X114816000Y-135009143D01*
X114768381Y-134913905D01*
X114768381Y-134818667D01*
X127722381Y-138152000D02*
X127722381Y-138056761D01*
X127770000Y-137961523D01*
X127817619Y-137913904D01*
X127912857Y-137866285D01*
X128103333Y-137818666D01*
X128341429Y-137818666D01*
X128531905Y-137866285D01*
X128627143Y-137913904D01*
X128674762Y-137961523D01*
X128722381Y-138056761D01*
X128722381Y-138152000D01*
X128674762Y-138247238D01*
X128627143Y-138294857D01*
X128531905Y-138342476D01*
X128341429Y-138390095D01*
X128103333Y-138390095D01*
X127912857Y-138342476D01*
X127817619Y-138294857D01*
X127770000Y-138247238D01*
X127722381Y-138152000D01*
X128627143Y-137390095D02*
X128674762Y-137342476D01*
X128722381Y-137390095D01*
X128674762Y-137437714D01*
X128627143Y-137390095D01*
X128722381Y-137390095D01*
X128722381Y-136390095D02*
X128722381Y-136961524D01*
X128722381Y-136675810D02*
X127722381Y-136675810D01*
X127865238Y-136771048D01*
X127960476Y-136866286D01*
X128008095Y-136961524D01*
X128055714Y-135532952D02*
X128722381Y-135532952D01*
X128055714Y-135961524D02*
X128579524Y-135961524D01*
X128674762Y-135913905D01*
X128722381Y-135818667D01*
X128722381Y-135675809D01*
X128674762Y-135580571D01*
X128627143Y-135532952D01*
X128055714Y-135199619D02*
X128055714Y-134818667D01*
X128722381Y-135056762D02*
X127865238Y-135056762D01*
X127770000Y-135009143D01*
X127722381Y-134913905D01*
X127722381Y-134818667D01*
X149122000Y-138644381D02*
X149217239Y-138644381D01*
X149312477Y-138692000D01*
X149360096Y-138739619D01*
X149407715Y-138834857D01*
X149455334Y-139025333D01*
X149455334Y-139263429D01*
X149407715Y-139453905D01*
X149360096Y-139549143D01*
X149312477Y-139596762D01*
X149217239Y-139644381D01*
X149122000Y-139644381D01*
X149026762Y-139596762D01*
X148979143Y-139549143D01*
X148931524Y-139453905D01*
X148883905Y-139263429D01*
X148883905Y-139025333D01*
X148931524Y-138834857D01*
X148979143Y-138739619D01*
X149026762Y-138692000D01*
X149122000Y-138644381D01*
X149883905Y-139549143D02*
X149931524Y-139596762D01*
X149883905Y-139644381D01*
X149836286Y-139596762D01*
X149883905Y-139549143D01*
X149883905Y-139644381D01*
X150883905Y-139644381D02*
X150312476Y-139644381D01*
X150598190Y-139644381D02*
X150598190Y-138644381D01*
X150502952Y-138787238D01*
X150407714Y-138882476D01*
X150312476Y-138930095D01*
X151741048Y-138977714D02*
X151741048Y-139644381D01*
X151312476Y-138977714D02*
X151312476Y-139501524D01*
X151360095Y-139596762D01*
X151455333Y-139644381D01*
X151598191Y-139644381D01*
X151693429Y-139596762D01*
X151741048Y-139549143D01*
X152074381Y-138977714D02*
X152455333Y-138977714D01*
X152217238Y-139644381D02*
X152217238Y-138787238D01*
X152264857Y-138692000D01*
X152360095Y-138644381D01*
X152455333Y-138644381D01*
X53324286Y-152868381D02*
X53943334Y-152868381D01*
X53610000Y-153249333D01*
X53752858Y-153249333D01*
X53848096Y-153296952D01*
X53895715Y-153344571D01*
X53943334Y-153439810D01*
X53943334Y-153677905D01*
X53895715Y-153773143D01*
X53848096Y-153820762D01*
X53752858Y-153868381D01*
X53467143Y-153868381D01*
X53371905Y-153820762D01*
X53324286Y-153773143D01*
X54276667Y-152868381D02*
X54895715Y-152868381D01*
X54562381Y-153249333D01*
X54705239Y-153249333D01*
X54800477Y-153296952D01*
X54848096Y-153344571D01*
X54895715Y-153439810D01*
X54895715Y-153677905D01*
X54848096Y-153773143D01*
X54800477Y-153820762D01*
X54705239Y-153868381D01*
X54419524Y-153868381D01*
X54324286Y-153820762D01*
X54276667Y-153773143D01*
X55514762Y-152868381D02*
X55610001Y-152868381D01*
X55705239Y-152916000D01*
X55752858Y-152963619D01*
X55800477Y-153058857D01*
X55848096Y-153249333D01*
X55848096Y-153487429D01*
X55800477Y-153677905D01*
X55752858Y-153773143D01*
X55705239Y-153820762D01*
X55610001Y-153868381D01*
X55514762Y-153868381D01*
X55419524Y-153820762D01*
X55371905Y-153773143D01*
X55324286Y-153677905D01*
X55276667Y-153487429D01*
X55276667Y-153249333D01*
X55324286Y-153058857D01*
X55371905Y-152963619D01*
X55419524Y-152916000D01*
X55514762Y-152868381D01*
X86447429Y-156503714D02*
X86447429Y-157170381D01*
X86209333Y-156122762D02*
X85971238Y-156837048D01*
X86590286Y-156837048D01*
X86971238Y-157075143D02*
X87018857Y-157122762D01*
X86971238Y-157170381D01*
X86923619Y-157122762D01*
X86971238Y-157075143D01*
X86971238Y-157170381D01*
X87352190Y-156170381D02*
X88018857Y-156170381D01*
X87590285Y-157170381D01*
X88399809Y-157170381D02*
X88399809Y-156170381D01*
X88495047Y-156789429D02*
X88780762Y-157170381D01*
X88780762Y-156503714D02*
X88399809Y-156884667D01*
X86447429Y-153455714D02*
X86447429Y-154122381D01*
X86209333Y-153074762D02*
X85971238Y-153789048D01*
X86590286Y-153789048D01*
X86971238Y-154027143D02*
X87018857Y-154074762D01*
X86971238Y-154122381D01*
X86923619Y-154074762D01*
X86971238Y-154027143D01*
X86971238Y-154122381D01*
X87352190Y-153122381D02*
X88018857Y-153122381D01*
X87590285Y-154122381D01*
X88399809Y-154122381D02*
X88399809Y-153122381D01*
X88495047Y-153741429D02*
X88780762Y-154122381D01*
X88780762Y-153455714D02*
X88399809Y-153836667D01*
X122880381Y-139311047D02*
X122880381Y-139882476D01*
X122880381Y-139596762D02*
X121880381Y-139596762D01*
X122023238Y-139692000D01*
X122118476Y-139787238D01*
X122166095Y-139882476D01*
X122880381Y-138882476D02*
X121880381Y-138882476D01*
X122499429Y-138787238D02*
X122880381Y-138501523D01*
X122213714Y-138501523D02*
X122594667Y-138882476D01*
X92844953Y-140660381D02*
X92273524Y-140660381D01*
X92559238Y-140660381D02*
X92559238Y-139660381D01*
X92464000Y-139803238D01*
X92368762Y-139898476D01*
X92273524Y-139946095D01*
X93273524Y-140660381D02*
X93273524Y-139660381D01*
X93368762Y-140279429D02*
X93654477Y-140660381D01*
X93654477Y-139993714D02*
X93273524Y-140374667D01*
X92590953Y-136088381D02*
X92019524Y-136088381D01*
X92305238Y-136088381D02*
X92305238Y-135088381D01*
X92210000Y-135231238D01*
X92114762Y-135326476D01*
X92019524Y-135374095D01*
X93019524Y-136088381D02*
X93019524Y-135088381D01*
X93114762Y-135707429D02*
X93400477Y-136088381D01*
X93400477Y-135421714D02*
X93019524Y-135802667D01*
X44838953Y-144470381D02*
X44267524Y-144470381D01*
X44553238Y-144470381D02*
X44553238Y-143470381D01*
X44458000Y-143613238D01*
X44362762Y-143708476D01*
X44267524Y-143756095D01*
X45267524Y-144470381D02*
X45267524Y-143470381D01*
X45362762Y-144089429D02*
X45648477Y-144470381D01*
X45648477Y-143803714D02*
X45267524Y-144184667D01*
X109418381Y-139565047D02*
X109418381Y-140136476D01*
X109418381Y-139850762D02*
X108418381Y-139850762D01*
X108561238Y-139946000D01*
X108656476Y-140041238D01*
X108704095Y-140136476D01*
X109418381Y-139136476D02*
X108418381Y-139136476D01*
X109037429Y-139041238D02*
X109418381Y-138755523D01*
X108751714Y-138755523D02*
X109132667Y-139136476D01*
X50490381Y-77335047D02*
X50490381Y-77906476D01*
X50490381Y-77620762D02*
X49490381Y-77620762D01*
X49633238Y-77716000D01*
X49728476Y-77811238D01*
X49776095Y-77906476D01*
X50490381Y-76906476D02*
X49490381Y-76906476D01*
X50109429Y-76811238D02*
X50490381Y-76525523D01*
X49823714Y-76525523D02*
X50204667Y-76906476D01*
X68746762Y-63952381D02*
X68175333Y-63952381D01*
X68461047Y-63952381D02*
X68461047Y-62952381D01*
X68365809Y-63095238D01*
X68270571Y-63190476D01*
X68175333Y-63238095D01*
X69365809Y-62952381D02*
X69461048Y-62952381D01*
X69556286Y-63000000D01*
X69603905Y-63047619D01*
X69651524Y-63142857D01*
X69699143Y-63333333D01*
X69699143Y-63571429D01*
X69651524Y-63761905D01*
X69603905Y-63857143D01*
X69556286Y-63904762D01*
X69461048Y-63952381D01*
X69365809Y-63952381D01*
X69270571Y-63904762D01*
X69222952Y-63857143D01*
X69175333Y-63761905D01*
X69127714Y-63571429D01*
X69127714Y-63333333D01*
X69175333Y-63142857D01*
X69222952Y-63047619D01*
X69270571Y-63000000D01*
X69365809Y-62952381D01*
X70127714Y-63952381D02*
X70127714Y-62952381D01*
X70222952Y-63571429D02*
X70508667Y-63952381D01*
X70508667Y-63285714D02*
X70127714Y-63666667D01*
X68746762Y-61158381D02*
X68175333Y-61158381D01*
X68461047Y-61158381D02*
X68461047Y-60158381D01*
X68365809Y-60301238D01*
X68270571Y-60396476D01*
X68175333Y-60444095D01*
X69365809Y-60158381D02*
X69461048Y-60158381D01*
X69556286Y-60206000D01*
X69603905Y-60253619D01*
X69651524Y-60348857D01*
X69699143Y-60539333D01*
X69699143Y-60777429D01*
X69651524Y-60967905D01*
X69603905Y-61063143D01*
X69556286Y-61110762D01*
X69461048Y-61158381D01*
X69365809Y-61158381D01*
X69270571Y-61110762D01*
X69222952Y-61063143D01*
X69175333Y-60967905D01*
X69127714Y-60777429D01*
X69127714Y-60539333D01*
X69175333Y-60348857D01*
X69222952Y-60253619D01*
X69270571Y-60206000D01*
X69365809Y-60158381D01*
X70127714Y-61158381D02*
X70127714Y-60158381D01*
X70222952Y-60777429D02*
X70508667Y-61158381D01*
X70508667Y-60491714D02*
X70127714Y-60872667D01*
X68746762Y-66746381D02*
X68175333Y-66746381D01*
X68461047Y-66746381D02*
X68461047Y-65746381D01*
X68365809Y-65889238D01*
X68270571Y-65984476D01*
X68175333Y-66032095D01*
X69365809Y-65746381D02*
X69461048Y-65746381D01*
X69556286Y-65794000D01*
X69603905Y-65841619D01*
X69651524Y-65936857D01*
X69699143Y-66127333D01*
X69699143Y-66365429D01*
X69651524Y-66555905D01*
X69603905Y-66651143D01*
X69556286Y-66698762D01*
X69461048Y-66746381D01*
X69365809Y-66746381D01*
X69270571Y-66698762D01*
X69222952Y-66651143D01*
X69175333Y-66555905D01*
X69127714Y-66365429D01*
X69127714Y-66127333D01*
X69175333Y-65936857D01*
X69222952Y-65841619D01*
X69270571Y-65794000D01*
X69365809Y-65746381D01*
X70127714Y-66746381D02*
X70127714Y-65746381D01*
X70222952Y-66365429D02*
X70508667Y-66746381D01*
X70508667Y-66079714D02*
X70127714Y-66460667D01*
D11*
X88332571Y-93570857D02*
X89832571Y-92570857D01*
X88332571Y-92570857D02*
X89832571Y-93570857D01*
X89832571Y-91999429D02*
X88832571Y-91999429D01*
X88332571Y-91999429D02*
X88404000Y-92070858D01*
X88475429Y-91999429D01*
X88404000Y-91928001D01*
X88332571Y-91999429D01*
X88475429Y-91999429D01*
X89832571Y-91070857D02*
X89761143Y-91213715D01*
X89618286Y-91285143D01*
X88332571Y-91285143D01*
X89832571Y-90499429D02*
X88832571Y-90499429D01*
X88332571Y-90499429D02*
X88404000Y-90570858D01*
X88475429Y-90499429D01*
X88404000Y-90428001D01*
X88332571Y-90499429D01*
X88475429Y-90499429D01*
X88832571Y-89785143D02*
X89832571Y-89785143D01*
X88975429Y-89785143D02*
X88904000Y-89713715D01*
X88832571Y-89570857D01*
X88832571Y-89356572D01*
X88904000Y-89213715D01*
X89046857Y-89142286D01*
X89832571Y-89142286D01*
X89832571Y-88570857D02*
X88832571Y-87785143D01*
X88832571Y-88570857D02*
X89832571Y-87785143D01*
D14*
X66306000Y-157646000D02*
X65306000Y-157646000D01*
X65306000Y-159346000D02*
X66306000Y-159346000D01*
X64020000Y-98464000D02*
X63020000Y-98464000D01*
X63020000Y-100164000D02*
X64020000Y-100164000D01*
X105244000Y-137934000D02*
X105244000Y-136934000D01*
X103544000Y-136934000D02*
X103544000Y-137934000D01*
X130898000Y-138442000D02*
X130898000Y-137442000D01*
X129198000Y-137442000D02*
X129198000Y-138442000D01*
X92876000Y-77498000D02*
X92876000Y-78498000D01*
X94576000Y-78498000D02*
X94576000Y-77498000D01*
X81562000Y-83908000D02*
X82562000Y-83908000D01*
X82562000Y-82208000D02*
X81562000Y-82208000D01*
X93814000Y-105676000D02*
X93814000Y-104676000D01*
X92114000Y-104676000D02*
X92114000Y-105676000D01*
X117944000Y-138422000D02*
X117944000Y-137422000D01*
X116244000Y-137422000D02*
X116244000Y-138422000D01*
X101434000Y-105382000D02*
X101434000Y-104382000D01*
X99734000Y-104382000D02*
X99734000Y-105382000D01*
X108684000Y-94146000D02*
X107684000Y-94146000D01*
X107684000Y-95846000D02*
X108684000Y-95846000D01*
X98718000Y-77478000D02*
X98718000Y-78478000D01*
X100418000Y-78478000D02*
X100418000Y-77478000D01*
X81542000Y-88988000D02*
X82542000Y-88988000D01*
X82542000Y-87288000D02*
X81542000Y-87288000D01*
X146742643Y-138209519D02*
X145742643Y-138209519D01*
X145742643Y-139909519D02*
X146742643Y-139909519D01*
X198286000Y-146332000D02*
X198286000Y-147332000D01*
X199986000Y-147332000D02*
X199986000Y-146332000D01*
X184646000Y-148932000D02*
X185646000Y-148932000D01*
X185646000Y-147232000D02*
X184646000Y-147232000D01*
X203466000Y-147232000D02*
X202466000Y-147232000D01*
X202466000Y-148932000D02*
X203466000Y-148932000D01*
X183146000Y-144692000D02*
X182146000Y-144692000D01*
X182146000Y-146392000D02*
X183146000Y-146392000D01*
X52130000Y-81474000D02*
X46930000Y-81474000D01*
X52130000Y-89154000D02*
X52130000Y-81474000D01*
X46930000Y-91754000D02*
X46930000Y-81474000D01*
X52130000Y-89154000D02*
X49530000Y-89154000D01*
X49530000Y-89154000D02*
X49530000Y-91754000D01*
X49530000Y-91754000D02*
X46930000Y-91754000D01*
X52130000Y-90424000D02*
X52130000Y-91754000D01*
X52130000Y-91754000D02*
X50800000Y-91754000D01*
X40448608Y-155596335D02*
G75*
G03X40605516Y-152364000I-1078608J1672335D01*
G01*
X38291392Y-155596335D02*
G75*
G02X38134484Y-152364000I1078608J1672335D01*
G01*
X40449837Y-154965130D02*
G75*
G03X40450000Y-152883039I-1079837J1041130D01*
G01*
X38290163Y-154965130D02*
G75*
G02X38290000Y-152883039I1079837J1041130D01*
G01*
X40606000Y-152364000D02*
X40450000Y-152364000D01*
X38290000Y-152364000D02*
X38134000Y-152364000D01*
X59750000Y-66608000D02*
X59750000Y-61408000D01*
X49530000Y-66608000D02*
X59750000Y-66608000D01*
X46930000Y-61408000D02*
X59750000Y-61408000D01*
X49530000Y-66608000D02*
X49530000Y-64008000D01*
X49530000Y-64008000D02*
X46930000Y-64008000D01*
X46930000Y-64008000D02*
X46930000Y-61408000D01*
X48260000Y-66608000D02*
X46930000Y-66608000D01*
X46930000Y-66608000D02*
X46930000Y-65278000D01*
X48274000Y-154996000D02*
X48274000Y-154066000D01*
X48274000Y-151836000D02*
X48274000Y-152766000D01*
X48274000Y-151836000D02*
X46114000Y-151836000D01*
X48274000Y-154996000D02*
X46814000Y-154996000D01*
X96946000Y-141088000D02*
X95746000Y-141088000D01*
X95746000Y-139328000D02*
X96946000Y-139328000D01*
X123326000Y-139712000D02*
X123326000Y-138512000D01*
X125086000Y-138512000D02*
X125086000Y-139712000D01*
X109864000Y-140126000D02*
X109864000Y-138926000D01*
X111624000Y-138926000D02*
X111624000Y-140126000D01*
X49140000Y-76536000D02*
X49140000Y-77736000D01*
X47380000Y-77736000D02*
X47380000Y-76536000D01*
X44278000Y-144916000D02*
X45478000Y-144916000D01*
X45478000Y-146676000D02*
X44278000Y-146676000D01*
X53930000Y-154314000D02*
X55130000Y-154314000D01*
X55130000Y-156074000D02*
X53930000Y-156074000D01*
X65958000Y-67174000D02*
X64758000Y-67174000D01*
X64758000Y-65414000D02*
X65958000Y-65414000D01*
X65958000Y-64380000D02*
X64758000Y-64380000D01*
X64758000Y-62620000D02*
X65958000Y-62620000D01*
X65958000Y-61586000D02*
X64758000Y-61586000D01*
X64758000Y-59826000D02*
X65958000Y-59826000D01*
X248606000Y-92008000D02*
X253806000Y-92008000D01*
X248606000Y-81788000D02*
X248606000Y-92008000D01*
X253806000Y-79188000D02*
X253806000Y-92008000D01*
X248606000Y-81788000D02*
X251206000Y-81788000D01*
X251206000Y-81788000D02*
X251206000Y-79188000D01*
X251206000Y-79188000D02*
X253806000Y-79188000D01*
X248606000Y-80518000D02*
X248606000Y-79188000D01*
X248606000Y-79188000D02*
X249936000Y-79188000D01*
X60690000Y-101794000D02*
G75*
G02X58690000Y-101794000I-1000000J0D01*
G01*
X58690000Y-101794000D02*
X53230000Y-101794000D01*
X53230000Y-101794000D02*
X53230000Y-137474000D01*
X53230000Y-137474000D02*
X66150000Y-137474000D01*
X66150000Y-137474000D02*
X66150000Y-101794000D01*
X66150000Y-101794000D02*
X60690000Y-101794000D01*
X50740000Y-101734000D02*
X50740000Y-137534000D01*
X50740000Y-137534000D02*
X68640000Y-137534000D01*
X68640000Y-137534000D02*
X68640000Y-101734000D01*
X68640000Y-101734000D02*
X50740000Y-101734000D01*
D10*
X103505000Y-149225000D02*
X103505000Y-141605000D01*
X99949000Y-141605000D02*
X99949000Y-149225000D01*
X103505000Y-149225000D02*
X99949000Y-149225000D01*
X99949000Y-141605000D02*
X103505000Y-141605000D01*
X100816210Y-142113000D02*
G75*
G03X100816210Y-142113000I-359210J0D01*
G01*
X102362000Y-141605000D02*
X102362000Y-142367000D01*
X102362000Y-142367000D02*
X101092000Y-142367000D01*
X101092000Y-142367000D02*
X101092000Y-141605000D01*
X130818867Y-148998125D02*
X130818867Y-141378125D01*
X127262867Y-141378125D02*
X127262867Y-148998125D01*
X130818867Y-148998125D02*
X127262867Y-148998125D01*
X127262867Y-141378125D02*
X130818867Y-141378125D01*
X128130077Y-141886125D02*
G75*
G03X128130077Y-141886125I-359210J0D01*
G01*
X129675867Y-141378125D02*
X129675867Y-142140125D01*
X129675867Y-142140125D02*
X128405867Y-142140125D01*
X128405867Y-142140125D02*
X128405867Y-141378125D01*
X117475000Y-149225000D02*
X117475000Y-141605000D01*
X113919000Y-141605000D02*
X113919000Y-149225000D01*
X117475000Y-149225000D02*
X113919000Y-149225000D01*
X113919000Y-141605000D02*
X117475000Y-141605000D01*
X114786210Y-142113000D02*
G75*
G03X114786210Y-142113000I-359210J0D01*
G01*
X116332000Y-141605000D02*
X116332000Y-142367000D01*
X116332000Y-142367000D02*
X115062000Y-142367000D01*
X115062000Y-142367000D02*
X115062000Y-141605000D01*
X100829000Y-98281000D02*
X100829000Y-97556000D01*
X86479000Y-98281000D02*
X86479000Y-97481000D01*
X86479000Y-83931000D02*
X86479000Y-84731000D01*
X100829000Y-83931000D02*
X100829000Y-84731000D01*
X100829000Y-98281000D02*
X100029000Y-98281000D01*
X100829000Y-83931000D02*
X100029000Y-83931000D01*
X86479000Y-83931000D02*
X87279000Y-83931000D01*
X86479000Y-98281000D02*
X87279000Y-98281000D01*
X100829000Y-97556000D02*
X102104000Y-97556000D01*
X146603643Y-148838519D02*
X146603643Y-141218519D01*
X143047643Y-141218519D02*
X143047643Y-148838519D01*
X146603643Y-148838519D02*
X143047643Y-148838519D01*
X143047643Y-141218519D02*
X146603643Y-141218519D01*
X143914853Y-141726519D02*
G75*
G03X143914853Y-141726519I-359210J0D01*
G01*
X145460643Y-141218519D02*
X145460643Y-141980519D01*
X145460643Y-141980519D02*
X144190643Y-141980519D01*
X144190643Y-141980519D02*
X144190643Y-141218519D01*
X76212000Y-153668000D02*
X71812000Y-153668000D01*
X77787000Y-159193000D02*
X71812000Y-159193000D01*
D14*
X95586000Y-134756000D02*
X96786000Y-134756000D01*
X96786000Y-136516000D02*
X95586000Y-136516000D01*
X180486000Y-156952000D02*
X181746000Y-156952000D01*
X187306000Y-156952000D02*
X186046000Y-156952000D01*
X180486000Y-153192000D02*
X180486000Y-156952000D01*
X187306000Y-150942000D02*
X187306000Y-156952000D01*
X198266000Y-157002000D02*
X199526000Y-157002000D01*
X205086000Y-157002000D02*
X203826000Y-157002000D01*
X198266000Y-153242000D02*
X198266000Y-157002000D01*
X205086000Y-150992000D02*
X205086000Y-157002000D01*
X243828000Y-85988000D02*
X245028000Y-85988000D01*
X245028000Y-87748000D02*
X243828000Y-87748000D01*
X84704000Y-148718000D02*
X88524000Y-148718000D01*
X88524000Y-148718000D02*
X88524000Y-146938000D01*
X88524000Y-146938000D02*
X84704000Y-146938000D01*
X84704000Y-148718000D02*
X84704000Y-146938000D01*
X84704000Y-144908000D02*
X88524000Y-144908000D01*
X88524000Y-144908000D02*
X88524000Y-143128000D01*
X88524000Y-143128000D02*
X84704000Y-143128000D01*
X84704000Y-144908000D02*
X84704000Y-143128000D01*
X86094000Y-135010000D02*
X87294000Y-135010000D01*
X87294000Y-136770000D02*
X86094000Y-136770000D01*
X85934000Y-138566000D02*
X87134000Y-138566000D01*
X87134000Y-140326000D02*
X85934000Y-140326000D01*
D10*
X136842667Y-74992381D02*
X136509333Y-74516190D01*
X136271238Y-74992381D02*
X136271238Y-73992381D01*
X136652191Y-73992381D01*
X136747429Y-74040000D01*
X136795048Y-74087619D01*
X136842667Y-74182857D01*
X136842667Y-74325714D01*
X136795048Y-74420952D01*
X136747429Y-74468571D01*
X136652191Y-74516190D01*
X136271238Y-74516190D01*
X137271238Y-74468571D02*
X137604572Y-74468571D01*
X137747429Y-74992381D02*
X137271238Y-74992381D01*
X137271238Y-73992381D01*
X137747429Y-73992381D01*
X138509334Y-74468571D02*
X138176000Y-74468571D01*
X138176000Y-74992381D02*
X138176000Y-73992381D01*
X138652191Y-73992381D01*
X139176000Y-73992381D02*
X139176000Y-74230476D01*
X138937905Y-74135238D02*
X139176000Y-74230476D01*
X139414096Y-74135238D01*
X139033143Y-74420952D02*
X139176000Y-74230476D01*
X139318858Y-74420952D01*
X139937905Y-73992381D02*
X139937905Y-74230476D01*
X139699810Y-74135238D02*
X139937905Y-74230476D01*
X140176001Y-74135238D01*
X139795048Y-74420952D02*
X139937905Y-74230476D01*
X140080763Y-74420952D01*
X194754667Y-74992381D02*
X194421333Y-74516190D01*
X194183238Y-74992381D02*
X194183238Y-73992381D01*
X194564191Y-73992381D01*
X194659429Y-74040000D01*
X194707048Y-74087619D01*
X194754667Y-74182857D01*
X194754667Y-74325714D01*
X194707048Y-74420952D01*
X194659429Y-74468571D01*
X194564191Y-74516190D01*
X194183238Y-74516190D01*
X195183238Y-74468571D02*
X195516572Y-74468571D01*
X195659429Y-74992381D02*
X195183238Y-74992381D01*
X195183238Y-73992381D01*
X195659429Y-73992381D01*
X196421334Y-74468571D02*
X196088000Y-74468571D01*
X196088000Y-74992381D02*
X196088000Y-73992381D01*
X196564191Y-73992381D01*
X197088000Y-73992381D02*
X197088000Y-74230476D01*
X196849905Y-74135238D02*
X197088000Y-74230476D01*
X197326096Y-74135238D01*
X196945143Y-74420952D02*
X197088000Y-74230476D01*
X197230858Y-74420952D01*
X197849905Y-73992381D02*
X197849905Y-74230476D01*
X197611810Y-74135238D02*
X197849905Y-74230476D01*
X198088001Y-74135238D01*
X197707048Y-74420952D02*
X197849905Y-74230476D01*
X197992763Y-74420952D01*
X136842667Y-26224381D02*
X136509333Y-25748190D01*
X136271238Y-26224381D02*
X136271238Y-25224381D01*
X136652191Y-25224381D01*
X136747429Y-25272000D01*
X136795048Y-25319619D01*
X136842667Y-25414857D01*
X136842667Y-25557714D01*
X136795048Y-25652952D01*
X136747429Y-25700571D01*
X136652191Y-25748190D01*
X136271238Y-25748190D01*
X137271238Y-25700571D02*
X137604572Y-25700571D01*
X137747429Y-26224381D02*
X137271238Y-26224381D01*
X137271238Y-25224381D01*
X137747429Y-25224381D01*
X138509334Y-25700571D02*
X138176000Y-25700571D01*
X138176000Y-26224381D02*
X138176000Y-25224381D01*
X138652191Y-25224381D01*
X139176000Y-25224381D02*
X139176000Y-25462476D01*
X138937905Y-25367238D02*
X139176000Y-25462476D01*
X139414096Y-25367238D01*
X139033143Y-25652952D02*
X139176000Y-25462476D01*
X139318858Y-25652952D01*
X139937905Y-25224381D02*
X139937905Y-25462476D01*
X139699810Y-25367238D02*
X139937905Y-25462476D01*
X140176001Y-25367238D01*
X139795048Y-25652952D02*
X139937905Y-25462476D01*
X140080763Y-25652952D01*
X65639334Y-157103143D02*
X65591715Y-157150762D01*
X65448858Y-157198381D01*
X65353620Y-157198381D01*
X65210762Y-157150762D01*
X65115524Y-157055524D01*
X65067905Y-156960286D01*
X65020286Y-156769810D01*
X65020286Y-156626952D01*
X65067905Y-156436476D01*
X65115524Y-156341238D01*
X65210762Y-156246000D01*
X65353620Y-156198381D01*
X65448858Y-156198381D01*
X65591715Y-156246000D01*
X65639334Y-156293619D01*
X66591715Y-157198381D02*
X66020286Y-157198381D01*
X66306000Y-157198381D02*
X66306000Y-156198381D01*
X66210762Y-156341238D01*
X66115524Y-156436476D01*
X66020286Y-156484095D01*
X63353334Y-97921143D02*
X63305715Y-97968762D01*
X63162858Y-98016381D01*
X63067620Y-98016381D01*
X62924762Y-97968762D01*
X62829524Y-97873524D01*
X62781905Y-97778286D01*
X62734286Y-97587810D01*
X62734286Y-97444952D01*
X62781905Y-97254476D01*
X62829524Y-97159238D01*
X62924762Y-97064000D01*
X63067620Y-97016381D01*
X63162858Y-97016381D01*
X63305715Y-97064000D01*
X63353334Y-97111619D01*
X63734286Y-97111619D02*
X63781905Y-97064000D01*
X63877143Y-97016381D01*
X64115239Y-97016381D01*
X64210477Y-97064000D01*
X64258096Y-97111619D01*
X64305715Y-97206857D01*
X64305715Y-97302095D01*
X64258096Y-97444952D01*
X63686667Y-98016381D01*
X64305715Y-98016381D01*
X106501143Y-137600666D02*
X106548762Y-137648285D01*
X106596381Y-137791142D01*
X106596381Y-137886380D01*
X106548762Y-138029238D01*
X106453524Y-138124476D01*
X106358286Y-138172095D01*
X106167810Y-138219714D01*
X106024952Y-138219714D01*
X105834476Y-138172095D01*
X105739238Y-138124476D01*
X105644000Y-138029238D01*
X105596381Y-137886380D01*
X105596381Y-137791142D01*
X105644000Y-137648285D01*
X105691619Y-137600666D01*
X105596381Y-137267333D02*
X105596381Y-136648285D01*
X105977333Y-136981619D01*
X105977333Y-136838761D01*
X106024952Y-136743523D01*
X106072571Y-136695904D01*
X106167810Y-136648285D01*
X106405905Y-136648285D01*
X106501143Y-136695904D01*
X106548762Y-136743523D01*
X106596381Y-136838761D01*
X106596381Y-137124476D01*
X106548762Y-137219714D01*
X106501143Y-137267333D01*
X132155143Y-138108666D02*
X132202762Y-138156285D01*
X132250381Y-138299142D01*
X132250381Y-138394380D01*
X132202762Y-138537238D01*
X132107524Y-138632476D01*
X132012286Y-138680095D01*
X131821810Y-138727714D01*
X131678952Y-138727714D01*
X131488476Y-138680095D01*
X131393238Y-138632476D01*
X131298000Y-138537238D01*
X131250381Y-138394380D01*
X131250381Y-138299142D01*
X131298000Y-138156285D01*
X131345619Y-138108666D01*
X131583714Y-137251523D02*
X132250381Y-137251523D01*
X131202762Y-137489619D02*
X131917048Y-137727714D01*
X131917048Y-137108666D01*
X92305143Y-76874666D02*
X92352762Y-76922285D01*
X92400381Y-77065142D01*
X92400381Y-77160380D01*
X92352762Y-77303238D01*
X92257524Y-77398476D01*
X92162286Y-77446095D01*
X91971810Y-77493714D01*
X91828952Y-77493714D01*
X91638476Y-77446095D01*
X91543238Y-77398476D01*
X91448000Y-77303238D01*
X91400381Y-77160380D01*
X91400381Y-77065142D01*
X91448000Y-76922285D01*
X91495619Y-76874666D01*
X91400381Y-75969904D02*
X91400381Y-76446095D01*
X91876571Y-76493714D01*
X91828952Y-76446095D01*
X91781333Y-76350857D01*
X91781333Y-76112761D01*
X91828952Y-76017523D01*
X91876571Y-75969904D01*
X91971810Y-75922285D01*
X92209905Y-75922285D01*
X92305143Y-75969904D01*
X92352762Y-76017523D01*
X92400381Y-76112761D01*
X92400381Y-76350857D01*
X92352762Y-76446095D01*
X92305143Y-76493714D01*
X79843334Y-85165143D02*
X79795715Y-85212762D01*
X79652858Y-85260381D01*
X79557620Y-85260381D01*
X79414762Y-85212762D01*
X79319524Y-85117524D01*
X79271905Y-85022286D01*
X79224286Y-84831810D01*
X79224286Y-84688952D01*
X79271905Y-84498476D01*
X79319524Y-84403238D01*
X79414762Y-84308000D01*
X79557620Y-84260381D01*
X79652858Y-84260381D01*
X79795715Y-84308000D01*
X79843334Y-84355619D01*
X80700477Y-84260381D02*
X80510000Y-84260381D01*
X80414762Y-84308000D01*
X80367143Y-84355619D01*
X80271905Y-84498476D01*
X80224286Y-84688952D01*
X80224286Y-85069905D01*
X80271905Y-85165143D01*
X80319524Y-85212762D01*
X80414762Y-85260381D01*
X80605239Y-85260381D01*
X80700477Y-85212762D01*
X80748096Y-85165143D01*
X80795715Y-85069905D01*
X80795715Y-84831810D01*
X80748096Y-84736571D01*
X80700477Y-84688952D01*
X80605239Y-84641333D01*
X80414762Y-84641333D01*
X80319524Y-84688952D01*
X80271905Y-84736571D01*
X80224286Y-84831810D01*
X95071143Y-105342666D02*
X95118762Y-105390285D01*
X95166381Y-105533142D01*
X95166381Y-105628380D01*
X95118762Y-105771238D01*
X95023524Y-105866476D01*
X94928286Y-105914095D01*
X94737810Y-105961714D01*
X94594952Y-105961714D01*
X94404476Y-105914095D01*
X94309238Y-105866476D01*
X94214000Y-105771238D01*
X94166381Y-105628380D01*
X94166381Y-105533142D01*
X94214000Y-105390285D01*
X94261619Y-105342666D01*
X94166381Y-105009333D02*
X94166381Y-104342666D01*
X95166381Y-104771238D01*
X119201143Y-138088666D02*
X119248762Y-138136285D01*
X119296381Y-138279142D01*
X119296381Y-138374380D01*
X119248762Y-138517238D01*
X119153524Y-138612476D01*
X119058286Y-138660095D01*
X118867810Y-138707714D01*
X118724952Y-138707714D01*
X118534476Y-138660095D01*
X118439238Y-138612476D01*
X118344000Y-138517238D01*
X118296381Y-138374380D01*
X118296381Y-138279142D01*
X118344000Y-138136285D01*
X118391619Y-138088666D01*
X118724952Y-137517238D02*
X118677333Y-137612476D01*
X118629714Y-137660095D01*
X118534476Y-137707714D01*
X118486857Y-137707714D01*
X118391619Y-137660095D01*
X118344000Y-137612476D01*
X118296381Y-137517238D01*
X118296381Y-137326761D01*
X118344000Y-137231523D01*
X118391619Y-137183904D01*
X118486857Y-137136285D01*
X118534476Y-137136285D01*
X118629714Y-137183904D01*
X118677333Y-137231523D01*
X118724952Y-137326761D01*
X118724952Y-137517238D01*
X118772571Y-137612476D01*
X118820190Y-137660095D01*
X118915429Y-137707714D01*
X119105905Y-137707714D01*
X119201143Y-137660095D01*
X119248762Y-137612476D01*
X119296381Y-137517238D01*
X119296381Y-137326761D01*
X119248762Y-137231523D01*
X119201143Y-137183904D01*
X119105905Y-137136285D01*
X118915429Y-137136285D01*
X118820190Y-137183904D01*
X118772571Y-137231523D01*
X118724952Y-137326761D01*
X102691143Y-105322666D02*
X102738762Y-105370285D01*
X102786381Y-105513142D01*
X102786381Y-105608380D01*
X102738762Y-105751238D01*
X102643524Y-105846476D01*
X102548286Y-105894095D01*
X102357810Y-105941714D01*
X102214952Y-105941714D01*
X102024476Y-105894095D01*
X101929238Y-105846476D01*
X101834000Y-105751238D01*
X101786381Y-105608380D01*
X101786381Y-105513142D01*
X101834000Y-105370285D01*
X101881619Y-105322666D01*
X102786381Y-104846476D02*
X102786381Y-104656000D01*
X102738762Y-104560761D01*
X102691143Y-104513142D01*
X102548286Y-104417904D01*
X102357810Y-104370285D01*
X101976857Y-104370285D01*
X101881619Y-104417904D01*
X101834000Y-104465523D01*
X101786381Y-104560761D01*
X101786381Y-104751238D01*
X101834000Y-104846476D01*
X101881619Y-104894095D01*
X101976857Y-104941714D01*
X102214952Y-104941714D01*
X102310190Y-104894095D01*
X102357810Y-104846476D01*
X102405429Y-104751238D01*
X102405429Y-104560761D01*
X102357810Y-104465523D01*
X102310190Y-104417904D01*
X102214952Y-104370285D01*
X107541143Y-93603143D02*
X107493524Y-93650762D01*
X107350667Y-93698381D01*
X107255429Y-93698381D01*
X107112571Y-93650762D01*
X107017333Y-93555524D01*
X106969714Y-93460286D01*
X106922095Y-93269810D01*
X106922095Y-93126952D01*
X106969714Y-92936476D01*
X107017333Y-92841238D01*
X107112571Y-92746000D01*
X107255429Y-92698381D01*
X107350667Y-92698381D01*
X107493524Y-92746000D01*
X107541143Y-92793619D01*
X108493524Y-93698381D02*
X107922095Y-93698381D01*
X108207809Y-93698381D02*
X108207809Y-92698381D01*
X108112571Y-92841238D01*
X108017333Y-92936476D01*
X107922095Y-92984095D01*
X109112571Y-92698381D02*
X109207810Y-92698381D01*
X109303048Y-92746000D01*
X109350667Y-92793619D01*
X109398286Y-92888857D01*
X109445905Y-93079333D01*
X109445905Y-93317429D01*
X109398286Y-93507905D01*
X109350667Y-93603143D01*
X109303048Y-93650762D01*
X109207810Y-93698381D01*
X109112571Y-93698381D01*
X109017333Y-93650762D01*
X108969714Y-93603143D01*
X108922095Y-93507905D01*
X108874476Y-93317429D01*
X108874476Y-93079333D01*
X108922095Y-92888857D01*
X108969714Y-92793619D01*
X109017333Y-92746000D01*
X109112571Y-92698381D01*
X98175143Y-78620857D02*
X98222762Y-78668476D01*
X98270381Y-78811333D01*
X98270381Y-78906571D01*
X98222762Y-79049429D01*
X98127524Y-79144667D01*
X98032286Y-79192286D01*
X97841810Y-79239905D01*
X97698952Y-79239905D01*
X97508476Y-79192286D01*
X97413238Y-79144667D01*
X97318000Y-79049429D01*
X97270381Y-78906571D01*
X97270381Y-78811333D01*
X97318000Y-78668476D01*
X97365619Y-78620857D01*
X98270381Y-77668476D02*
X98270381Y-78239905D01*
X98270381Y-77954191D02*
X97270381Y-77954191D01*
X97413238Y-78049429D01*
X97508476Y-78144667D01*
X97556095Y-78239905D01*
X98270381Y-76716095D02*
X98270381Y-77287524D01*
X98270381Y-77001810D02*
X97270381Y-77001810D01*
X97413238Y-77097048D01*
X97508476Y-77192286D01*
X97556095Y-77287524D01*
X78605143Y-90245143D02*
X78557524Y-90292762D01*
X78414667Y-90340381D01*
X78319429Y-90340381D01*
X78176571Y-90292762D01*
X78081333Y-90197524D01*
X78033714Y-90102286D01*
X77986095Y-89911810D01*
X77986095Y-89768952D01*
X78033714Y-89578476D01*
X78081333Y-89483238D01*
X78176571Y-89388000D01*
X78319429Y-89340381D01*
X78414667Y-89340381D01*
X78557524Y-89388000D01*
X78605143Y-89435619D01*
X79557524Y-90340381D02*
X78986095Y-90340381D01*
X79271809Y-90340381D02*
X79271809Y-89340381D01*
X79176571Y-89483238D01*
X79081333Y-89578476D01*
X78986095Y-89626095D01*
X79938476Y-89435619D02*
X79986095Y-89388000D01*
X80081333Y-89340381D01*
X80319429Y-89340381D01*
X80414667Y-89388000D01*
X80462286Y-89435619D01*
X80509905Y-89530857D01*
X80509905Y-89626095D01*
X80462286Y-89768952D01*
X79890857Y-90340381D01*
X80509905Y-90340381D01*
X145599786Y-137666662D02*
X145552167Y-137714281D01*
X145409310Y-137761900D01*
X145314072Y-137761900D01*
X145171214Y-137714281D01*
X145075976Y-137619043D01*
X145028357Y-137523805D01*
X144980738Y-137333329D01*
X144980738Y-137190471D01*
X145028357Y-136999995D01*
X145075976Y-136904757D01*
X145171214Y-136809519D01*
X145314072Y-136761900D01*
X145409310Y-136761900D01*
X145552167Y-136809519D01*
X145599786Y-136857138D01*
X146552167Y-137761900D02*
X145980738Y-137761900D01*
X146266452Y-137761900D02*
X146266452Y-136761900D01*
X146171214Y-136904757D01*
X146075976Y-136999995D01*
X145980738Y-137047614D01*
X146885500Y-136761900D02*
X147504548Y-136761900D01*
X147171214Y-137142852D01*
X147314072Y-137142852D01*
X147409310Y-137190471D01*
X147456929Y-137238090D01*
X147504548Y-137333329D01*
X147504548Y-137571424D01*
X147456929Y-137666662D01*
X147409310Y-137714281D01*
X147314072Y-137761900D01*
X147028357Y-137761900D01*
X146933119Y-137714281D01*
X146885500Y-137666662D01*
X197715143Y-145930857D02*
X197762762Y-145978476D01*
X197810381Y-146121333D01*
X197810381Y-146216571D01*
X197762762Y-146359429D01*
X197667524Y-146454667D01*
X197572286Y-146502286D01*
X197381810Y-146549905D01*
X197238952Y-146549905D01*
X197048476Y-146502286D01*
X196953238Y-146454667D01*
X196858000Y-146359429D01*
X196810381Y-146216571D01*
X196810381Y-146121333D01*
X196858000Y-145978476D01*
X196905619Y-145930857D01*
X197810381Y-144978476D02*
X197810381Y-145549905D01*
X197810381Y-145264191D02*
X196810381Y-145264191D01*
X196953238Y-145359429D01*
X197048476Y-145454667D01*
X197096095Y-145549905D01*
X197143714Y-144121333D02*
X197810381Y-144121333D01*
X196762762Y-144359429D02*
X197477048Y-144597524D01*
X197477048Y-143978476D01*
X184503143Y-150189143D02*
X184455524Y-150236762D01*
X184312667Y-150284381D01*
X184217429Y-150284381D01*
X184074571Y-150236762D01*
X183979333Y-150141524D01*
X183931714Y-150046286D01*
X183884095Y-149855810D01*
X183884095Y-149712952D01*
X183931714Y-149522476D01*
X183979333Y-149427238D01*
X184074571Y-149332000D01*
X184217429Y-149284381D01*
X184312667Y-149284381D01*
X184455524Y-149332000D01*
X184503143Y-149379619D01*
X185455524Y-150284381D02*
X184884095Y-150284381D01*
X185169809Y-150284381D02*
X185169809Y-149284381D01*
X185074571Y-149427238D01*
X184979333Y-149522476D01*
X184884095Y-149570095D01*
X186360286Y-149284381D02*
X185884095Y-149284381D01*
X185836476Y-149760571D01*
X185884095Y-149712952D01*
X185979333Y-149665333D01*
X186217429Y-149665333D01*
X186312667Y-149712952D01*
X186360286Y-149760571D01*
X186407905Y-149855810D01*
X186407905Y-150093905D01*
X186360286Y-150189143D01*
X186312667Y-150236762D01*
X186217429Y-150284381D01*
X185979333Y-150284381D01*
X185884095Y-150236762D01*
X185836476Y-150189143D01*
X202323143Y-146689143D02*
X202275524Y-146736762D01*
X202132667Y-146784381D01*
X202037429Y-146784381D01*
X201894571Y-146736762D01*
X201799333Y-146641524D01*
X201751714Y-146546286D01*
X201704095Y-146355810D01*
X201704095Y-146212952D01*
X201751714Y-146022476D01*
X201799333Y-145927238D01*
X201894571Y-145832000D01*
X202037429Y-145784381D01*
X202132667Y-145784381D01*
X202275524Y-145832000D01*
X202323143Y-145879619D01*
X203275524Y-146784381D02*
X202704095Y-146784381D01*
X202989809Y-146784381D02*
X202989809Y-145784381D01*
X202894571Y-145927238D01*
X202799333Y-146022476D01*
X202704095Y-146070095D01*
X204132667Y-145784381D02*
X203942190Y-145784381D01*
X203846952Y-145832000D01*
X203799333Y-145879619D01*
X203704095Y-146022476D01*
X203656476Y-146212952D01*
X203656476Y-146593905D01*
X203704095Y-146689143D01*
X203751714Y-146736762D01*
X203846952Y-146784381D01*
X204037429Y-146784381D01*
X204132667Y-146736762D01*
X204180286Y-146689143D01*
X204227905Y-146593905D01*
X204227905Y-146355810D01*
X204180286Y-146260571D01*
X204132667Y-146212952D01*
X204037429Y-146165333D01*
X203846952Y-146165333D01*
X203751714Y-146212952D01*
X203704095Y-146260571D01*
X203656476Y-146355810D01*
X182003143Y-144149143D02*
X181955524Y-144196762D01*
X181812667Y-144244381D01*
X181717429Y-144244381D01*
X181574571Y-144196762D01*
X181479333Y-144101524D01*
X181431714Y-144006286D01*
X181384095Y-143815810D01*
X181384095Y-143672952D01*
X181431714Y-143482476D01*
X181479333Y-143387238D01*
X181574571Y-143292000D01*
X181717429Y-143244381D01*
X181812667Y-143244381D01*
X181955524Y-143292000D01*
X182003143Y-143339619D01*
X182955524Y-144244381D02*
X182384095Y-144244381D01*
X182669809Y-144244381D02*
X182669809Y-143244381D01*
X182574571Y-143387238D01*
X182479333Y-143482476D01*
X182384095Y-143530095D01*
X183288857Y-143244381D02*
X183955524Y-143244381D01*
X183526952Y-144244381D01*
X46482381Y-93111143D02*
X46434762Y-93158762D01*
X46291905Y-93206381D01*
X46196667Y-93206381D01*
X46053809Y-93158762D01*
X45958571Y-93063524D01*
X45910952Y-92968286D01*
X45863333Y-92777810D01*
X45863333Y-92634952D01*
X45910952Y-92444476D01*
X45958571Y-92349238D01*
X46053809Y-92254000D01*
X46196667Y-92206381D01*
X46291905Y-92206381D01*
X46434762Y-92254000D01*
X46482381Y-92301619D01*
X47482381Y-93206381D02*
X47149047Y-92730190D01*
X46910952Y-93206381D02*
X46910952Y-92206381D01*
X47291905Y-92206381D01*
X47387143Y-92254000D01*
X47434762Y-92301619D01*
X47482381Y-92396857D01*
X47482381Y-92539714D01*
X47434762Y-92634952D01*
X47387143Y-92682571D01*
X47291905Y-92730190D01*
X46910952Y-92730190D01*
X47910952Y-92206381D02*
X47910952Y-93015905D01*
X47958571Y-93111143D01*
X48006190Y-93158762D01*
X48101428Y-93206381D01*
X48291905Y-93206381D01*
X48387143Y-93158762D01*
X48434762Y-93111143D01*
X48482381Y-93015905D01*
X48482381Y-92206381D01*
X49291905Y-92682571D02*
X49434762Y-92730190D01*
X49482381Y-92777810D01*
X49530000Y-92873048D01*
X49530000Y-93015905D01*
X49482381Y-93111143D01*
X49434762Y-93158762D01*
X49339524Y-93206381D01*
X48958571Y-93206381D01*
X48958571Y-92206381D01*
X49291905Y-92206381D01*
X49387143Y-92254000D01*
X49434762Y-92301619D01*
X49482381Y-92396857D01*
X49482381Y-92492095D01*
X49434762Y-92587333D01*
X49387143Y-92634952D01*
X49291905Y-92682571D01*
X48958571Y-92682571D01*
X49910952Y-92920667D02*
X50387143Y-92920667D01*
X49815714Y-93206381D02*
X50149047Y-92206381D01*
X50482381Y-93206381D01*
X50768095Y-93158762D02*
X50910952Y-93206381D01*
X51149048Y-93206381D01*
X51244286Y-93158762D01*
X51291905Y-93111143D01*
X51339524Y-93015905D01*
X51339524Y-92920667D01*
X51291905Y-92825429D01*
X51244286Y-92777810D01*
X51149048Y-92730190D01*
X50958571Y-92682571D01*
X50863333Y-92634952D01*
X50815714Y-92587333D01*
X50768095Y-92492095D01*
X50768095Y-92396857D01*
X50815714Y-92301619D01*
X50863333Y-92254000D01*
X50958571Y-92206381D01*
X51196667Y-92206381D01*
X51339524Y-92254000D01*
X51768095Y-92682571D02*
X52101429Y-92682571D01*
X52244286Y-93206381D02*
X51768095Y-93206381D01*
X51768095Y-92206381D01*
X52244286Y-92206381D01*
X53196667Y-93206381D02*
X52625238Y-93206381D01*
X52910952Y-93206381D02*
X52910952Y-92206381D01*
X52815714Y-92349238D01*
X52720476Y-92444476D01*
X52625238Y-92492095D01*
X42782381Y-154662095D02*
X41782381Y-154662095D01*
X41782381Y-154424000D01*
X41830000Y-154281142D01*
X41925238Y-154185904D01*
X42020476Y-154138285D01*
X42210952Y-154090666D01*
X42353810Y-154090666D01*
X42544286Y-154138285D01*
X42639524Y-154185904D01*
X42734762Y-154281142D01*
X42782381Y-154424000D01*
X42782381Y-154662095D01*
X42782381Y-153138285D02*
X42782381Y-153709714D01*
X42782381Y-153424000D02*
X41782381Y-153424000D01*
X41925238Y-153519238D01*
X42020476Y-153614476D01*
X42068095Y-153709714D01*
X165679524Y-155122571D02*
X166012858Y-155122571D01*
X166155715Y-155646381D02*
X165679524Y-155646381D01*
X165679524Y-154646381D01*
X166155715Y-154646381D01*
X167108096Y-155646381D02*
X166536667Y-155646381D01*
X166822381Y-155646381D02*
X166822381Y-154646381D01*
X166727143Y-154789238D01*
X166631905Y-154884476D01*
X166536667Y-154932095D01*
X45382381Y-65650857D02*
X46096667Y-65650857D01*
X46239524Y-65698477D01*
X46334762Y-65793715D01*
X46382381Y-65936572D01*
X46382381Y-66031810D01*
X45382381Y-65317524D02*
X45382381Y-64746095D01*
X46382381Y-65031810D02*
X45382381Y-65031810D01*
X46096667Y-64460381D02*
X46096667Y-63984190D01*
X46382381Y-64555619D02*
X45382381Y-64222286D01*
X46382381Y-63888952D01*
X45430000Y-63031809D02*
X45382381Y-63127047D01*
X45382381Y-63269904D01*
X45430000Y-63412762D01*
X45525238Y-63508000D01*
X45620476Y-63555619D01*
X45810952Y-63603238D01*
X45953810Y-63603238D01*
X46144286Y-63555619D01*
X46239524Y-63508000D01*
X46334762Y-63412762D01*
X46382381Y-63269904D01*
X46382381Y-63174666D01*
X46334762Y-63031809D01*
X46287143Y-62984190D01*
X45953810Y-62984190D01*
X45953810Y-63174666D01*
X46382381Y-62031809D02*
X46382381Y-62603238D01*
X46382381Y-62317524D02*
X45382381Y-62317524D01*
X45525238Y-62412762D01*
X45620476Y-62508000D01*
X45668095Y-62603238D01*
X47418762Y-151463619D02*
X47323524Y-151416000D01*
X47228286Y-151320762D01*
X47085429Y-151177905D01*
X46990190Y-151130286D01*
X46894952Y-151130286D01*
X46942571Y-151368381D02*
X46847333Y-151320762D01*
X46752095Y-151225524D01*
X46704476Y-151035048D01*
X46704476Y-150701714D01*
X46752095Y-150511238D01*
X46847333Y-150416000D01*
X46942571Y-150368381D01*
X47133048Y-150368381D01*
X47228286Y-150416000D01*
X47323524Y-150511238D01*
X47371143Y-150701714D01*
X47371143Y-151035048D01*
X47323524Y-151225524D01*
X47228286Y-151320762D01*
X47133048Y-151368381D01*
X46942571Y-151368381D01*
X48323524Y-151368381D02*
X47752095Y-151368381D01*
X48037809Y-151368381D02*
X48037809Y-150368381D01*
X47942571Y-150511238D01*
X47847333Y-150606476D01*
X47752095Y-150654095D01*
X96179334Y-138960381D02*
X95846000Y-138484190D01*
X95607905Y-138960381D02*
X95607905Y-137960381D01*
X95988858Y-137960381D01*
X96084096Y-138008000D01*
X96131715Y-138055619D01*
X96179334Y-138150857D01*
X96179334Y-138293714D01*
X96131715Y-138388952D01*
X96084096Y-138436571D01*
X95988858Y-138484190D01*
X95607905Y-138484190D01*
X97131715Y-138960381D02*
X96560286Y-138960381D01*
X96846000Y-138960381D02*
X96846000Y-137960381D01*
X96750762Y-138103238D01*
X96655524Y-138198476D01*
X96560286Y-138246095D01*
X126358381Y-139278666D02*
X125882190Y-139612000D01*
X126358381Y-139850095D02*
X125358381Y-139850095D01*
X125358381Y-139469142D01*
X125406000Y-139373904D01*
X125453619Y-139326285D01*
X125548857Y-139278666D01*
X125691714Y-139278666D01*
X125786952Y-139326285D01*
X125834571Y-139373904D01*
X125882190Y-139469142D01*
X125882190Y-139850095D01*
X125453619Y-138897714D02*
X125406000Y-138850095D01*
X125358381Y-138754857D01*
X125358381Y-138516761D01*
X125406000Y-138421523D01*
X125453619Y-138373904D01*
X125548857Y-138326285D01*
X125644095Y-138326285D01*
X125786952Y-138373904D01*
X126358381Y-138945333D01*
X126358381Y-138326285D01*
X112896381Y-139692666D02*
X112420190Y-140026000D01*
X112896381Y-140264095D02*
X111896381Y-140264095D01*
X111896381Y-139883142D01*
X111944000Y-139787904D01*
X111991619Y-139740285D01*
X112086857Y-139692666D01*
X112229714Y-139692666D01*
X112324952Y-139740285D01*
X112372571Y-139787904D01*
X112420190Y-139883142D01*
X112420190Y-140264095D01*
X111896381Y-139359333D02*
X111896381Y-138740285D01*
X112277333Y-139073619D01*
X112277333Y-138930761D01*
X112324952Y-138835523D01*
X112372571Y-138787904D01*
X112467810Y-138740285D01*
X112705905Y-138740285D01*
X112801143Y-138787904D01*
X112848762Y-138835523D01*
X112896381Y-138930761D01*
X112896381Y-139216476D01*
X112848762Y-139311714D01*
X112801143Y-139359333D01*
X47012381Y-77302666D02*
X46536190Y-77636000D01*
X47012381Y-77874095D02*
X46012381Y-77874095D01*
X46012381Y-77493142D01*
X46060000Y-77397904D01*
X46107619Y-77350285D01*
X46202857Y-77302666D01*
X46345714Y-77302666D01*
X46440952Y-77350285D01*
X46488571Y-77397904D01*
X46536190Y-77493142D01*
X46536190Y-77874095D01*
X46345714Y-76445523D02*
X47012381Y-76445523D01*
X45964762Y-76683619D02*
X46679048Y-76921714D01*
X46679048Y-76302666D01*
X44711334Y-147948381D02*
X44378000Y-147472190D01*
X44139905Y-147948381D02*
X44139905Y-146948381D01*
X44520858Y-146948381D01*
X44616096Y-146996000D01*
X44663715Y-147043619D01*
X44711334Y-147138857D01*
X44711334Y-147281714D01*
X44663715Y-147376952D01*
X44616096Y-147424571D01*
X44520858Y-147472190D01*
X44139905Y-147472190D01*
X45616096Y-146948381D02*
X45139905Y-146948381D01*
X45092286Y-147424571D01*
X45139905Y-147376952D01*
X45235143Y-147329333D01*
X45473239Y-147329333D01*
X45568477Y-147376952D01*
X45616096Y-147424571D01*
X45663715Y-147519810D01*
X45663715Y-147757905D01*
X45616096Y-147853143D01*
X45568477Y-147900762D01*
X45473239Y-147948381D01*
X45235143Y-147948381D01*
X45139905Y-147900762D01*
X45092286Y-147853143D01*
X54363334Y-157346381D02*
X54030000Y-156870190D01*
X53791905Y-157346381D02*
X53791905Y-156346381D01*
X54172858Y-156346381D01*
X54268096Y-156394000D01*
X54315715Y-156441619D01*
X54363334Y-156536857D01*
X54363334Y-156679714D01*
X54315715Y-156774952D01*
X54268096Y-156822571D01*
X54172858Y-156870190D01*
X53791905Y-156870190D01*
X55220477Y-156346381D02*
X55030000Y-156346381D01*
X54934762Y-156394000D01*
X54887143Y-156441619D01*
X54791905Y-156584476D01*
X54744286Y-156774952D01*
X54744286Y-157155905D01*
X54791905Y-157251143D01*
X54839524Y-157298762D01*
X54934762Y-157346381D01*
X55125239Y-157346381D01*
X55220477Y-157298762D01*
X55268096Y-157251143D01*
X55315715Y-157155905D01*
X55315715Y-156917810D01*
X55268096Y-156822571D01*
X55220477Y-156774952D01*
X55125239Y-156727333D01*
X54934762Y-156727333D01*
X54839524Y-156774952D01*
X54791905Y-156822571D01*
X54744286Y-156917810D01*
X63841334Y-68524381D02*
X63508000Y-68048190D01*
X63269905Y-68524381D02*
X63269905Y-67524381D01*
X63650858Y-67524381D01*
X63746096Y-67572000D01*
X63793715Y-67619619D01*
X63841334Y-67714857D01*
X63841334Y-67857714D01*
X63793715Y-67952952D01*
X63746096Y-68000571D01*
X63650858Y-68048190D01*
X63269905Y-68048190D01*
X64174667Y-67524381D02*
X64841334Y-67524381D01*
X64412762Y-68524381D01*
X61555334Y-63952381D02*
X61222000Y-63476190D01*
X60983905Y-63952381D02*
X60983905Y-62952381D01*
X61364858Y-62952381D01*
X61460096Y-63000000D01*
X61507715Y-63047619D01*
X61555334Y-63142857D01*
X61555334Y-63285714D01*
X61507715Y-63380952D01*
X61460096Y-63428571D01*
X61364858Y-63476190D01*
X60983905Y-63476190D01*
X62126762Y-63380952D02*
X62031524Y-63333333D01*
X61983905Y-63285714D01*
X61936286Y-63190476D01*
X61936286Y-63142857D01*
X61983905Y-63047619D01*
X62031524Y-63000000D01*
X62126762Y-62952381D01*
X62317239Y-62952381D01*
X62412477Y-63000000D01*
X62460096Y-63047619D01*
X62507715Y-63142857D01*
X62507715Y-63190476D01*
X62460096Y-63285714D01*
X62412477Y-63333333D01*
X62317239Y-63380952D01*
X62126762Y-63380952D01*
X62031524Y-63428571D01*
X61983905Y-63476190D01*
X61936286Y-63571429D01*
X61936286Y-63761905D01*
X61983905Y-63857143D01*
X62031524Y-63904762D01*
X62126762Y-63952381D01*
X62317239Y-63952381D01*
X62412477Y-63904762D01*
X62460096Y-63857143D01*
X62507715Y-63761905D01*
X62507715Y-63571429D01*
X62460096Y-63476190D01*
X62412477Y-63428571D01*
X62317239Y-63380952D01*
X63841334Y-59380381D02*
X63508000Y-58904190D01*
X63269905Y-59380381D02*
X63269905Y-58380381D01*
X63650858Y-58380381D01*
X63746096Y-58428000D01*
X63793715Y-58475619D01*
X63841334Y-58570857D01*
X63841334Y-58713714D01*
X63793715Y-58808952D01*
X63746096Y-58856571D01*
X63650858Y-58904190D01*
X63269905Y-58904190D01*
X64317524Y-59380381D02*
X64508000Y-59380381D01*
X64603239Y-59332762D01*
X64650858Y-59285143D01*
X64746096Y-59142286D01*
X64793715Y-58951810D01*
X64793715Y-58570857D01*
X64746096Y-58475619D01*
X64698477Y-58428000D01*
X64603239Y-58380381D01*
X64412762Y-58380381D01*
X64317524Y-58428000D01*
X64269905Y-58475619D01*
X64222286Y-58570857D01*
X64222286Y-58808952D01*
X64269905Y-58904190D01*
X64317524Y-58951810D01*
X64412762Y-58999429D01*
X64603239Y-58999429D01*
X64698477Y-58951810D01*
X64746096Y-58904190D01*
X64793715Y-58808952D01*
X250301239Y-78640381D02*
X249967905Y-78164190D01*
X249729810Y-78640381D02*
X249729810Y-77640381D01*
X250110763Y-77640381D01*
X250206001Y-77688000D01*
X250253620Y-77735619D01*
X250301239Y-77830857D01*
X250301239Y-77973714D01*
X250253620Y-78068952D01*
X250206001Y-78116571D01*
X250110763Y-78164190D01*
X249729810Y-78164190D01*
X250729810Y-78640381D02*
X250729810Y-77640381D01*
X251110763Y-77640381D01*
X251206001Y-77688000D01*
X251253620Y-77735619D01*
X251301239Y-77830857D01*
X251301239Y-77973714D01*
X251253620Y-78068952D01*
X251206001Y-78116571D01*
X251110763Y-78164190D01*
X250729810Y-78164190D01*
X251729810Y-78640381D02*
X251729810Y-77973714D01*
X251729810Y-77640381D02*
X251682191Y-77688000D01*
X251729810Y-77735619D01*
X251777429Y-77688000D01*
X251729810Y-77640381D01*
X251729810Y-77735619D01*
X252729810Y-78640381D02*
X252158381Y-78640381D01*
X252444095Y-78640381D02*
X252444095Y-77640381D01*
X252348857Y-77783238D01*
X252253619Y-77878476D01*
X252158381Y-77926095D01*
X58928095Y-100246381D02*
X58928095Y-101055905D01*
X58975714Y-101151143D01*
X59023333Y-101198762D01*
X59118571Y-101246381D01*
X59309048Y-101246381D01*
X59404286Y-101198762D01*
X59451905Y-101151143D01*
X59499524Y-101055905D01*
X59499524Y-100246381D01*
X59928095Y-100341619D02*
X59975714Y-100294000D01*
X60070952Y-100246381D01*
X60309048Y-100246381D01*
X60404286Y-100294000D01*
X60451905Y-100341619D01*
X60499524Y-100436857D01*
X60499524Y-100532095D01*
X60451905Y-100674952D01*
X59880476Y-101246381D01*
X60499524Y-101246381D01*
X101092095Y-149566381D02*
X101092095Y-150375905D01*
X101139714Y-150471143D01*
X101187333Y-150518762D01*
X101282571Y-150566381D01*
X101473048Y-150566381D01*
X101568286Y-150518762D01*
X101615905Y-150471143D01*
X101663524Y-150375905D01*
X101663524Y-149566381D01*
X102044476Y-149566381D02*
X102663524Y-149566381D01*
X102330190Y-149947333D01*
X102473048Y-149947333D01*
X102568286Y-149994952D01*
X102615905Y-150042571D01*
X102663524Y-150137810D01*
X102663524Y-150375905D01*
X102615905Y-150471143D01*
X102568286Y-150518762D01*
X102473048Y-150566381D01*
X102187333Y-150566381D01*
X102092095Y-150518762D01*
X102044476Y-150471143D01*
X128270095Y-149312381D02*
X128270095Y-150121905D01*
X128317714Y-150217143D01*
X128365333Y-150264762D01*
X128460571Y-150312381D01*
X128651048Y-150312381D01*
X128746286Y-150264762D01*
X128793905Y-150217143D01*
X128841524Y-150121905D01*
X128841524Y-149312381D01*
X129746286Y-149645714D02*
X129746286Y-150312381D01*
X129508190Y-149264762D02*
X129270095Y-149979048D01*
X129889143Y-149979048D01*
X114808095Y-149566381D02*
X114808095Y-150375905D01*
X114855714Y-150471143D01*
X114903333Y-150518762D01*
X114998571Y-150566381D01*
X115189048Y-150566381D01*
X115284286Y-150518762D01*
X115331905Y-150471143D01*
X115379524Y-150375905D01*
X115379524Y-149566381D01*
X116331905Y-149566381D02*
X115855714Y-149566381D01*
X115808095Y-150042571D01*
X115855714Y-149994952D01*
X115950952Y-149947333D01*
X116189048Y-149947333D01*
X116284286Y-149994952D01*
X116331905Y-150042571D01*
X116379524Y-150137810D01*
X116379524Y-150375905D01*
X116331905Y-150471143D01*
X116284286Y-150518762D01*
X116189048Y-150566381D01*
X115950952Y-150566381D01*
X115855714Y-150518762D01*
X115808095Y-150471143D01*
X92892095Y-100008381D02*
X92892095Y-100817905D01*
X92939714Y-100913143D01*
X92987333Y-100960762D01*
X93082571Y-101008381D01*
X93273048Y-101008381D01*
X93368286Y-100960762D01*
X93415905Y-100913143D01*
X93463524Y-100817905D01*
X93463524Y-100008381D01*
X94368286Y-100008381D02*
X94177809Y-100008381D01*
X94082571Y-100056000D01*
X94034952Y-100103619D01*
X93939714Y-100246476D01*
X93892095Y-100436952D01*
X93892095Y-100817905D01*
X93939714Y-100913143D01*
X93987333Y-100960762D01*
X94082571Y-101008381D01*
X94273048Y-101008381D01*
X94368286Y-100960762D01*
X94415905Y-100913143D01*
X94463524Y-100817905D01*
X94463524Y-100579810D01*
X94415905Y-100484571D01*
X94368286Y-100436952D01*
X94273048Y-100389333D01*
X94082571Y-100389333D01*
X93987333Y-100436952D01*
X93939714Y-100484571D01*
X93892095Y-100579810D01*
X144018095Y-149058381D02*
X144018095Y-149867905D01*
X144065714Y-149963143D01*
X144113333Y-150010762D01*
X144208571Y-150058381D01*
X144399048Y-150058381D01*
X144494286Y-150010762D01*
X144541905Y-149963143D01*
X144589524Y-149867905D01*
X144589524Y-149058381D01*
X144970476Y-149058381D02*
X145637143Y-149058381D01*
X145208571Y-150058381D01*
X73406095Y-152106381D02*
X73406095Y-152915905D01*
X73453714Y-153011143D01*
X73501333Y-153058762D01*
X73596571Y-153106381D01*
X73787048Y-153106381D01*
X73882286Y-153058762D01*
X73929905Y-153011143D01*
X73977524Y-152915905D01*
X73977524Y-152106381D01*
X74977524Y-153106381D02*
X74406095Y-153106381D01*
X74691809Y-153106381D02*
X74691809Y-152106381D01*
X74596571Y-152249238D01*
X74501333Y-152344476D01*
X74406095Y-152392095D01*
X95543143Y-137788381D02*
X95209809Y-137312190D01*
X94971714Y-137788381D02*
X94971714Y-136788381D01*
X95352667Y-136788381D01*
X95447905Y-136836000D01*
X95495524Y-136883619D01*
X95543143Y-136978857D01*
X95543143Y-137121714D01*
X95495524Y-137216952D01*
X95447905Y-137264571D01*
X95352667Y-137312190D01*
X94971714Y-137312190D01*
X96495524Y-137788381D02*
X95924095Y-137788381D01*
X96209809Y-137788381D02*
X96209809Y-136788381D01*
X96114571Y-136931238D01*
X96019333Y-137026476D01*
X95924095Y-137074095D01*
X96876476Y-136883619D02*
X96924095Y-136836000D01*
X97019333Y-136788381D01*
X97257429Y-136788381D01*
X97352667Y-136836000D01*
X97400286Y-136883619D01*
X97447905Y-136978857D01*
X97447905Y-137074095D01*
X97400286Y-137216952D01*
X96828857Y-137788381D01*
X97447905Y-137788381D01*
X187848381Y-155803905D02*
X188657905Y-155803905D01*
X188753143Y-155756286D01*
X188800762Y-155708667D01*
X188848381Y-155613429D01*
X188848381Y-155422952D01*
X188800762Y-155327714D01*
X188753143Y-155280095D01*
X188657905Y-155232476D01*
X187848381Y-155232476D01*
X188848381Y-154708667D02*
X188848381Y-154518191D01*
X188800762Y-154422952D01*
X188753143Y-154375333D01*
X188610286Y-154280095D01*
X188419810Y-154232476D01*
X188038857Y-154232476D01*
X187943619Y-154280095D01*
X187896000Y-154327714D01*
X187848381Y-154422952D01*
X187848381Y-154613429D01*
X187896000Y-154708667D01*
X187943619Y-154756286D01*
X188038857Y-154803905D01*
X188276952Y-154803905D01*
X188372190Y-154756286D01*
X188419810Y-154708667D01*
X188467429Y-154613429D01*
X188467429Y-154422952D01*
X188419810Y-154327714D01*
X188372190Y-154280095D01*
X188276952Y-154232476D01*
X205628381Y-155853905D02*
X206437905Y-155853905D01*
X206533143Y-155806286D01*
X206580762Y-155758667D01*
X206628381Y-155663429D01*
X206628381Y-155472952D01*
X206580762Y-155377714D01*
X206533143Y-155330095D01*
X206437905Y-155282476D01*
X205628381Y-155282476D01*
X206056952Y-154663429D02*
X206009333Y-154758667D01*
X205961714Y-154806286D01*
X205866476Y-154853905D01*
X205818857Y-154853905D01*
X205723619Y-154806286D01*
X205676000Y-154758667D01*
X205628381Y-154663429D01*
X205628381Y-154472952D01*
X205676000Y-154377714D01*
X205723619Y-154330095D01*
X205818857Y-154282476D01*
X205866476Y-154282476D01*
X205961714Y-154330095D01*
X206009333Y-154377714D01*
X206056952Y-154472952D01*
X206056952Y-154663429D01*
X206104571Y-154758667D01*
X206152190Y-154806286D01*
X206247429Y-154853905D01*
X206437905Y-154853905D01*
X206533143Y-154806286D01*
X206580762Y-154758667D01*
X206628381Y-154663429D01*
X206628381Y-154472952D01*
X206580762Y-154377714D01*
X206533143Y-154330095D01*
X206437905Y-154282476D01*
X206247429Y-154282476D01*
X206152190Y-154330095D01*
X206104571Y-154377714D01*
X206056952Y-154472952D01*
X194754667Y-25970381D02*
X194421333Y-25494190D01*
X194183238Y-25970381D02*
X194183238Y-24970381D01*
X194564191Y-24970381D01*
X194659429Y-25018000D01*
X194707048Y-25065619D01*
X194754667Y-25160857D01*
X194754667Y-25303714D01*
X194707048Y-25398952D01*
X194659429Y-25446571D01*
X194564191Y-25494190D01*
X194183238Y-25494190D01*
X195183238Y-25446571D02*
X195516572Y-25446571D01*
X195659429Y-25970381D02*
X195183238Y-25970381D01*
X195183238Y-24970381D01*
X195659429Y-24970381D01*
X196421334Y-25446571D02*
X196088000Y-25446571D01*
X196088000Y-25970381D02*
X196088000Y-24970381D01*
X196564191Y-24970381D01*
X197088000Y-24970381D02*
X197088000Y-25208476D01*
X196849905Y-25113238D02*
X197088000Y-25208476D01*
X197326096Y-25113238D01*
X196945143Y-25398952D02*
X197088000Y-25208476D01*
X197230858Y-25398952D01*
X197849905Y-24970381D02*
X197849905Y-25208476D01*
X197611810Y-25113238D02*
X197849905Y-25208476D01*
X198088001Y-25113238D01*
X197707048Y-25398952D02*
X197849905Y-25208476D01*
X197992763Y-25398952D01*
X243785143Y-89020381D02*
X243451809Y-88544190D01*
X243213714Y-89020381D02*
X243213714Y-88020381D01*
X243594667Y-88020381D01*
X243689905Y-88068000D01*
X243737524Y-88115619D01*
X243785143Y-88210857D01*
X243785143Y-88353714D01*
X243737524Y-88448952D01*
X243689905Y-88496571D01*
X243594667Y-88544190D01*
X243213714Y-88544190D01*
X244737524Y-89020381D02*
X244166095Y-89020381D01*
X244451809Y-89020381D02*
X244451809Y-88020381D01*
X244356571Y-88163238D01*
X244261333Y-88258476D01*
X244166095Y-88306095D01*
X245070857Y-88020381D02*
X245689905Y-88020381D01*
X245356571Y-88401333D01*
X245499429Y-88401333D01*
X245594667Y-88448952D01*
X245642286Y-88496571D01*
X245689905Y-88591810D01*
X245689905Y-88829905D01*
X245642286Y-88925143D01*
X245594667Y-88972762D01*
X245499429Y-89020381D01*
X245213714Y-89020381D01*
X245118476Y-88972762D01*
X245070857Y-88925143D01*
X83232667Y-147280381D02*
X83232667Y-147994667D01*
X83185047Y-148137524D01*
X83089809Y-148232762D01*
X82946952Y-148280381D01*
X82851714Y-148280381D01*
X84232667Y-148280381D02*
X83661238Y-148280381D01*
X83946952Y-148280381D02*
X83946952Y-147280381D01*
X83851714Y-147423238D01*
X83756476Y-147518476D01*
X83661238Y-147566095D01*
X83232667Y-143470381D02*
X83232667Y-144184667D01*
X83185047Y-144327524D01*
X83089809Y-144422762D01*
X82946952Y-144470381D01*
X82851714Y-144470381D01*
X83661238Y-143565619D02*
X83708857Y-143518000D01*
X83804095Y-143470381D01*
X84042191Y-143470381D01*
X84137429Y-143518000D01*
X84185048Y-143565619D01*
X84232667Y-143660857D01*
X84232667Y-143756095D01*
X84185048Y-143898952D01*
X83613619Y-144470381D01*
X84232667Y-144470381D01*
X86051143Y-138042381D02*
X85717809Y-137566190D01*
X85479714Y-138042381D02*
X85479714Y-137042381D01*
X85860667Y-137042381D01*
X85955905Y-137090000D01*
X86003524Y-137137619D01*
X86051143Y-137232857D01*
X86051143Y-137375714D01*
X86003524Y-137470952D01*
X85955905Y-137518571D01*
X85860667Y-137566190D01*
X85479714Y-137566190D01*
X87003524Y-138042381D02*
X86432095Y-138042381D01*
X86717809Y-138042381D02*
X86717809Y-137042381D01*
X86622571Y-137185238D01*
X86527333Y-137280476D01*
X86432095Y-137328095D01*
X87622571Y-137042381D02*
X87717810Y-137042381D01*
X87813048Y-137090000D01*
X87860667Y-137137619D01*
X87908286Y-137232857D01*
X87955905Y-137423333D01*
X87955905Y-137661429D01*
X87908286Y-137851905D01*
X87860667Y-137947143D01*
X87813048Y-137994762D01*
X87717810Y-138042381D01*
X87622571Y-138042381D01*
X87527333Y-137994762D01*
X87479714Y-137947143D01*
X87432095Y-137851905D01*
X87384476Y-137661429D01*
X87384476Y-137423333D01*
X87432095Y-137232857D01*
X87479714Y-137137619D01*
X87527333Y-137090000D01*
X87622571Y-137042381D01*
X85891143Y-141598381D02*
X85557809Y-141122190D01*
X85319714Y-141598381D02*
X85319714Y-140598381D01*
X85700667Y-140598381D01*
X85795905Y-140646000D01*
X85843524Y-140693619D01*
X85891143Y-140788857D01*
X85891143Y-140931714D01*
X85843524Y-141026952D01*
X85795905Y-141074571D01*
X85700667Y-141122190D01*
X85319714Y-141122190D01*
X86843524Y-141598381D02*
X86272095Y-141598381D01*
X86557809Y-141598381D02*
X86557809Y-140598381D01*
X86462571Y-140741238D01*
X86367333Y-140836476D01*
X86272095Y-140884095D01*
X87795905Y-141598381D02*
X87224476Y-141598381D01*
X87510190Y-141598381D02*
X87510190Y-140598381D01*
X87414952Y-140741238D01*
X87319714Y-140836476D01*
X87224476Y-140884095D01*
M02*
