%TF.GenerationSoftware,KiCad,Pcbnew,4.0.7-e2-6376~61~ubuntu18.04.1*%
%TF.CreationDate,2018-07-10T18:24:55-07:00*%
%TF.ProjectId,tipi-peb,746970692D7065622E6B696361645F70,rev?*%
%TF.FileFunction,Soldermask,Bot*%
%FSLAX46Y46*%
G04 Gerber Fmt 4.6, Leading zero omitted, Abs format (unit mm)*
G04 Created by KiCad (PCBNEW 4.0.7-e2-6376~61~ubuntu18.04.1) date Tue Jul 10 18:24:55 2018*
%MOMM*%
%LPD*%
G01*
G04 APERTURE LIST*
%ADD10C,0.150000*%
%ADD11C,3.600000*%
%ADD12R,2.100000X2.100000*%
%ADD13O,2.100000X2.100000*%
%ADD14R,2.200000X2.200000*%
%ADD15C,2.200000*%
%ADD16R,1.800000X12.400000*%
%ADD17R,2.000000X2.000000*%
%ADD18O,2.000000X2.000000*%
G04 APERTURE END LIST*
D10*
D11*
X138176000Y-78740000D03*
X196088000Y-78740000D03*
X138176000Y-29972000D03*
D12*
X50800000Y-90424000D03*
D13*
X48260000Y-90424000D03*
X50800000Y-87884000D03*
X48260000Y-87884000D03*
X50800000Y-85344000D03*
X48260000Y-85344000D03*
X50800000Y-82804000D03*
X48260000Y-82804000D03*
D14*
X39370000Y-152654000D03*
D15*
X39370000Y-155194000D03*
D16*
X162560000Y-164084000D03*
X167640000Y-164084000D03*
X165100000Y-164084000D03*
X160020000Y-164084000D03*
X157480000Y-164084000D03*
X154940000Y-164084000D03*
X152400000Y-164084000D03*
X149860000Y-164084000D03*
X147320000Y-164084000D03*
X144780000Y-164084000D03*
X142240000Y-164084000D03*
X139700000Y-164084000D03*
X137160000Y-164084000D03*
X134620000Y-164084000D03*
X132080000Y-164084000D03*
X129540000Y-164084000D03*
X127000000Y-164084000D03*
X124460000Y-164084000D03*
X121920000Y-164084000D03*
X119380000Y-164084000D03*
X116840000Y-164084000D03*
X114300000Y-164084000D03*
X111760000Y-164084000D03*
X109220000Y-164084000D03*
X106680000Y-164084000D03*
X104140000Y-164084000D03*
X101600000Y-164084000D03*
X99060000Y-164084000D03*
X96520000Y-164084000D03*
X93980000Y-164084000D03*
D12*
X48260000Y-65278000D03*
D13*
X48260000Y-62738000D03*
X50800000Y-65278000D03*
X50800000Y-62738000D03*
X53340000Y-65278000D03*
X53340000Y-62738000D03*
X55880000Y-65278000D03*
X55880000Y-62738000D03*
X58420000Y-65278000D03*
X58420000Y-62738000D03*
D12*
X249936000Y-80518000D03*
D13*
X252476000Y-80518000D03*
X249936000Y-83058000D03*
X252476000Y-83058000D03*
X249936000Y-85598000D03*
X252476000Y-85598000D03*
X249936000Y-88138000D03*
X252476000Y-88138000D03*
X249936000Y-90678000D03*
X252476000Y-90678000D03*
D17*
X52070000Y-103124000D03*
D18*
X67310000Y-136144000D03*
X52070000Y-105664000D03*
X67310000Y-133604000D03*
X52070000Y-108204000D03*
X67310000Y-131064000D03*
X52070000Y-110744000D03*
X67310000Y-128524000D03*
X52070000Y-113284000D03*
X67310000Y-125984000D03*
X52070000Y-115824000D03*
X67310000Y-123444000D03*
X52070000Y-118364000D03*
X67310000Y-120904000D03*
X52070000Y-120904000D03*
X67310000Y-118364000D03*
X52070000Y-123444000D03*
X67310000Y-115824000D03*
X52070000Y-125984000D03*
X67310000Y-113284000D03*
X52070000Y-128524000D03*
X67310000Y-110744000D03*
X52070000Y-131064000D03*
X67310000Y-108204000D03*
X52070000Y-133604000D03*
X67310000Y-105664000D03*
X52070000Y-136144000D03*
X67310000Y-103124000D03*
D11*
X196088000Y-29718000D03*
M02*
