G04 #@! TF.GenerationSoftware,KiCad,Pcbnew,(5.1.5)-3*
G04 #@! TF.CreationDate,2020-06-13T11:59:13-04:00*
G04 #@! TF.ProjectId,TIPI-32k,54495049-2d33-4326-9b2e-6b696361645f,V1*
G04 #@! TF.SameCoordinates,Original*
G04 #@! TF.FileFunction,Legend,Top*
G04 #@! TF.FilePolarity,Positive*
%FSLAX46Y46*%
G04 Gerber Fmt 4.6, Leading zero omitted, Abs format (unit mm)*
G04 Created by KiCad (PCBNEW (5.1.5)-3) date 2020-06-13 11:59:13*
%MOMM*%
%LPD*%
G04 APERTURE LIST*
%ADD10C,0.100000*%
%ADD11C,0.150000*%
%ADD12C,0.300000*%
%ADD13C,0.400000*%
%ADD14C,0.127000*%
G04 #@! TA.AperFunction,Profile*
%ADD15C,0.025400*%
G04 #@! TD*
%ADD16C,0.120000*%
%ADD17C,0.200000*%
%ADD18C,0.015000*%
G04 APERTURE END LIST*
D10*
D11*
X159400000Y-171900000D02*
X159400000Y-203900000D01*
X267400000Y-203900000D01*
X267400000Y-171900000D01*
X159400000Y-171900000D01*
D10*
D11*
X10000000Y-10000000D02*
X10000000Y-205900000D01*
X269400000Y-205900000D01*
X269400000Y-10000000D01*
X10000000Y-10000000D01*
D10*
D11*
X12000000Y-12000000D02*
X12000000Y-203900000D01*
X267400000Y-203900000D01*
X267400000Y-12000000D01*
X12000000Y-12000000D01*
D10*
D11*
X60000000Y-12000000D02*
X60000000Y-10000000D01*
D10*
D11*
X110000000Y-12000000D02*
X110000000Y-10000000D01*
D10*
D11*
X160000000Y-12000000D02*
X160000000Y-10000000D01*
D10*
D11*
X210000000Y-12000000D02*
X210000000Y-10000000D01*
D10*
D11*
X260000000Y-12000000D02*
X260000000Y-10000000D01*
D10*
D11*
X36065476Y-11588095D02*
X35322619Y-11588095D01*
X35694047Y-11588095D02*
X35694047Y-10288095D01*
X35570238Y-10473809D01*
X35446428Y-10597619D01*
X35322619Y-10659523D01*
D10*
D11*
X85322619Y-10411904D02*
X85384523Y-10350000D01*
X85508333Y-10288095D01*
X85817857Y-10288095D01*
X85941666Y-10350000D01*
X86003571Y-10411904D01*
X86065476Y-10535714D01*
X86065476Y-10659523D01*
X86003571Y-10845238D01*
X85260714Y-11588095D01*
X86065476Y-11588095D01*
D10*
D11*
X135260714Y-10288095D02*
X136065476Y-10288095D01*
X135632142Y-10783333D01*
X135817857Y-10783333D01*
X135941666Y-10845238D01*
X136003571Y-10907142D01*
X136065476Y-11030952D01*
X136065476Y-11340476D01*
X136003571Y-11464285D01*
X135941666Y-11526190D01*
X135817857Y-11588095D01*
X135446428Y-11588095D01*
X135322619Y-11526190D01*
X135260714Y-11464285D01*
D10*
D11*
X185941666Y-10721428D02*
X185941666Y-11588095D01*
X185632142Y-10226190D02*
X185322619Y-11154761D01*
X186127380Y-11154761D01*
D10*
D11*
X236003571Y-10288095D02*
X235384523Y-10288095D01*
X235322619Y-10907142D01*
X235384523Y-10845238D01*
X235508333Y-10783333D01*
X235817857Y-10783333D01*
X235941666Y-10845238D01*
X236003571Y-10907142D01*
X236065476Y-11030952D01*
X236065476Y-11340476D01*
X236003571Y-11464285D01*
X235941666Y-11526190D01*
X235817857Y-11588095D01*
X235508333Y-11588095D01*
X235384523Y-11526190D01*
X235322619Y-11464285D01*
D10*
D11*
X60000000Y-203900000D02*
X60000000Y-205900000D01*
D10*
D11*
X110000000Y-203900000D02*
X110000000Y-205900000D01*
D10*
D11*
X160000000Y-203900000D02*
X160000000Y-205900000D01*
D10*
D11*
X210000000Y-203900000D02*
X210000000Y-205900000D01*
D10*
D11*
X260000000Y-203900000D02*
X260000000Y-205900000D01*
D10*
D11*
X36065476Y-205488095D02*
X35322619Y-205488095D01*
X35694047Y-205488095D02*
X35694047Y-204188095D01*
X35570238Y-204373809D01*
X35446428Y-204497619D01*
X35322619Y-204559523D01*
D10*
D11*
X85322619Y-204311904D02*
X85384523Y-204250000D01*
X85508333Y-204188095D01*
X85817857Y-204188095D01*
X85941666Y-204250000D01*
X86003571Y-204311904D01*
X86065476Y-204435714D01*
X86065476Y-204559523D01*
X86003571Y-204745238D01*
X85260714Y-205488095D01*
X86065476Y-205488095D01*
D10*
D11*
X135260714Y-204188095D02*
X136065476Y-204188095D01*
X135632142Y-204683333D01*
X135817857Y-204683333D01*
X135941666Y-204745238D01*
X136003571Y-204807142D01*
X136065476Y-204930952D01*
X136065476Y-205240476D01*
X136003571Y-205364285D01*
X135941666Y-205426190D01*
X135817857Y-205488095D01*
X135446428Y-205488095D01*
X135322619Y-205426190D01*
X135260714Y-205364285D01*
D10*
D11*
X185941666Y-204621428D02*
X185941666Y-205488095D01*
X185632142Y-204126190D02*
X185322619Y-205054761D01*
X186127380Y-205054761D01*
D10*
D11*
X236003571Y-204188095D02*
X235384523Y-204188095D01*
X235322619Y-204807142D01*
X235384523Y-204745238D01*
X235508333Y-204683333D01*
X235817857Y-204683333D01*
X235941666Y-204745238D01*
X236003571Y-204807142D01*
X236065476Y-204930952D01*
X236065476Y-205240476D01*
X236003571Y-205364285D01*
X235941666Y-205426190D01*
X235817857Y-205488095D01*
X235508333Y-205488095D01*
X235384523Y-205426190D01*
X235322619Y-205364285D01*
D10*
D11*
X10000000Y-60000000D02*
X12000000Y-60000000D01*
D10*
D11*
X10000000Y-110000000D02*
X12000000Y-110000000D01*
D10*
D11*
X10000000Y-160000000D02*
X12000000Y-160000000D01*
D10*
D11*
X10690476Y-35216666D02*
X11309523Y-35216666D01*
X10566666Y-35588095D02*
X11000000Y-34288095D01*
X11433333Y-35588095D01*
D10*
D11*
X11092857Y-84907142D02*
X11278571Y-84969047D01*
X11340476Y-85030952D01*
X11402380Y-85154761D01*
X11402380Y-85340476D01*
X11340476Y-85464285D01*
X11278571Y-85526190D01*
X11154761Y-85588095D01*
X10659523Y-85588095D01*
X10659523Y-84288095D01*
X11092857Y-84288095D01*
X11216666Y-84350000D01*
X11278571Y-84411904D01*
X11340476Y-84535714D01*
X11340476Y-84659523D01*
X11278571Y-84783333D01*
X11216666Y-84845238D01*
X11092857Y-84907142D01*
X10659523Y-84907142D01*
D10*
D11*
X11402380Y-135464285D02*
X11340476Y-135526190D01*
X11154761Y-135588095D01*
X11030952Y-135588095D01*
X10845238Y-135526190D01*
X10721428Y-135402380D01*
X10659523Y-135278571D01*
X10597619Y-135030952D01*
X10597619Y-134845238D01*
X10659523Y-134597619D01*
X10721428Y-134473809D01*
X10845238Y-134350000D01*
X11030952Y-134288095D01*
X11154761Y-134288095D01*
X11340476Y-134350000D01*
X11402380Y-134411904D01*
D10*
D11*
X10659523Y-185588095D02*
X10659523Y-184288095D01*
X10969047Y-184288095D01*
X11154761Y-184350000D01*
X11278571Y-184473809D01*
X11340476Y-184597619D01*
X11402380Y-184845238D01*
X11402380Y-185030952D01*
X11340476Y-185278571D01*
X11278571Y-185402380D01*
X11154761Y-185526190D01*
X10969047Y-185588095D01*
X10659523Y-185588095D01*
D10*
D11*
X269400000Y-60000000D02*
X267400000Y-60000000D01*
D10*
D11*
X269400000Y-110000000D02*
X267400000Y-110000000D01*
D10*
D11*
X269400000Y-160000000D02*
X267400000Y-160000000D01*
D10*
D11*
X268090476Y-35216666D02*
X268709523Y-35216666D01*
X267966666Y-35588095D02*
X268400000Y-34288095D01*
X268833333Y-35588095D01*
D10*
D11*
X268492857Y-84907142D02*
X268678571Y-84969047D01*
X268740476Y-85030952D01*
X268802380Y-85154761D01*
X268802380Y-85340476D01*
X268740476Y-85464285D01*
X268678571Y-85526190D01*
X268554761Y-85588095D01*
X268059523Y-85588095D01*
X268059523Y-84288095D01*
X268492857Y-84288095D01*
X268616666Y-84350000D01*
X268678571Y-84411904D01*
X268740476Y-84535714D01*
X268740476Y-84659523D01*
X268678571Y-84783333D01*
X268616666Y-84845238D01*
X268492857Y-84907142D01*
X268059523Y-84907142D01*
D10*
D11*
X268802380Y-135464285D02*
X268740476Y-135526190D01*
X268554761Y-135588095D01*
X268430952Y-135588095D01*
X268245238Y-135526190D01*
X268121428Y-135402380D01*
X268059523Y-135278571D01*
X267997619Y-135030952D01*
X267997619Y-134845238D01*
X268059523Y-134597619D01*
X268121428Y-134473809D01*
X268245238Y-134350000D01*
X268430952Y-134288095D01*
X268554761Y-134288095D01*
X268740476Y-134350000D01*
X268802380Y-134411904D01*
D10*
D11*
X268059523Y-185588095D02*
X268059523Y-184288095D01*
X268369047Y-184288095D01*
X268554761Y-184350000D01*
X268678571Y-184473809D01*
X268740476Y-184597619D01*
X268802380Y-184845238D01*
X268802380Y-185030952D01*
X268740476Y-185278571D01*
X268678571Y-185402380D01*
X268554761Y-185526190D01*
X268369047Y-185588095D01*
X268059523Y-185588095D01*
D10*
D11*
X182832142Y-199678571D02*
X182832142Y-198178571D01*
X183189285Y-198178571D01*
X183403571Y-198250000D01*
X183546428Y-198392857D01*
X183617857Y-198535714D01*
X183689285Y-198821428D01*
X183689285Y-199035714D01*
X183617857Y-199321428D01*
X183546428Y-199464285D01*
X183403571Y-199607142D01*
X183189285Y-199678571D01*
X182832142Y-199678571D01*
X184975000Y-199678571D02*
X184975000Y-198892857D01*
X184903571Y-198750000D01*
X184760714Y-198678571D01*
X184475000Y-198678571D01*
X184332142Y-198750000D01*
X184975000Y-199607142D02*
X184832142Y-199678571D01*
X184475000Y-199678571D01*
X184332142Y-199607142D01*
X184260714Y-199464285D01*
X184260714Y-199321428D01*
X184332142Y-199178571D01*
X184475000Y-199107142D01*
X184832142Y-199107142D01*
X184975000Y-199035714D01*
X185475000Y-198678571D02*
X186046428Y-198678571D01*
X185689285Y-198178571D02*
X185689285Y-199464285D01*
X185760714Y-199607142D01*
X185903571Y-199678571D01*
X186046428Y-199678571D01*
X187117857Y-199607142D02*
X186975000Y-199678571D01*
X186689285Y-199678571D01*
X186546428Y-199607142D01*
X186475000Y-199464285D01*
X186475000Y-198892857D01*
X186546428Y-198750000D01*
X186689285Y-198678571D01*
X186975000Y-198678571D01*
X187117857Y-198750000D01*
X187189285Y-198892857D01*
X187189285Y-199035714D01*
X186475000Y-199178571D01*
X187832142Y-199535714D02*
X187903571Y-199607142D01*
X187832142Y-199678571D01*
X187760714Y-199607142D01*
X187832142Y-199535714D01*
X187832142Y-199678571D01*
X187832142Y-198750000D02*
X187903571Y-198821428D01*
X187832142Y-198892857D01*
X187760714Y-198821428D01*
X187832142Y-198750000D01*
X187832142Y-198892857D01*
X189617857Y-198321428D02*
X189689285Y-198250000D01*
X189832142Y-198178571D01*
X190189285Y-198178571D01*
X190332142Y-198250000D01*
X190403571Y-198321428D01*
X190475000Y-198464285D01*
X190475000Y-198607142D01*
X190403571Y-198821428D01*
X189546428Y-199678571D01*
X190475000Y-199678571D01*
X191403571Y-198178571D02*
X191546428Y-198178571D01*
X191689285Y-198250000D01*
X191760714Y-198321428D01*
X191832142Y-198464285D01*
X191903571Y-198750000D01*
X191903571Y-199107142D01*
X191832142Y-199392857D01*
X191760714Y-199535714D01*
X191689285Y-199607142D01*
X191546428Y-199678571D01*
X191403571Y-199678571D01*
X191260714Y-199607142D01*
X191189285Y-199535714D01*
X191117857Y-199392857D01*
X191046428Y-199107142D01*
X191046428Y-198750000D01*
X191117857Y-198464285D01*
X191189285Y-198321428D01*
X191260714Y-198250000D01*
X191403571Y-198178571D01*
X192475000Y-198321428D02*
X192546428Y-198250000D01*
X192689285Y-198178571D01*
X193046428Y-198178571D01*
X193189285Y-198250000D01*
X193260714Y-198321428D01*
X193332142Y-198464285D01*
X193332142Y-198607142D01*
X193260714Y-198821428D01*
X192403571Y-199678571D01*
X193332142Y-199678571D01*
X194260714Y-198178571D02*
X194403571Y-198178571D01*
X194546428Y-198250000D01*
X194617857Y-198321428D01*
X194689285Y-198464285D01*
X194760714Y-198750000D01*
X194760714Y-199107142D01*
X194689285Y-199392857D01*
X194617857Y-199535714D01*
X194546428Y-199607142D01*
X194403571Y-199678571D01*
X194260714Y-199678571D01*
X194117857Y-199607142D01*
X194046428Y-199535714D01*
X193975000Y-199392857D01*
X193903571Y-199107142D01*
X193903571Y-198750000D01*
X193975000Y-198464285D01*
X194046428Y-198321428D01*
X194117857Y-198250000D01*
X194260714Y-198178571D01*
X195403571Y-199107142D02*
X196546428Y-199107142D01*
X197546428Y-198178571D02*
X197689285Y-198178571D01*
X197832142Y-198250000D01*
X197903571Y-198321428D01*
X197975000Y-198464285D01*
X198046428Y-198750000D01*
X198046428Y-199107142D01*
X197975000Y-199392857D01*
X197903571Y-199535714D01*
X197832142Y-199607142D01*
X197689285Y-199678571D01*
X197546428Y-199678571D01*
X197403571Y-199607142D01*
X197332142Y-199535714D01*
X197260714Y-199392857D01*
X197189285Y-199107142D01*
X197189285Y-198750000D01*
X197260714Y-198464285D01*
X197332142Y-198321428D01*
X197403571Y-198250000D01*
X197546428Y-198178571D01*
X199403571Y-198178571D02*
X198689285Y-198178571D01*
X198617857Y-198892857D01*
X198689285Y-198821428D01*
X198832142Y-198750000D01*
X199189285Y-198750000D01*
X199332142Y-198821428D01*
X199403571Y-198892857D01*
X199475000Y-199035714D01*
X199475000Y-199392857D01*
X199403571Y-199535714D01*
X199332142Y-199607142D01*
X199189285Y-199678571D01*
X198832142Y-199678571D01*
X198689285Y-199607142D01*
X198617857Y-199535714D01*
X200117857Y-199107142D02*
X201260714Y-199107142D01*
X202260714Y-198178571D02*
X202403571Y-198178571D01*
X202546428Y-198250000D01*
X202617857Y-198321428D01*
X202689285Y-198464285D01*
X202760714Y-198750000D01*
X202760714Y-199107142D01*
X202689285Y-199392857D01*
X202617857Y-199535714D01*
X202546428Y-199607142D01*
X202403571Y-199678571D01*
X202260714Y-199678571D01*
X202117857Y-199607142D01*
X202046428Y-199535714D01*
X201975000Y-199392857D01*
X201903571Y-199107142D01*
X201903571Y-198750000D01*
X201975000Y-198464285D01*
X202046428Y-198321428D01*
X202117857Y-198250000D01*
X202260714Y-198178571D01*
X203475000Y-199678571D02*
X203760714Y-199678571D01*
X203903571Y-199607142D01*
X203975000Y-199535714D01*
X204117857Y-199321428D01*
X204189285Y-199035714D01*
X204189285Y-198464285D01*
X204117857Y-198321428D01*
X204046428Y-198250000D01*
X203903571Y-198178571D01*
X203617857Y-198178571D01*
X203475000Y-198250000D01*
X203403571Y-198321428D01*
X203332142Y-198464285D01*
X203332142Y-198821428D01*
X203403571Y-198964285D01*
X203475000Y-199035714D01*
X203617857Y-199107142D01*
X203903571Y-199107142D01*
X204046428Y-199035714D01*
X204117857Y-198964285D01*
X204189285Y-198821428D01*
D10*
D11*
X159400000Y-200400000D02*
X267400000Y-200400000D01*
D10*
D11*
X160832142Y-202478571D02*
X160832142Y-200978571D01*
X161689285Y-202478571D02*
X161046428Y-201621428D01*
X161689285Y-200978571D02*
X160832142Y-201835714D01*
X162332142Y-202478571D02*
X162332142Y-201478571D01*
X162332142Y-200978571D02*
X162260714Y-201050000D01*
X162332142Y-201121428D01*
X162403571Y-201050000D01*
X162332142Y-200978571D01*
X162332142Y-201121428D01*
X163903571Y-202335714D02*
X163832142Y-202407142D01*
X163617857Y-202478571D01*
X163475000Y-202478571D01*
X163260714Y-202407142D01*
X163117857Y-202264285D01*
X163046428Y-202121428D01*
X162975000Y-201835714D01*
X162975000Y-201621428D01*
X163046428Y-201335714D01*
X163117857Y-201192857D01*
X163260714Y-201050000D01*
X163475000Y-200978571D01*
X163617857Y-200978571D01*
X163832142Y-201050000D01*
X163903571Y-201121428D01*
X165189285Y-202478571D02*
X165189285Y-201692857D01*
X165117857Y-201550000D01*
X164975000Y-201478571D01*
X164689285Y-201478571D01*
X164546428Y-201550000D01*
X165189285Y-202407142D02*
X165046428Y-202478571D01*
X164689285Y-202478571D01*
X164546428Y-202407142D01*
X164475000Y-202264285D01*
X164475000Y-202121428D01*
X164546428Y-201978571D01*
X164689285Y-201907142D01*
X165046428Y-201907142D01*
X165189285Y-201835714D01*
X166546428Y-202478571D02*
X166546428Y-200978571D01*
X166546428Y-202407142D02*
X166403571Y-202478571D01*
X166117857Y-202478571D01*
X165975000Y-202407142D01*
X165903571Y-202335714D01*
X165832142Y-202192857D01*
X165832142Y-201764285D01*
X165903571Y-201621428D01*
X165975000Y-201550000D01*
X166117857Y-201478571D01*
X166403571Y-201478571D01*
X166546428Y-201550000D01*
X168403571Y-201692857D02*
X168903571Y-201692857D01*
X169117857Y-202478571D02*
X168403571Y-202478571D01*
X168403571Y-200978571D01*
X169117857Y-200978571D01*
X169760714Y-202335714D02*
X169832142Y-202407142D01*
X169760714Y-202478571D01*
X169689285Y-202407142D01*
X169760714Y-202335714D01*
X169760714Y-202478571D01*
X170475000Y-202478571D02*
X170475000Y-200978571D01*
X170832142Y-200978571D01*
X171046428Y-201050000D01*
X171189285Y-201192857D01*
X171260714Y-201335714D01*
X171332142Y-201621428D01*
X171332142Y-201835714D01*
X171260714Y-202121428D01*
X171189285Y-202264285D01*
X171046428Y-202407142D01*
X170832142Y-202478571D01*
X170475000Y-202478571D01*
X171975000Y-202335714D02*
X172046428Y-202407142D01*
X171975000Y-202478571D01*
X171903571Y-202407142D01*
X171975000Y-202335714D01*
X171975000Y-202478571D01*
X172617857Y-202050000D02*
X173332142Y-202050000D01*
X172475000Y-202478571D02*
X172975000Y-200978571D01*
X173475000Y-202478571D01*
X173975000Y-202335714D02*
X174046428Y-202407142D01*
X173975000Y-202478571D01*
X173903571Y-202407142D01*
X173975000Y-202335714D01*
X173975000Y-202478571D01*
X176975000Y-201478571D02*
X176975000Y-202978571D01*
X176975000Y-201550000D02*
X177117857Y-201478571D01*
X177403571Y-201478571D01*
X177546428Y-201550000D01*
X177617857Y-201621428D01*
X177689285Y-201764285D01*
X177689285Y-202192857D01*
X177617857Y-202335714D01*
X177546428Y-202407142D01*
X177403571Y-202478571D01*
X177117857Y-202478571D01*
X176975000Y-202407142D01*
X178975000Y-202407142D02*
X178832142Y-202478571D01*
X178546428Y-202478571D01*
X178403571Y-202407142D01*
X178332142Y-202335714D01*
X178260714Y-202192857D01*
X178260714Y-201764285D01*
X178332142Y-201621428D01*
X178403571Y-201550000D01*
X178546428Y-201478571D01*
X178832142Y-201478571D01*
X178975000Y-201550000D01*
X179617857Y-202478571D02*
X179617857Y-200978571D01*
X179617857Y-201550000D02*
X179760714Y-201478571D01*
X180046428Y-201478571D01*
X180189285Y-201550000D01*
X180260714Y-201621428D01*
X180332142Y-201764285D01*
X180332142Y-202192857D01*
X180260714Y-202335714D01*
X180189285Y-202407142D01*
X180046428Y-202478571D01*
X179760714Y-202478571D01*
X179617857Y-202407142D01*
X180975000Y-201478571D02*
X180975000Y-202478571D01*
X180975000Y-201621428D02*
X181046428Y-201550000D01*
X181189285Y-201478571D01*
X181403571Y-201478571D01*
X181546428Y-201550000D01*
X181617857Y-201692857D01*
X181617857Y-202478571D01*
X182903571Y-202407142D02*
X182760714Y-202478571D01*
X182475000Y-202478571D01*
X182332142Y-202407142D01*
X182260714Y-202264285D01*
X182260714Y-201692857D01*
X182332142Y-201550000D01*
X182475000Y-201478571D01*
X182760714Y-201478571D01*
X182903571Y-201550000D01*
X182975000Y-201692857D01*
X182975000Y-201835714D01*
X182260714Y-201978571D01*
X183475000Y-201478571D02*
X183760714Y-202478571D01*
X184046428Y-201764285D01*
X184332142Y-202478571D01*
X184617857Y-201478571D01*
X186760714Y-203050000D02*
X186689285Y-202978571D01*
X186546428Y-202764285D01*
X186475000Y-202621428D01*
X186403571Y-202407142D01*
X186332142Y-202050000D01*
X186332142Y-201764285D01*
X186403571Y-201407142D01*
X186475000Y-201192857D01*
X186546428Y-201050000D01*
X186689285Y-200835714D01*
X186760714Y-200764285D01*
X188046428Y-200978571D02*
X187332142Y-200978571D01*
X187260714Y-201692857D01*
X187332142Y-201621428D01*
X187475000Y-201550000D01*
X187832142Y-201550000D01*
X187975000Y-201621428D01*
X188046428Y-201692857D01*
X188117857Y-201835714D01*
X188117857Y-202192857D01*
X188046428Y-202335714D01*
X187975000Y-202407142D01*
X187832142Y-202478571D01*
X187475000Y-202478571D01*
X187332142Y-202407142D01*
X187260714Y-202335714D01*
X188760714Y-202335714D02*
X188832142Y-202407142D01*
X188760714Y-202478571D01*
X188689285Y-202407142D01*
X188760714Y-202335714D01*
X188760714Y-202478571D01*
X190260714Y-202478571D02*
X189403571Y-202478571D01*
X189832142Y-202478571D02*
X189832142Y-200978571D01*
X189689285Y-201192857D01*
X189546428Y-201335714D01*
X189403571Y-201407142D01*
X190903571Y-202335714D02*
X190975000Y-202407142D01*
X190903571Y-202478571D01*
X190832142Y-202407142D01*
X190903571Y-202335714D01*
X190903571Y-202478571D01*
X192332142Y-200978571D02*
X191617857Y-200978571D01*
X191546428Y-201692857D01*
X191617857Y-201621428D01*
X191760714Y-201550000D01*
X192117857Y-201550000D01*
X192260714Y-201621428D01*
X192332142Y-201692857D01*
X192403571Y-201835714D01*
X192403571Y-202192857D01*
X192332142Y-202335714D01*
X192260714Y-202407142D01*
X192117857Y-202478571D01*
X191760714Y-202478571D01*
X191617857Y-202407142D01*
X191546428Y-202335714D01*
X192903571Y-203050000D02*
X192975000Y-202978571D01*
X193117857Y-202764285D01*
X193189285Y-202621428D01*
X193260714Y-202407142D01*
X193332142Y-202050000D01*
X193332142Y-201764285D01*
X193260714Y-201407142D01*
X193189285Y-201192857D01*
X193117857Y-201050000D01*
X192975000Y-200835714D01*
X192903571Y-200764285D01*
X194046428Y-201907142D02*
X195189285Y-201907142D01*
X195760714Y-200978571D02*
X196689285Y-200978571D01*
X196189285Y-201550000D01*
X196403571Y-201550000D01*
X196546428Y-201621428D01*
X196617857Y-201692857D01*
X196689285Y-201835714D01*
X196689285Y-202192857D01*
X196617857Y-202335714D01*
X196546428Y-202407142D01*
X196403571Y-202478571D01*
X195975000Y-202478571D01*
X195832142Y-202407142D01*
X195760714Y-202335714D01*
D10*
D11*
X159400000Y-197400000D02*
X267400000Y-197400000D01*
D10*
D12*
X246809285Y-199678571D02*
X246309285Y-198964285D01*
X245952142Y-199678571D02*
X245952142Y-198178571D01*
X246523571Y-198178571D01*
X246666428Y-198250000D01*
X246737857Y-198321428D01*
X246809285Y-198464285D01*
X246809285Y-198678571D01*
X246737857Y-198821428D01*
X246666428Y-198892857D01*
X246523571Y-198964285D01*
X245952142Y-198964285D01*
X248023571Y-199607142D02*
X247880714Y-199678571D01*
X247595000Y-199678571D01*
X247452142Y-199607142D01*
X247380714Y-199464285D01*
X247380714Y-198892857D01*
X247452142Y-198750000D01*
X247595000Y-198678571D01*
X247880714Y-198678571D01*
X248023571Y-198750000D01*
X248095000Y-198892857D01*
X248095000Y-199035714D01*
X247380714Y-199178571D01*
X248595000Y-198678571D02*
X248952142Y-199678571D01*
X249309285Y-198678571D01*
X249880714Y-199535714D02*
X249952142Y-199607142D01*
X249880714Y-199678571D01*
X249809285Y-199607142D01*
X249880714Y-199535714D01*
X249880714Y-199678571D01*
X249880714Y-198750000D02*
X249952142Y-198821428D01*
X249880714Y-198892857D01*
X249809285Y-198821428D01*
X249880714Y-198750000D01*
X249880714Y-198892857D01*
X251523571Y-198178571D02*
X252023571Y-199678571D01*
X252523571Y-198178571D01*
X253809285Y-199678571D02*
X252952142Y-199678571D01*
X253380714Y-199678571D02*
X253380714Y-198178571D01*
X253237857Y-198392857D01*
X253095000Y-198535714D01*
X252952142Y-198607142D01*
D10*
D11*
X160760714Y-199607142D02*
X160975000Y-199678571D01*
X161332142Y-199678571D01*
X161475000Y-199607142D01*
X161546428Y-199535714D01*
X161617857Y-199392857D01*
X161617857Y-199250000D01*
X161546428Y-199107142D01*
X161475000Y-199035714D01*
X161332142Y-198964285D01*
X161046428Y-198892857D01*
X160903571Y-198821428D01*
X160832142Y-198750000D01*
X160760714Y-198607142D01*
X160760714Y-198464285D01*
X160832142Y-198321428D01*
X160903571Y-198250000D01*
X161046428Y-198178571D01*
X161403571Y-198178571D01*
X161617857Y-198250000D01*
X162260714Y-199678571D02*
X162260714Y-198678571D01*
X162260714Y-198178571D02*
X162189285Y-198250000D01*
X162260714Y-198321428D01*
X162332142Y-198250000D01*
X162260714Y-198178571D01*
X162260714Y-198321428D01*
X162832142Y-198678571D02*
X163617857Y-198678571D01*
X162832142Y-199678571D01*
X163617857Y-199678571D01*
X164760714Y-199607142D02*
X164617857Y-199678571D01*
X164332142Y-199678571D01*
X164189285Y-199607142D01*
X164117857Y-199464285D01*
X164117857Y-198892857D01*
X164189285Y-198750000D01*
X164332142Y-198678571D01*
X164617857Y-198678571D01*
X164760714Y-198750000D01*
X164832142Y-198892857D01*
X164832142Y-199035714D01*
X164117857Y-199178571D01*
X165475000Y-199535714D02*
X165546428Y-199607142D01*
X165475000Y-199678571D01*
X165403571Y-199607142D01*
X165475000Y-199535714D01*
X165475000Y-199678571D01*
X165475000Y-198750000D02*
X165546428Y-198821428D01*
X165475000Y-198892857D01*
X165403571Y-198821428D01*
X165475000Y-198750000D01*
X165475000Y-198892857D01*
X167332142Y-198178571D02*
X167332142Y-199392857D01*
X167403571Y-199535714D01*
X167475000Y-199607142D01*
X167617857Y-199678571D01*
X167903571Y-199678571D01*
X168046428Y-199607142D01*
X168117857Y-199535714D01*
X168189285Y-199392857D01*
X168189285Y-198178571D01*
X168832142Y-199607142D02*
X169046428Y-199678571D01*
X169403571Y-199678571D01*
X169546428Y-199607142D01*
X169617857Y-199535714D01*
X169689285Y-199392857D01*
X169689285Y-199250000D01*
X169617857Y-199107142D01*
X169546428Y-199035714D01*
X169403571Y-198964285D01*
X169117857Y-198892857D01*
X168975000Y-198821428D01*
X168903571Y-198750000D01*
X168832142Y-198607142D01*
X168832142Y-198464285D01*
X168903571Y-198321428D01*
X168975000Y-198250000D01*
X169117857Y-198178571D01*
X169475000Y-198178571D01*
X169689285Y-198250000D01*
X171046428Y-199678571D02*
X170332142Y-199678571D01*
X170332142Y-198178571D01*
X172117857Y-199607142D02*
X171975000Y-199678571D01*
X171689285Y-199678571D01*
X171546428Y-199607142D01*
X171475000Y-199464285D01*
X171475000Y-198892857D01*
X171546428Y-198750000D01*
X171689285Y-198678571D01*
X171975000Y-198678571D01*
X172117857Y-198750000D01*
X172189285Y-198892857D01*
X172189285Y-199035714D01*
X171475000Y-199178571D01*
X172617857Y-198678571D02*
X173189285Y-198678571D01*
X172832142Y-198178571D02*
X172832142Y-199464285D01*
X172903571Y-199607142D01*
X173046428Y-199678571D01*
X173189285Y-199678571D01*
X173475000Y-198678571D02*
X174046428Y-198678571D01*
X173689285Y-198178571D02*
X173689285Y-199464285D01*
X173760714Y-199607142D01*
X173903571Y-199678571D01*
X174046428Y-199678571D01*
X175117857Y-199607142D02*
X174975000Y-199678571D01*
X174689285Y-199678571D01*
X174546428Y-199607142D01*
X174475000Y-199464285D01*
X174475000Y-198892857D01*
X174546428Y-198750000D01*
X174689285Y-198678571D01*
X174975000Y-198678571D01*
X175117857Y-198750000D01*
X175189285Y-198892857D01*
X175189285Y-199035714D01*
X174475000Y-199178571D01*
X175832142Y-199678571D02*
X175832142Y-198678571D01*
X175832142Y-198964285D02*
X175903571Y-198821428D01*
X175975000Y-198750000D01*
X176117857Y-198678571D01*
X176260714Y-198678571D01*
D10*
D11*
X245832142Y-202478571D02*
X245832142Y-200978571D01*
X247189285Y-202478571D02*
X247189285Y-200978571D01*
X247189285Y-202407142D02*
X247046428Y-202478571D01*
X246760714Y-202478571D01*
X246617857Y-202407142D01*
X246546428Y-202335714D01*
X246475000Y-202192857D01*
X246475000Y-201764285D01*
X246546428Y-201621428D01*
X246617857Y-201550000D01*
X246760714Y-201478571D01*
X247046428Y-201478571D01*
X247189285Y-201550000D01*
X247903571Y-202335714D02*
X247975000Y-202407142D01*
X247903571Y-202478571D01*
X247832142Y-202407142D01*
X247903571Y-202335714D01*
X247903571Y-202478571D01*
X247903571Y-201550000D02*
X247975000Y-201621428D01*
X247903571Y-201692857D01*
X247832142Y-201621428D01*
X247903571Y-201550000D01*
X247903571Y-201692857D01*
X250546428Y-202478571D02*
X249689285Y-202478571D01*
X250117857Y-202478571D02*
X250117857Y-200978571D01*
X249975000Y-201192857D01*
X249832142Y-201335714D01*
X249689285Y-201407142D01*
X252260714Y-200907142D02*
X250975000Y-202835714D01*
X253546428Y-202478571D02*
X252689285Y-202478571D01*
X253117857Y-202478571D02*
X253117857Y-200978571D01*
X252975000Y-201192857D01*
X252832142Y-201335714D01*
X252689285Y-201407142D01*
D10*
D11*
X159400000Y-193400000D02*
X267400000Y-193400000D01*
D10*
D13*
X161112380Y-194104761D02*
X162255238Y-194104761D01*
X161433809Y-196104761D02*
X161683809Y-194104761D01*
X162671904Y-196104761D02*
X162838571Y-194771428D01*
X162921904Y-194104761D02*
X162814761Y-194200000D01*
X162898095Y-194295238D01*
X163005238Y-194200000D01*
X162921904Y-194104761D01*
X162898095Y-194295238D01*
X163505238Y-194771428D02*
X164267142Y-194771428D01*
X163874285Y-194104761D02*
X163660000Y-195819047D01*
X163731428Y-196009523D01*
X163910000Y-196104761D01*
X164100476Y-196104761D01*
X165052857Y-196104761D02*
X164874285Y-196009523D01*
X164802857Y-195819047D01*
X165017142Y-194104761D01*
X166588571Y-196009523D02*
X166386190Y-196104761D01*
X166005238Y-196104761D01*
X165826666Y-196009523D01*
X165755238Y-195819047D01*
X165850476Y-195057142D01*
X165969523Y-194866666D01*
X166171904Y-194771428D01*
X166552857Y-194771428D01*
X166731428Y-194866666D01*
X166802857Y-195057142D01*
X166779047Y-195247619D01*
X165802857Y-195438095D01*
X167552857Y-195914285D02*
X167636190Y-196009523D01*
X167529047Y-196104761D01*
X167445714Y-196009523D01*
X167552857Y-195914285D01*
X167529047Y-196104761D01*
X167683809Y-194866666D02*
X167767142Y-194961904D01*
X167660000Y-195057142D01*
X167576666Y-194961904D01*
X167683809Y-194866666D01*
X167660000Y-195057142D01*
X169921904Y-196009523D02*
X170195714Y-196104761D01*
X170671904Y-196104761D01*
X170874285Y-196009523D01*
X170981428Y-195914285D01*
X171100476Y-195723809D01*
X171124285Y-195533333D01*
X171052857Y-195342857D01*
X170969523Y-195247619D01*
X170790952Y-195152380D01*
X170421904Y-195057142D01*
X170243333Y-194961904D01*
X170160000Y-194866666D01*
X170088571Y-194676190D01*
X170112380Y-194485714D01*
X170231428Y-194295238D01*
X170338571Y-194200000D01*
X170540952Y-194104761D01*
X171017142Y-194104761D01*
X171290952Y-194200000D01*
X171826666Y-196009523D02*
X172100476Y-196104761D01*
X172576666Y-196104761D01*
X172779047Y-196009523D01*
X172886190Y-195914285D01*
X173005238Y-195723809D01*
X173029047Y-195533333D01*
X172957619Y-195342857D01*
X172874285Y-195247619D01*
X172695714Y-195152380D01*
X172326666Y-195057142D01*
X172148095Y-194961904D01*
X172064761Y-194866666D01*
X171993333Y-194676190D01*
X172017142Y-194485714D01*
X172136190Y-194295238D01*
X172243333Y-194200000D01*
X172445714Y-194104761D01*
X172921904Y-194104761D01*
X173195714Y-194200000D01*
X173910000Y-195342857D02*
X175433809Y-195342857D01*
X176255238Y-194104761D02*
X177398095Y-194104761D01*
X176576666Y-196104761D02*
X176826666Y-194104761D01*
X177814761Y-196104761D02*
X178064761Y-194104761D01*
X178767142Y-196104761D02*
X179017142Y-194104761D01*
X179779047Y-194104761D01*
X179957619Y-194200000D01*
X180040952Y-194295238D01*
X180112380Y-194485714D01*
X180076666Y-194771428D01*
X179957619Y-194961904D01*
X179850476Y-195057142D01*
X179648095Y-195152380D01*
X178886190Y-195152380D01*
X180767142Y-196104761D02*
X181017142Y-194104761D01*
X183338571Y-195342857D02*
X184862380Y-195342857D01*
X187207619Y-194104761D02*
X188350476Y-194104761D01*
X187529047Y-196104761D02*
X187779047Y-194104761D01*
X188767142Y-196104761D02*
X189017142Y-194104761D01*
X189814761Y-195342857D02*
X191338571Y-195342857D01*
X192290952Y-196104761D02*
X192671904Y-196104761D01*
X192874285Y-196009523D01*
X192981428Y-195914285D01*
X193207619Y-195628571D01*
X193350476Y-195247619D01*
X193445714Y-194485714D01*
X193374285Y-194295238D01*
X193290952Y-194200000D01*
X193112380Y-194104761D01*
X192731428Y-194104761D01*
X192529047Y-194200000D01*
X192421904Y-194295238D01*
X192302857Y-194485714D01*
X192243333Y-194961904D01*
X192314761Y-195152380D01*
X192398095Y-195247619D01*
X192576666Y-195342857D01*
X192957619Y-195342857D01*
X193160000Y-195247619D01*
X193267142Y-195152380D01*
X193386190Y-194961904D01*
X194195714Y-196104761D02*
X194576666Y-196104761D01*
X194779047Y-196009523D01*
X194886190Y-195914285D01*
X195112380Y-195628571D01*
X195255238Y-195247619D01*
X195350476Y-194485714D01*
X195279047Y-194295238D01*
X195195714Y-194200000D01*
X195017142Y-194104761D01*
X194636190Y-194104761D01*
X194433809Y-194200000D01*
X194326666Y-194295238D01*
X194207619Y-194485714D01*
X194148095Y-194961904D01*
X194219523Y-195152380D01*
X194302857Y-195247619D01*
X194481428Y-195342857D01*
X194862380Y-195342857D01*
X195064761Y-195247619D01*
X195171904Y-195152380D01*
X195290952Y-194961904D01*
X197695714Y-194009523D02*
X195660000Y-196580952D01*
X199124285Y-194771428D02*
X198957619Y-196104761D01*
X198743333Y-194009523D02*
X198088571Y-195438095D01*
X199326666Y-195438095D01*
X199981428Y-195533333D02*
X200933809Y-195533333D01*
X199719523Y-196104761D02*
X200636190Y-194104761D01*
X201052857Y-196104761D01*
X203124285Y-194771428D02*
X203886190Y-194771428D01*
X203493333Y-194104761D02*
X203279047Y-195819047D01*
X203350476Y-196009523D01*
X203529047Y-196104761D01*
X203719523Y-196104761D01*
X204671904Y-196104761D02*
X204493333Y-196009523D01*
X204410000Y-195914285D01*
X204338571Y-195723809D01*
X204410000Y-195152380D01*
X204529047Y-194961904D01*
X204636190Y-194866666D01*
X204838571Y-194771428D01*
X205124285Y-194771428D01*
X205302857Y-194866666D01*
X205386190Y-194961904D01*
X205457619Y-195152380D01*
X205386190Y-195723809D01*
X205267142Y-195914285D01*
X205160000Y-196009523D01*
X204957619Y-196104761D01*
X204671904Y-196104761D01*
X208862380Y-196104761D02*
X208314761Y-195152380D01*
X207719523Y-196104761D02*
X207969523Y-194104761D01*
X208731428Y-194104761D01*
X208910000Y-194200000D01*
X208993333Y-194295238D01*
X209064761Y-194485714D01*
X209029047Y-194771428D01*
X208910000Y-194961904D01*
X208802857Y-195057142D01*
X208600476Y-195152380D01*
X207838571Y-195152380D01*
X209719523Y-196104761D02*
X209969523Y-194104761D01*
X210731428Y-194104761D01*
X210910000Y-194200000D01*
X210993333Y-194295238D01*
X211064761Y-194485714D01*
X211029047Y-194771428D01*
X210910000Y-194961904D01*
X210802857Y-195057142D01*
X210600476Y-195152380D01*
X209838571Y-195152380D01*
X211719523Y-196104761D02*
X211886190Y-194771428D01*
X211969523Y-194104761D02*
X211862380Y-194200000D01*
X211945714Y-194295238D01*
X212052857Y-194200000D01*
X211969523Y-194104761D01*
X211945714Y-194295238D01*
X215052857Y-196104761D02*
X215183809Y-195057142D01*
X215112380Y-194866666D01*
X214933809Y-194771428D01*
X214552857Y-194771428D01*
X214350476Y-194866666D01*
X215064761Y-196009523D02*
X214862380Y-196104761D01*
X214386190Y-196104761D01*
X214207619Y-196009523D01*
X214136190Y-195819047D01*
X214160000Y-195628571D01*
X214279047Y-195438095D01*
X214481428Y-195342857D01*
X214957619Y-195342857D01*
X215160000Y-195247619D01*
X216862380Y-196104761D02*
X217112380Y-194104761D01*
X216874285Y-196009523D02*
X216671904Y-196104761D01*
X216290952Y-196104761D01*
X216112380Y-196009523D01*
X216029047Y-195914285D01*
X215957619Y-195723809D01*
X216029047Y-195152380D01*
X216148095Y-194961904D01*
X216255238Y-194866666D01*
X216457619Y-194771428D01*
X216838571Y-194771428D01*
X217017142Y-194866666D01*
X218671904Y-196104761D02*
X218802857Y-195057142D01*
X218731428Y-194866666D01*
X218552857Y-194771428D01*
X218171904Y-194771428D01*
X217969523Y-194866666D01*
X218683809Y-196009523D02*
X218481428Y-196104761D01*
X218005238Y-196104761D01*
X217826666Y-196009523D01*
X217755238Y-195819047D01*
X217779047Y-195628571D01*
X217898095Y-195438095D01*
X218100476Y-195342857D01*
X218576666Y-195342857D01*
X218779047Y-195247619D01*
X219790952Y-194771428D02*
X219540952Y-196771428D01*
X219779047Y-194866666D02*
X219981428Y-194771428D01*
X220362380Y-194771428D01*
X220540952Y-194866666D01*
X220624285Y-194961904D01*
X220695714Y-195152380D01*
X220624285Y-195723809D01*
X220505238Y-195914285D01*
X220398095Y-196009523D01*
X220195714Y-196104761D01*
X219814761Y-196104761D01*
X219636190Y-196009523D01*
X221314761Y-194771428D02*
X222076666Y-194771428D01*
X221683809Y-194104761D02*
X221469523Y-195819047D01*
X221540952Y-196009523D01*
X221719523Y-196104761D01*
X221909999Y-196104761D01*
X223350476Y-196009523D02*
X223148095Y-196104761D01*
X222767142Y-196104761D01*
X222588571Y-196009523D01*
X222517142Y-195819047D01*
X222612380Y-195057142D01*
X222731428Y-194866666D01*
X222933809Y-194771428D01*
X223314761Y-194771428D01*
X223493333Y-194866666D01*
X223564761Y-195057142D01*
X223540952Y-195247619D01*
X222564761Y-195438095D01*
X224290952Y-196104761D02*
X224457619Y-194771428D01*
X224409999Y-195152380D02*
X224529047Y-194961904D01*
X224636190Y-194866666D01*
X224838571Y-194771428D01*
X225029047Y-194771428D01*
X226933809Y-194771428D02*
X227695714Y-194771428D01*
X227052857Y-196104761D02*
X227267142Y-194390476D01*
X227386190Y-194200000D01*
X227588571Y-194104761D01*
X227779047Y-194104761D01*
X228481428Y-196104761D02*
X228302857Y-196009523D01*
X228219523Y-195914285D01*
X228148095Y-195723809D01*
X228219523Y-195152380D01*
X228338571Y-194961904D01*
X228445714Y-194866666D01*
X228648095Y-194771428D01*
X228933809Y-194771428D01*
X229112380Y-194866666D01*
X229195714Y-194961904D01*
X229267142Y-195152380D01*
X229195714Y-195723809D01*
X229076666Y-195914285D01*
X228969523Y-196009523D01*
X228767142Y-196104761D01*
X228481428Y-196104761D01*
X230005238Y-196104761D02*
X230171904Y-194771428D01*
X230124285Y-195152380D02*
X230243333Y-194961904D01*
X230350476Y-194866666D01*
X230552857Y-194771428D01*
X230743333Y-194771428D01*
X232683809Y-196009523D02*
X232957619Y-196104761D01*
X233433809Y-196104761D01*
X233636190Y-196009523D01*
X233743333Y-195914285D01*
X233862380Y-195723809D01*
X233886190Y-195533333D01*
X233814761Y-195342857D01*
X233731428Y-195247619D01*
X233552857Y-195152380D01*
X233183809Y-195057142D01*
X233005238Y-194961904D01*
X232921904Y-194866666D01*
X232850476Y-194676190D01*
X232874285Y-194485714D01*
X232993333Y-194295238D01*
X233100476Y-194200000D01*
X233302857Y-194104761D01*
X233779047Y-194104761D01*
X234052857Y-194200000D01*
X234838571Y-194771428D02*
X234588571Y-196771428D01*
X234826666Y-194866666D02*
X235029047Y-194771428D01*
X235410000Y-194771428D01*
X235588571Y-194866666D01*
X235671904Y-194961904D01*
X235743333Y-195152380D01*
X235671904Y-195723809D01*
X235552857Y-195914285D01*
X235445714Y-196009523D01*
X235243333Y-196104761D01*
X234862380Y-196104761D01*
X234683809Y-196009523D01*
X237255238Y-196009523D02*
X237052857Y-196104761D01*
X236671904Y-196104761D01*
X236493333Y-196009523D01*
X236421904Y-195819047D01*
X236517142Y-195057142D01*
X236636190Y-194866666D01*
X236838571Y-194771428D01*
X237219523Y-194771428D01*
X237398095Y-194866666D01*
X237469523Y-195057142D01*
X237445714Y-195247619D01*
X236469523Y-195438095D01*
X238969523Y-196009523D02*
X238767142Y-196104761D01*
X238386190Y-196104761D01*
X238207619Y-196009523D01*
X238136190Y-195819047D01*
X238231428Y-195057142D01*
X238350476Y-194866666D01*
X238552857Y-194771428D01*
X238933809Y-194771428D01*
X239112380Y-194866666D01*
X239183809Y-195057142D01*
X239159999Y-195247619D01*
X238183809Y-195438095D01*
X240779047Y-196009523D02*
X240576666Y-196104761D01*
X240195714Y-196104761D01*
X240017142Y-196009523D01*
X239933809Y-195914285D01*
X239862380Y-195723809D01*
X239933809Y-195152380D01*
X240052857Y-194961904D01*
X240160000Y-194866666D01*
X240362380Y-194771428D01*
X240743333Y-194771428D01*
X240921904Y-194866666D01*
X241624285Y-196104761D02*
X241874285Y-194104761D01*
X242481428Y-196104761D02*
X242612380Y-195057142D01*
X242540952Y-194866666D01*
X242362380Y-194771428D01*
X242076666Y-194771428D01*
X241874285Y-194866666D01*
X241767142Y-194961904D01*
X244874285Y-196009523D02*
X245148095Y-196104761D01*
X245624285Y-196104761D01*
X245826666Y-196009523D01*
X245933809Y-195914285D01*
X246052857Y-195723809D01*
X246076666Y-195533333D01*
X246005238Y-195342857D01*
X245921904Y-195247619D01*
X245743333Y-195152380D01*
X245374285Y-195057142D01*
X245195714Y-194961904D01*
X245112380Y-194866666D01*
X245040952Y-194676190D01*
X245064761Y-194485714D01*
X245183809Y-194295238D01*
X245290952Y-194200000D01*
X245493333Y-194104761D01*
X245969523Y-194104761D01*
X246243333Y-194200000D01*
X246838571Y-194771428D02*
X247148095Y-196104761D01*
X247790952Y-194771428D02*
X247148095Y-196104761D01*
X246898095Y-196580952D01*
X246790952Y-196676190D01*
X246588571Y-196771428D01*
X248552857Y-194771428D02*
X248386190Y-196104761D01*
X248529047Y-194961904D02*
X248636190Y-194866666D01*
X248838571Y-194771428D01*
X249124285Y-194771428D01*
X249302857Y-194866666D01*
X249374285Y-195057142D01*
X249243333Y-196104761D01*
X250076666Y-194771428D02*
X250838571Y-194771428D01*
X250445714Y-194104761D02*
X250231428Y-195819047D01*
X250302857Y-196009523D01*
X250481428Y-196104761D01*
X250671904Y-196104761D01*
X251338571Y-196104761D02*
X251588571Y-194104761D01*
X252195714Y-196104761D02*
X252326666Y-195057142D01*
X252255238Y-194866666D01*
X252076666Y-194771428D01*
X251790952Y-194771428D01*
X251588571Y-194866666D01*
X251481428Y-194961904D01*
X253171904Y-195914285D02*
X253255238Y-196009523D01*
X253148095Y-196104761D01*
X253064761Y-196009523D01*
X253171904Y-195914285D01*
X253148095Y-196104761D01*
X256790952Y-195914285D02*
X256683809Y-196009523D01*
X256386190Y-196104761D01*
X256195714Y-196104761D01*
X255921904Y-196009523D01*
X255755238Y-195819047D01*
X255683809Y-195628571D01*
X255636190Y-195247619D01*
X255671904Y-194961904D01*
X255814761Y-194580952D01*
X255933809Y-194390476D01*
X256148095Y-194200000D01*
X256445714Y-194104761D01*
X256636190Y-194104761D01*
X256910000Y-194200000D01*
X256993333Y-194295238D01*
X258481428Y-196104761D02*
X258612380Y-195057142D01*
X258540952Y-194866666D01*
X258362380Y-194771428D01*
X257981428Y-194771428D01*
X257779047Y-194866666D01*
X258493333Y-196009523D02*
X258290952Y-196104761D01*
X257814761Y-196104761D01*
X257636190Y-196009523D01*
X257564761Y-195819047D01*
X257588571Y-195628571D01*
X257707619Y-195438095D01*
X257910000Y-195342857D01*
X258386190Y-195342857D01*
X258588571Y-195247619D01*
X259350476Y-196009523D02*
X259529047Y-196104761D01*
X259910000Y-196104761D01*
X260112380Y-196009523D01*
X260231428Y-195819047D01*
X260243333Y-195723809D01*
X260171904Y-195533333D01*
X259993333Y-195438095D01*
X259707619Y-195438095D01*
X259529047Y-195342857D01*
X259457619Y-195152380D01*
X259469523Y-195057142D01*
X259588571Y-194866666D01*
X259790952Y-194771428D01*
X260076666Y-194771428D01*
X260255238Y-194866666D01*
X261826666Y-196009523D02*
X261624285Y-196104761D01*
X261243333Y-196104761D01*
X261064761Y-196009523D01*
X260993333Y-195819047D01*
X261088571Y-195057142D01*
X261207619Y-194866666D01*
X261410000Y-194771428D01*
X261790952Y-194771428D01*
X261969523Y-194866666D01*
X262040952Y-195057142D01*
X262017142Y-195247619D01*
X261040952Y-195438095D01*
D10*
D11*
X161332142Y-191492857D02*
X160832142Y-191492857D01*
X160832142Y-192278571D02*
X160832142Y-190778571D01*
X161546428Y-190778571D01*
X162117857Y-192278571D02*
X162117857Y-191278571D01*
X162117857Y-190778571D02*
X162046428Y-190850000D01*
X162117857Y-190921428D01*
X162189285Y-190850000D01*
X162117857Y-190778571D01*
X162117857Y-190921428D01*
X163046428Y-192278571D02*
X162903571Y-192207142D01*
X162832142Y-192064285D01*
X162832142Y-190778571D01*
X164189285Y-192207142D02*
X164046428Y-192278571D01*
X163760714Y-192278571D01*
X163617857Y-192207142D01*
X163546428Y-192064285D01*
X163546428Y-191492857D01*
X163617857Y-191350000D01*
X163760714Y-191278571D01*
X164046428Y-191278571D01*
X164189285Y-191350000D01*
X164260714Y-191492857D01*
X164260714Y-191635714D01*
X163546428Y-191778571D01*
X164903571Y-192135714D02*
X164975000Y-192207142D01*
X164903571Y-192278571D01*
X164832142Y-192207142D01*
X164903571Y-192135714D01*
X164903571Y-192278571D01*
X164903571Y-191350000D02*
X164975000Y-191421428D01*
X164903571Y-191492857D01*
X164832142Y-191421428D01*
X164903571Y-191350000D01*
X164903571Y-191492857D01*
X166546428Y-190778571D02*
X167403571Y-190778571D01*
X166975000Y-192278571D02*
X166975000Y-190778571D01*
X167903571Y-192278571D02*
X167903571Y-190778571D01*
X168617857Y-192278571D02*
X168617857Y-190778571D01*
X169189285Y-190778571D01*
X169332142Y-190850000D01*
X169403571Y-190921428D01*
X169475000Y-191064285D01*
X169475000Y-191278571D01*
X169403571Y-191421428D01*
X169332142Y-191492857D01*
X169189285Y-191564285D01*
X168617857Y-191564285D01*
X170117857Y-192278571D02*
X170117857Y-190778571D01*
X170832142Y-191707142D02*
X171975000Y-191707142D01*
X172546428Y-190778571D02*
X173475000Y-190778571D01*
X172975000Y-191350000D01*
X173189285Y-191350000D01*
X173332142Y-191421428D01*
X173403571Y-191492857D01*
X173475000Y-191635714D01*
X173475000Y-191992857D01*
X173403571Y-192135714D01*
X173332142Y-192207142D01*
X173189285Y-192278571D01*
X172760714Y-192278571D01*
X172617857Y-192207142D01*
X172546428Y-192135714D01*
X174046428Y-190921428D02*
X174117857Y-190850000D01*
X174260714Y-190778571D01*
X174617857Y-190778571D01*
X174760714Y-190850000D01*
X174832142Y-190921428D01*
X174903571Y-191064285D01*
X174903571Y-191207142D01*
X174832142Y-191421428D01*
X173975000Y-192278571D01*
X174903571Y-192278571D01*
X175546428Y-192278571D02*
X175546428Y-190778571D01*
X175689285Y-191707142D02*
X176117857Y-192278571D01*
X176117857Y-191278571D02*
X175546428Y-191850000D01*
X176760714Y-192135714D02*
X176832142Y-192207142D01*
X176760714Y-192278571D01*
X176689285Y-192207142D01*
X176760714Y-192135714D01*
X176760714Y-192278571D01*
X177475000Y-192278571D02*
X177475000Y-190778571D01*
X177617857Y-191707142D02*
X178046428Y-192278571D01*
X178046428Y-191278571D02*
X177475000Y-191850000D01*
X178689285Y-192278571D02*
X178689285Y-191278571D01*
X178689285Y-190778571D02*
X178617857Y-190850000D01*
X178689285Y-190921428D01*
X178760714Y-190850000D01*
X178689285Y-190778571D01*
X178689285Y-190921428D01*
X180046428Y-192207142D02*
X179903571Y-192278571D01*
X179617857Y-192278571D01*
X179475000Y-192207142D01*
X179403571Y-192135714D01*
X179332142Y-191992857D01*
X179332142Y-191564285D01*
X179403571Y-191421428D01*
X179475000Y-191350000D01*
X179617857Y-191278571D01*
X179903571Y-191278571D01*
X180046428Y-191350000D01*
X181332142Y-192278571D02*
X181332142Y-191492857D01*
X181260714Y-191350000D01*
X181117857Y-191278571D01*
X180832142Y-191278571D01*
X180689285Y-191350000D01*
X181332142Y-192207142D02*
X181189285Y-192278571D01*
X180832142Y-192278571D01*
X180689285Y-192207142D01*
X180617857Y-192064285D01*
X180617857Y-191921428D01*
X180689285Y-191778571D01*
X180832142Y-191707142D01*
X181189285Y-191707142D01*
X181332142Y-191635714D01*
X182689285Y-192278571D02*
X182689285Y-190778571D01*
X182689285Y-192207142D02*
X182546428Y-192278571D01*
X182260714Y-192278571D01*
X182117857Y-192207142D01*
X182046428Y-192135714D01*
X181975000Y-191992857D01*
X181975000Y-191564285D01*
X182046428Y-191421428D01*
X182117857Y-191350000D01*
X182260714Y-191278571D01*
X182546428Y-191278571D01*
X182689285Y-191350000D01*
X183046428Y-192421428D02*
X184189285Y-192421428D01*
X184546428Y-191278571D02*
X184546428Y-192778571D01*
X184546428Y-191350000D02*
X184689285Y-191278571D01*
X184975000Y-191278571D01*
X185117857Y-191350000D01*
X185189285Y-191421428D01*
X185260714Y-191564285D01*
X185260714Y-191992857D01*
X185189285Y-192135714D01*
X185117857Y-192207142D01*
X184975000Y-192278571D01*
X184689285Y-192278571D01*
X184546428Y-192207142D01*
X186546428Y-192207142D02*
X186403571Y-192278571D01*
X186117857Y-192278571D01*
X185975000Y-192207142D01*
X185903571Y-192135714D01*
X185832142Y-191992857D01*
X185832142Y-191564285D01*
X185903571Y-191421428D01*
X185975000Y-191350000D01*
X186117857Y-191278571D01*
X186403571Y-191278571D01*
X186546428Y-191350000D01*
X187189285Y-192278571D02*
X187189285Y-190778571D01*
X187189285Y-191350000D02*
X187332142Y-191278571D01*
X187617857Y-191278571D01*
X187760714Y-191350000D01*
X187832142Y-191421428D01*
X187903571Y-191564285D01*
X187903571Y-191992857D01*
X187832142Y-192135714D01*
X187760714Y-192207142D01*
X187617857Y-192278571D01*
X187332142Y-192278571D01*
X187189285Y-192207142D01*
D10*
D11*
X159400000Y-187400000D02*
X267400000Y-187400000D01*
D10*
D11*
X160760714Y-189507142D02*
X160975000Y-189578571D01*
X161332142Y-189578571D01*
X161475000Y-189507142D01*
X161546428Y-189435714D01*
X161617857Y-189292857D01*
X161617857Y-189150000D01*
X161546428Y-189007142D01*
X161475000Y-188935714D01*
X161332142Y-188864285D01*
X161046428Y-188792857D01*
X160903571Y-188721428D01*
X160832142Y-188650000D01*
X160760714Y-188507142D01*
X160760714Y-188364285D01*
X160832142Y-188221428D01*
X160903571Y-188150000D01*
X161046428Y-188078571D01*
X161403571Y-188078571D01*
X161617857Y-188150000D01*
X162260714Y-189578571D02*
X162260714Y-188078571D01*
X162903571Y-189578571D02*
X162903571Y-188792857D01*
X162832142Y-188650000D01*
X162689285Y-188578571D01*
X162475000Y-188578571D01*
X162332142Y-188650000D01*
X162260714Y-188721428D01*
X164189285Y-189507142D02*
X164046428Y-189578571D01*
X163760714Y-189578571D01*
X163617857Y-189507142D01*
X163546428Y-189364285D01*
X163546428Y-188792857D01*
X163617857Y-188650000D01*
X163760714Y-188578571D01*
X164046428Y-188578571D01*
X164189285Y-188650000D01*
X164260714Y-188792857D01*
X164260714Y-188935714D01*
X163546428Y-189078571D01*
X165475000Y-189507142D02*
X165332142Y-189578571D01*
X165046428Y-189578571D01*
X164903571Y-189507142D01*
X164832142Y-189364285D01*
X164832142Y-188792857D01*
X164903571Y-188650000D01*
X165046428Y-188578571D01*
X165332142Y-188578571D01*
X165475000Y-188650000D01*
X165546428Y-188792857D01*
X165546428Y-188935714D01*
X164832142Y-189078571D01*
X165975000Y-188578571D02*
X166546428Y-188578571D01*
X166189285Y-188078571D02*
X166189285Y-189364285D01*
X166260714Y-189507142D01*
X166403571Y-189578571D01*
X166546428Y-189578571D01*
X167046428Y-189435714D02*
X167117857Y-189507142D01*
X167046428Y-189578571D01*
X166975000Y-189507142D01*
X167046428Y-189435714D01*
X167046428Y-189578571D01*
X167046428Y-188650000D02*
X167117857Y-188721428D01*
X167046428Y-188792857D01*
X166975000Y-188721428D01*
X167046428Y-188650000D01*
X167046428Y-188792857D01*
D10*
D12*
X161380714Y-185078571D02*
X161380714Y-186150000D01*
X161309285Y-186364285D01*
X161166428Y-186507142D01*
X160952142Y-186578571D01*
X160809285Y-186578571D01*
X162095000Y-186007142D02*
X163237857Y-186007142D01*
X163952142Y-186578571D02*
X163952142Y-185078571D01*
X164309285Y-185078571D01*
X164523571Y-185150000D01*
X164666428Y-185292857D01*
X164737857Y-185435714D01*
X164809285Y-185721428D01*
X164809285Y-185935714D01*
X164737857Y-186221428D01*
X164666428Y-186364285D01*
X164523571Y-186507142D01*
X164309285Y-186578571D01*
X163952142Y-186578571D01*
X166095000Y-186578571D02*
X166095000Y-185792857D01*
X166023571Y-185650000D01*
X165880714Y-185578571D01*
X165595000Y-185578571D01*
X165452142Y-185650000D01*
X166095000Y-186507142D02*
X165952142Y-186578571D01*
X165595000Y-186578571D01*
X165452142Y-186507142D01*
X165380714Y-186364285D01*
X165380714Y-186221428D01*
X165452142Y-186078571D01*
X165595000Y-186007142D01*
X165952142Y-186007142D01*
X166095000Y-185935714D01*
X166595000Y-185578571D02*
X167166428Y-185578571D01*
X166809285Y-185078571D02*
X166809285Y-186364285D01*
X166880714Y-186507142D01*
X167023571Y-186578571D01*
X167166428Y-186578571D01*
X168309285Y-186578571D02*
X168309285Y-185792857D01*
X168237857Y-185650000D01*
X168095000Y-185578571D01*
X167809285Y-185578571D01*
X167666428Y-185650000D01*
X168309285Y-186507142D02*
X168166428Y-186578571D01*
X167809285Y-186578571D01*
X167666428Y-186507142D01*
X167595000Y-186364285D01*
X167595000Y-186221428D01*
X167666428Y-186078571D01*
X167809285Y-186007142D01*
X168166428Y-186007142D01*
X168309285Y-185935714D01*
D10*
D11*
X161475000Y-182578571D02*
X161475000Y-183792857D01*
X161403571Y-183935714D01*
X161332142Y-184007142D01*
X161189285Y-184078571D01*
X160975000Y-184078571D01*
X160832142Y-184007142D01*
X161475000Y-183507142D02*
X161332142Y-183578571D01*
X161046428Y-183578571D01*
X160903571Y-183507142D01*
X160832142Y-183435714D01*
X160760714Y-183292857D01*
X160760714Y-182864285D01*
X160832142Y-182721428D01*
X160903571Y-182650000D01*
X161046428Y-182578571D01*
X161332142Y-182578571D01*
X161475000Y-182650000D01*
X162189285Y-183578571D02*
X162189285Y-182578571D01*
X162189285Y-182078571D02*
X162117857Y-182150000D01*
X162189285Y-182221428D01*
X162260714Y-182150000D01*
X162189285Y-182078571D01*
X162189285Y-182221428D01*
X162689285Y-182578571D02*
X163260714Y-182578571D01*
X162903571Y-182078571D02*
X162903571Y-183364285D01*
X162975000Y-183507142D01*
X163117857Y-183578571D01*
X163260714Y-183578571D01*
X163760714Y-183578571D02*
X163760714Y-182078571D01*
X164403571Y-183578571D02*
X164403571Y-182792857D01*
X164332142Y-182650000D01*
X164189285Y-182578571D01*
X163975000Y-182578571D01*
X163832142Y-182650000D01*
X163760714Y-182721428D01*
X165760714Y-182578571D02*
X165760714Y-183578571D01*
X165117857Y-182578571D02*
X165117857Y-183364285D01*
X165189285Y-183507142D01*
X165332142Y-183578571D01*
X165546428Y-183578571D01*
X165689285Y-183507142D01*
X165760714Y-183435714D01*
X166475000Y-183578571D02*
X166475000Y-182078571D01*
X166475000Y-182650000D02*
X166617857Y-182578571D01*
X166903571Y-182578571D01*
X167046428Y-182650000D01*
X167117857Y-182721428D01*
X167189285Y-182864285D01*
X167189285Y-183292857D01*
X167117857Y-183435714D01*
X167046428Y-183507142D01*
X166903571Y-183578571D01*
X166617857Y-183578571D01*
X166475000Y-183507142D01*
X167832142Y-183435714D02*
X167903571Y-183507142D01*
X167832142Y-183578571D01*
X167760714Y-183507142D01*
X167832142Y-183435714D01*
X167832142Y-183578571D01*
X169189285Y-183507142D02*
X169046428Y-183578571D01*
X168760714Y-183578571D01*
X168617857Y-183507142D01*
X168546428Y-183435714D01*
X168475000Y-183292857D01*
X168475000Y-182864285D01*
X168546428Y-182721428D01*
X168617857Y-182650000D01*
X168760714Y-182578571D01*
X169046428Y-182578571D01*
X169189285Y-182650000D01*
X170046428Y-183578571D02*
X169903571Y-183507142D01*
X169832142Y-183435714D01*
X169760714Y-183292857D01*
X169760714Y-182864285D01*
X169832142Y-182721428D01*
X169903571Y-182650000D01*
X170046428Y-182578571D01*
X170260714Y-182578571D01*
X170403571Y-182650000D01*
X170475000Y-182721428D01*
X170546428Y-182864285D01*
X170546428Y-183292857D01*
X170475000Y-183435714D01*
X170403571Y-183507142D01*
X170260714Y-183578571D01*
X170046428Y-183578571D01*
X171189285Y-183578571D02*
X171189285Y-182578571D01*
X171189285Y-182721428D02*
X171260714Y-182650000D01*
X171403571Y-182578571D01*
X171617857Y-182578571D01*
X171760714Y-182650000D01*
X171832142Y-182792857D01*
X171832142Y-183578571D01*
X171832142Y-182792857D02*
X171903571Y-182650000D01*
X172046428Y-182578571D01*
X172260714Y-182578571D01*
X172403571Y-182650000D01*
X172475000Y-182792857D01*
X172475000Y-183578571D01*
X174260714Y-182007142D02*
X172975000Y-183935714D01*
X174760714Y-182578571D02*
X174760714Y-183864285D01*
X174689285Y-184007142D01*
X174546428Y-184078571D01*
X174475000Y-184078571D01*
X174760714Y-182078571D02*
X174689285Y-182150000D01*
X174760714Y-182221428D01*
X174832142Y-182150000D01*
X174760714Y-182078571D01*
X174760714Y-182221428D01*
X176046428Y-183507142D02*
X175903571Y-183578571D01*
X175617857Y-183578571D01*
X175475000Y-183507142D01*
X175403571Y-183364285D01*
X175403571Y-182792857D01*
X175475000Y-182650000D01*
X175617857Y-182578571D01*
X175903571Y-182578571D01*
X176046428Y-182650000D01*
X176117857Y-182792857D01*
X176117857Y-182935714D01*
X175403571Y-183078571D01*
X177403571Y-183578571D02*
X177403571Y-182078571D01*
X177403571Y-183507142D02*
X177260714Y-183578571D01*
X176975000Y-183578571D01*
X176832142Y-183507142D01*
X176760714Y-183435714D01*
X176689285Y-183292857D01*
X176689285Y-182864285D01*
X176760714Y-182721428D01*
X176832142Y-182650000D01*
X176975000Y-182578571D01*
X177260714Y-182578571D01*
X177403571Y-182650000D01*
X178117857Y-183578571D02*
X178117857Y-182578571D01*
X178117857Y-182078571D02*
X178046428Y-182150000D01*
X178117857Y-182221428D01*
X178189285Y-182150000D01*
X178117857Y-182078571D01*
X178117857Y-182221428D01*
X178832142Y-183578571D02*
X178832142Y-182578571D01*
X178832142Y-182721428D02*
X178903571Y-182650000D01*
X179046428Y-182578571D01*
X179260714Y-182578571D01*
X179403571Y-182650000D01*
X179475000Y-182792857D01*
X179475000Y-183578571D01*
X179475000Y-182792857D02*
X179546428Y-182650000D01*
X179689285Y-182578571D01*
X179903571Y-182578571D01*
X180046428Y-182650000D01*
X180117857Y-182792857D01*
X180117857Y-183578571D01*
X181475000Y-183578571D02*
X181475000Y-182792857D01*
X181403571Y-182650000D01*
X181260714Y-182578571D01*
X180975000Y-182578571D01*
X180832142Y-182650000D01*
X181475000Y-183507142D02*
X181332142Y-183578571D01*
X180975000Y-183578571D01*
X180832142Y-183507142D01*
X180760714Y-183364285D01*
X180760714Y-183221428D01*
X180832142Y-183078571D01*
X180975000Y-183007142D01*
X181332142Y-183007142D01*
X181475000Y-182935714D01*
X181975000Y-182578571D02*
X182546428Y-182578571D01*
X182189285Y-182078571D02*
X182189285Y-183364285D01*
X182260714Y-183507142D01*
X182403571Y-183578571D01*
X182546428Y-183578571D01*
X182832142Y-182578571D02*
X183403571Y-182578571D01*
X183046428Y-182078571D02*
X183046428Y-183364285D01*
X183117857Y-183507142D01*
X183260714Y-183578571D01*
X183403571Y-183578571D01*
X184546428Y-182578571D02*
X184546428Y-183578571D01*
X184189285Y-182007142D02*
X183832142Y-183078571D01*
X184760714Y-183078571D01*
X185260714Y-182221428D02*
X185332142Y-182150000D01*
X185475000Y-182078571D01*
X185832142Y-182078571D01*
X185975000Y-182150000D01*
X186046428Y-182221428D01*
X186117857Y-182364285D01*
X186117857Y-182507142D01*
X186046428Y-182721428D01*
X185189285Y-183578571D01*
X186117857Y-183578571D01*
X187832142Y-182007142D02*
X186546428Y-183935714D01*
X188117857Y-182578571D02*
X188689285Y-182578571D01*
X188332142Y-182078571D02*
X188332142Y-183364285D01*
X188403571Y-183507142D01*
X188546428Y-183578571D01*
X188689285Y-183578571D01*
X189189285Y-183578571D02*
X189189285Y-182578571D01*
X189189285Y-182078571D02*
X189117857Y-182150000D01*
X189189285Y-182221428D01*
X189260714Y-182150000D01*
X189189285Y-182078571D01*
X189189285Y-182221428D01*
X189903571Y-182578571D02*
X189903571Y-184078571D01*
X189903571Y-182650000D02*
X190046428Y-182578571D01*
X190332142Y-182578571D01*
X190475000Y-182650000D01*
X190546428Y-182721428D01*
X190617857Y-182864285D01*
X190617857Y-183292857D01*
X190546428Y-183435714D01*
X190475000Y-183507142D01*
X190332142Y-183578571D01*
X190046428Y-183578571D01*
X189903571Y-183507142D01*
X191260714Y-183578571D02*
X191260714Y-182578571D01*
X191260714Y-182078571D02*
X191189285Y-182150000D01*
X191260714Y-182221428D01*
X191332142Y-182150000D01*
X191260714Y-182078571D01*
X191260714Y-182221428D01*
D10*
D11*
X160617857Y-179078571D02*
X161475000Y-179078571D01*
X161046428Y-180578571D02*
X161046428Y-179078571D01*
X161975000Y-180578571D02*
X161975000Y-179078571D01*
X162689285Y-180578571D02*
X162689285Y-179078571D01*
X163260714Y-179078571D01*
X163403571Y-179150000D01*
X163475000Y-179221428D01*
X163546428Y-179364285D01*
X163546428Y-179578571D01*
X163475000Y-179721428D01*
X163403571Y-179792857D01*
X163260714Y-179864285D01*
X162689285Y-179864285D01*
X164189285Y-180578571D02*
X164189285Y-179078571D01*
X166689285Y-180578571D02*
X166689285Y-179792857D01*
X166617857Y-179650000D01*
X166475000Y-179578571D01*
X166189285Y-179578571D01*
X166046428Y-179650000D01*
X166689285Y-180507142D02*
X166546428Y-180578571D01*
X166189285Y-180578571D01*
X166046428Y-180507142D01*
X165975000Y-180364285D01*
X165975000Y-180221428D01*
X166046428Y-180078571D01*
X166189285Y-180007142D01*
X166546428Y-180007142D01*
X166689285Y-179935714D01*
X167403571Y-179578571D02*
X167403571Y-180578571D01*
X167403571Y-179721428D02*
X167475000Y-179650000D01*
X167617857Y-179578571D01*
X167832142Y-179578571D01*
X167975000Y-179650000D01*
X168046428Y-179792857D01*
X168046428Y-180578571D01*
X169403571Y-180578571D02*
X169403571Y-179078571D01*
X169403571Y-180507142D02*
X169260714Y-180578571D01*
X168975000Y-180578571D01*
X168832142Y-180507142D01*
X168760714Y-180435714D01*
X168689285Y-180292857D01*
X168689285Y-179864285D01*
X168760714Y-179721428D01*
X168832142Y-179650000D01*
X168975000Y-179578571D01*
X169260714Y-179578571D01*
X169403571Y-179650000D01*
X171260714Y-179792857D02*
X171760714Y-179792857D01*
X171975000Y-180578571D02*
X171260714Y-180578571D01*
X171260714Y-179078571D01*
X171975000Y-179078571D01*
X172832142Y-180578571D02*
X172689285Y-180507142D01*
X172617857Y-180364285D01*
X172617857Y-179078571D01*
X173975000Y-180507142D02*
X173832142Y-180578571D01*
X173546428Y-180578571D01*
X173403571Y-180507142D01*
X173332142Y-180364285D01*
X173332142Y-179792857D01*
X173403571Y-179650000D01*
X173546428Y-179578571D01*
X173832142Y-179578571D01*
X173975000Y-179650000D01*
X174046428Y-179792857D01*
X174046428Y-179935714D01*
X173332142Y-180078571D01*
X175332142Y-180507142D02*
X175189285Y-180578571D01*
X174903571Y-180578571D01*
X174760714Y-180507142D01*
X174689285Y-180435714D01*
X174617857Y-180292857D01*
X174617857Y-179864285D01*
X174689285Y-179721428D01*
X174760714Y-179650000D01*
X174903571Y-179578571D01*
X175189285Y-179578571D01*
X175332142Y-179650000D01*
X175760714Y-179578571D02*
X176332142Y-179578571D01*
X175975000Y-179078571D02*
X175975000Y-180364285D01*
X176046428Y-180507142D01*
X176189285Y-180578571D01*
X176332142Y-180578571D01*
X176832142Y-180578571D02*
X176832142Y-179578571D01*
X176832142Y-179864285D02*
X176903571Y-179721428D01*
X176975000Y-179650000D01*
X177117857Y-179578571D01*
X177260714Y-179578571D01*
X177760714Y-180578571D02*
X177760714Y-179578571D01*
X177760714Y-179078571D02*
X177689285Y-179150000D01*
X177760714Y-179221428D01*
X177832142Y-179150000D01*
X177760714Y-179078571D01*
X177760714Y-179221428D01*
X179117857Y-180507142D02*
X178975000Y-180578571D01*
X178689285Y-180578571D01*
X178546428Y-180507142D01*
X178475000Y-180435714D01*
X178403571Y-180292857D01*
X178403571Y-179864285D01*
X178475000Y-179721428D01*
X178546428Y-179650000D01*
X178689285Y-179578571D01*
X178975000Y-179578571D01*
X179117857Y-179650000D01*
X180475000Y-180578571D02*
X179760714Y-180578571D01*
X179760714Y-179078571D01*
X181617857Y-180578571D02*
X181617857Y-179792857D01*
X181546428Y-179650000D01*
X181403571Y-179578571D01*
X181117857Y-179578571D01*
X180975000Y-179650000D01*
X181617857Y-180507142D02*
X181475000Y-180578571D01*
X181117857Y-180578571D01*
X180975000Y-180507142D01*
X180903571Y-180364285D01*
X180903571Y-180221428D01*
X180975000Y-180078571D01*
X181117857Y-180007142D01*
X181475000Y-180007142D01*
X181617857Y-179935714D01*
X182332142Y-180578571D02*
X182332142Y-179078571D01*
X182332142Y-179650000D02*
X182475000Y-179578571D01*
X182760714Y-179578571D01*
X182903571Y-179650000D01*
X182975000Y-179721428D01*
X183046428Y-179864285D01*
X183046428Y-180292857D01*
X182975000Y-180435714D01*
X182903571Y-180507142D01*
X182760714Y-180578571D01*
X182475000Y-180578571D01*
X182332142Y-180507142D01*
X186046428Y-180578571D02*
X185975000Y-180578571D01*
X185832142Y-180507142D01*
X185617857Y-180292857D01*
X185260714Y-179864285D01*
X185117857Y-179650000D01*
X185046428Y-179435714D01*
X185046428Y-179292857D01*
X185117857Y-179150000D01*
X185260714Y-179078571D01*
X185332142Y-179078571D01*
X185475000Y-179150000D01*
X185546428Y-179292857D01*
X185546428Y-179364285D01*
X185475000Y-179507142D01*
X185403571Y-179578571D01*
X184975000Y-179864285D01*
X184903571Y-179935714D01*
X184832142Y-180078571D01*
X184832142Y-180292857D01*
X184903571Y-180435714D01*
X184975000Y-180507142D01*
X185117857Y-180578571D01*
X185332142Y-180578571D01*
X185475000Y-180507142D01*
X185546428Y-180435714D01*
X185760714Y-180150000D01*
X185832142Y-179935714D01*
X185832142Y-179792857D01*
X188260714Y-179078571D02*
X188260714Y-180150000D01*
X188189285Y-180364285D01*
X188046428Y-180507142D01*
X187832142Y-180578571D01*
X187689285Y-180578571D01*
X189546428Y-180507142D02*
X189403571Y-180578571D01*
X189117857Y-180578571D01*
X188975000Y-180507142D01*
X188903571Y-180364285D01*
X188903571Y-179792857D01*
X188975000Y-179650000D01*
X189117857Y-179578571D01*
X189403571Y-179578571D01*
X189546428Y-179650000D01*
X189617857Y-179792857D01*
X189617857Y-179935714D01*
X188903571Y-180078571D01*
X190903571Y-180578571D02*
X190903571Y-179078571D01*
X190903571Y-180507142D02*
X190760714Y-180578571D01*
X190475000Y-180578571D01*
X190332142Y-180507142D01*
X190260714Y-180435714D01*
X190189285Y-180292857D01*
X190189285Y-179864285D01*
X190260714Y-179721428D01*
X190332142Y-179650000D01*
X190475000Y-179578571D01*
X190760714Y-179578571D01*
X190903571Y-179650000D01*
X191617857Y-180578571D02*
X191617857Y-179578571D01*
X191617857Y-179078571D02*
X191546428Y-179150000D01*
X191617857Y-179221428D01*
X191689285Y-179150000D01*
X191617857Y-179078571D01*
X191617857Y-179221428D01*
X192332142Y-180578571D02*
X192332142Y-179578571D01*
X192332142Y-179721428D02*
X192403571Y-179650000D01*
X192546428Y-179578571D01*
X192760714Y-179578571D01*
X192903571Y-179650000D01*
X192975000Y-179792857D01*
X192975000Y-180578571D01*
X192975000Y-179792857D02*
X193046428Y-179650000D01*
X193189285Y-179578571D01*
X193403571Y-179578571D01*
X193546428Y-179650000D01*
X193617857Y-179792857D01*
X193617857Y-180578571D01*
X194975000Y-180578571D02*
X194975000Y-179792857D01*
X194903571Y-179650000D01*
X194760714Y-179578571D01*
X194475000Y-179578571D01*
X194332142Y-179650000D01*
X194975000Y-180507142D02*
X194832142Y-180578571D01*
X194475000Y-180578571D01*
X194332142Y-180507142D01*
X194260714Y-180364285D01*
X194260714Y-180221428D01*
X194332142Y-180078571D01*
X194475000Y-180007142D01*
X194832142Y-180007142D01*
X194975000Y-179935714D01*
X195475000Y-179578571D02*
X196046428Y-179578571D01*
X195689285Y-179078571D02*
X195689285Y-180364285D01*
X195760714Y-180507142D01*
X195903571Y-180578571D01*
X196046428Y-180578571D01*
X196332142Y-179578571D02*
X196903571Y-179578571D01*
X196546428Y-179078571D02*
X196546428Y-180364285D01*
X196617857Y-180507142D01*
X196760714Y-180578571D01*
X196903571Y-180578571D01*
X198046428Y-179578571D02*
X198046428Y-180578571D01*
X197689285Y-179007142D02*
X197332142Y-180078571D01*
X198260714Y-180078571D01*
X198760714Y-179221428D02*
X198832142Y-179150000D01*
X198975000Y-179078571D01*
X199332142Y-179078571D01*
X199475000Y-179150000D01*
X199546428Y-179221428D01*
X199617857Y-179364285D01*
X199617857Y-179507142D01*
X199546428Y-179721428D01*
X198689285Y-180578571D01*
X199617857Y-180578571D01*
D10*
D11*
X161260714Y-178150000D02*
X161189285Y-178078571D01*
X161046428Y-177864285D01*
X160975000Y-177721428D01*
X160903571Y-177507142D01*
X160832142Y-177150000D01*
X160832142Y-176864285D01*
X160903571Y-176507142D01*
X160975000Y-176292857D01*
X161046428Y-176150000D01*
X161189285Y-175935714D01*
X161260714Y-175864285D01*
X162689285Y-177435714D02*
X162617857Y-177507142D01*
X162403571Y-177578571D01*
X162260714Y-177578571D01*
X162046428Y-177507142D01*
X161903571Y-177364285D01*
X161832142Y-177221428D01*
X161760714Y-176935714D01*
X161760714Y-176721428D01*
X161832142Y-176435714D01*
X161903571Y-176292857D01*
X162046428Y-176150000D01*
X162260714Y-176078571D01*
X162403571Y-176078571D01*
X162617857Y-176150000D01*
X162689285Y-176221428D01*
X163189285Y-178150000D02*
X163260714Y-178078571D01*
X163403571Y-177864285D01*
X163475000Y-177721428D01*
X163546428Y-177507142D01*
X163617857Y-177150000D01*
X163617857Y-176864285D01*
X163546428Y-176507142D01*
X163475000Y-176292857D01*
X163403571Y-176150000D01*
X163260714Y-175935714D01*
X163189285Y-175864285D01*
X166260714Y-177578571D02*
X165403571Y-177578571D01*
X165832142Y-177578571D02*
X165832142Y-176078571D01*
X165689285Y-176292857D01*
X165546428Y-176435714D01*
X165403571Y-176507142D01*
X166975000Y-177578571D02*
X167260714Y-177578571D01*
X167403571Y-177507142D01*
X167475000Y-177435714D01*
X167617857Y-177221428D01*
X167689285Y-176935714D01*
X167689285Y-176364285D01*
X167617857Y-176221428D01*
X167546428Y-176150000D01*
X167403571Y-176078571D01*
X167117857Y-176078571D01*
X166975000Y-176150000D01*
X166903571Y-176221428D01*
X166832142Y-176364285D01*
X166832142Y-176721428D01*
X166903571Y-176864285D01*
X166975000Y-176935714D01*
X167117857Y-177007142D01*
X167403571Y-177007142D01*
X167546428Y-176935714D01*
X167617857Y-176864285D01*
X167689285Y-176721428D01*
X168546428Y-176721428D02*
X168403571Y-176650000D01*
X168332142Y-176578571D01*
X168260714Y-176435714D01*
X168260714Y-176364285D01*
X168332142Y-176221428D01*
X168403571Y-176150000D01*
X168546428Y-176078571D01*
X168832142Y-176078571D01*
X168975000Y-176150000D01*
X169046428Y-176221428D01*
X169117857Y-176364285D01*
X169117857Y-176435714D01*
X169046428Y-176578571D01*
X168975000Y-176650000D01*
X168832142Y-176721428D01*
X168546428Y-176721428D01*
X168403571Y-176792857D01*
X168332142Y-176864285D01*
X168260714Y-177007142D01*
X168260714Y-177292857D01*
X168332142Y-177435714D01*
X168403571Y-177507142D01*
X168546428Y-177578571D01*
X168832142Y-177578571D01*
X168975000Y-177507142D01*
X169046428Y-177435714D01*
X169117857Y-177292857D01*
X169117857Y-177007142D01*
X169046428Y-176864285D01*
X168975000Y-176792857D01*
X168832142Y-176721428D01*
X169617857Y-176078571D02*
X170546428Y-176078571D01*
X170046428Y-176650000D01*
X170260714Y-176650000D01*
X170403571Y-176721428D01*
X170475000Y-176792857D01*
X170546428Y-176935714D01*
X170546428Y-177292857D01*
X170475000Y-177435714D01*
X170403571Y-177507142D01*
X170260714Y-177578571D01*
X169832142Y-177578571D01*
X169689285Y-177507142D01*
X169617857Y-177435714D01*
X172332142Y-177007142D02*
X173475000Y-177007142D01*
X175760714Y-176078571D02*
X175760714Y-177150000D01*
X175689285Y-177364285D01*
X175546428Y-177507142D01*
X175332142Y-177578571D01*
X175189285Y-177578571D01*
X176475000Y-177007142D02*
X177617857Y-177007142D01*
X178332142Y-177578571D02*
X178332142Y-176078571D01*
X178689285Y-176078571D01*
X178903571Y-176150000D01*
X179046428Y-176292857D01*
X179117857Y-176435714D01*
X179189285Y-176721428D01*
X179189285Y-176935714D01*
X179117857Y-177221428D01*
X179046428Y-177364285D01*
X178903571Y-177507142D01*
X178689285Y-177578571D01*
X178332142Y-177578571D01*
X180475000Y-177578571D02*
X180475000Y-176792857D01*
X180403571Y-176650000D01*
X180260714Y-176578571D01*
X179975000Y-176578571D01*
X179832142Y-176650000D01*
X180475000Y-177507142D02*
X180332142Y-177578571D01*
X179975000Y-177578571D01*
X179832142Y-177507142D01*
X179760714Y-177364285D01*
X179760714Y-177221428D01*
X179832142Y-177078571D01*
X179975000Y-177007142D01*
X180332142Y-177007142D01*
X180475000Y-176935714D01*
X180975000Y-176578571D02*
X181546428Y-176578571D01*
X181189285Y-176078571D02*
X181189285Y-177364285D01*
X181260714Y-177507142D01*
X181403571Y-177578571D01*
X181546428Y-177578571D01*
X182689285Y-177578571D02*
X182689285Y-176792857D01*
X182617857Y-176650000D01*
X182475000Y-176578571D01*
X182189285Y-176578571D01*
X182046428Y-176650000D01*
X182689285Y-177507142D02*
X182546428Y-177578571D01*
X182189285Y-177578571D01*
X182046428Y-177507142D01*
X181975000Y-177364285D01*
X181975000Y-177221428D01*
X182046428Y-177078571D01*
X182189285Y-177007142D01*
X182546428Y-177007142D01*
X182689285Y-176935714D01*
X184975000Y-178150000D02*
X184903571Y-178078571D01*
X184760714Y-177864285D01*
X184689285Y-177721428D01*
X184617857Y-177507142D01*
X184546428Y-177150000D01*
X184546428Y-176864285D01*
X184617857Y-176507142D01*
X184689285Y-176292857D01*
X184760714Y-176150000D01*
X184903571Y-175935714D01*
X184975000Y-175864285D01*
X185832142Y-176078571D02*
X186117857Y-176078571D01*
X186260714Y-176150000D01*
X186403571Y-176292857D01*
X186475000Y-176578571D01*
X186475000Y-177078571D01*
X186403571Y-177364285D01*
X186260714Y-177507142D01*
X186117857Y-177578571D01*
X185832142Y-177578571D01*
X185689285Y-177507142D01*
X185546428Y-177364285D01*
X185475000Y-177078571D01*
X185475000Y-176578571D01*
X185546428Y-176292857D01*
X185689285Y-176150000D01*
X185832142Y-176078571D01*
X187117857Y-176578571D02*
X187117857Y-178078571D01*
X187117857Y-176650000D02*
X187260714Y-176578571D01*
X187546428Y-176578571D01*
X187689285Y-176650000D01*
X187760714Y-176721428D01*
X187832142Y-176864285D01*
X187832142Y-177292857D01*
X187760714Y-177435714D01*
X187689285Y-177507142D01*
X187546428Y-177578571D01*
X187260714Y-177578571D01*
X187117857Y-177507142D01*
X189046428Y-177507142D02*
X188903571Y-177578571D01*
X188617857Y-177578571D01*
X188475000Y-177507142D01*
X188403571Y-177364285D01*
X188403571Y-176792857D01*
X188475000Y-176650000D01*
X188617857Y-176578571D01*
X188903571Y-176578571D01*
X189046428Y-176650000D01*
X189117857Y-176792857D01*
X189117857Y-176935714D01*
X188403571Y-177078571D01*
X189760714Y-176578571D02*
X189760714Y-177578571D01*
X189760714Y-176721428D02*
X189832142Y-176650000D01*
X189975000Y-176578571D01*
X190189285Y-176578571D01*
X190332142Y-176650000D01*
X190403571Y-176792857D01*
X190403571Y-177578571D01*
X192189285Y-177507142D02*
X192332142Y-177578571D01*
X192617857Y-177578571D01*
X192760714Y-177507142D01*
X192832142Y-177364285D01*
X192832142Y-177292857D01*
X192760714Y-177150000D01*
X192617857Y-177078571D01*
X192403571Y-177078571D01*
X192260714Y-177007142D01*
X192189285Y-176864285D01*
X192189285Y-176792857D01*
X192260714Y-176650000D01*
X192403571Y-176578571D01*
X192617857Y-176578571D01*
X192760714Y-176650000D01*
X193689285Y-177578571D02*
X193546428Y-177507142D01*
X193475000Y-177435714D01*
X193403571Y-177292857D01*
X193403571Y-176864285D01*
X193475000Y-176721428D01*
X193546428Y-176650000D01*
X193689285Y-176578571D01*
X193903571Y-176578571D01*
X194046428Y-176650000D01*
X194117857Y-176721428D01*
X194189285Y-176864285D01*
X194189285Y-177292857D01*
X194117857Y-177435714D01*
X194046428Y-177507142D01*
X193903571Y-177578571D01*
X193689285Y-177578571D01*
X195475000Y-176578571D02*
X195475000Y-177578571D01*
X194832142Y-176578571D02*
X194832142Y-177364285D01*
X194903571Y-177507142D01*
X195046428Y-177578571D01*
X195260714Y-177578571D01*
X195403571Y-177507142D01*
X195475000Y-177435714D01*
X196189285Y-177578571D02*
X196189285Y-176578571D01*
X196189285Y-176864285D02*
X196260714Y-176721428D01*
X196332142Y-176650000D01*
X196475000Y-176578571D01*
X196617857Y-176578571D01*
X197760714Y-177507142D02*
X197617857Y-177578571D01*
X197332142Y-177578571D01*
X197189285Y-177507142D01*
X197117857Y-177435714D01*
X197046428Y-177292857D01*
X197046428Y-176864285D01*
X197117857Y-176721428D01*
X197189285Y-176650000D01*
X197332142Y-176578571D01*
X197617857Y-176578571D01*
X197760714Y-176650000D01*
X198975000Y-177507142D02*
X198832142Y-177578571D01*
X198546428Y-177578571D01*
X198403571Y-177507142D01*
X198332142Y-177364285D01*
X198332142Y-176792857D01*
X198403571Y-176650000D01*
X198546428Y-176578571D01*
X198832142Y-176578571D01*
X198975000Y-176650000D01*
X199046428Y-176792857D01*
X199046428Y-176935714D01*
X198332142Y-177078571D01*
X201475000Y-177578571D02*
X201475000Y-176792857D01*
X201403571Y-176650000D01*
X201260714Y-176578571D01*
X200975000Y-176578571D01*
X200832142Y-176650000D01*
X201475000Y-177507142D02*
X201332142Y-177578571D01*
X200975000Y-177578571D01*
X200832142Y-177507142D01*
X200760714Y-177364285D01*
X200760714Y-177221428D01*
X200832142Y-177078571D01*
X200975000Y-177007142D01*
X201332142Y-177007142D01*
X201475000Y-176935714D01*
X202832142Y-177507142D02*
X202689285Y-177578571D01*
X202403571Y-177578571D01*
X202260714Y-177507142D01*
X202189285Y-177435714D01*
X202117857Y-177292857D01*
X202117857Y-176864285D01*
X202189285Y-176721428D01*
X202260714Y-176650000D01*
X202403571Y-176578571D01*
X202689285Y-176578571D01*
X202832142Y-176650000D01*
X203260714Y-176578571D02*
X203832142Y-176578571D01*
X203475000Y-176078571D02*
X203475000Y-177364285D01*
X203546428Y-177507142D01*
X203689285Y-177578571D01*
X203832142Y-177578571D01*
X204975000Y-176578571D02*
X204975000Y-177578571D01*
X204332142Y-176578571D02*
X204332142Y-177364285D01*
X204403571Y-177507142D01*
X204546428Y-177578571D01*
X204760714Y-177578571D01*
X204903571Y-177507142D01*
X204975000Y-177435714D01*
X206332142Y-177578571D02*
X206332142Y-176792857D01*
X206260714Y-176650000D01*
X206117857Y-176578571D01*
X205832142Y-176578571D01*
X205689285Y-176650000D01*
X206332142Y-177507142D02*
X206189285Y-177578571D01*
X205832142Y-177578571D01*
X205689285Y-177507142D01*
X205617857Y-177364285D01*
X205617857Y-177221428D01*
X205689285Y-177078571D01*
X205832142Y-177007142D01*
X206189285Y-177007142D01*
X206332142Y-176935714D01*
X207260714Y-177578571D02*
X207117857Y-177507142D01*
X207046428Y-177364285D01*
X207046428Y-176078571D01*
X208046428Y-177578571D02*
X207903571Y-177507142D01*
X207832142Y-177364285D01*
X207832142Y-176078571D01*
X208475000Y-176578571D02*
X208832142Y-177578571D01*
X209189285Y-176578571D02*
X208832142Y-177578571D01*
X208689285Y-177935714D01*
X208617857Y-178007142D01*
X208475000Y-178078571D01*
X209617857Y-178150000D02*
X209689285Y-178078571D01*
X209832142Y-177864285D01*
X209903571Y-177721428D01*
X209975000Y-177507142D01*
X210046428Y-177150000D01*
X210046428Y-176864285D01*
X209975000Y-176507142D01*
X209903571Y-176292857D01*
X209832142Y-176150000D01*
X209689285Y-175935714D01*
X209617857Y-175864285D01*
D10*
D11*
X179400000Y-197400000D02*
X179400000Y-200400000D01*
D10*
D11*
X243400000Y-197400000D02*
X243400000Y-203900000D01*
X138049975Y-114325400D02*
G75*
G03X138049975Y-114325400I-331175J0D01*
G01*
X112218175Y-125603000D02*
G75*
G03X112218175Y-125603000I-331175J0D01*
G01*
D14*
X164628285Y-102467228D02*
X165208857Y-102467228D01*
X164918571Y-102757514D02*
X164918571Y-102176942D01*
X165934571Y-101995514D02*
X165571714Y-101995514D01*
X165535428Y-102358371D01*
X165571714Y-102322085D01*
X165644285Y-102285800D01*
X165825714Y-102285800D01*
X165898285Y-102322085D01*
X165934571Y-102358371D01*
X165970857Y-102430942D01*
X165970857Y-102612371D01*
X165934571Y-102684942D01*
X165898285Y-102721228D01*
X165825714Y-102757514D01*
X165644285Y-102757514D01*
X165571714Y-102721228D01*
X165535428Y-102684942D01*
X166188571Y-101995514D02*
X166442571Y-102757514D01*
X166696571Y-101995514D01*
X164864142Y-98983800D02*
X164791571Y-98947514D01*
X164682714Y-98947514D01*
X164573857Y-98983800D01*
X164501285Y-99056371D01*
X164465000Y-99128942D01*
X164428714Y-99274085D01*
X164428714Y-99382942D01*
X164465000Y-99528085D01*
X164501285Y-99600657D01*
X164573857Y-99673228D01*
X164682714Y-99709514D01*
X164755285Y-99709514D01*
X164864142Y-99673228D01*
X164900428Y-99636942D01*
X164900428Y-99382942D01*
X164755285Y-99382942D01*
X165227000Y-99201514D02*
X165227000Y-99709514D01*
X165227000Y-99274085D02*
X165263285Y-99237800D01*
X165335857Y-99201514D01*
X165444714Y-99201514D01*
X165517285Y-99237800D01*
X165553571Y-99310371D01*
X165553571Y-99709514D01*
X166243000Y-99709514D02*
X166243000Y-98947514D01*
X166243000Y-99673228D02*
X166170428Y-99709514D01*
X166025285Y-99709514D01*
X165952714Y-99673228D01*
X165916428Y-99636942D01*
X165880142Y-99564371D01*
X165880142Y-99346657D01*
X165916428Y-99274085D01*
X165952714Y-99237800D01*
X166025285Y-99201514D01*
X166170428Y-99201514D01*
X166243000Y-99237800D01*
D12*
X107983571Y-134730371D02*
X107983571Y-135944657D01*
X107912142Y-136087514D01*
X107840714Y-136158942D01*
X107697857Y-136230371D01*
X107483571Y-136230371D01*
X107340714Y-136158942D01*
X107983571Y-135658942D02*
X107840714Y-135730371D01*
X107555000Y-135730371D01*
X107412142Y-135658942D01*
X107340714Y-135587514D01*
X107269285Y-135444657D01*
X107269285Y-135016085D01*
X107340714Y-134873228D01*
X107412142Y-134801800D01*
X107555000Y-134730371D01*
X107840714Y-134730371D01*
X107983571Y-134801800D01*
X108697857Y-135730371D02*
X108697857Y-134730371D01*
X108697857Y-134230371D02*
X108626428Y-134301800D01*
X108697857Y-134373228D01*
X108769285Y-134301800D01*
X108697857Y-134230371D01*
X108697857Y-134373228D01*
X109197857Y-134730371D02*
X109769285Y-134730371D01*
X109412142Y-134230371D02*
X109412142Y-135516085D01*
X109483571Y-135658942D01*
X109626428Y-135730371D01*
X109769285Y-135730371D01*
X110269285Y-135730371D02*
X110269285Y-134230371D01*
X110912142Y-135730371D02*
X110912142Y-134944657D01*
X110840714Y-134801800D01*
X110697857Y-134730371D01*
X110483571Y-134730371D01*
X110340714Y-134801800D01*
X110269285Y-134873228D01*
X112269285Y-134730371D02*
X112269285Y-135730371D01*
X111626428Y-134730371D02*
X111626428Y-135516085D01*
X111697857Y-135658942D01*
X111840714Y-135730371D01*
X112055000Y-135730371D01*
X112197857Y-135658942D01*
X112269285Y-135587514D01*
X112983571Y-135730371D02*
X112983571Y-134230371D01*
X112983571Y-134801800D02*
X113126428Y-134730371D01*
X113412142Y-134730371D01*
X113555000Y-134801800D01*
X113626428Y-134873228D01*
X113697857Y-135016085D01*
X113697857Y-135444657D01*
X113626428Y-135587514D01*
X113555000Y-135658942D01*
X113412142Y-135730371D01*
X113126428Y-135730371D01*
X112983571Y-135658942D01*
X114340714Y-135587514D02*
X114412142Y-135658942D01*
X114340714Y-135730371D01*
X114269285Y-135658942D01*
X114340714Y-135587514D01*
X114340714Y-135730371D01*
X115697857Y-135658942D02*
X115555000Y-135730371D01*
X115269285Y-135730371D01*
X115126428Y-135658942D01*
X115055000Y-135587514D01*
X114983571Y-135444657D01*
X114983571Y-135016085D01*
X115055000Y-134873228D01*
X115126428Y-134801800D01*
X115269285Y-134730371D01*
X115555000Y-134730371D01*
X115697857Y-134801800D01*
X116555000Y-135730371D02*
X116412142Y-135658942D01*
X116340714Y-135587514D01*
X116269285Y-135444657D01*
X116269285Y-135016085D01*
X116340714Y-134873228D01*
X116412142Y-134801800D01*
X116555000Y-134730371D01*
X116769285Y-134730371D01*
X116912142Y-134801800D01*
X116983571Y-134873228D01*
X117055000Y-135016085D01*
X117055000Y-135444657D01*
X116983571Y-135587514D01*
X116912142Y-135658942D01*
X116769285Y-135730371D01*
X116555000Y-135730371D01*
X117697857Y-135730371D02*
X117697857Y-134730371D01*
X117697857Y-134873228D02*
X117769285Y-134801800D01*
X117912142Y-134730371D01*
X118126428Y-134730371D01*
X118269285Y-134801800D01*
X118340714Y-134944657D01*
X118340714Y-135730371D01*
X118340714Y-134944657D02*
X118412142Y-134801800D01*
X118555000Y-134730371D01*
X118769285Y-134730371D01*
X118912142Y-134801800D01*
X118983571Y-134944657D01*
X118983571Y-135730371D01*
X120769285Y-134158942D02*
X119483571Y-136087514D01*
X121269285Y-134730371D02*
X121269285Y-136016085D01*
X121197857Y-136158942D01*
X121055000Y-136230371D01*
X120983571Y-136230371D01*
X121269285Y-134230371D02*
X121197857Y-134301800D01*
X121269285Y-134373228D01*
X121340714Y-134301800D01*
X121269285Y-134230371D01*
X121269285Y-134373228D01*
X122555000Y-135658942D02*
X122412142Y-135730371D01*
X122126428Y-135730371D01*
X121983571Y-135658942D01*
X121912142Y-135516085D01*
X121912142Y-134944657D01*
X121983571Y-134801800D01*
X122126428Y-134730371D01*
X122412142Y-134730371D01*
X122555000Y-134801800D01*
X122626428Y-134944657D01*
X122626428Y-135087514D01*
X121912142Y-135230371D01*
X123912142Y-135730371D02*
X123912142Y-134230371D01*
X123912142Y-135658942D02*
X123769285Y-135730371D01*
X123483571Y-135730371D01*
X123340714Y-135658942D01*
X123269285Y-135587514D01*
X123197857Y-135444657D01*
X123197857Y-135016085D01*
X123269285Y-134873228D01*
X123340714Y-134801800D01*
X123483571Y-134730371D01*
X123769285Y-134730371D01*
X123912142Y-134801800D01*
X124626428Y-135730371D02*
X124626428Y-134730371D01*
X124626428Y-134230371D02*
X124555000Y-134301800D01*
X124626428Y-134373228D01*
X124697857Y-134301800D01*
X124626428Y-134230371D01*
X124626428Y-134373228D01*
X125340714Y-135730371D02*
X125340714Y-134730371D01*
X125340714Y-134873228D02*
X125412142Y-134801800D01*
X125555000Y-134730371D01*
X125769285Y-134730371D01*
X125912142Y-134801800D01*
X125983571Y-134944657D01*
X125983571Y-135730371D01*
X125983571Y-134944657D02*
X126055000Y-134801800D01*
X126197857Y-134730371D01*
X126412142Y-134730371D01*
X126555000Y-134801800D01*
X126626428Y-134944657D01*
X126626428Y-135730371D01*
X127983571Y-135730371D02*
X127983571Y-134944657D01*
X127912142Y-134801800D01*
X127769285Y-134730371D01*
X127483571Y-134730371D01*
X127340714Y-134801800D01*
X127983571Y-135658942D02*
X127840714Y-135730371D01*
X127483571Y-135730371D01*
X127340714Y-135658942D01*
X127269285Y-135516085D01*
X127269285Y-135373228D01*
X127340714Y-135230371D01*
X127483571Y-135158942D01*
X127840714Y-135158942D01*
X127983571Y-135087514D01*
X128483571Y-134730371D02*
X129055000Y-134730371D01*
X128697857Y-134230371D02*
X128697857Y-135516085D01*
X128769285Y-135658942D01*
X128912142Y-135730371D01*
X129055000Y-135730371D01*
X129340714Y-134730371D02*
X129912142Y-134730371D01*
X129555000Y-134230371D02*
X129555000Y-135516085D01*
X129626428Y-135658942D01*
X129769285Y-135730371D01*
X129912142Y-135730371D01*
X131055000Y-134730371D02*
X131055000Y-135730371D01*
X130697857Y-134158942D02*
X130340714Y-135230371D01*
X131269285Y-135230371D01*
X131769285Y-134373228D02*
X131840714Y-134301800D01*
X131983571Y-134230371D01*
X132340714Y-134230371D01*
X132483571Y-134301800D01*
X132555000Y-134373228D01*
X132626428Y-134516085D01*
X132626428Y-134658942D01*
X132555000Y-134873228D01*
X131697857Y-135730371D01*
X132626428Y-135730371D01*
X134340714Y-134158942D02*
X133055000Y-136087514D01*
X134626428Y-134730371D02*
X135197857Y-134730371D01*
X134840714Y-134230371D02*
X134840714Y-135516085D01*
X134912142Y-135658942D01*
X135055000Y-135730371D01*
X135197857Y-135730371D01*
X135697857Y-135730371D02*
X135697857Y-134730371D01*
X135697857Y-134230371D02*
X135626428Y-134301800D01*
X135697857Y-134373228D01*
X135769285Y-134301800D01*
X135697857Y-134230371D01*
X135697857Y-134373228D01*
X136412142Y-134730371D02*
X136412142Y-136230371D01*
X136412142Y-134801800D02*
X136555000Y-134730371D01*
X136840714Y-134730371D01*
X136983571Y-134801800D01*
X137055000Y-134873228D01*
X137126428Y-135016085D01*
X137126428Y-135444657D01*
X137055000Y-135587514D01*
X136983571Y-135658942D01*
X136840714Y-135730371D01*
X136555000Y-135730371D01*
X136412142Y-135658942D01*
X137769285Y-135730371D02*
X137769285Y-134730371D01*
X137769285Y-134230371D02*
X137697857Y-134301800D01*
X137769285Y-134373228D01*
X137840714Y-134301800D01*
X137769285Y-134230371D01*
X137769285Y-134373228D01*
D15*
X138633200Y-145161000D02*
X140208000Y-143586200D01*
X82296000Y-143586200D02*
X83870800Y-145161000D01*
D12*
X85687142Y-99813371D02*
X86544285Y-99813371D01*
X86115714Y-101313371D02*
X86115714Y-99813371D01*
X87044285Y-101313371D02*
X87044285Y-99813371D01*
X87758571Y-101313371D02*
X87758571Y-99813371D01*
X88330000Y-99813371D01*
X88472857Y-99884800D01*
X88544285Y-99956228D01*
X88615714Y-100099085D01*
X88615714Y-100313371D01*
X88544285Y-100456228D01*
X88472857Y-100527657D01*
X88330000Y-100599085D01*
X87758571Y-100599085D01*
X89258571Y-101313371D02*
X89258571Y-99813371D01*
X89972857Y-100741942D02*
X91115714Y-100741942D01*
X91687142Y-99813371D02*
X92615714Y-99813371D01*
X92115714Y-100384800D01*
X92330000Y-100384800D01*
X92472857Y-100456228D01*
X92544285Y-100527657D01*
X92615714Y-100670514D01*
X92615714Y-101027657D01*
X92544285Y-101170514D01*
X92472857Y-101241942D01*
X92330000Y-101313371D01*
X91901428Y-101313371D01*
X91758571Y-101241942D01*
X91687142Y-101170514D01*
X93187142Y-99956228D02*
X93258571Y-99884800D01*
X93401428Y-99813371D01*
X93758571Y-99813371D01*
X93901428Y-99884800D01*
X93972857Y-99956228D01*
X94044285Y-100099085D01*
X94044285Y-100241942D01*
X93972857Y-100456228D01*
X93115714Y-101313371D01*
X94044285Y-101313371D01*
X94687142Y-101313371D02*
X94687142Y-99813371D01*
X95544285Y-101313371D02*
X94901428Y-100456228D01*
X95544285Y-99813371D02*
X94687142Y-100670514D01*
X97330000Y-101313371D02*
X97330000Y-100313371D01*
X97330000Y-100599085D02*
X97401428Y-100456228D01*
X97472857Y-100384800D01*
X97615714Y-100313371D01*
X97758571Y-100313371D01*
X98830000Y-101241942D02*
X98687142Y-101313371D01*
X98401428Y-101313371D01*
X98258571Y-101241942D01*
X98187142Y-101099085D01*
X98187142Y-100527657D01*
X98258571Y-100384800D01*
X98401428Y-100313371D01*
X98687142Y-100313371D01*
X98830000Y-100384800D01*
X98901428Y-100527657D01*
X98901428Y-100670514D01*
X98187142Y-100813371D01*
X99401428Y-100313371D02*
X99758571Y-101313371D01*
X100115714Y-100313371D01*
X101758571Y-99956228D02*
X101830000Y-99884800D01*
X101972857Y-99813371D01*
X102330000Y-99813371D01*
X102472857Y-99884800D01*
X102544285Y-99956228D01*
X102615714Y-100099085D01*
X102615714Y-100241942D01*
X102544285Y-100456228D01*
X101687142Y-101313371D01*
X102615714Y-101313371D01*
X104401428Y-100741942D02*
X105544285Y-100741942D01*
X107830000Y-99813371D02*
X107830000Y-100884800D01*
X107758571Y-101099085D01*
X107615714Y-101241942D01*
X107401428Y-101313371D01*
X107258571Y-101313371D01*
X108544285Y-100741942D02*
X109687142Y-100741942D01*
X110401428Y-101313371D02*
X110401428Y-99813371D01*
X110758571Y-99813371D01*
X110972857Y-99884800D01*
X111115714Y-100027657D01*
X111187142Y-100170514D01*
X111258571Y-100456228D01*
X111258571Y-100670514D01*
X111187142Y-100956228D01*
X111115714Y-101099085D01*
X110972857Y-101241942D01*
X110758571Y-101313371D01*
X110401428Y-101313371D01*
X112544285Y-101313371D02*
X112544285Y-100527657D01*
X112472857Y-100384800D01*
X112330000Y-100313371D01*
X112044285Y-100313371D01*
X111901428Y-100384800D01*
X112544285Y-101241942D02*
X112401428Y-101313371D01*
X112044285Y-101313371D01*
X111901428Y-101241942D01*
X111830000Y-101099085D01*
X111830000Y-100956228D01*
X111901428Y-100813371D01*
X112044285Y-100741942D01*
X112401428Y-100741942D01*
X112544285Y-100670514D01*
X113044285Y-100313371D02*
X113615714Y-100313371D01*
X113258571Y-99813371D02*
X113258571Y-101099085D01*
X113330000Y-101241942D01*
X113472857Y-101313371D01*
X113615714Y-101313371D01*
X114758571Y-101313371D02*
X114758571Y-100527657D01*
X114687142Y-100384800D01*
X114544285Y-100313371D01*
X114258571Y-100313371D01*
X114115714Y-100384800D01*
X114758571Y-101241942D02*
X114615714Y-101313371D01*
X114258571Y-101313371D01*
X114115714Y-101241942D01*
X114044285Y-101099085D01*
X114044285Y-100956228D01*
X114115714Y-100813371D01*
X114258571Y-100741942D01*
X114615714Y-100741942D01*
X114758571Y-100670514D01*
D15*
X176530000Y-118237000D02*
X176530000Y-95504000D01*
X81280000Y-89154000D02*
X141224000Y-89154000D01*
X141224000Y-89154000D02*
X141224000Y-95504000D01*
X81280000Y-95504000D02*
X81280000Y-89154000D01*
X146558000Y-145161000D02*
X176530000Y-145161000D01*
X176530000Y-118237000D02*
G75*
G03X176530000Y-126365000I0J-4064000D01*
G01*
X141224000Y-95504000D02*
X176530000Y-95504000D01*
X83870800Y-145161000D02*
X138633200Y-145161000D01*
X60833000Y-95504000D02*
X81280000Y-95504000D01*
X75438000Y-145161000D02*
X75438000Y-136271000D01*
X60833000Y-145161000D02*
X60833000Y-95504000D01*
X75438000Y-145161000D02*
X60833000Y-145161000D01*
X176530000Y-145161000D02*
X176530000Y-126365000D01*
X146558000Y-136271000D02*
X146558000Y-145161000D01*
X140208000Y-136271000D02*
X146558000Y-136271000D01*
X140208000Y-143586200D02*
X140208000Y-136271000D01*
X82296000Y-136271000D02*
X82296000Y-143586200D01*
X75438000Y-136271000D02*
X82296000Y-136271000D01*
D12*
X106944285Y-131309371D02*
X107801428Y-131309371D01*
X107372857Y-132809371D02*
X107372857Y-131309371D01*
X108301428Y-132809371D02*
X108301428Y-131309371D01*
X109015714Y-132809371D02*
X109015714Y-131309371D01*
X109587142Y-131309371D01*
X109730000Y-131380800D01*
X109801428Y-131452228D01*
X109872857Y-131595085D01*
X109872857Y-131809371D01*
X109801428Y-131952228D01*
X109730000Y-132023657D01*
X109587142Y-132095085D01*
X109015714Y-132095085D01*
X110515714Y-132809371D02*
X110515714Y-131309371D01*
X112372857Y-132809371D02*
X112372857Y-131309371D01*
X112372857Y-131880800D02*
X112515714Y-131809371D01*
X112801428Y-131809371D01*
X112944285Y-131880800D01*
X113015714Y-131952228D01*
X113087142Y-132095085D01*
X113087142Y-132523657D01*
X113015714Y-132666514D01*
X112944285Y-132737942D01*
X112801428Y-132809371D01*
X112515714Y-132809371D01*
X112372857Y-132737942D01*
X113587142Y-131809371D02*
X113944285Y-132809371D01*
X114301428Y-131809371D02*
X113944285Y-132809371D01*
X113801428Y-133166514D01*
X113730000Y-133237942D01*
X113587142Y-133309371D01*
X116015714Y-132023657D02*
X116515714Y-132023657D01*
X116730000Y-132809371D02*
X116015714Y-132809371D01*
X116015714Y-131309371D01*
X116730000Y-131309371D01*
X117587142Y-132809371D02*
X117444285Y-132737942D01*
X117372857Y-132595085D01*
X117372857Y-131309371D01*
X118730000Y-132737942D02*
X118587142Y-132809371D01*
X118301428Y-132809371D01*
X118158571Y-132737942D01*
X118087142Y-132595085D01*
X118087142Y-132023657D01*
X118158571Y-131880800D01*
X118301428Y-131809371D01*
X118587142Y-131809371D01*
X118730000Y-131880800D01*
X118801428Y-132023657D01*
X118801428Y-132166514D01*
X118087142Y-132309371D01*
X120087142Y-132737942D02*
X119944285Y-132809371D01*
X119658571Y-132809371D01*
X119515714Y-132737942D01*
X119444285Y-132666514D01*
X119372857Y-132523657D01*
X119372857Y-132095085D01*
X119444285Y-131952228D01*
X119515714Y-131880800D01*
X119658571Y-131809371D01*
X119944285Y-131809371D01*
X120087142Y-131880800D01*
X120515714Y-131809371D02*
X121087142Y-131809371D01*
X120729999Y-131309371D02*
X120729999Y-132595085D01*
X120801428Y-132737942D01*
X120944285Y-132809371D01*
X121087142Y-132809371D01*
X121587142Y-132809371D02*
X121587142Y-131809371D01*
X121587142Y-132095085D02*
X121658571Y-131952228D01*
X121729999Y-131880800D01*
X121872857Y-131809371D01*
X122015714Y-131809371D01*
X122515714Y-132809371D02*
X122515714Y-131809371D01*
X122515714Y-131309371D02*
X122444285Y-131380800D01*
X122515714Y-131452228D01*
X122587142Y-131380800D01*
X122515714Y-131309371D01*
X122515714Y-131452228D01*
X123872857Y-132737942D02*
X123730000Y-132809371D01*
X123444285Y-132809371D01*
X123301428Y-132737942D01*
X123229999Y-132666514D01*
X123158571Y-132523657D01*
X123158571Y-132095085D01*
X123229999Y-131952228D01*
X123301428Y-131880800D01*
X123444285Y-131809371D01*
X123730000Y-131809371D01*
X123872857Y-131880800D01*
X125230000Y-132809371D02*
X124515714Y-132809371D01*
X124515714Y-131309371D01*
X126372857Y-132809371D02*
X126372857Y-132023657D01*
X126301428Y-131880800D01*
X126158571Y-131809371D01*
X125872857Y-131809371D01*
X125730000Y-131880800D01*
X126372857Y-132737942D02*
X126230000Y-132809371D01*
X125872857Y-132809371D01*
X125730000Y-132737942D01*
X125658571Y-132595085D01*
X125658571Y-132452228D01*
X125730000Y-132309371D01*
X125872857Y-132237942D01*
X126230000Y-132237942D01*
X126372857Y-132166514D01*
X127087142Y-132809371D02*
X127087142Y-131309371D01*
X127087142Y-131880800D02*
X127230000Y-131809371D01*
X127515714Y-131809371D01*
X127658571Y-131880800D01*
X127730000Y-131952228D01*
X127801428Y-132095085D01*
X127801428Y-132523657D01*
X127730000Y-132666514D01*
X127658571Y-132737942D01*
X127515714Y-132809371D01*
X127230000Y-132809371D01*
X127087142Y-132737942D01*
X130801428Y-132809371D02*
X130730000Y-132809371D01*
X130587142Y-132737942D01*
X130372857Y-132523657D01*
X130015714Y-132095085D01*
X129872857Y-131880800D01*
X129801428Y-131666514D01*
X129801428Y-131523657D01*
X129872857Y-131380800D01*
X130015714Y-131309371D01*
X130087142Y-131309371D01*
X130230000Y-131380800D01*
X130301428Y-131523657D01*
X130301428Y-131595085D01*
X130230000Y-131737942D01*
X130158571Y-131809371D01*
X129730000Y-132095085D01*
X129658571Y-132166514D01*
X129587142Y-132309371D01*
X129587142Y-132523657D01*
X129658571Y-132666514D01*
X129730000Y-132737942D01*
X129872857Y-132809371D01*
X130087142Y-132809371D01*
X130230000Y-132737942D01*
X130301428Y-132666514D01*
X130515714Y-132380800D01*
X130587142Y-132166514D01*
X130587142Y-132023657D01*
X133015714Y-131309371D02*
X133015714Y-132380800D01*
X132944285Y-132595085D01*
X132801428Y-132737942D01*
X132587142Y-132809371D01*
X132444285Y-132809371D01*
X134301428Y-132737942D02*
X134158571Y-132809371D01*
X133872857Y-132809371D01*
X133730000Y-132737942D01*
X133658571Y-132595085D01*
X133658571Y-132023657D01*
X133730000Y-131880800D01*
X133872857Y-131809371D01*
X134158571Y-131809371D01*
X134301428Y-131880800D01*
X134372857Y-132023657D01*
X134372857Y-132166514D01*
X133658571Y-132309371D01*
X135658571Y-132809371D02*
X135658571Y-131309371D01*
X135658571Y-132737942D02*
X135515714Y-132809371D01*
X135230000Y-132809371D01*
X135087142Y-132737942D01*
X135015714Y-132666514D01*
X134944285Y-132523657D01*
X134944285Y-132095085D01*
X135015714Y-131952228D01*
X135087142Y-131880800D01*
X135230000Y-131809371D01*
X135515714Y-131809371D01*
X135658571Y-131880800D01*
X136372857Y-132809371D02*
X136372857Y-131809371D01*
X136372857Y-131309371D02*
X136301428Y-131380800D01*
X136372857Y-131452228D01*
X136444285Y-131380800D01*
X136372857Y-131309371D01*
X136372857Y-131452228D01*
X137087142Y-132809371D02*
X137087142Y-131809371D01*
X137087142Y-131952228D02*
X137158571Y-131880800D01*
X137301428Y-131809371D01*
X137515714Y-131809371D01*
X137658571Y-131880800D01*
X137730000Y-132023657D01*
X137730000Y-132809371D01*
X137730000Y-132023657D02*
X137801428Y-131880800D01*
X137944285Y-131809371D01*
X138158571Y-131809371D01*
X138301428Y-131880800D01*
X138372857Y-132023657D01*
X138372857Y-132809371D01*
X139730000Y-132809371D02*
X139730000Y-132023657D01*
X139658571Y-131880800D01*
X139515714Y-131809371D01*
X139230000Y-131809371D01*
X139087142Y-131880800D01*
X139730000Y-132737942D02*
X139587142Y-132809371D01*
X139230000Y-132809371D01*
X139087142Y-132737942D01*
X139015714Y-132595085D01*
X139015714Y-132452228D01*
X139087142Y-132309371D01*
X139230000Y-132237942D01*
X139587142Y-132237942D01*
X139730000Y-132166514D01*
X140230000Y-131809371D02*
X140801428Y-131809371D01*
X140444285Y-131309371D02*
X140444285Y-132595085D01*
X140515714Y-132737942D01*
X140658571Y-132809371D01*
X140801428Y-132809371D01*
X141087142Y-131809371D02*
X141658571Y-131809371D01*
X141301428Y-131309371D02*
X141301428Y-132595085D01*
X141372857Y-132737942D01*
X141515714Y-132809371D01*
X141658571Y-132809371D01*
X142801428Y-131809371D02*
X142801428Y-132809371D01*
X142444285Y-131237942D02*
X142087142Y-132309371D01*
X143015714Y-132309371D01*
X143515714Y-131452228D02*
X143587142Y-131380800D01*
X143730000Y-131309371D01*
X144087142Y-131309371D01*
X144230000Y-131380800D01*
X144301428Y-131452228D01*
X144372857Y-131595085D01*
X144372857Y-131737942D01*
X144301428Y-131952228D01*
X143444285Y-132809371D01*
X144372857Y-132809371D01*
D16*
G04 #@! TO.C,J3*
X170240000Y-103996800D02*
X168910000Y-103996800D01*
X170240000Y-102666800D02*
X170240000Y-103996800D01*
X170240000Y-101396800D02*
X167580000Y-101396800D01*
X167580000Y-101396800D02*
X167580000Y-98796800D01*
X170240000Y-101396800D02*
X170240000Y-98796800D01*
X170240000Y-98796800D02*
X167580000Y-98796800D01*
D17*
G04 #@! TO.C,J2*
X171079660Y-103346240D02*
G75*
G03X171079660Y-103346240I-100000J0D01*
G01*
D14*
X176529660Y-105696240D02*
X176529660Y-98296240D01*
X176259660Y-98296240D02*
X176529660Y-98296240D01*
X176529660Y-105696240D02*
X176259660Y-105696240D01*
X172229660Y-98296240D02*
X172229660Y-98476240D01*
X172229660Y-105696240D02*
X172229660Y-105516240D01*
X172229660Y-98296240D02*
X173984660Y-98296240D01*
X172229660Y-105696240D02*
X173984660Y-105696240D01*
D16*
G04 #@! TO.C,JTAG1*
X61091000Y-95784000D02*
X81911000Y-95784000D01*
X81911000Y-95784000D02*
X81911000Y-105384000D01*
X81911000Y-105384000D02*
X61091000Y-105384000D01*
X61091000Y-105384000D02*
X61091000Y-95784000D01*
G04 #@! TO.C,R7*
X82462000Y-100896800D02*
X82462000Y-101896800D01*
X84162000Y-101896800D02*
X84162000Y-100896800D01*
G04 #@! TO.C,C12*
X149313000Y-141393800D02*
X149313000Y-140393800D01*
X147613000Y-140393800D02*
X147613000Y-141393800D01*
G04 #@! TO.C,U2*
X154118000Y-143172800D02*
X172018000Y-143172800D01*
X154118000Y-107372800D02*
X154118000Y-143172800D01*
X172018000Y-107372800D02*
X154118000Y-107372800D01*
X172018000Y-143172800D02*
X172018000Y-107372800D01*
X156608000Y-143112800D02*
X162068000Y-143112800D01*
X156608000Y-107432800D02*
X156608000Y-143112800D01*
X169528000Y-107432800D02*
X156608000Y-107432800D01*
X169528000Y-143112800D02*
X169528000Y-107432800D01*
X164068000Y-143112800D02*
X169528000Y-143112800D01*
X162068000Y-143112800D02*
G75*
G02X164068000Y-143112800I1000000J0D01*
G01*
G04 #@! TO.C,RPi1*
X140593000Y-96165000D02*
X161413000Y-96165000D01*
X161413000Y-96165000D02*
X161413000Y-105765000D01*
X161413000Y-105765000D02*
X140593000Y-105765000D01*
X140593000Y-105765000D02*
X140593000Y-96165000D01*
D11*
G04 #@! TO.C,U1*
X110934000Y-125666000D02*
X110934000Y-124941000D01*
X96584000Y-125666000D02*
X96584000Y-124866000D01*
X96584000Y-111316000D02*
X96584000Y-112116000D01*
X110934000Y-111316000D02*
X110934000Y-112116000D01*
X110934000Y-125666000D02*
X110134000Y-125666000D01*
X110934000Y-111316000D02*
X110134000Y-111316000D01*
X96584000Y-111316000D02*
X97384000Y-111316000D01*
X96584000Y-125666000D02*
X97384000Y-125666000D01*
X110934000Y-124941000D02*
X112209000Y-124941000D01*
D16*
G04 #@! TO.C,C5*
X94115000Y-132980800D02*
X95115000Y-132980800D01*
X95115000Y-131280800D02*
X94115000Y-131280800D01*
G04 #@! TO.C,C6*
X92829000Y-124041800D02*
X91829000Y-124041800D01*
X91829000Y-125741800D02*
X92829000Y-125741800D01*
G04 #@! TO.C,D1*
X64072392Y-139043665D02*
G75*
G03X63915484Y-142276000I1078608J-1672335D01*
G01*
X66229608Y-139043665D02*
G75*
G02X66386516Y-142276000I-1078608J-1672335D01*
G01*
X64071163Y-139674870D02*
G75*
G03X64071000Y-141756961I1079837J-1041130D01*
G01*
X66230837Y-139674870D02*
G75*
G02X66231000Y-141756961I-1079837J-1041130D01*
G01*
X63915000Y-142276000D02*
X64071000Y-142276000D01*
X66231000Y-142276000D02*
X66387000Y-142276000D01*
G04 #@! TO.C,CRUBASE1*
X74168000Y-114290800D02*
X66488000Y-114290800D01*
X66488000Y-114290800D02*
X66488000Y-119490800D01*
X66488000Y-119490800D02*
X76768000Y-119490800D01*
X76768000Y-119490800D02*
X76768000Y-116890800D01*
X76768000Y-116890800D02*
X74168000Y-116890800D01*
X74168000Y-116890800D02*
X74168000Y-114290800D01*
X75438000Y-114290800D02*
X76768000Y-114290800D01*
X76768000Y-114290800D02*
X76768000Y-115620800D01*
G04 #@! TO.C,Q1*
X70048000Y-143508000D02*
X70978000Y-143508000D01*
X73208000Y-143508000D02*
X72278000Y-143508000D01*
X73208000Y-143508000D02*
X73208000Y-141348000D01*
X70048000Y-143508000D02*
X70048000Y-142048000D01*
G04 #@! TO.C,R1*
X73524000Y-137626800D02*
X73524000Y-138826800D01*
X71764000Y-138826800D02*
X71764000Y-137626800D01*
G04 #@! TO.C,R2*
X64271000Y-135270800D02*
X64271000Y-134070800D01*
X66031000Y-134070800D02*
X66031000Y-135270800D01*
D11*
G04 #@! TO.C,U3*
X129921000Y-118872000D02*
X137541000Y-118872000D01*
X137541000Y-115316000D02*
X129921000Y-115316000D01*
X129921000Y-118872000D02*
X129921000Y-115316000D01*
X137541000Y-115316000D02*
X137541000Y-118872000D01*
X137392210Y-115824000D02*
G75*
G03X137392210Y-115824000I-359210J0D01*
G01*
X137541000Y-117729000D02*
X136779000Y-117729000D01*
X136779000Y-117729000D02*
X136779000Y-116459000D01*
X136779000Y-116459000D02*
X137541000Y-116459000D01*
D16*
G04 #@! TO.C,C8*
X92925000Y-117263800D02*
X92925000Y-116263800D01*
X91225000Y-116263800D02*
X91225000Y-117263800D01*
G04 #@! TO.C,R4*
X75701000Y-109235800D02*
X75701000Y-108035800D01*
X77461000Y-108035800D02*
X77461000Y-109235800D01*
G04 #@! TO.C,R5*
X70621000Y-109312000D02*
X70621000Y-108112000D01*
X72381000Y-108112000D02*
X72381000Y-109312000D01*
G04 #@! TO.C,R6*
X65668000Y-109312000D02*
X65668000Y-108112000D01*
X67428000Y-108112000D02*
X67428000Y-109312000D01*
G04 #@! TO.C,C1*
X75430000Y-124041800D02*
X74430000Y-124041800D01*
X74430000Y-125741800D02*
X75430000Y-125741800D01*
G04 #@! TO.C,C2*
X74764000Y-129074800D02*
X74764000Y-128074800D01*
X73064000Y-128074800D02*
X73064000Y-129074800D01*
G04 #@! TO.C,C3*
X115689000Y-124803800D02*
X114689000Y-124803800D01*
X114689000Y-126503800D02*
X115689000Y-126503800D01*
G04 #@! TO.C,C4*
X116090000Y-108674800D02*
X115090000Y-108674800D01*
X115090000Y-110374800D02*
X116090000Y-110374800D01*
G04 #@! TO.C,C7*
X101862000Y-108215800D02*
X102862000Y-108215800D01*
X102862000Y-106515800D02*
X101862000Y-106515800D01*
G04 #@! TO.C,C9*
X92083000Y-111517800D02*
X93083000Y-111517800D01*
X93083000Y-109817800D02*
X92083000Y-109817800D01*
G04 #@! TO.C,C10*
X126119000Y-114311800D02*
X127119000Y-114311800D01*
X127119000Y-112611800D02*
X126119000Y-112611800D01*
G04 #@! TO.C,C11*
X173648000Y-139835000D02*
X173648000Y-140835000D01*
X175348000Y-140835000D02*
X175348000Y-139835000D01*
G04 #@! TO.C,R3*
X62239000Y-117567000D02*
X62239000Y-116367000D01*
X63999000Y-116367000D02*
X63999000Y-117567000D01*
G04 #@! TO.C,U4*
X65146000Y-123971000D02*
X65146000Y-125231000D01*
X65146000Y-130791000D02*
X65146000Y-129531000D01*
X68906000Y-123971000D02*
X65146000Y-123971000D01*
X71156000Y-130791000D02*
X65146000Y-130791000D01*
G04 #@! TD*
G04 #@! TO.C,J3*
D11*
X168576666Y-97039180D02*
X168576666Y-97753466D01*
X168529047Y-97896323D01*
X168433809Y-97991561D01*
X168290952Y-98039180D01*
X168195714Y-98039180D01*
X168957619Y-97039180D02*
X169576666Y-97039180D01*
X169243333Y-97420133D01*
X169386190Y-97420133D01*
X169481428Y-97467752D01*
X169529047Y-97515371D01*
X169576666Y-97610609D01*
X169576666Y-97848704D01*
X169529047Y-97943942D01*
X169481428Y-97991561D01*
X169386190Y-98039180D01*
X169100476Y-98039180D01*
X169005238Y-97991561D01*
X168957619Y-97943942D01*
G04 #@! TO.C,J2*
D18*
X172894349Y-96530659D02*
X172894349Y-97245625D01*
X172846684Y-97388618D01*
X172751355Y-97483947D01*
X172608362Y-97531612D01*
X172513033Y-97531612D01*
X173323328Y-96625987D02*
X173370993Y-96578323D01*
X173466322Y-96530659D01*
X173704644Y-96530659D01*
X173799973Y-96578323D01*
X173847637Y-96625987D01*
X173895302Y-96721316D01*
X173895302Y-96816645D01*
X173847637Y-96959638D01*
X173275664Y-97531612D01*
X173895302Y-97531612D01*
G04 #@! TO.C,JTAG1*
D11*
X61984142Y-96289880D02*
X61984142Y-97004166D01*
X61936523Y-97147023D01*
X61841285Y-97242261D01*
X61698428Y-97289880D01*
X61603190Y-97289880D01*
X62317476Y-96289880D02*
X62888904Y-96289880D01*
X62603190Y-97289880D02*
X62603190Y-96289880D01*
X63174619Y-97004166D02*
X63650809Y-97004166D01*
X63079380Y-97289880D02*
X63412714Y-96289880D01*
X63746047Y-97289880D01*
X64603190Y-96337500D02*
X64507952Y-96289880D01*
X64365095Y-96289880D01*
X64222238Y-96337500D01*
X64127000Y-96432738D01*
X64079380Y-96527976D01*
X64031761Y-96718452D01*
X64031761Y-96861309D01*
X64079380Y-97051785D01*
X64127000Y-97147023D01*
X64222238Y-97242261D01*
X64365095Y-97289880D01*
X64460333Y-97289880D01*
X64603190Y-97242261D01*
X64650809Y-97194642D01*
X64650809Y-96861309D01*
X64460333Y-96861309D01*
X65603190Y-97289880D02*
X65031761Y-97289880D01*
X65317476Y-97289880D02*
X65317476Y-96289880D01*
X65222238Y-96432738D01*
X65127000Y-96527976D01*
X65031761Y-96575595D01*
D16*
X66726714Y-104026380D02*
X66155285Y-104026380D01*
X66441000Y-104026380D02*
X66441000Y-103026380D01*
X66345761Y-103169238D01*
X66250523Y-103264476D01*
X66155285Y-103312095D01*
G04 #@! TO.C,R7*
D11*
X83081833Y-104980680D02*
X82748500Y-104504490D01*
X82510404Y-104980680D02*
X82510404Y-103980680D01*
X82891357Y-103980680D01*
X82986595Y-104028300D01*
X83034214Y-104075919D01*
X83081833Y-104171157D01*
X83081833Y-104314014D01*
X83034214Y-104409252D01*
X82986595Y-104456871D01*
X82891357Y-104504490D01*
X82510404Y-104504490D01*
X83415166Y-103980680D02*
X84081833Y-103980680D01*
X83653261Y-104980680D01*
G04 #@! TO.C,C12*
X147883642Y-138119442D02*
X147836023Y-138167061D01*
X147693166Y-138214680D01*
X147597928Y-138214680D01*
X147455071Y-138167061D01*
X147359833Y-138071823D01*
X147312214Y-137976585D01*
X147264595Y-137786109D01*
X147264595Y-137643252D01*
X147312214Y-137452776D01*
X147359833Y-137357538D01*
X147455071Y-137262300D01*
X147597928Y-137214680D01*
X147693166Y-137214680D01*
X147836023Y-137262300D01*
X147883642Y-137309919D01*
X148836023Y-138214680D02*
X148264595Y-138214680D01*
X148550309Y-138214680D02*
X148550309Y-137214680D01*
X148455071Y-137357538D01*
X148359833Y-137452776D01*
X148264595Y-137500395D01*
X149216976Y-137309919D02*
X149264595Y-137262300D01*
X149359833Y-137214680D01*
X149597928Y-137214680D01*
X149693166Y-137262300D01*
X149740785Y-137309919D01*
X149788404Y-137405157D01*
X149788404Y-137500395D01*
X149740785Y-137643252D01*
X149169357Y-138214680D01*
X149788404Y-138214680D01*
G04 #@! TO.C,U2*
X162306095Y-143565180D02*
X162306095Y-144374704D01*
X162353714Y-144469942D01*
X162401333Y-144517561D01*
X162496571Y-144565180D01*
X162687047Y-144565180D01*
X162782285Y-144517561D01*
X162829904Y-144469942D01*
X162877523Y-144374704D01*
X162877523Y-143565180D01*
X163306095Y-143660419D02*
X163353714Y-143612800D01*
X163448952Y-143565180D01*
X163687047Y-143565180D01*
X163782285Y-143612800D01*
X163829904Y-143660419D01*
X163877523Y-143755657D01*
X163877523Y-143850895D01*
X163829904Y-143993752D01*
X163258476Y-144565180D01*
X163877523Y-144565180D01*
G04 #@! TO.C,RPi1*
X160012119Y-102917738D02*
X160488309Y-102584404D01*
X160012119Y-102346309D02*
X161012119Y-102346309D01*
X161012119Y-102727261D01*
X160964500Y-102822500D01*
X160916880Y-102870119D01*
X160821642Y-102917738D01*
X160678785Y-102917738D01*
X160583547Y-102870119D01*
X160535928Y-102822500D01*
X160488309Y-102727261D01*
X160488309Y-102346309D01*
X160012119Y-103346309D02*
X161012119Y-103346309D01*
X161012119Y-103727261D01*
X160964500Y-103822500D01*
X160916880Y-103870119D01*
X160821642Y-103917738D01*
X160678785Y-103917738D01*
X160583547Y-103870119D01*
X160535928Y-103822500D01*
X160488309Y-103727261D01*
X160488309Y-103346309D01*
X160012119Y-104346309D02*
X160678785Y-104346309D01*
X161012119Y-104346309D02*
X160964500Y-104298690D01*
X160916880Y-104346309D01*
X160964500Y-104393928D01*
X161012119Y-104346309D01*
X160916880Y-104346309D01*
X160012119Y-105346309D02*
X160012119Y-104774880D01*
X160012119Y-105060595D02*
X161012119Y-105060595D01*
X160869261Y-104965357D01*
X160774023Y-104870119D01*
X160726404Y-104774880D01*
D16*
X146228714Y-104407380D02*
X145657285Y-104407380D01*
X145943000Y-104407380D02*
X145943000Y-103407380D01*
X145847761Y-103550238D01*
X145752523Y-103645476D01*
X145657285Y-103693095D01*
G04 #@! TO.C,P1*
D11*
X83081904Y-137536180D02*
X83081904Y-136536180D01*
X83462857Y-136536180D01*
X83558095Y-136583800D01*
X83605714Y-136631419D01*
X83653333Y-136726657D01*
X83653333Y-136869514D01*
X83605714Y-136964752D01*
X83558095Y-137012371D01*
X83462857Y-137059990D01*
X83081904Y-137059990D01*
X84605714Y-137536180D02*
X84034285Y-137536180D01*
X84320000Y-137536180D02*
X84320000Y-136536180D01*
X84224761Y-136679038D01*
X84129523Y-136774276D01*
X84034285Y-136821895D01*
G04 #@! TO.C,J1*
X83613666Y-97928180D02*
X83613666Y-98642466D01*
X83566047Y-98785323D01*
X83470809Y-98880561D01*
X83327952Y-98928180D01*
X83232714Y-98928180D01*
X84613666Y-98928180D02*
X84042238Y-98928180D01*
X84327952Y-98928180D02*
X84327952Y-97928180D01*
X84232714Y-98071038D01*
X84137476Y-98166276D01*
X84042238Y-98213895D01*
G04 #@! TO.C,U1*
X102997095Y-127393380D02*
X102997095Y-128202904D01*
X103044714Y-128298142D01*
X103092333Y-128345761D01*
X103187571Y-128393380D01*
X103378047Y-128393380D01*
X103473285Y-128345761D01*
X103520904Y-128298142D01*
X103568523Y-128202904D01*
X103568523Y-127393380D01*
X104568523Y-128393380D02*
X103997095Y-128393380D01*
X104282809Y-128393380D02*
X104282809Y-127393380D01*
X104187571Y-127536238D01*
X104092333Y-127631476D01*
X103997095Y-127679095D01*
G04 #@! TO.C,C5*
X91189833Y-132551442D02*
X91142214Y-132599061D01*
X90999357Y-132646680D01*
X90904119Y-132646680D01*
X90761261Y-132599061D01*
X90666023Y-132503823D01*
X90618404Y-132408585D01*
X90570785Y-132218109D01*
X90570785Y-132075252D01*
X90618404Y-131884776D01*
X90666023Y-131789538D01*
X90761261Y-131694300D01*
X90904119Y-131646680D01*
X90999357Y-131646680D01*
X91142214Y-131694300D01*
X91189833Y-131741919D01*
X92094595Y-131646680D02*
X91618404Y-131646680D01*
X91570785Y-132122871D01*
X91618404Y-132075252D01*
X91713642Y-132027633D01*
X91951738Y-132027633D01*
X92046976Y-132075252D01*
X92094595Y-132122871D01*
X92142214Y-132218109D01*
X92142214Y-132456204D01*
X92094595Y-132551442D01*
X92046976Y-132599061D01*
X91951738Y-132646680D01*
X91713642Y-132646680D01*
X91618404Y-132599061D01*
X91570785Y-132551442D01*
G04 #@! TO.C,C6*
X92162333Y-123498942D02*
X92114714Y-123546561D01*
X91971857Y-123594180D01*
X91876619Y-123594180D01*
X91733761Y-123546561D01*
X91638523Y-123451323D01*
X91590904Y-123356085D01*
X91543285Y-123165609D01*
X91543285Y-123022752D01*
X91590904Y-122832276D01*
X91638523Y-122737038D01*
X91733761Y-122641800D01*
X91876619Y-122594180D01*
X91971857Y-122594180D01*
X92114714Y-122641800D01*
X92162333Y-122689419D01*
X93019476Y-122594180D02*
X92829000Y-122594180D01*
X92733761Y-122641800D01*
X92686142Y-122689419D01*
X92590904Y-122832276D01*
X92543285Y-123022752D01*
X92543285Y-123403704D01*
X92590904Y-123498942D01*
X92638523Y-123546561D01*
X92733761Y-123594180D01*
X92924238Y-123594180D01*
X93019476Y-123546561D01*
X93067095Y-123498942D01*
X93114714Y-123403704D01*
X93114714Y-123165609D01*
X93067095Y-123070371D01*
X93019476Y-123022752D01*
X92924238Y-122975133D01*
X92733761Y-122975133D01*
X92638523Y-123022752D01*
X92590904Y-123070371D01*
X92543285Y-123165609D01*
G04 #@! TO.C,D1*
X61452904Y-141168380D02*
X61452904Y-140168380D01*
X61691000Y-140168380D01*
X61833857Y-140216000D01*
X61929095Y-140311238D01*
X61976714Y-140406476D01*
X62024333Y-140596952D01*
X62024333Y-140739809D01*
X61976714Y-140930285D01*
X61929095Y-141025523D01*
X61833857Y-141120761D01*
X61691000Y-141168380D01*
X61452904Y-141168380D01*
X62976714Y-141168380D02*
X62405285Y-141168380D01*
X62691000Y-141168380D02*
X62691000Y-140168380D01*
X62595761Y-140311238D01*
X62500523Y-140406476D01*
X62405285Y-140454095D01*
G04 #@! TO.C,CRUBASE1*
X67437380Y-120930942D02*
X67389761Y-120978561D01*
X67246904Y-121026180D01*
X67151666Y-121026180D01*
X67008809Y-120978561D01*
X66913571Y-120883323D01*
X66865952Y-120788085D01*
X66818333Y-120597609D01*
X66818333Y-120454752D01*
X66865952Y-120264276D01*
X66913571Y-120169038D01*
X67008809Y-120073800D01*
X67151666Y-120026180D01*
X67246904Y-120026180D01*
X67389761Y-120073800D01*
X67437380Y-120121419D01*
X68437380Y-121026180D02*
X68104047Y-120549990D01*
X67865952Y-121026180D02*
X67865952Y-120026180D01*
X68246904Y-120026180D01*
X68342142Y-120073800D01*
X68389761Y-120121419D01*
X68437380Y-120216657D01*
X68437380Y-120359514D01*
X68389761Y-120454752D01*
X68342142Y-120502371D01*
X68246904Y-120549990D01*
X67865952Y-120549990D01*
X68865952Y-120026180D02*
X68865952Y-120835704D01*
X68913571Y-120930942D01*
X68961190Y-120978561D01*
X69056428Y-121026180D01*
X69246904Y-121026180D01*
X69342142Y-120978561D01*
X69389761Y-120930942D01*
X69437380Y-120835704D01*
X69437380Y-120026180D01*
X70246904Y-120502371D02*
X70389761Y-120549990D01*
X70437380Y-120597609D01*
X70485000Y-120692847D01*
X70485000Y-120835704D01*
X70437380Y-120930942D01*
X70389761Y-120978561D01*
X70294523Y-121026180D01*
X69913571Y-121026180D01*
X69913571Y-120026180D01*
X70246904Y-120026180D01*
X70342142Y-120073800D01*
X70389761Y-120121419D01*
X70437380Y-120216657D01*
X70437380Y-120311895D01*
X70389761Y-120407133D01*
X70342142Y-120454752D01*
X70246904Y-120502371D01*
X69913571Y-120502371D01*
X70865952Y-120740466D02*
X71342142Y-120740466D01*
X70770714Y-121026180D02*
X71104047Y-120026180D01*
X71437380Y-121026180D01*
X71723095Y-120978561D02*
X71865952Y-121026180D01*
X72104047Y-121026180D01*
X72199285Y-120978561D01*
X72246904Y-120930942D01*
X72294523Y-120835704D01*
X72294523Y-120740466D01*
X72246904Y-120645228D01*
X72199285Y-120597609D01*
X72104047Y-120549990D01*
X71913571Y-120502371D01*
X71818333Y-120454752D01*
X71770714Y-120407133D01*
X71723095Y-120311895D01*
X71723095Y-120216657D01*
X71770714Y-120121419D01*
X71818333Y-120073800D01*
X71913571Y-120026180D01*
X72151666Y-120026180D01*
X72294523Y-120073800D01*
X72723095Y-120502371D02*
X73056428Y-120502371D01*
X73199285Y-121026180D02*
X72723095Y-121026180D01*
X72723095Y-120026180D01*
X73199285Y-120026180D01*
X74151666Y-121026180D02*
X73580238Y-121026180D01*
X73865952Y-121026180D02*
X73865952Y-120026180D01*
X73770714Y-120169038D01*
X73675476Y-120264276D01*
X73580238Y-120311895D01*
G04 #@! TO.C,Q1*
X68738761Y-143600419D02*
X68643523Y-143552800D01*
X68548285Y-143457561D01*
X68405428Y-143314704D01*
X68310190Y-143267085D01*
X68214952Y-143267085D01*
X68262571Y-143505180D02*
X68167333Y-143457561D01*
X68072095Y-143362323D01*
X68024476Y-143171847D01*
X68024476Y-142838514D01*
X68072095Y-142648038D01*
X68167333Y-142552800D01*
X68262571Y-142505180D01*
X68453047Y-142505180D01*
X68548285Y-142552800D01*
X68643523Y-142648038D01*
X68691142Y-142838514D01*
X68691142Y-143171847D01*
X68643523Y-143362323D01*
X68548285Y-143457561D01*
X68453047Y-143505180D01*
X68262571Y-143505180D01*
X69643523Y-143505180D02*
X69072095Y-143505180D01*
X69357809Y-143505180D02*
X69357809Y-142505180D01*
X69262571Y-142648038D01*
X69167333Y-142743276D01*
X69072095Y-142790895D01*
G04 #@! TO.C,R1*
X70191333Y-137282180D02*
X69858000Y-136805990D01*
X69619904Y-137282180D02*
X69619904Y-136282180D01*
X70000857Y-136282180D01*
X70096095Y-136329800D01*
X70143714Y-136377419D01*
X70191333Y-136472657D01*
X70191333Y-136615514D01*
X70143714Y-136710752D01*
X70096095Y-136758371D01*
X70000857Y-136805990D01*
X69619904Y-136805990D01*
X71143714Y-137282180D02*
X70572285Y-137282180D01*
X70858000Y-137282180D02*
X70858000Y-136282180D01*
X70762761Y-136425038D01*
X70667523Y-136520276D01*
X70572285Y-136567895D01*
G04 #@! TO.C,R2*
X67143333Y-134996180D02*
X66810000Y-134519990D01*
X66571904Y-134996180D02*
X66571904Y-133996180D01*
X66952857Y-133996180D01*
X67048095Y-134043800D01*
X67095714Y-134091419D01*
X67143333Y-134186657D01*
X67143333Y-134329514D01*
X67095714Y-134424752D01*
X67048095Y-134472371D01*
X66952857Y-134519990D01*
X66571904Y-134519990D01*
X67524285Y-134091419D02*
X67571904Y-134043800D01*
X67667142Y-133996180D01*
X67905238Y-133996180D01*
X68000476Y-134043800D01*
X68048095Y-134091419D01*
X68095714Y-134186657D01*
X68095714Y-134281895D01*
X68048095Y-134424752D01*
X67476666Y-134996180D01*
X68095714Y-134996180D01*
G04 #@! TO.C,U3*
X138049095Y-115327180D02*
X138049095Y-116136704D01*
X138096714Y-116231942D01*
X138144333Y-116279561D01*
X138239571Y-116327180D01*
X138430047Y-116327180D01*
X138525285Y-116279561D01*
X138572904Y-116231942D01*
X138620523Y-116136704D01*
X138620523Y-115327180D01*
X139001476Y-115327180D02*
X139620523Y-115327180D01*
X139287190Y-115708133D01*
X139430047Y-115708133D01*
X139525285Y-115755752D01*
X139572904Y-115803371D01*
X139620523Y-115898609D01*
X139620523Y-116136704D01*
X139572904Y-116231942D01*
X139525285Y-116279561D01*
X139430047Y-116327180D01*
X139144333Y-116327180D01*
X139049095Y-116279561D01*
X139001476Y-116231942D01*
G04 #@! TO.C,C8*
X89622333Y-117501942D02*
X89574714Y-117549561D01*
X89431857Y-117597180D01*
X89336619Y-117597180D01*
X89193761Y-117549561D01*
X89098523Y-117454323D01*
X89050904Y-117359085D01*
X89003285Y-117168609D01*
X89003285Y-117025752D01*
X89050904Y-116835276D01*
X89098523Y-116740038D01*
X89193761Y-116644800D01*
X89336619Y-116597180D01*
X89431857Y-116597180D01*
X89574714Y-116644800D01*
X89622333Y-116692419D01*
X90193761Y-117025752D02*
X90098523Y-116978133D01*
X90050904Y-116930514D01*
X90003285Y-116835276D01*
X90003285Y-116787657D01*
X90050904Y-116692419D01*
X90098523Y-116644800D01*
X90193761Y-116597180D01*
X90384238Y-116597180D01*
X90479476Y-116644800D01*
X90527095Y-116692419D01*
X90574714Y-116787657D01*
X90574714Y-116835276D01*
X90527095Y-116930514D01*
X90479476Y-116978133D01*
X90384238Y-117025752D01*
X90193761Y-117025752D01*
X90098523Y-117073371D01*
X90050904Y-117120990D01*
X90003285Y-117216228D01*
X90003285Y-117406704D01*
X90050904Y-117501942D01*
X90098523Y-117549561D01*
X90193761Y-117597180D01*
X90384238Y-117597180D01*
X90479476Y-117549561D01*
X90527095Y-117501942D01*
X90574714Y-117406704D01*
X90574714Y-117216228D01*
X90527095Y-117120990D01*
X90479476Y-117073371D01*
X90384238Y-117025752D01*
G04 #@! TO.C,R4*
X78192333Y-106675180D02*
X77859000Y-106198990D01*
X77620904Y-106675180D02*
X77620904Y-105675180D01*
X78001857Y-105675180D01*
X78097095Y-105722800D01*
X78144714Y-105770419D01*
X78192333Y-105865657D01*
X78192333Y-106008514D01*
X78144714Y-106103752D01*
X78097095Y-106151371D01*
X78001857Y-106198990D01*
X77620904Y-106198990D01*
X79049476Y-106008514D02*
X79049476Y-106675180D01*
X78811380Y-105627561D02*
X78573285Y-106341847D01*
X79192333Y-106341847D01*
G04 #@! TO.C,R5*
X73112333Y-106675180D02*
X72779000Y-106198990D01*
X72540904Y-106675180D02*
X72540904Y-105675180D01*
X72921857Y-105675180D01*
X73017095Y-105722800D01*
X73064714Y-105770419D01*
X73112333Y-105865657D01*
X73112333Y-106008514D01*
X73064714Y-106103752D01*
X73017095Y-106151371D01*
X72921857Y-106198990D01*
X72540904Y-106198990D01*
X74017095Y-105675180D02*
X73540904Y-105675180D01*
X73493285Y-106151371D01*
X73540904Y-106103752D01*
X73636142Y-106056133D01*
X73874238Y-106056133D01*
X73969476Y-106103752D01*
X74017095Y-106151371D01*
X74064714Y-106246609D01*
X74064714Y-106484704D01*
X74017095Y-106579942D01*
X73969476Y-106627561D01*
X73874238Y-106675180D01*
X73636142Y-106675180D01*
X73540904Y-106627561D01*
X73493285Y-106579942D01*
G04 #@! TO.C,R6*
X68159333Y-106675180D02*
X67826000Y-106198990D01*
X67587904Y-106675180D02*
X67587904Y-105675180D01*
X67968857Y-105675180D01*
X68064095Y-105722800D01*
X68111714Y-105770419D01*
X68159333Y-105865657D01*
X68159333Y-106008514D01*
X68111714Y-106103752D01*
X68064095Y-106151371D01*
X67968857Y-106198990D01*
X67587904Y-106198990D01*
X69016476Y-105675180D02*
X68826000Y-105675180D01*
X68730761Y-105722800D01*
X68683142Y-105770419D01*
X68587904Y-105913276D01*
X68540285Y-106103752D01*
X68540285Y-106484704D01*
X68587904Y-106579942D01*
X68635523Y-106627561D01*
X68730761Y-106675180D01*
X68921238Y-106675180D01*
X69016476Y-106627561D01*
X69064095Y-106579942D01*
X69111714Y-106484704D01*
X69111714Y-106246609D01*
X69064095Y-106151371D01*
X69016476Y-106103752D01*
X68921238Y-106056133D01*
X68730761Y-106056133D01*
X68635523Y-106103752D01*
X68587904Y-106151371D01*
X68540285Y-106246609D01*
G04 #@! TO.C,C1*
X78021833Y-125312442D02*
X77974214Y-125360061D01*
X77831357Y-125407680D01*
X77736119Y-125407680D01*
X77593261Y-125360061D01*
X77498023Y-125264823D01*
X77450404Y-125169585D01*
X77402785Y-124979109D01*
X77402785Y-124836252D01*
X77450404Y-124645776D01*
X77498023Y-124550538D01*
X77593261Y-124455300D01*
X77736119Y-124407680D01*
X77831357Y-124407680D01*
X77974214Y-124455300D01*
X78021833Y-124502919D01*
X78974214Y-125407680D02*
X78402785Y-125407680D01*
X78688500Y-125407680D02*
X78688500Y-124407680D01*
X78593261Y-124550538D01*
X78498023Y-124645776D01*
X78402785Y-124693395D01*
G04 #@! TO.C,C2*
X76033333Y-130201942D02*
X75985714Y-130249561D01*
X75842857Y-130297180D01*
X75747619Y-130297180D01*
X75604761Y-130249561D01*
X75509523Y-130154323D01*
X75461904Y-130059085D01*
X75414285Y-129868609D01*
X75414285Y-129725752D01*
X75461904Y-129535276D01*
X75509523Y-129440038D01*
X75604761Y-129344800D01*
X75747619Y-129297180D01*
X75842857Y-129297180D01*
X75985714Y-129344800D01*
X76033333Y-129392419D01*
X76414285Y-129392419D02*
X76461904Y-129344800D01*
X76557142Y-129297180D01*
X76795238Y-129297180D01*
X76890476Y-129344800D01*
X76938095Y-129392419D01*
X76985714Y-129487657D01*
X76985714Y-129582895D01*
X76938095Y-129725752D01*
X76366666Y-130297180D01*
X76985714Y-130297180D01*
G04 #@! TO.C,C3*
X115022333Y-124260942D02*
X114974714Y-124308561D01*
X114831857Y-124356180D01*
X114736619Y-124356180D01*
X114593761Y-124308561D01*
X114498523Y-124213323D01*
X114450904Y-124118085D01*
X114403285Y-123927609D01*
X114403285Y-123784752D01*
X114450904Y-123594276D01*
X114498523Y-123499038D01*
X114593761Y-123403800D01*
X114736619Y-123356180D01*
X114831857Y-123356180D01*
X114974714Y-123403800D01*
X115022333Y-123451419D01*
X115355666Y-123356180D02*
X115974714Y-123356180D01*
X115641380Y-123737133D01*
X115784238Y-123737133D01*
X115879476Y-123784752D01*
X115927095Y-123832371D01*
X115974714Y-123927609D01*
X115974714Y-124165704D01*
X115927095Y-124260942D01*
X115879476Y-124308561D01*
X115784238Y-124356180D01*
X115498523Y-124356180D01*
X115403285Y-124308561D01*
X115355666Y-124260942D01*
G04 #@! TO.C,C4*
X112037833Y-109754942D02*
X111990214Y-109802561D01*
X111847357Y-109850180D01*
X111752119Y-109850180D01*
X111609261Y-109802561D01*
X111514023Y-109707323D01*
X111466404Y-109612085D01*
X111418785Y-109421609D01*
X111418785Y-109278752D01*
X111466404Y-109088276D01*
X111514023Y-108993038D01*
X111609261Y-108897800D01*
X111752119Y-108850180D01*
X111847357Y-108850180D01*
X111990214Y-108897800D01*
X112037833Y-108945419D01*
X112894976Y-109183514D02*
X112894976Y-109850180D01*
X112656880Y-108802561D02*
X112418785Y-109516847D01*
X113037833Y-109516847D01*
G04 #@! TO.C,C7*
X98976833Y-107659442D02*
X98929214Y-107707061D01*
X98786357Y-107754680D01*
X98691119Y-107754680D01*
X98548261Y-107707061D01*
X98453023Y-107611823D01*
X98405404Y-107516585D01*
X98357785Y-107326109D01*
X98357785Y-107183252D01*
X98405404Y-106992776D01*
X98453023Y-106897538D01*
X98548261Y-106802300D01*
X98691119Y-106754680D01*
X98786357Y-106754680D01*
X98929214Y-106802300D01*
X98976833Y-106849919D01*
X99310166Y-106754680D02*
X99976833Y-106754680D01*
X99548261Y-107754680D01*
G04 #@! TO.C,C9*
X92416333Y-112774942D02*
X92368714Y-112822561D01*
X92225857Y-112870180D01*
X92130619Y-112870180D01*
X91987761Y-112822561D01*
X91892523Y-112727323D01*
X91844904Y-112632085D01*
X91797285Y-112441609D01*
X91797285Y-112298752D01*
X91844904Y-112108276D01*
X91892523Y-112013038D01*
X91987761Y-111917800D01*
X92130619Y-111870180D01*
X92225857Y-111870180D01*
X92368714Y-111917800D01*
X92416333Y-111965419D01*
X92892523Y-112870180D02*
X93083000Y-112870180D01*
X93178238Y-112822561D01*
X93225857Y-112774942D01*
X93321095Y-112632085D01*
X93368714Y-112441609D01*
X93368714Y-112060657D01*
X93321095Y-111965419D01*
X93273476Y-111917800D01*
X93178238Y-111870180D01*
X92987761Y-111870180D01*
X92892523Y-111917800D01*
X92844904Y-111965419D01*
X92797285Y-112060657D01*
X92797285Y-112298752D01*
X92844904Y-112393990D01*
X92892523Y-112441609D01*
X92987761Y-112489228D01*
X93178238Y-112489228D01*
X93273476Y-112441609D01*
X93321095Y-112393990D01*
X93368714Y-112298752D01*
G04 #@! TO.C,C10*
X122166142Y-113691942D02*
X122118523Y-113739561D01*
X121975666Y-113787180D01*
X121880428Y-113787180D01*
X121737571Y-113739561D01*
X121642333Y-113644323D01*
X121594714Y-113549085D01*
X121547095Y-113358609D01*
X121547095Y-113215752D01*
X121594714Y-113025276D01*
X121642333Y-112930038D01*
X121737571Y-112834800D01*
X121880428Y-112787180D01*
X121975666Y-112787180D01*
X122118523Y-112834800D01*
X122166142Y-112882419D01*
X123118523Y-113787180D02*
X122547095Y-113787180D01*
X122832809Y-113787180D02*
X122832809Y-112787180D01*
X122737571Y-112930038D01*
X122642333Y-113025276D01*
X122547095Y-113072895D01*
X123737571Y-112787180D02*
X123832809Y-112787180D01*
X123928047Y-112834800D01*
X123975666Y-112882419D01*
X124023285Y-112977657D01*
X124070904Y-113168133D01*
X124070904Y-113406228D01*
X124023285Y-113596704D01*
X123975666Y-113691942D01*
X123928047Y-113739561D01*
X123832809Y-113787180D01*
X123737571Y-113787180D01*
X123642333Y-113739561D01*
X123594714Y-113691942D01*
X123547095Y-113596704D01*
X123499476Y-113406228D01*
X123499476Y-113168133D01*
X123547095Y-112977657D01*
X123594714Y-112882419D01*
X123642333Y-112834800D01*
X123737571Y-112787180D01*
G04 #@! TO.C,C11*
X173918642Y-137560642D02*
X173871023Y-137608261D01*
X173728166Y-137655880D01*
X173632928Y-137655880D01*
X173490071Y-137608261D01*
X173394833Y-137513023D01*
X173347214Y-137417785D01*
X173299595Y-137227309D01*
X173299595Y-137084452D01*
X173347214Y-136893976D01*
X173394833Y-136798738D01*
X173490071Y-136703500D01*
X173632928Y-136655880D01*
X173728166Y-136655880D01*
X173871023Y-136703500D01*
X173918642Y-136751119D01*
X174871023Y-137655880D02*
X174299595Y-137655880D01*
X174585309Y-137655880D02*
X174585309Y-136655880D01*
X174490071Y-136798738D01*
X174394833Y-136893976D01*
X174299595Y-136941595D01*
X175823404Y-137655880D02*
X175251976Y-137655880D01*
X175537690Y-137655880D02*
X175537690Y-136655880D01*
X175442452Y-136798738D01*
X175347214Y-136893976D01*
X175251976Y-136941595D01*
G04 #@! TO.C,R3*
X62952333Y-114041180D02*
X62619000Y-113564990D01*
X62380904Y-114041180D02*
X62380904Y-113041180D01*
X62761857Y-113041180D01*
X62857095Y-113088800D01*
X62904714Y-113136419D01*
X62952333Y-113231657D01*
X62952333Y-113374514D01*
X62904714Y-113469752D01*
X62857095Y-113517371D01*
X62761857Y-113564990D01*
X62380904Y-113564990D01*
X63285666Y-113041180D02*
X63904714Y-113041180D01*
X63571380Y-113422133D01*
X63714238Y-113422133D01*
X63809476Y-113469752D01*
X63857095Y-113517371D01*
X63904714Y-113612609D01*
X63904714Y-113850704D01*
X63857095Y-113945942D01*
X63809476Y-113993561D01*
X63714238Y-114041180D01*
X63428523Y-114041180D01*
X63333285Y-113993561D01*
X63285666Y-113945942D01*
G04 #@! TO.C,U4*
X65151095Y-122566180D02*
X65151095Y-123375704D01*
X65198714Y-123470942D01*
X65246333Y-123518561D01*
X65341571Y-123566180D01*
X65532047Y-123566180D01*
X65627285Y-123518561D01*
X65674904Y-123470942D01*
X65722523Y-123375704D01*
X65722523Y-122566180D01*
X66627285Y-122899514D02*
X66627285Y-123566180D01*
X66389190Y-122518561D02*
X66151095Y-123232847D01*
X66770142Y-123232847D01*
G04 #@! TD*
M02*
