M48
; DRILL file {KiCad (5.1.5)-3} date 6/13/2020 11:59:17 AM
; FORMAT={-:-/ absolute / inch / decimal}
; #@! TF.CreationDate,2020-06-13T11:59:17-04:00
; #@! TF.GenerationSoftware,Kicad,Pcbnew,(5.1.5)-3
; #@! TF.FileFunction,Plated,1,2,PTH
FMAT,2
INCH
T1C0.0120
T2C0.0197
T3C0.0217
T4C0.0315
T5C0.0354
T6C0.0394
T7C0.0400
%
G90
G05
T1
X2.43Y-5.677
X2.44Y-3.797
X2.935Y-5.677
X3.15Y-4.447
X3.155Y-5.302
X3.23Y-3.792
X3.23Y-4.197
X3.23Y-4.407
X3.23Y-4.547
X3.23Y-5.012
X3.28Y-4.102
X3.28Y-4.197
X3.28Y-4.357
X3.28Y-4.602
X3.28Y-4.907
X3.28Y-5.347
X3.33Y-3.942
X3.33Y-4.042
X3.33Y-4.842
X3.38Y-3.857
X3.38Y-5.417
X3.48Y-3.857
X3.48Y-4.967
X3.48Y-5.417
X3.53Y-5.037
X3.53Y-5.262
X3.58Y-3.857
X3.58Y-5.012
X3.58Y-5.332
X3.58Y-5.417
X3.6288Y-5.3136
X3.63Y-5.082
X3.68Y-3.857
X3.68Y-5.0614
X3.68Y-5.2891
X3.68Y-5.417
X3.7044Y-4.627
X3.705Y-4.112
X3.73Y-5.117
X3.78Y-3.857
X3.78Y-5.1103
X3.78Y-5.357
X3.78Y-5.417
X3.805Y-4.387
X3.805Y-4.942
X3.83Y-5.162
X3.83Y-5.2726
X3.855Y-4.422
X3.8556Y-4.0614
X3.88Y-3.857
X3.88Y-5.417
X3.905Y-4.087
X3.905Y-4.607
X3.955Y-4.137
X3.955Y-4.897
X3.98Y-3.857
X3.98Y-5.092
X3.98Y-5.3292
X3.98Y-5.417
X4.03Y-5.082
X4.03Y-5.165
X4.08Y-3.857
X4.08Y-5.1492
X4.08Y-5.417
X4.13Y-5.132
X4.13Y-5.3047
X4.18Y-3.857
X4.18Y-5.127
X4.18Y-5.282
X4.18Y-5.417
X4.23Y-5.132
X4.28Y-3.857
X4.28Y-5.117
X4.28Y-5.417
X4.33Y-3.857
X4.33Y-4.467
X4.33Y-4.802
X4.33Y-5.417
X4.38Y-3.887
X4.38Y-4.1823
X4.38Y-4.3863
X4.38Y-4.977
X4.38Y-5.392
X4.43Y-3.857
X4.43Y-4.312
X4.43Y-5.417
X4.48Y-3.887
X4.48Y-4.022
X4.48Y-5.392
X4.53Y-3.857
X4.53Y-4.037
X4.53Y-5.117
X4.53Y-5.417
X4.58Y-3.8864
X4.58Y-4.182
X4.58Y-4.247
X4.58Y-4.377
X4.58Y-4.519
X4.58Y-4.997
X4.58Y-5.392
X4.63Y-3.857
X4.63Y-5.417
X4.685Y-4.5422
X4.685Y-4.6697
X4.73Y-5.072
X4.73Y-5.2576
X4.78Y-3.857
X4.78Y-4.0126
X4.78Y-5.047
X4.78Y-5.417
X4.83Y-5.027
X4.88Y-3.857
X4.88Y-5.022
X4.88Y-5.417
X4.9056Y-4.382
X4.9056Y-4.702
X4.93Y-4.907
X4.955Y-3.957
X4.955Y-4.412
X4.98Y-3.857
X4.98Y-4.712
X4.98Y-5.417
X5.03Y-4.782
X5.08Y-3.857
X5.08Y-4.757
X5.08Y-5.417
X5.1044Y-4.502
X5.1056Y-4.252
X5.13Y-4.837
X5.18Y-3.857
X5.18Y-4.812
X5.18Y-5.417
X5.205Y-4.387
X5.205Y-4.6705
X5.23Y-4.837
X5.28Y-3.857
X5.28Y-4.777
X5.28Y-5.417
X5.305Y-4.382
X5.305Y-4.627
X5.38Y-3.857
X5.38Y-4.832
X5.38Y-5.417
X5.4044Y-4.152
X5.405Y-4.782
X5.4544Y-4.507
X5.455Y-4.182
X5.46Y-5.417
X5.48Y-3.857
X5.49Y-5.382
X5.509Y-4.314
X5.512Y-4.732
X5.53Y-3.802
X5.56Y-3.957
X5.56Y-4.797
X5.61Y-4.062
X5.66Y-4.522
X5.66Y-4.6949
X5.675Y-4.252
X5.685Y-4.7564
X5.6906Y-4.5097
X5.695Y-5.037
X5.72Y-4.842
X5.7256Y-4.2861
X5.7558Y-4.8808
X5.78Y-4.822
X5.7888Y-4.8822
X5.8Y-5.412
X5.8Y-5.672
X5.83Y-4.937
X5.8318Y-4.8738
X5.9Y-5.577
X5.9244Y-4.437
X5.9273Y-4.7893
X6.195Y-4.117
X6.2356Y-4.197
X6.26Y-4.172
X6.3575Y-4.2345
X6.445Y-4.062
X6.475Y-4.032
X6.54Y-4.102
X6.895Y-4.612
X6.895Y-5.017
X6.91Y-3.802
X6.91Y-5.677
T4
X6.12Y-4.282
X6.12Y-4.382
X6.12Y-4.482
X6.12Y-4.582
X6.12Y-4.682
X6.12Y-4.782
X6.12Y-4.882
X6.12Y-4.982
X6.12Y-5.082
X6.12Y-5.182
X6.12Y-5.282
X6.12Y-5.382
X6.12Y-5.482
X6.12Y-5.582
X6.72Y-4.282
X6.72Y-4.382
X6.72Y-4.482
X6.72Y-4.582
X6.72Y-4.682
X6.72Y-4.782
X6.72Y-4.882
X6.72Y-4.982
X6.72Y-5.082
X6.72Y-5.182
X6.72Y-5.282
X6.72Y-5.382
X6.72Y-5.482
X6.72Y-5.582
X6.0Y-4.282
X6.0Y-4.382
X6.0Y-4.482
X6.0Y-4.582
X6.0Y-4.682
X6.0Y-4.782
X6.0Y-4.882
X6.0Y-4.982
X6.0Y-5.082
X6.0Y-5.182
X6.0Y-5.282
X6.0Y-5.382
X6.0Y-5.482
X6.0Y-5.582
X6.6Y-4.282
X6.6Y-4.382
X6.6Y-4.482
X6.6Y-4.582
X6.6Y-4.682
X6.6Y-4.782
X6.6Y-4.882
X6.6Y-4.982
X6.6Y-5.082
X6.6Y-5.182
X6.6Y-5.282
X6.6Y-5.382
X6.6Y-5.482
X6.6Y-5.582
T5
X2.565Y-5.49
X2.565Y-5.59
T6
X2.67Y-4.552
X2.67Y-4.652
X2.77Y-4.552
X2.77Y-4.652
X2.87Y-4.552
X2.87Y-4.652
X2.97Y-4.552
X2.97Y-4.652
X6.65Y-3.942
X6.65Y-4.042
T7
X5.745Y-3.925
X5.745Y-4.025
X5.845Y-3.925
X5.845Y-4.025
X5.945Y-3.925
X5.945Y-4.025
X6.045Y-3.925
X6.045Y-4.025
X6.145Y-3.925
X6.145Y-4.025
X2.615Y-3.91
X2.615Y-4.01
X2.715Y-3.91
X2.715Y-4.01
X2.815Y-3.91
X2.815Y-4.01
X2.915Y-3.91
X2.915Y-4.01
X3.015Y-3.91
X3.015Y-4.01
T2
G00X6.8801Y-3.8778
M15
G01X6.9057Y-3.8778
M16
G05
G00X6.8801Y-4.1534
M15
G01X6.9057Y-4.1534
M16
G05
T3
G00X6.7866Y-3.9231
M15
G01X6.7866Y-3.9113
M16
G05
G00X6.7866Y-4.1199
M15
G01X6.7866Y-4.1081
M16
G05
T0
M30
