G04 #@! TF.GenerationSoftware,KiCad,Pcbnew,(5.1.5)-3*
G04 #@! TF.CreationDate,2020-04-27T11:33:16-04:00*
G04 #@! TF.ProjectId,VS-Tipi,56532d54-6970-4692-9e6b-696361645f70,V0*
G04 #@! TF.SameCoordinates,Original*
G04 #@! TF.FileFunction,Copper,L2,Bot*
G04 #@! TF.FilePolarity,Positive*
%FSLAX46Y46*%
G04 Gerber Fmt 4.6, Leading zero omitted, Abs format (unit mm)*
G04 Created by KiCad (PCBNEW (5.1.5)-3) date 2020-04-27 11:33:16*
%MOMM*%
%LPD*%
G04 APERTURE LIST*
%ADD10C,0.025400*%
%ADD11R,1.250000X1.500000*%
%ADD12O,1.700000X1.350000*%
%ADD13O,1.500000X1.100000*%
%ADD14O,1.600000X1.600000*%
%ADD15R,1.600000X1.600000*%
%ADD16R,1.727200X1.727200*%
%ADD17O,1.727200X1.727200*%
%ADD18R,1.600000X6.350000*%
%ADD19R,1.800000X1.800000*%
%ADD20C,1.800000*%
%ADD21R,1.700000X1.700000*%
%ADD22O,1.700000X1.700000*%
%ADD23C,0.685800*%
%ADD24C,0.508000*%
%ADD25C,0.250000*%
%ADD26C,1.270000*%
%ADD27C,0.254000*%
G04 APERTURE END LIST*
D10*
X138633200Y-145161000D02*
X140208000Y-143586200D01*
X82296000Y-143586200D02*
X83870800Y-145161000D01*
X176530000Y-118237000D02*
X176530000Y-95504000D01*
X81280000Y-90424000D02*
X141224000Y-90424000D01*
X141224000Y-90424000D02*
X141224000Y-95504000D01*
X81280000Y-95504000D02*
X81280000Y-90424000D01*
X146558000Y-145161000D02*
X176530000Y-145161000D01*
X176530000Y-118237000D02*
G75*
G03X176530000Y-126365000I0J-4064000D01*
G01*
X141224000Y-95504000D02*
X176530000Y-95504000D01*
X83870800Y-145161000D02*
X138633200Y-145161000D01*
X60833000Y-95504000D02*
X81280000Y-95504000D01*
X75438000Y-145161000D02*
X75438000Y-136271000D01*
X60833000Y-145161000D02*
X60833000Y-95504000D01*
X75438000Y-145161000D02*
X60833000Y-145161000D01*
X176530000Y-145161000D02*
X176530000Y-126365000D01*
X146558000Y-136271000D02*
X146558000Y-145161000D01*
X140208000Y-136271000D02*
X146558000Y-136271000D01*
X140208000Y-143586200D02*
X140208000Y-136271000D01*
X82296000Y-136271000D02*
X82296000Y-143586200D01*
X75438000Y-136271000D02*
X82296000Y-136271000D01*
D11*
X84582000Y-100721800D03*
X84582000Y-98221800D03*
D12*
X174851000Y-99326800D03*
X174851000Y-104786800D03*
D13*
X171851000Y-99636800D03*
X171851000Y-104476800D03*
D14*
X155448000Y-141782800D03*
X170688000Y-108762800D03*
X155448000Y-139242800D03*
X170688000Y-111302800D03*
X155448000Y-136702800D03*
X170688000Y-113842800D03*
X155448000Y-134162800D03*
X170688000Y-116382800D03*
X155448000Y-131622800D03*
X170688000Y-118922800D03*
X155448000Y-129082800D03*
X170688000Y-121462800D03*
X155448000Y-126542800D03*
X170688000Y-124002800D03*
X155448000Y-124002800D03*
X170688000Y-126542800D03*
X155448000Y-121462800D03*
X170688000Y-129082800D03*
X155448000Y-118922800D03*
X170688000Y-131622800D03*
X155448000Y-116382800D03*
X170688000Y-134162800D03*
X155448000Y-113842800D03*
X170688000Y-136702800D03*
X155448000Y-111302800D03*
X170688000Y-139242800D03*
X155448000Y-108762800D03*
D15*
X170688000Y-141782800D03*
D16*
X145923000Y-102235000D03*
D17*
X145923000Y-99695000D03*
X148463000Y-102235000D03*
X148463000Y-99695000D03*
X151003000Y-102235000D03*
X151003000Y-99695000D03*
X153543000Y-102235000D03*
X153543000Y-99695000D03*
X156083000Y-102235000D03*
X156083000Y-99695000D03*
D14*
X167640000Y-141782800D03*
X152400000Y-108762800D03*
X167640000Y-139242800D03*
X152400000Y-111302800D03*
X167640000Y-136702800D03*
X152400000Y-113842800D03*
X167640000Y-134162800D03*
X152400000Y-116382800D03*
X167640000Y-131622800D03*
X152400000Y-118922800D03*
X167640000Y-129082800D03*
X152400000Y-121462800D03*
X167640000Y-126542800D03*
X152400000Y-124002800D03*
X167640000Y-124002800D03*
X152400000Y-126542800D03*
X167640000Y-121462800D03*
X152400000Y-129082800D03*
X167640000Y-118922800D03*
X152400000Y-131622800D03*
X167640000Y-116382800D03*
X152400000Y-134162800D03*
X167640000Y-113842800D03*
X152400000Y-136702800D03*
X167640000Y-111302800D03*
X152400000Y-139242800D03*
X167640000Y-108762800D03*
D15*
X152400000Y-141782800D03*
D18*
X137922000Y-141782800D03*
X135382000Y-141782800D03*
X132842000Y-141782800D03*
X130302000Y-141782800D03*
X127762000Y-141782800D03*
X125222000Y-141782800D03*
X122682000Y-141782800D03*
X120142000Y-141782800D03*
X117602000Y-141782800D03*
X115062000Y-141782800D03*
X112522000Y-141782800D03*
X109982000Y-141782800D03*
X107442000Y-141782800D03*
X104902000Y-141782800D03*
X102362000Y-141782800D03*
X99822000Y-141782800D03*
X97282000Y-141782800D03*
X94742000Y-141782800D03*
X92202000Y-141782800D03*
X87122000Y-141782800D03*
X84582000Y-141782800D03*
X89662000Y-141782800D03*
X137922000Y-93726000D03*
X135382000Y-93726000D03*
X132842000Y-93726000D03*
X130302000Y-93726000D03*
X127762000Y-93726000D03*
X125222000Y-93726000D03*
X122682000Y-93726000D03*
X120142000Y-93726000D03*
X117602000Y-93726000D03*
X115062000Y-93726000D03*
X112522000Y-93726000D03*
X109982000Y-93726000D03*
X107442000Y-93726000D03*
X104902000Y-93726000D03*
X102362000Y-93726000D03*
X99822000Y-93726000D03*
X97282000Y-93726000D03*
X94742000Y-93726000D03*
X92202000Y-93726000D03*
X87122000Y-93726000D03*
X84582000Y-93726000D03*
X89662000Y-93726000D03*
D16*
X66421000Y-101854000D03*
D17*
X66421000Y-99314000D03*
X68961000Y-101854000D03*
X68961000Y-99314000D03*
X71501000Y-101854000D03*
X71501000Y-99314000D03*
X74041000Y-101854000D03*
X74041000Y-99314000D03*
X76581000Y-101854000D03*
X76581000Y-99314000D03*
D19*
X65151000Y-141986000D03*
D20*
X65151000Y-139446000D03*
D21*
X75438000Y-115620800D03*
D22*
X75438000Y-118160800D03*
X72898000Y-115620800D03*
X72898000Y-118160800D03*
X70358000Y-115620800D03*
X70358000Y-118160800D03*
X67818000Y-115620800D03*
X67818000Y-118160800D03*
D23*
X82042000Y-127304800D03*
X82042000Y-106603800D03*
X82042000Y-111937800D03*
X82042000Y-115493800D03*
X175514000Y-144195800D03*
X61976000Y-96443800D03*
X61722000Y-144195800D03*
X74549000Y-144195800D03*
X83312000Y-135813800D03*
X82042000Y-96316800D03*
X111252000Y-126415800D03*
X129681700Y-108000800D03*
X140462000Y-96570800D03*
X111252000Y-111411300D03*
X96647000Y-111429800D03*
X96647000Y-125526800D03*
X83312000Y-124637800D03*
X83312000Y-116890800D03*
X175514000Y-96570800D03*
X129652300Y-114350800D03*
X147320000Y-144068800D03*
X111252000Y-98729800D03*
X116332000Y-98715101D03*
X111252000Y-136956800D03*
X116332000Y-136956800D03*
X113792000Y-136956800D03*
X113792000Y-98729800D03*
X139446000Y-136702800D03*
X116332000Y-107873800D03*
X111252000Y-106230789D03*
X116332000Y-106222800D03*
X144145000Y-108000800D03*
X83312000Y-110667800D03*
X83312000Y-106603800D03*
X147320000Y-137464800D03*
X175133000Y-127431800D03*
X116332000Y-126923800D03*
X116332000Y-111175800D03*
X113792000Y-102158800D03*
X144653000Y-127939800D03*
X175133000Y-117144800D03*
X161480401Y-107556399D03*
X141224000Y-121843800D03*
X125857000Y-112064800D03*
X141224000Y-100507800D03*
X84582000Y-102285800D03*
X125857000Y-100507800D03*
X84582000Y-122986800D03*
X100457000Y-124383800D03*
X100457000Y-105079800D03*
X88392000Y-137591800D03*
X88392000Y-97967800D03*
X88392000Y-126161800D03*
X89662000Y-127939800D03*
X89662000Y-133654800D03*
X90932000Y-137591800D03*
X90932000Y-97967800D03*
X90932000Y-127304800D03*
X90932000Y-135432800D03*
X92202000Y-129082800D03*
X92171160Y-134964505D03*
X93472000Y-97967800D03*
X93472000Y-137591800D03*
X93472000Y-128560100D03*
X93472000Y-134344205D03*
X94742000Y-129971800D03*
X96012000Y-137591800D03*
X96012000Y-97967800D03*
X96012000Y-129800701D03*
X96012000Y-136067800D03*
X97282000Y-131114800D03*
X97282000Y-133923500D03*
X101092000Y-97967800D03*
X101092000Y-137591800D03*
X101092000Y-135360590D03*
X101092000Y-129336800D03*
X102362000Y-129082800D03*
X102362000Y-131192270D03*
X103632000Y-97967800D03*
X103632000Y-137591800D03*
X103632000Y-130789860D03*
X104902000Y-134740290D03*
X104902000Y-130352800D03*
X106172000Y-137591800D03*
X106172000Y-97967800D03*
X106172000Y-134162800D03*
X106172000Y-130225800D03*
X107442000Y-130352800D03*
X108712000Y-97967800D03*
X108712000Y-137591800D03*
X108712000Y-129971800D03*
X109982000Y-137591800D03*
X109982000Y-97967800D03*
X109982000Y-113461800D03*
X109982000Y-121970800D03*
X112522000Y-137591800D03*
X112522000Y-97967800D03*
X112522000Y-109524800D03*
X115062000Y-137591800D03*
X115062000Y-129971800D03*
X163703000Y-103174800D03*
X115062000Y-97967800D03*
X115062000Y-102539800D03*
X120142000Y-133542500D03*
X120142000Y-128828800D03*
X121412000Y-97967800D03*
X121412000Y-137591800D03*
X121412000Y-128193800D03*
X164465000Y-102412800D03*
X121412000Y-101919500D03*
X122682000Y-127685800D03*
X123952000Y-137591800D03*
X123952000Y-97967800D03*
X123952000Y-127558800D03*
X125222000Y-124637800D03*
X130302000Y-122859800D03*
X136652000Y-97967800D03*
X136652000Y-137591800D03*
X136652000Y-122732800D03*
X134112000Y-137591800D03*
X134112000Y-97967800D03*
X134112000Y-121335800D03*
X126492000Y-97967800D03*
X126492000Y-137591800D03*
X126492000Y-119684800D03*
X132842000Y-122859800D03*
X131572000Y-97967800D03*
X131572000Y-137591800D03*
X131572000Y-122224800D03*
X129032000Y-97967800D03*
X129032000Y-120827800D03*
X129032000Y-137591800D03*
X127762000Y-121462800D03*
X147036225Y-124009050D03*
X146812000Y-122478800D03*
X145429700Y-108865947D03*
X148127856Y-123794656D03*
X146196517Y-123971520D03*
X148082000Y-125399800D03*
X145288000Y-122986800D03*
X80010000Y-112953800D03*
X80137000Y-134670800D03*
X157353000Y-104571800D03*
X94092300Y-117525800D03*
X94107000Y-104444800D03*
X158383700Y-106603800D03*
X159004000Y-105968800D03*
X138542300Y-114477800D03*
X138557000Y-106222800D03*
X144399000Y-120813100D03*
X144542251Y-114547500D03*
X137287000Y-121462800D03*
X137272300Y-105460800D03*
X150552619Y-121647419D03*
X150480300Y-112699800D03*
X118999000Y-118611300D03*
X118999000Y-115370700D03*
X143764000Y-119250998D03*
X143764000Y-114858800D03*
X134747000Y-117525800D03*
X134747000Y-111302800D03*
X132207000Y-118630698D03*
X132207000Y-111429800D03*
X140335000Y-120192800D03*
X140335000Y-109524800D03*
X124601700Y-119430800D03*
X124601700Y-111302800D03*
X166116000Y-104190800D03*
X99187000Y-117017800D03*
X99187000Y-103809800D03*
X138684000Y-137591800D03*
X139192000Y-97967800D03*
X117602000Y-137591800D03*
X117602000Y-97967800D03*
X98552000Y-97967800D03*
X98552000Y-137591800D03*
X85852000Y-137591800D03*
X85852000Y-97967800D03*
X149860000Y-141655800D03*
X142494000Y-103174800D03*
X97917000Y-112318800D03*
X97931700Y-103160100D03*
D24*
X82042000Y-107088733D02*
X82042000Y-111937800D01*
X82042000Y-106603800D02*
X82042000Y-107088733D01*
X82042000Y-115620800D02*
X82042000Y-127304800D01*
X82042000Y-111937800D02*
X82042000Y-115493800D01*
X82042000Y-115493800D02*
X82042000Y-115620800D01*
D25*
X112522000Y-140292800D02*
X112522000Y-141782800D01*
X111032000Y-141782800D02*
X117602000Y-141782800D01*
X109982000Y-141782800D02*
X111032000Y-141782800D01*
X152400000Y-105918000D02*
X156083000Y-102235000D01*
X152400000Y-108762800D02*
X152400000Y-105918000D01*
X157224001Y-99147319D02*
X157224001Y-101093999D01*
X156630681Y-98553999D02*
X157224001Y-99147319D01*
X156946599Y-101371401D02*
X156083000Y-102235000D01*
X149604001Y-98553999D02*
X156630681Y-98553999D01*
X157224001Y-101093999D02*
X156946599Y-101371401D01*
X148463000Y-99695000D02*
X149604001Y-98553999D01*
X76581000Y-99314000D02*
X73710800Y-96443800D01*
X73710800Y-96443800D02*
X61976000Y-96443800D01*
X112522000Y-138607800D02*
X112522000Y-141782800D01*
X144837479Y-101093999D02*
X144145000Y-101786478D01*
X147064001Y-101093999D02*
X144837479Y-101093999D01*
X148463000Y-99695000D02*
X147064001Y-101093999D01*
X144145000Y-101786478D02*
X144145000Y-107492800D01*
X148463000Y-99695000D02*
X145338800Y-96570800D01*
X145338800Y-96570800D02*
X140462000Y-96570800D01*
X111252000Y-126415800D02*
X111252000Y-111411300D01*
X96505300Y-111302800D02*
X96505300Y-125570700D01*
X171831000Y-131622800D02*
X174498000Y-134289800D01*
X171831000Y-109905800D02*
X171831000Y-131622800D01*
X174498000Y-140258800D02*
X174498000Y-144068800D01*
X174498000Y-134289800D02*
X174498000Y-140258800D01*
X170688000Y-108762800D02*
X171831000Y-109905800D01*
X141097000Y-95935800D02*
X140462000Y-96570800D01*
X117094000Y-141274800D02*
X117602000Y-141782800D01*
X147320000Y-144068800D02*
X147320000Y-137464800D01*
X109982000Y-138509846D02*
X109982000Y-141782800D01*
X110602301Y-137889545D02*
X109982000Y-138509846D01*
X110602301Y-137606499D02*
X110602301Y-137889545D01*
X111252000Y-136956800D02*
X110602301Y-137606499D01*
X116981699Y-137889545D02*
X117445954Y-138353800D01*
X116332000Y-136956800D02*
X116981699Y-137606499D01*
X116981699Y-137606499D02*
X116981699Y-137889545D01*
X117602000Y-138357800D02*
X117602000Y-141782800D01*
X117598000Y-138353800D02*
X117602000Y-138357800D01*
X117445954Y-138353800D02*
X117598000Y-138353800D01*
X112522000Y-139407800D02*
X113792000Y-138137800D01*
X112522000Y-141782800D02*
X112522000Y-139407800D01*
X113792000Y-138137800D02*
X113792000Y-137441733D01*
X115062000Y-139407800D02*
X113792000Y-138137800D01*
X113792000Y-137441733D02*
X113792000Y-136956800D01*
X115062000Y-141782800D02*
X115062000Y-139407800D01*
X115062000Y-96101000D02*
X113792000Y-97371000D01*
X115062000Y-93726000D02*
X115062000Y-96101000D01*
X112522000Y-96101000D02*
X113792000Y-97371000D01*
X112522000Y-93726000D02*
X112522000Y-96101000D01*
X129652300Y-108030200D02*
X129681700Y-108000800D01*
X129652300Y-114350800D02*
X129652300Y-108030200D01*
X144145000Y-107492800D02*
X144145000Y-108000800D01*
D26*
X116332000Y-136956800D02*
X116332000Y-126923800D01*
X111252000Y-98729800D02*
X111252000Y-136956800D01*
X113792000Y-99214733D02*
X113792000Y-102158800D01*
X113792000Y-98729800D02*
X113792000Y-99214733D01*
X109982000Y-93726000D02*
X117602000Y-93726000D01*
D24*
X82169000Y-97309733D02*
X83312000Y-98452733D01*
X82169000Y-96824800D02*
X82169000Y-97309733D01*
X83312000Y-116890800D02*
X83312000Y-124637800D01*
X83312000Y-125122733D02*
X83312000Y-135813800D01*
X83312000Y-124637800D02*
X83312000Y-125122733D01*
X83312000Y-110794800D02*
X83312000Y-116890800D01*
X83312000Y-106603800D02*
X83312000Y-98452733D01*
X83312000Y-110667800D02*
X83312000Y-106603800D01*
D25*
X139700000Y-135432800D02*
X139700000Y-136956800D01*
X140081000Y-135051800D02*
X139700000Y-135432800D01*
X147320000Y-137464800D02*
X147320000Y-135940800D01*
X146431000Y-135051800D02*
X140081000Y-135051800D01*
X147320000Y-135940800D02*
X146431000Y-135051800D01*
D26*
X116332000Y-126923800D02*
X116332000Y-111175800D01*
X116332000Y-111175800D02*
X116332000Y-98715101D01*
X113792000Y-102158800D02*
X113792000Y-136956800D01*
D24*
X116294000Y-98192168D02*
X116294000Y-97409000D01*
X116294000Y-97409000D02*
X117602000Y-96101000D01*
X116332000Y-98230168D02*
X116294000Y-98192168D01*
X117602000Y-96101000D02*
X117602000Y-93726000D01*
X116332000Y-98715101D02*
X116332000Y-98230168D01*
X111252000Y-98128834D02*
X110312200Y-97189034D01*
X111252000Y-98729800D02*
X111252000Y-98128834D01*
X110312200Y-97189034D02*
X110295434Y-97189034D01*
X109982000Y-96875600D02*
X109982000Y-93726000D01*
X110295434Y-97189034D02*
X109982000Y-96875600D01*
X113792000Y-98128834D02*
X113792000Y-97371000D01*
X113792000Y-98729800D02*
X113792000Y-98128834D01*
D25*
X84582000Y-141782800D02*
X84582000Y-138357800D01*
D26*
X141566899Y-121500901D02*
X141224000Y-121843800D01*
X141224000Y-108740954D02*
X141566899Y-109083853D01*
X141566899Y-109083853D02*
X141566899Y-121500901D01*
X141224000Y-100507800D02*
X141224000Y-108740954D01*
X154648001Y-142582799D02*
X155448000Y-141782800D01*
X149901555Y-143370201D02*
X153860599Y-143370201D01*
X148729699Y-142198345D02*
X149901555Y-143370201D01*
X153860599Y-143370201D02*
X154648001Y-142582799D01*
X148729699Y-129834432D02*
X148729699Y-142198345D01*
X141224000Y-122328733D02*
X148729699Y-129834432D01*
X141224000Y-121843800D02*
X141224000Y-122328733D01*
D24*
X125857000Y-112064800D02*
X125857000Y-100507800D01*
D26*
X84582000Y-122986800D02*
X84582000Y-141782800D01*
X84582000Y-100507800D02*
X84582000Y-122986800D01*
D25*
X100598700Y-124369100D02*
X100584000Y-124383800D01*
X100457000Y-105095799D02*
X100457000Y-124383800D01*
X88392000Y-137591800D02*
X88392000Y-126161800D01*
X88392000Y-126161800D02*
X88392000Y-97967800D01*
X89535000Y-93980000D02*
X89789000Y-93726000D01*
X89662000Y-127939800D02*
X89662000Y-93726000D01*
X89662000Y-129844800D02*
X89662000Y-127939800D01*
X89662000Y-133654800D02*
X89662000Y-129844800D01*
X89662000Y-141782800D02*
X89662000Y-133654800D01*
X90932000Y-127304800D02*
X90932000Y-97967800D01*
X90932000Y-137591800D02*
X90932000Y-135432800D01*
X90932000Y-135432800D02*
X90932000Y-127304800D01*
X92329000Y-141478000D02*
X92075000Y-141732000D01*
X92202000Y-93726000D02*
X92202000Y-97151000D01*
X92202000Y-131114800D02*
X92202000Y-141782800D01*
X92202000Y-129082800D02*
X92202000Y-131114800D01*
X92202000Y-97151000D02*
X92202000Y-129082800D01*
X93472000Y-97967800D02*
X93472000Y-137591800D01*
X94615000Y-93980000D02*
X94869000Y-93726000D01*
X94742000Y-132638800D02*
X94742000Y-141782800D01*
X94742000Y-130352800D02*
X94742000Y-132638800D01*
X94742000Y-93726000D02*
X94742000Y-130352800D01*
X96012000Y-125809846D02*
X96012000Y-137591800D01*
X96012000Y-97967800D02*
X96012000Y-125809846D01*
X97409000Y-141478000D02*
X97155000Y-141732000D01*
X97282000Y-93726000D02*
X97282000Y-97151000D01*
X97282000Y-97151000D02*
X97282000Y-131114800D01*
X97282000Y-131114800D02*
X97282000Y-141782800D01*
X101092000Y-97967800D02*
X101092000Y-129336800D01*
X101092000Y-129336800D02*
X101092000Y-137591800D01*
X102362000Y-93726000D02*
X102362000Y-129082800D01*
X102362000Y-129082800D02*
X102362000Y-141782800D01*
X103632000Y-97967800D02*
X103632000Y-137591800D01*
X104902000Y-93726000D02*
X104902000Y-97151000D01*
X104902000Y-97151000D02*
X104902000Y-129209800D01*
X104902000Y-129209800D02*
X104902000Y-130352800D01*
X104902000Y-130352800D02*
X104902000Y-141782800D01*
X106172000Y-133527800D02*
X106172000Y-137591800D01*
X106172000Y-97967800D02*
X106172000Y-133527800D01*
X107442000Y-93726000D02*
X107442000Y-97151000D01*
X107442000Y-97151000D02*
X107442000Y-129844800D01*
X107442000Y-129844800D02*
X107442000Y-130352800D01*
X107442000Y-130352800D02*
X107442000Y-141782800D01*
X108712000Y-98452733D02*
X108712000Y-137591800D01*
X108712000Y-97967800D02*
X108712000Y-98452733D01*
X109982000Y-137591800D02*
X109982000Y-121970800D01*
X109982000Y-113461800D02*
X109982000Y-97967800D01*
X109982000Y-121970800D02*
X109982000Y-113461800D01*
X112522000Y-136702800D02*
X112522000Y-109524800D01*
X112522000Y-109524800D02*
X112522000Y-98856800D01*
X112522000Y-97967800D02*
X112522000Y-98856800D01*
X112522000Y-136702800D02*
X112522000Y-137591800D01*
X115062000Y-129971800D02*
X115062000Y-136956800D01*
X167640000Y-139242800D02*
X163703000Y-135305800D01*
X163703000Y-135305800D02*
X163703000Y-106476800D01*
X115062000Y-97967800D02*
X115062000Y-98856800D01*
X115062000Y-98856800D02*
X115062000Y-100634800D01*
X115062000Y-136956800D02*
X115062000Y-137591800D01*
X115062000Y-102539800D02*
X115062000Y-129971800D01*
X115062000Y-100634800D02*
X115062000Y-102539800D01*
X163703000Y-106476800D02*
X163703000Y-103174800D01*
X120142000Y-134747000D02*
X120142000Y-141782800D01*
X120142000Y-129209800D02*
X120142000Y-134747000D01*
X120142000Y-128828800D02*
X120142000Y-129209800D01*
X120142000Y-93726000D02*
X120142000Y-128828800D01*
X121412000Y-128193800D02*
X121412000Y-136702800D01*
X167640000Y-136702800D02*
X164465000Y-133527800D01*
X121412000Y-136702800D02*
X121412000Y-137591800D01*
X121412000Y-101396800D02*
X121412000Y-128193800D01*
X121412000Y-98094800D02*
X121412000Y-101396800D01*
X164465000Y-102412800D02*
X164465000Y-133527800D01*
X122682000Y-141782800D02*
X122682000Y-127939800D01*
X122682000Y-125018800D02*
X122682000Y-93726000D01*
X122682000Y-127685800D02*
X122682000Y-125018800D01*
X122682000Y-127939800D02*
X122682000Y-127685800D01*
X123952000Y-136702800D02*
X123952000Y-127558800D01*
X123952000Y-136702800D02*
X123952000Y-137591800D01*
X123952000Y-127304800D02*
X123952000Y-127558800D01*
X123952000Y-98094800D02*
X123952000Y-127304800D01*
X125222000Y-93726000D02*
X125222000Y-114654772D01*
X125222000Y-114654772D02*
X125222000Y-124383800D01*
X125222000Y-124383800D02*
X125222000Y-124637800D01*
X125222000Y-124637800D02*
X125222000Y-141782800D01*
X130302000Y-122859800D02*
X130302000Y-141782800D01*
X130302000Y-93726000D02*
X130302000Y-122859800D01*
X136652000Y-136702800D02*
X136652000Y-137591800D01*
X136652000Y-98094800D02*
X136652000Y-136702800D01*
X134112000Y-136702800D02*
X134112000Y-121335800D01*
X134112000Y-121335800D02*
X134112000Y-99618800D01*
X134112000Y-136702800D02*
X134112000Y-137591800D01*
X134112000Y-98094800D02*
X134112000Y-99618800D01*
X126492000Y-99618800D02*
X126492000Y-119684800D01*
X126492000Y-119684800D02*
X126492000Y-136702800D01*
X126492000Y-136702800D02*
X126492000Y-137591800D01*
X126492000Y-98094800D02*
X126492000Y-99618800D01*
X132842000Y-123367800D02*
X132842000Y-141782800D01*
X132842000Y-122859800D02*
X132842000Y-123367800D01*
X132842000Y-93726000D02*
X132842000Y-122859800D01*
X131572000Y-99618800D02*
X131572000Y-122224800D01*
X131572000Y-122224800D02*
X131572000Y-136702800D01*
X131572000Y-98094800D02*
X131572000Y-99618800D01*
X131572000Y-137591800D02*
X131572000Y-136702800D01*
X129032000Y-120827800D02*
X129032000Y-99618800D01*
X129032000Y-120827800D02*
X129032000Y-137591800D01*
X129032000Y-98094800D02*
X129032000Y-99618800D01*
X127762000Y-93726000D02*
X127762000Y-97151000D01*
X127762000Y-97151000D02*
X127762000Y-121462800D01*
X127762000Y-121462800D02*
X127762000Y-141782800D01*
X152679401Y-100558599D02*
X153543000Y-99695000D01*
X148336000Y-122709275D02*
X148336000Y-106590682D01*
X147036225Y-124009050D02*
X148336000Y-122709275D01*
X148336000Y-106590682D02*
X152401999Y-102524683D01*
X152401999Y-102524683D02*
X152401999Y-100836001D01*
X152401999Y-100836001D02*
X152679401Y-100558599D01*
X146812000Y-121993867D02*
X146812000Y-122478800D01*
X149861999Y-102524683D02*
X146812000Y-105574682D01*
X149861999Y-100836001D02*
X149861999Y-102524683D01*
X146812000Y-105574682D02*
X146812000Y-121993867D01*
X151003000Y-99695000D02*
X149861999Y-100836001D01*
X145429700Y-102728300D02*
X145923000Y-102235000D01*
X145429700Y-108865947D02*
X145429700Y-102728300D01*
X149225000Y-106553000D02*
X153543000Y-102235000D01*
X149225000Y-116128800D02*
X149225000Y-115620800D01*
X149225000Y-122732800D02*
X149225000Y-115620800D01*
X149225000Y-115620800D02*
X149225000Y-106553000D01*
X148506043Y-123451757D02*
X149225000Y-122732800D01*
X148470755Y-123451757D02*
X148506043Y-123451757D01*
X148127856Y-123794656D02*
X148470755Y-123451757D01*
X150139401Y-103098599D02*
X151003000Y-102235000D01*
X147623822Y-105614178D02*
X150139401Y-103098599D01*
X147623822Y-115743116D02*
X147623822Y-115416622D01*
X147623822Y-115416622D02*
X147623822Y-105614178D01*
X146196517Y-123971520D02*
X147574000Y-122594037D01*
X147574000Y-122478800D02*
X147623822Y-115416622D01*
X147574000Y-122478800D02*
X147574000Y-122594037D01*
X155219401Y-100558599D02*
X156083000Y-99695000D01*
X154941999Y-102524683D02*
X154941999Y-100836001D01*
X154941999Y-100836001D02*
X155219401Y-100558599D01*
X149860000Y-107606682D02*
X154941999Y-102524683D01*
X149860000Y-124106733D02*
X149860000Y-116255800D01*
X148566933Y-125399800D02*
X149860000Y-124106733D01*
X148082000Y-125399800D02*
X148566933Y-125399800D01*
X149860000Y-116763800D02*
X149860000Y-116255800D01*
X149860000Y-116255800D02*
X149860000Y-107606682D01*
X146050000Y-104648000D02*
X148463000Y-102235000D01*
X146050000Y-115239800D02*
X146050000Y-114985800D01*
X146050000Y-114985800D02*
X146050000Y-104648000D01*
X145288000Y-122986800D02*
X146050000Y-122224800D01*
X146050000Y-122328733D02*
X146050000Y-122224800D01*
X146050000Y-122224800D02*
X146050000Y-114985800D01*
X80010000Y-112953800D02*
X80010000Y-134543800D01*
X80010000Y-134543800D02*
X80137000Y-134670800D01*
X156247999Y-125742801D02*
X155448000Y-126542800D01*
X156525401Y-125465399D02*
X156247999Y-125742801D01*
X156525401Y-123485647D02*
X156525401Y-125465399D01*
X155448000Y-122408246D02*
X156525401Y-123485647D01*
X155448000Y-121462800D02*
X155448000Y-122408246D01*
X157353000Y-119557800D02*
X157353000Y-106843100D01*
X155448000Y-121462800D02*
X157353000Y-119557800D01*
X157353000Y-106843100D02*
X157353000Y-104571800D01*
X94107000Y-117511100D02*
X94092300Y-117525800D01*
X94107000Y-104444800D02*
X94107000Y-117511100D01*
X158496000Y-132638800D02*
X158496000Y-106603800D01*
X158496000Y-135686800D02*
X158496000Y-132638800D01*
X155448000Y-136702800D02*
X157480000Y-136702800D01*
X157480000Y-136702800D02*
X158496000Y-135686800D01*
X155448000Y-139242800D02*
X156579370Y-139242800D01*
X156579370Y-139242800D02*
X158115000Y-139242800D01*
X158115000Y-139242800D02*
X159004000Y-138353800D01*
X159004000Y-138353800D02*
X159004000Y-105587800D01*
X159004000Y-105587800D02*
X159004000Y-105968800D01*
X138542300Y-114477800D02*
X138542300Y-113992867D01*
X138542300Y-113992867D02*
X138557000Y-113978167D01*
X138557000Y-113978167D02*
X138557000Y-107619800D01*
X138557000Y-106222800D02*
X138557000Y-107619800D01*
X144399000Y-120813100D02*
X144399000Y-114690751D01*
X144399000Y-114690751D02*
X144542251Y-114547500D01*
X137272300Y-121448100D02*
X137287000Y-121462800D01*
X137272300Y-105460800D02*
X137272300Y-121448100D01*
X150480300Y-121575100D02*
X150552619Y-121647419D01*
X150480300Y-112699800D02*
X150480300Y-121575100D01*
X118999000Y-115370700D02*
X118999000Y-118611300D01*
X143764000Y-119250998D02*
X143764000Y-114858800D01*
X134747000Y-117525800D02*
X134747000Y-113080800D01*
X134747000Y-113080800D02*
X134747000Y-111302800D01*
X132207000Y-118630698D02*
X132207000Y-111429800D01*
X140335000Y-120192800D02*
X140335000Y-109524800D01*
X124601700Y-119430800D02*
X124601700Y-114126200D01*
X124601700Y-114126200D02*
X124601700Y-111302800D01*
X168439999Y-125742801D02*
X167640000Y-126542800D01*
X168717401Y-125465399D02*
X168439999Y-125742801D01*
X168717401Y-122540201D02*
X168717401Y-125465399D01*
X167640000Y-121462800D02*
X168717401Y-122540201D01*
X167640000Y-121462800D02*
X166116000Y-119938800D01*
X166116000Y-119938800D02*
X166116000Y-104190800D01*
X99187000Y-103809800D02*
X99187000Y-117017800D01*
X139192000Y-98452733D02*
X139192000Y-97967800D01*
X139192000Y-120417754D02*
X139192000Y-98452733D01*
X138684000Y-120925754D02*
X139192000Y-120417754D01*
X138684000Y-137591800D02*
X138684000Y-120925754D01*
X117602000Y-136702800D02*
X117602000Y-137591800D01*
X117602000Y-97967800D02*
X117602000Y-136702800D01*
X98552000Y-101636454D02*
X98552000Y-97967800D01*
X98552000Y-137591800D02*
X98552000Y-101636454D01*
X137922000Y-97151000D02*
X137922000Y-141782800D01*
X137922000Y-93726000D02*
X137922000Y-97151000D01*
X135382000Y-93726000D02*
X135382000Y-141782800D01*
X99822000Y-97151000D02*
X99822000Y-141782800D01*
X99822000Y-93726000D02*
X99822000Y-97151000D01*
X87249000Y-141478000D02*
X86995000Y-141732000D01*
X87122000Y-97151000D02*
X87122000Y-141782800D01*
X87122000Y-93726000D02*
X87122000Y-97151000D01*
X85852000Y-137464800D02*
X85725000Y-137591800D01*
X85852000Y-97967800D02*
X85852000Y-137464800D01*
X149860000Y-141655800D02*
X149860000Y-129365846D01*
X149860000Y-129365846D02*
X142494000Y-121999846D01*
X97931700Y-112304100D02*
X97917000Y-112318800D01*
X97931700Y-103160100D02*
X97931700Y-112304100D01*
X142494000Y-103174800D02*
X142494000Y-121999846D01*
X84709000Y-94996000D02*
X84455000Y-95250000D01*
X84709000Y-93726000D02*
X84709000Y-94996000D01*
X84455000Y-93980000D02*
X84709000Y-93726000D01*
D26*
X84582000Y-98221800D02*
X84582000Y-93726000D01*
D27*
G36*
X139871790Y-121059404D02*
G01*
X140049757Y-121133120D01*
X140152867Y-121153630D01*
X140044997Y-121355442D01*
X140000873Y-121500900D01*
X139972377Y-121594837D01*
X139972047Y-121598185D01*
X139954000Y-121781421D01*
X139954000Y-121781427D01*
X139947857Y-121843800D01*
X139954000Y-121906173D01*
X139954000Y-122266360D01*
X139947857Y-122328733D01*
X139954000Y-122391106D01*
X139954000Y-122391113D01*
X139972377Y-122577696D01*
X140044997Y-122817092D01*
X140162925Y-123037721D01*
X140321631Y-123231103D01*
X140370087Y-123270870D01*
X147459699Y-130360483D01*
X147459700Y-142135962D01*
X147453556Y-142198345D01*
X147478076Y-142447308D01*
X147534618Y-142633700D01*
X147550697Y-142686704D01*
X147668625Y-142907333D01*
X147827330Y-143100715D01*
X147875785Y-143140481D01*
X148959422Y-144224120D01*
X148999185Y-144272571D01*
X149047635Y-144312333D01*
X149047638Y-144312336D01*
X149097641Y-144353372D01*
X149192567Y-144431276D01*
X149346024Y-144513300D01*
X147205700Y-144513300D01*
X147205700Y-136302809D01*
X147208833Y-136271000D01*
X147196327Y-136144029D01*
X147159291Y-136021937D01*
X147099148Y-135909417D01*
X147018208Y-135810792D01*
X146919583Y-135729852D01*
X146807063Y-135669709D01*
X146684971Y-135632673D01*
X146589809Y-135623300D01*
X146589808Y-135623300D01*
X146558000Y-135620167D01*
X146526191Y-135623300D01*
X140239809Y-135623300D01*
X140208000Y-135620167D01*
X140176192Y-135623300D01*
X140176191Y-135623300D01*
X140081029Y-135632673D01*
X139958937Y-135669709D01*
X139846417Y-135729852D01*
X139747792Y-135810792D01*
X139666852Y-135909417D01*
X139606709Y-136021937D01*
X139569673Y-136144029D01*
X139557167Y-136271000D01*
X139560301Y-136302819D01*
X139560301Y-137152000D01*
X139550604Y-137128590D01*
X139444000Y-136969046D01*
X139444000Y-121240555D01*
X139703003Y-120981552D01*
X139726463Y-120962300D01*
X139871790Y-121059404D01*
G37*
X139871790Y-121059404D02*
X140049757Y-121133120D01*
X140152867Y-121153630D01*
X140044997Y-121355442D01*
X140000873Y-121500900D01*
X139972377Y-121594837D01*
X139972047Y-121598185D01*
X139954000Y-121781421D01*
X139954000Y-121781427D01*
X139947857Y-121843800D01*
X139954000Y-121906173D01*
X139954000Y-122266360D01*
X139947857Y-122328733D01*
X139954000Y-122391106D01*
X139954000Y-122391113D01*
X139972377Y-122577696D01*
X140044997Y-122817092D01*
X140162925Y-123037721D01*
X140321631Y-123231103D01*
X140370087Y-123270870D01*
X147459699Y-130360483D01*
X147459700Y-142135962D01*
X147453556Y-142198345D01*
X147478076Y-142447308D01*
X147534618Y-142633700D01*
X147550697Y-142686704D01*
X147668625Y-142907333D01*
X147827330Y-143100715D01*
X147875785Y-143140481D01*
X148959422Y-144224120D01*
X148999185Y-144272571D01*
X149047635Y-144312333D01*
X149047638Y-144312336D01*
X149097641Y-144353372D01*
X149192567Y-144431276D01*
X149346024Y-144513300D01*
X147205700Y-144513300D01*
X147205700Y-136302809D01*
X147208833Y-136271000D01*
X147196327Y-136144029D01*
X147159291Y-136021937D01*
X147099148Y-135909417D01*
X147018208Y-135810792D01*
X146919583Y-135729852D01*
X146807063Y-135669709D01*
X146684971Y-135632673D01*
X146589809Y-135623300D01*
X146589808Y-135623300D01*
X146558000Y-135620167D01*
X146526191Y-135623300D01*
X140239809Y-135623300D01*
X140208000Y-135620167D01*
X140176192Y-135623300D01*
X140176191Y-135623300D01*
X140081029Y-135632673D01*
X139958937Y-135669709D01*
X139846417Y-135729852D01*
X139747792Y-135810792D01*
X139666852Y-135909417D01*
X139606709Y-136021937D01*
X139569673Y-136144029D01*
X139557167Y-136271000D01*
X139560301Y-136302819D01*
X139560301Y-137152000D01*
X139550604Y-137128590D01*
X139444000Y-136969046D01*
X139444000Y-121240555D01*
X139703003Y-120981552D01*
X139726463Y-120962300D01*
X139871790Y-121059404D01*
G36*
X140622709Y-95753063D02*
G01*
X140682852Y-95865583D01*
X140763792Y-95964208D01*
X140862417Y-96045148D01*
X140974937Y-96105291D01*
X141097029Y-96142327D01*
X141192191Y-96151700D01*
X141192192Y-96151700D01*
X141224000Y-96154833D01*
X141255809Y-96151700D01*
X175882301Y-96151700D01*
X175882301Y-98331326D01*
X175881559Y-98330550D01*
X175670761Y-98182781D01*
X175435185Y-98078976D01*
X175183884Y-98023125D01*
X174978000Y-98173227D01*
X174978000Y-99199800D01*
X174998000Y-99199800D01*
X174998000Y-99453800D01*
X174978000Y-99453800D01*
X174978000Y-100480373D01*
X175183884Y-100630475D01*
X175435185Y-100574624D01*
X175670761Y-100470819D01*
X175881559Y-100323050D01*
X175882301Y-100322274D01*
X175882301Y-103791326D01*
X175881559Y-103790550D01*
X175670761Y-103642781D01*
X175435185Y-103538976D01*
X175183884Y-103483125D01*
X174978000Y-103633227D01*
X174978000Y-104659800D01*
X174998000Y-104659800D01*
X174998000Y-104913800D01*
X174978000Y-104913800D01*
X174978000Y-105940373D01*
X175183884Y-106090475D01*
X175435185Y-106034624D01*
X175670761Y-105930819D01*
X175881559Y-105783050D01*
X175882301Y-105782275D01*
X175882300Y-117651921D01*
X175612849Y-117682145D01*
X175555420Y-117694351D01*
X175497841Y-117705752D01*
X175489202Y-117708426D01*
X174733175Y-117948252D01*
X174679174Y-117971397D01*
X174624943Y-117993749D01*
X174616988Y-117998050D01*
X173921942Y-118380155D01*
X173873487Y-118413333D01*
X173824608Y-118445808D01*
X173817640Y-118451572D01*
X173210050Y-118961401D01*
X173168963Y-119003357D01*
X173127321Y-119044709D01*
X173121611Y-119051711D01*
X173121605Y-119051717D01*
X173121601Y-119051724D01*
X172624613Y-119669852D01*
X172592464Y-119718980D01*
X172559641Y-119767642D01*
X172555400Y-119775618D01*
X172555395Y-119775626D01*
X172555392Y-119775634D01*
X172187931Y-120478522D01*
X172165932Y-120532970D01*
X172143191Y-120587069D01*
X172140577Y-120595727D01*
X172033199Y-120960565D01*
X171959680Y-120783073D01*
X171802637Y-120548041D01*
X171602759Y-120348163D01*
X171370241Y-120192800D01*
X171602759Y-120037437D01*
X171802637Y-119837559D01*
X171959680Y-119602527D01*
X172067853Y-119341374D01*
X172123000Y-119064135D01*
X172123000Y-118781465D01*
X172067853Y-118504226D01*
X171959680Y-118243073D01*
X171802637Y-118008041D01*
X171602759Y-117808163D01*
X171370241Y-117652800D01*
X171602759Y-117497437D01*
X171802637Y-117297559D01*
X171959680Y-117062527D01*
X172067853Y-116801374D01*
X172123000Y-116524135D01*
X172123000Y-116241465D01*
X172067853Y-115964226D01*
X171959680Y-115703073D01*
X171802637Y-115468041D01*
X171602759Y-115268163D01*
X171370241Y-115112800D01*
X171602759Y-114957437D01*
X171802637Y-114757559D01*
X171959680Y-114522527D01*
X172067853Y-114261374D01*
X172123000Y-113984135D01*
X172123000Y-113701465D01*
X172067853Y-113424226D01*
X171959680Y-113163073D01*
X171802637Y-112928041D01*
X171602759Y-112728163D01*
X171370241Y-112572800D01*
X171602759Y-112417437D01*
X171802637Y-112217559D01*
X171959680Y-111982527D01*
X172067853Y-111721374D01*
X172123000Y-111444135D01*
X172123000Y-111161465D01*
X172067853Y-110884226D01*
X171959680Y-110623073D01*
X171802637Y-110388041D01*
X171602759Y-110188163D01*
X171367727Y-110031120D01*
X171357135Y-110026733D01*
X171543131Y-109915185D01*
X171751519Y-109726214D01*
X171919037Y-109500220D01*
X172039246Y-109245887D01*
X172079904Y-109111839D01*
X171957915Y-108889800D01*
X170815000Y-108889800D01*
X170815000Y-108909800D01*
X170561000Y-108909800D01*
X170561000Y-108889800D01*
X169418085Y-108889800D01*
X169296096Y-109111839D01*
X169336754Y-109245887D01*
X169456963Y-109500220D01*
X169624481Y-109726214D01*
X169832869Y-109915185D01*
X170018865Y-110026733D01*
X170008273Y-110031120D01*
X169773241Y-110188163D01*
X169573363Y-110388041D01*
X169416320Y-110623073D01*
X169308147Y-110884226D01*
X169253000Y-111161465D01*
X169253000Y-111444135D01*
X169308147Y-111721374D01*
X169416320Y-111982527D01*
X169573363Y-112217559D01*
X169773241Y-112417437D01*
X170005759Y-112572800D01*
X169773241Y-112728163D01*
X169573363Y-112928041D01*
X169416320Y-113163073D01*
X169308147Y-113424226D01*
X169253000Y-113701465D01*
X169253000Y-113984135D01*
X169308147Y-114261374D01*
X169416320Y-114522527D01*
X169573363Y-114757559D01*
X169773241Y-114957437D01*
X170005759Y-115112800D01*
X169773241Y-115268163D01*
X169573363Y-115468041D01*
X169416320Y-115703073D01*
X169308147Y-115964226D01*
X169253000Y-116241465D01*
X169253000Y-116524135D01*
X169308147Y-116801374D01*
X169416320Y-117062527D01*
X169573363Y-117297559D01*
X169773241Y-117497437D01*
X170005759Y-117652800D01*
X169773241Y-117808163D01*
X169573363Y-118008041D01*
X169416320Y-118243073D01*
X169308147Y-118504226D01*
X169253000Y-118781465D01*
X169253000Y-119064135D01*
X169308147Y-119341374D01*
X169416320Y-119602527D01*
X169573363Y-119837559D01*
X169773241Y-120037437D01*
X170005759Y-120192800D01*
X169773241Y-120348163D01*
X169573363Y-120548041D01*
X169416320Y-120783073D01*
X169308147Y-121044226D01*
X169253000Y-121321465D01*
X169253000Y-121604135D01*
X169308147Y-121881374D01*
X169416320Y-122142527D01*
X169573363Y-122377559D01*
X169773241Y-122577437D01*
X170005759Y-122732800D01*
X169773241Y-122888163D01*
X169573363Y-123088041D01*
X169477401Y-123231659D01*
X169477401Y-122577523D01*
X169481077Y-122540200D01*
X169477401Y-122502877D01*
X169477401Y-122502868D01*
X169466404Y-122391215D01*
X169422947Y-122247954D01*
X169403311Y-122211218D01*
X169352375Y-122115924D01*
X169281200Y-122029198D01*
X169257402Y-122000200D01*
X169228405Y-121976403D01*
X169038688Y-121786686D01*
X169075000Y-121604135D01*
X169075000Y-121321465D01*
X169019853Y-121044226D01*
X168911680Y-120783073D01*
X168754637Y-120548041D01*
X168554759Y-120348163D01*
X168322241Y-120192800D01*
X168554759Y-120037437D01*
X168754637Y-119837559D01*
X168911680Y-119602527D01*
X169019853Y-119341374D01*
X169075000Y-119064135D01*
X169075000Y-118781465D01*
X169019853Y-118504226D01*
X168911680Y-118243073D01*
X168754637Y-118008041D01*
X168554759Y-117808163D01*
X168322241Y-117652800D01*
X168554759Y-117497437D01*
X168754637Y-117297559D01*
X168911680Y-117062527D01*
X169019853Y-116801374D01*
X169075000Y-116524135D01*
X169075000Y-116241465D01*
X169019853Y-115964226D01*
X168911680Y-115703073D01*
X168754637Y-115468041D01*
X168554759Y-115268163D01*
X168322241Y-115112800D01*
X168554759Y-114957437D01*
X168754637Y-114757559D01*
X168911680Y-114522527D01*
X169019853Y-114261374D01*
X169075000Y-113984135D01*
X169075000Y-113701465D01*
X169019853Y-113424226D01*
X168911680Y-113163073D01*
X168754637Y-112928041D01*
X168554759Y-112728163D01*
X168322241Y-112572800D01*
X168554759Y-112417437D01*
X168754637Y-112217559D01*
X168911680Y-111982527D01*
X169019853Y-111721374D01*
X169075000Y-111444135D01*
X169075000Y-111161465D01*
X169019853Y-110884226D01*
X168911680Y-110623073D01*
X168754637Y-110388041D01*
X168554759Y-110188163D01*
X168322241Y-110032800D01*
X168554759Y-109877437D01*
X168754637Y-109677559D01*
X168911680Y-109442527D01*
X169019853Y-109181374D01*
X169075000Y-108904135D01*
X169075000Y-108621465D01*
X169033685Y-108413761D01*
X169296096Y-108413761D01*
X169418085Y-108635800D01*
X170561000Y-108635800D01*
X170561000Y-107492176D01*
X170815000Y-107492176D01*
X170815000Y-108635800D01*
X171957915Y-108635800D01*
X172079904Y-108413761D01*
X172039246Y-108279713D01*
X171919037Y-108025380D01*
X171751519Y-107799386D01*
X171543131Y-107610415D01*
X171301881Y-107465730D01*
X171037040Y-107370891D01*
X170815000Y-107492176D01*
X170561000Y-107492176D01*
X170338960Y-107370891D01*
X170074119Y-107465730D01*
X169832869Y-107610415D01*
X169624481Y-107799386D01*
X169456963Y-108025380D01*
X169336754Y-108279713D01*
X169296096Y-108413761D01*
X169033685Y-108413761D01*
X169019853Y-108344226D01*
X168911680Y-108083073D01*
X168754637Y-107848041D01*
X168554759Y-107648163D01*
X168319727Y-107491120D01*
X168058574Y-107382947D01*
X167781335Y-107327800D01*
X167498665Y-107327800D01*
X167221426Y-107382947D01*
X166960273Y-107491120D01*
X166876000Y-107547429D01*
X166876000Y-104813554D01*
X166894047Y-104786544D01*
X170507197Y-104786544D01*
X170511989Y-104825326D01*
X170601869Y-105040839D01*
X170732066Y-105234677D01*
X170897578Y-105399390D01*
X171092043Y-105528648D01*
X171307989Y-105617484D01*
X171537116Y-105662484D01*
X171724000Y-105506952D01*
X171724000Y-104603800D01*
X171978000Y-104603800D01*
X171978000Y-105506952D01*
X172164884Y-105662484D01*
X172394011Y-105617484D01*
X172609957Y-105528648D01*
X172804422Y-105399390D01*
X172969934Y-105234677D01*
X173049512Y-105116200D01*
X173408090Y-105116200D01*
X173411143Y-105139829D01*
X173504319Y-105379807D01*
X173642522Y-105596996D01*
X173820441Y-105783050D01*
X174031239Y-105930819D01*
X174266815Y-106034624D01*
X174518116Y-106090475D01*
X174724000Y-105940373D01*
X174724000Y-104913800D01*
X173531776Y-104913800D01*
X173408090Y-105116200D01*
X173049512Y-105116200D01*
X173100131Y-105040839D01*
X173190011Y-104825326D01*
X173194803Y-104786544D01*
X173069361Y-104603800D01*
X171978000Y-104603800D01*
X171724000Y-104603800D01*
X170632639Y-104603800D01*
X170507197Y-104786544D01*
X166894047Y-104786544D01*
X166982604Y-104654010D01*
X167056320Y-104476043D01*
X167060028Y-104457400D01*
X173408090Y-104457400D01*
X173531776Y-104659800D01*
X174724000Y-104659800D01*
X174724000Y-103633227D01*
X174518116Y-103483125D01*
X174266815Y-103538976D01*
X174031239Y-103642781D01*
X173820441Y-103790550D01*
X173642522Y-103976604D01*
X173504319Y-104193793D01*
X173411143Y-104433771D01*
X173408090Y-104457400D01*
X167060028Y-104457400D01*
X167093900Y-104287115D01*
X167093900Y-104167056D01*
X170507197Y-104167056D01*
X170632639Y-104349800D01*
X171724000Y-104349800D01*
X171724000Y-103446648D01*
X171978000Y-103446648D01*
X171978000Y-104349800D01*
X173069361Y-104349800D01*
X173194803Y-104167056D01*
X173190011Y-104128274D01*
X173100131Y-103912761D01*
X172969934Y-103718923D01*
X172804422Y-103554210D01*
X172609957Y-103424952D01*
X172394011Y-103336116D01*
X172164884Y-103291116D01*
X171978000Y-103446648D01*
X171724000Y-103446648D01*
X171537116Y-103291116D01*
X171307989Y-103336116D01*
X171092043Y-103424952D01*
X170897578Y-103554210D01*
X170732066Y-103718923D01*
X170601869Y-103912761D01*
X170511989Y-104128274D01*
X170507197Y-104167056D01*
X167093900Y-104167056D01*
X167093900Y-104094485D01*
X167056320Y-103905557D01*
X166982604Y-103727590D01*
X166875585Y-103567425D01*
X166739375Y-103431215D01*
X166579210Y-103324196D01*
X166401243Y-103250480D01*
X166212315Y-103212900D01*
X166019685Y-103212900D01*
X165830757Y-103250480D01*
X165652790Y-103324196D01*
X165492625Y-103431215D01*
X165356415Y-103567425D01*
X165249396Y-103727590D01*
X165225000Y-103786487D01*
X165225000Y-103035554D01*
X165331604Y-102876010D01*
X165405320Y-102698043D01*
X165442900Y-102509115D01*
X165442900Y-102316485D01*
X165405320Y-102127557D01*
X165331604Y-101949590D01*
X165224585Y-101789425D01*
X165088375Y-101653215D01*
X164928210Y-101546196D01*
X164750243Y-101472480D01*
X164561315Y-101434900D01*
X164368685Y-101434900D01*
X164179757Y-101472480D01*
X164001790Y-101546196D01*
X163841625Y-101653215D01*
X163705415Y-101789425D01*
X163598396Y-101949590D01*
X163524680Y-102127557D01*
X163506940Y-102216740D01*
X163417757Y-102234480D01*
X163239790Y-102308196D01*
X163079625Y-102415215D01*
X162943415Y-102551425D01*
X162836396Y-102711590D01*
X162762680Y-102889557D01*
X162725100Y-103078485D01*
X162725100Y-103271115D01*
X162762680Y-103460043D01*
X162836396Y-103638010D01*
X162943001Y-103797555D01*
X162943000Y-106514132D01*
X162943001Y-106514142D01*
X162943000Y-135268478D01*
X162939324Y-135305800D01*
X162943000Y-135343122D01*
X162943000Y-135343132D01*
X162953997Y-135454785D01*
X162980651Y-135542653D01*
X162997454Y-135598046D01*
X163068026Y-135730076D01*
X163107871Y-135778626D01*
X163162999Y-135845801D01*
X163192003Y-135869604D01*
X166241312Y-138918914D01*
X166205000Y-139101465D01*
X166205000Y-139384135D01*
X166260147Y-139661374D01*
X166368320Y-139922527D01*
X166525363Y-140157559D01*
X166725241Y-140357437D01*
X166957759Y-140512800D01*
X166725241Y-140668163D01*
X166525363Y-140868041D01*
X166368320Y-141103073D01*
X166260147Y-141364226D01*
X166205000Y-141641465D01*
X166205000Y-141924135D01*
X166260147Y-142201374D01*
X166368320Y-142462527D01*
X166525363Y-142697559D01*
X166725241Y-142897437D01*
X166960273Y-143054480D01*
X167221426Y-143162653D01*
X167498665Y-143217800D01*
X167781335Y-143217800D01*
X168058574Y-143162653D01*
X168319727Y-143054480D01*
X168554759Y-142897437D01*
X168754637Y-142697559D01*
X168911680Y-142462527D01*
X169019853Y-142201374D01*
X169075000Y-141924135D01*
X169075000Y-141641465D01*
X169019853Y-141364226D01*
X168911680Y-141103073D01*
X168754637Y-140868041D01*
X168554759Y-140668163D01*
X168322241Y-140512800D01*
X168554759Y-140357437D01*
X168754637Y-140157559D01*
X168911680Y-139922527D01*
X169019853Y-139661374D01*
X169075000Y-139384135D01*
X169075000Y-139101465D01*
X169019853Y-138824226D01*
X168911680Y-138563073D01*
X168754637Y-138328041D01*
X168554759Y-138128163D01*
X168322241Y-137972800D01*
X168554759Y-137817437D01*
X168754637Y-137617559D01*
X168911680Y-137382527D01*
X169019853Y-137121374D01*
X169075000Y-136844135D01*
X169075000Y-136561465D01*
X169019853Y-136284226D01*
X168911680Y-136023073D01*
X168754637Y-135788041D01*
X168554759Y-135588163D01*
X168322241Y-135432800D01*
X168554759Y-135277437D01*
X168754637Y-135077559D01*
X168911680Y-134842527D01*
X169019853Y-134581374D01*
X169075000Y-134304135D01*
X169075000Y-134021465D01*
X169019853Y-133744226D01*
X168911680Y-133483073D01*
X168754637Y-133248041D01*
X168554759Y-133048163D01*
X168322241Y-132892800D01*
X168554759Y-132737437D01*
X168754637Y-132537559D01*
X168911680Y-132302527D01*
X169019853Y-132041374D01*
X169075000Y-131764135D01*
X169075000Y-131481465D01*
X169019853Y-131204226D01*
X168911680Y-130943073D01*
X168754637Y-130708041D01*
X168554759Y-130508163D01*
X168322241Y-130352800D01*
X168554759Y-130197437D01*
X168754637Y-129997559D01*
X168911680Y-129762527D01*
X169019853Y-129501374D01*
X169075000Y-129224135D01*
X169075000Y-128941465D01*
X169019853Y-128664226D01*
X168911680Y-128403073D01*
X168754637Y-128168041D01*
X168554759Y-127968163D01*
X168322241Y-127812800D01*
X168554759Y-127657437D01*
X168754637Y-127457559D01*
X168911680Y-127222527D01*
X169019853Y-126961374D01*
X169075000Y-126684135D01*
X169075000Y-126401465D01*
X169038688Y-126218913D01*
X169228398Y-126029203D01*
X169257402Y-126005400D01*
X169352375Y-125889675D01*
X169422947Y-125757646D01*
X169466404Y-125614385D01*
X169477401Y-125502732D01*
X169477401Y-125502724D01*
X169481077Y-125465399D01*
X169477401Y-125428074D01*
X169477401Y-124773941D01*
X169573363Y-124917559D01*
X169773241Y-125117437D01*
X170005759Y-125272800D01*
X169773241Y-125428163D01*
X169573363Y-125628041D01*
X169416320Y-125863073D01*
X169308147Y-126124226D01*
X169253000Y-126401465D01*
X169253000Y-126684135D01*
X169308147Y-126961374D01*
X169416320Y-127222527D01*
X169573363Y-127457559D01*
X169773241Y-127657437D01*
X170005759Y-127812800D01*
X169773241Y-127968163D01*
X169573363Y-128168041D01*
X169416320Y-128403073D01*
X169308147Y-128664226D01*
X169253000Y-128941465D01*
X169253000Y-129224135D01*
X169308147Y-129501374D01*
X169416320Y-129762527D01*
X169573363Y-129997559D01*
X169773241Y-130197437D01*
X170005759Y-130352800D01*
X169773241Y-130508163D01*
X169573363Y-130708041D01*
X169416320Y-130943073D01*
X169308147Y-131204226D01*
X169253000Y-131481465D01*
X169253000Y-131764135D01*
X169308147Y-132041374D01*
X169416320Y-132302527D01*
X169573363Y-132537559D01*
X169773241Y-132737437D01*
X170005759Y-132892800D01*
X169773241Y-133048163D01*
X169573363Y-133248041D01*
X169416320Y-133483073D01*
X169308147Y-133744226D01*
X169253000Y-134021465D01*
X169253000Y-134304135D01*
X169308147Y-134581374D01*
X169416320Y-134842527D01*
X169573363Y-135077559D01*
X169773241Y-135277437D01*
X170005759Y-135432800D01*
X169773241Y-135588163D01*
X169573363Y-135788041D01*
X169416320Y-136023073D01*
X169308147Y-136284226D01*
X169253000Y-136561465D01*
X169253000Y-136844135D01*
X169308147Y-137121374D01*
X169416320Y-137382527D01*
X169573363Y-137617559D01*
X169773241Y-137817437D01*
X170005759Y-137972800D01*
X169773241Y-138128163D01*
X169573363Y-138328041D01*
X169416320Y-138563073D01*
X169308147Y-138824226D01*
X169253000Y-139101465D01*
X169253000Y-139384135D01*
X169308147Y-139661374D01*
X169416320Y-139922527D01*
X169573363Y-140157559D01*
X169771961Y-140356157D01*
X169763518Y-140356988D01*
X169643820Y-140393298D01*
X169533506Y-140452263D01*
X169436815Y-140531615D01*
X169357463Y-140628306D01*
X169298498Y-140738620D01*
X169262188Y-140858318D01*
X169249928Y-140982800D01*
X169249928Y-142582800D01*
X169262188Y-142707282D01*
X169298498Y-142826980D01*
X169357463Y-142937294D01*
X169436815Y-143033985D01*
X169533506Y-143113337D01*
X169643820Y-143172302D01*
X169763518Y-143208612D01*
X169888000Y-143220872D01*
X171488000Y-143220872D01*
X171612482Y-143208612D01*
X171732180Y-143172302D01*
X171842494Y-143113337D01*
X171939185Y-143033985D01*
X172018537Y-142937294D01*
X172077502Y-142826980D01*
X172113812Y-142707282D01*
X172126072Y-142582800D01*
X172126072Y-140982800D01*
X172113812Y-140858318D01*
X172077502Y-140738620D01*
X172018537Y-140628306D01*
X171939185Y-140531615D01*
X171842494Y-140452263D01*
X171732180Y-140393298D01*
X171612482Y-140356988D01*
X171604039Y-140356157D01*
X171802637Y-140157559D01*
X171959680Y-139922527D01*
X172067853Y-139661374D01*
X172123000Y-139384135D01*
X172123000Y-139101465D01*
X172067853Y-138824226D01*
X171959680Y-138563073D01*
X171802637Y-138328041D01*
X171602759Y-138128163D01*
X171370241Y-137972800D01*
X171602759Y-137817437D01*
X171802637Y-137617559D01*
X171959680Y-137382527D01*
X172067853Y-137121374D01*
X172123000Y-136844135D01*
X172123000Y-136561465D01*
X172067853Y-136284226D01*
X171959680Y-136023073D01*
X171802637Y-135788041D01*
X171602759Y-135588163D01*
X171370241Y-135432800D01*
X171602759Y-135277437D01*
X171802637Y-135077559D01*
X171959680Y-134842527D01*
X172067853Y-134581374D01*
X172123000Y-134304135D01*
X172123000Y-134021465D01*
X172067853Y-133744226D01*
X171959680Y-133483073D01*
X171802637Y-133248041D01*
X171602759Y-133048163D01*
X171370241Y-132892800D01*
X171602759Y-132737437D01*
X171802637Y-132537559D01*
X171959680Y-132302527D01*
X172067853Y-132041374D01*
X172123000Y-131764135D01*
X172123000Y-131481465D01*
X172067853Y-131204226D01*
X171959680Y-130943073D01*
X171802637Y-130708041D01*
X171602759Y-130508163D01*
X171370241Y-130352800D01*
X171602759Y-130197437D01*
X171802637Y-129997559D01*
X171959680Y-129762527D01*
X172067853Y-129501374D01*
X172123000Y-129224135D01*
X172123000Y-128941465D01*
X172067853Y-128664226D01*
X171959680Y-128403073D01*
X171802637Y-128168041D01*
X171602759Y-127968163D01*
X171370241Y-127812800D01*
X171602759Y-127657437D01*
X171802637Y-127457559D01*
X171959680Y-127222527D01*
X172067853Y-126961374D01*
X172123000Y-126684135D01*
X172123000Y-126401465D01*
X172067853Y-126124226D01*
X171959680Y-125863073D01*
X171802637Y-125628041D01*
X171602759Y-125428163D01*
X171370241Y-125272800D01*
X171602759Y-125117437D01*
X171802637Y-124917559D01*
X171959680Y-124682527D01*
X172067853Y-124421374D01*
X172123000Y-124144135D01*
X172123000Y-123932314D01*
X172164814Y-124067393D01*
X172187579Y-124121549D01*
X172209554Y-124175940D01*
X172213799Y-124183925D01*
X172591042Y-124881622D01*
X172623896Y-124930330D01*
X172656014Y-124979412D01*
X172661724Y-124986413D01*
X172661729Y-124986420D01*
X172661735Y-124986426D01*
X173167306Y-125597555D01*
X173208978Y-125638938D01*
X173250033Y-125680862D01*
X173256995Y-125686621D01*
X173257002Y-125686628D01*
X173257010Y-125686633D01*
X173871651Y-126187923D01*
X173920546Y-126220409D01*
X173968985Y-126253576D01*
X173976940Y-126257877D01*
X174677254Y-126630240D01*
X174731516Y-126652606D01*
X174785485Y-126675737D01*
X174794118Y-126678409D01*
X174794125Y-126678412D01*
X174794132Y-126678413D01*
X175553426Y-126907658D01*
X175611039Y-126919066D01*
X175668434Y-126931266D01*
X175677426Y-126932211D01*
X175677428Y-126932211D01*
X175882301Y-126952299D01*
X175882300Y-144513300D01*
X154416130Y-144513300D01*
X154569587Y-144431276D01*
X154762969Y-144272571D01*
X154802740Y-144224110D01*
X155863607Y-143163243D01*
X155866574Y-143162653D01*
X156127727Y-143054480D01*
X156362759Y-142897437D01*
X156562637Y-142697559D01*
X156719680Y-142462527D01*
X156827853Y-142201374D01*
X156883000Y-141924135D01*
X156883000Y-141641465D01*
X156827853Y-141364226D01*
X156719680Y-141103073D01*
X156562637Y-140868041D01*
X156362759Y-140668163D01*
X156130241Y-140512800D01*
X156362759Y-140357437D01*
X156562637Y-140157559D01*
X156666043Y-140002800D01*
X158077678Y-140002800D01*
X158115000Y-140006476D01*
X158152322Y-140002800D01*
X158152333Y-140002800D01*
X158263986Y-139991803D01*
X158407247Y-139948346D01*
X158539276Y-139877774D01*
X158655001Y-139782801D01*
X158678803Y-139753798D01*
X159515004Y-138917598D01*
X159544001Y-138893801D01*
X159638974Y-138778076D01*
X159709546Y-138646047D01*
X159753003Y-138502786D01*
X159764000Y-138391133D01*
X159764000Y-138391123D01*
X159767676Y-138353800D01*
X159764000Y-138316477D01*
X159764000Y-106591554D01*
X159870604Y-106432010D01*
X159944320Y-106254043D01*
X159981900Y-106065115D01*
X159981900Y-105872485D01*
X159944320Y-105683557D01*
X159870604Y-105505590D01*
X159763585Y-105345425D01*
X159704761Y-105286601D01*
X159638974Y-105163524D01*
X159544001Y-105047799D01*
X159428276Y-104952826D01*
X159296247Y-104882254D01*
X159152986Y-104838797D01*
X159004000Y-104824123D01*
X158855014Y-104838797D01*
X158711753Y-104882254D01*
X158579724Y-104952826D01*
X158463999Y-105047799D01*
X158369026Y-105163525D01*
X158303240Y-105286600D01*
X158244415Y-105345425D01*
X158137396Y-105505590D01*
X158113000Y-105564487D01*
X158113000Y-105194554D01*
X158219604Y-105035010D01*
X158293320Y-104857043D01*
X158330900Y-104668115D01*
X158330900Y-104475485D01*
X158293320Y-104286557D01*
X158219604Y-104108590D01*
X158112585Y-103948425D01*
X157976375Y-103812215D01*
X157816210Y-103705196D01*
X157638243Y-103631480D01*
X157449315Y-103593900D01*
X157256685Y-103593900D01*
X157067757Y-103631480D01*
X156889790Y-103705196D01*
X156729625Y-103812215D01*
X156593415Y-103948425D01*
X156486396Y-104108590D01*
X156412680Y-104286557D01*
X156375100Y-104475485D01*
X156375100Y-104668115D01*
X156412680Y-104857043D01*
X156486396Y-105035010D01*
X156593001Y-105194555D01*
X156593000Y-106880432D01*
X156593001Y-106880442D01*
X156593001Y-107893484D01*
X156562637Y-107848041D01*
X156362759Y-107648163D01*
X156127727Y-107491120D01*
X155866574Y-107382947D01*
X155589335Y-107327800D01*
X155306665Y-107327800D01*
X155029426Y-107382947D01*
X154768273Y-107491120D01*
X154533241Y-107648163D01*
X154333363Y-107848041D01*
X154176320Y-108083073D01*
X154068147Y-108344226D01*
X154013000Y-108621465D01*
X154013000Y-108904135D01*
X154068147Y-109181374D01*
X154176320Y-109442527D01*
X154333363Y-109677559D01*
X154533241Y-109877437D01*
X154765759Y-110032800D01*
X154533241Y-110188163D01*
X154333363Y-110388041D01*
X154176320Y-110623073D01*
X154068147Y-110884226D01*
X154013000Y-111161465D01*
X154013000Y-111444135D01*
X154068147Y-111721374D01*
X154176320Y-111982527D01*
X154333363Y-112217559D01*
X154533241Y-112417437D01*
X154765759Y-112572800D01*
X154533241Y-112728163D01*
X154333363Y-112928041D01*
X154176320Y-113163073D01*
X154068147Y-113424226D01*
X154013000Y-113701465D01*
X154013000Y-113984135D01*
X154068147Y-114261374D01*
X154176320Y-114522527D01*
X154333363Y-114757559D01*
X154533241Y-114957437D01*
X154765759Y-115112800D01*
X154533241Y-115268163D01*
X154333363Y-115468041D01*
X154176320Y-115703073D01*
X154068147Y-115964226D01*
X154013000Y-116241465D01*
X154013000Y-116524135D01*
X154068147Y-116801374D01*
X154176320Y-117062527D01*
X154333363Y-117297559D01*
X154533241Y-117497437D01*
X154765759Y-117652800D01*
X154533241Y-117808163D01*
X154333363Y-118008041D01*
X154176320Y-118243073D01*
X154068147Y-118504226D01*
X154013000Y-118781465D01*
X154013000Y-119064135D01*
X154068147Y-119341374D01*
X154176320Y-119602527D01*
X154333363Y-119837559D01*
X154533241Y-120037437D01*
X154765759Y-120192800D01*
X154533241Y-120348163D01*
X154333363Y-120548041D01*
X154176320Y-120783073D01*
X154068147Y-121044226D01*
X154013000Y-121321465D01*
X154013000Y-121604135D01*
X154068147Y-121881374D01*
X154176320Y-122142527D01*
X154333363Y-122377559D01*
X154533241Y-122577437D01*
X154756370Y-122726527D01*
X154761311Y-122735772D01*
X154533241Y-122888163D01*
X154333363Y-123088041D01*
X154176320Y-123323073D01*
X154068147Y-123584226D01*
X154013000Y-123861465D01*
X154013000Y-124144135D01*
X154068147Y-124421374D01*
X154176320Y-124682527D01*
X154333363Y-124917559D01*
X154533241Y-125117437D01*
X154765759Y-125272800D01*
X154533241Y-125428163D01*
X154333363Y-125628041D01*
X154176320Y-125863073D01*
X154068147Y-126124226D01*
X154013000Y-126401465D01*
X154013000Y-126684135D01*
X154068147Y-126961374D01*
X154176320Y-127222527D01*
X154333363Y-127457559D01*
X154533241Y-127657437D01*
X154765759Y-127812800D01*
X154533241Y-127968163D01*
X154333363Y-128168041D01*
X154176320Y-128403073D01*
X154068147Y-128664226D01*
X154013000Y-128941465D01*
X154013000Y-129224135D01*
X154068147Y-129501374D01*
X154176320Y-129762527D01*
X154333363Y-129997559D01*
X154533241Y-130197437D01*
X154765759Y-130352800D01*
X154533241Y-130508163D01*
X154333363Y-130708041D01*
X154176320Y-130943073D01*
X154068147Y-131204226D01*
X154013000Y-131481465D01*
X154013000Y-131764135D01*
X154068147Y-132041374D01*
X154176320Y-132302527D01*
X154333363Y-132537559D01*
X154533241Y-132737437D01*
X154765759Y-132892800D01*
X154533241Y-133048163D01*
X154333363Y-133248041D01*
X154176320Y-133483073D01*
X154068147Y-133744226D01*
X154013000Y-134021465D01*
X154013000Y-134304135D01*
X154068147Y-134581374D01*
X154176320Y-134842527D01*
X154333363Y-135077559D01*
X154533241Y-135277437D01*
X154765759Y-135432800D01*
X154533241Y-135588163D01*
X154333363Y-135788041D01*
X154176320Y-136023073D01*
X154068147Y-136284226D01*
X154013000Y-136561465D01*
X154013000Y-136844135D01*
X154068147Y-137121374D01*
X154176320Y-137382527D01*
X154333363Y-137617559D01*
X154533241Y-137817437D01*
X154765759Y-137972800D01*
X154533241Y-138128163D01*
X154333363Y-138328041D01*
X154176320Y-138563073D01*
X154068147Y-138824226D01*
X154013000Y-139101465D01*
X154013000Y-139384135D01*
X154068147Y-139661374D01*
X154176320Y-139922527D01*
X154333363Y-140157559D01*
X154533241Y-140357437D01*
X154765759Y-140512800D01*
X154533241Y-140668163D01*
X154333363Y-140868041D01*
X154176320Y-141103073D01*
X154068147Y-141364226D01*
X154067557Y-141367193D01*
X153838072Y-141596678D01*
X153838072Y-140982800D01*
X153825812Y-140858318D01*
X153789502Y-140738620D01*
X153730537Y-140628306D01*
X153651185Y-140531615D01*
X153554494Y-140452263D01*
X153444180Y-140393298D01*
X153324482Y-140356988D01*
X153316039Y-140356157D01*
X153514637Y-140157559D01*
X153671680Y-139922527D01*
X153779853Y-139661374D01*
X153835000Y-139384135D01*
X153835000Y-139101465D01*
X153779853Y-138824226D01*
X153671680Y-138563073D01*
X153514637Y-138328041D01*
X153314759Y-138128163D01*
X153082241Y-137972800D01*
X153314759Y-137817437D01*
X153514637Y-137617559D01*
X153671680Y-137382527D01*
X153779853Y-137121374D01*
X153835000Y-136844135D01*
X153835000Y-136561465D01*
X153779853Y-136284226D01*
X153671680Y-136023073D01*
X153514637Y-135788041D01*
X153314759Y-135588163D01*
X153082241Y-135432800D01*
X153314759Y-135277437D01*
X153514637Y-135077559D01*
X153671680Y-134842527D01*
X153779853Y-134581374D01*
X153835000Y-134304135D01*
X153835000Y-134021465D01*
X153779853Y-133744226D01*
X153671680Y-133483073D01*
X153514637Y-133248041D01*
X153314759Y-133048163D01*
X153082241Y-132892800D01*
X153314759Y-132737437D01*
X153514637Y-132537559D01*
X153671680Y-132302527D01*
X153779853Y-132041374D01*
X153835000Y-131764135D01*
X153835000Y-131481465D01*
X153779853Y-131204226D01*
X153671680Y-130943073D01*
X153514637Y-130708041D01*
X153314759Y-130508163D01*
X153082241Y-130352800D01*
X153314759Y-130197437D01*
X153514637Y-129997559D01*
X153671680Y-129762527D01*
X153779853Y-129501374D01*
X153835000Y-129224135D01*
X153835000Y-128941465D01*
X153779853Y-128664226D01*
X153671680Y-128403073D01*
X153514637Y-128168041D01*
X153314759Y-127968163D01*
X153082241Y-127812800D01*
X153314759Y-127657437D01*
X153514637Y-127457559D01*
X153671680Y-127222527D01*
X153779853Y-126961374D01*
X153835000Y-126684135D01*
X153835000Y-126401465D01*
X153779853Y-126124226D01*
X153671680Y-125863073D01*
X153514637Y-125628041D01*
X153314759Y-125428163D01*
X153082241Y-125272800D01*
X153314759Y-125117437D01*
X153514637Y-124917559D01*
X153671680Y-124682527D01*
X153779853Y-124421374D01*
X153835000Y-124144135D01*
X153835000Y-123861465D01*
X153779853Y-123584226D01*
X153671680Y-123323073D01*
X153514637Y-123088041D01*
X153314759Y-122888163D01*
X153082241Y-122732800D01*
X153314759Y-122577437D01*
X153514637Y-122377559D01*
X153671680Y-122142527D01*
X153779853Y-121881374D01*
X153835000Y-121604135D01*
X153835000Y-121321465D01*
X153779853Y-121044226D01*
X153671680Y-120783073D01*
X153514637Y-120548041D01*
X153314759Y-120348163D01*
X153082241Y-120192800D01*
X153314759Y-120037437D01*
X153514637Y-119837559D01*
X153671680Y-119602527D01*
X153779853Y-119341374D01*
X153835000Y-119064135D01*
X153835000Y-118781465D01*
X153779853Y-118504226D01*
X153671680Y-118243073D01*
X153514637Y-118008041D01*
X153314759Y-117808163D01*
X153082241Y-117652800D01*
X153314759Y-117497437D01*
X153514637Y-117297559D01*
X153671680Y-117062527D01*
X153779853Y-116801374D01*
X153835000Y-116524135D01*
X153835000Y-116241465D01*
X153779853Y-115964226D01*
X153671680Y-115703073D01*
X153514637Y-115468041D01*
X153314759Y-115268163D01*
X153082241Y-115112800D01*
X153314759Y-114957437D01*
X153514637Y-114757559D01*
X153671680Y-114522527D01*
X153779853Y-114261374D01*
X153835000Y-113984135D01*
X153835000Y-113701465D01*
X153779853Y-113424226D01*
X153671680Y-113163073D01*
X153514637Y-112928041D01*
X153314759Y-112728163D01*
X153082241Y-112572800D01*
X153314759Y-112417437D01*
X153514637Y-112217559D01*
X153671680Y-111982527D01*
X153779853Y-111721374D01*
X153835000Y-111444135D01*
X153835000Y-111161465D01*
X153779853Y-110884226D01*
X153671680Y-110623073D01*
X153514637Y-110388041D01*
X153314759Y-110188163D01*
X153079727Y-110031120D01*
X153069135Y-110026733D01*
X153255131Y-109915185D01*
X153463519Y-109726214D01*
X153631037Y-109500220D01*
X153751246Y-109245887D01*
X153791904Y-109111839D01*
X153669915Y-108889800D01*
X152527000Y-108889800D01*
X152527000Y-108909800D01*
X152273000Y-108909800D01*
X152273000Y-108889800D01*
X151130085Y-108889800D01*
X151008096Y-109111839D01*
X151048754Y-109245887D01*
X151168963Y-109500220D01*
X151336481Y-109726214D01*
X151544869Y-109915185D01*
X151730865Y-110026733D01*
X151720273Y-110031120D01*
X151485241Y-110188163D01*
X151285363Y-110388041D01*
X151128320Y-110623073D01*
X151020147Y-110884226D01*
X150965000Y-111161465D01*
X150965000Y-111444135D01*
X151020147Y-111721374D01*
X151115828Y-111952368D01*
X151103675Y-111940215D01*
X150943510Y-111833196D01*
X150765543Y-111759480D01*
X150620000Y-111730530D01*
X150620000Y-108413761D01*
X151008096Y-108413761D01*
X151130085Y-108635800D01*
X152273000Y-108635800D01*
X152273000Y-107492176D01*
X152527000Y-107492176D01*
X152527000Y-108635800D01*
X153669915Y-108635800D01*
X153791904Y-108413761D01*
X153751246Y-108279713D01*
X153631037Y-108025380D01*
X153463519Y-107799386D01*
X153255131Y-107610415D01*
X153013881Y-107465730D01*
X152749040Y-107370891D01*
X152527000Y-107492176D01*
X152273000Y-107492176D01*
X152050960Y-107370891D01*
X151786119Y-107465730D01*
X151544869Y-107610415D01*
X151336481Y-107799386D01*
X151168963Y-108025380D01*
X151048754Y-108279713D01*
X151008096Y-108413761D01*
X150620000Y-108413761D01*
X150620000Y-107921483D01*
X155144593Y-103396891D01*
X155194512Y-103441817D01*
X155447022Y-103591964D01*
X155723973Y-103689963D01*
X155956000Y-103569464D01*
X155956000Y-102362000D01*
X156210000Y-102362000D01*
X156210000Y-103569464D01*
X156442027Y-103689963D01*
X156718978Y-103591964D01*
X156971488Y-103441817D01*
X157189854Y-103245293D01*
X157365684Y-103009944D01*
X157492222Y-102744814D01*
X157537958Y-102594026D01*
X157416817Y-102362000D01*
X156210000Y-102362000D01*
X155956000Y-102362000D01*
X155936000Y-102362000D01*
X155936000Y-102108000D01*
X155956000Y-102108000D01*
X155956000Y-102088000D01*
X156210000Y-102088000D01*
X156210000Y-102108000D01*
X157416817Y-102108000D01*
X157537958Y-101875974D01*
X157492222Y-101725186D01*
X157365684Y-101460056D01*
X157189854Y-101224707D01*
X156971488Y-101028183D01*
X156872897Y-100969559D01*
X157038302Y-100859039D01*
X157247039Y-100650302D01*
X157411042Y-100404853D01*
X157524010Y-100132125D01*
X157560924Y-99946544D01*
X170507197Y-99946544D01*
X170511989Y-99985326D01*
X170601869Y-100200839D01*
X170732066Y-100394677D01*
X170897578Y-100559390D01*
X171092043Y-100688648D01*
X171307989Y-100777484D01*
X171537116Y-100822484D01*
X171724000Y-100666952D01*
X171724000Y-99763800D01*
X171978000Y-99763800D01*
X171978000Y-100666952D01*
X172164884Y-100822484D01*
X172394011Y-100777484D01*
X172609957Y-100688648D01*
X172804422Y-100559390D01*
X172969934Y-100394677D01*
X173100131Y-100200839D01*
X173190011Y-99985326D01*
X173194803Y-99946544D01*
X173069361Y-99763800D01*
X171978000Y-99763800D01*
X171724000Y-99763800D01*
X170632639Y-99763800D01*
X170507197Y-99946544D01*
X157560924Y-99946544D01*
X157581600Y-99842599D01*
X157581600Y-99656200D01*
X173408090Y-99656200D01*
X173411143Y-99679829D01*
X173504319Y-99919807D01*
X173642522Y-100136996D01*
X173820441Y-100323050D01*
X174031239Y-100470819D01*
X174266815Y-100574624D01*
X174518116Y-100630475D01*
X174724000Y-100480373D01*
X174724000Y-99453800D01*
X173531776Y-99453800D01*
X173408090Y-99656200D01*
X157581600Y-99656200D01*
X157581600Y-99547401D01*
X157537771Y-99327056D01*
X170507197Y-99327056D01*
X170632639Y-99509800D01*
X171724000Y-99509800D01*
X171724000Y-98606648D01*
X171978000Y-98606648D01*
X171978000Y-99509800D01*
X173069361Y-99509800D01*
X173194803Y-99327056D01*
X173190011Y-99288274D01*
X173100131Y-99072761D01*
X173049513Y-98997400D01*
X173408090Y-98997400D01*
X173531776Y-99199800D01*
X174724000Y-99199800D01*
X174724000Y-98173227D01*
X174518116Y-98023125D01*
X174266815Y-98078976D01*
X174031239Y-98182781D01*
X173820441Y-98330550D01*
X173642522Y-98516604D01*
X173504319Y-98733793D01*
X173411143Y-98973771D01*
X173408090Y-98997400D01*
X173049513Y-98997400D01*
X172969934Y-98878923D01*
X172804422Y-98714210D01*
X172609957Y-98584952D01*
X172394011Y-98496116D01*
X172164884Y-98451116D01*
X171978000Y-98606648D01*
X171724000Y-98606648D01*
X171537116Y-98451116D01*
X171307989Y-98496116D01*
X171092043Y-98584952D01*
X170897578Y-98714210D01*
X170732066Y-98878923D01*
X170601869Y-99072761D01*
X170511989Y-99288274D01*
X170507197Y-99327056D01*
X157537771Y-99327056D01*
X157524010Y-99257875D01*
X157411042Y-98985147D01*
X157247039Y-98739698D01*
X157038302Y-98530961D01*
X156792853Y-98366958D01*
X156520125Y-98253990D01*
X156230599Y-98196400D01*
X155935401Y-98196400D01*
X155645875Y-98253990D01*
X155373147Y-98366958D01*
X155127698Y-98530961D01*
X154918961Y-98739698D01*
X154813000Y-98898281D01*
X154707039Y-98739698D01*
X154498302Y-98530961D01*
X154252853Y-98366958D01*
X153980125Y-98253990D01*
X153690599Y-98196400D01*
X153395401Y-98196400D01*
X153105875Y-98253990D01*
X152833147Y-98366958D01*
X152587698Y-98530961D01*
X152378961Y-98739698D01*
X152273000Y-98898281D01*
X152167039Y-98739698D01*
X151958302Y-98530961D01*
X151712853Y-98366958D01*
X151440125Y-98253990D01*
X151150599Y-98196400D01*
X150855401Y-98196400D01*
X150565875Y-98253990D01*
X150293147Y-98366958D01*
X150047698Y-98530961D01*
X149838961Y-98739698D01*
X149731308Y-98900813D01*
X149569854Y-98684707D01*
X149351488Y-98488183D01*
X149098978Y-98338036D01*
X148822027Y-98240037D01*
X148590000Y-98360536D01*
X148590000Y-99568000D01*
X148610000Y-99568000D01*
X148610000Y-99822000D01*
X148590000Y-99822000D01*
X148590000Y-99842000D01*
X148336000Y-99842000D01*
X148336000Y-99822000D01*
X148316000Y-99822000D01*
X148316000Y-99568000D01*
X148336000Y-99568000D01*
X148336000Y-98360536D01*
X148103973Y-98240037D01*
X147827022Y-98338036D01*
X147574512Y-98488183D01*
X147356146Y-98684707D01*
X147194692Y-98900813D01*
X147087039Y-98739698D01*
X146878302Y-98530961D01*
X146632853Y-98366958D01*
X146360125Y-98253990D01*
X146070599Y-98196400D01*
X145775401Y-98196400D01*
X145485875Y-98253990D01*
X145213147Y-98366958D01*
X144967698Y-98530961D01*
X144758961Y-98739698D01*
X144594958Y-98985147D01*
X144481990Y-99257875D01*
X144424400Y-99547401D01*
X144424400Y-99842599D01*
X144481990Y-100132125D01*
X144594958Y-100404853D01*
X144758961Y-100650302D01*
X144873023Y-100764364D01*
X144815220Y-100781898D01*
X144704906Y-100840863D01*
X144608215Y-100920215D01*
X144528863Y-101016906D01*
X144469898Y-101127220D01*
X144433588Y-101246918D01*
X144421328Y-101371400D01*
X144421328Y-103098600D01*
X144433588Y-103223082D01*
X144469898Y-103342780D01*
X144528863Y-103453094D01*
X144608215Y-103549785D01*
X144669701Y-103600245D01*
X144669700Y-108243193D01*
X144563096Y-108402737D01*
X144489380Y-108580704D01*
X144451800Y-108769632D01*
X144451800Y-108962262D01*
X144489380Y-109151190D01*
X144563096Y-109329157D01*
X144670115Y-109489322D01*
X144806325Y-109625532D01*
X144966490Y-109732551D01*
X145144457Y-109806267D01*
X145290000Y-109835217D01*
X145290000Y-113912289D01*
X145165626Y-113787915D01*
X145005461Y-113680896D01*
X144827494Y-113607180D01*
X144638566Y-113569600D01*
X144445936Y-113569600D01*
X144257008Y-113607180D01*
X144079041Y-113680896D01*
X143918876Y-113787915D01*
X143825891Y-113880900D01*
X143667685Y-113880900D01*
X143478757Y-113918480D01*
X143300790Y-113992196D01*
X143254000Y-114023460D01*
X143254000Y-103797554D01*
X143360604Y-103638010D01*
X143434320Y-103460043D01*
X143471900Y-103271115D01*
X143471900Y-103078485D01*
X143434320Y-102889557D01*
X143360604Y-102711590D01*
X143253585Y-102551425D01*
X143117375Y-102415215D01*
X142957210Y-102308196D01*
X142779243Y-102234480D01*
X142590315Y-102196900D01*
X142494000Y-102196900D01*
X142494000Y-100445420D01*
X142475623Y-100258837D01*
X142403003Y-100019441D01*
X142285075Y-99798812D01*
X142126370Y-99605430D01*
X141932987Y-99446725D01*
X141712358Y-99328797D01*
X141472962Y-99256177D01*
X141224000Y-99231656D01*
X140975037Y-99256177D01*
X140735641Y-99328797D01*
X140515012Y-99446725D01*
X140321630Y-99605430D01*
X140162925Y-99798813D01*
X140044997Y-100019442D01*
X139972377Y-100258838D01*
X139954000Y-100445421D01*
X139954001Y-108624143D01*
X139952000Y-108624972D01*
X139952000Y-98590554D01*
X140058604Y-98431010D01*
X140132320Y-98253043D01*
X140169900Y-98064115D01*
X140169900Y-97871485D01*
X140132320Y-97682557D01*
X140058604Y-97504590D01*
X139951585Y-97344425D01*
X139815375Y-97208215D01*
X139655210Y-97101196D01*
X139477243Y-97027480D01*
X139350106Y-97002191D01*
X139360072Y-96901000D01*
X139360072Y-95681800D01*
X140601092Y-95681800D01*
X140622709Y-95753063D01*
G37*
X140622709Y-95753063D02*
X140682852Y-95865583D01*
X140763792Y-95964208D01*
X140862417Y-96045148D01*
X140974937Y-96105291D01*
X141097029Y-96142327D01*
X141192191Y-96151700D01*
X141192192Y-96151700D01*
X141224000Y-96154833D01*
X141255809Y-96151700D01*
X175882301Y-96151700D01*
X175882301Y-98331326D01*
X175881559Y-98330550D01*
X175670761Y-98182781D01*
X175435185Y-98078976D01*
X175183884Y-98023125D01*
X174978000Y-98173227D01*
X174978000Y-99199800D01*
X174998000Y-99199800D01*
X174998000Y-99453800D01*
X174978000Y-99453800D01*
X174978000Y-100480373D01*
X175183884Y-100630475D01*
X175435185Y-100574624D01*
X175670761Y-100470819D01*
X175881559Y-100323050D01*
X175882301Y-100322274D01*
X175882301Y-103791326D01*
X175881559Y-103790550D01*
X175670761Y-103642781D01*
X175435185Y-103538976D01*
X175183884Y-103483125D01*
X174978000Y-103633227D01*
X174978000Y-104659800D01*
X174998000Y-104659800D01*
X174998000Y-104913800D01*
X174978000Y-104913800D01*
X174978000Y-105940373D01*
X175183884Y-106090475D01*
X175435185Y-106034624D01*
X175670761Y-105930819D01*
X175881559Y-105783050D01*
X175882301Y-105782275D01*
X175882300Y-117651921D01*
X175612849Y-117682145D01*
X175555420Y-117694351D01*
X175497841Y-117705752D01*
X175489202Y-117708426D01*
X174733175Y-117948252D01*
X174679174Y-117971397D01*
X174624943Y-117993749D01*
X174616988Y-117998050D01*
X173921942Y-118380155D01*
X173873487Y-118413333D01*
X173824608Y-118445808D01*
X173817640Y-118451572D01*
X173210050Y-118961401D01*
X173168963Y-119003357D01*
X173127321Y-119044709D01*
X173121611Y-119051711D01*
X173121605Y-119051717D01*
X173121601Y-119051724D01*
X172624613Y-119669852D01*
X172592464Y-119718980D01*
X172559641Y-119767642D01*
X172555400Y-119775618D01*
X172555395Y-119775626D01*
X172555392Y-119775634D01*
X172187931Y-120478522D01*
X172165932Y-120532970D01*
X172143191Y-120587069D01*
X172140577Y-120595727D01*
X172033199Y-120960565D01*
X171959680Y-120783073D01*
X171802637Y-120548041D01*
X171602759Y-120348163D01*
X171370241Y-120192800D01*
X171602759Y-120037437D01*
X171802637Y-119837559D01*
X171959680Y-119602527D01*
X172067853Y-119341374D01*
X172123000Y-119064135D01*
X172123000Y-118781465D01*
X172067853Y-118504226D01*
X171959680Y-118243073D01*
X171802637Y-118008041D01*
X171602759Y-117808163D01*
X171370241Y-117652800D01*
X171602759Y-117497437D01*
X171802637Y-117297559D01*
X171959680Y-117062527D01*
X172067853Y-116801374D01*
X172123000Y-116524135D01*
X172123000Y-116241465D01*
X172067853Y-115964226D01*
X171959680Y-115703073D01*
X171802637Y-115468041D01*
X171602759Y-115268163D01*
X171370241Y-115112800D01*
X171602759Y-114957437D01*
X171802637Y-114757559D01*
X171959680Y-114522527D01*
X172067853Y-114261374D01*
X172123000Y-113984135D01*
X172123000Y-113701465D01*
X172067853Y-113424226D01*
X171959680Y-113163073D01*
X171802637Y-112928041D01*
X171602759Y-112728163D01*
X171370241Y-112572800D01*
X171602759Y-112417437D01*
X171802637Y-112217559D01*
X171959680Y-111982527D01*
X172067853Y-111721374D01*
X172123000Y-111444135D01*
X172123000Y-111161465D01*
X172067853Y-110884226D01*
X171959680Y-110623073D01*
X171802637Y-110388041D01*
X171602759Y-110188163D01*
X171367727Y-110031120D01*
X171357135Y-110026733D01*
X171543131Y-109915185D01*
X171751519Y-109726214D01*
X171919037Y-109500220D01*
X172039246Y-109245887D01*
X172079904Y-109111839D01*
X171957915Y-108889800D01*
X170815000Y-108889800D01*
X170815000Y-108909800D01*
X170561000Y-108909800D01*
X170561000Y-108889800D01*
X169418085Y-108889800D01*
X169296096Y-109111839D01*
X169336754Y-109245887D01*
X169456963Y-109500220D01*
X169624481Y-109726214D01*
X169832869Y-109915185D01*
X170018865Y-110026733D01*
X170008273Y-110031120D01*
X169773241Y-110188163D01*
X169573363Y-110388041D01*
X169416320Y-110623073D01*
X169308147Y-110884226D01*
X169253000Y-111161465D01*
X169253000Y-111444135D01*
X169308147Y-111721374D01*
X169416320Y-111982527D01*
X169573363Y-112217559D01*
X169773241Y-112417437D01*
X170005759Y-112572800D01*
X169773241Y-112728163D01*
X169573363Y-112928041D01*
X169416320Y-113163073D01*
X169308147Y-113424226D01*
X169253000Y-113701465D01*
X169253000Y-113984135D01*
X169308147Y-114261374D01*
X169416320Y-114522527D01*
X169573363Y-114757559D01*
X169773241Y-114957437D01*
X170005759Y-115112800D01*
X169773241Y-115268163D01*
X169573363Y-115468041D01*
X169416320Y-115703073D01*
X169308147Y-115964226D01*
X169253000Y-116241465D01*
X169253000Y-116524135D01*
X169308147Y-116801374D01*
X169416320Y-117062527D01*
X169573363Y-117297559D01*
X169773241Y-117497437D01*
X170005759Y-117652800D01*
X169773241Y-117808163D01*
X169573363Y-118008041D01*
X169416320Y-118243073D01*
X169308147Y-118504226D01*
X169253000Y-118781465D01*
X169253000Y-119064135D01*
X169308147Y-119341374D01*
X169416320Y-119602527D01*
X169573363Y-119837559D01*
X169773241Y-120037437D01*
X170005759Y-120192800D01*
X169773241Y-120348163D01*
X169573363Y-120548041D01*
X169416320Y-120783073D01*
X169308147Y-121044226D01*
X169253000Y-121321465D01*
X169253000Y-121604135D01*
X169308147Y-121881374D01*
X169416320Y-122142527D01*
X169573363Y-122377559D01*
X169773241Y-122577437D01*
X170005759Y-122732800D01*
X169773241Y-122888163D01*
X169573363Y-123088041D01*
X169477401Y-123231659D01*
X169477401Y-122577523D01*
X169481077Y-122540200D01*
X169477401Y-122502877D01*
X169477401Y-122502868D01*
X169466404Y-122391215D01*
X169422947Y-122247954D01*
X169403311Y-122211218D01*
X169352375Y-122115924D01*
X169281200Y-122029198D01*
X169257402Y-122000200D01*
X169228405Y-121976403D01*
X169038688Y-121786686D01*
X169075000Y-121604135D01*
X169075000Y-121321465D01*
X169019853Y-121044226D01*
X168911680Y-120783073D01*
X168754637Y-120548041D01*
X168554759Y-120348163D01*
X168322241Y-120192800D01*
X168554759Y-120037437D01*
X168754637Y-119837559D01*
X168911680Y-119602527D01*
X169019853Y-119341374D01*
X169075000Y-119064135D01*
X169075000Y-118781465D01*
X169019853Y-118504226D01*
X168911680Y-118243073D01*
X168754637Y-118008041D01*
X168554759Y-117808163D01*
X168322241Y-117652800D01*
X168554759Y-117497437D01*
X168754637Y-117297559D01*
X168911680Y-117062527D01*
X169019853Y-116801374D01*
X169075000Y-116524135D01*
X169075000Y-116241465D01*
X169019853Y-115964226D01*
X168911680Y-115703073D01*
X168754637Y-115468041D01*
X168554759Y-115268163D01*
X168322241Y-115112800D01*
X168554759Y-114957437D01*
X168754637Y-114757559D01*
X168911680Y-114522527D01*
X169019853Y-114261374D01*
X169075000Y-113984135D01*
X169075000Y-113701465D01*
X169019853Y-113424226D01*
X168911680Y-113163073D01*
X168754637Y-112928041D01*
X168554759Y-112728163D01*
X168322241Y-112572800D01*
X168554759Y-112417437D01*
X168754637Y-112217559D01*
X168911680Y-111982527D01*
X169019853Y-111721374D01*
X169075000Y-111444135D01*
X169075000Y-111161465D01*
X169019853Y-110884226D01*
X168911680Y-110623073D01*
X168754637Y-110388041D01*
X168554759Y-110188163D01*
X168322241Y-110032800D01*
X168554759Y-109877437D01*
X168754637Y-109677559D01*
X168911680Y-109442527D01*
X169019853Y-109181374D01*
X169075000Y-108904135D01*
X169075000Y-108621465D01*
X169033685Y-108413761D01*
X169296096Y-108413761D01*
X169418085Y-108635800D01*
X170561000Y-108635800D01*
X170561000Y-107492176D01*
X170815000Y-107492176D01*
X170815000Y-108635800D01*
X171957915Y-108635800D01*
X172079904Y-108413761D01*
X172039246Y-108279713D01*
X171919037Y-108025380D01*
X171751519Y-107799386D01*
X171543131Y-107610415D01*
X171301881Y-107465730D01*
X171037040Y-107370891D01*
X170815000Y-107492176D01*
X170561000Y-107492176D01*
X170338960Y-107370891D01*
X170074119Y-107465730D01*
X169832869Y-107610415D01*
X169624481Y-107799386D01*
X169456963Y-108025380D01*
X169336754Y-108279713D01*
X169296096Y-108413761D01*
X169033685Y-108413761D01*
X169019853Y-108344226D01*
X168911680Y-108083073D01*
X168754637Y-107848041D01*
X168554759Y-107648163D01*
X168319727Y-107491120D01*
X168058574Y-107382947D01*
X167781335Y-107327800D01*
X167498665Y-107327800D01*
X167221426Y-107382947D01*
X166960273Y-107491120D01*
X166876000Y-107547429D01*
X166876000Y-104813554D01*
X166894047Y-104786544D01*
X170507197Y-104786544D01*
X170511989Y-104825326D01*
X170601869Y-105040839D01*
X170732066Y-105234677D01*
X170897578Y-105399390D01*
X171092043Y-105528648D01*
X171307989Y-105617484D01*
X171537116Y-105662484D01*
X171724000Y-105506952D01*
X171724000Y-104603800D01*
X171978000Y-104603800D01*
X171978000Y-105506952D01*
X172164884Y-105662484D01*
X172394011Y-105617484D01*
X172609957Y-105528648D01*
X172804422Y-105399390D01*
X172969934Y-105234677D01*
X173049512Y-105116200D01*
X173408090Y-105116200D01*
X173411143Y-105139829D01*
X173504319Y-105379807D01*
X173642522Y-105596996D01*
X173820441Y-105783050D01*
X174031239Y-105930819D01*
X174266815Y-106034624D01*
X174518116Y-106090475D01*
X174724000Y-105940373D01*
X174724000Y-104913800D01*
X173531776Y-104913800D01*
X173408090Y-105116200D01*
X173049512Y-105116200D01*
X173100131Y-105040839D01*
X173190011Y-104825326D01*
X173194803Y-104786544D01*
X173069361Y-104603800D01*
X171978000Y-104603800D01*
X171724000Y-104603800D01*
X170632639Y-104603800D01*
X170507197Y-104786544D01*
X166894047Y-104786544D01*
X166982604Y-104654010D01*
X167056320Y-104476043D01*
X167060028Y-104457400D01*
X173408090Y-104457400D01*
X173531776Y-104659800D01*
X174724000Y-104659800D01*
X174724000Y-103633227D01*
X174518116Y-103483125D01*
X174266815Y-103538976D01*
X174031239Y-103642781D01*
X173820441Y-103790550D01*
X173642522Y-103976604D01*
X173504319Y-104193793D01*
X173411143Y-104433771D01*
X173408090Y-104457400D01*
X167060028Y-104457400D01*
X167093900Y-104287115D01*
X167093900Y-104167056D01*
X170507197Y-104167056D01*
X170632639Y-104349800D01*
X171724000Y-104349800D01*
X171724000Y-103446648D01*
X171978000Y-103446648D01*
X171978000Y-104349800D01*
X173069361Y-104349800D01*
X173194803Y-104167056D01*
X173190011Y-104128274D01*
X173100131Y-103912761D01*
X172969934Y-103718923D01*
X172804422Y-103554210D01*
X172609957Y-103424952D01*
X172394011Y-103336116D01*
X172164884Y-103291116D01*
X171978000Y-103446648D01*
X171724000Y-103446648D01*
X171537116Y-103291116D01*
X171307989Y-103336116D01*
X171092043Y-103424952D01*
X170897578Y-103554210D01*
X170732066Y-103718923D01*
X170601869Y-103912761D01*
X170511989Y-104128274D01*
X170507197Y-104167056D01*
X167093900Y-104167056D01*
X167093900Y-104094485D01*
X167056320Y-103905557D01*
X166982604Y-103727590D01*
X166875585Y-103567425D01*
X166739375Y-103431215D01*
X166579210Y-103324196D01*
X166401243Y-103250480D01*
X166212315Y-103212900D01*
X166019685Y-103212900D01*
X165830757Y-103250480D01*
X165652790Y-103324196D01*
X165492625Y-103431215D01*
X165356415Y-103567425D01*
X165249396Y-103727590D01*
X165225000Y-103786487D01*
X165225000Y-103035554D01*
X165331604Y-102876010D01*
X165405320Y-102698043D01*
X165442900Y-102509115D01*
X165442900Y-102316485D01*
X165405320Y-102127557D01*
X165331604Y-101949590D01*
X165224585Y-101789425D01*
X165088375Y-101653215D01*
X164928210Y-101546196D01*
X164750243Y-101472480D01*
X164561315Y-101434900D01*
X164368685Y-101434900D01*
X164179757Y-101472480D01*
X164001790Y-101546196D01*
X163841625Y-101653215D01*
X163705415Y-101789425D01*
X163598396Y-101949590D01*
X163524680Y-102127557D01*
X163506940Y-102216740D01*
X163417757Y-102234480D01*
X163239790Y-102308196D01*
X163079625Y-102415215D01*
X162943415Y-102551425D01*
X162836396Y-102711590D01*
X162762680Y-102889557D01*
X162725100Y-103078485D01*
X162725100Y-103271115D01*
X162762680Y-103460043D01*
X162836396Y-103638010D01*
X162943001Y-103797555D01*
X162943000Y-106514132D01*
X162943001Y-106514142D01*
X162943000Y-135268478D01*
X162939324Y-135305800D01*
X162943000Y-135343122D01*
X162943000Y-135343132D01*
X162953997Y-135454785D01*
X162980651Y-135542653D01*
X162997454Y-135598046D01*
X163068026Y-135730076D01*
X163107871Y-135778626D01*
X163162999Y-135845801D01*
X163192003Y-135869604D01*
X166241312Y-138918914D01*
X166205000Y-139101465D01*
X166205000Y-139384135D01*
X166260147Y-139661374D01*
X166368320Y-139922527D01*
X166525363Y-140157559D01*
X166725241Y-140357437D01*
X166957759Y-140512800D01*
X166725241Y-140668163D01*
X166525363Y-140868041D01*
X166368320Y-141103073D01*
X166260147Y-141364226D01*
X166205000Y-141641465D01*
X166205000Y-141924135D01*
X166260147Y-142201374D01*
X166368320Y-142462527D01*
X166525363Y-142697559D01*
X166725241Y-142897437D01*
X166960273Y-143054480D01*
X167221426Y-143162653D01*
X167498665Y-143217800D01*
X167781335Y-143217800D01*
X168058574Y-143162653D01*
X168319727Y-143054480D01*
X168554759Y-142897437D01*
X168754637Y-142697559D01*
X168911680Y-142462527D01*
X169019853Y-142201374D01*
X169075000Y-141924135D01*
X169075000Y-141641465D01*
X169019853Y-141364226D01*
X168911680Y-141103073D01*
X168754637Y-140868041D01*
X168554759Y-140668163D01*
X168322241Y-140512800D01*
X168554759Y-140357437D01*
X168754637Y-140157559D01*
X168911680Y-139922527D01*
X169019853Y-139661374D01*
X169075000Y-139384135D01*
X169075000Y-139101465D01*
X169019853Y-138824226D01*
X168911680Y-138563073D01*
X168754637Y-138328041D01*
X168554759Y-138128163D01*
X168322241Y-137972800D01*
X168554759Y-137817437D01*
X168754637Y-137617559D01*
X168911680Y-137382527D01*
X169019853Y-137121374D01*
X169075000Y-136844135D01*
X169075000Y-136561465D01*
X169019853Y-136284226D01*
X168911680Y-136023073D01*
X168754637Y-135788041D01*
X168554759Y-135588163D01*
X168322241Y-135432800D01*
X168554759Y-135277437D01*
X168754637Y-135077559D01*
X168911680Y-134842527D01*
X169019853Y-134581374D01*
X169075000Y-134304135D01*
X169075000Y-134021465D01*
X169019853Y-133744226D01*
X168911680Y-133483073D01*
X168754637Y-133248041D01*
X168554759Y-133048163D01*
X168322241Y-132892800D01*
X168554759Y-132737437D01*
X168754637Y-132537559D01*
X168911680Y-132302527D01*
X169019853Y-132041374D01*
X169075000Y-131764135D01*
X169075000Y-131481465D01*
X169019853Y-131204226D01*
X168911680Y-130943073D01*
X168754637Y-130708041D01*
X168554759Y-130508163D01*
X168322241Y-130352800D01*
X168554759Y-130197437D01*
X168754637Y-129997559D01*
X168911680Y-129762527D01*
X169019853Y-129501374D01*
X169075000Y-129224135D01*
X169075000Y-128941465D01*
X169019853Y-128664226D01*
X168911680Y-128403073D01*
X168754637Y-128168041D01*
X168554759Y-127968163D01*
X168322241Y-127812800D01*
X168554759Y-127657437D01*
X168754637Y-127457559D01*
X168911680Y-127222527D01*
X169019853Y-126961374D01*
X169075000Y-126684135D01*
X169075000Y-126401465D01*
X169038688Y-126218913D01*
X169228398Y-126029203D01*
X169257402Y-126005400D01*
X169352375Y-125889675D01*
X169422947Y-125757646D01*
X169466404Y-125614385D01*
X169477401Y-125502732D01*
X169477401Y-125502724D01*
X169481077Y-125465399D01*
X169477401Y-125428074D01*
X169477401Y-124773941D01*
X169573363Y-124917559D01*
X169773241Y-125117437D01*
X170005759Y-125272800D01*
X169773241Y-125428163D01*
X169573363Y-125628041D01*
X169416320Y-125863073D01*
X169308147Y-126124226D01*
X169253000Y-126401465D01*
X169253000Y-126684135D01*
X169308147Y-126961374D01*
X169416320Y-127222527D01*
X169573363Y-127457559D01*
X169773241Y-127657437D01*
X170005759Y-127812800D01*
X169773241Y-127968163D01*
X169573363Y-128168041D01*
X169416320Y-128403073D01*
X169308147Y-128664226D01*
X169253000Y-128941465D01*
X169253000Y-129224135D01*
X169308147Y-129501374D01*
X169416320Y-129762527D01*
X169573363Y-129997559D01*
X169773241Y-130197437D01*
X170005759Y-130352800D01*
X169773241Y-130508163D01*
X169573363Y-130708041D01*
X169416320Y-130943073D01*
X169308147Y-131204226D01*
X169253000Y-131481465D01*
X169253000Y-131764135D01*
X169308147Y-132041374D01*
X169416320Y-132302527D01*
X169573363Y-132537559D01*
X169773241Y-132737437D01*
X170005759Y-132892800D01*
X169773241Y-133048163D01*
X169573363Y-133248041D01*
X169416320Y-133483073D01*
X169308147Y-133744226D01*
X169253000Y-134021465D01*
X169253000Y-134304135D01*
X169308147Y-134581374D01*
X169416320Y-134842527D01*
X169573363Y-135077559D01*
X169773241Y-135277437D01*
X170005759Y-135432800D01*
X169773241Y-135588163D01*
X169573363Y-135788041D01*
X169416320Y-136023073D01*
X169308147Y-136284226D01*
X169253000Y-136561465D01*
X169253000Y-136844135D01*
X169308147Y-137121374D01*
X169416320Y-137382527D01*
X169573363Y-137617559D01*
X169773241Y-137817437D01*
X170005759Y-137972800D01*
X169773241Y-138128163D01*
X169573363Y-138328041D01*
X169416320Y-138563073D01*
X169308147Y-138824226D01*
X169253000Y-139101465D01*
X169253000Y-139384135D01*
X169308147Y-139661374D01*
X169416320Y-139922527D01*
X169573363Y-140157559D01*
X169771961Y-140356157D01*
X169763518Y-140356988D01*
X169643820Y-140393298D01*
X169533506Y-140452263D01*
X169436815Y-140531615D01*
X169357463Y-140628306D01*
X169298498Y-140738620D01*
X169262188Y-140858318D01*
X169249928Y-140982800D01*
X169249928Y-142582800D01*
X169262188Y-142707282D01*
X169298498Y-142826980D01*
X169357463Y-142937294D01*
X169436815Y-143033985D01*
X169533506Y-143113337D01*
X169643820Y-143172302D01*
X169763518Y-143208612D01*
X169888000Y-143220872D01*
X171488000Y-143220872D01*
X171612482Y-143208612D01*
X171732180Y-143172302D01*
X171842494Y-143113337D01*
X171939185Y-143033985D01*
X172018537Y-142937294D01*
X172077502Y-142826980D01*
X172113812Y-142707282D01*
X172126072Y-142582800D01*
X172126072Y-140982800D01*
X172113812Y-140858318D01*
X172077502Y-140738620D01*
X172018537Y-140628306D01*
X171939185Y-140531615D01*
X171842494Y-140452263D01*
X171732180Y-140393298D01*
X171612482Y-140356988D01*
X171604039Y-140356157D01*
X171802637Y-140157559D01*
X171959680Y-139922527D01*
X172067853Y-139661374D01*
X172123000Y-139384135D01*
X172123000Y-139101465D01*
X172067853Y-138824226D01*
X171959680Y-138563073D01*
X171802637Y-138328041D01*
X171602759Y-138128163D01*
X171370241Y-137972800D01*
X171602759Y-137817437D01*
X171802637Y-137617559D01*
X171959680Y-137382527D01*
X172067853Y-137121374D01*
X172123000Y-136844135D01*
X172123000Y-136561465D01*
X172067853Y-136284226D01*
X171959680Y-136023073D01*
X171802637Y-135788041D01*
X171602759Y-135588163D01*
X171370241Y-135432800D01*
X171602759Y-135277437D01*
X171802637Y-135077559D01*
X171959680Y-134842527D01*
X172067853Y-134581374D01*
X172123000Y-134304135D01*
X172123000Y-134021465D01*
X172067853Y-133744226D01*
X171959680Y-133483073D01*
X171802637Y-133248041D01*
X171602759Y-133048163D01*
X171370241Y-132892800D01*
X171602759Y-132737437D01*
X171802637Y-132537559D01*
X171959680Y-132302527D01*
X172067853Y-132041374D01*
X172123000Y-131764135D01*
X172123000Y-131481465D01*
X172067853Y-131204226D01*
X171959680Y-130943073D01*
X171802637Y-130708041D01*
X171602759Y-130508163D01*
X171370241Y-130352800D01*
X171602759Y-130197437D01*
X171802637Y-129997559D01*
X171959680Y-129762527D01*
X172067853Y-129501374D01*
X172123000Y-129224135D01*
X172123000Y-128941465D01*
X172067853Y-128664226D01*
X171959680Y-128403073D01*
X171802637Y-128168041D01*
X171602759Y-127968163D01*
X171370241Y-127812800D01*
X171602759Y-127657437D01*
X171802637Y-127457559D01*
X171959680Y-127222527D01*
X172067853Y-126961374D01*
X172123000Y-126684135D01*
X172123000Y-126401465D01*
X172067853Y-126124226D01*
X171959680Y-125863073D01*
X171802637Y-125628041D01*
X171602759Y-125428163D01*
X171370241Y-125272800D01*
X171602759Y-125117437D01*
X171802637Y-124917559D01*
X171959680Y-124682527D01*
X172067853Y-124421374D01*
X172123000Y-124144135D01*
X172123000Y-123932314D01*
X172164814Y-124067393D01*
X172187579Y-124121549D01*
X172209554Y-124175940D01*
X172213799Y-124183925D01*
X172591042Y-124881622D01*
X172623896Y-124930330D01*
X172656014Y-124979412D01*
X172661724Y-124986413D01*
X172661729Y-124986420D01*
X172661735Y-124986426D01*
X173167306Y-125597555D01*
X173208978Y-125638938D01*
X173250033Y-125680862D01*
X173256995Y-125686621D01*
X173257002Y-125686628D01*
X173257010Y-125686633D01*
X173871651Y-126187923D01*
X173920546Y-126220409D01*
X173968985Y-126253576D01*
X173976940Y-126257877D01*
X174677254Y-126630240D01*
X174731516Y-126652606D01*
X174785485Y-126675737D01*
X174794118Y-126678409D01*
X174794125Y-126678412D01*
X174794132Y-126678413D01*
X175553426Y-126907658D01*
X175611039Y-126919066D01*
X175668434Y-126931266D01*
X175677426Y-126932211D01*
X175677428Y-126932211D01*
X175882301Y-126952299D01*
X175882300Y-144513300D01*
X154416130Y-144513300D01*
X154569587Y-144431276D01*
X154762969Y-144272571D01*
X154802740Y-144224110D01*
X155863607Y-143163243D01*
X155866574Y-143162653D01*
X156127727Y-143054480D01*
X156362759Y-142897437D01*
X156562637Y-142697559D01*
X156719680Y-142462527D01*
X156827853Y-142201374D01*
X156883000Y-141924135D01*
X156883000Y-141641465D01*
X156827853Y-141364226D01*
X156719680Y-141103073D01*
X156562637Y-140868041D01*
X156362759Y-140668163D01*
X156130241Y-140512800D01*
X156362759Y-140357437D01*
X156562637Y-140157559D01*
X156666043Y-140002800D01*
X158077678Y-140002800D01*
X158115000Y-140006476D01*
X158152322Y-140002800D01*
X158152333Y-140002800D01*
X158263986Y-139991803D01*
X158407247Y-139948346D01*
X158539276Y-139877774D01*
X158655001Y-139782801D01*
X158678803Y-139753798D01*
X159515004Y-138917598D01*
X159544001Y-138893801D01*
X159638974Y-138778076D01*
X159709546Y-138646047D01*
X159753003Y-138502786D01*
X159764000Y-138391133D01*
X159764000Y-138391123D01*
X159767676Y-138353800D01*
X159764000Y-138316477D01*
X159764000Y-106591554D01*
X159870604Y-106432010D01*
X159944320Y-106254043D01*
X159981900Y-106065115D01*
X159981900Y-105872485D01*
X159944320Y-105683557D01*
X159870604Y-105505590D01*
X159763585Y-105345425D01*
X159704761Y-105286601D01*
X159638974Y-105163524D01*
X159544001Y-105047799D01*
X159428276Y-104952826D01*
X159296247Y-104882254D01*
X159152986Y-104838797D01*
X159004000Y-104824123D01*
X158855014Y-104838797D01*
X158711753Y-104882254D01*
X158579724Y-104952826D01*
X158463999Y-105047799D01*
X158369026Y-105163525D01*
X158303240Y-105286600D01*
X158244415Y-105345425D01*
X158137396Y-105505590D01*
X158113000Y-105564487D01*
X158113000Y-105194554D01*
X158219604Y-105035010D01*
X158293320Y-104857043D01*
X158330900Y-104668115D01*
X158330900Y-104475485D01*
X158293320Y-104286557D01*
X158219604Y-104108590D01*
X158112585Y-103948425D01*
X157976375Y-103812215D01*
X157816210Y-103705196D01*
X157638243Y-103631480D01*
X157449315Y-103593900D01*
X157256685Y-103593900D01*
X157067757Y-103631480D01*
X156889790Y-103705196D01*
X156729625Y-103812215D01*
X156593415Y-103948425D01*
X156486396Y-104108590D01*
X156412680Y-104286557D01*
X156375100Y-104475485D01*
X156375100Y-104668115D01*
X156412680Y-104857043D01*
X156486396Y-105035010D01*
X156593001Y-105194555D01*
X156593000Y-106880432D01*
X156593001Y-106880442D01*
X156593001Y-107893484D01*
X156562637Y-107848041D01*
X156362759Y-107648163D01*
X156127727Y-107491120D01*
X155866574Y-107382947D01*
X155589335Y-107327800D01*
X155306665Y-107327800D01*
X155029426Y-107382947D01*
X154768273Y-107491120D01*
X154533241Y-107648163D01*
X154333363Y-107848041D01*
X154176320Y-108083073D01*
X154068147Y-108344226D01*
X154013000Y-108621465D01*
X154013000Y-108904135D01*
X154068147Y-109181374D01*
X154176320Y-109442527D01*
X154333363Y-109677559D01*
X154533241Y-109877437D01*
X154765759Y-110032800D01*
X154533241Y-110188163D01*
X154333363Y-110388041D01*
X154176320Y-110623073D01*
X154068147Y-110884226D01*
X154013000Y-111161465D01*
X154013000Y-111444135D01*
X154068147Y-111721374D01*
X154176320Y-111982527D01*
X154333363Y-112217559D01*
X154533241Y-112417437D01*
X154765759Y-112572800D01*
X154533241Y-112728163D01*
X154333363Y-112928041D01*
X154176320Y-113163073D01*
X154068147Y-113424226D01*
X154013000Y-113701465D01*
X154013000Y-113984135D01*
X154068147Y-114261374D01*
X154176320Y-114522527D01*
X154333363Y-114757559D01*
X154533241Y-114957437D01*
X154765759Y-115112800D01*
X154533241Y-115268163D01*
X154333363Y-115468041D01*
X154176320Y-115703073D01*
X154068147Y-115964226D01*
X154013000Y-116241465D01*
X154013000Y-116524135D01*
X154068147Y-116801374D01*
X154176320Y-117062527D01*
X154333363Y-117297559D01*
X154533241Y-117497437D01*
X154765759Y-117652800D01*
X154533241Y-117808163D01*
X154333363Y-118008041D01*
X154176320Y-118243073D01*
X154068147Y-118504226D01*
X154013000Y-118781465D01*
X154013000Y-119064135D01*
X154068147Y-119341374D01*
X154176320Y-119602527D01*
X154333363Y-119837559D01*
X154533241Y-120037437D01*
X154765759Y-120192800D01*
X154533241Y-120348163D01*
X154333363Y-120548041D01*
X154176320Y-120783073D01*
X154068147Y-121044226D01*
X154013000Y-121321465D01*
X154013000Y-121604135D01*
X154068147Y-121881374D01*
X154176320Y-122142527D01*
X154333363Y-122377559D01*
X154533241Y-122577437D01*
X154756370Y-122726527D01*
X154761311Y-122735772D01*
X154533241Y-122888163D01*
X154333363Y-123088041D01*
X154176320Y-123323073D01*
X154068147Y-123584226D01*
X154013000Y-123861465D01*
X154013000Y-124144135D01*
X154068147Y-124421374D01*
X154176320Y-124682527D01*
X154333363Y-124917559D01*
X154533241Y-125117437D01*
X154765759Y-125272800D01*
X154533241Y-125428163D01*
X154333363Y-125628041D01*
X154176320Y-125863073D01*
X154068147Y-126124226D01*
X154013000Y-126401465D01*
X154013000Y-126684135D01*
X154068147Y-126961374D01*
X154176320Y-127222527D01*
X154333363Y-127457559D01*
X154533241Y-127657437D01*
X154765759Y-127812800D01*
X154533241Y-127968163D01*
X154333363Y-128168041D01*
X154176320Y-128403073D01*
X154068147Y-128664226D01*
X154013000Y-128941465D01*
X154013000Y-129224135D01*
X154068147Y-129501374D01*
X154176320Y-129762527D01*
X154333363Y-129997559D01*
X154533241Y-130197437D01*
X154765759Y-130352800D01*
X154533241Y-130508163D01*
X154333363Y-130708041D01*
X154176320Y-130943073D01*
X154068147Y-131204226D01*
X154013000Y-131481465D01*
X154013000Y-131764135D01*
X154068147Y-132041374D01*
X154176320Y-132302527D01*
X154333363Y-132537559D01*
X154533241Y-132737437D01*
X154765759Y-132892800D01*
X154533241Y-133048163D01*
X154333363Y-133248041D01*
X154176320Y-133483073D01*
X154068147Y-133744226D01*
X154013000Y-134021465D01*
X154013000Y-134304135D01*
X154068147Y-134581374D01*
X154176320Y-134842527D01*
X154333363Y-135077559D01*
X154533241Y-135277437D01*
X154765759Y-135432800D01*
X154533241Y-135588163D01*
X154333363Y-135788041D01*
X154176320Y-136023073D01*
X154068147Y-136284226D01*
X154013000Y-136561465D01*
X154013000Y-136844135D01*
X154068147Y-137121374D01*
X154176320Y-137382527D01*
X154333363Y-137617559D01*
X154533241Y-137817437D01*
X154765759Y-137972800D01*
X154533241Y-138128163D01*
X154333363Y-138328041D01*
X154176320Y-138563073D01*
X154068147Y-138824226D01*
X154013000Y-139101465D01*
X154013000Y-139384135D01*
X154068147Y-139661374D01*
X154176320Y-139922527D01*
X154333363Y-140157559D01*
X154533241Y-140357437D01*
X154765759Y-140512800D01*
X154533241Y-140668163D01*
X154333363Y-140868041D01*
X154176320Y-141103073D01*
X154068147Y-141364226D01*
X154067557Y-141367193D01*
X153838072Y-141596678D01*
X153838072Y-140982800D01*
X153825812Y-140858318D01*
X153789502Y-140738620D01*
X153730537Y-140628306D01*
X153651185Y-140531615D01*
X153554494Y-140452263D01*
X153444180Y-140393298D01*
X153324482Y-140356988D01*
X153316039Y-140356157D01*
X153514637Y-140157559D01*
X153671680Y-139922527D01*
X153779853Y-139661374D01*
X153835000Y-139384135D01*
X153835000Y-139101465D01*
X153779853Y-138824226D01*
X153671680Y-138563073D01*
X153514637Y-138328041D01*
X153314759Y-138128163D01*
X153082241Y-137972800D01*
X153314759Y-137817437D01*
X153514637Y-137617559D01*
X153671680Y-137382527D01*
X153779853Y-137121374D01*
X153835000Y-136844135D01*
X153835000Y-136561465D01*
X153779853Y-136284226D01*
X153671680Y-136023073D01*
X153514637Y-135788041D01*
X153314759Y-135588163D01*
X153082241Y-135432800D01*
X153314759Y-135277437D01*
X153514637Y-135077559D01*
X153671680Y-134842527D01*
X153779853Y-134581374D01*
X153835000Y-134304135D01*
X153835000Y-134021465D01*
X153779853Y-133744226D01*
X153671680Y-133483073D01*
X153514637Y-133248041D01*
X153314759Y-133048163D01*
X153082241Y-132892800D01*
X153314759Y-132737437D01*
X153514637Y-132537559D01*
X153671680Y-132302527D01*
X153779853Y-132041374D01*
X153835000Y-131764135D01*
X153835000Y-131481465D01*
X153779853Y-131204226D01*
X153671680Y-130943073D01*
X153514637Y-130708041D01*
X153314759Y-130508163D01*
X153082241Y-130352800D01*
X153314759Y-130197437D01*
X153514637Y-129997559D01*
X153671680Y-129762527D01*
X153779853Y-129501374D01*
X153835000Y-129224135D01*
X153835000Y-128941465D01*
X153779853Y-128664226D01*
X153671680Y-128403073D01*
X153514637Y-128168041D01*
X153314759Y-127968163D01*
X153082241Y-127812800D01*
X153314759Y-127657437D01*
X153514637Y-127457559D01*
X153671680Y-127222527D01*
X153779853Y-126961374D01*
X153835000Y-126684135D01*
X153835000Y-126401465D01*
X153779853Y-126124226D01*
X153671680Y-125863073D01*
X153514637Y-125628041D01*
X153314759Y-125428163D01*
X153082241Y-125272800D01*
X153314759Y-125117437D01*
X153514637Y-124917559D01*
X153671680Y-124682527D01*
X153779853Y-124421374D01*
X153835000Y-124144135D01*
X153835000Y-123861465D01*
X153779853Y-123584226D01*
X153671680Y-123323073D01*
X153514637Y-123088041D01*
X153314759Y-122888163D01*
X153082241Y-122732800D01*
X153314759Y-122577437D01*
X153514637Y-122377559D01*
X153671680Y-122142527D01*
X153779853Y-121881374D01*
X153835000Y-121604135D01*
X153835000Y-121321465D01*
X153779853Y-121044226D01*
X153671680Y-120783073D01*
X153514637Y-120548041D01*
X153314759Y-120348163D01*
X153082241Y-120192800D01*
X153314759Y-120037437D01*
X153514637Y-119837559D01*
X153671680Y-119602527D01*
X153779853Y-119341374D01*
X153835000Y-119064135D01*
X153835000Y-118781465D01*
X153779853Y-118504226D01*
X153671680Y-118243073D01*
X153514637Y-118008041D01*
X153314759Y-117808163D01*
X153082241Y-117652800D01*
X153314759Y-117497437D01*
X153514637Y-117297559D01*
X153671680Y-117062527D01*
X153779853Y-116801374D01*
X153835000Y-116524135D01*
X153835000Y-116241465D01*
X153779853Y-115964226D01*
X153671680Y-115703073D01*
X153514637Y-115468041D01*
X153314759Y-115268163D01*
X153082241Y-115112800D01*
X153314759Y-114957437D01*
X153514637Y-114757559D01*
X153671680Y-114522527D01*
X153779853Y-114261374D01*
X153835000Y-113984135D01*
X153835000Y-113701465D01*
X153779853Y-113424226D01*
X153671680Y-113163073D01*
X153514637Y-112928041D01*
X153314759Y-112728163D01*
X153082241Y-112572800D01*
X153314759Y-112417437D01*
X153514637Y-112217559D01*
X153671680Y-111982527D01*
X153779853Y-111721374D01*
X153835000Y-111444135D01*
X153835000Y-111161465D01*
X153779853Y-110884226D01*
X153671680Y-110623073D01*
X153514637Y-110388041D01*
X153314759Y-110188163D01*
X153079727Y-110031120D01*
X153069135Y-110026733D01*
X153255131Y-109915185D01*
X153463519Y-109726214D01*
X153631037Y-109500220D01*
X153751246Y-109245887D01*
X153791904Y-109111839D01*
X153669915Y-108889800D01*
X152527000Y-108889800D01*
X152527000Y-108909800D01*
X152273000Y-108909800D01*
X152273000Y-108889800D01*
X151130085Y-108889800D01*
X151008096Y-109111839D01*
X151048754Y-109245887D01*
X151168963Y-109500220D01*
X151336481Y-109726214D01*
X151544869Y-109915185D01*
X151730865Y-110026733D01*
X151720273Y-110031120D01*
X151485241Y-110188163D01*
X151285363Y-110388041D01*
X151128320Y-110623073D01*
X151020147Y-110884226D01*
X150965000Y-111161465D01*
X150965000Y-111444135D01*
X151020147Y-111721374D01*
X151115828Y-111952368D01*
X151103675Y-111940215D01*
X150943510Y-111833196D01*
X150765543Y-111759480D01*
X150620000Y-111730530D01*
X150620000Y-108413761D01*
X151008096Y-108413761D01*
X151130085Y-108635800D01*
X152273000Y-108635800D01*
X152273000Y-107492176D01*
X152527000Y-107492176D01*
X152527000Y-108635800D01*
X153669915Y-108635800D01*
X153791904Y-108413761D01*
X153751246Y-108279713D01*
X153631037Y-108025380D01*
X153463519Y-107799386D01*
X153255131Y-107610415D01*
X153013881Y-107465730D01*
X152749040Y-107370891D01*
X152527000Y-107492176D01*
X152273000Y-107492176D01*
X152050960Y-107370891D01*
X151786119Y-107465730D01*
X151544869Y-107610415D01*
X151336481Y-107799386D01*
X151168963Y-108025380D01*
X151048754Y-108279713D01*
X151008096Y-108413761D01*
X150620000Y-108413761D01*
X150620000Y-107921483D01*
X155144593Y-103396891D01*
X155194512Y-103441817D01*
X155447022Y-103591964D01*
X155723973Y-103689963D01*
X155956000Y-103569464D01*
X155956000Y-102362000D01*
X156210000Y-102362000D01*
X156210000Y-103569464D01*
X156442027Y-103689963D01*
X156718978Y-103591964D01*
X156971488Y-103441817D01*
X157189854Y-103245293D01*
X157365684Y-103009944D01*
X157492222Y-102744814D01*
X157537958Y-102594026D01*
X157416817Y-102362000D01*
X156210000Y-102362000D01*
X155956000Y-102362000D01*
X155936000Y-102362000D01*
X155936000Y-102108000D01*
X155956000Y-102108000D01*
X155956000Y-102088000D01*
X156210000Y-102088000D01*
X156210000Y-102108000D01*
X157416817Y-102108000D01*
X157537958Y-101875974D01*
X157492222Y-101725186D01*
X157365684Y-101460056D01*
X157189854Y-101224707D01*
X156971488Y-101028183D01*
X156872897Y-100969559D01*
X157038302Y-100859039D01*
X157247039Y-100650302D01*
X157411042Y-100404853D01*
X157524010Y-100132125D01*
X157560924Y-99946544D01*
X170507197Y-99946544D01*
X170511989Y-99985326D01*
X170601869Y-100200839D01*
X170732066Y-100394677D01*
X170897578Y-100559390D01*
X171092043Y-100688648D01*
X171307989Y-100777484D01*
X171537116Y-100822484D01*
X171724000Y-100666952D01*
X171724000Y-99763800D01*
X171978000Y-99763800D01*
X171978000Y-100666952D01*
X172164884Y-100822484D01*
X172394011Y-100777484D01*
X172609957Y-100688648D01*
X172804422Y-100559390D01*
X172969934Y-100394677D01*
X173100131Y-100200839D01*
X173190011Y-99985326D01*
X173194803Y-99946544D01*
X173069361Y-99763800D01*
X171978000Y-99763800D01*
X171724000Y-99763800D01*
X170632639Y-99763800D01*
X170507197Y-99946544D01*
X157560924Y-99946544D01*
X157581600Y-99842599D01*
X157581600Y-99656200D01*
X173408090Y-99656200D01*
X173411143Y-99679829D01*
X173504319Y-99919807D01*
X173642522Y-100136996D01*
X173820441Y-100323050D01*
X174031239Y-100470819D01*
X174266815Y-100574624D01*
X174518116Y-100630475D01*
X174724000Y-100480373D01*
X174724000Y-99453800D01*
X173531776Y-99453800D01*
X173408090Y-99656200D01*
X157581600Y-99656200D01*
X157581600Y-99547401D01*
X157537771Y-99327056D01*
X170507197Y-99327056D01*
X170632639Y-99509800D01*
X171724000Y-99509800D01*
X171724000Y-98606648D01*
X171978000Y-98606648D01*
X171978000Y-99509800D01*
X173069361Y-99509800D01*
X173194803Y-99327056D01*
X173190011Y-99288274D01*
X173100131Y-99072761D01*
X173049513Y-98997400D01*
X173408090Y-98997400D01*
X173531776Y-99199800D01*
X174724000Y-99199800D01*
X174724000Y-98173227D01*
X174518116Y-98023125D01*
X174266815Y-98078976D01*
X174031239Y-98182781D01*
X173820441Y-98330550D01*
X173642522Y-98516604D01*
X173504319Y-98733793D01*
X173411143Y-98973771D01*
X173408090Y-98997400D01*
X173049513Y-98997400D01*
X172969934Y-98878923D01*
X172804422Y-98714210D01*
X172609957Y-98584952D01*
X172394011Y-98496116D01*
X172164884Y-98451116D01*
X171978000Y-98606648D01*
X171724000Y-98606648D01*
X171537116Y-98451116D01*
X171307989Y-98496116D01*
X171092043Y-98584952D01*
X170897578Y-98714210D01*
X170732066Y-98878923D01*
X170601869Y-99072761D01*
X170511989Y-99288274D01*
X170507197Y-99327056D01*
X157537771Y-99327056D01*
X157524010Y-99257875D01*
X157411042Y-98985147D01*
X157247039Y-98739698D01*
X157038302Y-98530961D01*
X156792853Y-98366958D01*
X156520125Y-98253990D01*
X156230599Y-98196400D01*
X155935401Y-98196400D01*
X155645875Y-98253990D01*
X155373147Y-98366958D01*
X155127698Y-98530961D01*
X154918961Y-98739698D01*
X154813000Y-98898281D01*
X154707039Y-98739698D01*
X154498302Y-98530961D01*
X154252853Y-98366958D01*
X153980125Y-98253990D01*
X153690599Y-98196400D01*
X153395401Y-98196400D01*
X153105875Y-98253990D01*
X152833147Y-98366958D01*
X152587698Y-98530961D01*
X152378961Y-98739698D01*
X152273000Y-98898281D01*
X152167039Y-98739698D01*
X151958302Y-98530961D01*
X151712853Y-98366958D01*
X151440125Y-98253990D01*
X151150599Y-98196400D01*
X150855401Y-98196400D01*
X150565875Y-98253990D01*
X150293147Y-98366958D01*
X150047698Y-98530961D01*
X149838961Y-98739698D01*
X149731308Y-98900813D01*
X149569854Y-98684707D01*
X149351488Y-98488183D01*
X149098978Y-98338036D01*
X148822027Y-98240037D01*
X148590000Y-98360536D01*
X148590000Y-99568000D01*
X148610000Y-99568000D01*
X148610000Y-99822000D01*
X148590000Y-99822000D01*
X148590000Y-99842000D01*
X148336000Y-99842000D01*
X148336000Y-99822000D01*
X148316000Y-99822000D01*
X148316000Y-99568000D01*
X148336000Y-99568000D01*
X148336000Y-98360536D01*
X148103973Y-98240037D01*
X147827022Y-98338036D01*
X147574512Y-98488183D01*
X147356146Y-98684707D01*
X147194692Y-98900813D01*
X147087039Y-98739698D01*
X146878302Y-98530961D01*
X146632853Y-98366958D01*
X146360125Y-98253990D01*
X146070599Y-98196400D01*
X145775401Y-98196400D01*
X145485875Y-98253990D01*
X145213147Y-98366958D01*
X144967698Y-98530961D01*
X144758961Y-98739698D01*
X144594958Y-98985147D01*
X144481990Y-99257875D01*
X144424400Y-99547401D01*
X144424400Y-99842599D01*
X144481990Y-100132125D01*
X144594958Y-100404853D01*
X144758961Y-100650302D01*
X144873023Y-100764364D01*
X144815220Y-100781898D01*
X144704906Y-100840863D01*
X144608215Y-100920215D01*
X144528863Y-101016906D01*
X144469898Y-101127220D01*
X144433588Y-101246918D01*
X144421328Y-101371400D01*
X144421328Y-103098600D01*
X144433588Y-103223082D01*
X144469898Y-103342780D01*
X144528863Y-103453094D01*
X144608215Y-103549785D01*
X144669701Y-103600245D01*
X144669700Y-108243193D01*
X144563096Y-108402737D01*
X144489380Y-108580704D01*
X144451800Y-108769632D01*
X144451800Y-108962262D01*
X144489380Y-109151190D01*
X144563096Y-109329157D01*
X144670115Y-109489322D01*
X144806325Y-109625532D01*
X144966490Y-109732551D01*
X145144457Y-109806267D01*
X145290000Y-109835217D01*
X145290000Y-113912289D01*
X145165626Y-113787915D01*
X145005461Y-113680896D01*
X144827494Y-113607180D01*
X144638566Y-113569600D01*
X144445936Y-113569600D01*
X144257008Y-113607180D01*
X144079041Y-113680896D01*
X143918876Y-113787915D01*
X143825891Y-113880900D01*
X143667685Y-113880900D01*
X143478757Y-113918480D01*
X143300790Y-113992196D01*
X143254000Y-114023460D01*
X143254000Y-103797554D01*
X143360604Y-103638010D01*
X143434320Y-103460043D01*
X143471900Y-103271115D01*
X143471900Y-103078485D01*
X143434320Y-102889557D01*
X143360604Y-102711590D01*
X143253585Y-102551425D01*
X143117375Y-102415215D01*
X142957210Y-102308196D01*
X142779243Y-102234480D01*
X142590315Y-102196900D01*
X142494000Y-102196900D01*
X142494000Y-100445420D01*
X142475623Y-100258837D01*
X142403003Y-100019441D01*
X142285075Y-99798812D01*
X142126370Y-99605430D01*
X141932987Y-99446725D01*
X141712358Y-99328797D01*
X141472962Y-99256177D01*
X141224000Y-99231656D01*
X140975037Y-99256177D01*
X140735641Y-99328797D01*
X140515012Y-99446725D01*
X140321630Y-99605430D01*
X140162925Y-99798813D01*
X140044997Y-100019442D01*
X139972377Y-100258838D01*
X139954000Y-100445421D01*
X139954001Y-108624143D01*
X139952000Y-108624972D01*
X139952000Y-98590554D01*
X140058604Y-98431010D01*
X140132320Y-98253043D01*
X140169900Y-98064115D01*
X140169900Y-97871485D01*
X140132320Y-97682557D01*
X140058604Y-97504590D01*
X139951585Y-97344425D01*
X139815375Y-97208215D01*
X139655210Y-97101196D01*
X139477243Y-97027480D01*
X139350106Y-97002191D01*
X139360072Y-96901000D01*
X139360072Y-95681800D01*
X140601092Y-95681800D01*
X140622709Y-95753063D01*
G36*
X83143928Y-96901000D02*
G01*
X83156188Y-97025482D01*
X83192498Y-97145180D01*
X83251463Y-97255494D01*
X83312000Y-97329259D01*
X83312000Y-98284179D01*
X83318928Y-98354519D01*
X83318928Y-98971800D01*
X83331188Y-99096282D01*
X83367498Y-99215980D01*
X83426463Y-99326294D01*
X83505815Y-99422985D01*
X83565296Y-99471800D01*
X83505815Y-99520615D01*
X83426463Y-99617306D01*
X83367498Y-99727620D01*
X83331188Y-99847318D01*
X83318928Y-99971800D01*
X83318928Y-100375081D01*
X83312000Y-100445421D01*
X83312001Y-122924411D01*
X83312000Y-122924421D01*
X83312001Y-137845800D01*
X82943700Y-137845800D01*
X82943700Y-136302809D01*
X82946833Y-136271000D01*
X82934327Y-136144029D01*
X82897291Y-136021937D01*
X82837148Y-135909417D01*
X82756208Y-135810792D01*
X82657583Y-135729852D01*
X82545063Y-135669709D01*
X82422971Y-135632673D01*
X82327809Y-135623300D01*
X82327808Y-135623300D01*
X82296000Y-135620167D01*
X82264191Y-135623300D01*
X80361010Y-135623300D01*
X80422243Y-135611120D01*
X80600210Y-135537404D01*
X80760375Y-135430385D01*
X80896585Y-135294175D01*
X81003604Y-135134010D01*
X81077320Y-134956043D01*
X81114900Y-134767115D01*
X81114900Y-134574485D01*
X81077320Y-134385557D01*
X81003604Y-134207590D01*
X80896585Y-134047425D01*
X80770000Y-133920840D01*
X80770000Y-113576554D01*
X80876604Y-113417010D01*
X80950320Y-113239043D01*
X80987900Y-113050115D01*
X80987900Y-112857485D01*
X80950320Y-112668557D01*
X80876604Y-112490590D01*
X80769585Y-112330425D01*
X80633375Y-112194215D01*
X80473210Y-112087196D01*
X80295243Y-112013480D01*
X80106315Y-111975900D01*
X79913685Y-111975900D01*
X79724757Y-112013480D01*
X79546790Y-112087196D01*
X79386625Y-112194215D01*
X79250415Y-112330425D01*
X79143396Y-112490590D01*
X79069680Y-112668557D01*
X79032100Y-112857485D01*
X79032100Y-113050115D01*
X79069680Y-113239043D01*
X79143396Y-113417010D01*
X79250000Y-113576554D01*
X79250001Y-134256828D01*
X79196680Y-134385557D01*
X79159100Y-134574485D01*
X79159100Y-134767115D01*
X79196680Y-134956043D01*
X79270396Y-135134010D01*
X79377415Y-135294175D01*
X79513625Y-135430385D01*
X79673790Y-135537404D01*
X79851757Y-135611120D01*
X79912990Y-135623300D01*
X75469809Y-135623300D01*
X75438000Y-135620167D01*
X75406192Y-135623300D01*
X75406191Y-135623300D01*
X75311029Y-135632673D01*
X75188937Y-135669709D01*
X75076417Y-135729852D01*
X74977792Y-135810792D01*
X74896852Y-135909417D01*
X74836709Y-136021937D01*
X74799673Y-136144029D01*
X74787167Y-136271000D01*
X74790301Y-136302819D01*
X74790300Y-144513300D01*
X61480700Y-144513300D01*
X61480700Y-141086000D01*
X63612928Y-141086000D01*
X63612928Y-142886000D01*
X63625188Y-143010482D01*
X63661498Y-143130180D01*
X63720463Y-143240494D01*
X63799815Y-143337185D01*
X63896506Y-143416537D01*
X64006820Y-143475502D01*
X64126518Y-143511812D01*
X64251000Y-143524072D01*
X66051000Y-143524072D01*
X66175482Y-143511812D01*
X66295180Y-143475502D01*
X66405494Y-143416537D01*
X66502185Y-143337185D01*
X66581537Y-143240494D01*
X66640502Y-143130180D01*
X66676812Y-143010482D01*
X66689072Y-142886000D01*
X66689072Y-141086000D01*
X66676812Y-140961518D01*
X66640502Y-140841820D01*
X66581537Y-140731506D01*
X66502185Y-140634815D01*
X66405494Y-140555463D01*
X66295180Y-140496498D01*
X66276873Y-140490944D01*
X66343312Y-140424505D01*
X66511299Y-140173095D01*
X66627011Y-139893743D01*
X66686000Y-139597184D01*
X66686000Y-139294816D01*
X66627011Y-138998257D01*
X66511299Y-138718905D01*
X66343312Y-138467495D01*
X66129505Y-138253688D01*
X65878095Y-138085701D01*
X65598743Y-137969989D01*
X65302184Y-137911000D01*
X64999816Y-137911000D01*
X64703257Y-137969989D01*
X64423905Y-138085701D01*
X64172495Y-138253688D01*
X63958688Y-138467495D01*
X63790701Y-138718905D01*
X63674989Y-138998257D01*
X63616000Y-139294816D01*
X63616000Y-139597184D01*
X63674989Y-139893743D01*
X63790701Y-140173095D01*
X63958688Y-140424505D01*
X64025127Y-140490944D01*
X64006820Y-140496498D01*
X63896506Y-140555463D01*
X63799815Y-140634815D01*
X63720463Y-140731506D01*
X63661498Y-140841820D01*
X63625188Y-140961518D01*
X63612928Y-141086000D01*
X61480700Y-141086000D01*
X61480700Y-115474540D01*
X66333000Y-115474540D01*
X66333000Y-115767060D01*
X66390068Y-116053958D01*
X66502010Y-116324211D01*
X66664525Y-116567432D01*
X66871368Y-116774275D01*
X67045760Y-116890800D01*
X66871368Y-117007325D01*
X66664525Y-117214168D01*
X66502010Y-117457389D01*
X66390068Y-117727642D01*
X66333000Y-118014540D01*
X66333000Y-118307060D01*
X66390068Y-118593958D01*
X66502010Y-118864211D01*
X66664525Y-119107432D01*
X66871368Y-119314275D01*
X67114589Y-119476790D01*
X67384842Y-119588732D01*
X67671740Y-119645800D01*
X67964260Y-119645800D01*
X68251158Y-119588732D01*
X68521411Y-119476790D01*
X68764632Y-119314275D01*
X68971475Y-119107432D01*
X69088000Y-118933040D01*
X69204525Y-119107432D01*
X69411368Y-119314275D01*
X69654589Y-119476790D01*
X69924842Y-119588732D01*
X70211740Y-119645800D01*
X70504260Y-119645800D01*
X70791158Y-119588732D01*
X71061411Y-119476790D01*
X71304632Y-119314275D01*
X71511475Y-119107432D01*
X71628000Y-118933040D01*
X71744525Y-119107432D01*
X71951368Y-119314275D01*
X72194589Y-119476790D01*
X72464842Y-119588732D01*
X72751740Y-119645800D01*
X73044260Y-119645800D01*
X73331158Y-119588732D01*
X73601411Y-119476790D01*
X73844632Y-119314275D01*
X74051475Y-119107432D01*
X74168000Y-118933040D01*
X74284525Y-119107432D01*
X74491368Y-119314275D01*
X74734589Y-119476790D01*
X75004842Y-119588732D01*
X75291740Y-119645800D01*
X75584260Y-119645800D01*
X75871158Y-119588732D01*
X76141411Y-119476790D01*
X76384632Y-119314275D01*
X76591475Y-119107432D01*
X76753990Y-118864211D01*
X76865932Y-118593958D01*
X76923000Y-118307060D01*
X76923000Y-118014540D01*
X76865932Y-117727642D01*
X76753990Y-117457389D01*
X76591475Y-117214168D01*
X76459620Y-117082313D01*
X76532180Y-117060302D01*
X76642494Y-117001337D01*
X76739185Y-116921985D01*
X76818537Y-116825294D01*
X76877502Y-116714980D01*
X76913812Y-116595282D01*
X76926072Y-116470800D01*
X76926072Y-114770800D01*
X76913812Y-114646318D01*
X76877502Y-114526620D01*
X76818537Y-114416306D01*
X76739185Y-114319615D01*
X76642494Y-114240263D01*
X76532180Y-114181298D01*
X76412482Y-114144988D01*
X76288000Y-114132728D01*
X74588000Y-114132728D01*
X74463518Y-114144988D01*
X74343820Y-114181298D01*
X74233506Y-114240263D01*
X74136815Y-114319615D01*
X74057463Y-114416306D01*
X73998498Y-114526620D01*
X73976487Y-114599180D01*
X73844632Y-114467325D01*
X73601411Y-114304810D01*
X73331158Y-114192868D01*
X73044260Y-114135800D01*
X72751740Y-114135800D01*
X72464842Y-114192868D01*
X72194589Y-114304810D01*
X71951368Y-114467325D01*
X71744525Y-114674168D01*
X71628000Y-114848560D01*
X71511475Y-114674168D01*
X71304632Y-114467325D01*
X71061411Y-114304810D01*
X70791158Y-114192868D01*
X70504260Y-114135800D01*
X70211740Y-114135800D01*
X69924842Y-114192868D01*
X69654589Y-114304810D01*
X69411368Y-114467325D01*
X69204525Y-114674168D01*
X69088000Y-114848560D01*
X68971475Y-114674168D01*
X68764632Y-114467325D01*
X68521411Y-114304810D01*
X68251158Y-114192868D01*
X67964260Y-114135800D01*
X67671740Y-114135800D01*
X67384842Y-114192868D01*
X67114589Y-114304810D01*
X66871368Y-114467325D01*
X66664525Y-114674168D01*
X66502010Y-114917389D01*
X66390068Y-115187642D01*
X66333000Y-115474540D01*
X61480700Y-115474540D01*
X61480700Y-106507485D01*
X81064100Y-106507485D01*
X81064100Y-106700115D01*
X81101680Y-106889043D01*
X81153000Y-107012941D01*
X81153000Y-107045067D01*
X81153001Y-111528657D01*
X81101680Y-111652557D01*
X81064100Y-111841485D01*
X81064100Y-112034115D01*
X81101680Y-112223043D01*
X81153000Y-112346941D01*
X81153001Y-115084657D01*
X81101680Y-115208557D01*
X81064100Y-115397485D01*
X81064100Y-115590115D01*
X81101680Y-115779043D01*
X81153000Y-115902941D01*
X81153001Y-126895657D01*
X81101680Y-127019557D01*
X81064100Y-127208485D01*
X81064100Y-127401115D01*
X81101680Y-127590043D01*
X81175396Y-127768010D01*
X81282415Y-127928175D01*
X81418625Y-128064385D01*
X81578790Y-128171404D01*
X81756757Y-128245120D01*
X81945685Y-128282700D01*
X82138315Y-128282700D01*
X82327243Y-128245120D01*
X82505210Y-128171404D01*
X82665375Y-128064385D01*
X82801585Y-127928175D01*
X82908604Y-127768010D01*
X82982320Y-127590043D01*
X83019900Y-127401115D01*
X83019900Y-127208485D01*
X82982320Y-127019557D01*
X82931000Y-126895659D01*
X82931000Y-115902941D01*
X82982320Y-115779043D01*
X83019900Y-115590115D01*
X83019900Y-115397485D01*
X82982320Y-115208557D01*
X82931000Y-115084659D01*
X82931000Y-112346941D01*
X82982320Y-112223043D01*
X83019900Y-112034115D01*
X83019900Y-111841485D01*
X82982320Y-111652557D01*
X82931000Y-111528659D01*
X82931000Y-107012941D01*
X82982320Y-106889043D01*
X83019900Y-106700115D01*
X83019900Y-106507485D01*
X82982320Y-106318557D01*
X82908604Y-106140590D01*
X82801585Y-105980425D01*
X82665375Y-105844215D01*
X82505210Y-105737196D01*
X82327243Y-105663480D01*
X82138315Y-105625900D01*
X81945685Y-105625900D01*
X81756757Y-105663480D01*
X81578790Y-105737196D01*
X81418625Y-105844215D01*
X81282415Y-105980425D01*
X81175396Y-106140590D01*
X81101680Y-106318557D01*
X81064100Y-106507485D01*
X61480700Y-106507485D01*
X61480700Y-100990400D01*
X64919328Y-100990400D01*
X64919328Y-102717600D01*
X64931588Y-102842082D01*
X64967898Y-102961780D01*
X65026863Y-103072094D01*
X65106215Y-103168785D01*
X65202906Y-103248137D01*
X65313220Y-103307102D01*
X65432918Y-103343412D01*
X65557400Y-103355672D01*
X67284600Y-103355672D01*
X67409082Y-103343412D01*
X67528780Y-103307102D01*
X67639094Y-103248137D01*
X67735785Y-103168785D01*
X67815137Y-103072094D01*
X67874102Y-102961780D01*
X67891636Y-102903977D01*
X68005698Y-103018039D01*
X68251147Y-103182042D01*
X68523875Y-103295010D01*
X68813401Y-103352600D01*
X69108599Y-103352600D01*
X69398125Y-103295010D01*
X69670853Y-103182042D01*
X69916302Y-103018039D01*
X70125039Y-102809302D01*
X70231000Y-102650719D01*
X70336961Y-102809302D01*
X70545698Y-103018039D01*
X70791147Y-103182042D01*
X71063875Y-103295010D01*
X71353401Y-103352600D01*
X71648599Y-103352600D01*
X71938125Y-103295010D01*
X72210853Y-103182042D01*
X72456302Y-103018039D01*
X72665039Y-102809302D01*
X72771000Y-102650719D01*
X72876961Y-102809302D01*
X73085698Y-103018039D01*
X73331147Y-103182042D01*
X73603875Y-103295010D01*
X73893401Y-103352600D01*
X74188599Y-103352600D01*
X74478125Y-103295010D01*
X74750853Y-103182042D01*
X74996302Y-103018039D01*
X75205039Y-102809302D01*
X75311000Y-102650719D01*
X75416961Y-102809302D01*
X75625698Y-103018039D01*
X75871147Y-103182042D01*
X76143875Y-103295010D01*
X76433401Y-103352600D01*
X76728599Y-103352600D01*
X77018125Y-103295010D01*
X77290853Y-103182042D01*
X77536302Y-103018039D01*
X77745039Y-102809302D01*
X77909042Y-102563853D01*
X78022010Y-102291125D01*
X78079600Y-102001599D01*
X78079600Y-101706401D01*
X78022010Y-101416875D01*
X77909042Y-101144147D01*
X77745039Y-100898698D01*
X77536302Y-100689961D01*
X77370897Y-100579441D01*
X77469488Y-100520817D01*
X77687854Y-100324293D01*
X77863684Y-100088944D01*
X77990222Y-99823814D01*
X78035958Y-99673026D01*
X77914817Y-99441000D01*
X76708000Y-99441000D01*
X76708000Y-99461000D01*
X76454000Y-99461000D01*
X76454000Y-99441000D01*
X76434000Y-99441000D01*
X76434000Y-99187000D01*
X76454000Y-99187000D01*
X76454000Y-97979536D01*
X76708000Y-97979536D01*
X76708000Y-99187000D01*
X77914817Y-99187000D01*
X78035958Y-98954974D01*
X77990222Y-98804186D01*
X77863684Y-98539056D01*
X77687854Y-98303707D01*
X77469488Y-98107183D01*
X77216978Y-97957036D01*
X76940027Y-97859037D01*
X76708000Y-97979536D01*
X76454000Y-97979536D01*
X76221973Y-97859037D01*
X75945022Y-97957036D01*
X75692512Y-98107183D01*
X75474146Y-98303707D01*
X75312692Y-98519813D01*
X75205039Y-98358698D01*
X74996302Y-98149961D01*
X74750853Y-97985958D01*
X74478125Y-97872990D01*
X74188599Y-97815400D01*
X73893401Y-97815400D01*
X73603875Y-97872990D01*
X73331147Y-97985958D01*
X73085698Y-98149961D01*
X72876961Y-98358698D01*
X72771000Y-98517281D01*
X72665039Y-98358698D01*
X72456302Y-98149961D01*
X72210853Y-97985958D01*
X71938125Y-97872990D01*
X71648599Y-97815400D01*
X71353401Y-97815400D01*
X71063875Y-97872990D01*
X70791147Y-97985958D01*
X70545698Y-98149961D01*
X70336961Y-98358698D01*
X70231000Y-98517281D01*
X70125039Y-98358698D01*
X69916302Y-98149961D01*
X69670853Y-97985958D01*
X69398125Y-97872990D01*
X69108599Y-97815400D01*
X68813401Y-97815400D01*
X68523875Y-97872990D01*
X68251147Y-97985958D01*
X68005698Y-98149961D01*
X67796961Y-98358698D01*
X67689308Y-98519813D01*
X67527854Y-98303707D01*
X67309488Y-98107183D01*
X67056978Y-97957036D01*
X66780027Y-97859037D01*
X66548000Y-97979536D01*
X66548000Y-99187000D01*
X66568000Y-99187000D01*
X66568000Y-99441000D01*
X66548000Y-99441000D01*
X66548000Y-99461000D01*
X66294000Y-99461000D01*
X66294000Y-99441000D01*
X65087183Y-99441000D01*
X64966042Y-99673026D01*
X65011778Y-99823814D01*
X65138316Y-100088944D01*
X65314146Y-100324293D01*
X65377574Y-100381376D01*
X65313220Y-100400898D01*
X65202906Y-100459863D01*
X65106215Y-100539215D01*
X65026863Y-100635906D01*
X64967898Y-100746220D01*
X64931588Y-100865918D01*
X64919328Y-100990400D01*
X61480700Y-100990400D01*
X61480700Y-98954974D01*
X64966042Y-98954974D01*
X65087183Y-99187000D01*
X66294000Y-99187000D01*
X66294000Y-97979536D01*
X66061973Y-97859037D01*
X65785022Y-97957036D01*
X65532512Y-98107183D01*
X65314146Y-98303707D01*
X65138316Y-98539056D01*
X65011778Y-98804186D01*
X64966042Y-98954974D01*
X61480700Y-98954974D01*
X61480700Y-96151700D01*
X81248191Y-96151700D01*
X81280000Y-96154833D01*
X81311808Y-96151700D01*
X81311809Y-96151700D01*
X81406971Y-96142327D01*
X81529063Y-96105291D01*
X81641583Y-96045148D01*
X81740208Y-95964208D01*
X81821148Y-95865583D01*
X81881291Y-95753063D01*
X81902908Y-95681800D01*
X83143928Y-95681800D01*
X83143928Y-96901000D01*
G37*
X83143928Y-96901000D02*
X83156188Y-97025482D01*
X83192498Y-97145180D01*
X83251463Y-97255494D01*
X83312000Y-97329259D01*
X83312000Y-98284179D01*
X83318928Y-98354519D01*
X83318928Y-98971800D01*
X83331188Y-99096282D01*
X83367498Y-99215980D01*
X83426463Y-99326294D01*
X83505815Y-99422985D01*
X83565296Y-99471800D01*
X83505815Y-99520615D01*
X83426463Y-99617306D01*
X83367498Y-99727620D01*
X83331188Y-99847318D01*
X83318928Y-99971800D01*
X83318928Y-100375081D01*
X83312000Y-100445421D01*
X83312001Y-122924411D01*
X83312000Y-122924421D01*
X83312001Y-137845800D01*
X82943700Y-137845800D01*
X82943700Y-136302809D01*
X82946833Y-136271000D01*
X82934327Y-136144029D01*
X82897291Y-136021937D01*
X82837148Y-135909417D01*
X82756208Y-135810792D01*
X82657583Y-135729852D01*
X82545063Y-135669709D01*
X82422971Y-135632673D01*
X82327809Y-135623300D01*
X82327808Y-135623300D01*
X82296000Y-135620167D01*
X82264191Y-135623300D01*
X80361010Y-135623300D01*
X80422243Y-135611120D01*
X80600210Y-135537404D01*
X80760375Y-135430385D01*
X80896585Y-135294175D01*
X81003604Y-135134010D01*
X81077320Y-134956043D01*
X81114900Y-134767115D01*
X81114900Y-134574485D01*
X81077320Y-134385557D01*
X81003604Y-134207590D01*
X80896585Y-134047425D01*
X80770000Y-133920840D01*
X80770000Y-113576554D01*
X80876604Y-113417010D01*
X80950320Y-113239043D01*
X80987900Y-113050115D01*
X80987900Y-112857485D01*
X80950320Y-112668557D01*
X80876604Y-112490590D01*
X80769585Y-112330425D01*
X80633375Y-112194215D01*
X80473210Y-112087196D01*
X80295243Y-112013480D01*
X80106315Y-111975900D01*
X79913685Y-111975900D01*
X79724757Y-112013480D01*
X79546790Y-112087196D01*
X79386625Y-112194215D01*
X79250415Y-112330425D01*
X79143396Y-112490590D01*
X79069680Y-112668557D01*
X79032100Y-112857485D01*
X79032100Y-113050115D01*
X79069680Y-113239043D01*
X79143396Y-113417010D01*
X79250000Y-113576554D01*
X79250001Y-134256828D01*
X79196680Y-134385557D01*
X79159100Y-134574485D01*
X79159100Y-134767115D01*
X79196680Y-134956043D01*
X79270396Y-135134010D01*
X79377415Y-135294175D01*
X79513625Y-135430385D01*
X79673790Y-135537404D01*
X79851757Y-135611120D01*
X79912990Y-135623300D01*
X75469809Y-135623300D01*
X75438000Y-135620167D01*
X75406192Y-135623300D01*
X75406191Y-135623300D01*
X75311029Y-135632673D01*
X75188937Y-135669709D01*
X75076417Y-135729852D01*
X74977792Y-135810792D01*
X74896852Y-135909417D01*
X74836709Y-136021937D01*
X74799673Y-136144029D01*
X74787167Y-136271000D01*
X74790301Y-136302819D01*
X74790300Y-144513300D01*
X61480700Y-144513300D01*
X61480700Y-141086000D01*
X63612928Y-141086000D01*
X63612928Y-142886000D01*
X63625188Y-143010482D01*
X63661498Y-143130180D01*
X63720463Y-143240494D01*
X63799815Y-143337185D01*
X63896506Y-143416537D01*
X64006820Y-143475502D01*
X64126518Y-143511812D01*
X64251000Y-143524072D01*
X66051000Y-143524072D01*
X66175482Y-143511812D01*
X66295180Y-143475502D01*
X66405494Y-143416537D01*
X66502185Y-143337185D01*
X66581537Y-143240494D01*
X66640502Y-143130180D01*
X66676812Y-143010482D01*
X66689072Y-142886000D01*
X66689072Y-141086000D01*
X66676812Y-140961518D01*
X66640502Y-140841820D01*
X66581537Y-140731506D01*
X66502185Y-140634815D01*
X66405494Y-140555463D01*
X66295180Y-140496498D01*
X66276873Y-140490944D01*
X66343312Y-140424505D01*
X66511299Y-140173095D01*
X66627011Y-139893743D01*
X66686000Y-139597184D01*
X66686000Y-139294816D01*
X66627011Y-138998257D01*
X66511299Y-138718905D01*
X66343312Y-138467495D01*
X66129505Y-138253688D01*
X65878095Y-138085701D01*
X65598743Y-137969989D01*
X65302184Y-137911000D01*
X64999816Y-137911000D01*
X64703257Y-137969989D01*
X64423905Y-138085701D01*
X64172495Y-138253688D01*
X63958688Y-138467495D01*
X63790701Y-138718905D01*
X63674989Y-138998257D01*
X63616000Y-139294816D01*
X63616000Y-139597184D01*
X63674989Y-139893743D01*
X63790701Y-140173095D01*
X63958688Y-140424505D01*
X64025127Y-140490944D01*
X64006820Y-140496498D01*
X63896506Y-140555463D01*
X63799815Y-140634815D01*
X63720463Y-140731506D01*
X63661498Y-140841820D01*
X63625188Y-140961518D01*
X63612928Y-141086000D01*
X61480700Y-141086000D01*
X61480700Y-115474540D01*
X66333000Y-115474540D01*
X66333000Y-115767060D01*
X66390068Y-116053958D01*
X66502010Y-116324211D01*
X66664525Y-116567432D01*
X66871368Y-116774275D01*
X67045760Y-116890800D01*
X66871368Y-117007325D01*
X66664525Y-117214168D01*
X66502010Y-117457389D01*
X66390068Y-117727642D01*
X66333000Y-118014540D01*
X66333000Y-118307060D01*
X66390068Y-118593958D01*
X66502010Y-118864211D01*
X66664525Y-119107432D01*
X66871368Y-119314275D01*
X67114589Y-119476790D01*
X67384842Y-119588732D01*
X67671740Y-119645800D01*
X67964260Y-119645800D01*
X68251158Y-119588732D01*
X68521411Y-119476790D01*
X68764632Y-119314275D01*
X68971475Y-119107432D01*
X69088000Y-118933040D01*
X69204525Y-119107432D01*
X69411368Y-119314275D01*
X69654589Y-119476790D01*
X69924842Y-119588732D01*
X70211740Y-119645800D01*
X70504260Y-119645800D01*
X70791158Y-119588732D01*
X71061411Y-119476790D01*
X71304632Y-119314275D01*
X71511475Y-119107432D01*
X71628000Y-118933040D01*
X71744525Y-119107432D01*
X71951368Y-119314275D01*
X72194589Y-119476790D01*
X72464842Y-119588732D01*
X72751740Y-119645800D01*
X73044260Y-119645800D01*
X73331158Y-119588732D01*
X73601411Y-119476790D01*
X73844632Y-119314275D01*
X74051475Y-119107432D01*
X74168000Y-118933040D01*
X74284525Y-119107432D01*
X74491368Y-119314275D01*
X74734589Y-119476790D01*
X75004842Y-119588732D01*
X75291740Y-119645800D01*
X75584260Y-119645800D01*
X75871158Y-119588732D01*
X76141411Y-119476790D01*
X76384632Y-119314275D01*
X76591475Y-119107432D01*
X76753990Y-118864211D01*
X76865932Y-118593958D01*
X76923000Y-118307060D01*
X76923000Y-118014540D01*
X76865932Y-117727642D01*
X76753990Y-117457389D01*
X76591475Y-117214168D01*
X76459620Y-117082313D01*
X76532180Y-117060302D01*
X76642494Y-117001337D01*
X76739185Y-116921985D01*
X76818537Y-116825294D01*
X76877502Y-116714980D01*
X76913812Y-116595282D01*
X76926072Y-116470800D01*
X76926072Y-114770800D01*
X76913812Y-114646318D01*
X76877502Y-114526620D01*
X76818537Y-114416306D01*
X76739185Y-114319615D01*
X76642494Y-114240263D01*
X76532180Y-114181298D01*
X76412482Y-114144988D01*
X76288000Y-114132728D01*
X74588000Y-114132728D01*
X74463518Y-114144988D01*
X74343820Y-114181298D01*
X74233506Y-114240263D01*
X74136815Y-114319615D01*
X74057463Y-114416306D01*
X73998498Y-114526620D01*
X73976487Y-114599180D01*
X73844632Y-114467325D01*
X73601411Y-114304810D01*
X73331158Y-114192868D01*
X73044260Y-114135800D01*
X72751740Y-114135800D01*
X72464842Y-114192868D01*
X72194589Y-114304810D01*
X71951368Y-114467325D01*
X71744525Y-114674168D01*
X71628000Y-114848560D01*
X71511475Y-114674168D01*
X71304632Y-114467325D01*
X71061411Y-114304810D01*
X70791158Y-114192868D01*
X70504260Y-114135800D01*
X70211740Y-114135800D01*
X69924842Y-114192868D01*
X69654589Y-114304810D01*
X69411368Y-114467325D01*
X69204525Y-114674168D01*
X69088000Y-114848560D01*
X68971475Y-114674168D01*
X68764632Y-114467325D01*
X68521411Y-114304810D01*
X68251158Y-114192868D01*
X67964260Y-114135800D01*
X67671740Y-114135800D01*
X67384842Y-114192868D01*
X67114589Y-114304810D01*
X66871368Y-114467325D01*
X66664525Y-114674168D01*
X66502010Y-114917389D01*
X66390068Y-115187642D01*
X66333000Y-115474540D01*
X61480700Y-115474540D01*
X61480700Y-106507485D01*
X81064100Y-106507485D01*
X81064100Y-106700115D01*
X81101680Y-106889043D01*
X81153000Y-107012941D01*
X81153000Y-107045067D01*
X81153001Y-111528657D01*
X81101680Y-111652557D01*
X81064100Y-111841485D01*
X81064100Y-112034115D01*
X81101680Y-112223043D01*
X81153000Y-112346941D01*
X81153001Y-115084657D01*
X81101680Y-115208557D01*
X81064100Y-115397485D01*
X81064100Y-115590115D01*
X81101680Y-115779043D01*
X81153000Y-115902941D01*
X81153001Y-126895657D01*
X81101680Y-127019557D01*
X81064100Y-127208485D01*
X81064100Y-127401115D01*
X81101680Y-127590043D01*
X81175396Y-127768010D01*
X81282415Y-127928175D01*
X81418625Y-128064385D01*
X81578790Y-128171404D01*
X81756757Y-128245120D01*
X81945685Y-128282700D01*
X82138315Y-128282700D01*
X82327243Y-128245120D01*
X82505210Y-128171404D01*
X82665375Y-128064385D01*
X82801585Y-127928175D01*
X82908604Y-127768010D01*
X82982320Y-127590043D01*
X83019900Y-127401115D01*
X83019900Y-127208485D01*
X82982320Y-127019557D01*
X82931000Y-126895659D01*
X82931000Y-115902941D01*
X82982320Y-115779043D01*
X83019900Y-115590115D01*
X83019900Y-115397485D01*
X82982320Y-115208557D01*
X82931000Y-115084659D01*
X82931000Y-112346941D01*
X82982320Y-112223043D01*
X83019900Y-112034115D01*
X83019900Y-111841485D01*
X82982320Y-111652557D01*
X82931000Y-111528659D01*
X82931000Y-107012941D01*
X82982320Y-106889043D01*
X83019900Y-106700115D01*
X83019900Y-106507485D01*
X82982320Y-106318557D01*
X82908604Y-106140590D01*
X82801585Y-105980425D01*
X82665375Y-105844215D01*
X82505210Y-105737196D01*
X82327243Y-105663480D01*
X82138315Y-105625900D01*
X81945685Y-105625900D01*
X81756757Y-105663480D01*
X81578790Y-105737196D01*
X81418625Y-105844215D01*
X81282415Y-105980425D01*
X81175396Y-106140590D01*
X81101680Y-106318557D01*
X81064100Y-106507485D01*
X61480700Y-106507485D01*
X61480700Y-100990400D01*
X64919328Y-100990400D01*
X64919328Y-102717600D01*
X64931588Y-102842082D01*
X64967898Y-102961780D01*
X65026863Y-103072094D01*
X65106215Y-103168785D01*
X65202906Y-103248137D01*
X65313220Y-103307102D01*
X65432918Y-103343412D01*
X65557400Y-103355672D01*
X67284600Y-103355672D01*
X67409082Y-103343412D01*
X67528780Y-103307102D01*
X67639094Y-103248137D01*
X67735785Y-103168785D01*
X67815137Y-103072094D01*
X67874102Y-102961780D01*
X67891636Y-102903977D01*
X68005698Y-103018039D01*
X68251147Y-103182042D01*
X68523875Y-103295010D01*
X68813401Y-103352600D01*
X69108599Y-103352600D01*
X69398125Y-103295010D01*
X69670853Y-103182042D01*
X69916302Y-103018039D01*
X70125039Y-102809302D01*
X70231000Y-102650719D01*
X70336961Y-102809302D01*
X70545698Y-103018039D01*
X70791147Y-103182042D01*
X71063875Y-103295010D01*
X71353401Y-103352600D01*
X71648599Y-103352600D01*
X71938125Y-103295010D01*
X72210853Y-103182042D01*
X72456302Y-103018039D01*
X72665039Y-102809302D01*
X72771000Y-102650719D01*
X72876961Y-102809302D01*
X73085698Y-103018039D01*
X73331147Y-103182042D01*
X73603875Y-103295010D01*
X73893401Y-103352600D01*
X74188599Y-103352600D01*
X74478125Y-103295010D01*
X74750853Y-103182042D01*
X74996302Y-103018039D01*
X75205039Y-102809302D01*
X75311000Y-102650719D01*
X75416961Y-102809302D01*
X75625698Y-103018039D01*
X75871147Y-103182042D01*
X76143875Y-103295010D01*
X76433401Y-103352600D01*
X76728599Y-103352600D01*
X77018125Y-103295010D01*
X77290853Y-103182042D01*
X77536302Y-103018039D01*
X77745039Y-102809302D01*
X77909042Y-102563853D01*
X78022010Y-102291125D01*
X78079600Y-102001599D01*
X78079600Y-101706401D01*
X78022010Y-101416875D01*
X77909042Y-101144147D01*
X77745039Y-100898698D01*
X77536302Y-100689961D01*
X77370897Y-100579441D01*
X77469488Y-100520817D01*
X77687854Y-100324293D01*
X77863684Y-100088944D01*
X77990222Y-99823814D01*
X78035958Y-99673026D01*
X77914817Y-99441000D01*
X76708000Y-99441000D01*
X76708000Y-99461000D01*
X76454000Y-99461000D01*
X76454000Y-99441000D01*
X76434000Y-99441000D01*
X76434000Y-99187000D01*
X76454000Y-99187000D01*
X76454000Y-97979536D01*
X76708000Y-97979536D01*
X76708000Y-99187000D01*
X77914817Y-99187000D01*
X78035958Y-98954974D01*
X77990222Y-98804186D01*
X77863684Y-98539056D01*
X77687854Y-98303707D01*
X77469488Y-98107183D01*
X77216978Y-97957036D01*
X76940027Y-97859037D01*
X76708000Y-97979536D01*
X76454000Y-97979536D01*
X76221973Y-97859037D01*
X75945022Y-97957036D01*
X75692512Y-98107183D01*
X75474146Y-98303707D01*
X75312692Y-98519813D01*
X75205039Y-98358698D01*
X74996302Y-98149961D01*
X74750853Y-97985958D01*
X74478125Y-97872990D01*
X74188599Y-97815400D01*
X73893401Y-97815400D01*
X73603875Y-97872990D01*
X73331147Y-97985958D01*
X73085698Y-98149961D01*
X72876961Y-98358698D01*
X72771000Y-98517281D01*
X72665039Y-98358698D01*
X72456302Y-98149961D01*
X72210853Y-97985958D01*
X71938125Y-97872990D01*
X71648599Y-97815400D01*
X71353401Y-97815400D01*
X71063875Y-97872990D01*
X70791147Y-97985958D01*
X70545698Y-98149961D01*
X70336961Y-98358698D01*
X70231000Y-98517281D01*
X70125039Y-98358698D01*
X69916302Y-98149961D01*
X69670853Y-97985958D01*
X69398125Y-97872990D01*
X69108599Y-97815400D01*
X68813401Y-97815400D01*
X68523875Y-97872990D01*
X68251147Y-97985958D01*
X68005698Y-98149961D01*
X67796961Y-98358698D01*
X67689308Y-98519813D01*
X67527854Y-98303707D01*
X67309488Y-98107183D01*
X67056978Y-97957036D01*
X66780027Y-97859037D01*
X66548000Y-97979536D01*
X66548000Y-99187000D01*
X66568000Y-99187000D01*
X66568000Y-99441000D01*
X66548000Y-99441000D01*
X66548000Y-99461000D01*
X66294000Y-99461000D01*
X66294000Y-99441000D01*
X65087183Y-99441000D01*
X64966042Y-99673026D01*
X65011778Y-99823814D01*
X65138316Y-100088944D01*
X65314146Y-100324293D01*
X65377574Y-100381376D01*
X65313220Y-100400898D01*
X65202906Y-100459863D01*
X65106215Y-100539215D01*
X65026863Y-100635906D01*
X64967898Y-100746220D01*
X64931588Y-100865918D01*
X64919328Y-100990400D01*
X61480700Y-100990400D01*
X61480700Y-98954974D01*
X64966042Y-98954974D01*
X65087183Y-99187000D01*
X66294000Y-99187000D01*
X66294000Y-97979536D01*
X66061973Y-97859037D01*
X65785022Y-97957036D01*
X65532512Y-98107183D01*
X65314146Y-98303707D01*
X65138316Y-98539056D01*
X65011778Y-98804186D01*
X64966042Y-98954974D01*
X61480700Y-98954974D01*
X61480700Y-96151700D01*
X81248191Y-96151700D01*
X81280000Y-96154833D01*
X81311808Y-96151700D01*
X81311809Y-96151700D01*
X81406971Y-96142327D01*
X81529063Y-96105291D01*
X81641583Y-96045148D01*
X81740208Y-95964208D01*
X81821148Y-95865583D01*
X81881291Y-95753063D01*
X81902908Y-95681800D01*
X83143928Y-95681800D01*
X83143928Y-96901000D01*
G36*
X113810815Y-97352185D02*
G01*
X113907506Y-97431537D01*
X114017820Y-97490502D01*
X114137518Y-97526812D01*
X114184284Y-97531418D01*
X114121680Y-97682557D01*
X114084100Y-97871485D01*
X114084100Y-98064115D01*
X114121680Y-98253043D01*
X114195396Y-98431010D01*
X114302000Y-98590554D01*
X114302000Y-98819468D01*
X114302001Y-100597458D01*
X114302000Y-100597468D01*
X114302001Y-101917045D01*
X114195396Y-102076590D01*
X114121680Y-102254557D01*
X114084100Y-102443485D01*
X114084100Y-102636115D01*
X114121680Y-102825043D01*
X114195396Y-103003010D01*
X114302000Y-103162554D01*
X114302001Y-129349045D01*
X114195396Y-129508590D01*
X114121680Y-129686557D01*
X114084100Y-129875485D01*
X114084100Y-130068115D01*
X114121680Y-130257043D01*
X114195396Y-130435010D01*
X114302000Y-130594554D01*
X114302001Y-136919458D01*
X114302000Y-136919468D01*
X114302000Y-136969046D01*
X114195396Y-137128590D01*
X114121680Y-137306557D01*
X114084100Y-137495485D01*
X114084100Y-137688115D01*
X114115465Y-137845800D01*
X113468535Y-137845800D01*
X113499900Y-137688115D01*
X113499900Y-137495485D01*
X113462320Y-137306557D01*
X113388604Y-137128590D01*
X113282000Y-136969046D01*
X113282000Y-110147554D01*
X113388604Y-109988010D01*
X113462320Y-109810043D01*
X113499900Y-109621115D01*
X113499900Y-109428485D01*
X113462320Y-109239557D01*
X113388604Y-109061590D01*
X113282000Y-108902046D01*
X113282000Y-98590554D01*
X113388604Y-98431010D01*
X113462320Y-98253043D01*
X113499900Y-98064115D01*
X113499900Y-97871485D01*
X113462320Y-97682557D01*
X113399716Y-97531418D01*
X113446482Y-97526812D01*
X113566180Y-97490502D01*
X113676494Y-97431537D01*
X113773185Y-97352185D01*
X113792000Y-97329259D01*
X113810815Y-97352185D01*
G37*
X113810815Y-97352185D02*
X113907506Y-97431537D01*
X114017820Y-97490502D01*
X114137518Y-97526812D01*
X114184284Y-97531418D01*
X114121680Y-97682557D01*
X114084100Y-97871485D01*
X114084100Y-98064115D01*
X114121680Y-98253043D01*
X114195396Y-98431010D01*
X114302000Y-98590554D01*
X114302000Y-98819468D01*
X114302001Y-100597458D01*
X114302000Y-100597468D01*
X114302001Y-101917045D01*
X114195396Y-102076590D01*
X114121680Y-102254557D01*
X114084100Y-102443485D01*
X114084100Y-102636115D01*
X114121680Y-102825043D01*
X114195396Y-103003010D01*
X114302000Y-103162554D01*
X114302001Y-129349045D01*
X114195396Y-129508590D01*
X114121680Y-129686557D01*
X114084100Y-129875485D01*
X114084100Y-130068115D01*
X114121680Y-130257043D01*
X114195396Y-130435010D01*
X114302000Y-130594554D01*
X114302001Y-136919458D01*
X114302000Y-136919468D01*
X114302000Y-136969046D01*
X114195396Y-137128590D01*
X114121680Y-137306557D01*
X114084100Y-137495485D01*
X114084100Y-137688115D01*
X114115465Y-137845800D01*
X113468535Y-137845800D01*
X113499900Y-137688115D01*
X113499900Y-137495485D01*
X113462320Y-137306557D01*
X113388604Y-137128590D01*
X113282000Y-136969046D01*
X113282000Y-110147554D01*
X113388604Y-109988010D01*
X113462320Y-109810043D01*
X113499900Y-109621115D01*
X113499900Y-109428485D01*
X113462320Y-109239557D01*
X113388604Y-109061590D01*
X113282000Y-108902046D01*
X113282000Y-98590554D01*
X113388604Y-98431010D01*
X113462320Y-98253043D01*
X113499900Y-98064115D01*
X113499900Y-97871485D01*
X113462320Y-97682557D01*
X113399716Y-97531418D01*
X113446482Y-97526812D01*
X113566180Y-97490502D01*
X113676494Y-97431537D01*
X113773185Y-97352185D01*
X113792000Y-97329259D01*
X113810815Y-97352185D01*
G36*
X111270815Y-97352185D02*
G01*
X111367506Y-97431537D01*
X111477820Y-97490502D01*
X111597518Y-97526812D01*
X111644284Y-97531418D01*
X111581680Y-97682557D01*
X111544100Y-97871485D01*
X111544100Y-98064115D01*
X111581680Y-98253043D01*
X111655396Y-98431010D01*
X111762000Y-98590554D01*
X111762000Y-98894133D01*
X111762001Y-98894143D01*
X111762000Y-108902046D01*
X111655396Y-109061590D01*
X111581680Y-109239557D01*
X111544100Y-109428485D01*
X111544100Y-109621115D01*
X111581680Y-109810043D01*
X111655396Y-109988010D01*
X111762001Y-110147555D01*
X111762000Y-136665467D01*
X111762000Y-136969046D01*
X111655396Y-137128590D01*
X111581680Y-137306557D01*
X111544100Y-137495485D01*
X111544100Y-137688115D01*
X111575465Y-137845800D01*
X110928535Y-137845800D01*
X110959900Y-137688115D01*
X110959900Y-137495485D01*
X110922320Y-137306557D01*
X110848604Y-137128590D01*
X110742000Y-136969046D01*
X110742000Y-122593554D01*
X110848604Y-122434010D01*
X110922320Y-122256043D01*
X110959900Y-122067115D01*
X110959900Y-121874485D01*
X110922320Y-121685557D01*
X110848604Y-121507590D01*
X110742000Y-121348046D01*
X110742000Y-114084554D01*
X110848604Y-113925010D01*
X110922320Y-113747043D01*
X110959900Y-113558115D01*
X110959900Y-113365485D01*
X110922320Y-113176557D01*
X110848604Y-112998590D01*
X110742000Y-112839046D01*
X110742000Y-98590554D01*
X110848604Y-98431010D01*
X110922320Y-98253043D01*
X110959900Y-98064115D01*
X110959900Y-97871485D01*
X110922320Y-97682557D01*
X110859716Y-97531418D01*
X110906482Y-97526812D01*
X111026180Y-97490502D01*
X111136494Y-97431537D01*
X111233185Y-97352185D01*
X111252000Y-97329259D01*
X111270815Y-97352185D01*
G37*
X111270815Y-97352185D02*
X111367506Y-97431537D01*
X111477820Y-97490502D01*
X111597518Y-97526812D01*
X111644284Y-97531418D01*
X111581680Y-97682557D01*
X111544100Y-97871485D01*
X111544100Y-98064115D01*
X111581680Y-98253043D01*
X111655396Y-98431010D01*
X111762000Y-98590554D01*
X111762000Y-98894133D01*
X111762001Y-98894143D01*
X111762000Y-108902046D01*
X111655396Y-109061590D01*
X111581680Y-109239557D01*
X111544100Y-109428485D01*
X111544100Y-109621115D01*
X111581680Y-109810043D01*
X111655396Y-109988010D01*
X111762001Y-110147555D01*
X111762000Y-136665467D01*
X111762000Y-136969046D01*
X111655396Y-137128590D01*
X111581680Y-137306557D01*
X111544100Y-137495485D01*
X111544100Y-137688115D01*
X111575465Y-137845800D01*
X110928535Y-137845800D01*
X110959900Y-137688115D01*
X110959900Y-137495485D01*
X110922320Y-137306557D01*
X110848604Y-137128590D01*
X110742000Y-136969046D01*
X110742000Y-122593554D01*
X110848604Y-122434010D01*
X110922320Y-122256043D01*
X110959900Y-122067115D01*
X110959900Y-121874485D01*
X110922320Y-121685557D01*
X110848604Y-121507590D01*
X110742000Y-121348046D01*
X110742000Y-114084554D01*
X110848604Y-113925010D01*
X110922320Y-113747043D01*
X110959900Y-113558115D01*
X110959900Y-113365485D01*
X110922320Y-113176557D01*
X110848604Y-112998590D01*
X110742000Y-112839046D01*
X110742000Y-98590554D01*
X110848604Y-98431010D01*
X110922320Y-98253043D01*
X110959900Y-98064115D01*
X110959900Y-97871485D01*
X110922320Y-97682557D01*
X110859716Y-97531418D01*
X110906482Y-97526812D01*
X111026180Y-97490502D01*
X111136494Y-97431537D01*
X111233185Y-97352185D01*
X111252000Y-97329259D01*
X111270815Y-97352185D01*
G36*
X116350815Y-97352185D02*
G01*
X116447506Y-97431537D01*
X116557820Y-97490502D01*
X116677518Y-97526812D01*
X116724284Y-97531418D01*
X116661680Y-97682557D01*
X116624100Y-97871485D01*
X116624100Y-98064115D01*
X116661680Y-98253043D01*
X116735396Y-98431010D01*
X116842000Y-98590554D01*
X116842001Y-136665458D01*
X116842000Y-136665468D01*
X116842000Y-136969046D01*
X116735396Y-137128590D01*
X116661680Y-137306557D01*
X116624100Y-137495485D01*
X116624100Y-137688115D01*
X116655465Y-137845800D01*
X116008535Y-137845800D01*
X116039900Y-137688115D01*
X116039900Y-137495485D01*
X116002320Y-137306557D01*
X115928604Y-137128590D01*
X115822000Y-136969046D01*
X115822000Y-130594554D01*
X115928604Y-130435010D01*
X116002320Y-130257043D01*
X116039900Y-130068115D01*
X116039900Y-129875485D01*
X116002320Y-129686557D01*
X115928604Y-129508590D01*
X115822000Y-129349046D01*
X115822000Y-103162554D01*
X115928604Y-103003010D01*
X116002320Y-102825043D01*
X116039900Y-102636115D01*
X116039900Y-102443485D01*
X116002320Y-102254557D01*
X115928604Y-102076590D01*
X115822000Y-101917046D01*
X115822000Y-98590554D01*
X115928604Y-98431010D01*
X116002320Y-98253043D01*
X116039900Y-98064115D01*
X116039900Y-97871485D01*
X116002320Y-97682557D01*
X115939716Y-97531418D01*
X115986482Y-97526812D01*
X116106180Y-97490502D01*
X116216494Y-97431537D01*
X116313185Y-97352185D01*
X116332000Y-97329259D01*
X116350815Y-97352185D01*
G37*
X116350815Y-97352185D02*
X116447506Y-97431537D01*
X116557820Y-97490502D01*
X116677518Y-97526812D01*
X116724284Y-97531418D01*
X116661680Y-97682557D01*
X116624100Y-97871485D01*
X116624100Y-98064115D01*
X116661680Y-98253043D01*
X116735396Y-98431010D01*
X116842000Y-98590554D01*
X116842001Y-136665458D01*
X116842000Y-136665468D01*
X116842000Y-136969046D01*
X116735396Y-137128590D01*
X116661680Y-137306557D01*
X116624100Y-137495485D01*
X116624100Y-137688115D01*
X116655465Y-137845800D01*
X116008535Y-137845800D01*
X116039900Y-137688115D01*
X116039900Y-137495485D01*
X116002320Y-137306557D01*
X115928604Y-137128590D01*
X115822000Y-136969046D01*
X115822000Y-130594554D01*
X115928604Y-130435010D01*
X116002320Y-130257043D01*
X116039900Y-130068115D01*
X116039900Y-129875485D01*
X116002320Y-129686557D01*
X115928604Y-129508590D01*
X115822000Y-129349046D01*
X115822000Y-103162554D01*
X115928604Y-103003010D01*
X116002320Y-102825043D01*
X116039900Y-102636115D01*
X116039900Y-102443485D01*
X116002320Y-102254557D01*
X115928604Y-102076590D01*
X115822000Y-101917046D01*
X115822000Y-98590554D01*
X115928604Y-98431010D01*
X116002320Y-98253043D01*
X116039900Y-98064115D01*
X116039900Y-97871485D01*
X116002320Y-97682557D01*
X115939716Y-97531418D01*
X115986482Y-97526812D01*
X116106180Y-97490502D01*
X116216494Y-97431537D01*
X116313185Y-97352185D01*
X116332000Y-97329259D01*
X116350815Y-97352185D01*
M02*
