G04 #@! TF.GenerationSoftware,KiCad,Pcbnew,(5.1.5)-3*
G04 #@! TF.CreationDate,2020-04-27T11:33:16-04:00*
G04 #@! TF.ProjectId,VS-Tipi,56532d54-6970-4692-9e6b-696361645f70,V0*
G04 #@! TF.SameCoordinates,Original*
G04 #@! TF.FileFunction,Legend,Top*
G04 #@! TF.FilePolarity,Positive*
%FSLAX46Y46*%
G04 Gerber Fmt 4.6, Leading zero omitted, Abs format (unit mm)*
G04 Created by KiCad (PCBNEW (5.1.5)-3) date 2020-04-27 11:33:16*
%MOMM*%
%LPD*%
G04 APERTURE LIST*
%ADD10C,0.300000*%
%ADD11C,0.025400*%
%ADD12C,0.120000*%
%ADD13C,0.150000*%
G04 APERTURE END LIST*
D10*
X107983571Y-134730371D02*
X107983571Y-135944657D01*
X107912142Y-136087514D01*
X107840714Y-136158942D01*
X107697857Y-136230371D01*
X107483571Y-136230371D01*
X107340714Y-136158942D01*
X107983571Y-135658942D02*
X107840714Y-135730371D01*
X107555000Y-135730371D01*
X107412142Y-135658942D01*
X107340714Y-135587514D01*
X107269285Y-135444657D01*
X107269285Y-135016085D01*
X107340714Y-134873228D01*
X107412142Y-134801800D01*
X107555000Y-134730371D01*
X107840714Y-134730371D01*
X107983571Y-134801800D01*
X108697857Y-135730371D02*
X108697857Y-134730371D01*
X108697857Y-134230371D02*
X108626428Y-134301800D01*
X108697857Y-134373228D01*
X108769285Y-134301800D01*
X108697857Y-134230371D01*
X108697857Y-134373228D01*
X109197857Y-134730371D02*
X109769285Y-134730371D01*
X109412142Y-134230371D02*
X109412142Y-135516085D01*
X109483571Y-135658942D01*
X109626428Y-135730371D01*
X109769285Y-135730371D01*
X110269285Y-135730371D02*
X110269285Y-134230371D01*
X110912142Y-135730371D02*
X110912142Y-134944657D01*
X110840714Y-134801800D01*
X110697857Y-134730371D01*
X110483571Y-134730371D01*
X110340714Y-134801800D01*
X110269285Y-134873228D01*
X112269285Y-134730371D02*
X112269285Y-135730371D01*
X111626428Y-134730371D02*
X111626428Y-135516085D01*
X111697857Y-135658942D01*
X111840714Y-135730371D01*
X112055000Y-135730371D01*
X112197857Y-135658942D01*
X112269285Y-135587514D01*
X112983571Y-135730371D02*
X112983571Y-134230371D01*
X112983571Y-134801800D02*
X113126428Y-134730371D01*
X113412142Y-134730371D01*
X113555000Y-134801800D01*
X113626428Y-134873228D01*
X113697857Y-135016085D01*
X113697857Y-135444657D01*
X113626428Y-135587514D01*
X113555000Y-135658942D01*
X113412142Y-135730371D01*
X113126428Y-135730371D01*
X112983571Y-135658942D01*
X114340714Y-135587514D02*
X114412142Y-135658942D01*
X114340714Y-135730371D01*
X114269285Y-135658942D01*
X114340714Y-135587514D01*
X114340714Y-135730371D01*
X115697857Y-135658942D02*
X115555000Y-135730371D01*
X115269285Y-135730371D01*
X115126428Y-135658942D01*
X115055000Y-135587514D01*
X114983571Y-135444657D01*
X114983571Y-135016085D01*
X115055000Y-134873228D01*
X115126428Y-134801800D01*
X115269285Y-134730371D01*
X115555000Y-134730371D01*
X115697857Y-134801800D01*
X116555000Y-135730371D02*
X116412142Y-135658942D01*
X116340714Y-135587514D01*
X116269285Y-135444657D01*
X116269285Y-135016085D01*
X116340714Y-134873228D01*
X116412142Y-134801800D01*
X116555000Y-134730371D01*
X116769285Y-134730371D01*
X116912142Y-134801800D01*
X116983571Y-134873228D01*
X117055000Y-135016085D01*
X117055000Y-135444657D01*
X116983571Y-135587514D01*
X116912142Y-135658942D01*
X116769285Y-135730371D01*
X116555000Y-135730371D01*
X117697857Y-135730371D02*
X117697857Y-134730371D01*
X117697857Y-134873228D02*
X117769285Y-134801800D01*
X117912142Y-134730371D01*
X118126428Y-134730371D01*
X118269285Y-134801800D01*
X118340714Y-134944657D01*
X118340714Y-135730371D01*
X118340714Y-134944657D02*
X118412142Y-134801800D01*
X118555000Y-134730371D01*
X118769285Y-134730371D01*
X118912142Y-134801800D01*
X118983571Y-134944657D01*
X118983571Y-135730371D01*
X120769285Y-134158942D02*
X119483571Y-136087514D01*
X121269285Y-134730371D02*
X121269285Y-136016085D01*
X121197857Y-136158942D01*
X121055000Y-136230371D01*
X120983571Y-136230371D01*
X121269285Y-134230371D02*
X121197857Y-134301800D01*
X121269285Y-134373228D01*
X121340714Y-134301800D01*
X121269285Y-134230371D01*
X121269285Y-134373228D01*
X122555000Y-135658942D02*
X122412142Y-135730371D01*
X122126428Y-135730371D01*
X121983571Y-135658942D01*
X121912142Y-135516085D01*
X121912142Y-134944657D01*
X121983571Y-134801800D01*
X122126428Y-134730371D01*
X122412142Y-134730371D01*
X122555000Y-134801800D01*
X122626428Y-134944657D01*
X122626428Y-135087514D01*
X121912142Y-135230371D01*
X123912142Y-135730371D02*
X123912142Y-134230371D01*
X123912142Y-135658942D02*
X123769285Y-135730371D01*
X123483571Y-135730371D01*
X123340714Y-135658942D01*
X123269285Y-135587514D01*
X123197857Y-135444657D01*
X123197857Y-135016085D01*
X123269285Y-134873228D01*
X123340714Y-134801800D01*
X123483571Y-134730371D01*
X123769285Y-134730371D01*
X123912142Y-134801800D01*
X124626428Y-135730371D02*
X124626428Y-134730371D01*
X124626428Y-134230371D02*
X124555000Y-134301800D01*
X124626428Y-134373228D01*
X124697857Y-134301800D01*
X124626428Y-134230371D01*
X124626428Y-134373228D01*
X125340714Y-135730371D02*
X125340714Y-134730371D01*
X125340714Y-134873228D02*
X125412142Y-134801800D01*
X125555000Y-134730371D01*
X125769285Y-134730371D01*
X125912142Y-134801800D01*
X125983571Y-134944657D01*
X125983571Y-135730371D01*
X125983571Y-134944657D02*
X126055000Y-134801800D01*
X126197857Y-134730371D01*
X126412142Y-134730371D01*
X126555000Y-134801800D01*
X126626428Y-134944657D01*
X126626428Y-135730371D01*
X127983571Y-135730371D02*
X127983571Y-134944657D01*
X127912142Y-134801800D01*
X127769285Y-134730371D01*
X127483571Y-134730371D01*
X127340714Y-134801800D01*
X127983571Y-135658942D02*
X127840714Y-135730371D01*
X127483571Y-135730371D01*
X127340714Y-135658942D01*
X127269285Y-135516085D01*
X127269285Y-135373228D01*
X127340714Y-135230371D01*
X127483571Y-135158942D01*
X127840714Y-135158942D01*
X127983571Y-135087514D01*
X128483571Y-134730371D02*
X129055000Y-134730371D01*
X128697857Y-134230371D02*
X128697857Y-135516085D01*
X128769285Y-135658942D01*
X128912142Y-135730371D01*
X129055000Y-135730371D01*
X129340714Y-134730371D02*
X129912142Y-134730371D01*
X129555000Y-134230371D02*
X129555000Y-135516085D01*
X129626428Y-135658942D01*
X129769285Y-135730371D01*
X129912142Y-135730371D01*
X131055000Y-134730371D02*
X131055000Y-135730371D01*
X130697857Y-134158942D02*
X130340714Y-135230371D01*
X131269285Y-135230371D01*
X131769285Y-134373228D02*
X131840714Y-134301800D01*
X131983571Y-134230371D01*
X132340714Y-134230371D01*
X132483571Y-134301800D01*
X132555000Y-134373228D01*
X132626428Y-134516085D01*
X132626428Y-134658942D01*
X132555000Y-134873228D01*
X131697857Y-135730371D01*
X132626428Y-135730371D01*
X134340714Y-134158942D02*
X133055000Y-136087514D01*
X134626428Y-134730371D02*
X135197857Y-134730371D01*
X134840714Y-134230371D02*
X134840714Y-135516085D01*
X134912142Y-135658942D01*
X135055000Y-135730371D01*
X135197857Y-135730371D01*
X135697857Y-135730371D02*
X135697857Y-134730371D01*
X135697857Y-134230371D02*
X135626428Y-134301800D01*
X135697857Y-134373228D01*
X135769285Y-134301800D01*
X135697857Y-134230371D01*
X135697857Y-134373228D01*
X136412142Y-134730371D02*
X136412142Y-136230371D01*
X136412142Y-134801800D02*
X136555000Y-134730371D01*
X136840714Y-134730371D01*
X136983571Y-134801800D01*
X137055000Y-134873228D01*
X137126428Y-135016085D01*
X137126428Y-135444657D01*
X137055000Y-135587514D01*
X136983571Y-135658942D01*
X136840714Y-135730371D01*
X136555000Y-135730371D01*
X136412142Y-135658942D01*
X137769285Y-135730371D02*
X137769285Y-134730371D01*
X137769285Y-134230371D02*
X137697857Y-134301800D01*
X137769285Y-134373228D01*
X137840714Y-134301800D01*
X137769285Y-134230371D01*
X137769285Y-134373228D01*
D11*
X138633200Y-145161000D02*
X140208000Y-143586200D01*
X82296000Y-143586200D02*
X83870800Y-145161000D01*
D10*
X84413000Y-100194371D02*
X84913000Y-101694371D01*
X85413000Y-100194371D01*
X85841571Y-101622942D02*
X86055857Y-101694371D01*
X86413000Y-101694371D01*
X86555857Y-101622942D01*
X86627285Y-101551514D01*
X86698714Y-101408657D01*
X86698714Y-101265800D01*
X86627285Y-101122942D01*
X86555857Y-101051514D01*
X86413000Y-100980085D01*
X86127285Y-100908657D01*
X85984428Y-100837228D01*
X85913000Y-100765800D01*
X85841571Y-100622942D01*
X85841571Y-100480085D01*
X85913000Y-100337228D01*
X85984428Y-100265800D01*
X86127285Y-100194371D01*
X86484428Y-100194371D01*
X86698714Y-100265800D01*
X87341571Y-101122942D02*
X88484428Y-101122942D01*
X88984428Y-100194371D02*
X89841571Y-100194371D01*
X89413000Y-101694371D02*
X89413000Y-100194371D01*
X90341571Y-101694371D02*
X90341571Y-100194371D01*
X91055857Y-101694371D02*
X91055857Y-100194371D01*
X91627285Y-100194371D01*
X91770142Y-100265800D01*
X91841571Y-100337228D01*
X91913000Y-100480085D01*
X91913000Y-100694371D01*
X91841571Y-100837228D01*
X91770142Y-100908657D01*
X91627285Y-100980085D01*
X91055857Y-100980085D01*
X92555857Y-101694371D02*
X92555857Y-100194371D01*
X94412999Y-101694371D02*
X94412999Y-100694371D01*
X94412999Y-100980085D02*
X94484428Y-100837228D01*
X94555857Y-100765800D01*
X94698714Y-100694371D01*
X94841571Y-100694371D01*
X95913000Y-101622942D02*
X95770142Y-101694371D01*
X95484428Y-101694371D01*
X95341571Y-101622942D01*
X95270142Y-101480085D01*
X95270142Y-100908657D01*
X95341571Y-100765800D01*
X95484428Y-100694371D01*
X95770142Y-100694371D01*
X95913000Y-100765800D01*
X95984428Y-100908657D01*
X95984428Y-101051514D01*
X95270142Y-101194371D01*
X96484428Y-100694371D02*
X96841571Y-101694371D01*
X97198714Y-100694371D01*
X98055857Y-100194371D02*
X98198714Y-100194371D01*
X98341571Y-100265800D01*
X98413000Y-100337228D01*
X98484428Y-100480085D01*
X98555857Y-100765800D01*
X98555857Y-101122942D01*
X98484428Y-101408657D01*
X98413000Y-101551514D01*
X98341571Y-101622942D01*
X98198714Y-101694371D01*
X98055857Y-101694371D01*
X97913000Y-101622942D01*
X97841571Y-101551514D01*
X97770142Y-101408657D01*
X97698714Y-101122942D01*
X97698714Y-100765800D01*
X97770142Y-100480085D01*
X97841571Y-100337228D01*
X97913000Y-100265800D01*
X98055857Y-100194371D01*
X100341571Y-101122942D02*
X101484428Y-101122942D01*
X103770142Y-100194371D02*
X103770142Y-101265800D01*
X103698714Y-101480085D01*
X103555857Y-101622942D01*
X103341571Y-101694371D01*
X103198714Y-101694371D01*
X104484428Y-101122942D02*
X105627285Y-101122942D01*
X106341571Y-101694371D02*
X106341571Y-100194371D01*
X106698714Y-100194371D01*
X106913000Y-100265800D01*
X107055857Y-100408657D01*
X107127285Y-100551514D01*
X107198714Y-100837228D01*
X107198714Y-101051514D01*
X107127285Y-101337228D01*
X107055857Y-101480085D01*
X106913000Y-101622942D01*
X106698714Y-101694371D01*
X106341571Y-101694371D01*
X108484428Y-101694371D02*
X108484428Y-100908657D01*
X108413000Y-100765800D01*
X108270142Y-100694371D01*
X107984428Y-100694371D01*
X107841571Y-100765800D01*
X108484428Y-101622942D02*
X108341571Y-101694371D01*
X107984428Y-101694371D01*
X107841571Y-101622942D01*
X107770142Y-101480085D01*
X107770142Y-101337228D01*
X107841571Y-101194371D01*
X107984428Y-101122942D01*
X108341571Y-101122942D01*
X108484428Y-101051514D01*
X108984428Y-100694371D02*
X109555857Y-100694371D01*
X109198714Y-100194371D02*
X109198714Y-101480085D01*
X109270142Y-101622942D01*
X109413000Y-101694371D01*
X109555857Y-101694371D01*
X110698714Y-101694371D02*
X110698714Y-100908657D01*
X110627285Y-100765800D01*
X110484428Y-100694371D01*
X110198714Y-100694371D01*
X110055857Y-100765800D01*
X110698714Y-101622942D02*
X110555857Y-101694371D01*
X110198714Y-101694371D01*
X110055857Y-101622942D01*
X109984428Y-101480085D01*
X109984428Y-101337228D01*
X110055857Y-101194371D01*
X110198714Y-101122942D01*
X110555857Y-101122942D01*
X110698714Y-101051514D01*
D11*
X176530000Y-118237000D02*
X176530000Y-95504000D01*
X81280000Y-90424000D02*
X141224000Y-90424000D01*
X141224000Y-90424000D02*
X141224000Y-95504000D01*
X81280000Y-95504000D02*
X81280000Y-90424000D01*
X146558000Y-145161000D02*
X176530000Y-145161000D01*
X176530000Y-118237000D02*
G75*
G03X176530000Y-126365000I0J-4064000D01*
G01*
X141224000Y-95504000D02*
X176530000Y-95504000D01*
X83870800Y-145161000D02*
X138633200Y-145161000D01*
X60833000Y-95504000D02*
X81280000Y-95504000D01*
X75438000Y-145161000D02*
X75438000Y-136271000D01*
X60833000Y-145161000D02*
X60833000Y-95504000D01*
X75438000Y-145161000D02*
X60833000Y-145161000D01*
X176530000Y-145161000D02*
X176530000Y-126365000D01*
X146558000Y-136271000D02*
X146558000Y-145161000D01*
X140208000Y-136271000D02*
X146558000Y-136271000D01*
X140208000Y-143586200D02*
X140208000Y-136271000D01*
X82296000Y-136271000D02*
X82296000Y-143586200D01*
X75438000Y-136271000D02*
X82296000Y-136271000D01*
D10*
X106944285Y-131309371D02*
X107801428Y-131309371D01*
X107372857Y-132809371D02*
X107372857Y-131309371D01*
X108301428Y-132809371D02*
X108301428Y-131309371D01*
X109015714Y-132809371D02*
X109015714Y-131309371D01*
X109587142Y-131309371D01*
X109730000Y-131380800D01*
X109801428Y-131452228D01*
X109872857Y-131595085D01*
X109872857Y-131809371D01*
X109801428Y-131952228D01*
X109730000Y-132023657D01*
X109587142Y-132095085D01*
X109015714Y-132095085D01*
X110515714Y-132809371D02*
X110515714Y-131309371D01*
X112372857Y-132809371D02*
X112372857Y-131309371D01*
X112372857Y-131880800D02*
X112515714Y-131809371D01*
X112801428Y-131809371D01*
X112944285Y-131880800D01*
X113015714Y-131952228D01*
X113087142Y-132095085D01*
X113087142Y-132523657D01*
X113015714Y-132666514D01*
X112944285Y-132737942D01*
X112801428Y-132809371D01*
X112515714Y-132809371D01*
X112372857Y-132737942D01*
X113587142Y-131809371D02*
X113944285Y-132809371D01*
X114301428Y-131809371D02*
X113944285Y-132809371D01*
X113801428Y-133166514D01*
X113730000Y-133237942D01*
X113587142Y-133309371D01*
X116015714Y-132023657D02*
X116515714Y-132023657D01*
X116730000Y-132809371D02*
X116015714Y-132809371D01*
X116015714Y-131309371D01*
X116730000Y-131309371D01*
X117587142Y-132809371D02*
X117444285Y-132737942D01*
X117372857Y-132595085D01*
X117372857Y-131309371D01*
X118730000Y-132737942D02*
X118587142Y-132809371D01*
X118301428Y-132809371D01*
X118158571Y-132737942D01*
X118087142Y-132595085D01*
X118087142Y-132023657D01*
X118158571Y-131880800D01*
X118301428Y-131809371D01*
X118587142Y-131809371D01*
X118730000Y-131880800D01*
X118801428Y-132023657D01*
X118801428Y-132166514D01*
X118087142Y-132309371D01*
X120087142Y-132737942D02*
X119944285Y-132809371D01*
X119658571Y-132809371D01*
X119515714Y-132737942D01*
X119444285Y-132666514D01*
X119372857Y-132523657D01*
X119372857Y-132095085D01*
X119444285Y-131952228D01*
X119515714Y-131880800D01*
X119658571Y-131809371D01*
X119944285Y-131809371D01*
X120087142Y-131880800D01*
X120515714Y-131809371D02*
X121087142Y-131809371D01*
X120729999Y-131309371D02*
X120729999Y-132595085D01*
X120801428Y-132737942D01*
X120944285Y-132809371D01*
X121087142Y-132809371D01*
X121587142Y-132809371D02*
X121587142Y-131809371D01*
X121587142Y-132095085D02*
X121658571Y-131952228D01*
X121729999Y-131880800D01*
X121872857Y-131809371D01*
X122015714Y-131809371D01*
X122515714Y-132809371D02*
X122515714Y-131809371D01*
X122515714Y-131309371D02*
X122444285Y-131380800D01*
X122515714Y-131452228D01*
X122587142Y-131380800D01*
X122515714Y-131309371D01*
X122515714Y-131452228D01*
X123872857Y-132737942D02*
X123730000Y-132809371D01*
X123444285Y-132809371D01*
X123301428Y-132737942D01*
X123229999Y-132666514D01*
X123158571Y-132523657D01*
X123158571Y-132095085D01*
X123229999Y-131952228D01*
X123301428Y-131880800D01*
X123444285Y-131809371D01*
X123730000Y-131809371D01*
X123872857Y-131880800D01*
X125230000Y-132809371D02*
X124515714Y-132809371D01*
X124515714Y-131309371D01*
X126372857Y-132809371D02*
X126372857Y-132023657D01*
X126301428Y-131880800D01*
X126158571Y-131809371D01*
X125872857Y-131809371D01*
X125730000Y-131880800D01*
X126372857Y-132737942D02*
X126230000Y-132809371D01*
X125872857Y-132809371D01*
X125730000Y-132737942D01*
X125658571Y-132595085D01*
X125658571Y-132452228D01*
X125730000Y-132309371D01*
X125872857Y-132237942D01*
X126230000Y-132237942D01*
X126372857Y-132166514D01*
X127087142Y-132809371D02*
X127087142Y-131309371D01*
X127087142Y-131880800D02*
X127230000Y-131809371D01*
X127515714Y-131809371D01*
X127658571Y-131880800D01*
X127730000Y-131952228D01*
X127801428Y-132095085D01*
X127801428Y-132523657D01*
X127730000Y-132666514D01*
X127658571Y-132737942D01*
X127515714Y-132809371D01*
X127230000Y-132809371D01*
X127087142Y-132737942D01*
X130801428Y-132809371D02*
X130730000Y-132809371D01*
X130587142Y-132737942D01*
X130372857Y-132523657D01*
X130015714Y-132095085D01*
X129872857Y-131880800D01*
X129801428Y-131666514D01*
X129801428Y-131523657D01*
X129872857Y-131380800D01*
X130015714Y-131309371D01*
X130087142Y-131309371D01*
X130230000Y-131380800D01*
X130301428Y-131523657D01*
X130301428Y-131595085D01*
X130230000Y-131737942D01*
X130158571Y-131809371D01*
X129730000Y-132095085D01*
X129658571Y-132166514D01*
X129587142Y-132309371D01*
X129587142Y-132523657D01*
X129658571Y-132666514D01*
X129730000Y-132737942D01*
X129872857Y-132809371D01*
X130087142Y-132809371D01*
X130230000Y-132737942D01*
X130301428Y-132666514D01*
X130515714Y-132380800D01*
X130587142Y-132166514D01*
X130587142Y-132023657D01*
X133015714Y-131309371D02*
X133015714Y-132380800D01*
X132944285Y-132595085D01*
X132801428Y-132737942D01*
X132587142Y-132809371D01*
X132444285Y-132809371D01*
X134301428Y-132737942D02*
X134158571Y-132809371D01*
X133872857Y-132809371D01*
X133730000Y-132737942D01*
X133658571Y-132595085D01*
X133658571Y-132023657D01*
X133730000Y-131880800D01*
X133872857Y-131809371D01*
X134158571Y-131809371D01*
X134301428Y-131880800D01*
X134372857Y-132023657D01*
X134372857Y-132166514D01*
X133658571Y-132309371D01*
X135658571Y-132809371D02*
X135658571Y-131309371D01*
X135658571Y-132737942D02*
X135515714Y-132809371D01*
X135230000Y-132809371D01*
X135087142Y-132737942D01*
X135015714Y-132666514D01*
X134944285Y-132523657D01*
X134944285Y-132095085D01*
X135015714Y-131952228D01*
X135087142Y-131880800D01*
X135230000Y-131809371D01*
X135515714Y-131809371D01*
X135658571Y-131880800D01*
X136372857Y-132809371D02*
X136372857Y-131809371D01*
X136372857Y-131309371D02*
X136301428Y-131380800D01*
X136372857Y-131452228D01*
X136444285Y-131380800D01*
X136372857Y-131309371D01*
X136372857Y-131452228D01*
X137087142Y-132809371D02*
X137087142Y-131809371D01*
X137087142Y-131952228D02*
X137158571Y-131880800D01*
X137301428Y-131809371D01*
X137515714Y-131809371D01*
X137658571Y-131880800D01*
X137730000Y-132023657D01*
X137730000Y-132809371D01*
X137730000Y-132023657D02*
X137801428Y-131880800D01*
X137944285Y-131809371D01*
X138158571Y-131809371D01*
X138301428Y-131880800D01*
X138372857Y-132023657D01*
X138372857Y-132809371D01*
X139730000Y-132809371D02*
X139730000Y-132023657D01*
X139658571Y-131880800D01*
X139515714Y-131809371D01*
X139230000Y-131809371D01*
X139087142Y-131880800D01*
X139730000Y-132737942D02*
X139587142Y-132809371D01*
X139230000Y-132809371D01*
X139087142Y-132737942D01*
X139015714Y-132595085D01*
X139015714Y-132452228D01*
X139087142Y-132309371D01*
X139230000Y-132237942D01*
X139587142Y-132237942D01*
X139730000Y-132166514D01*
X140230000Y-131809371D02*
X140801428Y-131809371D01*
X140444285Y-131309371D02*
X140444285Y-132595085D01*
X140515714Y-132737942D01*
X140658571Y-132809371D01*
X140801428Y-132809371D01*
X141087142Y-131809371D02*
X141658571Y-131809371D01*
X141301428Y-131309371D02*
X141301428Y-132595085D01*
X141372857Y-132737942D01*
X141515714Y-132809371D01*
X141658571Y-132809371D01*
X142801428Y-131809371D02*
X142801428Y-132809371D01*
X142444285Y-131237942D02*
X142087142Y-132309371D01*
X143015714Y-132309371D01*
X143515714Y-131452228D02*
X143587142Y-131380800D01*
X143730000Y-131309371D01*
X144087142Y-131309371D01*
X144230000Y-131380800D01*
X144301428Y-131452228D01*
X144372857Y-131595085D01*
X144372857Y-131737942D01*
X144301428Y-131952228D01*
X143444285Y-132809371D01*
X144372857Y-132809371D01*
D12*
X170871000Y-103356800D02*
X170421000Y-103756800D01*
X170421000Y-103756800D02*
X170421000Y-102956800D01*
X170421000Y-102956800D02*
X170871000Y-103356800D01*
X176471000Y-98206800D02*
X173671000Y-98206800D01*
X173671000Y-98206800D02*
X173671000Y-97906800D01*
X173671000Y-97906800D02*
X172121000Y-97906800D01*
X176471000Y-105906800D02*
X173671000Y-105906800D01*
X173671000Y-106206800D02*
X173671000Y-105906800D01*
X173671000Y-106206800D02*
X172121000Y-106206800D01*
X149313000Y-141393800D02*
X149313000Y-140393800D01*
X147613000Y-140393800D02*
X147613000Y-141393800D01*
X154118000Y-143172800D02*
X172018000Y-143172800D01*
X154118000Y-107372800D02*
X154118000Y-143172800D01*
X172018000Y-107372800D02*
X154118000Y-107372800D01*
X172018000Y-143172800D02*
X172018000Y-107372800D01*
X156608000Y-143112800D02*
X162068000Y-143112800D01*
X156608000Y-107432800D02*
X156608000Y-143112800D01*
X169528000Y-107432800D02*
X156608000Y-107432800D01*
X169528000Y-143112800D02*
X169528000Y-107432800D01*
X164068000Y-143112800D02*
X169528000Y-143112800D01*
X162068000Y-143112800D02*
G75*
G02X164068000Y-143112800I1000000J0D01*
G01*
X140593000Y-96165000D02*
X161413000Y-96165000D01*
X161413000Y-96165000D02*
X161413000Y-105765000D01*
X161413000Y-105765000D02*
X140593000Y-105765000D01*
X140593000Y-105765000D02*
X140593000Y-96165000D01*
D13*
X110934000Y-125666000D02*
X110934000Y-124941000D01*
X96584000Y-125666000D02*
X96584000Y-124866000D01*
X96584000Y-111316000D02*
X96584000Y-112116000D01*
X110934000Y-111316000D02*
X110934000Y-112116000D01*
X110934000Y-125666000D02*
X110134000Y-125666000D01*
X110934000Y-111316000D02*
X110134000Y-111316000D01*
X96584000Y-111316000D02*
X97384000Y-111316000D01*
X96584000Y-125666000D02*
X97384000Y-125666000D01*
X110934000Y-124941000D02*
X112209000Y-124941000D01*
D12*
X94115000Y-132980800D02*
X95115000Y-132980800D01*
X95115000Y-131280800D02*
X94115000Y-131280800D01*
X92829000Y-124041800D02*
X91829000Y-124041800D01*
X91829000Y-125741800D02*
X92829000Y-125741800D01*
X61091000Y-95784000D02*
X81911000Y-95784000D01*
X81911000Y-95784000D02*
X81911000Y-105384000D01*
X81911000Y-105384000D02*
X61091000Y-105384000D01*
X61091000Y-105384000D02*
X61091000Y-95784000D01*
X64072392Y-139043665D02*
G75*
G03X63915484Y-142276000I1078608J-1672335D01*
G01*
X66229608Y-139043665D02*
G75*
G02X66386516Y-142276000I-1078608J-1672335D01*
G01*
X64071163Y-139674870D02*
G75*
G03X64071000Y-141756961I1079837J-1041130D01*
G01*
X66230837Y-139674870D02*
G75*
G02X66231000Y-141756961I-1079837J-1041130D01*
G01*
X63915000Y-142276000D02*
X64071000Y-142276000D01*
X66231000Y-142276000D02*
X66387000Y-142276000D01*
X74168000Y-114290800D02*
X66488000Y-114290800D01*
X66488000Y-114290800D02*
X66488000Y-119490800D01*
X66488000Y-119490800D02*
X76768000Y-119490800D01*
X76768000Y-119490800D02*
X76768000Y-116890800D01*
X76768000Y-116890800D02*
X74168000Y-116890800D01*
X74168000Y-116890800D02*
X74168000Y-114290800D01*
X75438000Y-114290800D02*
X76768000Y-114290800D01*
X76768000Y-114290800D02*
X76768000Y-115620800D01*
X70048000Y-143508000D02*
X70978000Y-143508000D01*
X73208000Y-143508000D02*
X72278000Y-143508000D01*
X73208000Y-143508000D02*
X73208000Y-141348000D01*
X70048000Y-143508000D02*
X70048000Y-142048000D01*
X73524000Y-137626800D02*
X73524000Y-138826800D01*
X71764000Y-138826800D02*
X71764000Y-137626800D01*
X64271000Y-135270800D02*
X64271000Y-134070800D01*
X66031000Y-134070800D02*
X66031000Y-135270800D01*
D13*
X129921000Y-118872000D02*
X137541000Y-118872000D01*
X137541000Y-115316000D02*
X129921000Y-115316000D01*
X129921000Y-118872000D02*
X129921000Y-115316000D01*
X137541000Y-115316000D02*
X137541000Y-118872000D01*
X137392210Y-115824000D02*
G75*
G03X137392210Y-115824000I-359210J0D01*
G01*
X137541000Y-117729000D02*
X136779000Y-117729000D01*
X136779000Y-117729000D02*
X136779000Y-116459000D01*
X136779000Y-116459000D02*
X137541000Y-116459000D01*
D12*
X92925000Y-117263800D02*
X92925000Y-116263800D01*
X91225000Y-116263800D02*
X91225000Y-117263800D01*
X75701000Y-109235800D02*
X75701000Y-108035800D01*
X77461000Y-108035800D02*
X77461000Y-109235800D01*
X70621000Y-109312000D02*
X70621000Y-108112000D01*
X72381000Y-108112000D02*
X72381000Y-109312000D01*
X65668000Y-109312000D02*
X65668000Y-108112000D01*
X67428000Y-108112000D02*
X67428000Y-109312000D01*
X75430000Y-124041800D02*
X74430000Y-124041800D01*
X74430000Y-125741800D02*
X75430000Y-125741800D01*
X74764000Y-129074800D02*
X74764000Y-128074800D01*
X73064000Y-128074800D02*
X73064000Y-129074800D01*
X115689000Y-124803800D02*
X114689000Y-124803800D01*
X114689000Y-126503800D02*
X115689000Y-126503800D01*
X116090000Y-108674800D02*
X115090000Y-108674800D01*
X115090000Y-110374800D02*
X116090000Y-110374800D01*
X101862000Y-108215800D02*
X102862000Y-108215800D01*
X102862000Y-106515800D02*
X101862000Y-106515800D01*
X92083000Y-111517800D02*
X93083000Y-111517800D01*
X93083000Y-109817800D02*
X92083000Y-109817800D01*
X126119000Y-114311800D02*
X127119000Y-114311800D01*
X127119000Y-112611800D02*
X126119000Y-112611800D01*
X173648000Y-139835000D02*
X173648000Y-140835000D01*
X175348000Y-140835000D02*
X175348000Y-139835000D01*
X62239000Y-117567000D02*
X62239000Y-116367000D01*
X63999000Y-116367000D02*
X63999000Y-117567000D01*
X65146000Y-123971000D02*
X65146000Y-125231000D01*
X65146000Y-130791000D02*
X65146000Y-129531000D01*
X68906000Y-123971000D02*
X65146000Y-123971000D01*
X71156000Y-130791000D02*
X65146000Y-130791000D01*
D13*
X168957666Y-97928180D02*
X168957666Y-98642466D01*
X168910047Y-98785323D01*
X168814809Y-98880561D01*
X168671952Y-98928180D01*
X168576714Y-98928180D01*
X169386238Y-98023419D02*
X169433857Y-97975800D01*
X169529095Y-97928180D01*
X169767190Y-97928180D01*
X169862428Y-97975800D01*
X169910047Y-98023419D01*
X169957666Y-98118657D01*
X169957666Y-98213895D01*
X169910047Y-98356752D01*
X169338619Y-98928180D01*
X169957666Y-98928180D01*
X147883642Y-138119442D02*
X147836023Y-138167061D01*
X147693166Y-138214680D01*
X147597928Y-138214680D01*
X147455071Y-138167061D01*
X147359833Y-138071823D01*
X147312214Y-137976585D01*
X147264595Y-137786109D01*
X147264595Y-137643252D01*
X147312214Y-137452776D01*
X147359833Y-137357538D01*
X147455071Y-137262300D01*
X147597928Y-137214680D01*
X147693166Y-137214680D01*
X147836023Y-137262300D01*
X147883642Y-137309919D01*
X148836023Y-138214680D02*
X148264595Y-138214680D01*
X148550309Y-138214680D02*
X148550309Y-137214680D01*
X148455071Y-137357538D01*
X148359833Y-137452776D01*
X148264595Y-137500395D01*
X149216976Y-137309919D02*
X149264595Y-137262300D01*
X149359833Y-137214680D01*
X149597928Y-137214680D01*
X149693166Y-137262300D01*
X149740785Y-137309919D01*
X149788404Y-137405157D01*
X149788404Y-137500395D01*
X149740785Y-137643252D01*
X149169357Y-138214680D01*
X149788404Y-138214680D01*
X162306095Y-143565180D02*
X162306095Y-144374704D01*
X162353714Y-144469942D01*
X162401333Y-144517561D01*
X162496571Y-144565180D01*
X162687047Y-144565180D01*
X162782285Y-144517561D01*
X162829904Y-144469942D01*
X162877523Y-144374704D01*
X162877523Y-143565180D01*
X163306095Y-143660419D02*
X163353714Y-143612800D01*
X163448952Y-143565180D01*
X163687047Y-143565180D01*
X163782285Y-143612800D01*
X163829904Y-143660419D01*
X163877523Y-143755657D01*
X163877523Y-143850895D01*
X163829904Y-143993752D01*
X163258476Y-144565180D01*
X163877523Y-144565180D01*
X160012119Y-102917738D02*
X160488309Y-102584404D01*
X160012119Y-102346309D02*
X161012119Y-102346309D01*
X161012119Y-102727261D01*
X160964500Y-102822500D01*
X160916880Y-102870119D01*
X160821642Y-102917738D01*
X160678785Y-102917738D01*
X160583547Y-102870119D01*
X160535928Y-102822500D01*
X160488309Y-102727261D01*
X160488309Y-102346309D01*
X160012119Y-103346309D02*
X161012119Y-103346309D01*
X161012119Y-103727261D01*
X160964500Y-103822500D01*
X160916880Y-103870119D01*
X160821642Y-103917738D01*
X160678785Y-103917738D01*
X160583547Y-103870119D01*
X160535928Y-103822500D01*
X160488309Y-103727261D01*
X160488309Y-103346309D01*
X160012119Y-104346309D02*
X160678785Y-104346309D01*
X161012119Y-104346309D02*
X160964500Y-104298690D01*
X160916880Y-104346309D01*
X160964500Y-104393928D01*
X161012119Y-104346309D01*
X160916880Y-104346309D01*
X160012119Y-105346309D02*
X160012119Y-104774880D01*
X160012119Y-105060595D02*
X161012119Y-105060595D01*
X160869261Y-104965357D01*
X160774023Y-104870119D01*
X160726404Y-104774880D01*
D12*
X146228714Y-104407380D02*
X145657285Y-104407380D01*
X145943000Y-104407380D02*
X145943000Y-103407380D01*
X145847761Y-103550238D01*
X145752523Y-103645476D01*
X145657285Y-103693095D01*
D13*
X83081904Y-137536180D02*
X83081904Y-136536180D01*
X83462857Y-136536180D01*
X83558095Y-136583800D01*
X83605714Y-136631419D01*
X83653333Y-136726657D01*
X83653333Y-136869514D01*
X83605714Y-136964752D01*
X83558095Y-137012371D01*
X83462857Y-137059990D01*
X83081904Y-137059990D01*
X84605714Y-137536180D02*
X84034285Y-137536180D01*
X84320000Y-137536180D02*
X84320000Y-136536180D01*
X84224761Y-136679038D01*
X84129523Y-136774276D01*
X84034285Y-136821895D01*
X83613666Y-97928180D02*
X83613666Y-98642466D01*
X83566047Y-98785323D01*
X83470809Y-98880561D01*
X83327952Y-98928180D01*
X83232714Y-98928180D01*
X84613666Y-98928180D02*
X84042238Y-98928180D01*
X84327952Y-98928180D02*
X84327952Y-97928180D01*
X84232714Y-98071038D01*
X84137476Y-98166276D01*
X84042238Y-98213895D01*
X102997095Y-127393380D02*
X102997095Y-128202904D01*
X103044714Y-128298142D01*
X103092333Y-128345761D01*
X103187571Y-128393380D01*
X103378047Y-128393380D01*
X103473285Y-128345761D01*
X103520904Y-128298142D01*
X103568523Y-128202904D01*
X103568523Y-127393380D01*
X104568523Y-128393380D02*
X103997095Y-128393380D01*
X104282809Y-128393380D02*
X104282809Y-127393380D01*
X104187571Y-127536238D01*
X104092333Y-127631476D01*
X103997095Y-127679095D01*
X91189833Y-132551442D02*
X91142214Y-132599061D01*
X90999357Y-132646680D01*
X90904119Y-132646680D01*
X90761261Y-132599061D01*
X90666023Y-132503823D01*
X90618404Y-132408585D01*
X90570785Y-132218109D01*
X90570785Y-132075252D01*
X90618404Y-131884776D01*
X90666023Y-131789538D01*
X90761261Y-131694300D01*
X90904119Y-131646680D01*
X90999357Y-131646680D01*
X91142214Y-131694300D01*
X91189833Y-131741919D01*
X92094595Y-131646680D02*
X91618404Y-131646680D01*
X91570785Y-132122871D01*
X91618404Y-132075252D01*
X91713642Y-132027633D01*
X91951738Y-132027633D01*
X92046976Y-132075252D01*
X92094595Y-132122871D01*
X92142214Y-132218109D01*
X92142214Y-132456204D01*
X92094595Y-132551442D01*
X92046976Y-132599061D01*
X91951738Y-132646680D01*
X91713642Y-132646680D01*
X91618404Y-132599061D01*
X91570785Y-132551442D01*
X92162333Y-123498942D02*
X92114714Y-123546561D01*
X91971857Y-123594180D01*
X91876619Y-123594180D01*
X91733761Y-123546561D01*
X91638523Y-123451323D01*
X91590904Y-123356085D01*
X91543285Y-123165609D01*
X91543285Y-123022752D01*
X91590904Y-122832276D01*
X91638523Y-122737038D01*
X91733761Y-122641800D01*
X91876619Y-122594180D01*
X91971857Y-122594180D01*
X92114714Y-122641800D01*
X92162333Y-122689419D01*
X93019476Y-122594180D02*
X92829000Y-122594180D01*
X92733761Y-122641800D01*
X92686142Y-122689419D01*
X92590904Y-122832276D01*
X92543285Y-123022752D01*
X92543285Y-123403704D01*
X92590904Y-123498942D01*
X92638523Y-123546561D01*
X92733761Y-123594180D01*
X92924238Y-123594180D01*
X93019476Y-123546561D01*
X93067095Y-123498942D01*
X93114714Y-123403704D01*
X93114714Y-123165609D01*
X93067095Y-123070371D01*
X93019476Y-123022752D01*
X92924238Y-122975133D01*
X92733761Y-122975133D01*
X92638523Y-123022752D01*
X92590904Y-123070371D01*
X92543285Y-123165609D01*
X61984142Y-96289880D02*
X61984142Y-97004166D01*
X61936523Y-97147023D01*
X61841285Y-97242261D01*
X61698428Y-97289880D01*
X61603190Y-97289880D01*
X62317476Y-96289880D02*
X62888904Y-96289880D01*
X62603190Y-97289880D02*
X62603190Y-96289880D01*
X63174619Y-97004166D02*
X63650809Y-97004166D01*
X63079380Y-97289880D02*
X63412714Y-96289880D01*
X63746047Y-97289880D01*
X64603190Y-96337500D02*
X64507952Y-96289880D01*
X64365095Y-96289880D01*
X64222238Y-96337500D01*
X64127000Y-96432738D01*
X64079380Y-96527976D01*
X64031761Y-96718452D01*
X64031761Y-96861309D01*
X64079380Y-97051785D01*
X64127000Y-97147023D01*
X64222238Y-97242261D01*
X64365095Y-97289880D01*
X64460333Y-97289880D01*
X64603190Y-97242261D01*
X64650809Y-97194642D01*
X64650809Y-96861309D01*
X64460333Y-96861309D01*
X65603190Y-97289880D02*
X65031761Y-97289880D01*
X65317476Y-97289880D02*
X65317476Y-96289880D01*
X65222238Y-96432738D01*
X65127000Y-96527976D01*
X65031761Y-96575595D01*
D12*
X66726714Y-104026380D02*
X66155285Y-104026380D01*
X66441000Y-104026380D02*
X66441000Y-103026380D01*
X66345761Y-103169238D01*
X66250523Y-103264476D01*
X66155285Y-103312095D01*
D13*
X61452904Y-141168380D02*
X61452904Y-140168380D01*
X61691000Y-140168380D01*
X61833857Y-140216000D01*
X61929095Y-140311238D01*
X61976714Y-140406476D01*
X62024333Y-140596952D01*
X62024333Y-140739809D01*
X61976714Y-140930285D01*
X61929095Y-141025523D01*
X61833857Y-141120761D01*
X61691000Y-141168380D01*
X61452904Y-141168380D01*
X62976714Y-141168380D02*
X62405285Y-141168380D01*
X62691000Y-141168380D02*
X62691000Y-140168380D01*
X62595761Y-140311238D01*
X62500523Y-140406476D01*
X62405285Y-140454095D01*
X67437380Y-120930942D02*
X67389761Y-120978561D01*
X67246904Y-121026180D01*
X67151666Y-121026180D01*
X67008809Y-120978561D01*
X66913571Y-120883323D01*
X66865952Y-120788085D01*
X66818333Y-120597609D01*
X66818333Y-120454752D01*
X66865952Y-120264276D01*
X66913571Y-120169038D01*
X67008809Y-120073800D01*
X67151666Y-120026180D01*
X67246904Y-120026180D01*
X67389761Y-120073800D01*
X67437380Y-120121419D01*
X68437380Y-121026180D02*
X68104047Y-120549990D01*
X67865952Y-121026180D02*
X67865952Y-120026180D01*
X68246904Y-120026180D01*
X68342142Y-120073800D01*
X68389761Y-120121419D01*
X68437380Y-120216657D01*
X68437380Y-120359514D01*
X68389761Y-120454752D01*
X68342142Y-120502371D01*
X68246904Y-120549990D01*
X67865952Y-120549990D01*
X68865952Y-120026180D02*
X68865952Y-120835704D01*
X68913571Y-120930942D01*
X68961190Y-120978561D01*
X69056428Y-121026180D01*
X69246904Y-121026180D01*
X69342142Y-120978561D01*
X69389761Y-120930942D01*
X69437380Y-120835704D01*
X69437380Y-120026180D01*
X70246904Y-120502371D02*
X70389761Y-120549990D01*
X70437380Y-120597609D01*
X70485000Y-120692847D01*
X70485000Y-120835704D01*
X70437380Y-120930942D01*
X70389761Y-120978561D01*
X70294523Y-121026180D01*
X69913571Y-121026180D01*
X69913571Y-120026180D01*
X70246904Y-120026180D01*
X70342142Y-120073800D01*
X70389761Y-120121419D01*
X70437380Y-120216657D01*
X70437380Y-120311895D01*
X70389761Y-120407133D01*
X70342142Y-120454752D01*
X70246904Y-120502371D01*
X69913571Y-120502371D01*
X70865952Y-120740466D02*
X71342142Y-120740466D01*
X70770714Y-121026180D02*
X71104047Y-120026180D01*
X71437380Y-121026180D01*
X71723095Y-120978561D02*
X71865952Y-121026180D01*
X72104047Y-121026180D01*
X72199285Y-120978561D01*
X72246904Y-120930942D01*
X72294523Y-120835704D01*
X72294523Y-120740466D01*
X72246904Y-120645228D01*
X72199285Y-120597609D01*
X72104047Y-120549990D01*
X71913571Y-120502371D01*
X71818333Y-120454752D01*
X71770714Y-120407133D01*
X71723095Y-120311895D01*
X71723095Y-120216657D01*
X71770714Y-120121419D01*
X71818333Y-120073800D01*
X71913571Y-120026180D01*
X72151666Y-120026180D01*
X72294523Y-120073800D01*
X72723095Y-120502371D02*
X73056428Y-120502371D01*
X73199285Y-121026180D02*
X72723095Y-121026180D01*
X72723095Y-120026180D01*
X73199285Y-120026180D01*
X74151666Y-121026180D02*
X73580238Y-121026180D01*
X73865952Y-121026180D02*
X73865952Y-120026180D01*
X73770714Y-120169038D01*
X73675476Y-120264276D01*
X73580238Y-120311895D01*
X68738761Y-143600419D02*
X68643523Y-143552800D01*
X68548285Y-143457561D01*
X68405428Y-143314704D01*
X68310190Y-143267085D01*
X68214952Y-143267085D01*
X68262571Y-143505180D02*
X68167333Y-143457561D01*
X68072095Y-143362323D01*
X68024476Y-143171847D01*
X68024476Y-142838514D01*
X68072095Y-142648038D01*
X68167333Y-142552800D01*
X68262571Y-142505180D01*
X68453047Y-142505180D01*
X68548285Y-142552800D01*
X68643523Y-142648038D01*
X68691142Y-142838514D01*
X68691142Y-143171847D01*
X68643523Y-143362323D01*
X68548285Y-143457561D01*
X68453047Y-143505180D01*
X68262571Y-143505180D01*
X69643523Y-143505180D02*
X69072095Y-143505180D01*
X69357809Y-143505180D02*
X69357809Y-142505180D01*
X69262571Y-142648038D01*
X69167333Y-142743276D01*
X69072095Y-142790895D01*
X70191333Y-137282180D02*
X69858000Y-136805990D01*
X69619904Y-137282180D02*
X69619904Y-136282180D01*
X70000857Y-136282180D01*
X70096095Y-136329800D01*
X70143714Y-136377419D01*
X70191333Y-136472657D01*
X70191333Y-136615514D01*
X70143714Y-136710752D01*
X70096095Y-136758371D01*
X70000857Y-136805990D01*
X69619904Y-136805990D01*
X71143714Y-137282180D02*
X70572285Y-137282180D01*
X70858000Y-137282180D02*
X70858000Y-136282180D01*
X70762761Y-136425038D01*
X70667523Y-136520276D01*
X70572285Y-136567895D01*
X67143333Y-134996180D02*
X66810000Y-134519990D01*
X66571904Y-134996180D02*
X66571904Y-133996180D01*
X66952857Y-133996180D01*
X67048095Y-134043800D01*
X67095714Y-134091419D01*
X67143333Y-134186657D01*
X67143333Y-134329514D01*
X67095714Y-134424752D01*
X67048095Y-134472371D01*
X66952857Y-134519990D01*
X66571904Y-134519990D01*
X67524285Y-134091419D02*
X67571904Y-134043800D01*
X67667142Y-133996180D01*
X67905238Y-133996180D01*
X68000476Y-134043800D01*
X68048095Y-134091419D01*
X68095714Y-134186657D01*
X68095714Y-134281895D01*
X68048095Y-134424752D01*
X67476666Y-134996180D01*
X68095714Y-134996180D01*
X138049095Y-115327180D02*
X138049095Y-116136704D01*
X138096714Y-116231942D01*
X138144333Y-116279561D01*
X138239571Y-116327180D01*
X138430047Y-116327180D01*
X138525285Y-116279561D01*
X138572904Y-116231942D01*
X138620523Y-116136704D01*
X138620523Y-115327180D01*
X139001476Y-115327180D02*
X139620523Y-115327180D01*
X139287190Y-115708133D01*
X139430047Y-115708133D01*
X139525285Y-115755752D01*
X139572904Y-115803371D01*
X139620523Y-115898609D01*
X139620523Y-116136704D01*
X139572904Y-116231942D01*
X139525285Y-116279561D01*
X139430047Y-116327180D01*
X139144333Y-116327180D01*
X139049095Y-116279561D01*
X139001476Y-116231942D01*
X89622333Y-117501942D02*
X89574714Y-117549561D01*
X89431857Y-117597180D01*
X89336619Y-117597180D01*
X89193761Y-117549561D01*
X89098523Y-117454323D01*
X89050904Y-117359085D01*
X89003285Y-117168609D01*
X89003285Y-117025752D01*
X89050904Y-116835276D01*
X89098523Y-116740038D01*
X89193761Y-116644800D01*
X89336619Y-116597180D01*
X89431857Y-116597180D01*
X89574714Y-116644800D01*
X89622333Y-116692419D01*
X90193761Y-117025752D02*
X90098523Y-116978133D01*
X90050904Y-116930514D01*
X90003285Y-116835276D01*
X90003285Y-116787657D01*
X90050904Y-116692419D01*
X90098523Y-116644800D01*
X90193761Y-116597180D01*
X90384238Y-116597180D01*
X90479476Y-116644800D01*
X90527095Y-116692419D01*
X90574714Y-116787657D01*
X90574714Y-116835276D01*
X90527095Y-116930514D01*
X90479476Y-116978133D01*
X90384238Y-117025752D01*
X90193761Y-117025752D01*
X90098523Y-117073371D01*
X90050904Y-117120990D01*
X90003285Y-117216228D01*
X90003285Y-117406704D01*
X90050904Y-117501942D01*
X90098523Y-117549561D01*
X90193761Y-117597180D01*
X90384238Y-117597180D01*
X90479476Y-117549561D01*
X90527095Y-117501942D01*
X90574714Y-117406704D01*
X90574714Y-117216228D01*
X90527095Y-117120990D01*
X90479476Y-117073371D01*
X90384238Y-117025752D01*
X78192333Y-106675180D02*
X77859000Y-106198990D01*
X77620904Y-106675180D02*
X77620904Y-105675180D01*
X78001857Y-105675180D01*
X78097095Y-105722800D01*
X78144714Y-105770419D01*
X78192333Y-105865657D01*
X78192333Y-106008514D01*
X78144714Y-106103752D01*
X78097095Y-106151371D01*
X78001857Y-106198990D01*
X77620904Y-106198990D01*
X79049476Y-106008514D02*
X79049476Y-106675180D01*
X78811380Y-105627561D02*
X78573285Y-106341847D01*
X79192333Y-106341847D01*
X73112333Y-106675180D02*
X72779000Y-106198990D01*
X72540904Y-106675180D02*
X72540904Y-105675180D01*
X72921857Y-105675180D01*
X73017095Y-105722800D01*
X73064714Y-105770419D01*
X73112333Y-105865657D01*
X73112333Y-106008514D01*
X73064714Y-106103752D01*
X73017095Y-106151371D01*
X72921857Y-106198990D01*
X72540904Y-106198990D01*
X74017095Y-105675180D02*
X73540904Y-105675180D01*
X73493285Y-106151371D01*
X73540904Y-106103752D01*
X73636142Y-106056133D01*
X73874238Y-106056133D01*
X73969476Y-106103752D01*
X74017095Y-106151371D01*
X74064714Y-106246609D01*
X74064714Y-106484704D01*
X74017095Y-106579942D01*
X73969476Y-106627561D01*
X73874238Y-106675180D01*
X73636142Y-106675180D01*
X73540904Y-106627561D01*
X73493285Y-106579942D01*
X68159333Y-106675180D02*
X67826000Y-106198990D01*
X67587904Y-106675180D02*
X67587904Y-105675180D01*
X67968857Y-105675180D01*
X68064095Y-105722800D01*
X68111714Y-105770419D01*
X68159333Y-105865657D01*
X68159333Y-106008514D01*
X68111714Y-106103752D01*
X68064095Y-106151371D01*
X67968857Y-106198990D01*
X67587904Y-106198990D01*
X69016476Y-105675180D02*
X68826000Y-105675180D01*
X68730761Y-105722800D01*
X68683142Y-105770419D01*
X68587904Y-105913276D01*
X68540285Y-106103752D01*
X68540285Y-106484704D01*
X68587904Y-106579942D01*
X68635523Y-106627561D01*
X68730761Y-106675180D01*
X68921238Y-106675180D01*
X69016476Y-106627561D01*
X69064095Y-106579942D01*
X69111714Y-106484704D01*
X69111714Y-106246609D01*
X69064095Y-106151371D01*
X69016476Y-106103752D01*
X68921238Y-106056133D01*
X68730761Y-106056133D01*
X68635523Y-106103752D01*
X68587904Y-106151371D01*
X68540285Y-106246609D01*
X78021833Y-125312442D02*
X77974214Y-125360061D01*
X77831357Y-125407680D01*
X77736119Y-125407680D01*
X77593261Y-125360061D01*
X77498023Y-125264823D01*
X77450404Y-125169585D01*
X77402785Y-124979109D01*
X77402785Y-124836252D01*
X77450404Y-124645776D01*
X77498023Y-124550538D01*
X77593261Y-124455300D01*
X77736119Y-124407680D01*
X77831357Y-124407680D01*
X77974214Y-124455300D01*
X78021833Y-124502919D01*
X78974214Y-125407680D02*
X78402785Y-125407680D01*
X78688500Y-125407680D02*
X78688500Y-124407680D01*
X78593261Y-124550538D01*
X78498023Y-124645776D01*
X78402785Y-124693395D01*
X76033333Y-130201942D02*
X75985714Y-130249561D01*
X75842857Y-130297180D01*
X75747619Y-130297180D01*
X75604761Y-130249561D01*
X75509523Y-130154323D01*
X75461904Y-130059085D01*
X75414285Y-129868609D01*
X75414285Y-129725752D01*
X75461904Y-129535276D01*
X75509523Y-129440038D01*
X75604761Y-129344800D01*
X75747619Y-129297180D01*
X75842857Y-129297180D01*
X75985714Y-129344800D01*
X76033333Y-129392419D01*
X76414285Y-129392419D02*
X76461904Y-129344800D01*
X76557142Y-129297180D01*
X76795238Y-129297180D01*
X76890476Y-129344800D01*
X76938095Y-129392419D01*
X76985714Y-129487657D01*
X76985714Y-129582895D01*
X76938095Y-129725752D01*
X76366666Y-130297180D01*
X76985714Y-130297180D01*
X115022333Y-124260942D02*
X114974714Y-124308561D01*
X114831857Y-124356180D01*
X114736619Y-124356180D01*
X114593761Y-124308561D01*
X114498523Y-124213323D01*
X114450904Y-124118085D01*
X114403285Y-123927609D01*
X114403285Y-123784752D01*
X114450904Y-123594276D01*
X114498523Y-123499038D01*
X114593761Y-123403800D01*
X114736619Y-123356180D01*
X114831857Y-123356180D01*
X114974714Y-123403800D01*
X115022333Y-123451419D01*
X115355666Y-123356180D02*
X115974714Y-123356180D01*
X115641380Y-123737133D01*
X115784238Y-123737133D01*
X115879476Y-123784752D01*
X115927095Y-123832371D01*
X115974714Y-123927609D01*
X115974714Y-124165704D01*
X115927095Y-124260942D01*
X115879476Y-124308561D01*
X115784238Y-124356180D01*
X115498523Y-124356180D01*
X115403285Y-124308561D01*
X115355666Y-124260942D01*
X112037833Y-109754942D02*
X111990214Y-109802561D01*
X111847357Y-109850180D01*
X111752119Y-109850180D01*
X111609261Y-109802561D01*
X111514023Y-109707323D01*
X111466404Y-109612085D01*
X111418785Y-109421609D01*
X111418785Y-109278752D01*
X111466404Y-109088276D01*
X111514023Y-108993038D01*
X111609261Y-108897800D01*
X111752119Y-108850180D01*
X111847357Y-108850180D01*
X111990214Y-108897800D01*
X112037833Y-108945419D01*
X112894976Y-109183514D02*
X112894976Y-109850180D01*
X112656880Y-108802561D02*
X112418785Y-109516847D01*
X113037833Y-109516847D01*
X98976833Y-107659442D02*
X98929214Y-107707061D01*
X98786357Y-107754680D01*
X98691119Y-107754680D01*
X98548261Y-107707061D01*
X98453023Y-107611823D01*
X98405404Y-107516585D01*
X98357785Y-107326109D01*
X98357785Y-107183252D01*
X98405404Y-106992776D01*
X98453023Y-106897538D01*
X98548261Y-106802300D01*
X98691119Y-106754680D01*
X98786357Y-106754680D01*
X98929214Y-106802300D01*
X98976833Y-106849919D01*
X99310166Y-106754680D02*
X99976833Y-106754680D01*
X99548261Y-107754680D01*
X92416333Y-112774942D02*
X92368714Y-112822561D01*
X92225857Y-112870180D01*
X92130619Y-112870180D01*
X91987761Y-112822561D01*
X91892523Y-112727323D01*
X91844904Y-112632085D01*
X91797285Y-112441609D01*
X91797285Y-112298752D01*
X91844904Y-112108276D01*
X91892523Y-112013038D01*
X91987761Y-111917800D01*
X92130619Y-111870180D01*
X92225857Y-111870180D01*
X92368714Y-111917800D01*
X92416333Y-111965419D01*
X92892523Y-112870180D02*
X93083000Y-112870180D01*
X93178238Y-112822561D01*
X93225857Y-112774942D01*
X93321095Y-112632085D01*
X93368714Y-112441609D01*
X93368714Y-112060657D01*
X93321095Y-111965419D01*
X93273476Y-111917800D01*
X93178238Y-111870180D01*
X92987761Y-111870180D01*
X92892523Y-111917800D01*
X92844904Y-111965419D01*
X92797285Y-112060657D01*
X92797285Y-112298752D01*
X92844904Y-112393990D01*
X92892523Y-112441609D01*
X92987761Y-112489228D01*
X93178238Y-112489228D01*
X93273476Y-112441609D01*
X93321095Y-112393990D01*
X93368714Y-112298752D01*
X122166142Y-113691942D02*
X122118523Y-113739561D01*
X121975666Y-113787180D01*
X121880428Y-113787180D01*
X121737571Y-113739561D01*
X121642333Y-113644323D01*
X121594714Y-113549085D01*
X121547095Y-113358609D01*
X121547095Y-113215752D01*
X121594714Y-113025276D01*
X121642333Y-112930038D01*
X121737571Y-112834800D01*
X121880428Y-112787180D01*
X121975666Y-112787180D01*
X122118523Y-112834800D01*
X122166142Y-112882419D01*
X123118523Y-113787180D02*
X122547095Y-113787180D01*
X122832809Y-113787180D02*
X122832809Y-112787180D01*
X122737571Y-112930038D01*
X122642333Y-113025276D01*
X122547095Y-113072895D01*
X123737571Y-112787180D02*
X123832809Y-112787180D01*
X123928047Y-112834800D01*
X123975666Y-112882419D01*
X124023285Y-112977657D01*
X124070904Y-113168133D01*
X124070904Y-113406228D01*
X124023285Y-113596704D01*
X123975666Y-113691942D01*
X123928047Y-113739561D01*
X123832809Y-113787180D01*
X123737571Y-113787180D01*
X123642333Y-113739561D01*
X123594714Y-113691942D01*
X123547095Y-113596704D01*
X123499476Y-113406228D01*
X123499476Y-113168133D01*
X123547095Y-112977657D01*
X123594714Y-112882419D01*
X123642333Y-112834800D01*
X123737571Y-112787180D01*
X173918642Y-137560642D02*
X173871023Y-137608261D01*
X173728166Y-137655880D01*
X173632928Y-137655880D01*
X173490071Y-137608261D01*
X173394833Y-137513023D01*
X173347214Y-137417785D01*
X173299595Y-137227309D01*
X173299595Y-137084452D01*
X173347214Y-136893976D01*
X173394833Y-136798738D01*
X173490071Y-136703500D01*
X173632928Y-136655880D01*
X173728166Y-136655880D01*
X173871023Y-136703500D01*
X173918642Y-136751119D01*
X174871023Y-137655880D02*
X174299595Y-137655880D01*
X174585309Y-137655880D02*
X174585309Y-136655880D01*
X174490071Y-136798738D01*
X174394833Y-136893976D01*
X174299595Y-136941595D01*
X175823404Y-137655880D02*
X175251976Y-137655880D01*
X175537690Y-137655880D02*
X175537690Y-136655880D01*
X175442452Y-136798738D01*
X175347214Y-136893976D01*
X175251976Y-136941595D01*
X62952333Y-114041180D02*
X62619000Y-113564990D01*
X62380904Y-114041180D02*
X62380904Y-113041180D01*
X62761857Y-113041180D01*
X62857095Y-113088800D01*
X62904714Y-113136419D01*
X62952333Y-113231657D01*
X62952333Y-113374514D01*
X62904714Y-113469752D01*
X62857095Y-113517371D01*
X62761857Y-113564990D01*
X62380904Y-113564990D01*
X63285666Y-113041180D02*
X63904714Y-113041180D01*
X63571380Y-113422133D01*
X63714238Y-113422133D01*
X63809476Y-113469752D01*
X63857095Y-113517371D01*
X63904714Y-113612609D01*
X63904714Y-113850704D01*
X63857095Y-113945942D01*
X63809476Y-113993561D01*
X63714238Y-114041180D01*
X63428523Y-114041180D01*
X63333285Y-113993561D01*
X63285666Y-113945942D01*
X65151095Y-122566180D02*
X65151095Y-123375704D01*
X65198714Y-123470942D01*
X65246333Y-123518561D01*
X65341571Y-123566180D01*
X65532047Y-123566180D01*
X65627285Y-123518561D01*
X65674904Y-123470942D01*
X65722523Y-123375704D01*
X65722523Y-122566180D01*
X66627285Y-122899514D02*
X66627285Y-123566180D01*
X66389190Y-122518561D02*
X66151095Y-123232847D01*
X66770142Y-123232847D01*
M02*
