G04 #@! TF.GenerationSoftware,KiCad,Pcbnew,(5.1.5)-3*
G04 #@! TF.CreationDate,2020-04-27T11:33:16-04:00*
G04 #@! TF.ProjectId,VS-Tipi,56532d54-6970-4692-9e6b-696361645f70,V0*
G04 #@! TF.SameCoordinates,Original*
G04 #@! TF.FileFunction,Legend,Bot*
G04 #@! TF.FilePolarity,Positive*
%FSLAX46Y46*%
G04 Gerber Fmt 4.6, Leading zero omitted, Abs format (unit mm)*
G04 Created by KiCad (PCBNEW (5.1.5)-3) date 2020-04-27 11:33:16*
%MOMM*%
%LPD*%
G04 APERTURE LIST*
%ADD10C,0.025400*%
%ADD11C,0.120000*%
%ADD12C,0.150000*%
G04 APERTURE END LIST*
D10*
X138633200Y-145161000D02*
X140208000Y-143586200D01*
X82296000Y-143586200D02*
X83870800Y-145161000D01*
X176530000Y-118237000D02*
X176530000Y-95504000D01*
X81280000Y-90424000D02*
X141224000Y-90424000D01*
X141224000Y-90424000D02*
X141224000Y-95504000D01*
X81280000Y-95504000D02*
X81280000Y-90424000D01*
X146558000Y-145161000D02*
X176530000Y-145161000D01*
X176530000Y-118237000D02*
G75*
G03X176530000Y-126365000I0J-4064000D01*
G01*
X141224000Y-95504000D02*
X176530000Y-95504000D01*
X83870800Y-145161000D02*
X138633200Y-145161000D01*
X60833000Y-95504000D02*
X81280000Y-95504000D01*
X75438000Y-145161000D02*
X75438000Y-136271000D01*
X60833000Y-145161000D02*
X60833000Y-95504000D01*
X75438000Y-145161000D02*
X60833000Y-145161000D01*
X176530000Y-145161000D02*
X176530000Y-126365000D01*
X146558000Y-136271000D02*
X146558000Y-145161000D01*
X140208000Y-136271000D02*
X146558000Y-136271000D01*
X140208000Y-143586200D02*
X140208000Y-136271000D01*
X82296000Y-136271000D02*
X82296000Y-143586200D01*
X75438000Y-136271000D02*
X82296000Y-136271000D01*
D11*
X85432000Y-98971800D02*
X85432000Y-99971800D01*
X83732000Y-99971800D02*
X83732000Y-98971800D01*
X168970000Y-143172800D02*
X151070000Y-143172800D01*
X168970000Y-107372800D02*
X168970000Y-143172800D01*
X151070000Y-107372800D02*
X168970000Y-107372800D01*
X151070000Y-143172800D02*
X151070000Y-107372800D01*
X166480000Y-143112800D02*
X161020000Y-143112800D01*
X166480000Y-107432800D02*
X166480000Y-143112800D01*
X153560000Y-107432800D02*
X166480000Y-107432800D01*
X153560000Y-143112800D02*
X153560000Y-107432800D01*
X159020000Y-143112800D02*
X153560000Y-143112800D01*
X161020000Y-143112800D02*
G75*
G03X159020000Y-143112800I-1000000J0D01*
G01*
D12*
X84812166Y-103055680D02*
X85145500Y-102579490D01*
X85383595Y-103055680D02*
X85383595Y-102055680D01*
X85002642Y-102055680D01*
X84907404Y-102103300D01*
X84859785Y-102150919D01*
X84812166Y-102246157D01*
X84812166Y-102389014D01*
X84859785Y-102484252D01*
X84907404Y-102531871D01*
X85002642Y-102579490D01*
X85383595Y-102579490D01*
X84478833Y-102055680D02*
X83812166Y-102055680D01*
X84240738Y-103055680D01*
X160781904Y-143565180D02*
X160781904Y-144374704D01*
X160734285Y-144469942D01*
X160686666Y-144517561D01*
X160591428Y-144565180D01*
X160400952Y-144565180D01*
X160305714Y-144517561D01*
X160258095Y-144469942D01*
X160210476Y-144374704D01*
X160210476Y-143565180D01*
X159258095Y-143565180D02*
X159734285Y-143565180D01*
X159781904Y-144041371D01*
X159734285Y-143993752D01*
X159639047Y-143946133D01*
X159400952Y-143946133D01*
X159305714Y-143993752D01*
X159258095Y-144041371D01*
X159210476Y-144136609D01*
X159210476Y-144374704D01*
X159258095Y-144469942D01*
X159305714Y-144517561D01*
X159400952Y-144565180D01*
X159639047Y-144565180D01*
X159734285Y-144517561D01*
X159781904Y-144469942D01*
M02*
