G04 #@! TF.GenerationSoftware,KiCad,Pcbnew,(5.1.5)-3*
G04 #@! TF.CreationDate,2020-04-27T11:33:16-04:00*
G04 #@! TF.ProjectId,VS-Tipi,56532d54-6970-4692-9e6b-696361645f70,V0*
G04 #@! TF.SameCoordinates,Original*
G04 #@! TF.FileFunction,Soldermask,Top*
G04 #@! TF.FilePolarity,Negative*
%FSLAX46Y46*%
G04 Gerber Fmt 4.6, Leading zero omitted, Abs format (unit mm)*
G04 Created by KiCad (PCBNEW (5.1.5)-3) date 2020-04-27 11:33:16*
%MOMM*%
%LPD*%
G04 APERTURE LIST*
%ADD10C,0.025400*%
%ADD11R,2.900000X1.830000*%
%ADD12O,2.100000X1.750000*%
%ADD13O,1.900000X1.500000*%
%ADD14R,2.050000X0.800000*%
%ADD15R,1.900000X2.400000*%
%ADD16R,1.100000X2.225000*%
%ADD17R,2.400000X1.750000*%
%ADD18R,1.650000X1.900000*%
%ADD19O,2.000000X2.000000*%
%ADD20R,2.000000X2.000000*%
%ADD21R,2.127200X2.127200*%
%ADD22O,2.127200X2.127200*%
%ADD23R,2.076400X6.750000*%
%ADD24R,2.000200X6.750000*%
%ADD25R,2.000000X6.750000*%
%ADD26R,1.900000X0.700000*%
%ADD27R,0.700000X1.900000*%
%ADD28R,1.900000X1.650000*%
%ADD29R,2.200000X2.200000*%
%ADD30C,2.200000*%
%ADD31R,2.100000X2.100000*%
%ADD32O,2.100000X2.100000*%
%ADD33R,1.200000X1.300000*%
%ADD34R,1.700000X1.900000*%
%ADD35R,0.806400X1.670000*%
%ADD36R,2.400000X4.200000*%
%ADD37R,2.400000X1.900000*%
G04 APERTURE END LIST*
D10*
X138633200Y-145161000D02*
X140208000Y-143586200D01*
X82296000Y-143586200D02*
X83870800Y-145161000D01*
X176530000Y-118237000D02*
X176530000Y-95504000D01*
X81280000Y-90424000D02*
X141224000Y-90424000D01*
X141224000Y-90424000D02*
X141224000Y-95504000D01*
X81280000Y-95504000D02*
X81280000Y-90424000D01*
X146558000Y-145161000D02*
X176530000Y-145161000D01*
X176530000Y-118237000D02*
G75*
G03X176530000Y-126365000I0J-4064000D01*
G01*
X141224000Y-95504000D02*
X176530000Y-95504000D01*
X83870800Y-145161000D02*
X138633200Y-145161000D01*
X60833000Y-95504000D02*
X81280000Y-95504000D01*
X75438000Y-145161000D02*
X75438000Y-136271000D01*
X60833000Y-145161000D02*
X60833000Y-95504000D01*
X75438000Y-145161000D02*
X60833000Y-145161000D01*
X176530000Y-145161000D02*
X176530000Y-126365000D01*
X146558000Y-136271000D02*
X146558000Y-145161000D01*
X140208000Y-136271000D02*
X146558000Y-136271000D01*
X140208000Y-143586200D02*
X140208000Y-136271000D01*
X82296000Y-136271000D02*
X82296000Y-143586200D01*
X75438000Y-136271000D02*
X82296000Y-136271000D01*
D11*
X175121000Y-101096800D03*
X175121000Y-103016800D03*
D12*
X174851000Y-99326800D03*
X174851000Y-104786800D03*
D13*
X171851000Y-99636800D03*
X171851000Y-104476800D03*
D14*
X171971000Y-100756800D03*
X171971000Y-101406800D03*
X171971000Y-102056800D03*
X171971000Y-102706800D03*
X171971000Y-103356800D03*
D15*
X171851000Y-99156800D03*
X171871000Y-104906800D03*
D16*
X173171000Y-99056800D03*
X173171000Y-105006800D03*
D17*
X173921000Y-104786800D03*
X173921000Y-99306800D03*
D18*
X148463000Y-139643800D03*
X148463000Y-142143800D03*
D19*
X155448000Y-141782800D03*
X170688000Y-108762800D03*
X155448000Y-139242800D03*
X170688000Y-111302800D03*
X155448000Y-136702800D03*
X170688000Y-113842800D03*
X155448000Y-134162800D03*
X170688000Y-116382800D03*
X155448000Y-131622800D03*
X170688000Y-118922800D03*
X155448000Y-129082800D03*
X170688000Y-121462800D03*
X155448000Y-126542800D03*
X170688000Y-124002800D03*
X155448000Y-124002800D03*
X170688000Y-126542800D03*
X155448000Y-121462800D03*
X170688000Y-129082800D03*
X155448000Y-118922800D03*
X170688000Y-131622800D03*
X155448000Y-116382800D03*
X170688000Y-134162800D03*
X155448000Y-113842800D03*
X170688000Y-136702800D03*
X155448000Y-111302800D03*
X170688000Y-139242800D03*
X155448000Y-108762800D03*
D20*
X170688000Y-141782800D03*
D21*
X145923000Y-102235000D03*
D22*
X145923000Y-99695000D03*
X148463000Y-102235000D03*
X148463000Y-99695000D03*
X151003000Y-102235000D03*
X151003000Y-99695000D03*
X153543000Y-102235000D03*
X153543000Y-99695000D03*
X156083000Y-102235000D03*
X156083000Y-99695000D03*
D19*
X167640000Y-141782800D03*
X152400000Y-108762800D03*
X167640000Y-139242800D03*
X152400000Y-111302800D03*
X167640000Y-136702800D03*
X152400000Y-113842800D03*
X167640000Y-134162800D03*
X152400000Y-116382800D03*
X167640000Y-131622800D03*
X152400000Y-118922800D03*
X167640000Y-129082800D03*
X152400000Y-121462800D03*
X167640000Y-126542800D03*
X152400000Y-124002800D03*
X167640000Y-124002800D03*
X152400000Y-126542800D03*
X167640000Y-121462800D03*
X152400000Y-129082800D03*
X167640000Y-118922800D03*
X152400000Y-131622800D03*
X167640000Y-116382800D03*
X152400000Y-134162800D03*
X167640000Y-113842800D03*
X152400000Y-136702800D03*
X167640000Y-111302800D03*
X152400000Y-139242800D03*
X167640000Y-108762800D03*
D20*
X152400000Y-141782800D03*
D23*
X137922000Y-141782800D03*
D24*
X135382000Y-141782800D03*
X132842000Y-141782800D03*
X130302000Y-141782800D03*
X127762000Y-141782800D03*
X125222000Y-141782800D03*
D25*
X122682000Y-141782800D03*
X120142000Y-141782800D03*
X117602000Y-141782800D03*
X115062000Y-141782800D03*
X112522000Y-141782800D03*
X109982000Y-141782800D03*
X107442000Y-141782800D03*
X104902000Y-141782800D03*
X102362000Y-141782800D03*
X99822000Y-141782800D03*
X97282000Y-141782800D03*
X94742000Y-141782800D03*
X92202000Y-141782800D03*
X89662000Y-141782800D03*
X84582000Y-141782800D03*
X87122000Y-141782800D03*
D23*
X137922000Y-93726000D03*
D24*
X135382000Y-93726000D03*
X132842000Y-93726000D03*
X130302000Y-93726000D03*
X127762000Y-93726000D03*
X125222000Y-93726000D03*
D25*
X122682000Y-93726000D03*
X120142000Y-93726000D03*
X117602000Y-93726000D03*
X115062000Y-93726000D03*
X112522000Y-93726000D03*
X109982000Y-93726000D03*
X107442000Y-93726000D03*
X104902000Y-93726000D03*
X102362000Y-93726000D03*
X99822000Y-93726000D03*
X97282000Y-93726000D03*
X94742000Y-93726000D03*
X92202000Y-93726000D03*
X89662000Y-93726000D03*
X84582000Y-93726000D03*
X87122000Y-93726000D03*
D26*
X111459000Y-124491000D03*
X111459000Y-123991000D03*
X111459000Y-123491000D03*
X111459000Y-122991000D03*
X111459000Y-122491000D03*
X111459000Y-121991000D03*
X111459000Y-121491000D03*
X111459000Y-120991000D03*
X111459000Y-120491000D03*
X111459000Y-119991000D03*
X111459000Y-119491000D03*
X111459000Y-118991000D03*
X111459000Y-118491000D03*
X111459000Y-117991000D03*
X111459000Y-117491000D03*
X111459000Y-116991000D03*
X111459000Y-116491000D03*
X111459000Y-115991000D03*
X111459000Y-115491000D03*
X111459000Y-114991000D03*
X111459000Y-114491000D03*
X111459000Y-113991000D03*
X111459000Y-113491000D03*
X111459000Y-112991000D03*
X111459000Y-112491000D03*
D27*
X109759000Y-110791000D03*
X109259000Y-110791000D03*
X108759000Y-110791000D03*
X108259000Y-110791000D03*
X107759000Y-110791000D03*
X107259000Y-110791000D03*
X106759000Y-110791000D03*
X106259000Y-110791000D03*
X105759000Y-110791000D03*
X105259000Y-110791000D03*
X104759000Y-110791000D03*
X104259000Y-110791000D03*
X103759000Y-110791000D03*
X103259000Y-110791000D03*
X102759000Y-110791000D03*
X102259000Y-110791000D03*
X101759000Y-110791000D03*
X101259000Y-110791000D03*
X100759000Y-110791000D03*
X100259000Y-110791000D03*
X99759000Y-110791000D03*
X99259000Y-110791000D03*
X98759000Y-110791000D03*
X98259000Y-110791000D03*
X97759000Y-110791000D03*
D26*
X96059000Y-112491000D03*
X96059000Y-112991000D03*
X96059000Y-113491000D03*
X96059000Y-113991000D03*
X96059000Y-114491000D03*
X96059000Y-114991000D03*
X96059000Y-115491000D03*
X96059000Y-115991000D03*
X96059000Y-116491000D03*
X96059000Y-116991000D03*
X96059000Y-117491000D03*
X96059000Y-117991000D03*
X96059000Y-118491000D03*
X96059000Y-118991000D03*
X96059000Y-119491000D03*
X96059000Y-119991000D03*
X96059000Y-120491000D03*
X96059000Y-120991000D03*
X96059000Y-121491000D03*
X96059000Y-121991000D03*
X96059000Y-122491000D03*
X96059000Y-122991000D03*
X96059000Y-123491000D03*
X96059000Y-123991000D03*
X96059000Y-124491000D03*
D27*
X97759000Y-126191000D03*
X98259000Y-126191000D03*
X98759000Y-126191000D03*
X99259000Y-126191000D03*
X99759000Y-126191000D03*
X100259000Y-126191000D03*
X100759000Y-126191000D03*
X101259000Y-126191000D03*
X101759000Y-126191000D03*
X102259000Y-126191000D03*
X102759000Y-126191000D03*
X103259000Y-126191000D03*
X103759000Y-126191000D03*
X104259000Y-126191000D03*
X104759000Y-126191000D03*
X105259000Y-126191000D03*
X105759000Y-126191000D03*
X106259000Y-126191000D03*
X106759000Y-126191000D03*
X107259000Y-126191000D03*
X107759000Y-126191000D03*
X108259000Y-126191000D03*
X108759000Y-126191000D03*
X109259000Y-126191000D03*
X109759000Y-126191000D03*
D28*
X95865000Y-132130800D03*
X93365000Y-132130800D03*
X91079000Y-124891800D03*
X93579000Y-124891800D03*
D21*
X66421000Y-101854000D03*
D22*
X66421000Y-99314000D03*
X68961000Y-101854000D03*
X68961000Y-99314000D03*
X71501000Y-101854000D03*
X71501000Y-99314000D03*
X74041000Y-101854000D03*
X74041000Y-99314000D03*
X76581000Y-101854000D03*
X76581000Y-99314000D03*
D29*
X65151000Y-141986000D03*
D30*
X65151000Y-139446000D03*
D31*
X75438000Y-115620800D03*
D32*
X75438000Y-118160800D03*
X72898000Y-115620800D03*
X72898000Y-118160800D03*
X70358000Y-115620800D03*
X70358000Y-118160800D03*
X67818000Y-115620800D03*
X67818000Y-118160800D03*
D33*
X72578000Y-141748000D03*
X70678000Y-141748000D03*
X71628000Y-143748000D03*
D34*
X72644000Y-139576800D03*
X72644000Y-136876800D03*
X65151000Y-133320800D03*
X65151000Y-136020800D03*
D35*
X136652000Y-114427000D03*
X136017000Y-114427000D03*
X135356600Y-114427000D03*
X134696200Y-114427000D03*
X134061200Y-114427000D03*
X133400800Y-114427000D03*
X132740400Y-114427000D03*
X132105400Y-114427000D03*
X131445000Y-114427000D03*
X130810000Y-114427000D03*
X130810000Y-119761000D03*
X131445000Y-119761000D03*
X132105400Y-119761000D03*
X132740400Y-119761000D03*
X133400800Y-119761000D03*
X134061200Y-119761000D03*
X134696200Y-119761000D03*
X135356600Y-119761000D03*
X136017000Y-119761000D03*
X136652000Y-119761000D03*
D18*
X92075000Y-115513800D03*
X92075000Y-118013800D03*
D34*
X76581000Y-107285800D03*
X76581000Y-109985800D03*
X71501000Y-107362000D03*
X71501000Y-110062000D03*
X66548000Y-107362000D03*
X66548000Y-110062000D03*
D28*
X73680000Y-124891800D03*
X76180000Y-124891800D03*
D18*
X73914000Y-127324800D03*
X73914000Y-129824800D03*
D28*
X113939000Y-125653800D03*
X116439000Y-125653800D03*
X114340000Y-109524800D03*
X116840000Y-109524800D03*
X103612000Y-107365800D03*
X101112000Y-107365800D03*
X93833000Y-110667800D03*
X91333000Y-110667800D03*
X127869000Y-113461800D03*
X125369000Y-113461800D03*
D18*
X174498000Y-141585000D03*
X174498000Y-139085000D03*
D34*
X63119000Y-115617000D03*
X63119000Y-118317000D03*
D36*
X63906000Y-127381000D03*
D37*
X70206000Y-127381000D03*
X70206000Y-125081000D03*
X70206000Y-129681000D03*
M02*
