G04 #@! TF.GenerationSoftware,KiCad,Pcbnew,(5.1.5)-3*
G04 #@! TF.CreationDate,2020-05-10T09:48:16-04:00*
G04 #@! TF.ProjectId,VS-Tipi,56532d54-6970-4692-9e6b-696361645f70,V1*
G04 #@! TF.SameCoordinates,Original*
G04 #@! TF.FileFunction,Profile,NP*
%FSLAX46Y46*%
G04 Gerber Fmt 4.6, Leading zero omitted, Abs format (unit mm)*
G04 Created by KiCad (PCBNEW (5.1.5)-3) date 2020-05-10 09:48:16*
%MOMM*%
%LPD*%
G04 APERTURE LIST*
%ADD10C,0.100000*%
%ADD11C,0.150000*%
%ADD12C,0.300000*%
%ADD13C,0.400000*%
G04 #@! TA.AperFunction,Profile*
%ADD14C,0.025400*%
G04 #@! TD*
G04 APERTURE END LIST*
D10*
D11*
X159400000Y-171900000D02*
X159400000Y-203900000D01*
X267400000Y-203900000D01*
X267400000Y-171900000D01*
X159400000Y-171900000D01*
D10*
D11*
X10000000Y-10000000D02*
X10000000Y-205900000D01*
X269400000Y-205900000D01*
X269400000Y-10000000D01*
X10000000Y-10000000D01*
D10*
D11*
X12000000Y-12000000D02*
X12000000Y-203900000D01*
X267400000Y-203900000D01*
X267400000Y-12000000D01*
X12000000Y-12000000D01*
D10*
D11*
X60000000Y-12000000D02*
X60000000Y-10000000D01*
D10*
D11*
X110000000Y-12000000D02*
X110000000Y-10000000D01*
D10*
D11*
X160000000Y-12000000D02*
X160000000Y-10000000D01*
D10*
D11*
X210000000Y-12000000D02*
X210000000Y-10000000D01*
D10*
D11*
X260000000Y-12000000D02*
X260000000Y-10000000D01*
D10*
D11*
X36065476Y-11588095D02*
X35322619Y-11588095D01*
X35694047Y-11588095D02*
X35694047Y-10288095D01*
X35570238Y-10473809D01*
X35446428Y-10597619D01*
X35322619Y-10659523D01*
D10*
D11*
X85322619Y-10411904D02*
X85384523Y-10350000D01*
X85508333Y-10288095D01*
X85817857Y-10288095D01*
X85941666Y-10350000D01*
X86003571Y-10411904D01*
X86065476Y-10535714D01*
X86065476Y-10659523D01*
X86003571Y-10845238D01*
X85260714Y-11588095D01*
X86065476Y-11588095D01*
D10*
D11*
X135260714Y-10288095D02*
X136065476Y-10288095D01*
X135632142Y-10783333D01*
X135817857Y-10783333D01*
X135941666Y-10845238D01*
X136003571Y-10907142D01*
X136065476Y-11030952D01*
X136065476Y-11340476D01*
X136003571Y-11464285D01*
X135941666Y-11526190D01*
X135817857Y-11588095D01*
X135446428Y-11588095D01*
X135322619Y-11526190D01*
X135260714Y-11464285D01*
D10*
D11*
X185941666Y-10721428D02*
X185941666Y-11588095D01*
X185632142Y-10226190D02*
X185322619Y-11154761D01*
X186127380Y-11154761D01*
D10*
D11*
X236003571Y-10288095D02*
X235384523Y-10288095D01*
X235322619Y-10907142D01*
X235384523Y-10845238D01*
X235508333Y-10783333D01*
X235817857Y-10783333D01*
X235941666Y-10845238D01*
X236003571Y-10907142D01*
X236065476Y-11030952D01*
X236065476Y-11340476D01*
X236003571Y-11464285D01*
X235941666Y-11526190D01*
X235817857Y-11588095D01*
X235508333Y-11588095D01*
X235384523Y-11526190D01*
X235322619Y-11464285D01*
D10*
D11*
X60000000Y-203900000D02*
X60000000Y-205900000D01*
D10*
D11*
X110000000Y-203900000D02*
X110000000Y-205900000D01*
D10*
D11*
X160000000Y-203900000D02*
X160000000Y-205900000D01*
D10*
D11*
X210000000Y-203900000D02*
X210000000Y-205900000D01*
D10*
D11*
X260000000Y-203900000D02*
X260000000Y-205900000D01*
D10*
D11*
X36065476Y-205488095D02*
X35322619Y-205488095D01*
X35694047Y-205488095D02*
X35694047Y-204188095D01*
X35570238Y-204373809D01*
X35446428Y-204497619D01*
X35322619Y-204559523D01*
D10*
D11*
X85322619Y-204311904D02*
X85384523Y-204250000D01*
X85508333Y-204188095D01*
X85817857Y-204188095D01*
X85941666Y-204250000D01*
X86003571Y-204311904D01*
X86065476Y-204435714D01*
X86065476Y-204559523D01*
X86003571Y-204745238D01*
X85260714Y-205488095D01*
X86065476Y-205488095D01*
D10*
D11*
X135260714Y-204188095D02*
X136065476Y-204188095D01*
X135632142Y-204683333D01*
X135817857Y-204683333D01*
X135941666Y-204745238D01*
X136003571Y-204807142D01*
X136065476Y-204930952D01*
X136065476Y-205240476D01*
X136003571Y-205364285D01*
X135941666Y-205426190D01*
X135817857Y-205488095D01*
X135446428Y-205488095D01*
X135322619Y-205426190D01*
X135260714Y-205364285D01*
D10*
D11*
X185941666Y-204621428D02*
X185941666Y-205488095D01*
X185632142Y-204126190D02*
X185322619Y-205054761D01*
X186127380Y-205054761D01*
D10*
D11*
X236003571Y-204188095D02*
X235384523Y-204188095D01*
X235322619Y-204807142D01*
X235384523Y-204745238D01*
X235508333Y-204683333D01*
X235817857Y-204683333D01*
X235941666Y-204745238D01*
X236003571Y-204807142D01*
X236065476Y-204930952D01*
X236065476Y-205240476D01*
X236003571Y-205364285D01*
X235941666Y-205426190D01*
X235817857Y-205488095D01*
X235508333Y-205488095D01*
X235384523Y-205426190D01*
X235322619Y-205364285D01*
D10*
D11*
X10000000Y-60000000D02*
X12000000Y-60000000D01*
D10*
D11*
X10000000Y-110000000D02*
X12000000Y-110000000D01*
D10*
D11*
X10000000Y-160000000D02*
X12000000Y-160000000D01*
D10*
D11*
X10690476Y-35216666D02*
X11309523Y-35216666D01*
X10566666Y-35588095D02*
X11000000Y-34288095D01*
X11433333Y-35588095D01*
D10*
D11*
X11092857Y-84907142D02*
X11278571Y-84969047D01*
X11340476Y-85030952D01*
X11402380Y-85154761D01*
X11402380Y-85340476D01*
X11340476Y-85464285D01*
X11278571Y-85526190D01*
X11154761Y-85588095D01*
X10659523Y-85588095D01*
X10659523Y-84288095D01*
X11092857Y-84288095D01*
X11216666Y-84350000D01*
X11278571Y-84411904D01*
X11340476Y-84535714D01*
X11340476Y-84659523D01*
X11278571Y-84783333D01*
X11216666Y-84845238D01*
X11092857Y-84907142D01*
X10659523Y-84907142D01*
D10*
D11*
X11402380Y-135464285D02*
X11340476Y-135526190D01*
X11154761Y-135588095D01*
X11030952Y-135588095D01*
X10845238Y-135526190D01*
X10721428Y-135402380D01*
X10659523Y-135278571D01*
X10597619Y-135030952D01*
X10597619Y-134845238D01*
X10659523Y-134597619D01*
X10721428Y-134473809D01*
X10845238Y-134350000D01*
X11030952Y-134288095D01*
X11154761Y-134288095D01*
X11340476Y-134350000D01*
X11402380Y-134411904D01*
D10*
D11*
X10659523Y-185588095D02*
X10659523Y-184288095D01*
X10969047Y-184288095D01*
X11154761Y-184350000D01*
X11278571Y-184473809D01*
X11340476Y-184597619D01*
X11402380Y-184845238D01*
X11402380Y-185030952D01*
X11340476Y-185278571D01*
X11278571Y-185402380D01*
X11154761Y-185526190D01*
X10969047Y-185588095D01*
X10659523Y-185588095D01*
D10*
D11*
X269400000Y-60000000D02*
X267400000Y-60000000D01*
D10*
D11*
X269400000Y-110000000D02*
X267400000Y-110000000D01*
D10*
D11*
X269400000Y-160000000D02*
X267400000Y-160000000D01*
D10*
D11*
X268090476Y-35216666D02*
X268709523Y-35216666D01*
X267966666Y-35588095D02*
X268400000Y-34288095D01*
X268833333Y-35588095D01*
D10*
D11*
X268492857Y-84907142D02*
X268678571Y-84969047D01*
X268740476Y-85030952D01*
X268802380Y-85154761D01*
X268802380Y-85340476D01*
X268740476Y-85464285D01*
X268678571Y-85526190D01*
X268554761Y-85588095D01*
X268059523Y-85588095D01*
X268059523Y-84288095D01*
X268492857Y-84288095D01*
X268616666Y-84350000D01*
X268678571Y-84411904D01*
X268740476Y-84535714D01*
X268740476Y-84659523D01*
X268678571Y-84783333D01*
X268616666Y-84845238D01*
X268492857Y-84907142D01*
X268059523Y-84907142D01*
D10*
D11*
X268802380Y-135464285D02*
X268740476Y-135526190D01*
X268554761Y-135588095D01*
X268430952Y-135588095D01*
X268245238Y-135526190D01*
X268121428Y-135402380D01*
X268059523Y-135278571D01*
X267997619Y-135030952D01*
X267997619Y-134845238D01*
X268059523Y-134597619D01*
X268121428Y-134473809D01*
X268245238Y-134350000D01*
X268430952Y-134288095D01*
X268554761Y-134288095D01*
X268740476Y-134350000D01*
X268802380Y-134411904D01*
D10*
D11*
X268059523Y-185588095D02*
X268059523Y-184288095D01*
X268369047Y-184288095D01*
X268554761Y-184350000D01*
X268678571Y-184473809D01*
X268740476Y-184597619D01*
X268802380Y-184845238D01*
X268802380Y-185030952D01*
X268740476Y-185278571D01*
X268678571Y-185402380D01*
X268554761Y-185526190D01*
X268369047Y-185588095D01*
X268059523Y-185588095D01*
D10*
D11*
X182832142Y-199678571D02*
X182832142Y-198178571D01*
X183189285Y-198178571D01*
X183403571Y-198250000D01*
X183546428Y-198392857D01*
X183617857Y-198535714D01*
X183689285Y-198821428D01*
X183689285Y-199035714D01*
X183617857Y-199321428D01*
X183546428Y-199464285D01*
X183403571Y-199607142D01*
X183189285Y-199678571D01*
X182832142Y-199678571D01*
X184975000Y-199678571D02*
X184975000Y-198892857D01*
X184903571Y-198750000D01*
X184760714Y-198678571D01*
X184475000Y-198678571D01*
X184332142Y-198750000D01*
X184975000Y-199607142D02*
X184832142Y-199678571D01*
X184475000Y-199678571D01*
X184332142Y-199607142D01*
X184260714Y-199464285D01*
X184260714Y-199321428D01*
X184332142Y-199178571D01*
X184475000Y-199107142D01*
X184832142Y-199107142D01*
X184975000Y-199035714D01*
X185475000Y-198678571D02*
X186046428Y-198678571D01*
X185689285Y-198178571D02*
X185689285Y-199464285D01*
X185760714Y-199607142D01*
X185903571Y-199678571D01*
X186046428Y-199678571D01*
X187117857Y-199607142D02*
X186975000Y-199678571D01*
X186689285Y-199678571D01*
X186546428Y-199607142D01*
X186475000Y-199464285D01*
X186475000Y-198892857D01*
X186546428Y-198750000D01*
X186689285Y-198678571D01*
X186975000Y-198678571D01*
X187117857Y-198750000D01*
X187189285Y-198892857D01*
X187189285Y-199035714D01*
X186475000Y-199178571D01*
X187832142Y-199535714D02*
X187903571Y-199607142D01*
X187832142Y-199678571D01*
X187760714Y-199607142D01*
X187832142Y-199535714D01*
X187832142Y-199678571D01*
X187832142Y-198750000D02*
X187903571Y-198821428D01*
X187832142Y-198892857D01*
X187760714Y-198821428D01*
X187832142Y-198750000D01*
X187832142Y-198892857D01*
X189617857Y-198321428D02*
X189689285Y-198250000D01*
X189832142Y-198178571D01*
X190189285Y-198178571D01*
X190332142Y-198250000D01*
X190403571Y-198321428D01*
X190475000Y-198464285D01*
X190475000Y-198607142D01*
X190403571Y-198821428D01*
X189546428Y-199678571D01*
X190475000Y-199678571D01*
X191403571Y-198178571D02*
X191546428Y-198178571D01*
X191689285Y-198250000D01*
X191760714Y-198321428D01*
X191832142Y-198464285D01*
X191903571Y-198750000D01*
X191903571Y-199107142D01*
X191832142Y-199392857D01*
X191760714Y-199535714D01*
X191689285Y-199607142D01*
X191546428Y-199678571D01*
X191403571Y-199678571D01*
X191260714Y-199607142D01*
X191189285Y-199535714D01*
X191117857Y-199392857D01*
X191046428Y-199107142D01*
X191046428Y-198750000D01*
X191117857Y-198464285D01*
X191189285Y-198321428D01*
X191260714Y-198250000D01*
X191403571Y-198178571D01*
X192475000Y-198321428D02*
X192546428Y-198250000D01*
X192689285Y-198178571D01*
X193046428Y-198178571D01*
X193189285Y-198250000D01*
X193260714Y-198321428D01*
X193332142Y-198464285D01*
X193332142Y-198607142D01*
X193260714Y-198821428D01*
X192403571Y-199678571D01*
X193332142Y-199678571D01*
X194260714Y-198178571D02*
X194403571Y-198178571D01*
X194546428Y-198250000D01*
X194617857Y-198321428D01*
X194689285Y-198464285D01*
X194760714Y-198750000D01*
X194760714Y-199107142D01*
X194689285Y-199392857D01*
X194617857Y-199535714D01*
X194546428Y-199607142D01*
X194403571Y-199678571D01*
X194260714Y-199678571D01*
X194117857Y-199607142D01*
X194046428Y-199535714D01*
X193975000Y-199392857D01*
X193903571Y-199107142D01*
X193903571Y-198750000D01*
X193975000Y-198464285D01*
X194046428Y-198321428D01*
X194117857Y-198250000D01*
X194260714Y-198178571D01*
X195403571Y-199107142D02*
X196546428Y-199107142D01*
X197546428Y-198178571D02*
X197689285Y-198178571D01*
X197832142Y-198250000D01*
X197903571Y-198321428D01*
X197975000Y-198464285D01*
X198046428Y-198750000D01*
X198046428Y-199107142D01*
X197975000Y-199392857D01*
X197903571Y-199535714D01*
X197832142Y-199607142D01*
X197689285Y-199678571D01*
X197546428Y-199678571D01*
X197403571Y-199607142D01*
X197332142Y-199535714D01*
X197260714Y-199392857D01*
X197189285Y-199107142D01*
X197189285Y-198750000D01*
X197260714Y-198464285D01*
X197332142Y-198321428D01*
X197403571Y-198250000D01*
X197546428Y-198178571D01*
X199403571Y-198178571D02*
X198689285Y-198178571D01*
X198617857Y-198892857D01*
X198689285Y-198821428D01*
X198832142Y-198750000D01*
X199189285Y-198750000D01*
X199332142Y-198821428D01*
X199403571Y-198892857D01*
X199475000Y-199035714D01*
X199475000Y-199392857D01*
X199403571Y-199535714D01*
X199332142Y-199607142D01*
X199189285Y-199678571D01*
X198832142Y-199678571D01*
X198689285Y-199607142D01*
X198617857Y-199535714D01*
X200117857Y-199107142D02*
X201260714Y-199107142D01*
X202260714Y-198178571D02*
X202403571Y-198178571D01*
X202546428Y-198250000D01*
X202617857Y-198321428D01*
X202689285Y-198464285D01*
X202760714Y-198750000D01*
X202760714Y-199107142D01*
X202689285Y-199392857D01*
X202617857Y-199535714D01*
X202546428Y-199607142D01*
X202403571Y-199678571D01*
X202260714Y-199678571D01*
X202117857Y-199607142D01*
X202046428Y-199535714D01*
X201975000Y-199392857D01*
X201903571Y-199107142D01*
X201903571Y-198750000D01*
X201975000Y-198464285D01*
X202046428Y-198321428D01*
X202117857Y-198250000D01*
X202260714Y-198178571D01*
X203475000Y-199678571D02*
X203760714Y-199678571D01*
X203903571Y-199607142D01*
X203975000Y-199535714D01*
X204117857Y-199321428D01*
X204189285Y-199035714D01*
X204189285Y-198464285D01*
X204117857Y-198321428D01*
X204046428Y-198250000D01*
X203903571Y-198178571D01*
X203617857Y-198178571D01*
X203475000Y-198250000D01*
X203403571Y-198321428D01*
X203332142Y-198464285D01*
X203332142Y-198821428D01*
X203403571Y-198964285D01*
X203475000Y-199035714D01*
X203617857Y-199107142D01*
X203903571Y-199107142D01*
X204046428Y-199035714D01*
X204117857Y-198964285D01*
X204189285Y-198821428D01*
D10*
D11*
X159400000Y-200400000D02*
X267400000Y-200400000D01*
D10*
D11*
X160832142Y-202478571D02*
X160832142Y-200978571D01*
X161689285Y-202478571D02*
X161046428Y-201621428D01*
X161689285Y-200978571D02*
X160832142Y-201835714D01*
X162332142Y-202478571D02*
X162332142Y-201478571D01*
X162332142Y-200978571D02*
X162260714Y-201050000D01*
X162332142Y-201121428D01*
X162403571Y-201050000D01*
X162332142Y-200978571D01*
X162332142Y-201121428D01*
X163903571Y-202335714D02*
X163832142Y-202407142D01*
X163617857Y-202478571D01*
X163475000Y-202478571D01*
X163260714Y-202407142D01*
X163117857Y-202264285D01*
X163046428Y-202121428D01*
X162975000Y-201835714D01*
X162975000Y-201621428D01*
X163046428Y-201335714D01*
X163117857Y-201192857D01*
X163260714Y-201050000D01*
X163475000Y-200978571D01*
X163617857Y-200978571D01*
X163832142Y-201050000D01*
X163903571Y-201121428D01*
X165189285Y-202478571D02*
X165189285Y-201692857D01*
X165117857Y-201550000D01*
X164975000Y-201478571D01*
X164689285Y-201478571D01*
X164546428Y-201550000D01*
X165189285Y-202407142D02*
X165046428Y-202478571D01*
X164689285Y-202478571D01*
X164546428Y-202407142D01*
X164475000Y-202264285D01*
X164475000Y-202121428D01*
X164546428Y-201978571D01*
X164689285Y-201907142D01*
X165046428Y-201907142D01*
X165189285Y-201835714D01*
X166546428Y-202478571D02*
X166546428Y-200978571D01*
X166546428Y-202407142D02*
X166403571Y-202478571D01*
X166117857Y-202478571D01*
X165975000Y-202407142D01*
X165903571Y-202335714D01*
X165832142Y-202192857D01*
X165832142Y-201764285D01*
X165903571Y-201621428D01*
X165975000Y-201550000D01*
X166117857Y-201478571D01*
X166403571Y-201478571D01*
X166546428Y-201550000D01*
X168403571Y-201692857D02*
X168903571Y-201692857D01*
X169117857Y-202478571D02*
X168403571Y-202478571D01*
X168403571Y-200978571D01*
X169117857Y-200978571D01*
X169760714Y-202335714D02*
X169832142Y-202407142D01*
X169760714Y-202478571D01*
X169689285Y-202407142D01*
X169760714Y-202335714D01*
X169760714Y-202478571D01*
X170475000Y-202478571D02*
X170475000Y-200978571D01*
X170832142Y-200978571D01*
X171046428Y-201050000D01*
X171189285Y-201192857D01*
X171260714Y-201335714D01*
X171332142Y-201621428D01*
X171332142Y-201835714D01*
X171260714Y-202121428D01*
X171189285Y-202264285D01*
X171046428Y-202407142D01*
X170832142Y-202478571D01*
X170475000Y-202478571D01*
X171975000Y-202335714D02*
X172046428Y-202407142D01*
X171975000Y-202478571D01*
X171903571Y-202407142D01*
X171975000Y-202335714D01*
X171975000Y-202478571D01*
X172617857Y-202050000D02*
X173332142Y-202050000D01*
X172475000Y-202478571D02*
X172975000Y-200978571D01*
X173475000Y-202478571D01*
X173975000Y-202335714D02*
X174046428Y-202407142D01*
X173975000Y-202478571D01*
X173903571Y-202407142D01*
X173975000Y-202335714D01*
X173975000Y-202478571D01*
X176975000Y-201478571D02*
X176975000Y-202978571D01*
X176975000Y-201550000D02*
X177117857Y-201478571D01*
X177403571Y-201478571D01*
X177546428Y-201550000D01*
X177617857Y-201621428D01*
X177689285Y-201764285D01*
X177689285Y-202192857D01*
X177617857Y-202335714D01*
X177546428Y-202407142D01*
X177403571Y-202478571D01*
X177117857Y-202478571D01*
X176975000Y-202407142D01*
X178975000Y-202407142D02*
X178832142Y-202478571D01*
X178546428Y-202478571D01*
X178403571Y-202407142D01*
X178332142Y-202335714D01*
X178260714Y-202192857D01*
X178260714Y-201764285D01*
X178332142Y-201621428D01*
X178403571Y-201550000D01*
X178546428Y-201478571D01*
X178832142Y-201478571D01*
X178975000Y-201550000D01*
X179617857Y-202478571D02*
X179617857Y-200978571D01*
X179617857Y-201550000D02*
X179760714Y-201478571D01*
X180046428Y-201478571D01*
X180189285Y-201550000D01*
X180260714Y-201621428D01*
X180332142Y-201764285D01*
X180332142Y-202192857D01*
X180260714Y-202335714D01*
X180189285Y-202407142D01*
X180046428Y-202478571D01*
X179760714Y-202478571D01*
X179617857Y-202407142D01*
X180975000Y-201478571D02*
X180975000Y-202478571D01*
X180975000Y-201621428D02*
X181046428Y-201550000D01*
X181189285Y-201478571D01*
X181403571Y-201478571D01*
X181546428Y-201550000D01*
X181617857Y-201692857D01*
X181617857Y-202478571D01*
X182903571Y-202407142D02*
X182760714Y-202478571D01*
X182475000Y-202478571D01*
X182332142Y-202407142D01*
X182260714Y-202264285D01*
X182260714Y-201692857D01*
X182332142Y-201550000D01*
X182475000Y-201478571D01*
X182760714Y-201478571D01*
X182903571Y-201550000D01*
X182975000Y-201692857D01*
X182975000Y-201835714D01*
X182260714Y-201978571D01*
X183475000Y-201478571D02*
X183760714Y-202478571D01*
X184046428Y-201764285D01*
X184332142Y-202478571D01*
X184617857Y-201478571D01*
X186760714Y-203050000D02*
X186689285Y-202978571D01*
X186546428Y-202764285D01*
X186475000Y-202621428D01*
X186403571Y-202407142D01*
X186332142Y-202050000D01*
X186332142Y-201764285D01*
X186403571Y-201407142D01*
X186475000Y-201192857D01*
X186546428Y-201050000D01*
X186689285Y-200835714D01*
X186760714Y-200764285D01*
X188046428Y-200978571D02*
X187332142Y-200978571D01*
X187260714Y-201692857D01*
X187332142Y-201621428D01*
X187475000Y-201550000D01*
X187832142Y-201550000D01*
X187975000Y-201621428D01*
X188046428Y-201692857D01*
X188117857Y-201835714D01*
X188117857Y-202192857D01*
X188046428Y-202335714D01*
X187975000Y-202407142D01*
X187832142Y-202478571D01*
X187475000Y-202478571D01*
X187332142Y-202407142D01*
X187260714Y-202335714D01*
X188760714Y-202335714D02*
X188832142Y-202407142D01*
X188760714Y-202478571D01*
X188689285Y-202407142D01*
X188760714Y-202335714D01*
X188760714Y-202478571D01*
X190260714Y-202478571D02*
X189403571Y-202478571D01*
X189832142Y-202478571D02*
X189832142Y-200978571D01*
X189689285Y-201192857D01*
X189546428Y-201335714D01*
X189403571Y-201407142D01*
X190903571Y-202335714D02*
X190975000Y-202407142D01*
X190903571Y-202478571D01*
X190832142Y-202407142D01*
X190903571Y-202335714D01*
X190903571Y-202478571D01*
X192332142Y-200978571D02*
X191617857Y-200978571D01*
X191546428Y-201692857D01*
X191617857Y-201621428D01*
X191760714Y-201550000D01*
X192117857Y-201550000D01*
X192260714Y-201621428D01*
X192332142Y-201692857D01*
X192403571Y-201835714D01*
X192403571Y-202192857D01*
X192332142Y-202335714D01*
X192260714Y-202407142D01*
X192117857Y-202478571D01*
X191760714Y-202478571D01*
X191617857Y-202407142D01*
X191546428Y-202335714D01*
X192903571Y-203050000D02*
X192975000Y-202978571D01*
X193117857Y-202764285D01*
X193189285Y-202621428D01*
X193260714Y-202407142D01*
X193332142Y-202050000D01*
X193332142Y-201764285D01*
X193260714Y-201407142D01*
X193189285Y-201192857D01*
X193117857Y-201050000D01*
X192975000Y-200835714D01*
X192903571Y-200764285D01*
X194046428Y-201907142D02*
X195189285Y-201907142D01*
X195760714Y-200978571D02*
X196689285Y-200978571D01*
X196189285Y-201550000D01*
X196403571Y-201550000D01*
X196546428Y-201621428D01*
X196617857Y-201692857D01*
X196689285Y-201835714D01*
X196689285Y-202192857D01*
X196617857Y-202335714D01*
X196546428Y-202407142D01*
X196403571Y-202478571D01*
X195975000Y-202478571D01*
X195832142Y-202407142D01*
X195760714Y-202335714D01*
D10*
D11*
X159400000Y-197400000D02*
X267400000Y-197400000D01*
D10*
D12*
X246809285Y-199678571D02*
X246309285Y-198964285D01*
X245952142Y-199678571D02*
X245952142Y-198178571D01*
X246523571Y-198178571D01*
X246666428Y-198250000D01*
X246737857Y-198321428D01*
X246809285Y-198464285D01*
X246809285Y-198678571D01*
X246737857Y-198821428D01*
X246666428Y-198892857D01*
X246523571Y-198964285D01*
X245952142Y-198964285D01*
X248023571Y-199607142D02*
X247880714Y-199678571D01*
X247595000Y-199678571D01*
X247452142Y-199607142D01*
X247380714Y-199464285D01*
X247380714Y-198892857D01*
X247452142Y-198750000D01*
X247595000Y-198678571D01*
X247880714Y-198678571D01*
X248023571Y-198750000D01*
X248095000Y-198892857D01*
X248095000Y-199035714D01*
X247380714Y-199178571D01*
X248595000Y-198678571D02*
X248952142Y-199678571D01*
X249309285Y-198678571D01*
X249880714Y-199535714D02*
X249952142Y-199607142D01*
X249880714Y-199678571D01*
X249809285Y-199607142D01*
X249880714Y-199535714D01*
X249880714Y-199678571D01*
X249880714Y-198750000D02*
X249952142Y-198821428D01*
X249880714Y-198892857D01*
X249809285Y-198821428D01*
X249880714Y-198750000D01*
X249880714Y-198892857D01*
X251523571Y-198178571D02*
X252023571Y-199678571D01*
X252523571Y-198178571D01*
X253809285Y-199678571D02*
X252952142Y-199678571D01*
X253380714Y-199678571D02*
X253380714Y-198178571D01*
X253237857Y-198392857D01*
X253095000Y-198535714D01*
X252952142Y-198607142D01*
D10*
D11*
X160760714Y-199607142D02*
X160975000Y-199678571D01*
X161332142Y-199678571D01*
X161475000Y-199607142D01*
X161546428Y-199535714D01*
X161617857Y-199392857D01*
X161617857Y-199250000D01*
X161546428Y-199107142D01*
X161475000Y-199035714D01*
X161332142Y-198964285D01*
X161046428Y-198892857D01*
X160903571Y-198821428D01*
X160832142Y-198750000D01*
X160760714Y-198607142D01*
X160760714Y-198464285D01*
X160832142Y-198321428D01*
X160903571Y-198250000D01*
X161046428Y-198178571D01*
X161403571Y-198178571D01*
X161617857Y-198250000D01*
X162260714Y-199678571D02*
X162260714Y-198678571D01*
X162260714Y-198178571D02*
X162189285Y-198250000D01*
X162260714Y-198321428D01*
X162332142Y-198250000D01*
X162260714Y-198178571D01*
X162260714Y-198321428D01*
X162832142Y-198678571D02*
X163617857Y-198678571D01*
X162832142Y-199678571D01*
X163617857Y-199678571D01*
X164760714Y-199607142D02*
X164617857Y-199678571D01*
X164332142Y-199678571D01*
X164189285Y-199607142D01*
X164117857Y-199464285D01*
X164117857Y-198892857D01*
X164189285Y-198750000D01*
X164332142Y-198678571D01*
X164617857Y-198678571D01*
X164760714Y-198750000D01*
X164832142Y-198892857D01*
X164832142Y-199035714D01*
X164117857Y-199178571D01*
X165475000Y-199535714D02*
X165546428Y-199607142D01*
X165475000Y-199678571D01*
X165403571Y-199607142D01*
X165475000Y-199535714D01*
X165475000Y-199678571D01*
X165475000Y-198750000D02*
X165546428Y-198821428D01*
X165475000Y-198892857D01*
X165403571Y-198821428D01*
X165475000Y-198750000D01*
X165475000Y-198892857D01*
X167332142Y-198178571D02*
X167332142Y-199392857D01*
X167403571Y-199535714D01*
X167475000Y-199607142D01*
X167617857Y-199678571D01*
X167903571Y-199678571D01*
X168046428Y-199607142D01*
X168117857Y-199535714D01*
X168189285Y-199392857D01*
X168189285Y-198178571D01*
X168832142Y-199607142D02*
X169046428Y-199678571D01*
X169403571Y-199678571D01*
X169546428Y-199607142D01*
X169617857Y-199535714D01*
X169689285Y-199392857D01*
X169689285Y-199250000D01*
X169617857Y-199107142D01*
X169546428Y-199035714D01*
X169403571Y-198964285D01*
X169117857Y-198892857D01*
X168975000Y-198821428D01*
X168903571Y-198750000D01*
X168832142Y-198607142D01*
X168832142Y-198464285D01*
X168903571Y-198321428D01*
X168975000Y-198250000D01*
X169117857Y-198178571D01*
X169475000Y-198178571D01*
X169689285Y-198250000D01*
X171046428Y-199678571D02*
X170332142Y-199678571D01*
X170332142Y-198178571D01*
X172117857Y-199607142D02*
X171975000Y-199678571D01*
X171689285Y-199678571D01*
X171546428Y-199607142D01*
X171475000Y-199464285D01*
X171475000Y-198892857D01*
X171546428Y-198750000D01*
X171689285Y-198678571D01*
X171975000Y-198678571D01*
X172117857Y-198750000D01*
X172189285Y-198892857D01*
X172189285Y-199035714D01*
X171475000Y-199178571D01*
X172617857Y-198678571D02*
X173189285Y-198678571D01*
X172832142Y-198178571D02*
X172832142Y-199464285D01*
X172903571Y-199607142D01*
X173046428Y-199678571D01*
X173189285Y-199678571D01*
X173475000Y-198678571D02*
X174046428Y-198678571D01*
X173689285Y-198178571D02*
X173689285Y-199464285D01*
X173760714Y-199607142D01*
X173903571Y-199678571D01*
X174046428Y-199678571D01*
X175117857Y-199607142D02*
X174975000Y-199678571D01*
X174689285Y-199678571D01*
X174546428Y-199607142D01*
X174475000Y-199464285D01*
X174475000Y-198892857D01*
X174546428Y-198750000D01*
X174689285Y-198678571D01*
X174975000Y-198678571D01*
X175117857Y-198750000D01*
X175189285Y-198892857D01*
X175189285Y-199035714D01*
X174475000Y-199178571D01*
X175832142Y-199678571D02*
X175832142Y-198678571D01*
X175832142Y-198964285D02*
X175903571Y-198821428D01*
X175975000Y-198750000D01*
X176117857Y-198678571D01*
X176260714Y-198678571D01*
D10*
D11*
X245832142Y-202478571D02*
X245832142Y-200978571D01*
X247189285Y-202478571D02*
X247189285Y-200978571D01*
X247189285Y-202407142D02*
X247046428Y-202478571D01*
X246760714Y-202478571D01*
X246617857Y-202407142D01*
X246546428Y-202335714D01*
X246475000Y-202192857D01*
X246475000Y-201764285D01*
X246546428Y-201621428D01*
X246617857Y-201550000D01*
X246760714Y-201478571D01*
X247046428Y-201478571D01*
X247189285Y-201550000D01*
X247903571Y-202335714D02*
X247975000Y-202407142D01*
X247903571Y-202478571D01*
X247832142Y-202407142D01*
X247903571Y-202335714D01*
X247903571Y-202478571D01*
X247903571Y-201550000D02*
X247975000Y-201621428D01*
X247903571Y-201692857D01*
X247832142Y-201621428D01*
X247903571Y-201550000D01*
X247903571Y-201692857D01*
X250546428Y-202478571D02*
X249689285Y-202478571D01*
X250117857Y-202478571D02*
X250117857Y-200978571D01*
X249975000Y-201192857D01*
X249832142Y-201335714D01*
X249689285Y-201407142D01*
X252260714Y-200907142D02*
X250975000Y-202835714D01*
X253546428Y-202478571D02*
X252689285Y-202478571D01*
X253117857Y-202478571D02*
X253117857Y-200978571D01*
X252975000Y-201192857D01*
X252832142Y-201335714D01*
X252689285Y-201407142D01*
D10*
D11*
X159400000Y-193400000D02*
X267400000Y-193400000D01*
D10*
D13*
X161112380Y-194104761D02*
X162255238Y-194104761D01*
X161433809Y-196104761D02*
X161683809Y-194104761D01*
X162671904Y-196104761D02*
X162838571Y-194771428D01*
X162921904Y-194104761D02*
X162814761Y-194200000D01*
X162898095Y-194295238D01*
X163005238Y-194200000D01*
X162921904Y-194104761D01*
X162898095Y-194295238D01*
X163505238Y-194771428D02*
X164267142Y-194771428D01*
X163874285Y-194104761D02*
X163660000Y-195819047D01*
X163731428Y-196009523D01*
X163910000Y-196104761D01*
X164100476Y-196104761D01*
X165052857Y-196104761D02*
X164874285Y-196009523D01*
X164802857Y-195819047D01*
X165017142Y-194104761D01*
X166588571Y-196009523D02*
X166386190Y-196104761D01*
X166005238Y-196104761D01*
X165826666Y-196009523D01*
X165755238Y-195819047D01*
X165850476Y-195057142D01*
X165969523Y-194866666D01*
X166171904Y-194771428D01*
X166552857Y-194771428D01*
X166731428Y-194866666D01*
X166802857Y-195057142D01*
X166779047Y-195247619D01*
X165802857Y-195438095D01*
X167552857Y-195914285D02*
X167636190Y-196009523D01*
X167529047Y-196104761D01*
X167445714Y-196009523D01*
X167552857Y-195914285D01*
X167529047Y-196104761D01*
X167683809Y-194866666D02*
X167767142Y-194961904D01*
X167660000Y-195057142D01*
X167576666Y-194961904D01*
X167683809Y-194866666D01*
X167660000Y-195057142D01*
X169921904Y-196009523D02*
X170195714Y-196104761D01*
X170671904Y-196104761D01*
X170874285Y-196009523D01*
X170981428Y-195914285D01*
X171100476Y-195723809D01*
X171124285Y-195533333D01*
X171052857Y-195342857D01*
X170969523Y-195247619D01*
X170790952Y-195152380D01*
X170421904Y-195057142D01*
X170243333Y-194961904D01*
X170160000Y-194866666D01*
X170088571Y-194676190D01*
X170112380Y-194485714D01*
X170231428Y-194295238D01*
X170338571Y-194200000D01*
X170540952Y-194104761D01*
X171017142Y-194104761D01*
X171290952Y-194200000D01*
X171826666Y-196009523D02*
X172100476Y-196104761D01*
X172576666Y-196104761D01*
X172779047Y-196009523D01*
X172886190Y-195914285D01*
X173005238Y-195723809D01*
X173029047Y-195533333D01*
X172957619Y-195342857D01*
X172874285Y-195247619D01*
X172695714Y-195152380D01*
X172326666Y-195057142D01*
X172148095Y-194961904D01*
X172064761Y-194866666D01*
X171993333Y-194676190D01*
X172017142Y-194485714D01*
X172136190Y-194295238D01*
X172243333Y-194200000D01*
X172445714Y-194104761D01*
X172921904Y-194104761D01*
X173195714Y-194200000D01*
X173910000Y-195342857D02*
X175433809Y-195342857D01*
X176255238Y-194104761D02*
X177398095Y-194104761D01*
X176576666Y-196104761D02*
X176826666Y-194104761D01*
X177814761Y-196104761D02*
X178064761Y-194104761D01*
X178767142Y-196104761D02*
X179017142Y-194104761D01*
X179779047Y-194104761D01*
X179957619Y-194200000D01*
X180040952Y-194295238D01*
X180112380Y-194485714D01*
X180076666Y-194771428D01*
X179957619Y-194961904D01*
X179850476Y-195057142D01*
X179648095Y-195152380D01*
X178886190Y-195152380D01*
X180767142Y-196104761D02*
X181017142Y-194104761D01*
X183338571Y-195342857D02*
X184862380Y-195342857D01*
X187207619Y-194104761D02*
X188350476Y-194104761D01*
X187529047Y-196104761D02*
X187779047Y-194104761D01*
X188767142Y-196104761D02*
X189017142Y-194104761D01*
X189814761Y-195342857D02*
X191338571Y-195342857D01*
X192290952Y-196104761D02*
X192671904Y-196104761D01*
X192874285Y-196009523D01*
X192981428Y-195914285D01*
X193207619Y-195628571D01*
X193350476Y-195247619D01*
X193445714Y-194485714D01*
X193374285Y-194295238D01*
X193290952Y-194200000D01*
X193112380Y-194104761D01*
X192731428Y-194104761D01*
X192529047Y-194200000D01*
X192421904Y-194295238D01*
X192302857Y-194485714D01*
X192243333Y-194961904D01*
X192314761Y-195152380D01*
X192398095Y-195247619D01*
X192576666Y-195342857D01*
X192957619Y-195342857D01*
X193160000Y-195247619D01*
X193267142Y-195152380D01*
X193386190Y-194961904D01*
X194195714Y-196104761D02*
X194576666Y-196104761D01*
X194779047Y-196009523D01*
X194886190Y-195914285D01*
X195112380Y-195628571D01*
X195255238Y-195247619D01*
X195350476Y-194485714D01*
X195279047Y-194295238D01*
X195195714Y-194200000D01*
X195017142Y-194104761D01*
X194636190Y-194104761D01*
X194433809Y-194200000D01*
X194326666Y-194295238D01*
X194207619Y-194485714D01*
X194148095Y-194961904D01*
X194219523Y-195152380D01*
X194302857Y-195247619D01*
X194481428Y-195342857D01*
X194862380Y-195342857D01*
X195064761Y-195247619D01*
X195171904Y-195152380D01*
X195290952Y-194961904D01*
X197695714Y-194009523D02*
X195660000Y-196580952D01*
X199124285Y-194771428D02*
X198957619Y-196104761D01*
X198743333Y-194009523D02*
X198088571Y-195438095D01*
X199326666Y-195438095D01*
X199981428Y-195533333D02*
X200933809Y-195533333D01*
X199719523Y-196104761D02*
X200636190Y-194104761D01*
X201052857Y-196104761D01*
X203124285Y-194771428D02*
X203886190Y-194771428D01*
X203493333Y-194104761D02*
X203279047Y-195819047D01*
X203350476Y-196009523D01*
X203529047Y-196104761D01*
X203719523Y-196104761D01*
X204671904Y-196104761D02*
X204493333Y-196009523D01*
X204410000Y-195914285D01*
X204338571Y-195723809D01*
X204410000Y-195152380D01*
X204529047Y-194961904D01*
X204636190Y-194866666D01*
X204838571Y-194771428D01*
X205124285Y-194771428D01*
X205302857Y-194866666D01*
X205386190Y-194961904D01*
X205457619Y-195152380D01*
X205386190Y-195723809D01*
X205267142Y-195914285D01*
X205160000Y-196009523D01*
X204957619Y-196104761D01*
X204671904Y-196104761D01*
X208862380Y-196104761D02*
X208314761Y-195152380D01*
X207719523Y-196104761D02*
X207969523Y-194104761D01*
X208731428Y-194104761D01*
X208910000Y-194200000D01*
X208993333Y-194295238D01*
X209064761Y-194485714D01*
X209029047Y-194771428D01*
X208910000Y-194961904D01*
X208802857Y-195057142D01*
X208600476Y-195152380D01*
X207838571Y-195152380D01*
X209719523Y-196104761D02*
X209969523Y-194104761D01*
X210731428Y-194104761D01*
X210910000Y-194200000D01*
X210993333Y-194295238D01*
X211064761Y-194485714D01*
X211029047Y-194771428D01*
X210910000Y-194961904D01*
X210802857Y-195057142D01*
X210600476Y-195152380D01*
X209838571Y-195152380D01*
X211719523Y-196104761D02*
X211886190Y-194771428D01*
X211969523Y-194104761D02*
X211862380Y-194200000D01*
X211945714Y-194295238D01*
X212052857Y-194200000D01*
X211969523Y-194104761D01*
X211945714Y-194295238D01*
X215052857Y-196104761D02*
X215183809Y-195057142D01*
X215112380Y-194866666D01*
X214933809Y-194771428D01*
X214552857Y-194771428D01*
X214350476Y-194866666D01*
X215064761Y-196009523D02*
X214862380Y-196104761D01*
X214386190Y-196104761D01*
X214207619Y-196009523D01*
X214136190Y-195819047D01*
X214160000Y-195628571D01*
X214279047Y-195438095D01*
X214481428Y-195342857D01*
X214957619Y-195342857D01*
X215160000Y-195247619D01*
X216862380Y-196104761D02*
X217112380Y-194104761D01*
X216874285Y-196009523D02*
X216671904Y-196104761D01*
X216290952Y-196104761D01*
X216112380Y-196009523D01*
X216029047Y-195914285D01*
X215957619Y-195723809D01*
X216029047Y-195152380D01*
X216148095Y-194961904D01*
X216255238Y-194866666D01*
X216457619Y-194771428D01*
X216838571Y-194771428D01*
X217017142Y-194866666D01*
X218671904Y-196104761D02*
X218802857Y-195057142D01*
X218731428Y-194866666D01*
X218552857Y-194771428D01*
X218171904Y-194771428D01*
X217969523Y-194866666D01*
X218683809Y-196009523D02*
X218481428Y-196104761D01*
X218005238Y-196104761D01*
X217826666Y-196009523D01*
X217755238Y-195819047D01*
X217779047Y-195628571D01*
X217898095Y-195438095D01*
X218100476Y-195342857D01*
X218576666Y-195342857D01*
X218779047Y-195247619D01*
X219790952Y-194771428D02*
X219540952Y-196771428D01*
X219779047Y-194866666D02*
X219981428Y-194771428D01*
X220362380Y-194771428D01*
X220540952Y-194866666D01*
X220624285Y-194961904D01*
X220695714Y-195152380D01*
X220624285Y-195723809D01*
X220505238Y-195914285D01*
X220398095Y-196009523D01*
X220195714Y-196104761D01*
X219814761Y-196104761D01*
X219636190Y-196009523D01*
X221314761Y-194771428D02*
X222076666Y-194771428D01*
X221683809Y-194104761D02*
X221469523Y-195819047D01*
X221540952Y-196009523D01*
X221719523Y-196104761D01*
X221909999Y-196104761D01*
X223350476Y-196009523D02*
X223148095Y-196104761D01*
X222767142Y-196104761D01*
X222588571Y-196009523D01*
X222517142Y-195819047D01*
X222612380Y-195057142D01*
X222731428Y-194866666D01*
X222933809Y-194771428D01*
X223314761Y-194771428D01*
X223493333Y-194866666D01*
X223564761Y-195057142D01*
X223540952Y-195247619D01*
X222564761Y-195438095D01*
X224290952Y-196104761D02*
X224457619Y-194771428D01*
X224409999Y-195152380D02*
X224529047Y-194961904D01*
X224636190Y-194866666D01*
X224838571Y-194771428D01*
X225029047Y-194771428D01*
X226933809Y-194771428D02*
X227695714Y-194771428D01*
X227052857Y-196104761D02*
X227267142Y-194390476D01*
X227386190Y-194200000D01*
X227588571Y-194104761D01*
X227779047Y-194104761D01*
X228481428Y-196104761D02*
X228302857Y-196009523D01*
X228219523Y-195914285D01*
X228148095Y-195723809D01*
X228219523Y-195152380D01*
X228338571Y-194961904D01*
X228445714Y-194866666D01*
X228648095Y-194771428D01*
X228933809Y-194771428D01*
X229112380Y-194866666D01*
X229195714Y-194961904D01*
X229267142Y-195152380D01*
X229195714Y-195723809D01*
X229076666Y-195914285D01*
X228969523Y-196009523D01*
X228767142Y-196104761D01*
X228481428Y-196104761D01*
X230005238Y-196104761D02*
X230171904Y-194771428D01*
X230124285Y-195152380D02*
X230243333Y-194961904D01*
X230350476Y-194866666D01*
X230552857Y-194771428D01*
X230743333Y-194771428D01*
X232683809Y-196009523D02*
X232957619Y-196104761D01*
X233433809Y-196104761D01*
X233636190Y-196009523D01*
X233743333Y-195914285D01*
X233862380Y-195723809D01*
X233886190Y-195533333D01*
X233814761Y-195342857D01*
X233731428Y-195247619D01*
X233552857Y-195152380D01*
X233183809Y-195057142D01*
X233005238Y-194961904D01*
X232921904Y-194866666D01*
X232850476Y-194676190D01*
X232874285Y-194485714D01*
X232993333Y-194295238D01*
X233100476Y-194200000D01*
X233302857Y-194104761D01*
X233779047Y-194104761D01*
X234052857Y-194200000D01*
X234838571Y-194771428D02*
X234588571Y-196771428D01*
X234826666Y-194866666D02*
X235029047Y-194771428D01*
X235410000Y-194771428D01*
X235588571Y-194866666D01*
X235671904Y-194961904D01*
X235743333Y-195152380D01*
X235671904Y-195723809D01*
X235552857Y-195914285D01*
X235445714Y-196009523D01*
X235243333Y-196104761D01*
X234862380Y-196104761D01*
X234683809Y-196009523D01*
X237255238Y-196009523D02*
X237052857Y-196104761D01*
X236671904Y-196104761D01*
X236493333Y-196009523D01*
X236421904Y-195819047D01*
X236517142Y-195057142D01*
X236636190Y-194866666D01*
X236838571Y-194771428D01*
X237219523Y-194771428D01*
X237398095Y-194866666D01*
X237469523Y-195057142D01*
X237445714Y-195247619D01*
X236469523Y-195438095D01*
X238969523Y-196009523D02*
X238767142Y-196104761D01*
X238386190Y-196104761D01*
X238207619Y-196009523D01*
X238136190Y-195819047D01*
X238231428Y-195057142D01*
X238350476Y-194866666D01*
X238552857Y-194771428D01*
X238933809Y-194771428D01*
X239112380Y-194866666D01*
X239183809Y-195057142D01*
X239159999Y-195247619D01*
X238183809Y-195438095D01*
X240779047Y-196009523D02*
X240576666Y-196104761D01*
X240195714Y-196104761D01*
X240017142Y-196009523D01*
X239933809Y-195914285D01*
X239862380Y-195723809D01*
X239933809Y-195152380D01*
X240052857Y-194961904D01*
X240160000Y-194866666D01*
X240362380Y-194771428D01*
X240743333Y-194771428D01*
X240921904Y-194866666D01*
X241624285Y-196104761D02*
X241874285Y-194104761D01*
X242481428Y-196104761D02*
X242612380Y-195057142D01*
X242540952Y-194866666D01*
X242362380Y-194771428D01*
X242076666Y-194771428D01*
X241874285Y-194866666D01*
X241767142Y-194961904D01*
X244874285Y-196009523D02*
X245148095Y-196104761D01*
X245624285Y-196104761D01*
X245826666Y-196009523D01*
X245933809Y-195914285D01*
X246052857Y-195723809D01*
X246076666Y-195533333D01*
X246005238Y-195342857D01*
X245921904Y-195247619D01*
X245743333Y-195152380D01*
X245374285Y-195057142D01*
X245195714Y-194961904D01*
X245112380Y-194866666D01*
X245040952Y-194676190D01*
X245064761Y-194485714D01*
X245183809Y-194295238D01*
X245290952Y-194200000D01*
X245493333Y-194104761D01*
X245969523Y-194104761D01*
X246243333Y-194200000D01*
X246838571Y-194771428D02*
X247148095Y-196104761D01*
X247790952Y-194771428D02*
X247148095Y-196104761D01*
X246898095Y-196580952D01*
X246790952Y-196676190D01*
X246588571Y-196771428D01*
X248552857Y-194771428D02*
X248386190Y-196104761D01*
X248529047Y-194961904D02*
X248636190Y-194866666D01*
X248838571Y-194771428D01*
X249124285Y-194771428D01*
X249302857Y-194866666D01*
X249374285Y-195057142D01*
X249243333Y-196104761D01*
X250076666Y-194771428D02*
X250838571Y-194771428D01*
X250445714Y-194104761D02*
X250231428Y-195819047D01*
X250302857Y-196009523D01*
X250481428Y-196104761D01*
X250671904Y-196104761D01*
X251338571Y-196104761D02*
X251588571Y-194104761D01*
X252195714Y-196104761D02*
X252326666Y-195057142D01*
X252255238Y-194866666D01*
X252076666Y-194771428D01*
X251790952Y-194771428D01*
X251588571Y-194866666D01*
X251481428Y-194961904D01*
X253171904Y-195914285D02*
X253255238Y-196009523D01*
X253148095Y-196104761D01*
X253064761Y-196009523D01*
X253171904Y-195914285D01*
X253148095Y-196104761D01*
X256790952Y-195914285D02*
X256683809Y-196009523D01*
X256386190Y-196104761D01*
X256195714Y-196104761D01*
X255921904Y-196009523D01*
X255755238Y-195819047D01*
X255683809Y-195628571D01*
X255636190Y-195247619D01*
X255671904Y-194961904D01*
X255814761Y-194580952D01*
X255933809Y-194390476D01*
X256148095Y-194200000D01*
X256445714Y-194104761D01*
X256636190Y-194104761D01*
X256910000Y-194200000D01*
X256993333Y-194295238D01*
X258481428Y-196104761D02*
X258612380Y-195057142D01*
X258540952Y-194866666D01*
X258362380Y-194771428D01*
X257981428Y-194771428D01*
X257779047Y-194866666D01*
X258493333Y-196009523D02*
X258290952Y-196104761D01*
X257814761Y-196104761D01*
X257636190Y-196009523D01*
X257564761Y-195819047D01*
X257588571Y-195628571D01*
X257707619Y-195438095D01*
X257910000Y-195342857D01*
X258386190Y-195342857D01*
X258588571Y-195247619D01*
X259350476Y-196009523D02*
X259529047Y-196104761D01*
X259910000Y-196104761D01*
X260112380Y-196009523D01*
X260231428Y-195819047D01*
X260243333Y-195723809D01*
X260171904Y-195533333D01*
X259993333Y-195438095D01*
X259707619Y-195438095D01*
X259529047Y-195342857D01*
X259457619Y-195152380D01*
X259469523Y-195057142D01*
X259588571Y-194866666D01*
X259790952Y-194771428D01*
X260076666Y-194771428D01*
X260255238Y-194866666D01*
X261826666Y-196009523D02*
X261624285Y-196104761D01*
X261243333Y-196104761D01*
X261064761Y-196009523D01*
X260993333Y-195819047D01*
X261088571Y-195057142D01*
X261207619Y-194866666D01*
X261410000Y-194771428D01*
X261790952Y-194771428D01*
X261969523Y-194866666D01*
X262040952Y-195057142D01*
X262017142Y-195247619D01*
X261040952Y-195438095D01*
D10*
D11*
X161332142Y-191492857D02*
X160832142Y-191492857D01*
X160832142Y-192278571D02*
X160832142Y-190778571D01*
X161546428Y-190778571D01*
X162117857Y-192278571D02*
X162117857Y-191278571D01*
X162117857Y-190778571D02*
X162046428Y-190850000D01*
X162117857Y-190921428D01*
X162189285Y-190850000D01*
X162117857Y-190778571D01*
X162117857Y-190921428D01*
X163046428Y-192278571D02*
X162903571Y-192207142D01*
X162832142Y-192064285D01*
X162832142Y-190778571D01*
X164189285Y-192207142D02*
X164046428Y-192278571D01*
X163760714Y-192278571D01*
X163617857Y-192207142D01*
X163546428Y-192064285D01*
X163546428Y-191492857D01*
X163617857Y-191350000D01*
X163760714Y-191278571D01*
X164046428Y-191278571D01*
X164189285Y-191350000D01*
X164260714Y-191492857D01*
X164260714Y-191635714D01*
X163546428Y-191778571D01*
X164903571Y-192135714D02*
X164975000Y-192207142D01*
X164903571Y-192278571D01*
X164832142Y-192207142D01*
X164903571Y-192135714D01*
X164903571Y-192278571D01*
X164903571Y-191350000D02*
X164975000Y-191421428D01*
X164903571Y-191492857D01*
X164832142Y-191421428D01*
X164903571Y-191350000D01*
X164903571Y-191492857D01*
X166546428Y-190778571D02*
X167046428Y-192278571D01*
X167546428Y-190778571D01*
X167975000Y-192207142D02*
X168189285Y-192278571D01*
X168546428Y-192278571D01*
X168689285Y-192207142D01*
X168760714Y-192135714D01*
X168832142Y-191992857D01*
X168832142Y-191850000D01*
X168760714Y-191707142D01*
X168689285Y-191635714D01*
X168546428Y-191564285D01*
X168260714Y-191492857D01*
X168117857Y-191421428D01*
X168046428Y-191350000D01*
X167975000Y-191207142D01*
X167975000Y-191064285D01*
X168046428Y-190921428D01*
X168117857Y-190850000D01*
X168260714Y-190778571D01*
X168617857Y-190778571D01*
X168832142Y-190850000D01*
X169475000Y-191707142D02*
X170617857Y-191707142D01*
X171117857Y-190778571D02*
X171975000Y-190778571D01*
X171546428Y-192278571D02*
X171546428Y-190778571D01*
X172475000Y-192278571D02*
X172475000Y-191278571D01*
X172475000Y-190778571D02*
X172403571Y-190850000D01*
X172475000Y-190921428D01*
X172546428Y-190850000D01*
X172475000Y-190778571D01*
X172475000Y-190921428D01*
X173189285Y-191278571D02*
X173189285Y-192778571D01*
X173189285Y-191350000D02*
X173332142Y-191278571D01*
X173617857Y-191278571D01*
X173760714Y-191350000D01*
X173832142Y-191421428D01*
X173903571Y-191564285D01*
X173903571Y-191992857D01*
X173832142Y-192135714D01*
X173760714Y-192207142D01*
X173617857Y-192278571D01*
X173332142Y-192278571D01*
X173189285Y-192207142D01*
X174546428Y-192278571D02*
X174546428Y-191278571D01*
X174546428Y-190778571D02*
X174475000Y-190850000D01*
X174546428Y-190921428D01*
X174617857Y-190850000D01*
X174546428Y-190778571D01*
X174546428Y-190921428D01*
X175260714Y-192135714D02*
X175332142Y-192207142D01*
X175260714Y-192278571D01*
X175189285Y-192207142D01*
X175260714Y-192135714D01*
X175260714Y-192278571D01*
X175975000Y-192278571D02*
X175975000Y-190778571D01*
X176117857Y-191707142D02*
X176546428Y-192278571D01*
X176546428Y-191278571D02*
X175975000Y-191850000D01*
X177189285Y-192278571D02*
X177189285Y-191278571D01*
X177189285Y-190778571D02*
X177117857Y-190850000D01*
X177189285Y-190921428D01*
X177260714Y-190850000D01*
X177189285Y-190778571D01*
X177189285Y-190921428D01*
X178546428Y-192207142D02*
X178403571Y-192278571D01*
X178117857Y-192278571D01*
X177975000Y-192207142D01*
X177903571Y-192135714D01*
X177832142Y-191992857D01*
X177832142Y-191564285D01*
X177903571Y-191421428D01*
X177975000Y-191350000D01*
X178117857Y-191278571D01*
X178403571Y-191278571D01*
X178546428Y-191350000D01*
X179832142Y-192278571D02*
X179832142Y-191492857D01*
X179760714Y-191350000D01*
X179617857Y-191278571D01*
X179332142Y-191278571D01*
X179189285Y-191350000D01*
X179832142Y-192207142D02*
X179689285Y-192278571D01*
X179332142Y-192278571D01*
X179189285Y-192207142D01*
X179117857Y-192064285D01*
X179117857Y-191921428D01*
X179189285Y-191778571D01*
X179332142Y-191707142D01*
X179689285Y-191707142D01*
X179832142Y-191635714D01*
X181189285Y-192278571D02*
X181189285Y-190778571D01*
X181189285Y-192207142D02*
X181046428Y-192278571D01*
X180760714Y-192278571D01*
X180617857Y-192207142D01*
X180546428Y-192135714D01*
X180475000Y-191992857D01*
X180475000Y-191564285D01*
X180546428Y-191421428D01*
X180617857Y-191350000D01*
X180760714Y-191278571D01*
X181046428Y-191278571D01*
X181189285Y-191350000D01*
X181546428Y-192421428D02*
X182689285Y-192421428D01*
X183046428Y-191278571D02*
X183046428Y-192778571D01*
X183046428Y-191350000D02*
X183189285Y-191278571D01*
X183475000Y-191278571D01*
X183617857Y-191350000D01*
X183689285Y-191421428D01*
X183760714Y-191564285D01*
X183760714Y-191992857D01*
X183689285Y-192135714D01*
X183617857Y-192207142D01*
X183475000Y-192278571D01*
X183189285Y-192278571D01*
X183046428Y-192207142D01*
X185046428Y-192207142D02*
X184903571Y-192278571D01*
X184617857Y-192278571D01*
X184475000Y-192207142D01*
X184403571Y-192135714D01*
X184332142Y-191992857D01*
X184332142Y-191564285D01*
X184403571Y-191421428D01*
X184475000Y-191350000D01*
X184617857Y-191278571D01*
X184903571Y-191278571D01*
X185046428Y-191350000D01*
X185689285Y-192278571D02*
X185689285Y-190778571D01*
X185689285Y-191350000D02*
X185832142Y-191278571D01*
X186117857Y-191278571D01*
X186260714Y-191350000D01*
X186332142Y-191421428D01*
X186403571Y-191564285D01*
X186403571Y-191992857D01*
X186332142Y-192135714D01*
X186260714Y-192207142D01*
X186117857Y-192278571D01*
X185832142Y-192278571D01*
X185689285Y-192207142D01*
D10*
D11*
X159400000Y-187400000D02*
X267400000Y-187400000D01*
D10*
D11*
X160760714Y-189507142D02*
X160975000Y-189578571D01*
X161332142Y-189578571D01*
X161475000Y-189507142D01*
X161546428Y-189435714D01*
X161617857Y-189292857D01*
X161617857Y-189150000D01*
X161546428Y-189007142D01*
X161475000Y-188935714D01*
X161332142Y-188864285D01*
X161046428Y-188792857D01*
X160903571Y-188721428D01*
X160832142Y-188650000D01*
X160760714Y-188507142D01*
X160760714Y-188364285D01*
X160832142Y-188221428D01*
X160903571Y-188150000D01*
X161046428Y-188078571D01*
X161403571Y-188078571D01*
X161617857Y-188150000D01*
X162260714Y-189578571D02*
X162260714Y-188078571D01*
X162903571Y-189578571D02*
X162903571Y-188792857D01*
X162832142Y-188650000D01*
X162689285Y-188578571D01*
X162475000Y-188578571D01*
X162332142Y-188650000D01*
X162260714Y-188721428D01*
X164189285Y-189507142D02*
X164046428Y-189578571D01*
X163760714Y-189578571D01*
X163617857Y-189507142D01*
X163546428Y-189364285D01*
X163546428Y-188792857D01*
X163617857Y-188650000D01*
X163760714Y-188578571D01*
X164046428Y-188578571D01*
X164189285Y-188650000D01*
X164260714Y-188792857D01*
X164260714Y-188935714D01*
X163546428Y-189078571D01*
X165475000Y-189507142D02*
X165332142Y-189578571D01*
X165046428Y-189578571D01*
X164903571Y-189507142D01*
X164832142Y-189364285D01*
X164832142Y-188792857D01*
X164903571Y-188650000D01*
X165046428Y-188578571D01*
X165332142Y-188578571D01*
X165475000Y-188650000D01*
X165546428Y-188792857D01*
X165546428Y-188935714D01*
X164832142Y-189078571D01*
X165975000Y-188578571D02*
X166546428Y-188578571D01*
X166189285Y-188078571D02*
X166189285Y-189364285D01*
X166260714Y-189507142D01*
X166403571Y-189578571D01*
X166546428Y-189578571D01*
X167046428Y-189435714D02*
X167117857Y-189507142D01*
X167046428Y-189578571D01*
X166975000Y-189507142D01*
X167046428Y-189435714D01*
X167046428Y-189578571D01*
X167046428Y-188650000D02*
X167117857Y-188721428D01*
X167046428Y-188792857D01*
X166975000Y-188721428D01*
X167046428Y-188650000D01*
X167046428Y-188792857D01*
D10*
D12*
X161380714Y-185078571D02*
X161380714Y-186150000D01*
X161309285Y-186364285D01*
X161166428Y-186507142D01*
X160952142Y-186578571D01*
X160809285Y-186578571D01*
X162095000Y-186007142D02*
X163237857Y-186007142D01*
X163952142Y-186578571D02*
X163952142Y-185078571D01*
X164309285Y-185078571D01*
X164523571Y-185150000D01*
X164666428Y-185292857D01*
X164737857Y-185435714D01*
X164809285Y-185721428D01*
X164809285Y-185935714D01*
X164737857Y-186221428D01*
X164666428Y-186364285D01*
X164523571Y-186507142D01*
X164309285Y-186578571D01*
X163952142Y-186578571D01*
X166095000Y-186578571D02*
X166095000Y-185792857D01*
X166023571Y-185650000D01*
X165880714Y-185578571D01*
X165595000Y-185578571D01*
X165452142Y-185650000D01*
X166095000Y-186507142D02*
X165952142Y-186578571D01*
X165595000Y-186578571D01*
X165452142Y-186507142D01*
X165380714Y-186364285D01*
X165380714Y-186221428D01*
X165452142Y-186078571D01*
X165595000Y-186007142D01*
X165952142Y-186007142D01*
X166095000Y-185935714D01*
X166595000Y-185578571D02*
X167166428Y-185578571D01*
X166809285Y-185078571D02*
X166809285Y-186364285D01*
X166880714Y-186507142D01*
X167023571Y-186578571D01*
X167166428Y-186578571D01*
X168309285Y-186578571D02*
X168309285Y-185792857D01*
X168237857Y-185650000D01*
X168095000Y-185578571D01*
X167809285Y-185578571D01*
X167666428Y-185650000D01*
X168309285Y-186507142D02*
X168166428Y-186578571D01*
X167809285Y-186578571D01*
X167666428Y-186507142D01*
X167595000Y-186364285D01*
X167595000Y-186221428D01*
X167666428Y-186078571D01*
X167809285Y-186007142D01*
X168166428Y-186007142D01*
X168309285Y-185935714D01*
D10*
D11*
X161475000Y-182578571D02*
X161475000Y-183792857D01*
X161403571Y-183935714D01*
X161332142Y-184007142D01*
X161189285Y-184078571D01*
X160975000Y-184078571D01*
X160832142Y-184007142D01*
X161475000Y-183507142D02*
X161332142Y-183578571D01*
X161046428Y-183578571D01*
X160903571Y-183507142D01*
X160832142Y-183435714D01*
X160760714Y-183292857D01*
X160760714Y-182864285D01*
X160832142Y-182721428D01*
X160903571Y-182650000D01*
X161046428Y-182578571D01*
X161332142Y-182578571D01*
X161475000Y-182650000D01*
X162189285Y-183578571D02*
X162189285Y-182578571D01*
X162189285Y-182078571D02*
X162117857Y-182150000D01*
X162189285Y-182221428D01*
X162260714Y-182150000D01*
X162189285Y-182078571D01*
X162189285Y-182221428D01*
X162689285Y-182578571D02*
X163260714Y-182578571D01*
X162903571Y-182078571D02*
X162903571Y-183364285D01*
X162975000Y-183507142D01*
X163117857Y-183578571D01*
X163260714Y-183578571D01*
X163760714Y-183578571D02*
X163760714Y-182078571D01*
X164403571Y-183578571D02*
X164403571Y-182792857D01*
X164332142Y-182650000D01*
X164189285Y-182578571D01*
X163975000Y-182578571D01*
X163832142Y-182650000D01*
X163760714Y-182721428D01*
X165760714Y-182578571D02*
X165760714Y-183578571D01*
X165117857Y-182578571D02*
X165117857Y-183364285D01*
X165189285Y-183507142D01*
X165332142Y-183578571D01*
X165546428Y-183578571D01*
X165689285Y-183507142D01*
X165760714Y-183435714D01*
X166475000Y-183578571D02*
X166475000Y-182078571D01*
X166475000Y-182650000D02*
X166617857Y-182578571D01*
X166903571Y-182578571D01*
X167046428Y-182650000D01*
X167117857Y-182721428D01*
X167189285Y-182864285D01*
X167189285Y-183292857D01*
X167117857Y-183435714D01*
X167046428Y-183507142D01*
X166903571Y-183578571D01*
X166617857Y-183578571D01*
X166475000Y-183507142D01*
X167832142Y-183435714D02*
X167903571Y-183507142D01*
X167832142Y-183578571D01*
X167760714Y-183507142D01*
X167832142Y-183435714D01*
X167832142Y-183578571D01*
X169189285Y-183507142D02*
X169046428Y-183578571D01*
X168760714Y-183578571D01*
X168617857Y-183507142D01*
X168546428Y-183435714D01*
X168475000Y-183292857D01*
X168475000Y-182864285D01*
X168546428Y-182721428D01*
X168617857Y-182650000D01*
X168760714Y-182578571D01*
X169046428Y-182578571D01*
X169189285Y-182650000D01*
X170046428Y-183578571D02*
X169903571Y-183507142D01*
X169832142Y-183435714D01*
X169760714Y-183292857D01*
X169760714Y-182864285D01*
X169832142Y-182721428D01*
X169903571Y-182650000D01*
X170046428Y-182578571D01*
X170260714Y-182578571D01*
X170403571Y-182650000D01*
X170475000Y-182721428D01*
X170546428Y-182864285D01*
X170546428Y-183292857D01*
X170475000Y-183435714D01*
X170403571Y-183507142D01*
X170260714Y-183578571D01*
X170046428Y-183578571D01*
X171189285Y-183578571D02*
X171189285Y-182578571D01*
X171189285Y-182721428D02*
X171260714Y-182650000D01*
X171403571Y-182578571D01*
X171617857Y-182578571D01*
X171760714Y-182650000D01*
X171832142Y-182792857D01*
X171832142Y-183578571D01*
X171832142Y-182792857D02*
X171903571Y-182650000D01*
X172046428Y-182578571D01*
X172260714Y-182578571D01*
X172403571Y-182650000D01*
X172475000Y-182792857D01*
X172475000Y-183578571D01*
X174260714Y-182007142D02*
X172975000Y-183935714D01*
X174760714Y-182578571D02*
X174760714Y-183864285D01*
X174689285Y-184007142D01*
X174546428Y-184078571D01*
X174475000Y-184078571D01*
X174760714Y-182078571D02*
X174689285Y-182150000D01*
X174760714Y-182221428D01*
X174832142Y-182150000D01*
X174760714Y-182078571D01*
X174760714Y-182221428D01*
X176046428Y-183507142D02*
X175903571Y-183578571D01*
X175617857Y-183578571D01*
X175475000Y-183507142D01*
X175403571Y-183364285D01*
X175403571Y-182792857D01*
X175475000Y-182650000D01*
X175617857Y-182578571D01*
X175903571Y-182578571D01*
X176046428Y-182650000D01*
X176117857Y-182792857D01*
X176117857Y-182935714D01*
X175403571Y-183078571D01*
X177403571Y-183578571D02*
X177403571Y-182078571D01*
X177403571Y-183507142D02*
X177260714Y-183578571D01*
X176975000Y-183578571D01*
X176832142Y-183507142D01*
X176760714Y-183435714D01*
X176689285Y-183292857D01*
X176689285Y-182864285D01*
X176760714Y-182721428D01*
X176832142Y-182650000D01*
X176975000Y-182578571D01*
X177260714Y-182578571D01*
X177403571Y-182650000D01*
X178117857Y-183578571D02*
X178117857Y-182578571D01*
X178117857Y-182078571D02*
X178046428Y-182150000D01*
X178117857Y-182221428D01*
X178189285Y-182150000D01*
X178117857Y-182078571D01*
X178117857Y-182221428D01*
X178832142Y-183578571D02*
X178832142Y-182578571D01*
X178832142Y-182721428D02*
X178903571Y-182650000D01*
X179046428Y-182578571D01*
X179260714Y-182578571D01*
X179403571Y-182650000D01*
X179475000Y-182792857D01*
X179475000Y-183578571D01*
X179475000Y-182792857D02*
X179546428Y-182650000D01*
X179689285Y-182578571D01*
X179903571Y-182578571D01*
X180046428Y-182650000D01*
X180117857Y-182792857D01*
X180117857Y-183578571D01*
X181475000Y-183578571D02*
X181475000Y-182792857D01*
X181403571Y-182650000D01*
X181260714Y-182578571D01*
X180975000Y-182578571D01*
X180832142Y-182650000D01*
X181475000Y-183507142D02*
X181332142Y-183578571D01*
X180975000Y-183578571D01*
X180832142Y-183507142D01*
X180760714Y-183364285D01*
X180760714Y-183221428D01*
X180832142Y-183078571D01*
X180975000Y-183007142D01*
X181332142Y-183007142D01*
X181475000Y-182935714D01*
X181975000Y-182578571D02*
X182546428Y-182578571D01*
X182189285Y-182078571D02*
X182189285Y-183364285D01*
X182260714Y-183507142D01*
X182403571Y-183578571D01*
X182546428Y-183578571D01*
X182832142Y-182578571D02*
X183403571Y-182578571D01*
X183046428Y-182078571D02*
X183046428Y-183364285D01*
X183117857Y-183507142D01*
X183260714Y-183578571D01*
X183403571Y-183578571D01*
X184546428Y-182578571D02*
X184546428Y-183578571D01*
X184189285Y-182007142D02*
X183832142Y-183078571D01*
X184760714Y-183078571D01*
X185260714Y-182221428D02*
X185332142Y-182150000D01*
X185475000Y-182078571D01*
X185832142Y-182078571D01*
X185975000Y-182150000D01*
X186046428Y-182221428D01*
X186117857Y-182364285D01*
X186117857Y-182507142D01*
X186046428Y-182721428D01*
X185189285Y-183578571D01*
X186117857Y-183578571D01*
X187832142Y-182007142D02*
X186546428Y-183935714D01*
X188117857Y-182578571D02*
X188689285Y-182578571D01*
X188332142Y-182078571D02*
X188332142Y-183364285D01*
X188403571Y-183507142D01*
X188546428Y-183578571D01*
X188689285Y-183578571D01*
X189189285Y-183578571D02*
X189189285Y-182578571D01*
X189189285Y-182078571D02*
X189117857Y-182150000D01*
X189189285Y-182221428D01*
X189260714Y-182150000D01*
X189189285Y-182078571D01*
X189189285Y-182221428D01*
X189903571Y-182578571D02*
X189903571Y-184078571D01*
X189903571Y-182650000D02*
X190046428Y-182578571D01*
X190332142Y-182578571D01*
X190475000Y-182650000D01*
X190546428Y-182721428D01*
X190617857Y-182864285D01*
X190617857Y-183292857D01*
X190546428Y-183435714D01*
X190475000Y-183507142D01*
X190332142Y-183578571D01*
X190046428Y-183578571D01*
X189903571Y-183507142D01*
X191260714Y-183578571D02*
X191260714Y-182578571D01*
X191260714Y-182078571D02*
X191189285Y-182150000D01*
X191260714Y-182221428D01*
X191332142Y-182150000D01*
X191260714Y-182078571D01*
X191260714Y-182221428D01*
D10*
D11*
X160617857Y-179078571D02*
X161475000Y-179078571D01*
X161046428Y-180578571D02*
X161046428Y-179078571D01*
X161975000Y-180578571D02*
X161975000Y-179078571D01*
X162689285Y-180578571D02*
X162689285Y-179078571D01*
X163260714Y-179078571D01*
X163403571Y-179150000D01*
X163475000Y-179221428D01*
X163546428Y-179364285D01*
X163546428Y-179578571D01*
X163475000Y-179721428D01*
X163403571Y-179792857D01*
X163260714Y-179864285D01*
X162689285Y-179864285D01*
X164189285Y-180578571D02*
X164189285Y-179078571D01*
X166689285Y-180578571D02*
X166689285Y-179792857D01*
X166617857Y-179650000D01*
X166475000Y-179578571D01*
X166189285Y-179578571D01*
X166046428Y-179650000D01*
X166689285Y-180507142D02*
X166546428Y-180578571D01*
X166189285Y-180578571D01*
X166046428Y-180507142D01*
X165975000Y-180364285D01*
X165975000Y-180221428D01*
X166046428Y-180078571D01*
X166189285Y-180007142D01*
X166546428Y-180007142D01*
X166689285Y-179935714D01*
X167403571Y-179578571D02*
X167403571Y-180578571D01*
X167403571Y-179721428D02*
X167475000Y-179650000D01*
X167617857Y-179578571D01*
X167832142Y-179578571D01*
X167975000Y-179650000D01*
X168046428Y-179792857D01*
X168046428Y-180578571D01*
X169403571Y-180578571D02*
X169403571Y-179078571D01*
X169403571Y-180507142D02*
X169260714Y-180578571D01*
X168975000Y-180578571D01*
X168832142Y-180507142D01*
X168760714Y-180435714D01*
X168689285Y-180292857D01*
X168689285Y-179864285D01*
X168760714Y-179721428D01*
X168832142Y-179650000D01*
X168975000Y-179578571D01*
X169260714Y-179578571D01*
X169403571Y-179650000D01*
X171260714Y-179792857D02*
X171760714Y-179792857D01*
X171975000Y-180578571D02*
X171260714Y-180578571D01*
X171260714Y-179078571D01*
X171975000Y-179078571D01*
X172832142Y-180578571D02*
X172689285Y-180507142D01*
X172617857Y-180364285D01*
X172617857Y-179078571D01*
X173975000Y-180507142D02*
X173832142Y-180578571D01*
X173546428Y-180578571D01*
X173403571Y-180507142D01*
X173332142Y-180364285D01*
X173332142Y-179792857D01*
X173403571Y-179650000D01*
X173546428Y-179578571D01*
X173832142Y-179578571D01*
X173975000Y-179650000D01*
X174046428Y-179792857D01*
X174046428Y-179935714D01*
X173332142Y-180078571D01*
X175332142Y-180507142D02*
X175189285Y-180578571D01*
X174903571Y-180578571D01*
X174760714Y-180507142D01*
X174689285Y-180435714D01*
X174617857Y-180292857D01*
X174617857Y-179864285D01*
X174689285Y-179721428D01*
X174760714Y-179650000D01*
X174903571Y-179578571D01*
X175189285Y-179578571D01*
X175332142Y-179650000D01*
X175760714Y-179578571D02*
X176332142Y-179578571D01*
X175975000Y-179078571D02*
X175975000Y-180364285D01*
X176046428Y-180507142D01*
X176189285Y-180578571D01*
X176332142Y-180578571D01*
X176832142Y-180578571D02*
X176832142Y-179578571D01*
X176832142Y-179864285D02*
X176903571Y-179721428D01*
X176975000Y-179650000D01*
X177117857Y-179578571D01*
X177260714Y-179578571D01*
X177760714Y-180578571D02*
X177760714Y-179578571D01*
X177760714Y-179078571D02*
X177689285Y-179150000D01*
X177760714Y-179221428D01*
X177832142Y-179150000D01*
X177760714Y-179078571D01*
X177760714Y-179221428D01*
X179117857Y-180507142D02*
X178975000Y-180578571D01*
X178689285Y-180578571D01*
X178546428Y-180507142D01*
X178475000Y-180435714D01*
X178403571Y-180292857D01*
X178403571Y-179864285D01*
X178475000Y-179721428D01*
X178546428Y-179650000D01*
X178689285Y-179578571D01*
X178975000Y-179578571D01*
X179117857Y-179650000D01*
X180475000Y-180578571D02*
X179760714Y-180578571D01*
X179760714Y-179078571D01*
X181617857Y-180578571D02*
X181617857Y-179792857D01*
X181546428Y-179650000D01*
X181403571Y-179578571D01*
X181117857Y-179578571D01*
X180975000Y-179650000D01*
X181617857Y-180507142D02*
X181475000Y-180578571D01*
X181117857Y-180578571D01*
X180975000Y-180507142D01*
X180903571Y-180364285D01*
X180903571Y-180221428D01*
X180975000Y-180078571D01*
X181117857Y-180007142D01*
X181475000Y-180007142D01*
X181617857Y-179935714D01*
X182332142Y-180578571D02*
X182332142Y-179078571D01*
X182332142Y-179650000D02*
X182475000Y-179578571D01*
X182760714Y-179578571D01*
X182903571Y-179650000D01*
X182975000Y-179721428D01*
X183046428Y-179864285D01*
X183046428Y-180292857D01*
X182975000Y-180435714D01*
X182903571Y-180507142D01*
X182760714Y-180578571D01*
X182475000Y-180578571D01*
X182332142Y-180507142D01*
X186046428Y-180578571D02*
X185975000Y-180578571D01*
X185832142Y-180507142D01*
X185617857Y-180292857D01*
X185260714Y-179864285D01*
X185117857Y-179650000D01*
X185046428Y-179435714D01*
X185046428Y-179292857D01*
X185117857Y-179150000D01*
X185260714Y-179078571D01*
X185332142Y-179078571D01*
X185475000Y-179150000D01*
X185546428Y-179292857D01*
X185546428Y-179364285D01*
X185475000Y-179507142D01*
X185403571Y-179578571D01*
X184975000Y-179864285D01*
X184903571Y-179935714D01*
X184832142Y-180078571D01*
X184832142Y-180292857D01*
X184903571Y-180435714D01*
X184975000Y-180507142D01*
X185117857Y-180578571D01*
X185332142Y-180578571D01*
X185475000Y-180507142D01*
X185546428Y-180435714D01*
X185760714Y-180150000D01*
X185832142Y-179935714D01*
X185832142Y-179792857D01*
X188260714Y-179078571D02*
X188260714Y-180150000D01*
X188189285Y-180364285D01*
X188046428Y-180507142D01*
X187832142Y-180578571D01*
X187689285Y-180578571D01*
X189546428Y-180507142D02*
X189403571Y-180578571D01*
X189117857Y-180578571D01*
X188975000Y-180507142D01*
X188903571Y-180364285D01*
X188903571Y-179792857D01*
X188975000Y-179650000D01*
X189117857Y-179578571D01*
X189403571Y-179578571D01*
X189546428Y-179650000D01*
X189617857Y-179792857D01*
X189617857Y-179935714D01*
X188903571Y-180078571D01*
X190903571Y-180578571D02*
X190903571Y-179078571D01*
X190903571Y-180507142D02*
X190760714Y-180578571D01*
X190475000Y-180578571D01*
X190332142Y-180507142D01*
X190260714Y-180435714D01*
X190189285Y-180292857D01*
X190189285Y-179864285D01*
X190260714Y-179721428D01*
X190332142Y-179650000D01*
X190475000Y-179578571D01*
X190760714Y-179578571D01*
X190903571Y-179650000D01*
X191617857Y-180578571D02*
X191617857Y-179578571D01*
X191617857Y-179078571D02*
X191546428Y-179150000D01*
X191617857Y-179221428D01*
X191689285Y-179150000D01*
X191617857Y-179078571D01*
X191617857Y-179221428D01*
X192332142Y-180578571D02*
X192332142Y-179578571D01*
X192332142Y-179721428D02*
X192403571Y-179650000D01*
X192546428Y-179578571D01*
X192760714Y-179578571D01*
X192903571Y-179650000D01*
X192975000Y-179792857D01*
X192975000Y-180578571D01*
X192975000Y-179792857D02*
X193046428Y-179650000D01*
X193189285Y-179578571D01*
X193403571Y-179578571D01*
X193546428Y-179650000D01*
X193617857Y-179792857D01*
X193617857Y-180578571D01*
X194975000Y-180578571D02*
X194975000Y-179792857D01*
X194903571Y-179650000D01*
X194760714Y-179578571D01*
X194475000Y-179578571D01*
X194332142Y-179650000D01*
X194975000Y-180507142D02*
X194832142Y-180578571D01*
X194475000Y-180578571D01*
X194332142Y-180507142D01*
X194260714Y-180364285D01*
X194260714Y-180221428D01*
X194332142Y-180078571D01*
X194475000Y-180007142D01*
X194832142Y-180007142D01*
X194975000Y-179935714D01*
X195475000Y-179578571D02*
X196046428Y-179578571D01*
X195689285Y-179078571D02*
X195689285Y-180364285D01*
X195760714Y-180507142D01*
X195903571Y-180578571D01*
X196046428Y-180578571D01*
X196332142Y-179578571D02*
X196903571Y-179578571D01*
X196546428Y-179078571D02*
X196546428Y-180364285D01*
X196617857Y-180507142D01*
X196760714Y-180578571D01*
X196903571Y-180578571D01*
X198046428Y-179578571D02*
X198046428Y-180578571D01*
X197689285Y-179007142D02*
X197332142Y-180078571D01*
X198260714Y-180078571D01*
X198760714Y-179221428D02*
X198832142Y-179150000D01*
X198975000Y-179078571D01*
X199332142Y-179078571D01*
X199475000Y-179150000D01*
X199546428Y-179221428D01*
X199617857Y-179364285D01*
X199617857Y-179507142D01*
X199546428Y-179721428D01*
X198689285Y-180578571D01*
X199617857Y-180578571D01*
D10*
D11*
X161260714Y-178150000D02*
X161189285Y-178078571D01*
X161046428Y-177864285D01*
X160975000Y-177721428D01*
X160903571Y-177507142D01*
X160832142Y-177150000D01*
X160832142Y-176864285D01*
X160903571Y-176507142D01*
X160975000Y-176292857D01*
X161046428Y-176150000D01*
X161189285Y-175935714D01*
X161260714Y-175864285D01*
X162689285Y-177435714D02*
X162617857Y-177507142D01*
X162403571Y-177578571D01*
X162260714Y-177578571D01*
X162046428Y-177507142D01*
X161903571Y-177364285D01*
X161832142Y-177221428D01*
X161760714Y-176935714D01*
X161760714Y-176721428D01*
X161832142Y-176435714D01*
X161903571Y-176292857D01*
X162046428Y-176150000D01*
X162260714Y-176078571D01*
X162403571Y-176078571D01*
X162617857Y-176150000D01*
X162689285Y-176221428D01*
X163189285Y-178150000D02*
X163260714Y-178078571D01*
X163403571Y-177864285D01*
X163475000Y-177721428D01*
X163546428Y-177507142D01*
X163617857Y-177150000D01*
X163617857Y-176864285D01*
X163546428Y-176507142D01*
X163475000Y-176292857D01*
X163403571Y-176150000D01*
X163260714Y-175935714D01*
X163189285Y-175864285D01*
X166260714Y-177578571D02*
X165403571Y-177578571D01*
X165832142Y-177578571D02*
X165832142Y-176078571D01*
X165689285Y-176292857D01*
X165546428Y-176435714D01*
X165403571Y-176507142D01*
X166975000Y-177578571D02*
X167260714Y-177578571D01*
X167403571Y-177507142D01*
X167475000Y-177435714D01*
X167617857Y-177221428D01*
X167689285Y-176935714D01*
X167689285Y-176364285D01*
X167617857Y-176221428D01*
X167546428Y-176150000D01*
X167403571Y-176078571D01*
X167117857Y-176078571D01*
X166975000Y-176150000D01*
X166903571Y-176221428D01*
X166832142Y-176364285D01*
X166832142Y-176721428D01*
X166903571Y-176864285D01*
X166975000Y-176935714D01*
X167117857Y-177007142D01*
X167403571Y-177007142D01*
X167546428Y-176935714D01*
X167617857Y-176864285D01*
X167689285Y-176721428D01*
X168546428Y-176721428D02*
X168403571Y-176650000D01*
X168332142Y-176578571D01*
X168260714Y-176435714D01*
X168260714Y-176364285D01*
X168332142Y-176221428D01*
X168403571Y-176150000D01*
X168546428Y-176078571D01*
X168832142Y-176078571D01*
X168975000Y-176150000D01*
X169046428Y-176221428D01*
X169117857Y-176364285D01*
X169117857Y-176435714D01*
X169046428Y-176578571D01*
X168975000Y-176650000D01*
X168832142Y-176721428D01*
X168546428Y-176721428D01*
X168403571Y-176792857D01*
X168332142Y-176864285D01*
X168260714Y-177007142D01*
X168260714Y-177292857D01*
X168332142Y-177435714D01*
X168403571Y-177507142D01*
X168546428Y-177578571D01*
X168832142Y-177578571D01*
X168975000Y-177507142D01*
X169046428Y-177435714D01*
X169117857Y-177292857D01*
X169117857Y-177007142D01*
X169046428Y-176864285D01*
X168975000Y-176792857D01*
X168832142Y-176721428D01*
X169617857Y-176078571D02*
X170546428Y-176078571D01*
X170046428Y-176650000D01*
X170260714Y-176650000D01*
X170403571Y-176721428D01*
X170475000Y-176792857D01*
X170546428Y-176935714D01*
X170546428Y-177292857D01*
X170475000Y-177435714D01*
X170403571Y-177507142D01*
X170260714Y-177578571D01*
X169832142Y-177578571D01*
X169689285Y-177507142D01*
X169617857Y-177435714D01*
X172332142Y-177007142D02*
X173475000Y-177007142D01*
X175760714Y-176078571D02*
X175760714Y-177150000D01*
X175689285Y-177364285D01*
X175546428Y-177507142D01*
X175332142Y-177578571D01*
X175189285Y-177578571D01*
X176475000Y-177007142D02*
X177617857Y-177007142D01*
X178332142Y-177578571D02*
X178332142Y-176078571D01*
X178689285Y-176078571D01*
X178903571Y-176150000D01*
X179046428Y-176292857D01*
X179117857Y-176435714D01*
X179189285Y-176721428D01*
X179189285Y-176935714D01*
X179117857Y-177221428D01*
X179046428Y-177364285D01*
X178903571Y-177507142D01*
X178689285Y-177578571D01*
X178332142Y-177578571D01*
X180475000Y-177578571D02*
X180475000Y-176792857D01*
X180403571Y-176650000D01*
X180260714Y-176578571D01*
X179975000Y-176578571D01*
X179832142Y-176650000D01*
X180475000Y-177507142D02*
X180332142Y-177578571D01*
X179975000Y-177578571D01*
X179832142Y-177507142D01*
X179760714Y-177364285D01*
X179760714Y-177221428D01*
X179832142Y-177078571D01*
X179975000Y-177007142D01*
X180332142Y-177007142D01*
X180475000Y-176935714D01*
X180975000Y-176578571D02*
X181546428Y-176578571D01*
X181189285Y-176078571D02*
X181189285Y-177364285D01*
X181260714Y-177507142D01*
X181403571Y-177578571D01*
X181546428Y-177578571D01*
X182689285Y-177578571D02*
X182689285Y-176792857D01*
X182617857Y-176650000D01*
X182475000Y-176578571D01*
X182189285Y-176578571D01*
X182046428Y-176650000D01*
X182689285Y-177507142D02*
X182546428Y-177578571D01*
X182189285Y-177578571D01*
X182046428Y-177507142D01*
X181975000Y-177364285D01*
X181975000Y-177221428D01*
X182046428Y-177078571D01*
X182189285Y-177007142D01*
X182546428Y-177007142D01*
X182689285Y-176935714D01*
X184975000Y-178150000D02*
X184903571Y-178078571D01*
X184760714Y-177864285D01*
X184689285Y-177721428D01*
X184617857Y-177507142D01*
X184546428Y-177150000D01*
X184546428Y-176864285D01*
X184617857Y-176507142D01*
X184689285Y-176292857D01*
X184760714Y-176150000D01*
X184903571Y-175935714D01*
X184975000Y-175864285D01*
X185832142Y-176078571D02*
X186117857Y-176078571D01*
X186260714Y-176150000D01*
X186403571Y-176292857D01*
X186475000Y-176578571D01*
X186475000Y-177078571D01*
X186403571Y-177364285D01*
X186260714Y-177507142D01*
X186117857Y-177578571D01*
X185832142Y-177578571D01*
X185689285Y-177507142D01*
X185546428Y-177364285D01*
X185475000Y-177078571D01*
X185475000Y-176578571D01*
X185546428Y-176292857D01*
X185689285Y-176150000D01*
X185832142Y-176078571D01*
X187117857Y-176578571D02*
X187117857Y-178078571D01*
X187117857Y-176650000D02*
X187260714Y-176578571D01*
X187546428Y-176578571D01*
X187689285Y-176650000D01*
X187760714Y-176721428D01*
X187832142Y-176864285D01*
X187832142Y-177292857D01*
X187760714Y-177435714D01*
X187689285Y-177507142D01*
X187546428Y-177578571D01*
X187260714Y-177578571D01*
X187117857Y-177507142D01*
X189046428Y-177507142D02*
X188903571Y-177578571D01*
X188617857Y-177578571D01*
X188475000Y-177507142D01*
X188403571Y-177364285D01*
X188403571Y-176792857D01*
X188475000Y-176650000D01*
X188617857Y-176578571D01*
X188903571Y-176578571D01*
X189046428Y-176650000D01*
X189117857Y-176792857D01*
X189117857Y-176935714D01*
X188403571Y-177078571D01*
X189760714Y-176578571D02*
X189760714Y-177578571D01*
X189760714Y-176721428D02*
X189832142Y-176650000D01*
X189975000Y-176578571D01*
X190189285Y-176578571D01*
X190332142Y-176650000D01*
X190403571Y-176792857D01*
X190403571Y-177578571D01*
X192189285Y-177507142D02*
X192332142Y-177578571D01*
X192617857Y-177578571D01*
X192760714Y-177507142D01*
X192832142Y-177364285D01*
X192832142Y-177292857D01*
X192760714Y-177150000D01*
X192617857Y-177078571D01*
X192403571Y-177078571D01*
X192260714Y-177007142D01*
X192189285Y-176864285D01*
X192189285Y-176792857D01*
X192260714Y-176650000D01*
X192403571Y-176578571D01*
X192617857Y-176578571D01*
X192760714Y-176650000D01*
X193689285Y-177578571D02*
X193546428Y-177507142D01*
X193475000Y-177435714D01*
X193403571Y-177292857D01*
X193403571Y-176864285D01*
X193475000Y-176721428D01*
X193546428Y-176650000D01*
X193689285Y-176578571D01*
X193903571Y-176578571D01*
X194046428Y-176650000D01*
X194117857Y-176721428D01*
X194189285Y-176864285D01*
X194189285Y-177292857D01*
X194117857Y-177435714D01*
X194046428Y-177507142D01*
X193903571Y-177578571D01*
X193689285Y-177578571D01*
X195475000Y-176578571D02*
X195475000Y-177578571D01*
X194832142Y-176578571D02*
X194832142Y-177364285D01*
X194903571Y-177507142D01*
X195046428Y-177578571D01*
X195260714Y-177578571D01*
X195403571Y-177507142D01*
X195475000Y-177435714D01*
X196189285Y-177578571D02*
X196189285Y-176578571D01*
X196189285Y-176864285D02*
X196260714Y-176721428D01*
X196332142Y-176650000D01*
X196475000Y-176578571D01*
X196617857Y-176578571D01*
X197760714Y-177507142D02*
X197617857Y-177578571D01*
X197332142Y-177578571D01*
X197189285Y-177507142D01*
X197117857Y-177435714D01*
X197046428Y-177292857D01*
X197046428Y-176864285D01*
X197117857Y-176721428D01*
X197189285Y-176650000D01*
X197332142Y-176578571D01*
X197617857Y-176578571D01*
X197760714Y-176650000D01*
X198975000Y-177507142D02*
X198832142Y-177578571D01*
X198546428Y-177578571D01*
X198403571Y-177507142D01*
X198332142Y-177364285D01*
X198332142Y-176792857D01*
X198403571Y-176650000D01*
X198546428Y-176578571D01*
X198832142Y-176578571D01*
X198975000Y-176650000D01*
X199046428Y-176792857D01*
X199046428Y-176935714D01*
X198332142Y-177078571D01*
X201475000Y-177578571D02*
X201475000Y-176792857D01*
X201403571Y-176650000D01*
X201260714Y-176578571D01*
X200975000Y-176578571D01*
X200832142Y-176650000D01*
X201475000Y-177507142D02*
X201332142Y-177578571D01*
X200975000Y-177578571D01*
X200832142Y-177507142D01*
X200760714Y-177364285D01*
X200760714Y-177221428D01*
X200832142Y-177078571D01*
X200975000Y-177007142D01*
X201332142Y-177007142D01*
X201475000Y-176935714D01*
X202832142Y-177507142D02*
X202689285Y-177578571D01*
X202403571Y-177578571D01*
X202260714Y-177507142D01*
X202189285Y-177435714D01*
X202117857Y-177292857D01*
X202117857Y-176864285D01*
X202189285Y-176721428D01*
X202260714Y-176650000D01*
X202403571Y-176578571D01*
X202689285Y-176578571D01*
X202832142Y-176650000D01*
X203260714Y-176578571D02*
X203832142Y-176578571D01*
X203475000Y-176078571D02*
X203475000Y-177364285D01*
X203546428Y-177507142D01*
X203689285Y-177578571D01*
X203832142Y-177578571D01*
X204975000Y-176578571D02*
X204975000Y-177578571D01*
X204332142Y-176578571D02*
X204332142Y-177364285D01*
X204403571Y-177507142D01*
X204546428Y-177578571D01*
X204760714Y-177578571D01*
X204903571Y-177507142D01*
X204975000Y-177435714D01*
X206332142Y-177578571D02*
X206332142Y-176792857D01*
X206260714Y-176650000D01*
X206117857Y-176578571D01*
X205832142Y-176578571D01*
X205689285Y-176650000D01*
X206332142Y-177507142D02*
X206189285Y-177578571D01*
X205832142Y-177578571D01*
X205689285Y-177507142D01*
X205617857Y-177364285D01*
X205617857Y-177221428D01*
X205689285Y-177078571D01*
X205832142Y-177007142D01*
X206189285Y-177007142D01*
X206332142Y-176935714D01*
X207260714Y-177578571D02*
X207117857Y-177507142D01*
X207046428Y-177364285D01*
X207046428Y-176078571D01*
X208046428Y-177578571D02*
X207903571Y-177507142D01*
X207832142Y-177364285D01*
X207832142Y-176078571D01*
X208475000Y-176578571D02*
X208832142Y-177578571D01*
X209189285Y-176578571D02*
X208832142Y-177578571D01*
X208689285Y-177935714D01*
X208617857Y-178007142D01*
X208475000Y-178078571D01*
X209617857Y-178150000D02*
X209689285Y-178078571D01*
X209832142Y-177864285D01*
X209903571Y-177721428D01*
X209975000Y-177507142D01*
X210046428Y-177150000D01*
X210046428Y-176864285D01*
X209975000Y-176507142D01*
X209903571Y-176292857D01*
X209832142Y-176150000D01*
X209689285Y-175935714D01*
X209617857Y-175864285D01*
D10*
D11*
X179400000Y-197400000D02*
X179400000Y-200400000D01*
D10*
D11*
X243400000Y-197400000D02*
X243400000Y-203900000D01*
D14*
X138633200Y-145161000D02*
X140208000Y-143586200D01*
X82296000Y-143586200D02*
X83870800Y-145161000D01*
X176530000Y-118237000D02*
X176530000Y-95504000D01*
X81280000Y-89154000D02*
X141224000Y-89154000D01*
X141224000Y-89154000D02*
X141224000Y-95504000D01*
X81280000Y-95504000D02*
X81280000Y-89154000D01*
X146558000Y-145161000D02*
X176530000Y-145161000D01*
X176530000Y-118237000D02*
G75*
G03X176530000Y-126365000I0J-4064000D01*
G01*
X141224000Y-95504000D02*
X176530000Y-95504000D01*
X83870800Y-145161000D02*
X138633200Y-145161000D01*
X60833000Y-95504000D02*
X81280000Y-95504000D01*
X75438000Y-145161000D02*
X75438000Y-136271000D01*
X60833000Y-145161000D02*
X60833000Y-95504000D01*
X75438000Y-145161000D02*
X60833000Y-145161000D01*
X176530000Y-145161000D02*
X176530000Y-126365000D01*
X146558000Y-136271000D02*
X146558000Y-145161000D01*
X140208000Y-136271000D02*
X146558000Y-136271000D01*
X140208000Y-143586200D02*
X140208000Y-136271000D01*
X82296000Y-136271000D02*
X82296000Y-143586200D01*
X75438000Y-136271000D02*
X82296000Y-136271000D01*
M02*
