G04 #@! TF.FileFunction,Legend,Top*
%FSLAX46Y46*%
G04 Gerber Fmt 4.6, Leading zero omitted, Abs format (unit mm)*
G04 Created by KiCad (PCBNEW 4.0.6) date 07/29/17 07:53:43*
%MOMM*%
%LPD*%
G01*
G04 APERTURE LIST*
%ADD10C,0.100000*%
%ADD11C,0.300000*%
%ADD12C,0.150000*%
%ADD13C,0.120000*%
G04 APERTURE END LIST*
D10*
D11*
X61311070Y-153031071D02*
X61311070Y-154245357D01*
X61239641Y-154388214D01*
X61168213Y-154459643D01*
X61025356Y-154531071D01*
X60811070Y-154531071D01*
X60668213Y-154459643D01*
X61311070Y-153959643D02*
X61168213Y-154031071D01*
X60882499Y-154031071D01*
X60739641Y-153959643D01*
X60668213Y-153888214D01*
X60596784Y-153745357D01*
X60596784Y-153316786D01*
X60668213Y-153173929D01*
X60739641Y-153102500D01*
X60882499Y-153031071D01*
X61168213Y-153031071D01*
X61311070Y-153102500D01*
X62025356Y-154031071D02*
X62025356Y-153031071D01*
X62025356Y-152531071D02*
X61953927Y-152602500D01*
X62025356Y-152673929D01*
X62096784Y-152602500D01*
X62025356Y-152531071D01*
X62025356Y-152673929D01*
X62525356Y-153031071D02*
X63096785Y-153031071D01*
X62739642Y-152531071D02*
X62739642Y-153816786D01*
X62811070Y-153959643D01*
X62953928Y-154031071D01*
X63096785Y-154031071D01*
X63596785Y-154031071D02*
X63596785Y-152531071D01*
X64239642Y-154031071D02*
X64239642Y-153245357D01*
X64168213Y-153102500D01*
X64025356Y-153031071D01*
X63811071Y-153031071D01*
X63668213Y-153102500D01*
X63596785Y-153173929D01*
X65596785Y-153031071D02*
X65596785Y-154031071D01*
X64953928Y-153031071D02*
X64953928Y-153816786D01*
X65025356Y-153959643D01*
X65168214Y-154031071D01*
X65382499Y-154031071D01*
X65525356Y-153959643D01*
X65596785Y-153888214D01*
X66311071Y-154031071D02*
X66311071Y-152531071D01*
X66311071Y-153102500D02*
X66453928Y-153031071D01*
X66739642Y-153031071D01*
X66882499Y-153102500D01*
X66953928Y-153173929D01*
X67025357Y-153316786D01*
X67025357Y-153745357D01*
X66953928Y-153888214D01*
X66882499Y-153959643D01*
X66739642Y-154031071D01*
X66453928Y-154031071D01*
X66311071Y-153959643D01*
X67668214Y-153888214D02*
X67739642Y-153959643D01*
X67668214Y-154031071D01*
X67596785Y-153959643D01*
X67668214Y-153888214D01*
X67668214Y-154031071D01*
X69025357Y-153959643D02*
X68882500Y-154031071D01*
X68596786Y-154031071D01*
X68453928Y-153959643D01*
X68382500Y-153888214D01*
X68311071Y-153745357D01*
X68311071Y-153316786D01*
X68382500Y-153173929D01*
X68453928Y-153102500D01*
X68596786Y-153031071D01*
X68882500Y-153031071D01*
X69025357Y-153102500D01*
X69882500Y-154031071D02*
X69739642Y-153959643D01*
X69668214Y-153888214D01*
X69596785Y-153745357D01*
X69596785Y-153316786D01*
X69668214Y-153173929D01*
X69739642Y-153102500D01*
X69882500Y-153031071D01*
X70096785Y-153031071D01*
X70239642Y-153102500D01*
X70311071Y-153173929D01*
X70382500Y-153316786D01*
X70382500Y-153745357D01*
X70311071Y-153888214D01*
X70239642Y-153959643D01*
X70096785Y-154031071D01*
X69882500Y-154031071D01*
X71025357Y-154031071D02*
X71025357Y-153031071D01*
X71025357Y-153173929D02*
X71096785Y-153102500D01*
X71239643Y-153031071D01*
X71453928Y-153031071D01*
X71596785Y-153102500D01*
X71668214Y-153245357D01*
X71668214Y-154031071D01*
X71668214Y-153245357D02*
X71739643Y-153102500D01*
X71882500Y-153031071D01*
X72096785Y-153031071D01*
X72239643Y-153102500D01*
X72311071Y-153245357D01*
X72311071Y-154031071D01*
X74096785Y-152459643D02*
X72811071Y-154388214D01*
X74596786Y-153031071D02*
X74596786Y-154316786D01*
X74525357Y-154459643D01*
X74382500Y-154531071D01*
X74311072Y-154531071D01*
X74596786Y-152531071D02*
X74525357Y-152602500D01*
X74596786Y-152673929D01*
X74668214Y-152602500D01*
X74596786Y-152531071D01*
X74596786Y-152673929D01*
X75882500Y-153959643D02*
X75739643Y-154031071D01*
X75453929Y-154031071D01*
X75311072Y-153959643D01*
X75239643Y-153816786D01*
X75239643Y-153245357D01*
X75311072Y-153102500D01*
X75453929Y-153031071D01*
X75739643Y-153031071D01*
X75882500Y-153102500D01*
X75953929Y-153245357D01*
X75953929Y-153388214D01*
X75239643Y-153531071D01*
X77239643Y-154031071D02*
X77239643Y-152531071D01*
X77239643Y-153959643D02*
X77096786Y-154031071D01*
X76811072Y-154031071D01*
X76668214Y-153959643D01*
X76596786Y-153888214D01*
X76525357Y-153745357D01*
X76525357Y-153316786D01*
X76596786Y-153173929D01*
X76668214Y-153102500D01*
X76811072Y-153031071D01*
X77096786Y-153031071D01*
X77239643Y-153102500D01*
X77953929Y-154031071D02*
X77953929Y-153031071D01*
X77953929Y-152531071D02*
X77882500Y-152602500D01*
X77953929Y-152673929D01*
X78025357Y-152602500D01*
X77953929Y-152531071D01*
X77953929Y-152673929D01*
X78668215Y-154031071D02*
X78668215Y-153031071D01*
X78668215Y-153173929D02*
X78739643Y-153102500D01*
X78882501Y-153031071D01*
X79096786Y-153031071D01*
X79239643Y-153102500D01*
X79311072Y-153245357D01*
X79311072Y-154031071D01*
X79311072Y-153245357D02*
X79382501Y-153102500D01*
X79525358Y-153031071D01*
X79739643Y-153031071D01*
X79882501Y-153102500D01*
X79953929Y-153245357D01*
X79953929Y-154031071D01*
X81311072Y-154031071D02*
X81311072Y-153245357D01*
X81239643Y-153102500D01*
X81096786Y-153031071D01*
X80811072Y-153031071D01*
X80668215Y-153102500D01*
X81311072Y-153959643D02*
X81168215Y-154031071D01*
X80811072Y-154031071D01*
X80668215Y-153959643D01*
X80596786Y-153816786D01*
X80596786Y-153673929D01*
X80668215Y-153531071D01*
X80811072Y-153459643D01*
X81168215Y-153459643D01*
X81311072Y-153388214D01*
X81811072Y-153031071D02*
X82382501Y-153031071D01*
X82025358Y-152531071D02*
X82025358Y-153816786D01*
X82096786Y-153959643D01*
X82239644Y-154031071D01*
X82382501Y-154031071D01*
X82668215Y-153031071D02*
X83239644Y-153031071D01*
X82882501Y-152531071D02*
X82882501Y-153816786D01*
X82953929Y-153959643D01*
X83096787Y-154031071D01*
X83239644Y-154031071D01*
X84382501Y-153031071D02*
X84382501Y-154031071D01*
X84025358Y-152459643D02*
X83668215Y-153531071D01*
X84596787Y-153531071D01*
X85096786Y-152673929D02*
X85168215Y-152602500D01*
X85311072Y-152531071D01*
X85668215Y-152531071D01*
X85811072Y-152602500D01*
X85882501Y-152673929D01*
X85953929Y-152816786D01*
X85953929Y-152959643D01*
X85882501Y-153173929D01*
X85025358Y-154031071D01*
X85953929Y-154031071D01*
X87668214Y-152459643D02*
X86382500Y-154388214D01*
X87953929Y-153031071D02*
X88525358Y-153031071D01*
X88168215Y-152531071D02*
X88168215Y-153816786D01*
X88239643Y-153959643D01*
X88382501Y-154031071D01*
X88525358Y-154031071D01*
X89025358Y-154031071D02*
X89025358Y-153031071D01*
X89025358Y-152531071D02*
X88953929Y-152602500D01*
X89025358Y-152673929D01*
X89096786Y-152602500D01*
X89025358Y-152531071D01*
X89025358Y-152673929D01*
X89739644Y-153031071D02*
X89739644Y-154531071D01*
X89739644Y-153102500D02*
X89882501Y-153031071D01*
X90168215Y-153031071D01*
X90311072Y-153102500D01*
X90382501Y-153173929D01*
X90453930Y-153316786D01*
X90453930Y-153745357D01*
X90382501Y-153888214D01*
X90311072Y-153959643D01*
X90168215Y-154031071D01*
X89882501Y-154031071D01*
X89739644Y-153959643D01*
X91096787Y-154031071D02*
X91096787Y-153031071D01*
X91096787Y-152531071D02*
X91025358Y-152602500D01*
X91096787Y-152673929D01*
X91168215Y-152602500D01*
X91096787Y-152531071D01*
X91096787Y-152673929D01*
X70961858Y-145795071D02*
X71819001Y-145795071D01*
X71390430Y-147295071D02*
X71390430Y-145795071D01*
X72319001Y-147295071D02*
X72319001Y-145795071D01*
X73033287Y-147295071D02*
X73033287Y-145795071D01*
X73604715Y-145795071D01*
X73747573Y-145866500D01*
X73819001Y-145937929D01*
X73890430Y-146080786D01*
X73890430Y-146295071D01*
X73819001Y-146437929D01*
X73747573Y-146509357D01*
X73604715Y-146580786D01*
X73033287Y-146580786D01*
X74533287Y-147295071D02*
X74533287Y-145795071D01*
X76390430Y-147295071D02*
X76390430Y-146295071D01*
X76390430Y-146580786D02*
X76461858Y-146437929D01*
X76533287Y-146366500D01*
X76676144Y-146295071D01*
X76819001Y-146295071D01*
X77890429Y-147223643D02*
X77747572Y-147295071D01*
X77461858Y-147295071D01*
X77319001Y-147223643D01*
X77247572Y-147080786D01*
X77247572Y-146509357D01*
X77319001Y-146366500D01*
X77461858Y-146295071D01*
X77747572Y-146295071D01*
X77890429Y-146366500D01*
X77961858Y-146509357D01*
X77961858Y-146652214D01*
X77247572Y-146795071D01*
X78461858Y-146295071D02*
X78819001Y-147295071D01*
X79176143Y-146295071D01*
X80533286Y-147295071D02*
X79676143Y-147295071D01*
X80104715Y-147295071D02*
X80104715Y-145795071D01*
X79961858Y-146009357D01*
X79819000Y-146152214D01*
X79676143Y-146223643D01*
X59854715Y-149845071D02*
X59854715Y-148345071D01*
X59854715Y-148916500D02*
X59997572Y-148845071D01*
X60283286Y-148845071D01*
X60426143Y-148916500D01*
X60497572Y-148987929D01*
X60569001Y-149130786D01*
X60569001Y-149559357D01*
X60497572Y-149702214D01*
X60426143Y-149773643D01*
X60283286Y-149845071D01*
X59997572Y-149845071D01*
X59854715Y-149773643D01*
X61069001Y-148845071D02*
X61426144Y-149845071D01*
X61783286Y-148845071D02*
X61426144Y-149845071D01*
X61283286Y-150202214D01*
X61211858Y-150273643D01*
X61069001Y-150345071D01*
X63497572Y-149059357D02*
X63997572Y-149059357D01*
X64211858Y-149845071D02*
X63497572Y-149845071D01*
X63497572Y-148345071D01*
X64211858Y-148345071D01*
X65069001Y-149845071D02*
X64926143Y-149773643D01*
X64854715Y-149630786D01*
X64854715Y-148345071D01*
X66211857Y-149773643D02*
X66069000Y-149845071D01*
X65783286Y-149845071D01*
X65640429Y-149773643D01*
X65569000Y-149630786D01*
X65569000Y-149059357D01*
X65640429Y-148916500D01*
X65783286Y-148845071D01*
X66069000Y-148845071D01*
X66211857Y-148916500D01*
X66283286Y-149059357D01*
X66283286Y-149202214D01*
X65569000Y-149345071D01*
X67569000Y-149773643D02*
X67426143Y-149845071D01*
X67140429Y-149845071D01*
X66997571Y-149773643D01*
X66926143Y-149702214D01*
X66854714Y-149559357D01*
X66854714Y-149130786D01*
X66926143Y-148987929D01*
X66997571Y-148916500D01*
X67140429Y-148845071D01*
X67426143Y-148845071D01*
X67569000Y-148916500D01*
X67997571Y-148845071D02*
X68569000Y-148845071D01*
X68211857Y-148345071D02*
X68211857Y-149630786D01*
X68283285Y-149773643D01*
X68426143Y-149845071D01*
X68569000Y-149845071D01*
X69069000Y-149845071D02*
X69069000Y-148845071D01*
X69069000Y-149130786D02*
X69140428Y-148987929D01*
X69211857Y-148916500D01*
X69354714Y-148845071D01*
X69497571Y-148845071D01*
X69997571Y-149845071D02*
X69997571Y-148845071D01*
X69997571Y-148345071D02*
X69926142Y-148416500D01*
X69997571Y-148487929D01*
X70068999Y-148416500D01*
X69997571Y-148345071D01*
X69997571Y-148487929D01*
X71354714Y-149773643D02*
X71211857Y-149845071D01*
X70926143Y-149845071D01*
X70783285Y-149773643D01*
X70711857Y-149702214D01*
X70640428Y-149559357D01*
X70640428Y-149130786D01*
X70711857Y-148987929D01*
X70783285Y-148916500D01*
X70926143Y-148845071D01*
X71211857Y-148845071D01*
X71354714Y-148916500D01*
X72711857Y-149845071D02*
X71997571Y-149845071D01*
X71997571Y-148345071D01*
X73854714Y-149845071D02*
X73854714Y-149059357D01*
X73783285Y-148916500D01*
X73640428Y-148845071D01*
X73354714Y-148845071D01*
X73211857Y-148916500D01*
X73854714Y-149773643D02*
X73711857Y-149845071D01*
X73354714Y-149845071D01*
X73211857Y-149773643D01*
X73140428Y-149630786D01*
X73140428Y-149487929D01*
X73211857Y-149345071D01*
X73354714Y-149273643D01*
X73711857Y-149273643D01*
X73854714Y-149202214D01*
X74569000Y-149845071D02*
X74569000Y-148345071D01*
X74569000Y-148916500D02*
X74711857Y-148845071D01*
X74997571Y-148845071D01*
X75140428Y-148916500D01*
X75211857Y-148987929D01*
X75283286Y-149130786D01*
X75283286Y-149559357D01*
X75211857Y-149702214D01*
X75140428Y-149773643D01*
X74997571Y-149845071D01*
X74711857Y-149845071D01*
X74569000Y-149773643D01*
X78283286Y-149845071D02*
X78211857Y-149845071D01*
X78069000Y-149773643D01*
X77854714Y-149559357D01*
X77497571Y-149130786D01*
X77354714Y-148916500D01*
X77283286Y-148702214D01*
X77283286Y-148559357D01*
X77354714Y-148416500D01*
X77497571Y-148345071D01*
X77569000Y-148345071D01*
X77711857Y-148416500D01*
X77783286Y-148559357D01*
X77783286Y-148630786D01*
X77711857Y-148773643D01*
X77640428Y-148845071D01*
X77211857Y-149130786D01*
X77140428Y-149202214D01*
X77069000Y-149345071D01*
X77069000Y-149559357D01*
X77140428Y-149702214D01*
X77211857Y-149773643D01*
X77354714Y-149845071D01*
X77569000Y-149845071D01*
X77711857Y-149773643D01*
X77783286Y-149702214D01*
X77997571Y-149416500D01*
X78069000Y-149202214D01*
X78069000Y-149059357D01*
X80497571Y-148345071D02*
X80497571Y-149416500D01*
X80426143Y-149630786D01*
X80283286Y-149773643D01*
X80069000Y-149845071D01*
X79926143Y-149845071D01*
X81783285Y-149773643D02*
X81640428Y-149845071D01*
X81354714Y-149845071D01*
X81211857Y-149773643D01*
X81140428Y-149630786D01*
X81140428Y-149059357D01*
X81211857Y-148916500D01*
X81354714Y-148845071D01*
X81640428Y-148845071D01*
X81783285Y-148916500D01*
X81854714Y-149059357D01*
X81854714Y-149202214D01*
X81140428Y-149345071D01*
X83140428Y-149845071D02*
X83140428Y-148345071D01*
X83140428Y-149773643D02*
X82997571Y-149845071D01*
X82711857Y-149845071D01*
X82568999Y-149773643D01*
X82497571Y-149702214D01*
X82426142Y-149559357D01*
X82426142Y-149130786D01*
X82497571Y-148987929D01*
X82568999Y-148916500D01*
X82711857Y-148845071D01*
X82997571Y-148845071D01*
X83140428Y-148916500D01*
X83854714Y-149845071D02*
X83854714Y-148845071D01*
X83854714Y-148345071D02*
X83783285Y-148416500D01*
X83854714Y-148487929D01*
X83926142Y-148416500D01*
X83854714Y-148345071D01*
X83854714Y-148487929D01*
X84569000Y-149845071D02*
X84569000Y-148845071D01*
X84569000Y-148987929D02*
X84640428Y-148916500D01*
X84783286Y-148845071D01*
X84997571Y-148845071D01*
X85140428Y-148916500D01*
X85211857Y-149059357D01*
X85211857Y-149845071D01*
X85211857Y-149059357D02*
X85283286Y-148916500D01*
X85426143Y-148845071D01*
X85640428Y-148845071D01*
X85783286Y-148916500D01*
X85854714Y-149059357D01*
X85854714Y-149845071D01*
X87211857Y-149845071D02*
X87211857Y-149059357D01*
X87140428Y-148916500D01*
X86997571Y-148845071D01*
X86711857Y-148845071D01*
X86569000Y-148916500D01*
X87211857Y-149773643D02*
X87069000Y-149845071D01*
X86711857Y-149845071D01*
X86569000Y-149773643D01*
X86497571Y-149630786D01*
X86497571Y-149487929D01*
X86569000Y-149345071D01*
X86711857Y-149273643D01*
X87069000Y-149273643D01*
X87211857Y-149202214D01*
X87711857Y-148845071D02*
X88283286Y-148845071D01*
X87926143Y-148345071D02*
X87926143Y-149630786D01*
X87997571Y-149773643D01*
X88140429Y-149845071D01*
X88283286Y-149845071D01*
X88569000Y-148845071D02*
X89140429Y-148845071D01*
X88783286Y-148345071D02*
X88783286Y-149630786D01*
X88854714Y-149773643D01*
X88997572Y-149845071D01*
X89140429Y-149845071D01*
X90283286Y-148845071D02*
X90283286Y-149845071D01*
X89926143Y-148273643D02*
X89569000Y-149345071D01*
X90497572Y-149345071D01*
X90997571Y-148487929D02*
X91069000Y-148416500D01*
X91211857Y-148345071D01*
X91569000Y-148345071D01*
X91711857Y-148416500D01*
X91783286Y-148487929D01*
X91854714Y-148630786D01*
X91854714Y-148773643D01*
X91783286Y-148987929D01*
X90926143Y-149845071D01*
X91854714Y-149845071D01*
D12*
X67072000Y-132239000D02*
X67072000Y-131514000D01*
X52722000Y-132239000D02*
X52722000Y-131439000D01*
X52722000Y-117889000D02*
X52722000Y-118689000D01*
X67072000Y-117889000D02*
X67072000Y-118689000D01*
X67072000Y-132239000D02*
X66272000Y-132239000D01*
X67072000Y-117889000D02*
X66272000Y-117889000D01*
X52722000Y-117889000D02*
X53522000Y-117889000D01*
X52722000Y-132239000D02*
X53522000Y-132239000D01*
X67072000Y-131514000D02*
X68347000Y-131514000D01*
D13*
X44268000Y-152738500D02*
X45768000Y-152738500D01*
X45768000Y-152738500D02*
X45768000Y-152468500D01*
X45768000Y-152468500D02*
X48598000Y-152468500D01*
X44268000Y-145838500D02*
X45768000Y-145838500D01*
X45768000Y-145838500D02*
X45768000Y-146108500D01*
X45768000Y-146108500D02*
X46868000Y-146108500D01*
X73730500Y-111363000D02*
X73730500Y-116943000D01*
X73730500Y-116943000D02*
X109530500Y-116943000D01*
X109530500Y-116943000D02*
X109530500Y-103783000D01*
X109530500Y-103783000D02*
X73730500Y-103783000D01*
X73730500Y-103783000D02*
X73730500Y-109363000D01*
X73730500Y-119373000D02*
X109530500Y-119373000D01*
X109530500Y-119373000D02*
X109530500Y-101353000D01*
X109530500Y-101353000D02*
X73730500Y-101353000D01*
X73730500Y-101353000D02*
X73730500Y-119373000D01*
X73730500Y-109363000D02*
G75*
G02X73730500Y-111363000I0J-1000000D01*
G01*
X47462500Y-122770000D02*
X48462500Y-122770000D01*
X48462500Y-121070000D02*
X47462500Y-121070000D01*
X47807500Y-132837500D02*
X46807500Y-132837500D01*
X46807500Y-134537500D02*
X47807500Y-134537500D01*
X44136500Y-99403500D02*
X64956500Y-99403500D01*
X64956500Y-99403500D02*
X64956500Y-109003500D01*
X64956500Y-109003500D02*
X44136500Y-109003500D01*
X44136500Y-109003500D02*
X44136500Y-99403500D01*
X39370892Y-104690165D02*
G75*
G03X39213984Y-107922500I1078608J-1672335D01*
G01*
X41528108Y-104690165D02*
G75*
G02X41685016Y-107922500I-1078608J-1672335D01*
G01*
X39369663Y-105321370D02*
G75*
G03X39369500Y-107403461I1079837J-1041130D01*
G01*
X41529337Y-105321370D02*
G75*
G02X41529500Y-107403461I-1079837J-1041130D01*
G01*
X39213500Y-107922500D02*
X39369500Y-107922500D01*
X41529500Y-107922500D02*
X41685500Y-107922500D01*
X45720000Y-142300000D02*
X99120000Y-142300000D01*
X99120000Y-142300000D02*
X99120000Y-137100000D01*
X99120000Y-137100000D02*
X43120000Y-137100000D01*
X43120000Y-137100000D02*
X43120000Y-139700000D01*
X43120000Y-139700000D02*
X45720000Y-139700000D01*
X45720000Y-139700000D02*
X45720000Y-142300000D01*
X44450000Y-142300000D02*
X43120000Y-142300000D01*
X43120000Y-142300000D02*
X43120000Y-140970000D01*
X114528000Y-131639500D02*
X114528000Y-152459500D01*
X114528000Y-152459500D02*
X104928000Y-152459500D01*
X104928000Y-152459500D02*
X104928000Y-131639500D01*
X104928000Y-131639500D02*
X114528000Y-131639500D01*
X37278000Y-125793500D02*
X37278000Y-133473500D01*
X37278000Y-133473500D02*
X42478000Y-133473500D01*
X42478000Y-133473500D02*
X42478000Y-123193500D01*
X42478000Y-123193500D02*
X39878000Y-123193500D01*
X39878000Y-123193500D02*
X39878000Y-125793500D01*
X39878000Y-125793500D02*
X37278000Y-125793500D01*
X37278000Y-124523500D02*
X37278000Y-123193500D01*
X37278000Y-123193500D02*
X38608000Y-123193500D01*
X39314000Y-113028000D02*
X40244000Y-113028000D01*
X42474000Y-113028000D02*
X41544000Y-113028000D01*
X42474000Y-113028000D02*
X42474000Y-110868000D01*
X39314000Y-113028000D02*
X39314000Y-111568000D01*
X39442500Y-117520000D02*
X39442500Y-116320000D01*
X41202500Y-116320000D02*
X41202500Y-117520000D01*
X39170500Y-116320000D02*
X39170500Y-117520000D01*
X37410500Y-117520000D02*
X37410500Y-116320000D01*
D12*
X98285300Y-128460500D02*
X105905300Y-128460500D01*
X105905300Y-124904500D02*
X98285300Y-124904500D01*
X98285300Y-128460500D02*
X98285300Y-124904500D01*
X105905300Y-124904500D02*
X105905300Y-128460500D01*
X105756510Y-125412500D02*
G75*
G03X105756510Y-125412500I-359210J0D01*
G01*
X105905300Y-127317500D02*
X105143300Y-127317500D01*
X105143300Y-127317500D02*
X105143300Y-126047500D01*
X105143300Y-126047500D02*
X105905300Y-126047500D01*
D13*
X47716500Y-119087000D02*
X48716500Y-119087000D01*
X48716500Y-117387000D02*
X47716500Y-117387000D01*
X68434500Y-108385500D02*
X67234500Y-108385500D01*
X67234500Y-106625500D02*
X68434500Y-106625500D01*
X68434500Y-106290000D02*
X67234500Y-106290000D01*
X67234500Y-104530000D02*
X68434500Y-104530000D01*
X68465000Y-104194500D02*
X67265000Y-104194500D01*
X67265000Y-102434500D02*
X68465000Y-102434500D01*
X52677000Y-146152500D02*
X51677000Y-146152500D01*
X51677000Y-147852500D02*
X52677000Y-147852500D01*
X52653500Y-148438500D02*
X51653500Y-148438500D01*
X51653500Y-150138500D02*
X52653500Y-150138500D01*
X73608500Y-127674000D02*
X72608500Y-127674000D01*
X72608500Y-129374000D02*
X73608500Y-129374000D01*
X64123000Y-113181500D02*
X65123000Y-113181500D01*
X65123000Y-111481500D02*
X64123000Y-111481500D01*
X58789000Y-114197500D02*
X59789000Y-114197500D01*
X59789000Y-112497500D02*
X58789000Y-112497500D01*
X73418000Y-131674500D02*
X72418000Y-131674500D01*
X72418000Y-133374500D02*
X73418000Y-133374500D01*
X107974500Y-126972000D02*
X107974500Y-125972000D01*
X106274500Y-125972000D02*
X106274500Y-126972000D01*
X71159000Y-105755500D02*
X71159000Y-106755500D01*
X72859000Y-106755500D02*
X72859000Y-105755500D01*
D12*
X59135095Y-133966381D02*
X59135095Y-134775905D01*
X59182714Y-134871143D01*
X59230333Y-134918762D01*
X59325571Y-134966381D01*
X59516048Y-134966381D01*
X59611286Y-134918762D01*
X59658905Y-134871143D01*
X59706524Y-134775905D01*
X59706524Y-133966381D01*
X60706524Y-134966381D02*
X60135095Y-134966381D01*
X60420809Y-134966381D02*
X60420809Y-133966381D01*
X60325571Y-134109238D01*
X60230333Y-134204476D01*
X60135095Y-134252095D01*
X42536095Y-153240881D02*
X42536095Y-154050405D01*
X42583714Y-154145643D01*
X42631333Y-154193262D01*
X42726571Y-154240881D01*
X42917048Y-154240881D01*
X43012286Y-154193262D01*
X43059905Y-154145643D01*
X43107524Y-154050405D01*
X43107524Y-153240881D01*
X44012286Y-153574214D02*
X44012286Y-154240881D01*
X43774190Y-153193262D02*
X43536095Y-153907548D01*
X44155143Y-153907548D01*
X71755095Y-110196381D02*
X71755095Y-111005905D01*
X71802714Y-111101143D01*
X71850333Y-111148762D01*
X71945571Y-111196381D01*
X72136048Y-111196381D01*
X72231286Y-111148762D01*
X72278905Y-111101143D01*
X72326524Y-111005905D01*
X72326524Y-110196381D01*
X72755095Y-110291619D02*
X72802714Y-110244000D01*
X72897952Y-110196381D01*
X73136048Y-110196381D01*
X73231286Y-110244000D01*
X73278905Y-110291619D01*
X73326524Y-110386857D01*
X73326524Y-110482095D01*
X73278905Y-110624952D01*
X72707476Y-111196381D01*
X73326524Y-111196381D01*
X44537334Y-122340643D02*
X44489715Y-122388262D01*
X44346858Y-122435881D01*
X44251620Y-122435881D01*
X44108762Y-122388262D01*
X44013524Y-122293024D01*
X43965905Y-122197786D01*
X43918286Y-122007310D01*
X43918286Y-121864452D01*
X43965905Y-121673976D01*
X44013524Y-121578738D01*
X44108762Y-121483500D01*
X44251620Y-121435881D01*
X44346858Y-121435881D01*
X44489715Y-121483500D01*
X44537334Y-121531119D01*
X45442096Y-121435881D02*
X44965905Y-121435881D01*
X44918286Y-121912071D01*
X44965905Y-121864452D01*
X45061143Y-121816833D01*
X45299239Y-121816833D01*
X45394477Y-121864452D01*
X45442096Y-121912071D01*
X45489715Y-122007310D01*
X45489715Y-122245405D01*
X45442096Y-122340643D01*
X45394477Y-122388262D01*
X45299239Y-122435881D01*
X45061143Y-122435881D01*
X44965905Y-122388262D01*
X44918286Y-122340643D01*
X47140834Y-132294643D02*
X47093215Y-132342262D01*
X46950358Y-132389881D01*
X46855120Y-132389881D01*
X46712262Y-132342262D01*
X46617024Y-132247024D01*
X46569405Y-132151786D01*
X46521786Y-131961310D01*
X46521786Y-131818452D01*
X46569405Y-131627976D01*
X46617024Y-131532738D01*
X46712262Y-131437500D01*
X46855120Y-131389881D01*
X46950358Y-131389881D01*
X47093215Y-131437500D01*
X47140834Y-131485119D01*
X47997977Y-131389881D02*
X47807500Y-131389881D01*
X47712262Y-131437500D01*
X47664643Y-131485119D01*
X47569405Y-131627976D01*
X47521786Y-131818452D01*
X47521786Y-132199405D01*
X47569405Y-132294643D01*
X47617024Y-132342262D01*
X47712262Y-132389881D01*
X47902739Y-132389881D01*
X47997977Y-132342262D01*
X48045596Y-132294643D01*
X48093215Y-132199405D01*
X48093215Y-131961310D01*
X48045596Y-131866071D01*
X47997977Y-131818452D01*
X47902739Y-131770833D01*
X47712262Y-131770833D01*
X47617024Y-131818452D01*
X47569405Y-131866071D01*
X47521786Y-131961310D01*
X45029643Y-99909381D02*
X45029643Y-100623667D01*
X44982023Y-100766524D01*
X44886785Y-100861762D01*
X44743928Y-100909381D01*
X44648690Y-100909381D01*
X45362976Y-99909381D02*
X45934405Y-99909381D01*
X45648690Y-100909381D02*
X45648690Y-99909381D01*
X46220119Y-100623667D02*
X46696310Y-100623667D01*
X46124881Y-100909381D02*
X46458214Y-99909381D01*
X46791548Y-100909381D01*
X47648691Y-99957000D02*
X47553453Y-99909381D01*
X47410596Y-99909381D01*
X47267738Y-99957000D01*
X47172500Y-100052238D01*
X47124881Y-100147476D01*
X47077262Y-100337952D01*
X47077262Y-100480810D01*
X47124881Y-100671286D01*
X47172500Y-100766524D01*
X47267738Y-100861762D01*
X47410596Y-100909381D01*
X47505834Y-100909381D01*
X47648691Y-100861762D01*
X47696310Y-100814143D01*
X47696310Y-100480810D01*
X47505834Y-100480810D01*
X48648691Y-100909381D02*
X48077262Y-100909381D01*
X48362976Y-100909381D02*
X48362976Y-99909381D01*
X48267738Y-100052238D01*
X48172500Y-100147476D01*
X48077262Y-100195095D01*
D13*
X49772215Y-107645881D02*
X49200786Y-107645881D01*
X49486500Y-107645881D02*
X49486500Y-106645881D01*
X49391262Y-106788738D01*
X49296024Y-106883976D01*
X49200786Y-106931595D01*
D12*
X36751405Y-106814881D02*
X36751405Y-105814881D01*
X36989500Y-105814881D01*
X37132358Y-105862500D01*
X37227596Y-105957738D01*
X37275215Y-106052976D01*
X37322834Y-106243452D01*
X37322834Y-106386310D01*
X37275215Y-106576786D01*
X37227596Y-106672024D01*
X37132358Y-106767262D01*
X36989500Y-106814881D01*
X36751405Y-106814881D01*
X38275215Y-106814881D02*
X37703786Y-106814881D01*
X37989500Y-106814881D02*
X37989500Y-105814881D01*
X37894262Y-105957738D01*
X37799024Y-106052976D01*
X37703786Y-106100595D01*
X41572381Y-140033333D02*
X42286667Y-140033333D01*
X42429524Y-140080953D01*
X42524762Y-140176191D01*
X42572381Y-140319048D01*
X42572381Y-140414286D01*
X42572381Y-139033333D02*
X42572381Y-139604762D01*
X42572381Y-139319048D02*
X41572381Y-139319048D01*
X41715238Y-139414286D01*
X41810476Y-139509524D01*
X41858095Y-139604762D01*
X105965739Y-151963381D02*
X105632405Y-151487190D01*
X105394310Y-151963381D02*
X105394310Y-150963381D01*
X105775263Y-150963381D01*
X105870501Y-151011000D01*
X105918120Y-151058619D01*
X105965739Y-151153857D01*
X105965739Y-151296714D01*
X105918120Y-151391952D01*
X105870501Y-151439571D01*
X105775263Y-151487190D01*
X105394310Y-151487190D01*
X106394310Y-151963381D02*
X106394310Y-150963381D01*
X106775263Y-150963381D01*
X106870501Y-151011000D01*
X106918120Y-151058619D01*
X106965739Y-151153857D01*
X106965739Y-151296714D01*
X106918120Y-151391952D01*
X106870501Y-151439571D01*
X106775263Y-151487190D01*
X106394310Y-151487190D01*
X107394310Y-151963381D02*
X107394310Y-151296714D01*
X107394310Y-150963381D02*
X107346691Y-151011000D01*
X107394310Y-151058619D01*
X107441929Y-151011000D01*
X107394310Y-150963381D01*
X107394310Y-151058619D01*
X108394310Y-151963381D02*
X107822881Y-151963381D01*
X108108595Y-151963381D02*
X108108595Y-150963381D01*
X108013357Y-151106238D01*
X107918119Y-151201476D01*
X107822881Y-151249095D01*
D13*
X107190381Y-136703785D02*
X107190381Y-137275214D01*
X107190381Y-136989500D02*
X106190381Y-136989500D01*
X106333238Y-137084738D01*
X106428476Y-137179976D01*
X106476095Y-137275214D01*
D12*
X43600643Y-129984119D02*
X43648262Y-130031738D01*
X43695881Y-130174595D01*
X43695881Y-130269833D01*
X43648262Y-130412691D01*
X43553024Y-130507929D01*
X43457786Y-130555548D01*
X43267310Y-130603167D01*
X43124452Y-130603167D01*
X42933976Y-130555548D01*
X42838738Y-130507929D01*
X42743500Y-130412691D01*
X42695881Y-130269833D01*
X42695881Y-130174595D01*
X42743500Y-130031738D01*
X42791119Y-129984119D01*
X43695881Y-128984119D02*
X43219690Y-129317453D01*
X43695881Y-129555548D02*
X42695881Y-129555548D01*
X42695881Y-129174595D01*
X42743500Y-129079357D01*
X42791119Y-129031738D01*
X42886357Y-128984119D01*
X43029214Y-128984119D01*
X43124452Y-129031738D01*
X43172071Y-129079357D01*
X43219690Y-129174595D01*
X43219690Y-129555548D01*
X42695881Y-128555548D02*
X43505405Y-128555548D01*
X43600643Y-128507929D01*
X43648262Y-128460310D01*
X43695881Y-128365072D01*
X43695881Y-128174595D01*
X43648262Y-128079357D01*
X43600643Y-128031738D01*
X43505405Y-127984119D01*
X42695881Y-127984119D01*
X43172071Y-127174595D02*
X43219690Y-127031738D01*
X43267310Y-126984119D01*
X43362548Y-126936500D01*
X43505405Y-126936500D01*
X43600643Y-126984119D01*
X43648262Y-127031738D01*
X43695881Y-127126976D01*
X43695881Y-127507929D01*
X42695881Y-127507929D01*
X42695881Y-127174595D01*
X42743500Y-127079357D01*
X42791119Y-127031738D01*
X42886357Y-126984119D01*
X42981595Y-126984119D01*
X43076833Y-127031738D01*
X43124452Y-127079357D01*
X43172071Y-127174595D01*
X43172071Y-127507929D01*
X43410167Y-126555548D02*
X43410167Y-126079357D01*
X43695881Y-126650786D02*
X42695881Y-126317453D01*
X43695881Y-125984119D01*
X43648262Y-125698405D02*
X43695881Y-125555548D01*
X43695881Y-125317452D01*
X43648262Y-125222214D01*
X43600643Y-125174595D01*
X43505405Y-125126976D01*
X43410167Y-125126976D01*
X43314929Y-125174595D01*
X43267310Y-125222214D01*
X43219690Y-125317452D01*
X43172071Y-125507929D01*
X43124452Y-125603167D01*
X43076833Y-125650786D01*
X42981595Y-125698405D01*
X42886357Y-125698405D01*
X42791119Y-125650786D01*
X42743500Y-125603167D01*
X42695881Y-125507929D01*
X42695881Y-125269833D01*
X42743500Y-125126976D01*
X43172071Y-124698405D02*
X43172071Y-124365071D01*
X43695881Y-124222214D02*
X43695881Y-124698405D01*
X42695881Y-124698405D01*
X42695881Y-124222214D01*
X43695881Y-123269833D02*
X43695881Y-123841262D01*
X43695881Y-123555548D02*
X42695881Y-123555548D01*
X42838738Y-123650786D01*
X42933976Y-123746024D01*
X42981595Y-123841262D01*
X43529262Y-112498119D02*
X43434024Y-112450500D01*
X43338786Y-112355262D01*
X43195929Y-112212405D01*
X43100690Y-112164786D01*
X43005452Y-112164786D01*
X43053071Y-112402881D02*
X42957833Y-112355262D01*
X42862595Y-112260024D01*
X42814976Y-112069548D01*
X42814976Y-111736214D01*
X42862595Y-111545738D01*
X42957833Y-111450500D01*
X43053071Y-111402881D01*
X43243548Y-111402881D01*
X43338786Y-111450500D01*
X43434024Y-111545738D01*
X43481643Y-111736214D01*
X43481643Y-112069548D01*
X43434024Y-112260024D01*
X43338786Y-112355262D01*
X43243548Y-112402881D01*
X43053071Y-112402881D01*
X44434024Y-112402881D02*
X43862595Y-112402881D01*
X44148309Y-112402881D02*
X44148309Y-111402881D01*
X44053071Y-111545738D01*
X43957833Y-111640976D01*
X43862595Y-111688595D01*
X40346334Y-120848381D02*
X40013000Y-120372190D01*
X39774905Y-120848381D02*
X39774905Y-119848381D01*
X40155858Y-119848381D01*
X40251096Y-119896000D01*
X40298715Y-119943619D01*
X40346334Y-120038857D01*
X40346334Y-120181714D01*
X40298715Y-120276952D01*
X40251096Y-120324571D01*
X40155858Y-120372190D01*
X39774905Y-120372190D01*
X41298715Y-120848381D02*
X40727286Y-120848381D01*
X41013000Y-120848381D02*
X41013000Y-119848381D01*
X40917762Y-119991238D01*
X40822524Y-120086476D01*
X40727286Y-120134095D01*
X38187334Y-113926881D02*
X37854000Y-113450690D01*
X37615905Y-113926881D02*
X37615905Y-112926881D01*
X37996858Y-112926881D01*
X38092096Y-112974500D01*
X38139715Y-113022119D01*
X38187334Y-113117357D01*
X38187334Y-113260214D01*
X38139715Y-113355452D01*
X38092096Y-113403071D01*
X37996858Y-113450690D01*
X37615905Y-113450690D01*
X38568286Y-113022119D02*
X38615905Y-112974500D01*
X38711143Y-112926881D01*
X38949239Y-112926881D01*
X39044477Y-112974500D01*
X39092096Y-113022119D01*
X39139715Y-113117357D01*
X39139715Y-113212595D01*
X39092096Y-113355452D01*
X38520667Y-113926881D01*
X39139715Y-113926881D01*
X105727595Y-128928881D02*
X105727595Y-129738405D01*
X105775214Y-129833643D01*
X105822833Y-129881262D01*
X105918071Y-129928881D01*
X106108548Y-129928881D01*
X106203786Y-129881262D01*
X106251405Y-129833643D01*
X106299024Y-129738405D01*
X106299024Y-128928881D01*
X106679976Y-128928881D02*
X107299024Y-128928881D01*
X106965690Y-129309833D01*
X107108548Y-129309833D01*
X107203786Y-129357452D01*
X107251405Y-129405071D01*
X107299024Y-129500310D01*
X107299024Y-129738405D01*
X107251405Y-129833643D01*
X107203786Y-129881262D01*
X107108548Y-129928881D01*
X106822833Y-129928881D01*
X106727595Y-129881262D01*
X106679976Y-129833643D01*
X44791334Y-118657643D02*
X44743715Y-118705262D01*
X44600858Y-118752881D01*
X44505620Y-118752881D01*
X44362762Y-118705262D01*
X44267524Y-118610024D01*
X44219905Y-118514786D01*
X44172286Y-118324310D01*
X44172286Y-118181452D01*
X44219905Y-117990976D01*
X44267524Y-117895738D01*
X44362762Y-117800500D01*
X44505620Y-117752881D01*
X44600858Y-117752881D01*
X44743715Y-117800500D01*
X44791334Y-117848119D01*
X45362762Y-118181452D02*
X45267524Y-118133833D01*
X45219905Y-118086214D01*
X45172286Y-117990976D01*
X45172286Y-117943357D01*
X45219905Y-117848119D01*
X45267524Y-117800500D01*
X45362762Y-117752881D01*
X45553239Y-117752881D01*
X45648477Y-117800500D01*
X45696096Y-117848119D01*
X45743715Y-117943357D01*
X45743715Y-117990976D01*
X45696096Y-118086214D01*
X45648477Y-118133833D01*
X45553239Y-118181452D01*
X45362762Y-118181452D01*
X45267524Y-118229071D01*
X45219905Y-118276690D01*
X45172286Y-118371929D01*
X45172286Y-118562405D01*
X45219905Y-118657643D01*
X45267524Y-118705262D01*
X45362762Y-118752881D01*
X45553239Y-118752881D01*
X45648477Y-118705262D01*
X45696096Y-118657643D01*
X45743715Y-118562405D01*
X45743715Y-118371929D01*
X45696096Y-118276690D01*
X45648477Y-118229071D01*
X45553239Y-118181452D01*
X67079834Y-109608881D02*
X66746500Y-109132690D01*
X66508405Y-109608881D02*
X66508405Y-108608881D01*
X66889358Y-108608881D01*
X66984596Y-108656500D01*
X67032215Y-108704119D01*
X67079834Y-108799357D01*
X67079834Y-108942214D01*
X67032215Y-109037452D01*
X66984596Y-109085071D01*
X66889358Y-109132690D01*
X66508405Y-109132690D01*
X67936977Y-108942214D02*
X67936977Y-109608881D01*
X67698881Y-108561262D02*
X67460786Y-109275548D01*
X68079834Y-109275548D01*
X66571834Y-102242881D02*
X66238500Y-101766690D01*
X66000405Y-102242881D02*
X66000405Y-101242881D01*
X66381358Y-101242881D01*
X66476596Y-101290500D01*
X66524215Y-101338119D01*
X66571834Y-101433357D01*
X66571834Y-101576214D01*
X66524215Y-101671452D01*
X66476596Y-101719071D01*
X66381358Y-101766690D01*
X66000405Y-101766690D01*
X67476596Y-101242881D02*
X67000405Y-101242881D01*
X66952786Y-101719071D01*
X67000405Y-101671452D01*
X67095643Y-101623833D01*
X67333739Y-101623833D01*
X67428977Y-101671452D01*
X67476596Y-101719071D01*
X67524215Y-101814310D01*
X67524215Y-102052405D01*
X67476596Y-102147643D01*
X67428977Y-102195262D01*
X67333739Y-102242881D01*
X67095643Y-102242881D01*
X67000405Y-102195262D01*
X66952786Y-102147643D01*
X69048334Y-102242881D02*
X68715000Y-101766690D01*
X68476905Y-102242881D02*
X68476905Y-101242881D01*
X68857858Y-101242881D01*
X68953096Y-101290500D01*
X69000715Y-101338119D01*
X69048334Y-101433357D01*
X69048334Y-101576214D01*
X69000715Y-101671452D01*
X68953096Y-101719071D01*
X68857858Y-101766690D01*
X68476905Y-101766690D01*
X69905477Y-101242881D02*
X69715000Y-101242881D01*
X69619762Y-101290500D01*
X69572143Y-101338119D01*
X69476905Y-101480976D01*
X69429286Y-101671452D01*
X69429286Y-102052405D01*
X69476905Y-102147643D01*
X69524524Y-102195262D01*
X69619762Y-102242881D01*
X69810239Y-102242881D01*
X69905477Y-102195262D01*
X69953096Y-102147643D01*
X70000715Y-102052405D01*
X70000715Y-101814310D01*
X69953096Y-101719071D01*
X69905477Y-101671452D01*
X69810239Y-101623833D01*
X69619762Y-101623833D01*
X69524524Y-101671452D01*
X69476905Y-101719071D01*
X69429286Y-101814310D01*
X55268834Y-147423143D02*
X55221215Y-147470762D01*
X55078358Y-147518381D01*
X54983120Y-147518381D01*
X54840262Y-147470762D01*
X54745024Y-147375524D01*
X54697405Y-147280286D01*
X54649786Y-147089810D01*
X54649786Y-146946952D01*
X54697405Y-146756476D01*
X54745024Y-146661238D01*
X54840262Y-146566000D01*
X54983120Y-146518381D01*
X55078358Y-146518381D01*
X55221215Y-146566000D01*
X55268834Y-146613619D01*
X56221215Y-147518381D02*
X55649786Y-147518381D01*
X55935500Y-147518381D02*
X55935500Y-146518381D01*
X55840262Y-146661238D01*
X55745024Y-146756476D01*
X55649786Y-146804095D01*
X55332334Y-149645643D02*
X55284715Y-149693262D01*
X55141858Y-149740881D01*
X55046620Y-149740881D01*
X54903762Y-149693262D01*
X54808524Y-149598024D01*
X54760905Y-149502786D01*
X54713286Y-149312310D01*
X54713286Y-149169452D01*
X54760905Y-148978976D01*
X54808524Y-148883738D01*
X54903762Y-148788500D01*
X55046620Y-148740881D01*
X55141858Y-148740881D01*
X55284715Y-148788500D01*
X55332334Y-148836119D01*
X55713286Y-148836119D02*
X55760905Y-148788500D01*
X55856143Y-148740881D01*
X56094239Y-148740881D01*
X56189477Y-148788500D01*
X56237096Y-148836119D01*
X56284715Y-148931357D01*
X56284715Y-149026595D01*
X56237096Y-149169452D01*
X55665667Y-149740881D01*
X56284715Y-149740881D01*
X72941834Y-127131143D02*
X72894215Y-127178762D01*
X72751358Y-127226381D01*
X72656120Y-127226381D01*
X72513262Y-127178762D01*
X72418024Y-127083524D01*
X72370405Y-126988286D01*
X72322786Y-126797810D01*
X72322786Y-126654952D01*
X72370405Y-126464476D01*
X72418024Y-126369238D01*
X72513262Y-126274000D01*
X72656120Y-126226381D01*
X72751358Y-126226381D01*
X72894215Y-126274000D01*
X72941834Y-126321619D01*
X73275167Y-126226381D02*
X73894215Y-126226381D01*
X73560881Y-126607333D01*
X73703739Y-126607333D01*
X73798977Y-126654952D01*
X73846596Y-126702571D01*
X73894215Y-126797810D01*
X73894215Y-127035905D01*
X73846596Y-127131143D01*
X73798977Y-127178762D01*
X73703739Y-127226381D01*
X73418024Y-127226381D01*
X73322786Y-127178762D01*
X73275167Y-127131143D01*
X67841834Y-112815643D02*
X67794215Y-112863262D01*
X67651358Y-112910881D01*
X67556120Y-112910881D01*
X67413262Y-112863262D01*
X67318024Y-112768024D01*
X67270405Y-112672786D01*
X67222786Y-112482310D01*
X67222786Y-112339452D01*
X67270405Y-112148976D01*
X67318024Y-112053738D01*
X67413262Y-111958500D01*
X67556120Y-111910881D01*
X67651358Y-111910881D01*
X67794215Y-111958500D01*
X67841834Y-112006119D01*
X68698977Y-112244214D02*
X68698977Y-112910881D01*
X68460881Y-111863262D02*
X68222786Y-112577548D01*
X68841834Y-112577548D01*
X55903834Y-113641143D02*
X55856215Y-113688762D01*
X55713358Y-113736381D01*
X55618120Y-113736381D01*
X55475262Y-113688762D01*
X55380024Y-113593524D01*
X55332405Y-113498286D01*
X55284786Y-113307810D01*
X55284786Y-113164952D01*
X55332405Y-112974476D01*
X55380024Y-112879238D01*
X55475262Y-112784000D01*
X55618120Y-112736381D01*
X55713358Y-112736381D01*
X55856215Y-112784000D01*
X55903834Y-112831619D01*
X56237167Y-112736381D02*
X56903834Y-112736381D01*
X56475262Y-113736381D01*
X72751334Y-131131643D02*
X72703715Y-131179262D01*
X72560858Y-131226881D01*
X72465620Y-131226881D01*
X72322762Y-131179262D01*
X72227524Y-131084024D01*
X72179905Y-130988786D01*
X72132286Y-130798310D01*
X72132286Y-130655452D01*
X72179905Y-130464976D01*
X72227524Y-130369738D01*
X72322762Y-130274500D01*
X72465620Y-130226881D01*
X72560858Y-130226881D01*
X72703715Y-130274500D01*
X72751334Y-130322119D01*
X73227524Y-131226881D02*
X73418000Y-131226881D01*
X73513239Y-131179262D01*
X73560858Y-131131643D01*
X73656096Y-130988786D01*
X73703715Y-130798310D01*
X73703715Y-130417357D01*
X73656096Y-130322119D01*
X73608477Y-130274500D01*
X73513239Y-130226881D01*
X73322762Y-130226881D01*
X73227524Y-130274500D01*
X73179905Y-130322119D01*
X73132286Y-130417357D01*
X73132286Y-130655452D01*
X73179905Y-130750690D01*
X73227524Y-130798310D01*
X73322762Y-130845929D01*
X73513239Y-130845929D01*
X73608477Y-130798310D01*
X73656096Y-130750690D01*
X73703715Y-130655452D01*
X106989643Y-123864643D02*
X106942024Y-123912262D01*
X106799167Y-123959881D01*
X106703929Y-123959881D01*
X106561071Y-123912262D01*
X106465833Y-123817024D01*
X106418214Y-123721786D01*
X106370595Y-123531310D01*
X106370595Y-123388452D01*
X106418214Y-123197976D01*
X106465833Y-123102738D01*
X106561071Y-123007500D01*
X106703929Y-122959881D01*
X106799167Y-122959881D01*
X106942024Y-123007500D01*
X106989643Y-123055119D01*
X107942024Y-123959881D02*
X107370595Y-123959881D01*
X107656309Y-123959881D02*
X107656309Y-122959881D01*
X107561071Y-123102738D01*
X107465833Y-123197976D01*
X107370595Y-123245595D01*
X108561071Y-122959881D02*
X108656310Y-122959881D01*
X108751548Y-123007500D01*
X108799167Y-123055119D01*
X108846786Y-123150357D01*
X108894405Y-123340833D01*
X108894405Y-123578929D01*
X108846786Y-123769405D01*
X108799167Y-123864643D01*
X108751548Y-123912262D01*
X108656310Y-123959881D01*
X108561071Y-123959881D01*
X108465833Y-123912262D01*
X108418214Y-123864643D01*
X108370595Y-123769405D01*
X108322976Y-123578929D01*
X108322976Y-123340833D01*
X108370595Y-123150357D01*
X108418214Y-123055119D01*
X108465833Y-123007500D01*
X108561071Y-122959881D01*
X71429643Y-103481143D02*
X71382024Y-103528762D01*
X71239167Y-103576381D01*
X71143929Y-103576381D01*
X71001071Y-103528762D01*
X70905833Y-103433524D01*
X70858214Y-103338286D01*
X70810595Y-103147810D01*
X70810595Y-103004952D01*
X70858214Y-102814476D01*
X70905833Y-102719238D01*
X71001071Y-102624000D01*
X71143929Y-102576381D01*
X71239167Y-102576381D01*
X71382024Y-102624000D01*
X71429643Y-102671619D01*
X72382024Y-103576381D02*
X71810595Y-103576381D01*
X72096309Y-103576381D02*
X72096309Y-102576381D01*
X72001071Y-102719238D01*
X71905833Y-102814476D01*
X71810595Y-102862095D01*
X73334405Y-103576381D02*
X72762976Y-103576381D01*
X73048690Y-103576381D02*
X73048690Y-102576381D01*
X72953452Y-102719238D01*
X72858214Y-102814476D01*
X72762976Y-102862095D01*
X110363095Y-127150881D02*
X110934524Y-127150881D01*
X110648809Y-128150881D02*
X110648809Y-127150881D01*
X111791667Y-128150881D02*
X111220238Y-128150881D01*
X111505952Y-128150881D02*
X111505952Y-127150881D01*
X111410714Y-127293738D01*
X111315476Y-127388976D01*
X111220238Y-127436595D01*
X46291595Y-127849381D02*
X46863024Y-127849381D01*
X46577309Y-128849381D02*
X46577309Y-127849381D01*
X47148738Y-127944619D02*
X47196357Y-127897000D01*
X47291595Y-127849381D01*
X47529691Y-127849381D01*
X47624929Y-127897000D01*
X47672548Y-127944619D01*
X47720167Y-128039857D01*
X47720167Y-128135095D01*
X47672548Y-128277952D01*
X47101119Y-128849381D01*
X47720167Y-128849381D01*
X48641095Y-127912881D02*
X49212524Y-127912881D01*
X48926809Y-128912881D02*
X48926809Y-127912881D01*
X49450619Y-127912881D02*
X50069667Y-127912881D01*
X49736333Y-128293833D01*
X49879191Y-128293833D01*
X49974429Y-128341452D01*
X50022048Y-128389071D01*
X50069667Y-128484310D01*
X50069667Y-128722405D01*
X50022048Y-128817643D01*
X49974429Y-128865262D01*
X49879191Y-128912881D01*
X49593476Y-128912881D01*
X49498238Y-128865262D01*
X49450619Y-128817643D01*
X46101095Y-122959881D02*
X46672524Y-122959881D01*
X46386809Y-123959881D02*
X46386809Y-122959881D01*
X47434429Y-123293214D02*
X47434429Y-123959881D01*
X47196333Y-122912262D02*
X46958238Y-123626548D01*
X47577286Y-123626548D01*
X48577595Y-123213881D02*
X49149024Y-123213881D01*
X48863309Y-124213881D02*
X48863309Y-123213881D01*
X49958548Y-123213881D02*
X49482357Y-123213881D01*
X49434738Y-123690071D01*
X49482357Y-123642452D01*
X49577595Y-123594833D01*
X49815691Y-123594833D01*
X49910929Y-123642452D01*
X49958548Y-123690071D01*
X50006167Y-123785310D01*
X50006167Y-124023405D01*
X49958548Y-124118643D01*
X49910929Y-124166262D01*
X49815691Y-124213881D01*
X49577595Y-124213881D01*
X49482357Y-124166262D01*
X49434738Y-124118643D01*
M02*
