M48
;DRILL file {KiCad 4.0.6} date 07/29/17 07:53:53
;FORMAT={-:-/ absolute / inch / decimal}
FMAT,2
INCH,TZ
T1C0.016
T2C0.031
T3C0.035
T4C0.039
T5C0.040
%
G90
G05
M72
T1
X1.5075Y-4.725
X1.6375Y-5.3325
X1.6819Y-4.7975
X1.6856Y-4.4594
X1.7075Y-5.6875
X1.7249Y-5.1444
X1.805Y-4.7225
X1.8375Y-5.33
X1.87Y-5.725
X1.9478Y-4.5712
X1.975Y-5.2625
X2.0474Y-4.3623
X2.125Y-4.7225
X2.1368Y-5.1135
X2.1622Y-5.1541
X2.1877Y-5.1054
X2.2187Y-5.1202
X2.24Y-4.7775
X2.2477Y-4.9419
X2.275Y-5.2926
X2.2985Y-5.1017
X2.3295Y-4.9029
X2.3575Y-5.3425
X2.3581Y-4.5222
X2.362Y-5.123
X2.3787Y-5.1559
X2.4048Y-4.8608
X2.4358Y-4.839
X2.4533Y-5.1624
X2.455Y-4.3375
X2.4674Y-4.8616
X2.5168Y-5.0725
X2.5382Y-5.0419
X2.5801Y-5.1193
X2.5815Y-5.16
X2.6077Y-5.0094
X2.625Y-4.4875
X2.625Y-4.565
X2.7225Y-4.56
X2.7598Y-5.2095
X2.76Y-5.0993
X2.8325Y-4.315
X2.8325Y-4.59
X2.8997Y-5.6524
X2.9998Y-5.0993
X3.Y-5.22
X3.3721Y-5.3528
X3.4015Y-5.3207
X3.4256Y-5.2893
X3.4551Y-5.2572
X3.4798Y-5.2204
X3.504Y-5.1873
X3.5075Y-5.0425
X3.8076Y-4.8261
X3.9067Y-4.7989
X3.9788Y-4.7714
X3.98Y-4.805
X4.1Y-4.9525
X4.2071Y-4.532
X4.303Y-4.9239
X4.3097Y-5.0302
T2
X2.9575Y-4.045
X2.9575Y-4.645
X3.0575Y-4.045
X3.0575Y-4.645
X3.1575Y-4.045
X3.1575Y-4.645
X3.2575Y-4.045
X3.2575Y-4.645
X3.3575Y-4.045
X3.3575Y-4.645
X3.4575Y-4.045
X3.4575Y-4.645
X3.5575Y-4.045
X3.5575Y-4.645
X3.6575Y-4.045
X3.6575Y-4.645
X3.7575Y-4.045
X3.7575Y-4.645
X3.8575Y-4.045
X3.8575Y-4.645
X3.9575Y-4.045
X3.9575Y-4.645
X4.0575Y-4.045
X4.0575Y-4.645
X4.1575Y-4.045
X4.1575Y-4.645
X4.2575Y-4.045
X4.2575Y-4.645
T3
X1.5925Y-4.1375
X1.5925Y-4.2375
T4
X1.52Y-4.9025
X1.52Y-5.0025
X1.52Y-5.1025
X1.52Y-5.2025
X1.62Y-4.9025
X1.62Y-5.0025
X1.62Y-5.1025
X1.62Y-5.2025
X1.75Y-5.45
X1.75Y-5.55
X1.85Y-5.45
X1.85Y-5.55
X1.95Y-5.45
X1.95Y-5.55
X2.05Y-5.45
X2.05Y-5.55
X2.15Y-5.45
X2.15Y-5.55
X2.25Y-5.45
X2.25Y-5.55
X2.35Y-5.45
X2.35Y-5.55
X2.45Y-5.45
X2.45Y-5.55
X2.55Y-5.45
X2.55Y-5.55
X2.65Y-5.45
X2.65Y-5.55
X2.75Y-5.45
X2.75Y-5.55
X2.85Y-5.45
X2.85Y-5.55
X2.95Y-5.45
X2.95Y-5.55
X3.05Y-5.45
X3.05Y-5.55
X3.15Y-5.45
X3.15Y-5.55
X3.25Y-5.45
X3.25Y-5.55
X3.35Y-5.45
X3.35Y-5.55
X3.45Y-5.45
X3.45Y-5.55
X3.55Y-5.45
X3.55Y-5.55
X3.65Y-5.45
X3.65Y-5.55
X3.75Y-5.45
X3.75Y-5.55
X3.85Y-5.45
X3.85Y-5.55
T5
X1.9475Y-4.0525
X1.9475Y-4.1525
X2.0475Y-4.0525
X2.0475Y-4.1525
X2.1475Y-4.0525
X2.1475Y-4.1525
X2.2475Y-4.0525
X2.2475Y-4.1525
X2.3475Y-4.0525
X2.3475Y-4.1525
X4.27Y-5.3925
X4.27Y-5.4925
X4.27Y-5.5925
X4.27Y-5.6925
X4.27Y-5.7925
X4.37Y-5.3925
X4.37Y-5.4925
X4.37Y-5.5925
X4.37Y-5.6925
X4.37Y-5.7925
T0
M30
