G04 #@! TF.FileFunction,Copper,L2,Bot,Signal*
%FSLAX46Y46*%
G04 Gerber Fmt 4.6, Leading zero omitted, Abs format (unit mm)*
G04 Created by KiCad (PCBNEW 4.0.6) date 07/29/17 07:53:43*
%MOMM*%
%LPD*%
G01*
G04 APERTURE LIST*
%ADD10C,0.100000*%
%ADD11R,1.600000X1.600000*%
%ADD12O,1.600000X1.600000*%
%ADD13R,1.727200X1.727200*%
%ADD14O,1.727200X1.727200*%
%ADD15R,1.800000X1.800000*%
%ADD16C,1.800000*%
%ADD17R,1.700000X1.700000*%
%ADD18O,1.700000X1.700000*%
%ADD19C,0.685800*%
%ADD20C,0.500000*%
%ADD21C,0.250000*%
%ADD22C,0.254000*%
G04 APERTURE END LIST*
D10*
D11*
X75120500Y-117983000D03*
D12*
X108140500Y-102743000D03*
X77660500Y-117983000D03*
X105600500Y-102743000D03*
X80200500Y-117983000D03*
X103060500Y-102743000D03*
X82740500Y-117983000D03*
X100520500Y-102743000D03*
X85280500Y-117983000D03*
X97980500Y-102743000D03*
X87820500Y-117983000D03*
X95440500Y-102743000D03*
X90360500Y-117983000D03*
X92900500Y-102743000D03*
X92900500Y-117983000D03*
X90360500Y-102743000D03*
X95440500Y-117983000D03*
X87820500Y-102743000D03*
X97980500Y-117983000D03*
X85280500Y-102743000D03*
X100520500Y-117983000D03*
X82740500Y-102743000D03*
X103060500Y-117983000D03*
X80200500Y-102743000D03*
X105600500Y-117983000D03*
X77660500Y-102743000D03*
X108140500Y-117983000D03*
X75120500Y-102743000D03*
D13*
X49466500Y-105473500D03*
D14*
X49466500Y-102933500D03*
X52006500Y-105473500D03*
X52006500Y-102933500D03*
X54546500Y-105473500D03*
X54546500Y-102933500D03*
X57086500Y-105473500D03*
X57086500Y-102933500D03*
X59626500Y-105473500D03*
X59626500Y-102933500D03*
D15*
X40449500Y-107632500D03*
D16*
X40449500Y-105092500D03*
D17*
X44450000Y-140970000D03*
D18*
X44450000Y-138430000D03*
X46990000Y-140970000D03*
X46990000Y-138430000D03*
X49530000Y-140970000D03*
X49530000Y-138430000D03*
X52070000Y-140970000D03*
X52070000Y-138430000D03*
X54610000Y-140970000D03*
X54610000Y-138430000D03*
X57150000Y-140970000D03*
X57150000Y-138430000D03*
X59690000Y-140970000D03*
X59690000Y-138430000D03*
X62230000Y-140970000D03*
X62230000Y-138430000D03*
X64770000Y-140970000D03*
X64770000Y-138430000D03*
X67310000Y-140970000D03*
X67310000Y-138430000D03*
X69850000Y-140970000D03*
X69850000Y-138430000D03*
X72390000Y-140970000D03*
X72390000Y-138430000D03*
X74930000Y-140970000D03*
X74930000Y-138430000D03*
X77470000Y-140970000D03*
X77470000Y-138430000D03*
X80010000Y-140970000D03*
X80010000Y-138430000D03*
X82550000Y-140970000D03*
X82550000Y-138430000D03*
X85090000Y-140970000D03*
X85090000Y-138430000D03*
X87630000Y-140970000D03*
X87630000Y-138430000D03*
X90170000Y-140970000D03*
X90170000Y-138430000D03*
X92710000Y-140970000D03*
X92710000Y-138430000D03*
X95250000Y-140970000D03*
X95250000Y-138430000D03*
X97790000Y-140970000D03*
X97790000Y-138430000D03*
D13*
X108458000Y-136969500D03*
D14*
X110998000Y-136969500D03*
X108458000Y-139509500D03*
X110998000Y-139509500D03*
X108458000Y-142049500D03*
X110998000Y-142049500D03*
X108458000Y-144589500D03*
X110998000Y-144589500D03*
X108458000Y-147129500D03*
X110998000Y-147129500D03*
D17*
X38608000Y-124523500D03*
D18*
X41148000Y-124523500D03*
X38608000Y-127063500D03*
X41148000Y-127063500D03*
X38608000Y-129603500D03*
X41148000Y-129603500D03*
X38608000Y-132143500D03*
X41148000Y-132143500D03*
D19*
X49473480Y-116107302D03*
X70104000Y-129521801D03*
X59897000Y-114864500D03*
X41592500Y-135445500D03*
X73653544Y-143571679D03*
X43370500Y-144462500D03*
X70098169Y-132321487D03*
X66675000Y-115951000D03*
X66675000Y-113982500D03*
X59880500Y-135699500D03*
X46672500Y-135382000D03*
X57785000Y-134431551D03*
X42815000Y-113268000D03*
X42719589Y-121856500D03*
X76195466Y-129521801D03*
X71945500Y-109601000D03*
X71945500Y-116586000D03*
X62357000Y-110172500D03*
X76200000Y-132588000D03*
X109296224Y-125066135D03*
X50165000Y-133667500D03*
X47498000Y-145415000D03*
X43811648Y-130669024D03*
X109466807Y-127767035D03*
X38290500Y-120015000D03*
X52003636Y-110802332D03*
X54919478Y-130913251D03*
X54273606Y-129882478D03*
X56356084Y-130053643D03*
X55567128Y-129676828D03*
X57090394Y-125523357D03*
X58381463Y-129582624D03*
X59168485Y-124533017D03*
X59994702Y-130124295D03*
X60418618Y-130960353D03*
X61081729Y-123463378D03*
X61869839Y-122910889D03*
X62314468Y-131125210D03*
X65535707Y-130029204D03*
X65569725Y-131063985D03*
X62673144Y-123483383D03*
X87011175Y-134347895D03*
X88387644Y-132597098D03*
X66235697Y-127239307D03*
X86398258Y-135146529D03*
X87759386Y-133531859D03*
X85650972Y-135960539D03*
X89000415Y-131757054D03*
X53975000Y-119951500D03*
X45847000Y-119951500D03*
X69151500Y-115824000D03*
X56896000Y-121348500D03*
X64469377Y-128063590D03*
X104140000Y-125793500D03*
X99229382Y-121891484D03*
X63927706Y-128840770D03*
X89090500Y-128079500D03*
X101091478Y-122048188D03*
X96712293Y-122582897D03*
X101061084Y-121194018D03*
X106859641Y-115111931D03*
D20*
X41592500Y-135445500D02*
X44880640Y-132157360D01*
X44880640Y-132157360D02*
X44880640Y-117130816D01*
X44880640Y-117130816D02*
X45904154Y-116107302D01*
X45904154Y-116107302D02*
X49473480Y-116107302D01*
X49816379Y-115764403D02*
X49473480Y-116107302D01*
X59897000Y-114864500D02*
X50716282Y-114864500D01*
X50716282Y-114864500D02*
X49816379Y-115764403D01*
X46672500Y-135382000D02*
X48777674Y-135382000D01*
X48777674Y-135382000D02*
X48779010Y-135383336D01*
X59564336Y-135383336D02*
X59880500Y-135699500D01*
X48779010Y-135383336D02*
X59564336Y-135383336D01*
X66675000Y-113982500D02*
X62686427Y-113982500D01*
X62686427Y-113982500D02*
X61804427Y-114864500D01*
X61804427Y-114864500D02*
X59897000Y-114864500D01*
D21*
X59897000Y-114864500D02*
X53293645Y-108261145D01*
X53293645Y-108261145D02*
X53293645Y-104220645D01*
X53293645Y-104220645D02*
X52870099Y-103797099D01*
X52870099Y-103797099D02*
X52006500Y-102933500D01*
X70098169Y-132321487D02*
X70098169Y-129527632D01*
X70098169Y-129527632D02*
X70104000Y-129521801D01*
D20*
X41592500Y-135445500D02*
X46609000Y-135445500D01*
X46609000Y-135445500D02*
X46672500Y-135382000D01*
X44261321Y-143571679D02*
X60833000Y-143571679D01*
X60833000Y-143571679D02*
X73229280Y-143571679D01*
X73229280Y-143571679D02*
X73653544Y-143571679D01*
X43370500Y-144462500D02*
X44261321Y-143571679D01*
D21*
X73653544Y-135876862D02*
X73653544Y-143147415D01*
X73653544Y-143147415D02*
X73653544Y-143571679D01*
X70098169Y-132321487D02*
X73653544Y-135876862D01*
X66675000Y-113982500D02*
X66675000Y-115951000D01*
X65087500Y-134429500D02*
X68722599Y-138064599D01*
X68722599Y-139842599D02*
X69000001Y-140120001D01*
X68722599Y-138064599D02*
X68722599Y-139842599D01*
X69000001Y-140120001D02*
X69850000Y-140970000D01*
X58271984Y-134429500D02*
X65087500Y-134429500D01*
X57785000Y-134431551D02*
X58269933Y-134431551D01*
X58269933Y-134431551D02*
X58271984Y-134429500D01*
X57785000Y-134431551D02*
X50929051Y-134431551D01*
X50929051Y-134431551D02*
X50165000Y-133667500D01*
X50165000Y-133667500D02*
X50166408Y-133667500D01*
D20*
X42719589Y-121856500D02*
X42719589Y-113363411D01*
X42719589Y-113363411D02*
X42815000Y-113268000D01*
D21*
X76200000Y-129526335D02*
X76195466Y-129521801D01*
X76200000Y-132588000D02*
X76200000Y-129526335D01*
D20*
X71945500Y-116586000D02*
X71945500Y-109601000D01*
X62357000Y-110172500D02*
X62357000Y-105664000D01*
X62357000Y-105664000D02*
X59626500Y-102933500D01*
X50990500Y-101409500D02*
X58102500Y-101409500D01*
X49466500Y-102933500D02*
X50990500Y-101409500D01*
X58102500Y-101409500D02*
X59626500Y-102933500D01*
D21*
X74930000Y-140970000D02*
X76192949Y-139707051D01*
X76192949Y-139707051D02*
X76192949Y-132595051D01*
X76192949Y-132595051D02*
X76200000Y-132588000D01*
D20*
X108996225Y-124766136D02*
X109296224Y-125066135D01*
X108140500Y-123910411D02*
X108996225Y-124766136D01*
X108140500Y-117983000D02*
X108140500Y-123910411D01*
D21*
X38608000Y-129603500D02*
X38608000Y-130805581D01*
X38608000Y-130805581D02*
X38608000Y-132143500D01*
X38608000Y-127063500D02*
X38608000Y-129603500D01*
X38608000Y-124523500D02*
X38608000Y-125623500D01*
X38608000Y-125623500D02*
X38608000Y-127063500D01*
D20*
X109466807Y-127767035D02*
X109466807Y-131501307D01*
X109466807Y-131501307D02*
X113157000Y-135191500D01*
X48323500Y-144589500D02*
X47498000Y-145415000D01*
X113157000Y-135191500D02*
X113157000Y-147510500D01*
X113157000Y-147510500D02*
X111448198Y-149219302D01*
X111448198Y-149219302D02*
X61462302Y-149219302D01*
X61462302Y-149219302D02*
X56832500Y-144589500D01*
X56832500Y-144589500D02*
X48323500Y-144589500D01*
X38290500Y-120015000D02*
X39595658Y-120015000D01*
X39595658Y-120015000D02*
X43811648Y-124230990D01*
X43811648Y-124230990D02*
X43811648Y-130244760D01*
X43811648Y-130244760D02*
X43811648Y-130669024D01*
X75120500Y-102743000D02*
X77372721Y-100490779D01*
X110079542Y-127154300D02*
X109766806Y-127467036D01*
X77372721Y-100490779D02*
X109380779Y-100490779D01*
X109380779Y-100490779D02*
X110079542Y-101189542D01*
X110079542Y-101189542D02*
X110079542Y-127154300D01*
X109766806Y-127467036D02*
X109466807Y-127767035D01*
X75120500Y-117983000D02*
X75120500Y-116933000D01*
X75120500Y-116933000D02*
X75120500Y-102743000D01*
D21*
X52006500Y-105473500D02*
X52006500Y-110799468D01*
X52006500Y-110799468D02*
X52003636Y-110802332D01*
X66244550Y-123286269D02*
X62064851Y-127465968D01*
X55404411Y-130913251D02*
X54919478Y-130913251D01*
X58239718Y-130913251D02*
X55404411Y-130913251D01*
X66993178Y-123263409D02*
X66970318Y-123286269D01*
X91630500Y-104013000D02*
X91630500Y-119526116D01*
X92900500Y-102743000D02*
X91630500Y-104013000D01*
X87893207Y-123263409D02*
X66993178Y-123263409D01*
X66970318Y-123286269D02*
X66244550Y-123286269D01*
X62064851Y-127465968D02*
X61687001Y-127465968D01*
X91630500Y-119526116D02*
X87893207Y-123263409D01*
X61687001Y-127465968D02*
X58239718Y-130913251D01*
X65391597Y-121676625D02*
X61729220Y-125339002D01*
X58817082Y-125339002D02*
X54616505Y-129539579D01*
X85280500Y-117983000D02*
X85280500Y-119114370D01*
X66326442Y-121653765D02*
X66303582Y-121676625D01*
X82741105Y-121653765D02*
X66326442Y-121653765D01*
X85280500Y-119114370D02*
X82741105Y-121653765D01*
X66303582Y-121676625D02*
X65391597Y-121676625D01*
X61729220Y-125339002D02*
X58817082Y-125339002D01*
X54616505Y-129539579D02*
X54273606Y-129882478D01*
X89054118Y-119428846D02*
X86024377Y-122458587D01*
X86024377Y-122458587D02*
X66659810Y-122458587D01*
X66659810Y-122458587D02*
X66636950Y-122481447D01*
X89054118Y-103976618D02*
X89054118Y-119428846D01*
X87820500Y-102743000D02*
X89054118Y-103976618D01*
X56698983Y-129710744D02*
X56356084Y-130053643D01*
X65816494Y-122481447D02*
X61805941Y-126492000D01*
X59917727Y-126492000D02*
X56698983Y-129710744D01*
X61805941Y-126492000D02*
X59917727Y-126492000D01*
X66636950Y-122481447D02*
X65816494Y-122481447D01*
X87820500Y-117983000D02*
X83747324Y-122056176D01*
X66470266Y-122079036D02*
X65582494Y-122079036D01*
X61850563Y-125810967D02*
X59432989Y-125810967D01*
X83747324Y-122056176D02*
X66493126Y-122056176D01*
X59432989Y-125810967D02*
X55910027Y-129333929D01*
X65582494Y-122079036D02*
X61850563Y-125810967D01*
X66493126Y-122056176D02*
X66470266Y-122079036D01*
X55910027Y-129333929D02*
X55567128Y-129676828D01*
X57433293Y-125180458D02*
X57090394Y-125523357D01*
X65493022Y-119641710D02*
X65470162Y-119664570D01*
X77660500Y-117983000D02*
X76001790Y-119641710D01*
X65470162Y-119664570D02*
X62949181Y-119664570D01*
X76001790Y-119641710D02*
X65493022Y-119641710D01*
X62949181Y-119664570D02*
X57433293Y-125180458D01*
X61918395Y-127015957D02*
X60948130Y-127015957D01*
X60948130Y-127015957D02*
X58724362Y-129239725D01*
X86613872Y-122860998D02*
X66826494Y-122860998D01*
X58724362Y-129239725D02*
X58381463Y-129582624D01*
X66826494Y-122860998D02*
X66803634Y-122883858D01*
X66050494Y-122883858D02*
X61918395Y-127015957D01*
X66803634Y-122883858D02*
X66050494Y-122883858D01*
X90360500Y-117983000D02*
X90360500Y-119114370D01*
X90360500Y-119114370D02*
X86613872Y-122860998D01*
X65636846Y-120066981D02*
X63149588Y-120066981D01*
X65659706Y-120044121D02*
X65636846Y-120066981D01*
X78139379Y-120044121D02*
X65659706Y-120044121D01*
X63149588Y-120066981D02*
X59168485Y-124048084D01*
X80200500Y-117983000D02*
X78139379Y-120044121D01*
X59168485Y-124048084D02*
X59168485Y-124533017D01*
X60337601Y-129762313D02*
X60337601Y-129781396D01*
X66411234Y-123688680D02*
X60337601Y-129762313D01*
X60337601Y-129781396D02*
X59994702Y-130124295D01*
X67137002Y-123688680D02*
X66411234Y-123688680D01*
X67159862Y-123665820D02*
X67137002Y-123688680D01*
X92900500Y-119114370D02*
X88349050Y-123665820D01*
X88349050Y-123665820D02*
X67159862Y-123665820D01*
X92900500Y-117983000D02*
X92900500Y-119114370D01*
X60761517Y-129907492D02*
X60761517Y-130617454D01*
X89355269Y-124068231D02*
X67326546Y-124068231D01*
X67326546Y-124068231D02*
X67303686Y-124091091D01*
X60761517Y-130617454D02*
X60418618Y-130960353D01*
X66577918Y-124091091D02*
X60761517Y-129907492D01*
X67303686Y-124091091D02*
X66577918Y-124091091D01*
X95440500Y-117983000D02*
X89355269Y-124068231D01*
X63417662Y-120469392D02*
X61081729Y-122805325D01*
X81452189Y-119799088D02*
X80804745Y-120446532D01*
X65826390Y-120446532D02*
X65803530Y-120469392D01*
X80804745Y-120446532D02*
X65826390Y-120446532D01*
X61081729Y-122805325D02*
X61081729Y-122978445D01*
X61081729Y-122978445D02*
X61081729Y-123463378D01*
X65803530Y-120469392D02*
X63417662Y-120469392D01*
X82740500Y-102743000D02*
X81452189Y-104031311D01*
X81452189Y-104031311D02*
X81452189Y-119799088D01*
X65993074Y-120848943D02*
X65970214Y-120871803D01*
X81005927Y-120848943D02*
X65993074Y-120848943D01*
X82740500Y-119114370D02*
X81005927Y-120848943D01*
X63908925Y-120871803D02*
X62212738Y-122567990D01*
X82740500Y-117983000D02*
X82740500Y-119114370D01*
X65970214Y-120871803D02*
X63908925Y-120871803D01*
X62212738Y-122567990D02*
X61869839Y-122910889D01*
X96704546Y-124470642D02*
X67493230Y-124470642D01*
X97980500Y-123194688D02*
X96704546Y-124470642D01*
X97980500Y-117983000D02*
X97980500Y-123194688D01*
X62314468Y-128923636D02*
X62314468Y-130640277D01*
X62314468Y-130640277D02*
X62314468Y-131125210D01*
X67493230Y-124470642D02*
X67470370Y-124493502D01*
X66744602Y-124493502D02*
X62314468Y-128923636D01*
X67470370Y-124493502D02*
X66744602Y-124493502D01*
X64944725Y-130620186D02*
X65235708Y-130329203D01*
X64944725Y-133524725D02*
X64944725Y-130620186D01*
X69850000Y-138430000D02*
X64944725Y-133524725D01*
X65235708Y-130329203D02*
X65535707Y-130029204D01*
X72390000Y-138430000D02*
X65569725Y-131609725D01*
X65569725Y-131488249D02*
X65569725Y-131063985D01*
X65569725Y-131609725D02*
X65569725Y-131488249D01*
X64882313Y-121274214D02*
X63016043Y-123140484D01*
X66136898Y-121274214D02*
X64882313Y-121274214D01*
X66159758Y-121251354D02*
X66136898Y-121274214D01*
X84010927Y-119712302D02*
X82471875Y-121251354D01*
X84010927Y-104012573D02*
X84010927Y-119712302D01*
X63016043Y-123140484D02*
X62673144Y-123483383D01*
X82471875Y-121251354D02*
X66159758Y-121251354D01*
X85280500Y-102743000D02*
X84010927Y-104012573D01*
X110998000Y-144589500D02*
X109722489Y-143313989D01*
X109722489Y-143313989D02*
X107265002Y-143313989D01*
X107265002Y-143313989D02*
X98298908Y-134347895D01*
X98298908Y-134347895D02*
X87435439Y-134347895D01*
X87435439Y-134347895D02*
X87011175Y-134347895D01*
X110998000Y-142049500D02*
X109715981Y-140767481D01*
X109715981Y-140767481D02*
X107257097Y-140767481D01*
X99086714Y-132597098D02*
X88811908Y-132597098D01*
X107257097Y-140767481D02*
X99086714Y-132597098D01*
X88811908Y-132597098D02*
X88387644Y-132597098D01*
X66720630Y-127239307D02*
X66235697Y-127239307D01*
X97614207Y-127239307D02*
X66720630Y-127239307D01*
X107344400Y-136969500D02*
X97614207Y-127239307D01*
X108458000Y-136969500D02*
X107344400Y-136969500D01*
X108458000Y-144589500D02*
X107236686Y-144589500D01*
X107236686Y-144589500D02*
X97793715Y-135146529D01*
X97793715Y-135146529D02*
X86822522Y-135146529D01*
X86822522Y-135146529D02*
X86398258Y-135146529D01*
X108458000Y-142049500D02*
X107211050Y-142049500D01*
X107211050Y-142049500D02*
X98693409Y-133531859D01*
X98693409Y-133531859D02*
X89124754Y-133531859D01*
X89124754Y-133531859D02*
X87759386Y-133531859D01*
X110998000Y-147129500D02*
X109771952Y-145903452D01*
X109771952Y-145903452D02*
X107268849Y-145903452D01*
X107268849Y-145903452D02*
X97325936Y-135960539D01*
X97325936Y-135960539D02*
X86665145Y-135960539D01*
X86665145Y-135960539D02*
X85650972Y-135960539D01*
X108458000Y-139509500D02*
X107186148Y-139509500D01*
X107186148Y-139509500D02*
X99433702Y-131757054D01*
X99433702Y-131757054D02*
X89424679Y-131757054D01*
X89424679Y-131757054D02*
X89000415Y-131757054D01*
X53975000Y-119951500D02*
X45847000Y-119951500D01*
X57238899Y-121005601D02*
X56896000Y-121348500D01*
X58982341Y-119262159D02*
X57238899Y-121005601D01*
X65736201Y-119239299D02*
X65326338Y-119239299D01*
X65303478Y-119262159D02*
X58982341Y-119262159D01*
X69151500Y-115824000D02*
X65736201Y-119239299D01*
X65326338Y-119239299D02*
X65303478Y-119262159D01*
X64812276Y-127720691D02*
X64469377Y-128063590D01*
X104140000Y-125793500D02*
X103219553Y-124873053D01*
X103219553Y-124873053D02*
X67659914Y-124873053D01*
X67659914Y-124873053D02*
X64812276Y-127720691D01*
X100520500Y-102743000D02*
X99229382Y-104034118D01*
X99229382Y-104034118D02*
X99229382Y-121467220D01*
X99229382Y-121467220D02*
X99229382Y-121891484D01*
X64412639Y-128840770D02*
X63927706Y-128840770D01*
X89090500Y-128079500D02*
X88329230Y-128840770D01*
X88329230Y-128840770D02*
X64412639Y-128840770D01*
X105600500Y-102743000D02*
X105600500Y-116055888D01*
X105600500Y-116055888D02*
X104330500Y-117325888D01*
X104330500Y-117325888D02*
X104330500Y-118809166D01*
X104330500Y-118809166D02*
X101391477Y-121748189D01*
X101391477Y-121748189D02*
X101091478Y-122048188D01*
X96712293Y-104011207D02*
X96712293Y-122158633D01*
X97980500Y-102743000D02*
X96712293Y-104011207D01*
X96712293Y-122158633D02*
X96712293Y-122582897D01*
X103060500Y-102743000D02*
X103060500Y-115917262D01*
X103060500Y-115917262D02*
X101801483Y-117176279D01*
X101801483Y-117176279D02*
X101801483Y-120453619D01*
X101801483Y-120453619D02*
X101361083Y-120894019D01*
X101361083Y-120894019D02*
X101061084Y-121194018D01*
X107159640Y-114811932D02*
X106859641Y-115111931D01*
X108140500Y-113831072D02*
X107159640Y-114811932D01*
X108140500Y-102743000D02*
X108140500Y-113831072D01*
D22*
G36*
X76746931Y-99864989D02*
X76746929Y-99864992D01*
X75296938Y-101314983D01*
X75120500Y-101279887D01*
X74571349Y-101389120D01*
X74105802Y-101700189D01*
X73794733Y-102165736D01*
X73685500Y-102714887D01*
X73685500Y-102771113D01*
X73794733Y-103320264D01*
X74105802Y-103785811D01*
X74235500Y-103872473D01*
X74235500Y-116551554D01*
X74085183Y-116579838D01*
X73869059Y-116718910D01*
X73724069Y-116931110D01*
X73673060Y-117183000D01*
X73673060Y-118783000D01*
X73691634Y-118881710D01*
X67168592Y-118881710D01*
X69248317Y-116801985D01*
X69345163Y-116802069D01*
X69704712Y-116653507D01*
X69980040Y-116378659D01*
X70129230Y-116019370D01*
X70129569Y-115630337D01*
X69981007Y-115270788D01*
X69706159Y-114995460D01*
X69346870Y-114846270D01*
X68957837Y-114845931D01*
X68598288Y-114994493D01*
X68322960Y-115269341D01*
X68173770Y-115628630D01*
X68173684Y-115727014D01*
X67580586Y-116320112D01*
X67652730Y-116146370D01*
X67653069Y-115757337D01*
X67504507Y-115397788D01*
X67435000Y-115328160D01*
X67435000Y-114605580D01*
X67503540Y-114537159D01*
X67652730Y-114177870D01*
X67653069Y-113788837D01*
X67504507Y-113429288D01*
X67229659Y-113153960D01*
X66870370Y-113004770D01*
X66481337Y-113004431D01*
X66256092Y-113097500D01*
X62686427Y-113097500D01*
X62347752Y-113164867D01*
X62060637Y-113356710D01*
X62060635Y-113356713D01*
X61437847Y-113979500D01*
X60315688Y-113979500D01*
X60092370Y-113886770D01*
X59993986Y-113886684D01*
X54053645Y-107946343D01*
X54053645Y-106879905D01*
X54517141Y-106972100D01*
X54575859Y-106972100D01*
X55149348Y-106858026D01*
X55635529Y-106533170D01*
X55816500Y-106262328D01*
X55997471Y-106533170D01*
X56483652Y-106858026D01*
X57057141Y-106972100D01*
X57115859Y-106972100D01*
X57689348Y-106858026D01*
X58175529Y-106533170D01*
X58356500Y-106262328D01*
X58537471Y-106533170D01*
X59023652Y-106858026D01*
X59597141Y-106972100D01*
X59655859Y-106972100D01*
X60229348Y-106858026D01*
X60715529Y-106533170D01*
X61040385Y-106046989D01*
X61154459Y-105473500D01*
X61040385Y-104900011D01*
X60715529Y-104413830D01*
X60410754Y-104210185D01*
X60412072Y-104209696D01*
X60840653Y-103811926D01*
X61084390Y-103280424D01*
X61106177Y-103170895D01*
X60966347Y-102936500D01*
X59629500Y-102936500D01*
X59629500Y-102956500D01*
X59623500Y-102956500D01*
X59623500Y-102936500D01*
X59603500Y-102936500D01*
X59603500Y-102930500D01*
X59623500Y-102930500D01*
X59623500Y-101593653D01*
X59629500Y-101593653D01*
X59629500Y-102930500D01*
X60966347Y-102930500D01*
X61106177Y-102696105D01*
X61084390Y-102586576D01*
X60840653Y-102055074D01*
X60412072Y-101657304D01*
X59863895Y-101453823D01*
X59629500Y-101593653D01*
X59623500Y-101593653D01*
X59389105Y-101453823D01*
X58840928Y-101657304D01*
X58412347Y-102055074D01*
X58365252Y-102157771D01*
X58175529Y-101873830D01*
X57689348Y-101548974D01*
X57115859Y-101434900D01*
X57057141Y-101434900D01*
X56483652Y-101548974D01*
X55997471Y-101873830D01*
X55816500Y-102144672D01*
X55635529Y-101873830D01*
X55149348Y-101548974D01*
X54575859Y-101434900D01*
X54517141Y-101434900D01*
X53943652Y-101548974D01*
X53457471Y-101873830D01*
X53276500Y-102144672D01*
X53095529Y-101873830D01*
X52609348Y-101548974D01*
X52035859Y-101434900D01*
X51977141Y-101434900D01*
X51403652Y-101548974D01*
X50917471Y-101873830D01*
X50727748Y-102157771D01*
X50680653Y-102055074D01*
X50252072Y-101657304D01*
X49703895Y-101453823D01*
X49469500Y-101593653D01*
X49469500Y-102930500D01*
X49489500Y-102930500D01*
X49489500Y-102936500D01*
X49469500Y-102936500D01*
X49469500Y-102956500D01*
X49463500Y-102956500D01*
X49463500Y-102936500D01*
X48126653Y-102936500D01*
X47986823Y-103170895D01*
X48008610Y-103280424D01*
X48252347Y-103811926D01*
X48446292Y-103991928D01*
X48367583Y-104006738D01*
X48151459Y-104145810D01*
X48006469Y-104358010D01*
X47955460Y-104609900D01*
X47955460Y-106337100D01*
X47999738Y-106572417D01*
X48138810Y-106788541D01*
X48351010Y-106933531D01*
X48602900Y-106984540D01*
X50330100Y-106984540D01*
X50565417Y-106940262D01*
X50781541Y-106801190D01*
X50926531Y-106588990D01*
X50935408Y-106545155D01*
X51246500Y-106753020D01*
X51246500Y-110176393D01*
X51175096Y-110247673D01*
X51025906Y-110606962D01*
X51025567Y-110995995D01*
X51174129Y-111355544D01*
X51448977Y-111630872D01*
X51808266Y-111780062D01*
X52197299Y-111780401D01*
X52556848Y-111631839D01*
X52832176Y-111356991D01*
X52981366Y-110997702D01*
X52981705Y-110608669D01*
X52833143Y-110249120D01*
X52766500Y-110182361D01*
X52766500Y-108808802D01*
X57937198Y-113979500D01*
X50716287Y-113979500D01*
X50716282Y-113979499D01*
X50437301Y-114034993D01*
X50377607Y-114046867D01*
X50090492Y-114238710D01*
X50090490Y-114238713D01*
X49190589Y-115138613D01*
X49190587Y-115138616D01*
X49143747Y-115185456D01*
X49054572Y-115222302D01*
X45904154Y-115222302D01*
X45565479Y-115289669D01*
X45278364Y-115481512D01*
X45278362Y-115481515D01*
X44254850Y-116505026D01*
X44063007Y-116792141D01*
X44057406Y-116820299D01*
X43995639Y-117130816D01*
X43995640Y-117130821D01*
X43995640Y-123163403D01*
X40221448Y-119389210D01*
X40143130Y-119336880D01*
X39934333Y-119197367D01*
X39874639Y-119185493D01*
X39595658Y-119129999D01*
X39595653Y-119130000D01*
X38709188Y-119130000D01*
X38485870Y-119037270D01*
X38096837Y-119036931D01*
X37737288Y-119185493D01*
X37461960Y-119460341D01*
X37312770Y-119819630D01*
X37312431Y-120208663D01*
X37460993Y-120568212D01*
X37735841Y-120843540D01*
X38095130Y-120992730D01*
X38484163Y-120993069D01*
X38709408Y-120900000D01*
X39229078Y-120900000D01*
X41414877Y-123085798D01*
X41177093Y-123038500D01*
X41118907Y-123038500D01*
X40550622Y-123151539D01*
X40068853Y-123473446D01*
X40064903Y-123479358D01*
X39996327Y-123313801D01*
X39817698Y-123135173D01*
X39584309Y-123038500D01*
X38769750Y-123038500D01*
X38611000Y-123197250D01*
X38611000Y-124520500D01*
X38631000Y-124520500D01*
X38631000Y-124526500D01*
X38611000Y-124526500D01*
X38611000Y-127060500D01*
X38631000Y-127060500D01*
X38631000Y-127066500D01*
X38611000Y-127066500D01*
X38611000Y-129600500D01*
X38631000Y-129600500D01*
X38631000Y-129606500D01*
X38611000Y-129606500D01*
X38611000Y-132140500D01*
X38631000Y-132140500D01*
X38631000Y-132146500D01*
X38611000Y-132146500D01*
X38611000Y-133469747D01*
X38843268Y-133609745D01*
X39386467Y-133408101D01*
X39811152Y-133013933D01*
X39867186Y-132891737D01*
X40068853Y-133193554D01*
X40550622Y-133515461D01*
X41118907Y-133628500D01*
X41177093Y-133628500D01*
X41745378Y-133515461D01*
X42227147Y-133193554D01*
X42549054Y-132711785D01*
X42662093Y-132143500D01*
X42549054Y-131575215D01*
X42227147Y-131093446D01*
X41897974Y-130873500D01*
X42227147Y-130653554D01*
X42549054Y-130171785D01*
X42662093Y-129603500D01*
X42549054Y-129035215D01*
X42227147Y-128553446D01*
X41897974Y-128333500D01*
X42227147Y-128113554D01*
X42549054Y-127631785D01*
X42662093Y-127063500D01*
X42549054Y-126495215D01*
X42227147Y-126013446D01*
X41897974Y-125793500D01*
X42227147Y-125573554D01*
X42549054Y-125091785D01*
X42662093Y-124523500D01*
X42614795Y-124285716D01*
X42926648Y-124597569D01*
X42926648Y-130250336D01*
X42833918Y-130473654D01*
X42833579Y-130862687D01*
X42982141Y-131222236D01*
X43256989Y-131497564D01*
X43616278Y-131646754D01*
X43995640Y-131647085D01*
X43995640Y-131790781D01*
X41262766Y-134523654D01*
X41039288Y-134615993D01*
X40763960Y-134890841D01*
X40614770Y-135250130D01*
X40614431Y-135639163D01*
X40762993Y-135998712D01*
X41037841Y-136274040D01*
X41397130Y-136423230D01*
X41786163Y-136423569D01*
X42011408Y-136330500D01*
X46406736Y-136330500D01*
X46477130Y-136359730D01*
X46866163Y-136360069D01*
X47091408Y-136267000D01*
X48772294Y-136267000D01*
X48779010Y-136268336D01*
X59066590Y-136268336D01*
X59325841Y-136528040D01*
X59685130Y-136677230D01*
X60074163Y-136677569D01*
X60433712Y-136529007D01*
X60709040Y-136254159D01*
X60858230Y-135894870D01*
X60858569Y-135505837D01*
X60710007Y-135146288D01*
X60435159Y-134870960D01*
X60210078Y-134777498D01*
X60190126Y-134757546D01*
X60012310Y-134638734D01*
X59903011Y-134565703D01*
X59836600Y-134552493D01*
X59564336Y-134498335D01*
X59564331Y-134498336D01*
X48784395Y-134498336D01*
X48777674Y-134496999D01*
X48777669Y-134497000D01*
X47091188Y-134497000D01*
X46867870Y-134404270D01*
X46478837Y-134403931D01*
X46119288Y-134552493D01*
X46111267Y-134560500D01*
X43729080Y-134560500D01*
X45506427Y-132783152D01*
X45506430Y-132783150D01*
X45698273Y-132496035D01*
X45705600Y-132459202D01*
X45765641Y-132157360D01*
X45765640Y-132157355D01*
X45765640Y-120929329D01*
X46040663Y-120929569D01*
X46400212Y-120781007D01*
X46469840Y-120711500D01*
X53351920Y-120711500D01*
X53420341Y-120780040D01*
X53779630Y-120929230D01*
X54168663Y-120929569D01*
X54528212Y-120781007D01*
X54803540Y-120506159D01*
X54952730Y-120146870D01*
X54953069Y-119757837D01*
X54804507Y-119398288D01*
X54529659Y-119122960D01*
X54170370Y-118973770D01*
X53781337Y-118973431D01*
X53421788Y-119121993D01*
X53352160Y-119191500D01*
X46470080Y-119191500D01*
X46401659Y-119122960D01*
X46042370Y-118973770D01*
X45765640Y-118973529D01*
X45765640Y-117497396D01*
X46270733Y-116992302D01*
X49054792Y-116992302D01*
X49278110Y-117085032D01*
X49667143Y-117085371D01*
X50026692Y-116936809D01*
X50302020Y-116661961D01*
X50395482Y-116436879D01*
X50442166Y-116390195D01*
X50442169Y-116390193D01*
X51082861Y-115749500D01*
X59478312Y-115749500D01*
X59701630Y-115842230D01*
X60090663Y-115842569D01*
X60315908Y-115749500D01*
X61804422Y-115749500D01*
X61804427Y-115749501D01*
X62088269Y-115693040D01*
X62143102Y-115682133D01*
X62430217Y-115490290D01*
X63053006Y-114867500D01*
X65915000Y-114867500D01*
X65915000Y-115327920D01*
X65846460Y-115396341D01*
X65697270Y-115755630D01*
X65696931Y-116144663D01*
X65845493Y-116504212D01*
X66120341Y-116779540D01*
X66479630Y-116928730D01*
X66868663Y-116929069D01*
X67044130Y-116856568D01*
X65421399Y-118479299D01*
X65326338Y-118479299D01*
X65211414Y-118502159D01*
X58982341Y-118502159D01*
X58691501Y-118560011D01*
X58444940Y-118724758D01*
X56799183Y-120370515D01*
X56702337Y-120370431D01*
X56342788Y-120518993D01*
X56067460Y-120793841D01*
X55918270Y-121153130D01*
X55917931Y-121542163D01*
X56066493Y-121901712D01*
X56341341Y-122177040D01*
X56700630Y-122326230D01*
X57089663Y-122326569D01*
X57449212Y-122178007D01*
X57724540Y-121903159D01*
X57873730Y-121543870D01*
X57873816Y-121445486D01*
X59297143Y-120022159D01*
X61516790Y-120022159D01*
X56993577Y-124545372D01*
X56896731Y-124545288D01*
X56537182Y-124693850D01*
X56261854Y-124968698D01*
X56112664Y-125327987D01*
X56112325Y-125717020D01*
X56260887Y-126076569D01*
X56535735Y-126351897D01*
X56672567Y-126408715D01*
X54176789Y-128904493D01*
X54079943Y-128904409D01*
X53720394Y-129052971D01*
X53445066Y-129327819D01*
X53295876Y-129687108D01*
X53295537Y-130076141D01*
X53444099Y-130435690D01*
X53718947Y-130711018D01*
X53941673Y-130803502D01*
X53941409Y-131106914D01*
X54089971Y-131466463D01*
X54364819Y-131741791D01*
X54724108Y-131890981D01*
X55113141Y-131891320D01*
X55472690Y-131742758D01*
X55542318Y-131673251D01*
X58239718Y-131673251D01*
X58530557Y-131615399D01*
X58777119Y-131450652D01*
X59357562Y-130870209D01*
X59440043Y-130952835D01*
X59440724Y-130953118D01*
X59440549Y-131154016D01*
X59589111Y-131513565D01*
X59863959Y-131788893D01*
X60223248Y-131938083D01*
X60612281Y-131938422D01*
X60971830Y-131789860D01*
X61247158Y-131515012D01*
X61336415Y-131300057D01*
X61336399Y-131318873D01*
X61484961Y-131678422D01*
X61759809Y-131953750D01*
X62119098Y-132102940D01*
X62508131Y-132103279D01*
X62867680Y-131954717D01*
X63143008Y-131679869D01*
X63292198Y-131320580D01*
X63292537Y-130931547D01*
X63143975Y-130571998D01*
X63074468Y-130502370D01*
X63074468Y-129336548D01*
X63098199Y-129393982D01*
X63373047Y-129669310D01*
X63732336Y-129818500D01*
X64121369Y-129818839D01*
X64480918Y-129670277D01*
X64550546Y-129600770D01*
X64654754Y-129600770D01*
X64557977Y-129833834D01*
X64557891Y-129932218D01*
X64407324Y-130082785D01*
X64242577Y-130329347D01*
X64184725Y-130620186D01*
X64184725Y-133524725D01*
X64242577Y-133815564D01*
X64407324Y-134062126D01*
X67269217Y-136924019D01*
X66741715Y-137028946D01*
X66259946Y-137350853D01*
X66040000Y-137680026D01*
X65820054Y-137350853D01*
X65338285Y-137028946D01*
X64770000Y-136915907D01*
X64201715Y-137028946D01*
X63719946Y-137350853D01*
X63500000Y-137680026D01*
X63280054Y-137350853D01*
X62798285Y-137028946D01*
X62230000Y-136915907D01*
X61661715Y-137028946D01*
X61179946Y-137350853D01*
X60960000Y-137680026D01*
X60740054Y-137350853D01*
X60258285Y-137028946D01*
X59690000Y-136915907D01*
X59121715Y-137028946D01*
X58639946Y-137350853D01*
X58420000Y-137680026D01*
X58200054Y-137350853D01*
X57718285Y-137028946D01*
X57150000Y-136915907D01*
X56581715Y-137028946D01*
X56099946Y-137350853D01*
X55880000Y-137680026D01*
X55660054Y-137350853D01*
X55178285Y-137028946D01*
X54610000Y-136915907D01*
X54041715Y-137028946D01*
X53559946Y-137350853D01*
X53340000Y-137680026D01*
X53120054Y-137350853D01*
X52638285Y-137028946D01*
X52070000Y-136915907D01*
X51501715Y-137028946D01*
X51019946Y-137350853D01*
X50800000Y-137680026D01*
X50580054Y-137350853D01*
X50098285Y-137028946D01*
X49530000Y-136915907D01*
X48961715Y-137028946D01*
X48479946Y-137350853D01*
X48260000Y-137680026D01*
X48040054Y-137350853D01*
X47558285Y-137028946D01*
X46990000Y-136915907D01*
X46421715Y-137028946D01*
X45939946Y-137350853D01*
X45720000Y-137680026D01*
X45500054Y-137350853D01*
X45018285Y-137028946D01*
X44450000Y-136915907D01*
X43881715Y-137028946D01*
X43399946Y-137350853D01*
X43078039Y-137832622D01*
X42965000Y-138400907D01*
X42965000Y-138459093D01*
X43078039Y-139027378D01*
X43399946Y-139509147D01*
X43401179Y-139509971D01*
X43364683Y-139516838D01*
X43148559Y-139655910D01*
X43003569Y-139868110D01*
X42952560Y-140120000D01*
X42952560Y-141820000D01*
X42996838Y-142055317D01*
X43135910Y-142271441D01*
X43348110Y-142416431D01*
X43600000Y-142467440D01*
X45300000Y-142467440D01*
X45535317Y-142423162D01*
X45751441Y-142284090D01*
X45896431Y-142071890D01*
X45910086Y-142004459D01*
X45939946Y-142049147D01*
X46421715Y-142371054D01*
X46990000Y-142484093D01*
X47558285Y-142371054D01*
X48040054Y-142049147D01*
X48260000Y-141719974D01*
X48479946Y-142049147D01*
X48961715Y-142371054D01*
X49530000Y-142484093D01*
X50098285Y-142371054D01*
X50580054Y-142049147D01*
X50800000Y-141719974D01*
X51019946Y-142049147D01*
X51501715Y-142371054D01*
X52070000Y-142484093D01*
X52638285Y-142371054D01*
X53120054Y-142049147D01*
X53340000Y-141719974D01*
X53559946Y-142049147D01*
X54041715Y-142371054D01*
X54610000Y-142484093D01*
X55178285Y-142371054D01*
X55660054Y-142049147D01*
X55880000Y-141719974D01*
X56099946Y-142049147D01*
X56581715Y-142371054D01*
X57150000Y-142484093D01*
X57718285Y-142371054D01*
X58200054Y-142049147D01*
X58420000Y-141719974D01*
X58639946Y-142049147D01*
X59121715Y-142371054D01*
X59690000Y-142484093D01*
X60258285Y-142371054D01*
X60740054Y-142049147D01*
X60960000Y-141719974D01*
X61179946Y-142049147D01*
X61661715Y-142371054D01*
X62230000Y-142484093D01*
X62798285Y-142371054D01*
X63280054Y-142049147D01*
X63500000Y-141719974D01*
X63719946Y-142049147D01*
X64201715Y-142371054D01*
X64770000Y-142484093D01*
X65338285Y-142371054D01*
X65820054Y-142049147D01*
X66040000Y-141719974D01*
X66259946Y-142049147D01*
X66741715Y-142371054D01*
X67310000Y-142484093D01*
X67878285Y-142371054D01*
X68360054Y-142049147D01*
X68576671Y-141724956D01*
X68585399Y-141748467D01*
X68979567Y-142173152D01*
X69506251Y-142414668D01*
X69614732Y-142436245D01*
X69847000Y-142296247D01*
X69847000Y-140973000D01*
X69853000Y-140973000D01*
X69853000Y-142296247D01*
X70085268Y-142436245D01*
X70193749Y-142414668D01*
X70720433Y-142173152D01*
X71114601Y-141748467D01*
X71120000Y-141733923D01*
X71125399Y-141748467D01*
X71519567Y-142173152D01*
X72046251Y-142414668D01*
X72154732Y-142436245D01*
X72387000Y-142296247D01*
X72387000Y-140973000D01*
X69853000Y-140973000D01*
X69847000Y-140973000D01*
X69827000Y-140973000D01*
X69827000Y-140967000D01*
X69847000Y-140967000D01*
X69847000Y-140947000D01*
X69853000Y-140947000D01*
X69853000Y-140967000D01*
X72387000Y-140967000D01*
X72387000Y-140947000D01*
X72393000Y-140947000D01*
X72393000Y-140967000D01*
X72413000Y-140967000D01*
X72413000Y-140973000D01*
X72393000Y-140973000D01*
X72393000Y-142296247D01*
X72625268Y-142436245D01*
X72733749Y-142414668D01*
X72893544Y-142341392D01*
X72893544Y-142686679D01*
X44261326Y-142686679D01*
X44261321Y-142686678D01*
X43934701Y-142751648D01*
X43922646Y-142754046D01*
X43635531Y-142945889D01*
X43635529Y-142945892D01*
X43040766Y-143540654D01*
X42817288Y-143632993D01*
X42541960Y-143907841D01*
X42392770Y-144267130D01*
X42392431Y-144656163D01*
X42540993Y-145015712D01*
X42815841Y-145291040D01*
X43175130Y-145440230D01*
X43564163Y-145440569D01*
X43923712Y-145292007D01*
X44199040Y-145017159D01*
X44292502Y-144792078D01*
X44627900Y-144456679D01*
X47204741Y-144456679D01*
X47168266Y-144493154D01*
X46944788Y-144585493D01*
X46669460Y-144860341D01*
X46520270Y-145219630D01*
X46519931Y-145608663D01*
X46668493Y-145968212D01*
X46943341Y-146243540D01*
X47302630Y-146392730D01*
X47691663Y-146393069D01*
X48051212Y-146244507D01*
X48326540Y-145969659D01*
X48420002Y-145744578D01*
X48690079Y-145474500D01*
X56465920Y-145474500D01*
X60836510Y-149845089D01*
X60836512Y-149845092D01*
X61123627Y-150036935D01*
X61179818Y-150048112D01*
X61462302Y-150104303D01*
X61462307Y-150104302D01*
X111448193Y-150104302D01*
X111448198Y-150104303D01*
X111730682Y-150048112D01*
X111786873Y-150036935D01*
X112073988Y-149845092D01*
X113782787Y-148136292D01*
X113782790Y-148136290D01*
X113974633Y-147849175D01*
X113985810Y-147792984D01*
X114042001Y-147510500D01*
X114042000Y-147510495D01*
X114042000Y-135191505D01*
X114042001Y-135191500D01*
X113974633Y-134852826D01*
X113974633Y-134852825D01*
X113782790Y-134565710D01*
X113782787Y-134565708D01*
X110351807Y-131134727D01*
X110351807Y-128185723D01*
X110388810Y-128096611D01*
X110392593Y-128092828D01*
X110392596Y-128092826D01*
X110705329Y-127780092D01*
X110705332Y-127780090D01*
X110897175Y-127492975D01*
X110964542Y-127154300D01*
X110964542Y-101189547D01*
X110964543Y-101189542D01*
X110897175Y-100850867D01*
X110882867Y-100829453D01*
X110705332Y-100563752D01*
X110705329Y-100563750D01*
X110006569Y-99864989D01*
X109942231Y-99822000D01*
X114173000Y-99822000D01*
X114173000Y-155448000D01*
X36322000Y-155448000D01*
X36322000Y-132378768D01*
X37141755Y-132378768D01*
X37163332Y-132487249D01*
X37404848Y-133013933D01*
X37829533Y-133408101D01*
X38372732Y-133609745D01*
X38605000Y-133469747D01*
X38605000Y-132146500D01*
X37281753Y-132146500D01*
X37141755Y-132378768D01*
X36322000Y-132378768D01*
X36322000Y-129838768D01*
X37141755Y-129838768D01*
X37163332Y-129947249D01*
X37404848Y-130473933D01*
X37829533Y-130868101D01*
X37844077Y-130873500D01*
X37829533Y-130878899D01*
X37404848Y-131273067D01*
X37163332Y-131799751D01*
X37141755Y-131908232D01*
X37281753Y-132140500D01*
X38605000Y-132140500D01*
X38605000Y-129606500D01*
X37281753Y-129606500D01*
X37141755Y-129838768D01*
X36322000Y-129838768D01*
X36322000Y-127298768D01*
X37141755Y-127298768D01*
X37163332Y-127407249D01*
X37404848Y-127933933D01*
X37829533Y-128328101D01*
X37844077Y-128333500D01*
X37829533Y-128338899D01*
X37404848Y-128733067D01*
X37163332Y-129259751D01*
X37141755Y-129368232D01*
X37281753Y-129600500D01*
X38605000Y-129600500D01*
X38605000Y-127066500D01*
X37281753Y-127066500D01*
X37141755Y-127298768D01*
X36322000Y-127298768D01*
X36322000Y-124685250D01*
X37123000Y-124685250D01*
X37123000Y-125499810D01*
X37219673Y-125733199D01*
X37398302Y-125911827D01*
X37612340Y-126000485D01*
X37404848Y-126193067D01*
X37163332Y-126719751D01*
X37141755Y-126828232D01*
X37281753Y-127060500D01*
X38605000Y-127060500D01*
X38605000Y-124526500D01*
X37281750Y-124526500D01*
X37123000Y-124685250D01*
X36322000Y-124685250D01*
X36322000Y-123547190D01*
X37123000Y-123547190D01*
X37123000Y-124361750D01*
X37281750Y-124520500D01*
X38605000Y-124520500D01*
X38605000Y-123197250D01*
X38446250Y-123038500D01*
X37631691Y-123038500D01*
X37398302Y-123135173D01*
X37219673Y-123313801D01*
X37123000Y-123547190D01*
X36322000Y-123547190D01*
X36322000Y-106732500D01*
X38902060Y-106732500D01*
X38902060Y-108532500D01*
X38946338Y-108767817D01*
X39085410Y-108983941D01*
X39297610Y-109128931D01*
X39549500Y-109179940D01*
X41349500Y-109179940D01*
X41584817Y-109135662D01*
X41800941Y-108996590D01*
X41945931Y-108784390D01*
X41996940Y-108532500D01*
X41996940Y-106732500D01*
X41952662Y-106497183D01*
X41813590Y-106281059D01*
X41601390Y-106136069D01*
X41580966Y-106131933D01*
X41750051Y-105963143D01*
X41984233Y-105399170D01*
X41984765Y-104788509D01*
X41751568Y-104224129D01*
X41320143Y-103791949D01*
X40756170Y-103557767D01*
X40145509Y-103557235D01*
X39581129Y-103790432D01*
X39148949Y-104221857D01*
X38914767Y-104785830D01*
X38914235Y-105396491D01*
X39147432Y-105960871D01*
X39315380Y-106129113D01*
X39314183Y-106129338D01*
X39098059Y-106268410D01*
X38953069Y-106480610D01*
X38902060Y-106732500D01*
X36322000Y-106732500D01*
X36322000Y-102696105D01*
X47986823Y-102696105D01*
X48126653Y-102930500D01*
X49463500Y-102930500D01*
X49463500Y-101593653D01*
X49229105Y-101453823D01*
X48680928Y-101657304D01*
X48252347Y-102055074D01*
X48008610Y-102586576D01*
X47986823Y-102696105D01*
X36322000Y-102696105D01*
X36322000Y-99822000D01*
X76811269Y-99822000D01*
X76746931Y-99864989D01*
X76746931Y-99864989D01*
G37*
X76746931Y-99864989D02*
X76746929Y-99864992D01*
X75296938Y-101314983D01*
X75120500Y-101279887D01*
X74571349Y-101389120D01*
X74105802Y-101700189D01*
X73794733Y-102165736D01*
X73685500Y-102714887D01*
X73685500Y-102771113D01*
X73794733Y-103320264D01*
X74105802Y-103785811D01*
X74235500Y-103872473D01*
X74235500Y-116551554D01*
X74085183Y-116579838D01*
X73869059Y-116718910D01*
X73724069Y-116931110D01*
X73673060Y-117183000D01*
X73673060Y-118783000D01*
X73691634Y-118881710D01*
X67168592Y-118881710D01*
X69248317Y-116801985D01*
X69345163Y-116802069D01*
X69704712Y-116653507D01*
X69980040Y-116378659D01*
X70129230Y-116019370D01*
X70129569Y-115630337D01*
X69981007Y-115270788D01*
X69706159Y-114995460D01*
X69346870Y-114846270D01*
X68957837Y-114845931D01*
X68598288Y-114994493D01*
X68322960Y-115269341D01*
X68173770Y-115628630D01*
X68173684Y-115727014D01*
X67580586Y-116320112D01*
X67652730Y-116146370D01*
X67653069Y-115757337D01*
X67504507Y-115397788D01*
X67435000Y-115328160D01*
X67435000Y-114605580D01*
X67503540Y-114537159D01*
X67652730Y-114177870D01*
X67653069Y-113788837D01*
X67504507Y-113429288D01*
X67229659Y-113153960D01*
X66870370Y-113004770D01*
X66481337Y-113004431D01*
X66256092Y-113097500D01*
X62686427Y-113097500D01*
X62347752Y-113164867D01*
X62060637Y-113356710D01*
X62060635Y-113356713D01*
X61437847Y-113979500D01*
X60315688Y-113979500D01*
X60092370Y-113886770D01*
X59993986Y-113886684D01*
X54053645Y-107946343D01*
X54053645Y-106879905D01*
X54517141Y-106972100D01*
X54575859Y-106972100D01*
X55149348Y-106858026D01*
X55635529Y-106533170D01*
X55816500Y-106262328D01*
X55997471Y-106533170D01*
X56483652Y-106858026D01*
X57057141Y-106972100D01*
X57115859Y-106972100D01*
X57689348Y-106858026D01*
X58175529Y-106533170D01*
X58356500Y-106262328D01*
X58537471Y-106533170D01*
X59023652Y-106858026D01*
X59597141Y-106972100D01*
X59655859Y-106972100D01*
X60229348Y-106858026D01*
X60715529Y-106533170D01*
X61040385Y-106046989D01*
X61154459Y-105473500D01*
X61040385Y-104900011D01*
X60715529Y-104413830D01*
X60410754Y-104210185D01*
X60412072Y-104209696D01*
X60840653Y-103811926D01*
X61084390Y-103280424D01*
X61106177Y-103170895D01*
X60966347Y-102936500D01*
X59629500Y-102936500D01*
X59629500Y-102956500D01*
X59623500Y-102956500D01*
X59623500Y-102936500D01*
X59603500Y-102936500D01*
X59603500Y-102930500D01*
X59623500Y-102930500D01*
X59623500Y-101593653D01*
X59629500Y-101593653D01*
X59629500Y-102930500D01*
X60966347Y-102930500D01*
X61106177Y-102696105D01*
X61084390Y-102586576D01*
X60840653Y-102055074D01*
X60412072Y-101657304D01*
X59863895Y-101453823D01*
X59629500Y-101593653D01*
X59623500Y-101593653D01*
X59389105Y-101453823D01*
X58840928Y-101657304D01*
X58412347Y-102055074D01*
X58365252Y-102157771D01*
X58175529Y-101873830D01*
X57689348Y-101548974D01*
X57115859Y-101434900D01*
X57057141Y-101434900D01*
X56483652Y-101548974D01*
X55997471Y-101873830D01*
X55816500Y-102144672D01*
X55635529Y-101873830D01*
X55149348Y-101548974D01*
X54575859Y-101434900D01*
X54517141Y-101434900D01*
X53943652Y-101548974D01*
X53457471Y-101873830D01*
X53276500Y-102144672D01*
X53095529Y-101873830D01*
X52609348Y-101548974D01*
X52035859Y-101434900D01*
X51977141Y-101434900D01*
X51403652Y-101548974D01*
X50917471Y-101873830D01*
X50727748Y-102157771D01*
X50680653Y-102055074D01*
X50252072Y-101657304D01*
X49703895Y-101453823D01*
X49469500Y-101593653D01*
X49469500Y-102930500D01*
X49489500Y-102930500D01*
X49489500Y-102936500D01*
X49469500Y-102936500D01*
X49469500Y-102956500D01*
X49463500Y-102956500D01*
X49463500Y-102936500D01*
X48126653Y-102936500D01*
X47986823Y-103170895D01*
X48008610Y-103280424D01*
X48252347Y-103811926D01*
X48446292Y-103991928D01*
X48367583Y-104006738D01*
X48151459Y-104145810D01*
X48006469Y-104358010D01*
X47955460Y-104609900D01*
X47955460Y-106337100D01*
X47999738Y-106572417D01*
X48138810Y-106788541D01*
X48351010Y-106933531D01*
X48602900Y-106984540D01*
X50330100Y-106984540D01*
X50565417Y-106940262D01*
X50781541Y-106801190D01*
X50926531Y-106588990D01*
X50935408Y-106545155D01*
X51246500Y-106753020D01*
X51246500Y-110176393D01*
X51175096Y-110247673D01*
X51025906Y-110606962D01*
X51025567Y-110995995D01*
X51174129Y-111355544D01*
X51448977Y-111630872D01*
X51808266Y-111780062D01*
X52197299Y-111780401D01*
X52556848Y-111631839D01*
X52832176Y-111356991D01*
X52981366Y-110997702D01*
X52981705Y-110608669D01*
X52833143Y-110249120D01*
X52766500Y-110182361D01*
X52766500Y-108808802D01*
X57937198Y-113979500D01*
X50716287Y-113979500D01*
X50716282Y-113979499D01*
X50437301Y-114034993D01*
X50377607Y-114046867D01*
X50090492Y-114238710D01*
X50090490Y-114238713D01*
X49190589Y-115138613D01*
X49190587Y-115138616D01*
X49143747Y-115185456D01*
X49054572Y-115222302D01*
X45904154Y-115222302D01*
X45565479Y-115289669D01*
X45278364Y-115481512D01*
X45278362Y-115481515D01*
X44254850Y-116505026D01*
X44063007Y-116792141D01*
X44057406Y-116820299D01*
X43995639Y-117130816D01*
X43995640Y-117130821D01*
X43995640Y-123163403D01*
X40221448Y-119389210D01*
X40143130Y-119336880D01*
X39934333Y-119197367D01*
X39874639Y-119185493D01*
X39595658Y-119129999D01*
X39595653Y-119130000D01*
X38709188Y-119130000D01*
X38485870Y-119037270D01*
X38096837Y-119036931D01*
X37737288Y-119185493D01*
X37461960Y-119460341D01*
X37312770Y-119819630D01*
X37312431Y-120208663D01*
X37460993Y-120568212D01*
X37735841Y-120843540D01*
X38095130Y-120992730D01*
X38484163Y-120993069D01*
X38709408Y-120900000D01*
X39229078Y-120900000D01*
X41414877Y-123085798D01*
X41177093Y-123038500D01*
X41118907Y-123038500D01*
X40550622Y-123151539D01*
X40068853Y-123473446D01*
X40064903Y-123479358D01*
X39996327Y-123313801D01*
X39817698Y-123135173D01*
X39584309Y-123038500D01*
X38769750Y-123038500D01*
X38611000Y-123197250D01*
X38611000Y-124520500D01*
X38631000Y-124520500D01*
X38631000Y-124526500D01*
X38611000Y-124526500D01*
X38611000Y-127060500D01*
X38631000Y-127060500D01*
X38631000Y-127066500D01*
X38611000Y-127066500D01*
X38611000Y-129600500D01*
X38631000Y-129600500D01*
X38631000Y-129606500D01*
X38611000Y-129606500D01*
X38611000Y-132140500D01*
X38631000Y-132140500D01*
X38631000Y-132146500D01*
X38611000Y-132146500D01*
X38611000Y-133469747D01*
X38843268Y-133609745D01*
X39386467Y-133408101D01*
X39811152Y-133013933D01*
X39867186Y-132891737D01*
X40068853Y-133193554D01*
X40550622Y-133515461D01*
X41118907Y-133628500D01*
X41177093Y-133628500D01*
X41745378Y-133515461D01*
X42227147Y-133193554D01*
X42549054Y-132711785D01*
X42662093Y-132143500D01*
X42549054Y-131575215D01*
X42227147Y-131093446D01*
X41897974Y-130873500D01*
X42227147Y-130653554D01*
X42549054Y-130171785D01*
X42662093Y-129603500D01*
X42549054Y-129035215D01*
X42227147Y-128553446D01*
X41897974Y-128333500D01*
X42227147Y-128113554D01*
X42549054Y-127631785D01*
X42662093Y-127063500D01*
X42549054Y-126495215D01*
X42227147Y-126013446D01*
X41897974Y-125793500D01*
X42227147Y-125573554D01*
X42549054Y-125091785D01*
X42662093Y-124523500D01*
X42614795Y-124285716D01*
X42926648Y-124597569D01*
X42926648Y-130250336D01*
X42833918Y-130473654D01*
X42833579Y-130862687D01*
X42982141Y-131222236D01*
X43256989Y-131497564D01*
X43616278Y-131646754D01*
X43995640Y-131647085D01*
X43995640Y-131790781D01*
X41262766Y-134523654D01*
X41039288Y-134615993D01*
X40763960Y-134890841D01*
X40614770Y-135250130D01*
X40614431Y-135639163D01*
X40762993Y-135998712D01*
X41037841Y-136274040D01*
X41397130Y-136423230D01*
X41786163Y-136423569D01*
X42011408Y-136330500D01*
X46406736Y-136330500D01*
X46477130Y-136359730D01*
X46866163Y-136360069D01*
X47091408Y-136267000D01*
X48772294Y-136267000D01*
X48779010Y-136268336D01*
X59066590Y-136268336D01*
X59325841Y-136528040D01*
X59685130Y-136677230D01*
X60074163Y-136677569D01*
X60433712Y-136529007D01*
X60709040Y-136254159D01*
X60858230Y-135894870D01*
X60858569Y-135505837D01*
X60710007Y-135146288D01*
X60435159Y-134870960D01*
X60210078Y-134777498D01*
X60190126Y-134757546D01*
X60012310Y-134638734D01*
X59903011Y-134565703D01*
X59836600Y-134552493D01*
X59564336Y-134498335D01*
X59564331Y-134498336D01*
X48784395Y-134498336D01*
X48777674Y-134496999D01*
X48777669Y-134497000D01*
X47091188Y-134497000D01*
X46867870Y-134404270D01*
X46478837Y-134403931D01*
X46119288Y-134552493D01*
X46111267Y-134560500D01*
X43729080Y-134560500D01*
X45506427Y-132783152D01*
X45506430Y-132783150D01*
X45698273Y-132496035D01*
X45705600Y-132459202D01*
X45765641Y-132157360D01*
X45765640Y-132157355D01*
X45765640Y-120929329D01*
X46040663Y-120929569D01*
X46400212Y-120781007D01*
X46469840Y-120711500D01*
X53351920Y-120711500D01*
X53420341Y-120780040D01*
X53779630Y-120929230D01*
X54168663Y-120929569D01*
X54528212Y-120781007D01*
X54803540Y-120506159D01*
X54952730Y-120146870D01*
X54953069Y-119757837D01*
X54804507Y-119398288D01*
X54529659Y-119122960D01*
X54170370Y-118973770D01*
X53781337Y-118973431D01*
X53421788Y-119121993D01*
X53352160Y-119191500D01*
X46470080Y-119191500D01*
X46401659Y-119122960D01*
X46042370Y-118973770D01*
X45765640Y-118973529D01*
X45765640Y-117497396D01*
X46270733Y-116992302D01*
X49054792Y-116992302D01*
X49278110Y-117085032D01*
X49667143Y-117085371D01*
X50026692Y-116936809D01*
X50302020Y-116661961D01*
X50395482Y-116436879D01*
X50442166Y-116390195D01*
X50442169Y-116390193D01*
X51082861Y-115749500D01*
X59478312Y-115749500D01*
X59701630Y-115842230D01*
X60090663Y-115842569D01*
X60315908Y-115749500D01*
X61804422Y-115749500D01*
X61804427Y-115749501D01*
X62088269Y-115693040D01*
X62143102Y-115682133D01*
X62430217Y-115490290D01*
X63053006Y-114867500D01*
X65915000Y-114867500D01*
X65915000Y-115327920D01*
X65846460Y-115396341D01*
X65697270Y-115755630D01*
X65696931Y-116144663D01*
X65845493Y-116504212D01*
X66120341Y-116779540D01*
X66479630Y-116928730D01*
X66868663Y-116929069D01*
X67044130Y-116856568D01*
X65421399Y-118479299D01*
X65326338Y-118479299D01*
X65211414Y-118502159D01*
X58982341Y-118502159D01*
X58691501Y-118560011D01*
X58444940Y-118724758D01*
X56799183Y-120370515D01*
X56702337Y-120370431D01*
X56342788Y-120518993D01*
X56067460Y-120793841D01*
X55918270Y-121153130D01*
X55917931Y-121542163D01*
X56066493Y-121901712D01*
X56341341Y-122177040D01*
X56700630Y-122326230D01*
X57089663Y-122326569D01*
X57449212Y-122178007D01*
X57724540Y-121903159D01*
X57873730Y-121543870D01*
X57873816Y-121445486D01*
X59297143Y-120022159D01*
X61516790Y-120022159D01*
X56993577Y-124545372D01*
X56896731Y-124545288D01*
X56537182Y-124693850D01*
X56261854Y-124968698D01*
X56112664Y-125327987D01*
X56112325Y-125717020D01*
X56260887Y-126076569D01*
X56535735Y-126351897D01*
X56672567Y-126408715D01*
X54176789Y-128904493D01*
X54079943Y-128904409D01*
X53720394Y-129052971D01*
X53445066Y-129327819D01*
X53295876Y-129687108D01*
X53295537Y-130076141D01*
X53444099Y-130435690D01*
X53718947Y-130711018D01*
X53941673Y-130803502D01*
X53941409Y-131106914D01*
X54089971Y-131466463D01*
X54364819Y-131741791D01*
X54724108Y-131890981D01*
X55113141Y-131891320D01*
X55472690Y-131742758D01*
X55542318Y-131673251D01*
X58239718Y-131673251D01*
X58530557Y-131615399D01*
X58777119Y-131450652D01*
X59357562Y-130870209D01*
X59440043Y-130952835D01*
X59440724Y-130953118D01*
X59440549Y-131154016D01*
X59589111Y-131513565D01*
X59863959Y-131788893D01*
X60223248Y-131938083D01*
X60612281Y-131938422D01*
X60971830Y-131789860D01*
X61247158Y-131515012D01*
X61336415Y-131300057D01*
X61336399Y-131318873D01*
X61484961Y-131678422D01*
X61759809Y-131953750D01*
X62119098Y-132102940D01*
X62508131Y-132103279D01*
X62867680Y-131954717D01*
X63143008Y-131679869D01*
X63292198Y-131320580D01*
X63292537Y-130931547D01*
X63143975Y-130571998D01*
X63074468Y-130502370D01*
X63074468Y-129336548D01*
X63098199Y-129393982D01*
X63373047Y-129669310D01*
X63732336Y-129818500D01*
X64121369Y-129818839D01*
X64480918Y-129670277D01*
X64550546Y-129600770D01*
X64654754Y-129600770D01*
X64557977Y-129833834D01*
X64557891Y-129932218D01*
X64407324Y-130082785D01*
X64242577Y-130329347D01*
X64184725Y-130620186D01*
X64184725Y-133524725D01*
X64242577Y-133815564D01*
X64407324Y-134062126D01*
X67269217Y-136924019D01*
X66741715Y-137028946D01*
X66259946Y-137350853D01*
X66040000Y-137680026D01*
X65820054Y-137350853D01*
X65338285Y-137028946D01*
X64770000Y-136915907D01*
X64201715Y-137028946D01*
X63719946Y-137350853D01*
X63500000Y-137680026D01*
X63280054Y-137350853D01*
X62798285Y-137028946D01*
X62230000Y-136915907D01*
X61661715Y-137028946D01*
X61179946Y-137350853D01*
X60960000Y-137680026D01*
X60740054Y-137350853D01*
X60258285Y-137028946D01*
X59690000Y-136915907D01*
X59121715Y-137028946D01*
X58639946Y-137350853D01*
X58420000Y-137680026D01*
X58200054Y-137350853D01*
X57718285Y-137028946D01*
X57150000Y-136915907D01*
X56581715Y-137028946D01*
X56099946Y-137350853D01*
X55880000Y-137680026D01*
X55660054Y-137350853D01*
X55178285Y-137028946D01*
X54610000Y-136915907D01*
X54041715Y-137028946D01*
X53559946Y-137350853D01*
X53340000Y-137680026D01*
X53120054Y-137350853D01*
X52638285Y-137028946D01*
X52070000Y-136915907D01*
X51501715Y-137028946D01*
X51019946Y-137350853D01*
X50800000Y-137680026D01*
X50580054Y-137350853D01*
X50098285Y-137028946D01*
X49530000Y-136915907D01*
X48961715Y-137028946D01*
X48479946Y-137350853D01*
X48260000Y-137680026D01*
X48040054Y-137350853D01*
X47558285Y-137028946D01*
X46990000Y-136915907D01*
X46421715Y-137028946D01*
X45939946Y-137350853D01*
X45720000Y-137680026D01*
X45500054Y-137350853D01*
X45018285Y-137028946D01*
X44450000Y-136915907D01*
X43881715Y-137028946D01*
X43399946Y-137350853D01*
X43078039Y-137832622D01*
X42965000Y-138400907D01*
X42965000Y-138459093D01*
X43078039Y-139027378D01*
X43399946Y-139509147D01*
X43401179Y-139509971D01*
X43364683Y-139516838D01*
X43148559Y-139655910D01*
X43003569Y-139868110D01*
X42952560Y-140120000D01*
X42952560Y-141820000D01*
X42996838Y-142055317D01*
X43135910Y-142271441D01*
X43348110Y-142416431D01*
X43600000Y-142467440D01*
X45300000Y-142467440D01*
X45535317Y-142423162D01*
X45751441Y-142284090D01*
X45896431Y-142071890D01*
X45910086Y-142004459D01*
X45939946Y-142049147D01*
X46421715Y-142371054D01*
X46990000Y-142484093D01*
X47558285Y-142371054D01*
X48040054Y-142049147D01*
X48260000Y-141719974D01*
X48479946Y-142049147D01*
X48961715Y-142371054D01*
X49530000Y-142484093D01*
X50098285Y-142371054D01*
X50580054Y-142049147D01*
X50800000Y-141719974D01*
X51019946Y-142049147D01*
X51501715Y-142371054D01*
X52070000Y-142484093D01*
X52638285Y-142371054D01*
X53120054Y-142049147D01*
X53340000Y-141719974D01*
X53559946Y-142049147D01*
X54041715Y-142371054D01*
X54610000Y-142484093D01*
X55178285Y-142371054D01*
X55660054Y-142049147D01*
X55880000Y-141719974D01*
X56099946Y-142049147D01*
X56581715Y-142371054D01*
X57150000Y-142484093D01*
X57718285Y-142371054D01*
X58200054Y-142049147D01*
X58420000Y-141719974D01*
X58639946Y-142049147D01*
X59121715Y-142371054D01*
X59690000Y-142484093D01*
X60258285Y-142371054D01*
X60740054Y-142049147D01*
X60960000Y-141719974D01*
X61179946Y-142049147D01*
X61661715Y-142371054D01*
X62230000Y-142484093D01*
X62798285Y-142371054D01*
X63280054Y-142049147D01*
X63500000Y-141719974D01*
X63719946Y-142049147D01*
X64201715Y-142371054D01*
X64770000Y-142484093D01*
X65338285Y-142371054D01*
X65820054Y-142049147D01*
X66040000Y-141719974D01*
X66259946Y-142049147D01*
X66741715Y-142371054D01*
X67310000Y-142484093D01*
X67878285Y-142371054D01*
X68360054Y-142049147D01*
X68576671Y-141724956D01*
X68585399Y-141748467D01*
X68979567Y-142173152D01*
X69506251Y-142414668D01*
X69614732Y-142436245D01*
X69847000Y-142296247D01*
X69847000Y-140973000D01*
X69853000Y-140973000D01*
X69853000Y-142296247D01*
X70085268Y-142436245D01*
X70193749Y-142414668D01*
X70720433Y-142173152D01*
X71114601Y-141748467D01*
X71120000Y-141733923D01*
X71125399Y-141748467D01*
X71519567Y-142173152D01*
X72046251Y-142414668D01*
X72154732Y-142436245D01*
X72387000Y-142296247D01*
X72387000Y-140973000D01*
X69853000Y-140973000D01*
X69847000Y-140973000D01*
X69827000Y-140973000D01*
X69827000Y-140967000D01*
X69847000Y-140967000D01*
X69847000Y-140947000D01*
X69853000Y-140947000D01*
X69853000Y-140967000D01*
X72387000Y-140967000D01*
X72387000Y-140947000D01*
X72393000Y-140947000D01*
X72393000Y-140967000D01*
X72413000Y-140967000D01*
X72413000Y-140973000D01*
X72393000Y-140973000D01*
X72393000Y-142296247D01*
X72625268Y-142436245D01*
X72733749Y-142414668D01*
X72893544Y-142341392D01*
X72893544Y-142686679D01*
X44261326Y-142686679D01*
X44261321Y-142686678D01*
X43934701Y-142751648D01*
X43922646Y-142754046D01*
X43635531Y-142945889D01*
X43635529Y-142945892D01*
X43040766Y-143540654D01*
X42817288Y-143632993D01*
X42541960Y-143907841D01*
X42392770Y-144267130D01*
X42392431Y-144656163D01*
X42540993Y-145015712D01*
X42815841Y-145291040D01*
X43175130Y-145440230D01*
X43564163Y-145440569D01*
X43923712Y-145292007D01*
X44199040Y-145017159D01*
X44292502Y-144792078D01*
X44627900Y-144456679D01*
X47204741Y-144456679D01*
X47168266Y-144493154D01*
X46944788Y-144585493D01*
X46669460Y-144860341D01*
X46520270Y-145219630D01*
X46519931Y-145608663D01*
X46668493Y-145968212D01*
X46943341Y-146243540D01*
X47302630Y-146392730D01*
X47691663Y-146393069D01*
X48051212Y-146244507D01*
X48326540Y-145969659D01*
X48420002Y-145744578D01*
X48690079Y-145474500D01*
X56465920Y-145474500D01*
X60836510Y-149845089D01*
X60836512Y-149845092D01*
X61123627Y-150036935D01*
X61179818Y-150048112D01*
X61462302Y-150104303D01*
X61462307Y-150104302D01*
X111448193Y-150104302D01*
X111448198Y-150104303D01*
X111730682Y-150048112D01*
X111786873Y-150036935D01*
X112073988Y-149845092D01*
X113782787Y-148136292D01*
X113782790Y-148136290D01*
X113974633Y-147849175D01*
X113985810Y-147792984D01*
X114042001Y-147510500D01*
X114042000Y-147510495D01*
X114042000Y-135191505D01*
X114042001Y-135191500D01*
X113974633Y-134852826D01*
X113974633Y-134852825D01*
X113782790Y-134565710D01*
X113782787Y-134565708D01*
X110351807Y-131134727D01*
X110351807Y-128185723D01*
X110388810Y-128096611D01*
X110392593Y-128092828D01*
X110392596Y-128092826D01*
X110705329Y-127780092D01*
X110705332Y-127780090D01*
X110897175Y-127492975D01*
X110964542Y-127154300D01*
X110964542Y-101189547D01*
X110964543Y-101189542D01*
X110897175Y-100850867D01*
X110882867Y-100829453D01*
X110705332Y-100563752D01*
X110705329Y-100563750D01*
X110006569Y-99864989D01*
X109942231Y-99822000D01*
X114173000Y-99822000D01*
X114173000Y-155448000D01*
X36322000Y-155448000D01*
X36322000Y-132378768D01*
X37141755Y-132378768D01*
X37163332Y-132487249D01*
X37404848Y-133013933D01*
X37829533Y-133408101D01*
X38372732Y-133609745D01*
X38605000Y-133469747D01*
X38605000Y-132146500D01*
X37281753Y-132146500D01*
X37141755Y-132378768D01*
X36322000Y-132378768D01*
X36322000Y-129838768D01*
X37141755Y-129838768D01*
X37163332Y-129947249D01*
X37404848Y-130473933D01*
X37829533Y-130868101D01*
X37844077Y-130873500D01*
X37829533Y-130878899D01*
X37404848Y-131273067D01*
X37163332Y-131799751D01*
X37141755Y-131908232D01*
X37281753Y-132140500D01*
X38605000Y-132140500D01*
X38605000Y-129606500D01*
X37281753Y-129606500D01*
X37141755Y-129838768D01*
X36322000Y-129838768D01*
X36322000Y-127298768D01*
X37141755Y-127298768D01*
X37163332Y-127407249D01*
X37404848Y-127933933D01*
X37829533Y-128328101D01*
X37844077Y-128333500D01*
X37829533Y-128338899D01*
X37404848Y-128733067D01*
X37163332Y-129259751D01*
X37141755Y-129368232D01*
X37281753Y-129600500D01*
X38605000Y-129600500D01*
X38605000Y-127066500D01*
X37281753Y-127066500D01*
X37141755Y-127298768D01*
X36322000Y-127298768D01*
X36322000Y-124685250D01*
X37123000Y-124685250D01*
X37123000Y-125499810D01*
X37219673Y-125733199D01*
X37398302Y-125911827D01*
X37612340Y-126000485D01*
X37404848Y-126193067D01*
X37163332Y-126719751D01*
X37141755Y-126828232D01*
X37281753Y-127060500D01*
X38605000Y-127060500D01*
X38605000Y-124526500D01*
X37281750Y-124526500D01*
X37123000Y-124685250D01*
X36322000Y-124685250D01*
X36322000Y-123547190D01*
X37123000Y-123547190D01*
X37123000Y-124361750D01*
X37281750Y-124520500D01*
X38605000Y-124520500D01*
X38605000Y-123197250D01*
X38446250Y-123038500D01*
X37631691Y-123038500D01*
X37398302Y-123135173D01*
X37219673Y-123313801D01*
X37123000Y-123547190D01*
X36322000Y-123547190D01*
X36322000Y-106732500D01*
X38902060Y-106732500D01*
X38902060Y-108532500D01*
X38946338Y-108767817D01*
X39085410Y-108983941D01*
X39297610Y-109128931D01*
X39549500Y-109179940D01*
X41349500Y-109179940D01*
X41584817Y-109135662D01*
X41800941Y-108996590D01*
X41945931Y-108784390D01*
X41996940Y-108532500D01*
X41996940Y-106732500D01*
X41952662Y-106497183D01*
X41813590Y-106281059D01*
X41601390Y-106136069D01*
X41580966Y-106131933D01*
X41750051Y-105963143D01*
X41984233Y-105399170D01*
X41984765Y-104788509D01*
X41751568Y-104224129D01*
X41320143Y-103791949D01*
X40756170Y-103557767D01*
X40145509Y-103557235D01*
X39581129Y-103790432D01*
X39148949Y-104221857D01*
X38914767Y-104785830D01*
X38914235Y-105396491D01*
X39147432Y-105960871D01*
X39315380Y-106129113D01*
X39314183Y-106129338D01*
X39098059Y-106268410D01*
X38953069Y-106480610D01*
X38902060Y-106732500D01*
X36322000Y-106732500D01*
X36322000Y-102696105D01*
X47986823Y-102696105D01*
X48126653Y-102930500D01*
X49463500Y-102930500D01*
X49463500Y-101593653D01*
X49229105Y-101453823D01*
X48680928Y-101657304D01*
X48252347Y-102055074D01*
X48008610Y-102586576D01*
X47986823Y-102696105D01*
X36322000Y-102696105D01*
X36322000Y-99822000D01*
X76811269Y-99822000D01*
X76746931Y-99864989D01*
G36*
X106731448Y-146440853D02*
X106978009Y-146605600D01*
X107026263Y-146615198D01*
X107077338Y-146625358D01*
X106978323Y-146892105D01*
X107118153Y-147126500D01*
X108455000Y-147126500D01*
X108455000Y-147106500D01*
X108461000Y-147106500D01*
X108461000Y-147126500D01*
X108481000Y-147126500D01*
X108481000Y-147132500D01*
X108461000Y-147132500D01*
X108461000Y-147152500D01*
X108455000Y-147152500D01*
X108455000Y-147132500D01*
X107118153Y-147132500D01*
X106978323Y-147366895D01*
X107181804Y-147915072D01*
X107570895Y-148334302D01*
X61828881Y-148334302D01*
X57951259Y-144456679D01*
X73234856Y-144456679D01*
X73458174Y-144549409D01*
X73847207Y-144549748D01*
X74206756Y-144401186D01*
X74482084Y-144126338D01*
X74631274Y-143767049D01*
X74631613Y-143378016D01*
X74483051Y-143018467D01*
X74413544Y-142948839D01*
X74413544Y-142335472D01*
X74586251Y-142414668D01*
X74694732Y-142436245D01*
X74927000Y-142296247D01*
X74927000Y-140973000D01*
X74933000Y-140973000D01*
X74933000Y-142296247D01*
X75165268Y-142436245D01*
X75273749Y-142414668D01*
X75800433Y-142173152D01*
X76194601Y-141748467D01*
X76200000Y-141733923D01*
X76205399Y-141748467D01*
X76599567Y-142173152D01*
X77126251Y-142414668D01*
X77234732Y-142436245D01*
X77467000Y-142296247D01*
X77467000Y-140973000D01*
X74933000Y-140973000D01*
X74927000Y-140973000D01*
X74907000Y-140973000D01*
X74907000Y-140967000D01*
X74927000Y-140967000D01*
X74927000Y-140947000D01*
X74933000Y-140947000D01*
X74933000Y-140967000D01*
X77467000Y-140967000D01*
X77467000Y-140947000D01*
X77473000Y-140947000D01*
X77473000Y-140967000D01*
X77493000Y-140967000D01*
X77493000Y-140973000D01*
X77473000Y-140973000D01*
X77473000Y-142296247D01*
X77705268Y-142436245D01*
X77813749Y-142414668D01*
X78340433Y-142173152D01*
X78734601Y-141748467D01*
X78743329Y-141724956D01*
X78959946Y-142049147D01*
X79441715Y-142371054D01*
X80010000Y-142484093D01*
X80578285Y-142371054D01*
X81060054Y-142049147D01*
X81280000Y-141719974D01*
X81499946Y-142049147D01*
X81981715Y-142371054D01*
X82550000Y-142484093D01*
X83118285Y-142371054D01*
X83600054Y-142049147D01*
X83820000Y-141719974D01*
X84039946Y-142049147D01*
X84521715Y-142371054D01*
X85090000Y-142484093D01*
X85658285Y-142371054D01*
X86140054Y-142049147D01*
X86360000Y-141719974D01*
X86579946Y-142049147D01*
X87061715Y-142371054D01*
X87630000Y-142484093D01*
X88198285Y-142371054D01*
X88680054Y-142049147D01*
X88900000Y-141719974D01*
X89119946Y-142049147D01*
X89601715Y-142371054D01*
X90170000Y-142484093D01*
X90738285Y-142371054D01*
X91220054Y-142049147D01*
X91440000Y-141719974D01*
X91659946Y-142049147D01*
X92141715Y-142371054D01*
X92710000Y-142484093D01*
X93278285Y-142371054D01*
X93760054Y-142049147D01*
X93980000Y-141719974D01*
X94199946Y-142049147D01*
X94681715Y-142371054D01*
X95250000Y-142484093D01*
X95818285Y-142371054D01*
X96300054Y-142049147D01*
X96520000Y-141719974D01*
X96739946Y-142049147D01*
X97221715Y-142371054D01*
X97790000Y-142484093D01*
X98358285Y-142371054D01*
X98840054Y-142049147D01*
X99161961Y-141567378D01*
X99275000Y-140999093D01*
X99275000Y-140940907D01*
X99161961Y-140372622D01*
X98840054Y-139890853D01*
X98554422Y-139700000D01*
X98840054Y-139509147D01*
X99161961Y-139027378D01*
X99187845Y-138897250D01*
X106731448Y-146440853D01*
X106731448Y-146440853D01*
G37*
X106731448Y-146440853D02*
X106978009Y-146605600D01*
X107026263Y-146615198D01*
X107077338Y-146625358D01*
X106978323Y-146892105D01*
X107118153Y-147126500D01*
X108455000Y-147126500D01*
X108455000Y-147106500D01*
X108461000Y-147106500D01*
X108461000Y-147126500D01*
X108481000Y-147126500D01*
X108481000Y-147132500D01*
X108461000Y-147132500D01*
X108461000Y-147152500D01*
X108455000Y-147152500D01*
X108455000Y-147132500D01*
X107118153Y-147132500D01*
X106978323Y-147366895D01*
X107181804Y-147915072D01*
X107570895Y-148334302D01*
X61828881Y-148334302D01*
X57951259Y-144456679D01*
X73234856Y-144456679D01*
X73458174Y-144549409D01*
X73847207Y-144549748D01*
X74206756Y-144401186D01*
X74482084Y-144126338D01*
X74631274Y-143767049D01*
X74631613Y-143378016D01*
X74483051Y-143018467D01*
X74413544Y-142948839D01*
X74413544Y-142335472D01*
X74586251Y-142414668D01*
X74694732Y-142436245D01*
X74927000Y-142296247D01*
X74927000Y-140973000D01*
X74933000Y-140973000D01*
X74933000Y-142296247D01*
X75165268Y-142436245D01*
X75273749Y-142414668D01*
X75800433Y-142173152D01*
X76194601Y-141748467D01*
X76200000Y-141733923D01*
X76205399Y-141748467D01*
X76599567Y-142173152D01*
X77126251Y-142414668D01*
X77234732Y-142436245D01*
X77467000Y-142296247D01*
X77467000Y-140973000D01*
X74933000Y-140973000D01*
X74927000Y-140973000D01*
X74907000Y-140973000D01*
X74907000Y-140967000D01*
X74927000Y-140967000D01*
X74927000Y-140947000D01*
X74933000Y-140947000D01*
X74933000Y-140967000D01*
X77467000Y-140967000D01*
X77467000Y-140947000D01*
X77473000Y-140947000D01*
X77473000Y-140967000D01*
X77493000Y-140967000D01*
X77493000Y-140973000D01*
X77473000Y-140973000D01*
X77473000Y-142296247D01*
X77705268Y-142436245D01*
X77813749Y-142414668D01*
X78340433Y-142173152D01*
X78734601Y-141748467D01*
X78743329Y-141724956D01*
X78959946Y-142049147D01*
X79441715Y-142371054D01*
X80010000Y-142484093D01*
X80578285Y-142371054D01*
X81060054Y-142049147D01*
X81280000Y-141719974D01*
X81499946Y-142049147D01*
X81981715Y-142371054D01*
X82550000Y-142484093D01*
X83118285Y-142371054D01*
X83600054Y-142049147D01*
X83820000Y-141719974D01*
X84039946Y-142049147D01*
X84521715Y-142371054D01*
X85090000Y-142484093D01*
X85658285Y-142371054D01*
X86140054Y-142049147D01*
X86360000Y-141719974D01*
X86579946Y-142049147D01*
X87061715Y-142371054D01*
X87630000Y-142484093D01*
X88198285Y-142371054D01*
X88680054Y-142049147D01*
X88900000Y-141719974D01*
X89119946Y-142049147D01*
X89601715Y-142371054D01*
X90170000Y-142484093D01*
X90738285Y-142371054D01*
X91220054Y-142049147D01*
X91440000Y-141719974D01*
X91659946Y-142049147D01*
X92141715Y-142371054D01*
X92710000Y-142484093D01*
X93278285Y-142371054D01*
X93760054Y-142049147D01*
X93980000Y-141719974D01*
X94199946Y-142049147D01*
X94681715Y-142371054D01*
X95250000Y-142484093D01*
X95818285Y-142371054D01*
X96300054Y-142049147D01*
X96520000Y-141719974D01*
X96739946Y-142049147D01*
X97221715Y-142371054D01*
X97790000Y-142484093D01*
X98358285Y-142371054D01*
X98840054Y-142049147D01*
X99161961Y-141567378D01*
X99275000Y-140999093D01*
X99275000Y-140940907D01*
X99161961Y-140372622D01*
X98840054Y-139890853D01*
X98554422Y-139700000D01*
X98840054Y-139509147D01*
X99161961Y-139027378D01*
X99187845Y-138897250D01*
X106731448Y-146440853D01*
G36*
X68799946Y-139509147D02*
X69101763Y-139710814D01*
X68979567Y-139766848D01*
X68585399Y-140191533D01*
X68576671Y-140215044D01*
X68360054Y-139890853D01*
X68074422Y-139700000D01*
X68360054Y-139509147D01*
X68580000Y-139179974D01*
X68799946Y-139509147D01*
X68799946Y-139509147D01*
G37*
X68799946Y-139509147D02*
X69101763Y-139710814D01*
X68979567Y-139766848D01*
X68585399Y-140191533D01*
X68576671Y-140215044D01*
X68360054Y-139890853D01*
X68074422Y-139700000D01*
X68360054Y-139509147D01*
X68580000Y-139179974D01*
X68799946Y-139509147D01*
G36*
X76419946Y-139509147D02*
X76721763Y-139710814D01*
X76599567Y-139766848D01*
X76205399Y-140191533D01*
X76200000Y-140206077D01*
X76194601Y-140191533D01*
X75800433Y-139766848D01*
X75678237Y-139710814D01*
X75980054Y-139509147D01*
X76200000Y-139179974D01*
X76419946Y-139509147D01*
X76419946Y-139509147D01*
G37*
X76419946Y-139509147D02*
X76721763Y-139710814D01*
X76599567Y-139766848D01*
X76205399Y-140191533D01*
X76200000Y-140206077D01*
X76194601Y-140191533D01*
X75800433Y-139766848D01*
X75678237Y-139710814D01*
X75980054Y-139509147D01*
X76200000Y-139179974D01*
X76419946Y-139509147D01*
G36*
X111001000Y-139506500D02*
X111021000Y-139506500D01*
X111021000Y-139512500D01*
X111001000Y-139512500D01*
X111001000Y-139532500D01*
X110995000Y-139532500D01*
X110995000Y-139512500D01*
X110975000Y-139512500D01*
X110975000Y-139506500D01*
X110995000Y-139506500D01*
X110995000Y-139486500D01*
X111001000Y-139486500D01*
X111001000Y-139506500D01*
X111001000Y-139506500D01*
G37*
X111001000Y-139506500D02*
X111021000Y-139506500D01*
X111021000Y-139512500D01*
X111001000Y-139512500D01*
X111001000Y-139532500D01*
X110995000Y-139532500D01*
X110995000Y-139512500D01*
X110975000Y-139512500D01*
X110975000Y-139506500D01*
X110995000Y-139506500D01*
X110995000Y-139486500D01*
X111001000Y-139486500D01*
X111001000Y-139506500D01*
G36*
X106806999Y-137506901D02*
X106946960Y-137600420D01*
X106946960Y-137833100D01*
X106991238Y-138068417D01*
X107130310Y-138284541D01*
X107342510Y-138429531D01*
X107386345Y-138438408D01*
X107307643Y-138556193D01*
X99971103Y-131219653D01*
X99724541Y-131054906D01*
X99433702Y-130997054D01*
X89623495Y-130997054D01*
X89555074Y-130928514D01*
X89195785Y-130779324D01*
X88806752Y-130778985D01*
X88447203Y-130927547D01*
X88171875Y-131202395D01*
X88022685Y-131561684D01*
X88022573Y-131689853D01*
X87834432Y-131767591D01*
X87559104Y-132042439D01*
X87409914Y-132401728D01*
X87409725Y-132618247D01*
X87206174Y-132702352D01*
X86930846Y-132977200D01*
X86781656Y-133336489D01*
X86781614Y-133384659D01*
X86457963Y-133518388D01*
X86182635Y-133793236D01*
X86033445Y-134152525D01*
X86033369Y-134239209D01*
X85845046Y-134317022D01*
X85569718Y-134591870D01*
X85420528Y-134951159D01*
X85420487Y-134997684D01*
X85097760Y-135131032D01*
X84822432Y-135405880D01*
X84673242Y-135765169D01*
X84672903Y-136154202D01*
X84821465Y-136513751D01*
X85096313Y-136789079D01*
X85455602Y-136938269D01*
X85844635Y-136938608D01*
X86204184Y-136790046D01*
X86273812Y-136720539D01*
X97011134Y-136720539D01*
X97303311Y-137012716D01*
X97221715Y-137028946D01*
X96739946Y-137350853D01*
X96520000Y-137680026D01*
X96300054Y-137350853D01*
X95818285Y-137028946D01*
X95250000Y-136915907D01*
X94681715Y-137028946D01*
X94199946Y-137350853D01*
X93980000Y-137680026D01*
X93760054Y-137350853D01*
X93278285Y-137028946D01*
X92710000Y-136915907D01*
X92141715Y-137028946D01*
X91659946Y-137350853D01*
X91440000Y-137680026D01*
X91220054Y-137350853D01*
X90738285Y-137028946D01*
X90170000Y-136915907D01*
X89601715Y-137028946D01*
X89119946Y-137350853D01*
X88900000Y-137680026D01*
X88680054Y-137350853D01*
X88198285Y-137028946D01*
X87630000Y-136915907D01*
X87061715Y-137028946D01*
X86579946Y-137350853D01*
X86360000Y-137680026D01*
X86140054Y-137350853D01*
X85658285Y-137028946D01*
X85090000Y-136915907D01*
X84521715Y-137028946D01*
X84039946Y-137350853D01*
X83820000Y-137680026D01*
X83600054Y-137350853D01*
X83118285Y-137028946D01*
X82550000Y-136915907D01*
X81981715Y-137028946D01*
X81499946Y-137350853D01*
X81280000Y-137680026D01*
X81060054Y-137350853D01*
X80578285Y-137028946D01*
X80010000Y-136915907D01*
X79441715Y-137028946D01*
X78959946Y-137350853D01*
X78740000Y-137680026D01*
X78520054Y-137350853D01*
X78038285Y-137028946D01*
X77470000Y-136915907D01*
X76901715Y-137028946D01*
X76419946Y-137350853D01*
X76200000Y-137680026D01*
X75980054Y-137350853D01*
X75498285Y-137028946D01*
X74930000Y-136915907D01*
X74413544Y-137018637D01*
X74413544Y-135876862D01*
X74355692Y-135586023D01*
X74190945Y-135339461D01*
X71076154Y-132224670D01*
X71076238Y-132127824D01*
X70927676Y-131768275D01*
X70858169Y-131698647D01*
X70858169Y-130150701D01*
X70932540Y-130076460D01*
X71081730Y-129717171D01*
X71081831Y-129600770D01*
X88329230Y-129600770D01*
X88620069Y-129542918D01*
X88866631Y-129378171D01*
X89187317Y-129057485D01*
X89284163Y-129057569D01*
X89643712Y-128909007D01*
X89919040Y-128634159D01*
X90068230Y-128274870D01*
X90068470Y-127999307D01*
X97299405Y-127999307D01*
X106806999Y-137506901D01*
X106806999Y-137506901D01*
G37*
X106806999Y-137506901D02*
X106946960Y-137600420D01*
X106946960Y-137833100D01*
X106991238Y-138068417D01*
X107130310Y-138284541D01*
X107342510Y-138429531D01*
X107386345Y-138438408D01*
X107307643Y-138556193D01*
X99971103Y-131219653D01*
X99724541Y-131054906D01*
X99433702Y-130997054D01*
X89623495Y-130997054D01*
X89555074Y-130928514D01*
X89195785Y-130779324D01*
X88806752Y-130778985D01*
X88447203Y-130927547D01*
X88171875Y-131202395D01*
X88022685Y-131561684D01*
X88022573Y-131689853D01*
X87834432Y-131767591D01*
X87559104Y-132042439D01*
X87409914Y-132401728D01*
X87409725Y-132618247D01*
X87206174Y-132702352D01*
X86930846Y-132977200D01*
X86781656Y-133336489D01*
X86781614Y-133384659D01*
X86457963Y-133518388D01*
X86182635Y-133793236D01*
X86033445Y-134152525D01*
X86033369Y-134239209D01*
X85845046Y-134317022D01*
X85569718Y-134591870D01*
X85420528Y-134951159D01*
X85420487Y-134997684D01*
X85097760Y-135131032D01*
X84822432Y-135405880D01*
X84673242Y-135765169D01*
X84672903Y-136154202D01*
X84821465Y-136513751D01*
X85096313Y-136789079D01*
X85455602Y-136938269D01*
X85844635Y-136938608D01*
X86204184Y-136790046D01*
X86273812Y-136720539D01*
X97011134Y-136720539D01*
X97303311Y-137012716D01*
X97221715Y-137028946D01*
X96739946Y-137350853D01*
X96520000Y-137680026D01*
X96300054Y-137350853D01*
X95818285Y-137028946D01*
X95250000Y-136915907D01*
X94681715Y-137028946D01*
X94199946Y-137350853D01*
X93980000Y-137680026D01*
X93760054Y-137350853D01*
X93278285Y-137028946D01*
X92710000Y-136915907D01*
X92141715Y-137028946D01*
X91659946Y-137350853D01*
X91440000Y-137680026D01*
X91220054Y-137350853D01*
X90738285Y-137028946D01*
X90170000Y-136915907D01*
X89601715Y-137028946D01*
X89119946Y-137350853D01*
X88900000Y-137680026D01*
X88680054Y-137350853D01*
X88198285Y-137028946D01*
X87630000Y-136915907D01*
X87061715Y-137028946D01*
X86579946Y-137350853D01*
X86360000Y-137680026D01*
X86140054Y-137350853D01*
X85658285Y-137028946D01*
X85090000Y-136915907D01*
X84521715Y-137028946D01*
X84039946Y-137350853D01*
X83820000Y-137680026D01*
X83600054Y-137350853D01*
X83118285Y-137028946D01*
X82550000Y-136915907D01*
X81981715Y-137028946D01*
X81499946Y-137350853D01*
X81280000Y-137680026D01*
X81060054Y-137350853D01*
X80578285Y-137028946D01*
X80010000Y-136915907D01*
X79441715Y-137028946D01*
X78959946Y-137350853D01*
X78740000Y-137680026D01*
X78520054Y-137350853D01*
X78038285Y-137028946D01*
X77470000Y-136915907D01*
X76901715Y-137028946D01*
X76419946Y-137350853D01*
X76200000Y-137680026D01*
X75980054Y-137350853D01*
X75498285Y-137028946D01*
X74930000Y-136915907D01*
X74413544Y-137018637D01*
X74413544Y-135876862D01*
X74355692Y-135586023D01*
X74190945Y-135339461D01*
X71076154Y-132224670D01*
X71076238Y-132127824D01*
X70927676Y-131768275D01*
X70858169Y-131698647D01*
X70858169Y-130150701D01*
X70932540Y-130076460D01*
X71081730Y-129717171D01*
X71081831Y-129600770D01*
X88329230Y-129600770D01*
X88620069Y-129542918D01*
X88866631Y-129378171D01*
X89187317Y-129057485D01*
X89284163Y-129057569D01*
X89643712Y-128909007D01*
X89919040Y-128634159D01*
X90068230Y-128274870D01*
X90068470Y-127999307D01*
X97299405Y-127999307D01*
X106806999Y-137506901D01*
G36*
X109194542Y-117049756D02*
X108981543Y-116820299D01*
X108472576Y-116586951D01*
X108367946Y-116566139D01*
X108143500Y-116706754D01*
X108143500Y-117980000D01*
X108163500Y-117980000D01*
X108163500Y-117986000D01*
X108143500Y-117986000D01*
X108143500Y-119259246D01*
X108367946Y-119399861D01*
X108472576Y-119379049D01*
X108981543Y-119145701D01*
X109194542Y-118916244D01*
X109194542Y-126787720D01*
X109141016Y-126841246D01*
X109141014Y-126841249D01*
X109137074Y-126845189D01*
X108913595Y-126937528D01*
X108638267Y-127212376D01*
X108489077Y-127571665D01*
X108488738Y-127960698D01*
X108581807Y-128185943D01*
X108581807Y-131501302D01*
X108581806Y-131501307D01*
X108634967Y-131768558D01*
X108649174Y-131839982D01*
X108784451Y-132042439D01*
X108841017Y-132127097D01*
X112272000Y-135558079D01*
X112272000Y-136201238D01*
X112057670Y-135880471D01*
X111571489Y-135555615D01*
X110998000Y-135441541D01*
X110424511Y-135555615D01*
X109938330Y-135880471D01*
X109929195Y-135894142D01*
X109924762Y-135870583D01*
X109785690Y-135654459D01*
X109573490Y-135509469D01*
X109321600Y-135458460D01*
X107594400Y-135458460D01*
X107359083Y-135502738D01*
X107142959Y-135641810D01*
X107122076Y-135672374D01*
X98151608Y-126701906D01*
X97905046Y-126537159D01*
X97614207Y-126479307D01*
X67128462Y-126479307D01*
X67974716Y-125633053D01*
X102904751Y-125633053D01*
X103162015Y-125890317D01*
X103161931Y-125987163D01*
X103310493Y-126346712D01*
X103585341Y-126622040D01*
X103944630Y-126771230D01*
X104333663Y-126771569D01*
X104693212Y-126623007D01*
X104968540Y-126348159D01*
X105117730Y-125988870D01*
X105118069Y-125599837D01*
X104969507Y-125240288D01*
X104694659Y-124964960D01*
X104335370Y-124815770D01*
X104236986Y-124815684D01*
X103756954Y-124335652D01*
X103510392Y-124170905D01*
X103219553Y-124113053D01*
X98136937Y-124113053D01*
X98517901Y-123732089D01*
X98682648Y-123485528D01*
X98697193Y-123412404D01*
X98740500Y-123194688D01*
X98740500Y-122747337D01*
X99034012Y-122869214D01*
X99423045Y-122869553D01*
X99782594Y-122720991D01*
X100057922Y-122446143D01*
X100128044Y-122277271D01*
X100261971Y-122601400D01*
X100536819Y-122876728D01*
X100896108Y-123025918D01*
X101285141Y-123026257D01*
X101644690Y-122877695D01*
X101920018Y-122602847D01*
X102069208Y-122243558D01*
X102069294Y-122145174D01*
X104867901Y-119346567D01*
X104928999Y-119255128D01*
X105051349Y-119336880D01*
X105600500Y-119446113D01*
X106149651Y-119336880D01*
X106615198Y-119025811D01*
X106879508Y-118630243D01*
X106918531Y-118735342D01*
X107299457Y-119145701D01*
X107808424Y-119379049D01*
X107913054Y-119399861D01*
X108137500Y-119259246D01*
X108137500Y-117986000D01*
X108117500Y-117986000D01*
X108117500Y-117980000D01*
X108137500Y-117980000D01*
X108137500Y-116706754D01*
X107913054Y-116566139D01*
X107808424Y-116586951D01*
X107299457Y-116820299D01*
X106918531Y-117230658D01*
X106879508Y-117335757D01*
X106615198Y-116940189D01*
X106149651Y-116629120D01*
X106109964Y-116621226D01*
X106137901Y-116593289D01*
X106302648Y-116346728D01*
X106360500Y-116055888D01*
X106360500Y-115963524D01*
X106664271Y-116089661D01*
X107053304Y-116090000D01*
X107412853Y-115941438D01*
X107688181Y-115666590D01*
X107837371Y-115307301D01*
X107837457Y-115208917D01*
X108677901Y-114368473D01*
X108842648Y-114121911D01*
X108900500Y-113831072D01*
X108900500Y-103955995D01*
X109155198Y-103785811D01*
X109194542Y-103726929D01*
X109194542Y-117049756D01*
X109194542Y-117049756D01*
G37*
X109194542Y-117049756D02*
X108981543Y-116820299D01*
X108472576Y-116586951D01*
X108367946Y-116566139D01*
X108143500Y-116706754D01*
X108143500Y-117980000D01*
X108163500Y-117980000D01*
X108163500Y-117986000D01*
X108143500Y-117986000D01*
X108143500Y-119259246D01*
X108367946Y-119399861D01*
X108472576Y-119379049D01*
X108981543Y-119145701D01*
X109194542Y-118916244D01*
X109194542Y-126787720D01*
X109141016Y-126841246D01*
X109141014Y-126841249D01*
X109137074Y-126845189D01*
X108913595Y-126937528D01*
X108638267Y-127212376D01*
X108489077Y-127571665D01*
X108488738Y-127960698D01*
X108581807Y-128185943D01*
X108581807Y-131501302D01*
X108581806Y-131501307D01*
X108634967Y-131768558D01*
X108649174Y-131839982D01*
X108784451Y-132042439D01*
X108841017Y-132127097D01*
X112272000Y-135558079D01*
X112272000Y-136201238D01*
X112057670Y-135880471D01*
X111571489Y-135555615D01*
X110998000Y-135441541D01*
X110424511Y-135555615D01*
X109938330Y-135880471D01*
X109929195Y-135894142D01*
X109924762Y-135870583D01*
X109785690Y-135654459D01*
X109573490Y-135509469D01*
X109321600Y-135458460D01*
X107594400Y-135458460D01*
X107359083Y-135502738D01*
X107142959Y-135641810D01*
X107122076Y-135672374D01*
X98151608Y-126701906D01*
X97905046Y-126537159D01*
X97614207Y-126479307D01*
X67128462Y-126479307D01*
X67974716Y-125633053D01*
X102904751Y-125633053D01*
X103162015Y-125890317D01*
X103161931Y-125987163D01*
X103310493Y-126346712D01*
X103585341Y-126622040D01*
X103944630Y-126771230D01*
X104333663Y-126771569D01*
X104693212Y-126623007D01*
X104968540Y-126348159D01*
X105117730Y-125988870D01*
X105118069Y-125599837D01*
X104969507Y-125240288D01*
X104694659Y-124964960D01*
X104335370Y-124815770D01*
X104236986Y-124815684D01*
X103756954Y-124335652D01*
X103510392Y-124170905D01*
X103219553Y-124113053D01*
X98136937Y-124113053D01*
X98517901Y-123732089D01*
X98682648Y-123485528D01*
X98697193Y-123412404D01*
X98740500Y-123194688D01*
X98740500Y-122747337D01*
X99034012Y-122869214D01*
X99423045Y-122869553D01*
X99782594Y-122720991D01*
X100057922Y-122446143D01*
X100128044Y-122277271D01*
X100261971Y-122601400D01*
X100536819Y-122876728D01*
X100896108Y-123025918D01*
X101285141Y-123026257D01*
X101644690Y-122877695D01*
X101920018Y-122602847D01*
X102069208Y-122243558D01*
X102069294Y-122145174D01*
X104867901Y-119346567D01*
X104928999Y-119255128D01*
X105051349Y-119336880D01*
X105600500Y-119446113D01*
X106149651Y-119336880D01*
X106615198Y-119025811D01*
X106879508Y-118630243D01*
X106918531Y-118735342D01*
X107299457Y-119145701D01*
X107808424Y-119379049D01*
X107913054Y-119399861D01*
X108137500Y-119259246D01*
X108137500Y-117986000D01*
X108117500Y-117986000D01*
X108117500Y-117980000D01*
X108137500Y-117980000D01*
X108137500Y-116706754D01*
X107913054Y-116566139D01*
X107808424Y-116586951D01*
X107299457Y-116820299D01*
X106918531Y-117230658D01*
X106879508Y-117335757D01*
X106615198Y-116940189D01*
X106149651Y-116629120D01*
X106109964Y-116621226D01*
X106137901Y-116593289D01*
X106302648Y-116346728D01*
X106360500Y-116055888D01*
X106360500Y-115963524D01*
X106664271Y-116089661D01*
X107053304Y-116090000D01*
X107412853Y-115941438D01*
X107688181Y-115666590D01*
X107837371Y-115307301D01*
X107837457Y-115208917D01*
X108677901Y-114368473D01*
X108842648Y-114121911D01*
X108900500Y-113831072D01*
X108900500Y-103955995D01*
X109155198Y-103785811D01*
X109194542Y-103726929D01*
X109194542Y-117049756D01*
M02*
