G04 #@! TF.FileFunction,Paste,Top*
%FSLAX46Y46*%
G04 Gerber Fmt 4.6, Leading zero omitted, Abs format (unit mm)*
G04 Created by KiCad (PCBNEW 4.0.6) date 07/29/17 07:53:43*
%MOMM*%
%LPD*%
G01*
G04 APERTURE LIST*
%ADD10C,0.100000*%
%ADD11R,1.500000X0.300000*%
%ADD12R,0.300000X1.500000*%
%ADD13R,2.200000X1.200000*%
%ADD14R,3.050000X2.750000*%
%ADD15R,1.500000X1.250000*%
%ADD16R,0.800000X0.900000*%
%ADD17R,1.300000X1.500000*%
%ADD18R,0.406400X1.270000*%
%ADD19R,1.500000X1.300000*%
%ADD20R,1.250000X1.500000*%
%ADD21R,1.000000X1.500000*%
%ADD22R,1.500000X1.000000*%
G04 APERTURE END LIST*
D10*
D11*
X67597000Y-131064000D03*
X67597000Y-130564000D03*
X67597000Y-130064000D03*
X67597000Y-129564000D03*
X67597000Y-129064000D03*
X67597000Y-128564000D03*
X67597000Y-128064000D03*
X67597000Y-127564000D03*
X67597000Y-127064000D03*
X67597000Y-126564000D03*
X67597000Y-126064000D03*
X67597000Y-125564000D03*
X67597000Y-125064000D03*
X67597000Y-124564000D03*
X67597000Y-124064000D03*
X67597000Y-123564000D03*
X67597000Y-123064000D03*
X67597000Y-122564000D03*
X67597000Y-122064000D03*
X67597000Y-121564000D03*
X67597000Y-121064000D03*
X67597000Y-120564000D03*
X67597000Y-120064000D03*
X67597000Y-119564000D03*
X67597000Y-119064000D03*
D12*
X65897000Y-117364000D03*
X65397000Y-117364000D03*
X64897000Y-117364000D03*
X64397000Y-117364000D03*
X63897000Y-117364000D03*
X63397000Y-117364000D03*
X62897000Y-117364000D03*
X62397000Y-117364000D03*
X61897000Y-117364000D03*
X61397000Y-117364000D03*
X60897000Y-117364000D03*
X60397000Y-117364000D03*
X59897000Y-117364000D03*
X59397000Y-117364000D03*
X58897000Y-117364000D03*
X58397000Y-117364000D03*
X57897000Y-117364000D03*
X57397000Y-117364000D03*
X56897000Y-117364000D03*
X56397000Y-117364000D03*
X55897000Y-117364000D03*
X55397000Y-117364000D03*
X54897000Y-117364000D03*
X54397000Y-117364000D03*
X53897000Y-117364000D03*
D11*
X52197000Y-119064000D03*
X52197000Y-119564000D03*
X52197000Y-120064000D03*
X52197000Y-120564000D03*
X52197000Y-121064000D03*
X52197000Y-121564000D03*
X52197000Y-122064000D03*
X52197000Y-122564000D03*
X52197000Y-123064000D03*
X52197000Y-123564000D03*
X52197000Y-124064000D03*
X52197000Y-124564000D03*
X52197000Y-125064000D03*
X52197000Y-125564000D03*
X52197000Y-126064000D03*
X52197000Y-126564000D03*
X52197000Y-127064000D03*
X52197000Y-127564000D03*
X52197000Y-128064000D03*
X52197000Y-128564000D03*
X52197000Y-129064000D03*
X52197000Y-129564000D03*
X52197000Y-130064000D03*
X52197000Y-130564000D03*
X52197000Y-131064000D03*
D12*
X53897000Y-132764000D03*
X54397000Y-132764000D03*
X54897000Y-132764000D03*
X55397000Y-132764000D03*
X55897000Y-132764000D03*
X56397000Y-132764000D03*
X56897000Y-132764000D03*
X57397000Y-132764000D03*
X57897000Y-132764000D03*
X58397000Y-132764000D03*
X58897000Y-132764000D03*
X59397000Y-132764000D03*
X59897000Y-132764000D03*
X60397000Y-132764000D03*
X60897000Y-132764000D03*
X61397000Y-132764000D03*
X61897000Y-132764000D03*
X62397000Y-132764000D03*
X62897000Y-132764000D03*
X63397000Y-132764000D03*
X63897000Y-132764000D03*
X64397000Y-132764000D03*
X64897000Y-132764000D03*
X65397000Y-132764000D03*
X65897000Y-132764000D03*
D13*
X47498000Y-151568500D03*
X47498000Y-149288500D03*
X47498000Y-147008500D03*
D14*
X39523000Y-147763500D03*
X42873000Y-150813500D03*
X39523000Y-150813500D03*
X42873000Y-147763500D03*
D15*
X49212500Y-121920000D03*
X46712500Y-121920000D03*
X46057500Y-133687500D03*
X48557500Y-133687500D03*
D16*
X41844000Y-111268000D03*
X39944000Y-111268000D03*
X40894000Y-113268000D03*
D17*
X40322500Y-115570000D03*
X40322500Y-118270000D03*
X38290500Y-118270000D03*
X38290500Y-115570000D03*
D18*
X105016300Y-124015500D03*
X104381300Y-124015500D03*
X103720900Y-124015500D03*
X103060500Y-124015500D03*
X102425500Y-124015500D03*
X101765100Y-124015500D03*
X101104700Y-124015500D03*
X100469700Y-124015500D03*
X99809300Y-124015500D03*
X99174300Y-124015500D03*
X99174300Y-129349500D03*
X99809300Y-129349500D03*
X100469700Y-129349500D03*
X101104700Y-129349500D03*
X101765100Y-129349500D03*
X102425500Y-129349500D03*
X103060500Y-129349500D03*
X103720900Y-129349500D03*
X104381300Y-129349500D03*
X105016300Y-129349500D03*
D15*
X49466500Y-118237000D03*
X46966500Y-118237000D03*
D19*
X66484500Y-107505500D03*
X69184500Y-107505500D03*
X66484500Y-105410000D03*
X69184500Y-105410000D03*
X66515000Y-103314500D03*
X69215000Y-103314500D03*
D15*
X50927000Y-147002500D03*
X53427000Y-147002500D03*
X50903500Y-149288500D03*
X53403500Y-149288500D03*
X71858500Y-128524000D03*
X74358500Y-128524000D03*
X65873000Y-112331500D03*
X63373000Y-112331500D03*
X60539000Y-113347500D03*
X58039000Y-113347500D03*
X71668000Y-132524500D03*
X74168000Y-132524500D03*
D20*
X107124500Y-125222000D03*
X107124500Y-127722000D03*
X72009000Y-107505500D03*
X72009000Y-105005500D03*
D21*
X110998000Y-129603500D03*
D22*
X46926500Y-127000000D03*
X49403000Y-127000000D03*
X46863000Y-124777500D03*
X49403000Y-125031500D03*
M02*
