G04 #@! TF.FileFunction,Copper,L1,Top,Signal*
%FSLAX46Y46*%
G04 Gerber Fmt 4.6, Leading zero omitted, Abs format (unit mm)*
G04 Created by KiCad (PCBNEW 4.0.6) date 07/29/17 07:53:43*
%MOMM*%
%LPD*%
G01*
G04 APERTURE LIST*
%ADD10C,0.100000*%
%ADD11R,1.500000X0.300000*%
%ADD12R,0.300000X1.500000*%
%ADD13R,2.200000X1.200000*%
%ADD14R,6.400000X5.800000*%
%ADD15R,3.050000X2.750000*%
%ADD16R,1.600000X1.600000*%
%ADD17O,1.600000X1.600000*%
%ADD18R,1.500000X1.250000*%
%ADD19R,1.727200X1.727200*%
%ADD20O,1.727200X1.727200*%
%ADD21R,1.800000X1.800000*%
%ADD22C,1.800000*%
%ADD23R,1.700000X1.700000*%
%ADD24O,1.700000X1.700000*%
%ADD25R,0.800000X0.900000*%
%ADD26R,1.300000X1.500000*%
%ADD27R,0.406400X1.270000*%
%ADD28R,1.500000X1.300000*%
%ADD29R,1.250000X1.500000*%
%ADD30R,1.000000X1.500000*%
%ADD31R,1.500000X1.000000*%
%ADD32C,0.685800*%
%ADD33C,0.500000*%
%ADD34C,0.250000*%
%ADD35C,0.152400*%
%ADD36C,0.254000*%
G04 APERTURE END LIST*
D10*
D11*
X67597000Y-131064000D03*
X67597000Y-130564000D03*
X67597000Y-130064000D03*
X67597000Y-129564000D03*
X67597000Y-129064000D03*
X67597000Y-128564000D03*
X67597000Y-128064000D03*
X67597000Y-127564000D03*
X67597000Y-127064000D03*
X67597000Y-126564000D03*
X67597000Y-126064000D03*
X67597000Y-125564000D03*
X67597000Y-125064000D03*
X67597000Y-124564000D03*
X67597000Y-124064000D03*
X67597000Y-123564000D03*
X67597000Y-123064000D03*
X67597000Y-122564000D03*
X67597000Y-122064000D03*
X67597000Y-121564000D03*
X67597000Y-121064000D03*
X67597000Y-120564000D03*
X67597000Y-120064000D03*
X67597000Y-119564000D03*
X67597000Y-119064000D03*
D12*
X65897000Y-117364000D03*
X65397000Y-117364000D03*
X64897000Y-117364000D03*
X64397000Y-117364000D03*
X63897000Y-117364000D03*
X63397000Y-117364000D03*
X62897000Y-117364000D03*
X62397000Y-117364000D03*
X61897000Y-117364000D03*
X61397000Y-117364000D03*
X60897000Y-117364000D03*
X60397000Y-117364000D03*
X59897000Y-117364000D03*
X59397000Y-117364000D03*
X58897000Y-117364000D03*
X58397000Y-117364000D03*
X57897000Y-117364000D03*
X57397000Y-117364000D03*
X56897000Y-117364000D03*
X56397000Y-117364000D03*
X55897000Y-117364000D03*
X55397000Y-117364000D03*
X54897000Y-117364000D03*
X54397000Y-117364000D03*
X53897000Y-117364000D03*
D11*
X52197000Y-119064000D03*
X52197000Y-119564000D03*
X52197000Y-120064000D03*
X52197000Y-120564000D03*
X52197000Y-121064000D03*
X52197000Y-121564000D03*
X52197000Y-122064000D03*
X52197000Y-122564000D03*
X52197000Y-123064000D03*
X52197000Y-123564000D03*
X52197000Y-124064000D03*
X52197000Y-124564000D03*
X52197000Y-125064000D03*
X52197000Y-125564000D03*
X52197000Y-126064000D03*
X52197000Y-126564000D03*
X52197000Y-127064000D03*
X52197000Y-127564000D03*
X52197000Y-128064000D03*
X52197000Y-128564000D03*
X52197000Y-129064000D03*
X52197000Y-129564000D03*
X52197000Y-130064000D03*
X52197000Y-130564000D03*
X52197000Y-131064000D03*
D12*
X53897000Y-132764000D03*
X54397000Y-132764000D03*
X54897000Y-132764000D03*
X55397000Y-132764000D03*
X55897000Y-132764000D03*
X56397000Y-132764000D03*
X56897000Y-132764000D03*
X57397000Y-132764000D03*
X57897000Y-132764000D03*
X58397000Y-132764000D03*
X58897000Y-132764000D03*
X59397000Y-132764000D03*
X59897000Y-132764000D03*
X60397000Y-132764000D03*
X60897000Y-132764000D03*
X61397000Y-132764000D03*
X61897000Y-132764000D03*
X62397000Y-132764000D03*
X62897000Y-132764000D03*
X63397000Y-132764000D03*
X63897000Y-132764000D03*
X64397000Y-132764000D03*
X64897000Y-132764000D03*
X65397000Y-132764000D03*
X65897000Y-132764000D03*
D13*
X47498000Y-151568500D03*
X47498000Y-149288500D03*
X47498000Y-147008500D03*
D14*
X41198000Y-149288500D03*
D15*
X39523000Y-147763500D03*
X42873000Y-150813500D03*
X39523000Y-150813500D03*
X42873000Y-147763500D03*
D16*
X75120500Y-117983000D03*
D17*
X108140500Y-102743000D03*
X77660500Y-117983000D03*
X105600500Y-102743000D03*
X80200500Y-117983000D03*
X103060500Y-102743000D03*
X82740500Y-117983000D03*
X100520500Y-102743000D03*
X85280500Y-117983000D03*
X97980500Y-102743000D03*
X87820500Y-117983000D03*
X95440500Y-102743000D03*
X90360500Y-117983000D03*
X92900500Y-102743000D03*
X92900500Y-117983000D03*
X90360500Y-102743000D03*
X95440500Y-117983000D03*
X87820500Y-102743000D03*
X97980500Y-117983000D03*
X85280500Y-102743000D03*
X100520500Y-117983000D03*
X82740500Y-102743000D03*
X103060500Y-117983000D03*
X80200500Y-102743000D03*
X105600500Y-117983000D03*
X77660500Y-102743000D03*
X108140500Y-117983000D03*
X75120500Y-102743000D03*
D18*
X49212500Y-121920000D03*
X46712500Y-121920000D03*
X46057500Y-133687500D03*
X48557500Y-133687500D03*
D19*
X49466500Y-105473500D03*
D20*
X49466500Y-102933500D03*
X52006500Y-105473500D03*
X52006500Y-102933500D03*
X54546500Y-105473500D03*
X54546500Y-102933500D03*
X57086500Y-105473500D03*
X57086500Y-102933500D03*
X59626500Y-105473500D03*
X59626500Y-102933500D03*
D21*
X40449500Y-107632500D03*
D22*
X40449500Y-105092500D03*
D23*
X44450000Y-140970000D03*
D24*
X44450000Y-138430000D03*
X46990000Y-140970000D03*
X46990000Y-138430000D03*
X49530000Y-140970000D03*
X49530000Y-138430000D03*
X52070000Y-140970000D03*
X52070000Y-138430000D03*
X54610000Y-140970000D03*
X54610000Y-138430000D03*
X57150000Y-140970000D03*
X57150000Y-138430000D03*
X59690000Y-140970000D03*
X59690000Y-138430000D03*
X62230000Y-140970000D03*
X62230000Y-138430000D03*
X64770000Y-140970000D03*
X64770000Y-138430000D03*
X67310000Y-140970000D03*
X67310000Y-138430000D03*
X69850000Y-140970000D03*
X69850000Y-138430000D03*
X72390000Y-140970000D03*
X72390000Y-138430000D03*
X74930000Y-140970000D03*
X74930000Y-138430000D03*
X77470000Y-140970000D03*
X77470000Y-138430000D03*
X80010000Y-140970000D03*
X80010000Y-138430000D03*
X82550000Y-140970000D03*
X82550000Y-138430000D03*
X85090000Y-140970000D03*
X85090000Y-138430000D03*
X87630000Y-140970000D03*
X87630000Y-138430000D03*
X90170000Y-140970000D03*
X90170000Y-138430000D03*
X92710000Y-140970000D03*
X92710000Y-138430000D03*
X95250000Y-140970000D03*
X95250000Y-138430000D03*
X97790000Y-140970000D03*
X97790000Y-138430000D03*
D19*
X108458000Y-136969500D03*
D20*
X110998000Y-136969500D03*
X108458000Y-139509500D03*
X110998000Y-139509500D03*
X108458000Y-142049500D03*
X110998000Y-142049500D03*
X108458000Y-144589500D03*
X110998000Y-144589500D03*
X108458000Y-147129500D03*
X110998000Y-147129500D03*
D23*
X38608000Y-124523500D03*
D24*
X41148000Y-124523500D03*
X38608000Y-127063500D03*
X41148000Y-127063500D03*
X38608000Y-129603500D03*
X41148000Y-129603500D03*
X38608000Y-132143500D03*
X41148000Y-132143500D03*
D25*
X41844000Y-111268000D03*
X39944000Y-111268000D03*
X40894000Y-113268000D03*
D26*
X40322500Y-115570000D03*
X40322500Y-118270000D03*
X38290500Y-118270000D03*
X38290500Y-115570000D03*
D27*
X105016300Y-124015500D03*
X104381300Y-124015500D03*
X103720900Y-124015500D03*
X103060500Y-124015500D03*
X102425500Y-124015500D03*
X101765100Y-124015500D03*
X101104700Y-124015500D03*
X100469700Y-124015500D03*
X99809300Y-124015500D03*
X99174300Y-124015500D03*
X99174300Y-129349500D03*
X99809300Y-129349500D03*
X100469700Y-129349500D03*
X101104700Y-129349500D03*
X101765100Y-129349500D03*
X102425500Y-129349500D03*
X103060500Y-129349500D03*
X103720900Y-129349500D03*
X104381300Y-129349500D03*
X105016300Y-129349500D03*
D18*
X49466500Y-118237000D03*
X46966500Y-118237000D03*
D28*
X66484500Y-107505500D03*
X69184500Y-107505500D03*
X66484500Y-105410000D03*
X69184500Y-105410000D03*
X66515000Y-103314500D03*
X69215000Y-103314500D03*
D18*
X50927000Y-147002500D03*
X53427000Y-147002500D03*
X50903500Y-149288500D03*
X53403500Y-149288500D03*
X71858500Y-128524000D03*
X74358500Y-128524000D03*
X65873000Y-112331500D03*
X63373000Y-112331500D03*
X60539000Y-113347500D03*
X58039000Y-113347500D03*
X71668000Y-132524500D03*
X74168000Y-132524500D03*
D29*
X107124500Y-125222000D03*
X107124500Y-127722000D03*
X72009000Y-107505500D03*
X72009000Y-105005500D03*
D30*
X110998000Y-129603500D03*
D31*
X46926500Y-127000000D03*
X49403000Y-127000000D03*
X46863000Y-124777500D03*
X49403000Y-125031500D03*
D32*
X49473480Y-116107302D03*
X70104000Y-129521801D03*
X59897000Y-114864500D03*
X41592500Y-135445500D03*
X73653544Y-143571679D03*
X43370500Y-144462500D03*
X70098169Y-132321487D03*
X66675000Y-115951000D03*
X66675000Y-113982500D03*
X59880500Y-135699500D03*
X46672500Y-135382000D03*
X57785000Y-134431551D03*
X42815000Y-113268000D03*
X42719589Y-121856500D03*
X76195466Y-129521801D03*
X71945500Y-109601000D03*
X71945500Y-116586000D03*
X62357000Y-110172500D03*
X76200000Y-132588000D03*
X109296224Y-125066135D03*
X50165000Y-133667500D03*
X47498000Y-145415000D03*
X43811648Y-130669024D03*
X109466807Y-127767035D03*
X38290500Y-120015000D03*
X52003636Y-110802332D03*
X54919478Y-130913251D03*
X54273606Y-129882478D03*
X56356084Y-130053643D03*
X55567128Y-129676828D03*
X57090394Y-125523357D03*
X58381463Y-129582624D03*
X59168485Y-124533017D03*
X59994702Y-130124295D03*
X60418618Y-130960353D03*
X61081729Y-123463378D03*
X61869839Y-122910889D03*
X62314468Y-131125210D03*
X65535707Y-130029204D03*
X65569725Y-131063985D03*
X62673144Y-123483383D03*
X87011175Y-134347895D03*
X88387644Y-132597098D03*
X66235697Y-127239307D03*
X86398258Y-135146529D03*
X87759386Y-133531859D03*
X85650972Y-135960539D03*
X89000415Y-131757054D03*
X53975000Y-119951500D03*
X45847000Y-119951500D03*
X69151500Y-115824000D03*
X56896000Y-121348500D03*
X64469377Y-128063590D03*
X104140000Y-125793500D03*
X99229382Y-121891484D03*
X63927706Y-128840770D03*
X89090500Y-128079500D03*
X101091478Y-122048188D03*
X96712293Y-122582897D03*
X101061084Y-121194018D03*
X106859641Y-115111931D03*
D33*
X49466500Y-116114282D02*
X49473480Y-116107302D01*
X49466500Y-118237000D02*
X49466500Y-116114282D01*
D34*
X49212500Y-121920000D02*
X49212500Y-121944452D01*
X49212500Y-121944452D02*
X49332048Y-122064000D01*
X49332048Y-122064000D02*
X52197000Y-122064000D01*
X52197000Y-119064000D02*
X51119000Y-119064000D01*
X51119000Y-119064000D02*
X50292000Y-118237000D01*
X50292000Y-118237000D02*
X49466500Y-118237000D01*
D33*
X49466500Y-118237000D02*
X49466500Y-121666000D01*
D34*
X49466500Y-121666000D02*
X49212500Y-121920000D01*
X69184500Y-107505500D02*
X69184500Y-111473000D01*
X69184500Y-111473000D02*
X66675000Y-113982500D01*
X69184500Y-105410000D02*
X69184500Y-107505500D01*
X69215000Y-103314500D02*
X69215000Y-105379500D01*
X69215000Y-105379500D02*
X69184500Y-105410000D01*
X69673905Y-132321487D02*
X70098169Y-132321487D01*
X68800550Y-131688999D02*
X69433038Y-132321487D01*
X64897000Y-131764000D02*
X64972001Y-131688999D01*
X64897000Y-132764000D02*
X64897000Y-131764000D01*
X64972001Y-131688999D02*
X68800550Y-131688999D01*
X69433038Y-132321487D02*
X69673905Y-132321487D01*
X71733500Y-128524000D02*
X70735699Y-129521801D01*
X69804001Y-129221802D02*
X70104000Y-129521801D01*
X67597000Y-129064000D02*
X69646199Y-129064000D01*
X70528264Y-129521801D02*
X70104000Y-129521801D01*
X71858500Y-128524000D02*
X71733500Y-128524000D01*
X69646199Y-129064000D02*
X69804001Y-129221802D01*
X70735699Y-129521801D02*
X70528264Y-129521801D01*
D33*
X41198000Y-149288500D02*
X41198000Y-135840000D01*
X41198000Y-135840000D02*
X41592500Y-135445500D01*
X41198000Y-149288500D02*
X41198000Y-145888500D01*
X41198000Y-145888500D02*
X42624000Y-144462500D01*
X42624000Y-144462500D02*
X43370500Y-144462500D01*
D34*
X70098169Y-132321487D02*
X70301182Y-132524500D01*
X70301182Y-132524500D02*
X70555182Y-132524500D01*
X70555182Y-132524500D02*
X71668000Y-132524500D01*
X66167000Y-115951000D02*
X65897000Y-116221000D01*
X65897000Y-116221000D02*
X65897000Y-117364000D01*
X66675000Y-115951000D02*
X66167000Y-115951000D01*
D33*
X65873000Y-112331500D02*
X65873000Y-113180500D01*
X65873000Y-113180500D02*
X66675000Y-113982500D01*
D34*
X60539000Y-113347500D02*
X60539000Y-114222500D01*
X59897000Y-116364000D02*
X59897000Y-117364000D01*
X60539000Y-114222500D02*
X59897000Y-114864500D01*
X59897000Y-114864500D02*
X59897000Y-116364000D01*
X59897000Y-135683000D02*
X59880500Y-135699500D01*
X59897000Y-132764000D02*
X59897000Y-135683000D01*
X46057500Y-133687500D02*
X46057500Y-134767000D01*
X46057500Y-134767000D02*
X46672500Y-135382000D01*
D33*
X47498000Y-149288500D02*
X41198000Y-149288500D01*
X47498000Y-149288500D02*
X48848000Y-149288500D01*
X48848000Y-149288500D02*
X50903500Y-149288500D01*
D34*
X46712500Y-122795000D02*
X46712500Y-121920000D01*
X45537072Y-127506729D02*
X45537072Y-123970428D01*
X50533440Y-128192522D02*
X46222865Y-128192522D01*
X45537072Y-123970428D02*
X46712500Y-122795000D01*
X46222865Y-128192522D02*
X45537072Y-127506729D01*
X52197000Y-128064000D02*
X50661962Y-128064000D01*
X50661962Y-128064000D02*
X50533440Y-128192522D01*
X52197000Y-124564000D02*
X50905467Y-124564000D01*
X48125736Y-118434797D02*
X47927939Y-118237000D01*
X50905467Y-124564000D02*
X49327692Y-122986225D01*
X49327692Y-122986225D02*
X48264664Y-122986225D01*
X48264664Y-122986225D02*
X48042210Y-122763771D01*
X48042210Y-122763771D02*
X48042210Y-120038502D01*
X47927939Y-118237000D02*
X46966500Y-118237000D01*
X48042210Y-120038502D02*
X48125736Y-119954976D01*
X48125736Y-119954976D02*
X48125736Y-118434797D01*
D33*
X46712500Y-121920000D02*
X46712500Y-118491000D01*
X46712500Y-118491000D02*
X46966500Y-118237000D01*
X42719589Y-121856500D02*
X46649000Y-121856500D01*
X46649000Y-121856500D02*
X46712500Y-121920000D01*
D35*
X46799500Y-118404000D02*
X46966500Y-118237000D01*
D34*
X50165000Y-131762500D02*
X50165000Y-133667500D01*
X52197000Y-131064000D02*
X50863500Y-131064000D01*
X50863500Y-131064000D02*
X50165000Y-131762500D01*
X57897000Y-132764000D02*
X57897000Y-134319551D01*
X57897000Y-134319551D02*
X57785000Y-134431551D01*
D33*
X46990000Y-153797000D02*
X47498000Y-153289000D01*
X47498000Y-153289000D02*
X47498000Y-151568500D01*
X37592000Y-153797000D02*
X46990000Y-153797000D01*
X108140500Y-117983000D02*
X108140500Y-113855500D01*
X108140500Y-113855500D02*
X106807000Y-112522000D01*
X106807000Y-112522000D02*
X82613500Y-112522000D01*
X82613500Y-112522000D02*
X78692697Y-116442803D01*
X78692697Y-116442803D02*
X72088697Y-116442803D01*
X72088697Y-116442803D02*
X71945500Y-116586000D01*
X77470000Y-140970000D02*
X77470000Y-143622033D01*
X77470000Y-143622033D02*
X80977467Y-147129500D01*
X80977467Y-147129500D02*
X108458000Y-147129500D01*
X38608000Y-132143500D02*
X36639500Y-130175000D01*
X36639500Y-130175000D02*
X36639500Y-122872500D01*
X36639500Y-122872500D02*
X37655500Y-121856500D01*
X37655500Y-121856500D02*
X42719589Y-121856500D01*
X44005500Y-112077500D02*
X42815000Y-113268000D01*
X42815000Y-113268000D02*
X40894000Y-113268000D01*
X44005500Y-108394500D02*
X44005500Y-112077500D01*
X49466500Y-102933500D02*
X44005500Y-108394500D01*
D34*
X74483500Y-128524000D02*
X75481301Y-129521801D01*
X75481301Y-129521801D02*
X75771202Y-129521801D01*
X75771202Y-129521801D02*
X76195466Y-129521801D01*
X74358500Y-128524000D02*
X74483500Y-128524000D01*
X70007500Y-121064000D02*
X71945500Y-119126000D01*
X71945500Y-119126000D02*
X71945500Y-116586000D01*
X67597000Y-121064000D02*
X70007500Y-121064000D01*
D33*
X71945500Y-109601000D02*
X71945500Y-107569000D01*
X71945500Y-107569000D02*
X72009000Y-107505500D01*
X58039000Y-113347500D02*
X58039000Y-112472500D01*
X60339000Y-110172500D02*
X61932736Y-110172500D01*
X58039000Y-112472500D02*
X60339000Y-110172500D01*
X61932736Y-110172500D02*
X62357000Y-110172500D01*
X63373000Y-112331500D02*
X63373000Y-111188500D01*
X63373000Y-111188500D02*
X62357000Y-110172500D01*
X36766500Y-152971500D02*
X36766500Y-133985000D01*
X36766500Y-133985000D02*
X38608000Y-132143500D01*
X37592000Y-153797000D02*
X36766500Y-152971500D01*
X53403500Y-149288500D02*
X53403500Y-151130000D01*
X53403500Y-151130000D02*
X52959000Y-151574500D01*
X52959000Y-151574500D02*
X47504000Y-151574500D01*
X47504000Y-151574500D02*
X47498000Y-151568500D01*
D34*
X65897000Y-132764000D02*
X65897000Y-133764000D01*
X65897000Y-133764000D02*
X66054500Y-133921500D01*
X66054500Y-133921500D02*
X73782103Y-133921500D01*
X74168000Y-133535603D02*
X74168000Y-132524500D01*
X73782103Y-133921500D02*
X74168000Y-133535603D01*
X76200000Y-132588000D02*
X74231500Y-132588000D01*
X74231500Y-132588000D02*
X74168000Y-132524500D01*
D33*
X108458000Y-147129500D02*
X110086108Y-148757608D01*
X110086108Y-148757608D02*
X111430256Y-148757608D01*
X111430256Y-148757608D02*
X112558126Y-147629738D01*
X112558126Y-147629738D02*
X112558126Y-141069626D01*
X112558126Y-141069626D02*
X111861599Y-140373099D01*
X111861599Y-140373099D02*
X110998000Y-139509500D01*
X110998000Y-139509500D02*
X112509937Y-137997563D01*
X112509937Y-137997563D02*
X112509937Y-128279848D01*
X112509937Y-128279848D02*
X109596223Y-125366134D01*
X109596223Y-125366134D02*
X109296224Y-125066135D01*
D34*
X99174300Y-124015500D02*
X99174300Y-126225300D01*
X99174300Y-126225300D02*
X99504500Y-126555500D01*
X99504500Y-126555500D02*
X104902000Y-126555500D01*
X104902000Y-126555500D02*
X106235500Y-125222000D01*
X106235500Y-125222000D02*
X107124500Y-125222000D01*
D33*
X109140359Y-125222000D02*
X109296224Y-125066135D01*
X107124500Y-125222000D02*
X109140359Y-125222000D01*
D34*
X63373000Y-112331500D02*
X63373000Y-117340000D01*
X63373000Y-117340000D02*
X63397000Y-117364000D01*
X56897000Y-116077000D02*
X58039000Y-114935000D01*
X58039000Y-114935000D02*
X58039000Y-113347500D01*
X56897000Y-117364000D02*
X56897000Y-116077000D01*
X48557500Y-133687500D02*
X50145000Y-133687500D01*
X50145000Y-133687500D02*
X50165000Y-133667500D01*
X72390000Y-140970000D02*
X71187919Y-140970000D01*
X71187919Y-140970000D02*
X69850000Y-140970000D01*
X74930000Y-140970000D02*
X73727919Y-140970000D01*
X73727919Y-140970000D02*
X72390000Y-140970000D01*
X77470000Y-140970000D02*
X76267919Y-140970000D01*
X76267919Y-140970000D02*
X74930000Y-140970000D01*
D33*
X66357500Y-147002500D02*
X69850000Y-143510000D01*
X69850000Y-143510000D02*
X69850000Y-140970000D01*
X53427000Y-147002500D02*
X66357500Y-147002500D01*
X53427000Y-147002500D02*
X53427000Y-149265000D01*
X53427000Y-149265000D02*
X53403500Y-149288500D01*
X44450000Y-140970000D02*
X43543726Y-140970000D01*
X43543726Y-140970000D02*
X42953394Y-140379668D01*
X42953394Y-140379668D02*
X42953394Y-131527278D01*
X42953394Y-131527278D02*
X43511649Y-130969023D01*
X43511649Y-130969023D02*
X43811648Y-130669024D01*
X109421772Y-127722000D02*
X109466807Y-127767035D01*
X107124500Y-127722000D02*
X109421772Y-127722000D01*
X38290500Y-120015000D02*
X38290500Y-118270000D01*
X75120500Y-104457500D02*
X74572500Y-105005500D01*
X74572500Y-105005500D02*
X72009000Y-105005500D01*
X75120500Y-102743000D02*
X75120500Y-104457500D01*
X50927000Y-147002500D02*
X47504000Y-147002500D01*
X47504000Y-147002500D02*
X47498000Y-147008500D01*
X44450000Y-140970000D02*
X44450000Y-142367000D01*
X47498000Y-145415000D02*
X47498000Y-147008500D01*
X44450000Y-142367000D02*
X47498000Y-145415000D01*
D34*
X105016300Y-129349500D02*
X105016300Y-128464500D01*
X105016300Y-128464500D02*
X105758800Y-127722000D01*
X105758800Y-127722000D02*
X106249500Y-127722000D01*
X106249500Y-127722000D02*
X107124500Y-127722000D01*
X49466500Y-105473500D02*
X50101500Y-105473500D01*
X50101500Y-105473500D02*
X51371500Y-104203500D01*
X51371500Y-104203500D02*
X55245000Y-104203500D01*
X55245000Y-104203500D02*
X55816500Y-103632000D01*
X55816500Y-103632000D02*
X55816500Y-102044500D01*
X55816500Y-102044500D02*
X56216370Y-101644630D01*
X56216370Y-101644630D02*
X61639630Y-101644630D01*
X61639630Y-101644630D02*
X63309500Y-103314500D01*
X63309500Y-103314500D02*
X66515000Y-103314500D01*
X49466500Y-107112231D02*
X49466500Y-105473500D01*
X54897000Y-117364000D02*
X54897000Y-112542731D01*
X54897000Y-112542731D02*
X49466500Y-107112231D01*
X57397000Y-132764000D02*
X57397000Y-130723601D01*
X57397000Y-130723601D02*
X57715396Y-130405205D01*
X53626812Y-118525395D02*
X52003636Y-116902219D01*
X52003636Y-116902219D02*
X52003636Y-111287265D01*
X57715396Y-130405205D02*
X57715396Y-121115892D01*
X57715396Y-121115892D02*
X55124899Y-118525395D01*
X55124899Y-118525395D02*
X53626812Y-118525395D01*
X52003636Y-111287265D02*
X52003636Y-110802332D01*
X54546500Y-105473500D02*
X54611411Y-105473500D01*
X54611411Y-105473500D02*
X55877068Y-104207843D01*
X55877068Y-104207843D02*
X63225446Y-104207843D01*
X63225446Y-104207843D02*
X64427603Y-105410000D01*
X64427603Y-105410000D02*
X66484500Y-105410000D01*
X55397000Y-117364000D02*
X55372001Y-117339001D01*
X55372001Y-117339001D02*
X55372001Y-116353999D01*
X55372001Y-116353999D02*
X55347010Y-116329008D01*
X55347009Y-110717599D02*
X54564284Y-109934874D01*
X55347010Y-116329008D02*
X55347009Y-110717599D01*
X54564284Y-105491284D02*
X54546500Y-105473500D01*
X54564284Y-109934874D02*
X54564284Y-105491284D01*
X59626500Y-105473500D02*
X62547500Y-105473500D01*
X62547500Y-105473500D02*
X64579500Y-107505500D01*
X64579500Y-107505500D02*
X66484500Y-107505500D01*
X56397000Y-117364000D02*
X56397000Y-110454618D01*
X56397000Y-110454618D02*
X59626500Y-107225118D01*
X59626500Y-107225118D02*
X59626500Y-105473500D01*
X40449500Y-109093000D02*
X39944000Y-109598500D01*
X39944000Y-109598500D02*
X39944000Y-111268000D01*
X40449500Y-107632500D02*
X40449500Y-109093000D01*
X39944000Y-106873000D02*
X39751000Y-106680000D01*
X40449500Y-105092500D02*
X39130185Y-105092500D01*
X39130185Y-105092500D02*
X38290500Y-105932185D01*
X38290500Y-105932185D02*
X38290500Y-107073674D01*
X38290500Y-107073674D02*
X38290500Y-115570000D01*
X46990000Y-138430000D02*
X49541187Y-135878813D01*
X49541187Y-135878813D02*
X51542495Y-135878813D01*
X51542495Y-135878813D02*
X53897000Y-133524308D01*
X53897000Y-133524308D02*
X53897000Y-132764000D01*
X54897000Y-130935729D02*
X54919478Y-130913251D01*
X54897000Y-132764000D02*
X54897000Y-130935729D01*
X49530000Y-140970000D02*
X50788539Y-139711461D01*
X50788539Y-139711461D02*
X50788539Y-137913788D01*
X50788539Y-137913788D02*
X54897000Y-133805327D01*
X54897000Y-133805327D02*
X54897000Y-132764000D01*
X49530000Y-138430000D02*
X49635917Y-138430000D01*
X49635917Y-138430000D02*
X54397000Y-133668917D01*
X54397000Y-133668917D02*
X54397000Y-132764000D01*
X54273606Y-130306742D02*
X54273606Y-129882478D01*
X54273606Y-131180886D02*
X54273606Y-130306742D01*
X54397000Y-132764000D02*
X54397000Y-131304280D01*
X54397000Y-131304280D02*
X54273606Y-131180886D01*
X56356084Y-131301504D02*
X56356084Y-130538576D01*
X55897000Y-131760588D02*
X56356084Y-131301504D01*
X55897000Y-132764000D02*
X55897000Y-131760588D01*
X56356084Y-130538576D02*
X56356084Y-130053643D01*
X53373047Y-137515411D02*
X55897000Y-134991458D01*
X52070000Y-140970000D02*
X53373047Y-139666953D01*
X55897000Y-134991458D02*
X55897000Y-133764000D01*
X53373047Y-139666953D02*
X53373047Y-137515411D01*
X55897000Y-133764000D02*
X55897000Y-132764000D01*
X55567128Y-130161761D02*
X55567128Y-129676828D01*
X55397000Y-131611464D02*
X55567128Y-131441336D01*
X55397000Y-132764000D02*
X55397000Y-131611464D01*
X55567128Y-131441336D02*
X55567128Y-130161761D01*
X52070000Y-138430000D02*
X52919999Y-137580001D01*
X52919999Y-137580001D02*
X52919999Y-137310400D01*
X52919999Y-137310400D02*
X55397000Y-134833399D01*
X55397000Y-134833399D02*
X55397000Y-133764000D01*
X55397000Y-133764000D02*
X55397000Y-132764000D01*
X55870949Y-136290331D02*
X56897000Y-135264280D01*
X55870949Y-139709051D02*
X55870949Y-136290331D01*
X56897000Y-135264280D02*
X56897000Y-133764000D01*
X54610000Y-140970000D02*
X55870949Y-139709051D01*
X56897000Y-133764000D02*
X56897000Y-132764000D01*
X57105915Y-130445591D02*
X57105915Y-129850101D01*
X56944229Y-130607277D02*
X57105915Y-130445591D01*
X57105915Y-129850101D02*
X57090394Y-129834580D01*
X57090394Y-129834580D02*
X57090394Y-125947621D01*
X57090394Y-125947621D02*
X57090394Y-125523357D01*
X56944229Y-131349771D02*
X56944229Y-130607277D01*
X56397000Y-132764000D02*
X56397000Y-131897000D01*
X56397000Y-131897000D02*
X56944229Y-131349771D01*
X54610000Y-136914868D02*
X56397000Y-135127868D01*
X54610000Y-138430000D02*
X54610000Y-136914868D01*
X56397000Y-135127868D02*
X56397000Y-133764000D01*
X56397000Y-133764000D02*
X56397000Y-132764000D01*
X58397000Y-132764000D02*
X58397000Y-129598161D01*
X58397000Y-129598161D02*
X58381463Y-129582624D01*
X58397000Y-133764000D02*
X58397000Y-132764000D01*
X58410002Y-134983502D02*
X58410002Y-133777002D01*
X58355476Y-135038028D02*
X58410002Y-134983502D01*
X58355476Y-139764524D02*
X58355476Y-135038028D01*
X57150000Y-140970000D02*
X58355476Y-139764524D01*
X58410002Y-133777002D02*
X58397000Y-133764000D01*
X58897000Y-132764000D02*
X58897000Y-130244196D01*
X59168485Y-124957281D02*
X59168485Y-124533017D01*
X58897000Y-130244196D02*
X59168485Y-129972711D01*
X59168485Y-129972711D02*
X59168485Y-124957281D01*
X58897000Y-135132915D02*
X58897000Y-133764000D01*
X58897000Y-133764000D02*
X58897000Y-132764000D01*
X58805487Y-135224428D02*
X58897000Y-135132915D01*
X58805487Y-137545487D02*
X58805487Y-135224428D01*
X59690000Y-138430000D02*
X58805487Y-137545487D01*
X59651803Y-130467194D02*
X59994702Y-130124295D01*
X59397000Y-132764000D02*
X59397000Y-130721997D01*
X59397000Y-130721997D02*
X59651803Y-130467194D01*
X59255498Y-135410828D02*
X59397000Y-135269326D01*
X59255498Y-135999502D02*
X59255498Y-135410828D01*
X60952315Y-139692315D02*
X60952315Y-137696319D01*
X62230000Y-140970000D02*
X60952315Y-139692315D01*
X59397000Y-133764000D02*
X59397000Y-132764000D01*
X59397000Y-135269326D02*
X59397000Y-133764000D01*
X60952315Y-137696319D02*
X59255498Y-135999502D01*
X60397000Y-130981971D02*
X60418618Y-130960353D01*
X60397000Y-132764000D02*
X60397000Y-130981971D01*
X62230000Y-137249857D02*
X60569002Y-135588859D01*
X60569002Y-134891498D02*
X60397000Y-134719496D01*
X60397000Y-134719496D02*
X60397000Y-133764000D01*
X60569002Y-135588859D02*
X60569002Y-134891498D01*
X60397000Y-133764000D02*
X60397000Y-132764000D01*
X62230000Y-138430000D02*
X62230000Y-137249857D01*
X61081729Y-123948311D02*
X61081729Y-123463378D01*
X61081729Y-131309492D02*
X61081729Y-123948311D01*
X60897000Y-131494221D02*
X61081729Y-131309492D01*
X60897000Y-132764000D02*
X60897000Y-131494221D01*
X61019013Y-135402459D02*
X61019013Y-134705098D01*
X60897000Y-133764000D02*
X60897000Y-132764000D01*
X60897000Y-134583085D02*
X60897000Y-133764000D01*
X63494491Y-137877937D02*
X61019013Y-135402459D01*
X61019013Y-134705098D02*
X60897000Y-134583085D01*
X64770000Y-140970000D02*
X63494491Y-139694491D01*
X63494491Y-139694491D02*
X63494491Y-137877937D01*
X61869839Y-123395822D02*
X61869839Y-122910889D01*
X61869839Y-124175806D02*
X61869839Y-123395822D01*
X61397000Y-131593816D02*
X61494440Y-131496376D01*
X61494440Y-124551205D02*
X61869839Y-124175806D01*
X61494440Y-131496376D02*
X61494440Y-124551205D01*
X61397000Y-132764000D02*
X61397000Y-131593816D01*
X61469024Y-134518698D02*
X61397000Y-134446674D01*
X61469024Y-135216059D02*
X61469024Y-134518698D01*
X63832966Y-137580001D02*
X61469024Y-135216059D01*
X64770000Y-138430000D02*
X63920001Y-137580001D01*
X61397000Y-134446674D02*
X61397000Y-133764000D01*
X63920001Y-137580001D02*
X63832966Y-137580001D01*
X61397000Y-133764000D02*
X61397000Y-132764000D01*
X61971569Y-131468109D02*
X62314468Y-131125210D01*
X61897000Y-131542678D02*
X61971569Y-131468109D01*
X61897000Y-132764000D02*
X61897000Y-131542678D01*
X61897000Y-133764000D02*
X61897000Y-132764000D01*
X61919035Y-133786035D02*
X61897000Y-133764000D01*
X66023572Y-137666624D02*
X65428525Y-137071577D01*
X63960952Y-137071577D02*
X61919035Y-135029660D01*
X66023572Y-139683572D02*
X66023572Y-137666624D01*
X67310000Y-140970000D02*
X66023572Y-139683572D01*
X61919035Y-135029660D02*
X61919035Y-133786035D01*
X65428525Y-137071577D02*
X63960952Y-137071577D01*
X62397000Y-133764000D02*
X62397000Y-132764000D01*
X64147352Y-136621566D02*
X62397000Y-134871214D01*
X66703647Y-136621566D02*
X64147352Y-136621566D01*
X67310000Y-137227919D02*
X66703647Y-136621566D01*
X67310000Y-138430000D02*
X67310000Y-137227919D01*
X62397000Y-134871214D02*
X62397000Y-133764000D01*
X65535707Y-129604940D02*
X65535707Y-130029204D01*
X65535707Y-121003880D02*
X65535707Y-127410792D01*
X66475587Y-120064000D02*
X65535707Y-121003880D01*
X67597000Y-120064000D02*
X66475587Y-120064000D01*
X65591013Y-127466098D02*
X65591013Y-129549634D01*
X65591013Y-129549634D02*
X65535707Y-129604940D01*
X65535707Y-127410792D02*
X65591013Y-127466098D01*
X64876818Y-118884182D02*
X64876818Y-127390630D01*
X65397000Y-118364000D02*
X64876818Y-118884182D01*
X65397000Y-117364000D02*
X65397000Y-118364000D01*
X65125005Y-127638817D02*
X65125005Y-128458999D01*
X65226826Y-130721086D02*
X65569725Y-131063985D01*
X65125005Y-128458999D02*
X64902509Y-128681495D01*
X64876818Y-127390630D02*
X65125005Y-127638817D01*
X64902509Y-128681495D02*
X64902509Y-130396769D01*
X64902509Y-130396769D02*
X65226826Y-130721086D01*
X72671555Y-136171555D02*
X64333752Y-136171555D01*
X64333752Y-136171555D02*
X62897000Y-134734803D01*
X62897000Y-134734803D02*
X62897000Y-133764000D01*
X74930000Y-138430000D02*
X72671555Y-136171555D01*
X62897000Y-133764000D02*
X62897000Y-132764000D01*
X63397000Y-132764000D02*
X63397000Y-129345866D01*
X62673144Y-123968316D02*
X62673144Y-123483383D01*
X62673144Y-128622010D02*
X62673144Y-123968316D01*
X63397000Y-129345866D02*
X62673144Y-128622010D01*
X78735097Y-137041536D02*
X77415105Y-135721544D01*
X63397000Y-133764000D02*
X63397000Y-132764000D01*
X63397000Y-134598392D02*
X63397000Y-133764000D01*
X77415105Y-135721544D02*
X64520152Y-135721544D01*
X78735097Y-139695097D02*
X78735097Y-137041536D01*
X80010000Y-140970000D02*
X78735097Y-139695097D01*
X64520152Y-135721544D02*
X63397000Y-134598392D01*
X78053614Y-135271533D02*
X64706552Y-135271533D01*
X63897000Y-133764000D02*
X63897000Y-132764000D01*
X80010000Y-138430000D02*
X80010000Y-137227919D01*
X63897000Y-134461981D02*
X63897000Y-133764000D01*
X64706552Y-135271533D02*
X63897000Y-134461981D01*
X80010000Y-137227919D02*
X78053614Y-135271533D01*
X81256935Y-137254576D02*
X78823881Y-134821522D01*
X78823881Y-134821522D02*
X65454522Y-134821522D01*
X82550000Y-140970000D02*
X81256935Y-139676935D01*
X81256935Y-139676935D02*
X81256935Y-137254576D01*
X65454522Y-134821522D02*
X64397000Y-133764000D01*
X64397000Y-133764000D02*
X64397000Y-132764000D01*
X82550000Y-138430000D02*
X82550000Y-137227919D01*
X65791510Y-134371511D02*
X65397000Y-133977001D01*
X65397000Y-133977001D02*
X65397000Y-133764000D01*
X79693592Y-134371511D02*
X65791510Y-134371511D01*
X65397000Y-133764000D02*
X65397000Y-132764000D01*
X82550000Y-137227919D02*
X79693592Y-134371511D01*
X68811963Y-131064000D02*
X68597000Y-131064000D01*
X85090000Y-140970000D02*
X83830482Y-139710482D01*
X83830482Y-139710482D02*
X83830482Y-137052007D01*
X69244798Y-131496836D02*
X68811963Y-131064000D01*
X83830482Y-137052007D02*
X78275311Y-131496836D01*
X68597000Y-131064000D02*
X67597000Y-131064000D01*
X78275311Y-131496836D02*
X69244798Y-131496836D01*
X90308772Y-133211228D02*
X98217126Y-133211228D01*
X99174300Y-132254054D02*
X99174300Y-130234500D01*
X99174300Y-130234500D02*
X99174300Y-129349500D01*
X85939999Y-137580001D02*
X85984032Y-137580001D01*
X87476969Y-136087064D02*
X87476969Y-136043031D01*
X85984032Y-137580001D02*
X87476969Y-136087064D01*
X85090000Y-138430000D02*
X85939999Y-137580001D01*
X87476969Y-136043031D02*
X90308772Y-133211228D01*
X98217126Y-133211228D02*
X99174300Y-132254054D01*
X100469700Y-129349500D02*
X100469700Y-132740805D01*
X88905349Y-139694651D02*
X87630000Y-140970000D01*
X100469700Y-132740805D02*
X98924328Y-134286177D01*
X98924328Y-134286177D02*
X91588995Y-134286177D01*
X91588995Y-134286177D02*
X88905349Y-136969823D01*
X88905349Y-136969823D02*
X88905349Y-139694651D01*
X87630000Y-137227919D02*
X87630000Y-138430000D01*
X99809300Y-132473700D02*
X98488500Y-133794500D01*
X98488500Y-133794500D02*
X91063419Y-133794500D01*
X99809300Y-129349500D02*
X99809300Y-132473700D01*
X91063419Y-133794500D02*
X87630000Y-137227919D01*
X101765100Y-129349500D02*
X101765100Y-133213413D01*
X101765100Y-133213413D02*
X99504235Y-135474278D01*
X93011891Y-135474278D02*
X91410050Y-137076119D01*
X99504235Y-135474278D02*
X93011891Y-135474278D01*
X91410050Y-137076119D02*
X91410050Y-139729950D01*
X91410050Y-139729950D02*
X90170000Y-140970000D01*
X101104700Y-129349500D02*
X101104700Y-132982738D01*
X101104700Y-132982738D02*
X99207211Y-134880227D01*
X99207211Y-134880227D02*
X92347824Y-134880227D01*
X90170000Y-137058051D02*
X90170000Y-138430000D01*
X92347824Y-134880227D02*
X90170000Y-137058051D01*
X103060500Y-129349500D02*
X103060500Y-133700165D01*
X94552476Y-136605803D02*
X93981956Y-137176323D01*
X103060500Y-133700165D02*
X100154862Y-136605803D01*
X100154862Y-136605803D02*
X94552476Y-136605803D01*
X93981956Y-137176323D02*
X93981956Y-139698044D01*
X93981956Y-139698044D02*
X92710000Y-140970000D01*
X92710000Y-138430000D02*
X92710000Y-137101090D01*
X92710000Y-137101090D02*
X93771050Y-136040040D01*
X93771050Y-136040040D02*
X99815406Y-136040040D01*
X99815406Y-136040040D02*
X102422049Y-133433397D01*
X102422049Y-133433397D02*
X102422049Y-129352951D01*
X102422049Y-129352951D02*
X102425500Y-129349500D01*
X103720900Y-129349500D02*
X103720900Y-133944986D01*
X103720900Y-133944986D02*
X100522609Y-137143277D01*
X100522609Y-137143277D02*
X96536723Y-137143277D01*
X96536723Y-137143277D02*
X95250000Y-138430000D01*
X86711176Y-134047896D02*
X87011175Y-134347895D01*
X69803998Y-130146803D02*
X76495468Y-130146803D01*
X76495468Y-130146803D02*
X77078271Y-129564000D01*
X67597000Y-129564000D02*
X69221195Y-129564000D01*
X69221195Y-129564000D02*
X69803998Y-130146803D01*
X77078271Y-129564000D02*
X82227280Y-129564000D01*
X82227280Y-129564000D02*
X86711176Y-134047896D01*
X69164179Y-128064000D02*
X70239200Y-126988978D01*
X83854546Y-128064000D02*
X88087645Y-132297099D01*
X77711322Y-128064000D02*
X83854546Y-128064000D01*
X67597000Y-128064000D02*
X69164179Y-128064000D01*
X76636300Y-126988978D02*
X77711322Y-128064000D01*
X70239200Y-126988978D02*
X76636300Y-126988978D01*
X88087645Y-132297099D02*
X88387644Y-132597098D01*
X66235697Y-120925303D02*
X66235697Y-126754374D01*
X67597000Y-120564000D02*
X66597000Y-120564000D01*
X66235697Y-126754374D02*
X66235697Y-127239307D01*
X66597000Y-120564000D02*
X66235697Y-120925303D01*
X67597000Y-130064000D02*
X69084784Y-130064000D01*
X69084784Y-130064000D02*
X69617598Y-130596814D01*
X81315729Y-130064000D02*
X86098259Y-134846530D01*
X77214682Y-130064000D02*
X81315729Y-130064000D01*
X76681868Y-130596814D02*
X77214682Y-130064000D01*
X86098259Y-134846530D02*
X86398258Y-135146529D01*
X69617598Y-130596814D02*
X76681868Y-130596814D01*
X67597000Y-128564000D02*
X69300589Y-128564000D01*
X87459387Y-133231860D02*
X87759386Y-133531859D01*
X76449900Y-127438989D02*
X77574911Y-128564000D01*
X82791527Y-128564000D02*
X87459387Y-133231860D01*
X70425600Y-127438989D02*
X76449900Y-127438989D01*
X69300589Y-128564000D02*
X70425600Y-127438989D01*
X77574911Y-128564000D02*
X82791527Y-128564000D01*
X85350973Y-135660540D02*
X85650972Y-135960539D01*
X76868268Y-131046825D02*
X77351092Y-130564000D01*
X67597000Y-130564000D02*
X68948374Y-130564000D01*
X68948374Y-130564000D02*
X69431199Y-131046825D01*
X69431199Y-131046825D02*
X76868268Y-131046825D01*
X80254433Y-130564000D02*
X85350973Y-135660540D01*
X77351092Y-130564000D02*
X80254433Y-130564000D01*
X84807361Y-127564000D02*
X88700416Y-131457055D01*
X77847733Y-127564000D02*
X84807361Y-127564000D01*
X70052800Y-126538967D02*
X76822700Y-126538967D01*
X69027768Y-127564000D02*
X70052800Y-126538967D01*
X67597000Y-127564000D02*
X69027768Y-127564000D01*
X76822700Y-126538967D02*
X77847733Y-127564000D01*
X88700416Y-131457055D02*
X89000415Y-131757054D01*
X41997999Y-125373499D02*
X41148000Y-124523500D01*
X45293476Y-128668976D02*
X41997999Y-125373499D01*
X50716847Y-128564000D02*
X50611871Y-128668976D01*
X52197000Y-128564000D02*
X50716847Y-128564000D01*
X50611871Y-128668976D02*
X45293476Y-128668976D01*
X43155887Y-129071387D02*
X41997999Y-127913499D01*
X52197000Y-129064000D02*
X51197000Y-129064000D01*
X41997999Y-127913499D02*
X41148000Y-127063500D01*
X51197000Y-129064000D02*
X51189613Y-129071387D01*
X51189613Y-129071387D02*
X43155887Y-129071387D01*
X52197000Y-129564000D02*
X41187500Y-129564000D01*
X41187500Y-129564000D02*
X41148000Y-129603500D01*
X41997999Y-131293501D02*
X41148000Y-132143500D01*
X43247477Y-130044023D02*
X41997999Y-131293501D01*
X52197000Y-130064000D02*
X44131626Y-130064000D01*
X44131626Y-130064000D02*
X44111649Y-130044023D01*
X44111649Y-130044023D02*
X43247477Y-130044023D01*
X41844000Y-111268000D02*
X41844000Y-111318000D01*
X41844000Y-111318000D02*
X40849837Y-112312163D01*
X40849837Y-112312163D02*
X40186679Y-112312163D01*
X40186679Y-112312163D02*
X39941500Y-112557342D01*
X39941500Y-112557342D02*
X39941500Y-114173000D01*
X39941500Y-114173000D02*
X40322500Y-114554000D01*
X40322500Y-114554000D02*
X40322500Y-115570000D01*
X45847000Y-119951500D02*
X44165500Y-118270000D01*
X53587500Y-119564000D02*
X53975000Y-119951500D01*
X52197000Y-119564000D02*
X53587500Y-119564000D01*
X44165500Y-118270000D02*
X40322500Y-118270000D01*
X77268478Y-115835022D02*
X69162522Y-115835022D01*
X69162522Y-115835022D02*
X69151500Y-115824000D01*
X52197000Y-124064000D02*
X54180500Y-124064000D01*
X54180500Y-124064000D02*
X56896000Y-121348500D01*
X77268478Y-115835022D02*
X89560501Y-103542999D01*
X89560501Y-103542999D02*
X90360500Y-102743000D01*
X90360500Y-102743000D02*
X91616113Y-103998613D01*
X94640501Y-103542999D02*
X95440500Y-102743000D01*
X91616113Y-103998613D02*
X94184887Y-103998613D01*
X94184887Y-103998613D02*
X94640501Y-103542999D01*
X64397000Y-117364000D02*
X64397000Y-116364000D01*
X80200500Y-112259525D02*
X80200500Y-103874370D01*
X64397000Y-116364000D02*
X65562002Y-115198998D01*
X65562002Y-115198998D02*
X77261027Y-115198998D01*
X77261027Y-115198998D02*
X80200500Y-112259525D01*
X80200500Y-103874370D02*
X80200500Y-102743000D01*
X77660500Y-102743000D02*
X77660500Y-114071982D01*
X77660500Y-114071982D02*
X76983495Y-114748987D01*
X76983495Y-114748987D02*
X65375602Y-114748987D01*
X65375602Y-114748987D02*
X63897000Y-116227589D01*
X63897000Y-116227589D02*
X63897000Y-116364000D01*
X63897000Y-116364000D02*
X63897000Y-117364000D01*
X64470788Y-127577246D02*
X64469377Y-127578657D01*
X62397000Y-117364000D02*
X62397000Y-118364000D01*
X64470788Y-120437788D02*
X64470788Y-127577246D01*
X62397000Y-118364000D02*
X64470788Y-120437788D01*
X64469377Y-127578657D02*
X64469377Y-128063590D01*
X104140000Y-125793500D02*
X105016300Y-124917200D01*
X105016300Y-124917200D02*
X105016300Y-124015500D01*
X98805118Y-121891484D02*
X99229382Y-121891484D01*
X95850016Y-121891484D02*
X98805118Y-121891484D01*
X92177500Y-125564000D02*
X95850016Y-121891484D01*
X67597000Y-125564000D02*
X92177500Y-125564000D01*
X99230684Y-121891484D02*
X99229382Y-121891484D01*
X100469700Y-124015500D02*
X100469700Y-123130500D01*
X100469700Y-123130500D02*
X99230684Y-121891484D01*
X61397000Y-117364000D02*
X61397000Y-121317560D01*
X61397000Y-121317560D02*
X63525930Y-123446490D01*
X63525930Y-128438994D02*
X63584807Y-128497871D01*
X63525930Y-123446490D02*
X63525930Y-128438994D01*
X63584807Y-128497871D02*
X63927706Y-128840770D01*
X104381300Y-129349500D02*
X104381300Y-128464500D01*
X103996300Y-128079500D02*
X89090500Y-128079500D01*
X104381300Y-128464500D02*
X103996300Y-128079500D01*
X94633526Y-121266474D02*
X90836000Y-125064000D01*
X90836000Y-125064000D02*
X67597000Y-125064000D01*
X99885500Y-121266474D02*
X94633526Y-121266474D01*
X101091478Y-122048188D02*
X100667214Y-122048188D01*
X100667214Y-122048188D02*
X99885500Y-121266474D01*
X101104700Y-122061410D02*
X101091478Y-122048188D01*
X101104700Y-124015500D02*
X101104700Y-122061410D01*
X67597000Y-126064000D02*
X93231190Y-126064000D01*
X93231190Y-126064000D02*
X96412294Y-122882896D01*
X96412294Y-122882896D02*
X96712293Y-122582897D01*
X96712293Y-122582897D02*
X99261697Y-122582897D01*
X99261697Y-122582897D02*
X99809300Y-123130500D01*
X99809300Y-123130500D02*
X99809300Y-124015500D01*
X85517555Y-123064000D02*
X89046954Y-119534601D01*
X89046954Y-119534601D02*
X89046954Y-117010546D01*
X89046954Y-117010546D02*
X90427286Y-115630214D01*
X103247714Y-115630214D02*
X104800501Y-117183001D01*
X104800501Y-117183001D02*
X105600500Y-117983000D01*
X67597000Y-123064000D02*
X85517555Y-123064000D01*
X90427286Y-115630214D02*
X103247714Y-115630214D01*
X103720900Y-124015500D02*
X103720900Y-121573664D01*
X103720900Y-121573664D02*
X105600500Y-119694064D01*
X105600500Y-119694064D02*
X105600500Y-117983000D01*
X67597000Y-124564000D02*
X89939000Y-124564000D01*
X89939000Y-124564000D02*
X93726000Y-120777000D01*
X93726000Y-120777000D02*
X100644066Y-120777000D01*
X100644066Y-120777000D02*
X101061084Y-121194018D01*
X101765100Y-121736698D02*
X101222420Y-121194018D01*
X101222420Y-121194018D02*
X101061084Y-121194018D01*
X101765100Y-124015500D02*
X101765100Y-121736698D01*
X106435377Y-115111931D02*
X106859641Y-115111931D01*
X88223422Y-115111931D02*
X106435377Y-115111931D01*
X83592712Y-122564000D02*
X86545857Y-119610855D01*
X86545857Y-116789496D02*
X88223422Y-115111931D01*
X86545857Y-119610855D02*
X86545857Y-116789496D01*
X67597000Y-122564000D02*
X83592712Y-122564000D01*
X106859641Y-115536195D02*
X106859641Y-115111931D01*
X106859641Y-120652159D02*
X106859641Y-115536195D01*
X104381300Y-124015500D02*
X104381300Y-123130500D01*
X104381300Y-123130500D02*
X106859641Y-120652159D01*
X92453775Y-116080225D02*
X101157725Y-116080225D01*
X67597000Y-123564000D02*
X87686408Y-123564000D01*
X87686408Y-123564000D02*
X91624303Y-119626105D01*
X91624303Y-119626105D02*
X91624303Y-116909697D01*
X91624303Y-116909697D02*
X92453775Y-116080225D01*
X101157725Y-116080225D02*
X102260501Y-117183001D01*
X102260501Y-117183001D02*
X103060500Y-117983000D01*
X103060500Y-124015500D02*
X103060500Y-123130500D01*
X103060500Y-123130500D02*
X103060500Y-117983000D01*
X94125400Y-119397346D02*
X94125400Y-117633098D01*
X89458746Y-124064000D02*
X94125400Y-119397346D01*
X67597000Y-124064000D02*
X89458746Y-124064000D01*
X94125400Y-117633098D02*
X95228262Y-116530236D01*
X95228262Y-116530236D02*
X99067736Y-116530236D01*
X99067736Y-116530236D02*
X99720501Y-117183001D01*
X99720501Y-117183001D02*
X100520500Y-117983000D01*
X100520500Y-119769535D02*
X100520500Y-117983000D01*
X102425500Y-124015500D02*
X102425500Y-121674535D01*
X102425500Y-121674535D02*
X100520500Y-119769535D01*
D35*
X110998000Y-136969500D02*
X110998000Y-129603500D01*
X52197000Y-127564000D02*
X50661881Y-127564000D01*
X50661881Y-127564000D02*
X50386970Y-127838911D01*
X47511914Y-127000000D02*
X46926500Y-127000000D01*
X50386970Y-127838911D02*
X48350825Y-127838911D01*
X48350825Y-127838911D02*
X47511914Y-127000000D01*
X52197000Y-127064000D02*
X49467000Y-127064000D01*
X49467000Y-127064000D02*
X49403000Y-127000000D01*
X52197000Y-126564000D02*
X51294600Y-126564000D01*
X46863000Y-125429900D02*
X46863000Y-124777500D01*
X51294600Y-126564000D02*
X50724253Y-125993653D01*
X50724253Y-125993653D02*
X47426753Y-125993653D01*
X47426753Y-125993653D02*
X46863000Y-125429900D01*
X52197000Y-126064000D02*
X51294600Y-126064000D01*
X50671956Y-125031500D02*
X49403000Y-125031500D01*
X51294600Y-126064000D02*
X50863500Y-125632900D01*
X50863500Y-125632900D02*
X50863500Y-125223044D01*
X50863500Y-125223044D02*
X50671956Y-125031500D01*
D36*
G36*
X114173000Y-155448000D02*
X36322000Y-155448000D01*
X36322000Y-146388500D01*
X37350560Y-146388500D01*
X37350560Y-152188500D01*
X37394838Y-152423817D01*
X37533910Y-152639941D01*
X37746110Y-152784931D01*
X37998000Y-152835940D01*
X44398000Y-152835940D01*
X44633317Y-152791662D01*
X44849441Y-152652590D01*
X44994431Y-152440390D01*
X45045440Y-152188500D01*
X45045440Y-151730250D01*
X45763000Y-151730250D01*
X45763000Y-152294810D01*
X45859673Y-152528199D01*
X46038302Y-152706827D01*
X46271691Y-152803500D01*
X47336250Y-152803500D01*
X47495000Y-152644750D01*
X47495000Y-151571500D01*
X47501000Y-151571500D01*
X47501000Y-152644750D01*
X47659750Y-152803500D01*
X48724309Y-152803500D01*
X48957698Y-152706827D01*
X49136327Y-152528199D01*
X49233000Y-152294810D01*
X49233000Y-151730250D01*
X49074250Y-151571500D01*
X47501000Y-151571500D01*
X47495000Y-151571500D01*
X45921750Y-151571500D01*
X45763000Y-151730250D01*
X45045440Y-151730250D01*
X45045440Y-150173500D01*
X45826808Y-150173500D01*
X45933910Y-150339941D01*
X46055527Y-150423038D01*
X46038302Y-150430173D01*
X45859673Y-150608801D01*
X45763000Y-150842190D01*
X45763000Y-151406750D01*
X45921750Y-151565500D01*
X47495000Y-151565500D01*
X47495000Y-151545500D01*
X47501000Y-151545500D01*
X47501000Y-151565500D01*
X49074250Y-151565500D01*
X49233000Y-151406750D01*
X49233000Y-150842190D01*
X49136327Y-150608801D01*
X48957698Y-150430173D01*
X48940162Y-150422909D01*
X49049441Y-150352590D01*
X49171808Y-150173500D01*
X49566221Y-150173500D01*
X49689410Y-150364941D01*
X49901610Y-150509931D01*
X50153500Y-150560940D01*
X51653500Y-150560940D01*
X51888817Y-150516662D01*
X52104941Y-150377590D01*
X52151469Y-150309494D01*
X52293802Y-150451827D01*
X52527191Y-150548500D01*
X53241750Y-150548500D01*
X53400500Y-150389750D01*
X53400500Y-149291500D01*
X53406500Y-149291500D01*
X53406500Y-150389750D01*
X53565250Y-150548500D01*
X54279809Y-150548500D01*
X54513198Y-150451827D01*
X54691827Y-150273199D01*
X54788500Y-150039810D01*
X54788500Y-149450250D01*
X54629750Y-149291500D01*
X53406500Y-149291500D01*
X53400500Y-149291500D01*
X53380500Y-149291500D01*
X53380500Y-149285500D01*
X53400500Y-149285500D01*
X53400500Y-149265500D01*
X53406500Y-149265500D01*
X53406500Y-149285500D01*
X54629750Y-149285500D01*
X54788500Y-149126750D01*
X54788500Y-148537190D01*
X54691827Y-148303801D01*
X54545275Y-148157250D01*
X54715327Y-147987199D01*
X54812000Y-147753810D01*
X54812000Y-147366895D01*
X106978323Y-147366895D01*
X107181804Y-147915072D01*
X107579574Y-148343653D01*
X108111076Y-148587390D01*
X108220605Y-148609177D01*
X108455000Y-148469347D01*
X108455000Y-147132500D01*
X107118153Y-147132500D01*
X106978323Y-147366895D01*
X54812000Y-147366895D01*
X54812000Y-147164250D01*
X54653250Y-147005500D01*
X53430000Y-147005500D01*
X53430000Y-147025500D01*
X53424000Y-147025500D01*
X53424000Y-147005500D01*
X53404000Y-147005500D01*
X53404000Y-146999500D01*
X53424000Y-146999500D01*
X53424000Y-145901250D01*
X53430000Y-145901250D01*
X53430000Y-146999500D01*
X54653250Y-146999500D01*
X54812000Y-146840750D01*
X54812000Y-146251190D01*
X54715327Y-146017801D01*
X54536698Y-145839173D01*
X54303309Y-145742500D01*
X53588750Y-145742500D01*
X53430000Y-145901250D01*
X53424000Y-145901250D01*
X53265250Y-145742500D01*
X52550691Y-145742500D01*
X52317302Y-145839173D01*
X52176064Y-145980410D01*
X52141090Y-145926059D01*
X51928890Y-145781069D01*
X51677000Y-145730060D01*
X50177000Y-145730060D01*
X49941683Y-145774338D01*
X49725559Y-145913410D01*
X49586110Y-146117500D01*
X49165331Y-146117500D01*
X49062090Y-145957059D01*
X48849890Y-145812069D01*
X48598000Y-145761060D01*
X48413158Y-145761060D01*
X48475730Y-145610370D01*
X48476069Y-145221337D01*
X48327507Y-144861788D01*
X48052659Y-144586460D01*
X47827577Y-144492998D01*
X47099921Y-143765342D01*
X72675475Y-143765342D01*
X72824037Y-144124891D01*
X73098885Y-144400219D01*
X73458174Y-144549409D01*
X73847207Y-144549748D01*
X74206756Y-144401186D01*
X74482084Y-144126338D01*
X74631274Y-143767049D01*
X74631613Y-143378016D01*
X74483051Y-143018467D01*
X74208203Y-142743139D01*
X73848914Y-142593949D01*
X73459881Y-142593610D01*
X73100332Y-142742172D01*
X72825004Y-143017020D01*
X72675814Y-143376309D01*
X72675475Y-143765342D01*
X47099921Y-143765342D01*
X45670654Y-142336075D01*
X45751441Y-142284090D01*
X45896431Y-142071890D01*
X45910086Y-142004459D01*
X45939946Y-142049147D01*
X46421715Y-142371054D01*
X46990000Y-142484093D01*
X47558285Y-142371054D01*
X48040054Y-142049147D01*
X48260000Y-141719974D01*
X48479946Y-142049147D01*
X48961715Y-142371054D01*
X49530000Y-142484093D01*
X50098285Y-142371054D01*
X50580054Y-142049147D01*
X50800000Y-141719974D01*
X51019946Y-142049147D01*
X51501715Y-142371054D01*
X52070000Y-142484093D01*
X52638285Y-142371054D01*
X53120054Y-142049147D01*
X53340000Y-141719974D01*
X53559946Y-142049147D01*
X54041715Y-142371054D01*
X54610000Y-142484093D01*
X55178285Y-142371054D01*
X55660054Y-142049147D01*
X55880000Y-141719974D01*
X56099946Y-142049147D01*
X56581715Y-142371054D01*
X57150000Y-142484093D01*
X57718285Y-142371054D01*
X58200054Y-142049147D01*
X58420000Y-141719974D01*
X58639946Y-142049147D01*
X59121715Y-142371054D01*
X59690000Y-142484093D01*
X60258285Y-142371054D01*
X60740054Y-142049147D01*
X60960000Y-141719974D01*
X61179946Y-142049147D01*
X61661715Y-142371054D01*
X62230000Y-142484093D01*
X62798285Y-142371054D01*
X63280054Y-142049147D01*
X63500000Y-141719974D01*
X63719946Y-142049147D01*
X64201715Y-142371054D01*
X64770000Y-142484093D01*
X65338285Y-142371054D01*
X65820054Y-142049147D01*
X66040000Y-141719974D01*
X66259946Y-142049147D01*
X66741715Y-142371054D01*
X67310000Y-142484093D01*
X67878285Y-142371054D01*
X68360054Y-142049147D01*
X68576671Y-141724956D01*
X68585399Y-141748467D01*
X68979567Y-142173152D01*
X69506251Y-142414668D01*
X69614732Y-142436245D01*
X69847000Y-142296247D01*
X69847000Y-140973000D01*
X69853000Y-140973000D01*
X69853000Y-142296247D01*
X70085268Y-142436245D01*
X70193749Y-142414668D01*
X70720433Y-142173152D01*
X71114601Y-141748467D01*
X71120000Y-141733923D01*
X71125399Y-141748467D01*
X71519567Y-142173152D01*
X72046251Y-142414668D01*
X72154732Y-142436245D01*
X72387000Y-142296247D01*
X72387000Y-140973000D01*
X72393000Y-140973000D01*
X72393000Y-142296247D01*
X72625268Y-142436245D01*
X72733749Y-142414668D01*
X73260433Y-142173152D01*
X73654601Y-141748467D01*
X73660000Y-141733923D01*
X73665399Y-141748467D01*
X74059567Y-142173152D01*
X74586251Y-142414668D01*
X74694732Y-142436245D01*
X74927000Y-142296247D01*
X74927000Y-140973000D01*
X74933000Y-140973000D01*
X74933000Y-142296247D01*
X75165268Y-142436245D01*
X75273749Y-142414668D01*
X75800433Y-142173152D01*
X76194601Y-141748467D01*
X76200000Y-141733923D01*
X76205399Y-141748467D01*
X76599567Y-142173152D01*
X77126251Y-142414668D01*
X77234732Y-142436245D01*
X77467000Y-142296247D01*
X77467000Y-140973000D01*
X74933000Y-140973000D01*
X74927000Y-140973000D01*
X72393000Y-140973000D01*
X72387000Y-140973000D01*
X69853000Y-140973000D01*
X69847000Y-140973000D01*
X69827000Y-140973000D01*
X69827000Y-140967000D01*
X69847000Y-140967000D01*
X69847000Y-140947000D01*
X69853000Y-140947000D01*
X69853000Y-140967000D01*
X72387000Y-140967000D01*
X72387000Y-140947000D01*
X72393000Y-140947000D01*
X72393000Y-140967000D01*
X74927000Y-140967000D01*
X74927000Y-140947000D01*
X74933000Y-140947000D01*
X74933000Y-140967000D01*
X77467000Y-140967000D01*
X77467000Y-140947000D01*
X77473000Y-140947000D01*
X77473000Y-140967000D01*
X77493000Y-140967000D01*
X77493000Y-140973000D01*
X77473000Y-140973000D01*
X77473000Y-142296247D01*
X77705268Y-142436245D01*
X77813749Y-142414668D01*
X78340433Y-142173152D01*
X78734601Y-141748467D01*
X78743329Y-141724956D01*
X78959946Y-142049147D01*
X79441715Y-142371054D01*
X80010000Y-142484093D01*
X80578285Y-142371054D01*
X81060054Y-142049147D01*
X81280000Y-141719974D01*
X81499946Y-142049147D01*
X81981715Y-142371054D01*
X82550000Y-142484093D01*
X83118285Y-142371054D01*
X83600054Y-142049147D01*
X83820000Y-141719974D01*
X84039946Y-142049147D01*
X84521715Y-142371054D01*
X85090000Y-142484093D01*
X85658285Y-142371054D01*
X86140054Y-142049147D01*
X86360000Y-141719974D01*
X86579946Y-142049147D01*
X87061715Y-142371054D01*
X87630000Y-142484093D01*
X88198285Y-142371054D01*
X88680054Y-142049147D01*
X88900000Y-141719974D01*
X89119946Y-142049147D01*
X89601715Y-142371054D01*
X90170000Y-142484093D01*
X90738285Y-142371054D01*
X91220054Y-142049147D01*
X91440000Y-141719974D01*
X91659946Y-142049147D01*
X92141715Y-142371054D01*
X92710000Y-142484093D01*
X93278285Y-142371054D01*
X93760054Y-142049147D01*
X93980000Y-141719974D01*
X94199946Y-142049147D01*
X94681715Y-142371054D01*
X95250000Y-142484093D01*
X95818285Y-142371054D01*
X96300054Y-142049147D01*
X96520000Y-141719974D01*
X96739946Y-142049147D01*
X97221715Y-142371054D01*
X97790000Y-142484093D01*
X98358285Y-142371054D01*
X98840054Y-142049147D01*
X99161961Y-141567378D01*
X99275000Y-140999093D01*
X99275000Y-140940907D01*
X99161961Y-140372622D01*
X98840054Y-139890853D01*
X98554422Y-139700000D01*
X98840054Y-139509147D01*
X99161961Y-139027378D01*
X99275000Y-138459093D01*
X99275000Y-138400907D01*
X99176015Y-137903277D01*
X100522609Y-137903277D01*
X100813448Y-137845425D01*
X101060010Y-137680678D01*
X104258302Y-134482387D01*
X104423048Y-134235825D01*
X104480900Y-133944986D01*
X104480900Y-130631940D01*
X104584500Y-130631940D01*
X104702996Y-130609643D01*
X104813100Y-130631940D01*
X105219500Y-130631940D01*
X105454817Y-130587662D01*
X105670941Y-130448590D01*
X105815931Y-130236390D01*
X105866940Y-129984500D01*
X105866940Y-128714500D01*
X105862848Y-128692754D01*
X105888728Y-128666874D01*
X105896338Y-128707317D01*
X106035410Y-128923441D01*
X106247610Y-129068431D01*
X106499500Y-129119440D01*
X107749500Y-129119440D01*
X107984817Y-129075162D01*
X108200941Y-128936090D01*
X108345931Y-128723890D01*
X108369602Y-128607000D01*
X108939662Y-128607000D01*
X109271437Y-128744765D01*
X109660470Y-128745104D01*
X109891873Y-128649491D01*
X109850560Y-128853500D01*
X109850560Y-130353500D01*
X109894838Y-130588817D01*
X110033910Y-130804941D01*
X110246110Y-130949931D01*
X110286800Y-130958171D01*
X110286800Y-135647631D01*
X109938330Y-135880471D01*
X109929195Y-135894142D01*
X109924762Y-135870583D01*
X109785690Y-135654459D01*
X109573490Y-135509469D01*
X109321600Y-135458460D01*
X107594400Y-135458460D01*
X107359083Y-135502738D01*
X107142959Y-135641810D01*
X106997969Y-135854010D01*
X106946960Y-136105900D01*
X106946960Y-137833100D01*
X106991238Y-138068417D01*
X107130310Y-138284541D01*
X107342510Y-138429531D01*
X107386345Y-138438408D01*
X107073474Y-138906652D01*
X106959400Y-139480141D01*
X106959400Y-139538859D01*
X107073474Y-140112348D01*
X107398330Y-140598529D01*
X107669172Y-140779500D01*
X107398330Y-140960471D01*
X107073474Y-141446652D01*
X106959400Y-142020141D01*
X106959400Y-142078859D01*
X107073474Y-142652348D01*
X107398330Y-143138529D01*
X107669172Y-143319500D01*
X107398330Y-143500471D01*
X107073474Y-143986652D01*
X106959400Y-144560141D01*
X106959400Y-144618859D01*
X107073474Y-145192348D01*
X107398330Y-145678529D01*
X107682271Y-145868252D01*
X107579574Y-145915347D01*
X107181804Y-146343928D01*
X106978323Y-146892105D01*
X107118153Y-147126500D01*
X108455000Y-147126500D01*
X108455000Y-147106500D01*
X108461000Y-147106500D01*
X108461000Y-147126500D01*
X108481000Y-147126500D01*
X108481000Y-147132500D01*
X108461000Y-147132500D01*
X108461000Y-148469347D01*
X108695395Y-148609177D01*
X108804924Y-148587390D01*
X109336426Y-148343653D01*
X109734196Y-147915072D01*
X109734685Y-147913754D01*
X109938330Y-148218529D01*
X110424511Y-148543385D01*
X110998000Y-148657459D01*
X111571489Y-148543385D01*
X112057670Y-148218529D01*
X112382526Y-147732348D01*
X112496600Y-147158859D01*
X112496600Y-147100141D01*
X112382526Y-146526652D01*
X112057670Y-146040471D01*
X111786828Y-145859500D01*
X112057670Y-145678529D01*
X112382526Y-145192348D01*
X112496600Y-144618859D01*
X112496600Y-144560141D01*
X112382526Y-143986652D01*
X112057670Y-143500471D01*
X111786828Y-143319500D01*
X112057670Y-143138529D01*
X112382526Y-142652348D01*
X112496600Y-142078859D01*
X112496600Y-142020141D01*
X112382526Y-141446652D01*
X112057670Y-140960471D01*
X111773729Y-140770748D01*
X111876426Y-140723653D01*
X112274196Y-140295072D01*
X112477677Y-139746895D01*
X112337847Y-139512500D01*
X111001000Y-139512500D01*
X111001000Y-139532500D01*
X110995000Y-139532500D01*
X110995000Y-139512500D01*
X110975000Y-139512500D01*
X110975000Y-139506500D01*
X110995000Y-139506500D01*
X110995000Y-139486500D01*
X111001000Y-139486500D01*
X111001000Y-139506500D01*
X112337847Y-139506500D01*
X112477677Y-139272105D01*
X112274196Y-138723928D01*
X111876426Y-138295347D01*
X111773729Y-138248252D01*
X112057670Y-138058529D01*
X112382526Y-137572348D01*
X112496600Y-136998859D01*
X112496600Y-136940141D01*
X112382526Y-136366652D01*
X112057670Y-135880471D01*
X111709200Y-135647631D01*
X111709200Y-130961200D01*
X111733317Y-130956662D01*
X111949441Y-130817590D01*
X112094431Y-130605390D01*
X112145440Y-130353500D01*
X112145440Y-128853500D01*
X112101162Y-128618183D01*
X111962090Y-128402059D01*
X111749890Y-128257069D01*
X111498000Y-128206060D01*
X110498000Y-128206060D01*
X110330256Y-128237623D01*
X110444537Y-127962405D01*
X110444876Y-127573372D01*
X110296314Y-127213823D01*
X110021466Y-126938495D01*
X109662177Y-126789305D01*
X109273144Y-126788966D01*
X109156892Y-126837000D01*
X108371538Y-126837000D01*
X108352662Y-126736683D01*
X108213590Y-126520559D01*
X108145494Y-126474031D01*
X108287827Y-126331698D01*
X108384500Y-126098309D01*
X108384500Y-125383750D01*
X108225750Y-125225000D01*
X107127500Y-125225000D01*
X107127500Y-125245000D01*
X107121500Y-125245000D01*
X107121500Y-125225000D01*
X106023250Y-125225000D01*
X105864500Y-125383750D01*
X105864500Y-126098309D01*
X105961173Y-126331698D01*
X106102410Y-126472936D01*
X106048059Y-126507910D01*
X105903069Y-126720110D01*
X105854085Y-126962000D01*
X105758800Y-126962000D01*
X105467961Y-127019852D01*
X105221399Y-127184599D01*
X104698800Y-127707198D01*
X104533701Y-127542099D01*
X104287139Y-127377352D01*
X103996300Y-127319500D01*
X89713580Y-127319500D01*
X89645159Y-127250960D01*
X89285870Y-127101770D01*
X88896837Y-127101431D01*
X88537288Y-127249993D01*
X88261960Y-127524841D01*
X88112770Y-127884130D01*
X88112431Y-128273163D01*
X88260993Y-128632712D01*
X88535841Y-128908040D01*
X88895130Y-129057230D01*
X89284163Y-129057569D01*
X89643712Y-128909007D01*
X89713340Y-128839500D01*
X98323660Y-128839500D01*
X98323660Y-129984500D01*
X98367938Y-130219817D01*
X98414300Y-130291866D01*
X98414300Y-131939252D01*
X97902324Y-132451228D01*
X90308772Y-132451228D01*
X90017932Y-132509080D01*
X89771371Y-132673827D01*
X88737133Y-133708065D01*
X88737305Y-133510710D01*
X88940856Y-133426605D01*
X89216184Y-133151757D01*
X89365374Y-132792468D01*
X89365486Y-132664299D01*
X89553627Y-132586561D01*
X89828955Y-132311713D01*
X89978145Y-131952424D01*
X89978484Y-131563391D01*
X89829922Y-131203842D01*
X89555074Y-130928514D01*
X89195785Y-130779324D01*
X89097401Y-130779238D01*
X85344762Y-127026599D01*
X85098200Y-126861852D01*
X84907907Y-126824000D01*
X93231190Y-126824000D01*
X93522029Y-126766148D01*
X93768591Y-126601401D01*
X96809110Y-123560882D01*
X96905956Y-123560966D01*
X97265505Y-123412404D01*
X97335133Y-123342897D01*
X98336100Y-123342897D01*
X98336100Y-123853750D01*
X98494850Y-124012500D01*
X98958660Y-124012500D01*
X98958660Y-124018500D01*
X98494850Y-124018500D01*
X98336100Y-124177250D01*
X98336100Y-124776810D01*
X98432773Y-125010199D01*
X98611402Y-125188827D01*
X98844791Y-125285500D01*
X99012550Y-125285500D01*
X99171300Y-125126750D01*
X99171300Y-125121954D01*
X99177300Y-125126054D01*
X99177300Y-125126750D01*
X99336050Y-125285500D01*
X99503809Y-125285500D01*
X99517226Y-125279943D01*
X99606100Y-125297940D01*
X100012500Y-125297940D01*
X100144162Y-125273166D01*
X100266500Y-125297940D01*
X100672900Y-125297940D01*
X100791396Y-125275643D01*
X100901500Y-125297940D01*
X101307900Y-125297940D01*
X101439562Y-125273166D01*
X101561900Y-125297940D01*
X101968300Y-125297940D01*
X102099962Y-125273166D01*
X102222300Y-125297940D01*
X102628700Y-125297940D01*
X102747196Y-125275643D01*
X102857300Y-125297940D01*
X103263700Y-125297940D01*
X103288888Y-125293201D01*
X103162270Y-125598130D01*
X103161931Y-125987163D01*
X103310493Y-126346712D01*
X103585341Y-126622040D01*
X103944630Y-126771230D01*
X104333663Y-126771569D01*
X104693212Y-126623007D01*
X104968540Y-126348159D01*
X105117730Y-125988870D01*
X105117816Y-125890486D01*
X105553701Y-125454601D01*
X105718448Y-125208040D01*
X105764180Y-124978130D01*
X105815931Y-124902390D01*
X105864500Y-124662549D01*
X105864500Y-125060250D01*
X106023250Y-125219000D01*
X107121500Y-125219000D01*
X107121500Y-123995750D01*
X107127500Y-123995750D01*
X107127500Y-125219000D01*
X108225750Y-125219000D01*
X108384500Y-125060250D01*
X108384500Y-124345691D01*
X108287827Y-124112302D01*
X108109199Y-123933673D01*
X107875810Y-123837000D01*
X107286250Y-123837000D01*
X107127500Y-123995750D01*
X107121500Y-123995750D01*
X106962750Y-123837000D01*
X106373190Y-123837000D01*
X106139801Y-123933673D01*
X105961173Y-124112302D01*
X105866940Y-124339800D01*
X105866940Y-123380500D01*
X105822662Y-123145183D01*
X105683590Y-122929059D01*
X105668116Y-122918486D01*
X107397042Y-121189560D01*
X107561789Y-120942999D01*
X107581569Y-120843559D01*
X107619641Y-120652159D01*
X107619641Y-119292497D01*
X107808424Y-119379049D01*
X107913054Y-119399861D01*
X108137500Y-119259246D01*
X108137500Y-117986000D01*
X108143500Y-117986000D01*
X108143500Y-119259246D01*
X108367946Y-119399861D01*
X108472576Y-119379049D01*
X108981543Y-119145701D01*
X109362469Y-118735342D01*
X109557361Y-118210446D01*
X109416747Y-117986000D01*
X108143500Y-117986000D01*
X108137500Y-117986000D01*
X108117500Y-117986000D01*
X108117500Y-117980000D01*
X108137500Y-117980000D01*
X108137500Y-116706754D01*
X108143500Y-116706754D01*
X108143500Y-117980000D01*
X109416747Y-117980000D01*
X109557361Y-117755554D01*
X109362469Y-117230658D01*
X108981543Y-116820299D01*
X108472576Y-116586951D01*
X108367946Y-116566139D01*
X108143500Y-116706754D01*
X108137500Y-116706754D01*
X107913054Y-116566139D01*
X107808424Y-116586951D01*
X107619641Y-116673503D01*
X107619641Y-115735011D01*
X107688181Y-115666590D01*
X107837371Y-115307301D01*
X107837710Y-114918268D01*
X107689148Y-114558719D01*
X107414300Y-114283391D01*
X107055011Y-114134201D01*
X106665978Y-114133862D01*
X106306429Y-114282424D01*
X106236801Y-114351931D01*
X88223422Y-114351931D01*
X87932582Y-114409783D01*
X87686021Y-114574530D01*
X86008456Y-116252095D01*
X85843709Y-116498657D01*
X85818211Y-116626844D01*
X85280500Y-116519887D01*
X84731349Y-116629120D01*
X84265802Y-116940189D01*
X84010500Y-117322275D01*
X83755198Y-116940189D01*
X83289651Y-116629120D01*
X82740500Y-116519887D01*
X82191349Y-116629120D01*
X81725802Y-116940189D01*
X81470500Y-117322275D01*
X81215198Y-116940189D01*
X80749651Y-116629120D01*
X80200500Y-116519887D01*
X79651349Y-116629120D01*
X79185802Y-116940189D01*
X78930500Y-117322275D01*
X78675198Y-116940189D01*
X78209651Y-116629120D01*
X77660500Y-116519887D01*
X77111349Y-116629120D01*
X76645802Y-116940189D01*
X76549399Y-117084465D01*
X76523662Y-116947683D01*
X76384590Y-116731559D01*
X76184761Y-116595022D01*
X77268478Y-116595022D01*
X77559317Y-116537170D01*
X77805879Y-116372423D01*
X90036614Y-104141688D01*
X90360500Y-104206113D01*
X90684386Y-104141688D01*
X91078712Y-104536014D01*
X91325274Y-104700761D01*
X91616113Y-104758613D01*
X94184887Y-104758613D01*
X94475726Y-104700761D01*
X94722288Y-104536014D01*
X95116615Y-104141688D01*
X95440500Y-104206113D01*
X95989651Y-104096880D01*
X96455198Y-103785811D01*
X96710500Y-103403725D01*
X96965802Y-103785811D01*
X97431349Y-104096880D01*
X97980500Y-104206113D01*
X98529651Y-104096880D01*
X98995198Y-103785811D01*
X99250500Y-103403725D01*
X99505802Y-103785811D01*
X99971349Y-104096880D01*
X100520500Y-104206113D01*
X101069651Y-104096880D01*
X101535198Y-103785811D01*
X101790500Y-103403725D01*
X102045802Y-103785811D01*
X102511349Y-104096880D01*
X103060500Y-104206113D01*
X103609651Y-104096880D01*
X104075198Y-103785811D01*
X104330500Y-103403725D01*
X104585802Y-103785811D01*
X105051349Y-104096880D01*
X105600500Y-104206113D01*
X106149651Y-104096880D01*
X106615198Y-103785811D01*
X106870500Y-103403725D01*
X107125802Y-103785811D01*
X107591349Y-104096880D01*
X108140500Y-104206113D01*
X108689651Y-104096880D01*
X109155198Y-103785811D01*
X109466267Y-103320264D01*
X109575500Y-102771113D01*
X109575500Y-102714887D01*
X109466267Y-102165736D01*
X109155198Y-101700189D01*
X108689651Y-101389120D01*
X108140500Y-101279887D01*
X107591349Y-101389120D01*
X107125802Y-101700189D01*
X106870500Y-102082275D01*
X106615198Y-101700189D01*
X106149651Y-101389120D01*
X105600500Y-101279887D01*
X105051349Y-101389120D01*
X104585802Y-101700189D01*
X104330500Y-102082275D01*
X104075198Y-101700189D01*
X103609651Y-101389120D01*
X103060500Y-101279887D01*
X102511349Y-101389120D01*
X102045802Y-101700189D01*
X101790500Y-102082275D01*
X101535198Y-101700189D01*
X101069651Y-101389120D01*
X100520500Y-101279887D01*
X99971349Y-101389120D01*
X99505802Y-101700189D01*
X99250500Y-102082275D01*
X98995198Y-101700189D01*
X98529651Y-101389120D01*
X97980500Y-101279887D01*
X97431349Y-101389120D01*
X96965802Y-101700189D01*
X96710500Y-102082275D01*
X96455198Y-101700189D01*
X95989651Y-101389120D01*
X95440500Y-101279887D01*
X94891349Y-101389120D01*
X94425802Y-101700189D01*
X94170500Y-102082275D01*
X93915198Y-101700189D01*
X93449651Y-101389120D01*
X92900500Y-101279887D01*
X92351349Y-101389120D01*
X91885802Y-101700189D01*
X91630500Y-102082275D01*
X91375198Y-101700189D01*
X90909651Y-101389120D01*
X90360500Y-101279887D01*
X89811349Y-101389120D01*
X89345802Y-101700189D01*
X89090500Y-102082275D01*
X88835198Y-101700189D01*
X88369651Y-101389120D01*
X87820500Y-101279887D01*
X87271349Y-101389120D01*
X86805802Y-101700189D01*
X86550500Y-102082275D01*
X86295198Y-101700189D01*
X85829651Y-101389120D01*
X85280500Y-101279887D01*
X84731349Y-101389120D01*
X84265802Y-101700189D01*
X84010500Y-102082275D01*
X83755198Y-101700189D01*
X83289651Y-101389120D01*
X82740500Y-101279887D01*
X82191349Y-101389120D01*
X81725802Y-101700189D01*
X81470500Y-102082275D01*
X81215198Y-101700189D01*
X80749651Y-101389120D01*
X80200500Y-101279887D01*
X79651349Y-101389120D01*
X79185802Y-101700189D01*
X78930500Y-102082275D01*
X78675198Y-101700189D01*
X78209651Y-101389120D01*
X77660500Y-101279887D01*
X77111349Y-101389120D01*
X76645802Y-101700189D01*
X76390500Y-102082275D01*
X76135198Y-101700189D01*
X75669651Y-101389120D01*
X75120500Y-101279887D01*
X74571349Y-101389120D01*
X74105802Y-101700189D01*
X73794733Y-102165736D01*
X73685500Y-102714887D01*
X73685500Y-102771113D01*
X73794733Y-103320264D01*
X74105802Y-103785811D01*
X74235500Y-103872473D01*
X74235500Y-104090921D01*
X74205920Y-104120500D01*
X73256038Y-104120500D01*
X73237162Y-104020183D01*
X73098090Y-103804059D01*
X72885890Y-103659069D01*
X72634000Y-103608060D01*
X71384000Y-103608060D01*
X71148683Y-103652338D01*
X70932559Y-103791410D01*
X70787569Y-104003610D01*
X70736560Y-104255500D01*
X70736560Y-105755500D01*
X70780838Y-105990817D01*
X70919910Y-106206941D01*
X70988006Y-106253469D01*
X70845673Y-106395802D01*
X70749000Y-106629191D01*
X70749000Y-107343750D01*
X70907750Y-107502500D01*
X72006000Y-107502500D01*
X72006000Y-107482500D01*
X72012000Y-107482500D01*
X72012000Y-107502500D01*
X73110250Y-107502500D01*
X73269000Y-107343750D01*
X73269000Y-106629191D01*
X73172327Y-106395802D01*
X73031090Y-106254564D01*
X73085441Y-106219590D01*
X73230431Y-106007390D01*
X73254102Y-105890500D01*
X74572495Y-105890500D01*
X74572500Y-105890501D01*
X74854984Y-105834310D01*
X74911175Y-105823133D01*
X75198290Y-105631290D01*
X75746287Y-105083292D01*
X75746290Y-105083290D01*
X75938133Y-104796175D01*
X75957112Y-104700761D01*
X76005501Y-104457500D01*
X76005500Y-104457495D01*
X76005500Y-103872473D01*
X76135198Y-103785811D01*
X76390500Y-103403725D01*
X76645802Y-103785811D01*
X76900500Y-103955995D01*
X76900500Y-113757180D01*
X76668693Y-113988987D01*
X67743315Y-113988987D01*
X69721901Y-112010401D01*
X69886648Y-111763839D01*
X69944500Y-111473000D01*
X69944500Y-108801058D01*
X70169817Y-108758662D01*
X70385941Y-108619590D01*
X70530931Y-108407390D01*
X70581940Y-108155500D01*
X70581940Y-107667250D01*
X70749000Y-107667250D01*
X70749000Y-108381809D01*
X70845673Y-108615198D01*
X71024301Y-108793827D01*
X71257690Y-108890500D01*
X71847250Y-108890500D01*
X72006000Y-108731750D01*
X72006000Y-107508500D01*
X72012000Y-107508500D01*
X72012000Y-108731750D01*
X72170750Y-108890500D01*
X72760310Y-108890500D01*
X72993699Y-108793827D01*
X73172327Y-108615198D01*
X73269000Y-108381809D01*
X73269000Y-107667250D01*
X73110250Y-107508500D01*
X72012000Y-107508500D01*
X72006000Y-107508500D01*
X70907750Y-107508500D01*
X70749000Y-107667250D01*
X70581940Y-107667250D01*
X70581940Y-106855500D01*
X70537662Y-106620183D01*
X70432232Y-106456341D01*
X70530931Y-106311890D01*
X70581940Y-106060000D01*
X70581940Y-104760000D01*
X70537662Y-104524683D01*
X70447025Y-104383829D01*
X70561431Y-104216390D01*
X70612440Y-103964500D01*
X70612440Y-102664500D01*
X70568162Y-102429183D01*
X70429090Y-102213059D01*
X70216890Y-102068069D01*
X69965000Y-102017060D01*
X68465000Y-102017060D01*
X68229683Y-102061338D01*
X68013559Y-102200410D01*
X67868569Y-102412610D01*
X67865919Y-102425697D01*
X67729090Y-102213059D01*
X67516890Y-102068069D01*
X67265000Y-102017060D01*
X65765000Y-102017060D01*
X65529683Y-102061338D01*
X65313559Y-102200410D01*
X65168569Y-102412610D01*
X65139836Y-102554500D01*
X63624302Y-102554500D01*
X62177031Y-101107229D01*
X61930469Y-100942482D01*
X61639630Y-100884630D01*
X56216370Y-100884630D01*
X55925531Y-100942482D01*
X55678969Y-101107229D01*
X55279099Y-101507099D01*
X55219707Y-101595986D01*
X55149348Y-101548974D01*
X54575859Y-101434900D01*
X54517141Y-101434900D01*
X53943652Y-101548974D01*
X53457471Y-101873830D01*
X53276500Y-102144672D01*
X53095529Y-101873830D01*
X52609348Y-101548974D01*
X52035859Y-101434900D01*
X51977141Y-101434900D01*
X51403652Y-101548974D01*
X50917471Y-101873830D01*
X50727748Y-102157771D01*
X50680653Y-102055074D01*
X50252072Y-101657304D01*
X49703895Y-101453823D01*
X49469500Y-101593653D01*
X49469500Y-102930500D01*
X49489500Y-102930500D01*
X49489500Y-102936500D01*
X49469500Y-102936500D01*
X49469500Y-102956500D01*
X49463500Y-102956500D01*
X49463500Y-102936500D01*
X48126653Y-102936500D01*
X47986823Y-103170895D01*
X48008610Y-103280424D01*
X48252347Y-103811926D01*
X48446292Y-103991928D01*
X48367583Y-104006738D01*
X48151459Y-104145810D01*
X48006469Y-104358010D01*
X47955460Y-104609900D01*
X47955460Y-106337100D01*
X47999738Y-106572417D01*
X48138810Y-106788541D01*
X48351010Y-106933531D01*
X48602900Y-106984540D01*
X48706500Y-106984540D01*
X48706500Y-107112231D01*
X48764352Y-107403070D01*
X48929099Y-107649632D01*
X51351272Y-110071805D01*
X51175096Y-110247673D01*
X51025906Y-110606962D01*
X51025567Y-110995995D01*
X51174129Y-111355544D01*
X51243636Y-111425172D01*
X51243636Y-116902219D01*
X51301488Y-117193058D01*
X51466235Y-117439620D01*
X52293175Y-118266560D01*
X51447000Y-118266560D01*
X51404381Y-118274579D01*
X50863940Y-117734138D01*
X50863940Y-117612000D01*
X50819662Y-117376683D01*
X50680590Y-117160559D01*
X50468390Y-117015569D01*
X50351500Y-116991898D01*
X50351500Y-116542800D01*
X50451210Y-116302672D01*
X50451549Y-115913639D01*
X50302987Y-115554090D01*
X50028139Y-115278762D01*
X49668850Y-115129572D01*
X49279817Y-115129233D01*
X48920268Y-115277795D01*
X48644940Y-115552643D01*
X48495750Y-115911932D01*
X48495411Y-116300965D01*
X48581500Y-116509317D01*
X48581500Y-116989962D01*
X48481183Y-117008838D01*
X48265059Y-117147910D01*
X48218531Y-117216006D01*
X48076198Y-117073673D01*
X47842809Y-116977000D01*
X47128250Y-116977000D01*
X46969500Y-117135750D01*
X46969500Y-118234000D01*
X46989500Y-118234000D01*
X46989500Y-118240000D01*
X46969500Y-118240000D01*
X46969500Y-119338250D01*
X47128250Y-119497000D01*
X47842809Y-119497000D01*
X48076198Y-119400327D01*
X48217436Y-119259090D01*
X48252410Y-119313441D01*
X48464610Y-119458431D01*
X48581500Y-119482102D01*
X48581500Y-120647560D01*
X48462500Y-120647560D01*
X48227183Y-120691838D01*
X48011059Y-120830910D01*
X47964531Y-120899006D01*
X47822198Y-120756673D01*
X47588809Y-120660000D01*
X46874250Y-120660000D01*
X46715500Y-120818750D01*
X46715500Y-121917000D01*
X46735500Y-121917000D01*
X46735500Y-121923000D01*
X46715500Y-121923000D01*
X46715500Y-123021250D01*
X46874250Y-123180000D01*
X47588809Y-123180000D01*
X47822198Y-123083327D01*
X47963436Y-122942090D01*
X47998410Y-122996441D01*
X48210610Y-123141431D01*
X48462500Y-123192440D01*
X49962500Y-123192440D01*
X50197817Y-123148162D01*
X50413941Y-123009090D01*
X50540408Y-122824000D01*
X50817785Y-122824000D01*
X50799560Y-122914000D01*
X50799560Y-123214000D01*
X50819067Y-123317671D01*
X50799560Y-123414000D01*
X50799560Y-123714000D01*
X50819067Y-123817671D01*
X50799560Y-123914000D01*
X50799560Y-124214000D01*
X50812980Y-124285323D01*
X50812000Y-124287690D01*
X50812000Y-124348156D01*
X50764151Y-124338639D01*
X50756162Y-124296183D01*
X50617090Y-124080059D01*
X50404890Y-123935069D01*
X50153000Y-123884060D01*
X48653000Y-123884060D01*
X48417683Y-123928338D01*
X48218819Y-124056304D01*
X48216162Y-124042183D01*
X48077090Y-123826059D01*
X47864890Y-123681069D01*
X47613000Y-123630060D01*
X46113000Y-123630060D01*
X45877683Y-123674338D01*
X45661559Y-123813410D01*
X45516569Y-124025610D01*
X45465560Y-124277500D01*
X45465560Y-125277500D01*
X45509838Y-125512817D01*
X45648910Y-125728941D01*
X45861110Y-125873931D01*
X45958312Y-125893615D01*
X45941183Y-125896838D01*
X45725059Y-126035910D01*
X45580069Y-126248110D01*
X45529060Y-126500000D01*
X45529060Y-127500000D01*
X45573338Y-127735317D01*
X45685085Y-127908976D01*
X45608278Y-127908976D01*
X42589210Y-124889908D01*
X42662093Y-124523500D01*
X42549054Y-123955215D01*
X42227147Y-123473446D01*
X41745378Y-123151539D01*
X41177093Y-123038500D01*
X41118907Y-123038500D01*
X40550622Y-123151539D01*
X40068853Y-123473446D01*
X40064903Y-123479358D01*
X39996327Y-123313801D01*
X39817698Y-123135173D01*
X39584309Y-123038500D01*
X38769750Y-123038500D01*
X38611000Y-123197250D01*
X38611000Y-124520500D01*
X38631000Y-124520500D01*
X38631000Y-124526500D01*
X38611000Y-124526500D01*
X38611000Y-127060500D01*
X38631000Y-127060500D01*
X38631000Y-127066500D01*
X38611000Y-127066500D01*
X38611000Y-129600500D01*
X38631000Y-129600500D01*
X38631000Y-129606500D01*
X38611000Y-129606500D01*
X38611000Y-132140500D01*
X38631000Y-132140500D01*
X38631000Y-132146500D01*
X38611000Y-132146500D01*
X38611000Y-133469747D01*
X38843268Y-133609745D01*
X39386467Y-133408101D01*
X39811152Y-133013933D01*
X39867186Y-132891737D01*
X40068853Y-133193554D01*
X40550622Y-133515461D01*
X41118907Y-133628500D01*
X41177093Y-133628500D01*
X41745378Y-133515461D01*
X42068394Y-133299629D01*
X42068394Y-134584254D01*
X41787870Y-134467770D01*
X41398837Y-134467431D01*
X41039288Y-134615993D01*
X40763960Y-134890841D01*
X40670498Y-135115922D01*
X40572210Y-135214210D01*
X40380367Y-135501325D01*
X40378747Y-135509469D01*
X40312999Y-135840000D01*
X40313000Y-135840005D01*
X40313000Y-145741060D01*
X37998000Y-145741060D01*
X37762683Y-145785338D01*
X37546559Y-145924410D01*
X37401569Y-146136610D01*
X37350560Y-146388500D01*
X36322000Y-146388500D01*
X36322000Y-132378768D01*
X37141755Y-132378768D01*
X37163332Y-132487249D01*
X37404848Y-133013933D01*
X37829533Y-133408101D01*
X38372732Y-133609745D01*
X38605000Y-133469747D01*
X38605000Y-132146500D01*
X37281753Y-132146500D01*
X37141755Y-132378768D01*
X36322000Y-132378768D01*
X36322000Y-129838768D01*
X37141755Y-129838768D01*
X37163332Y-129947249D01*
X37404848Y-130473933D01*
X37829533Y-130868101D01*
X37844077Y-130873500D01*
X37829533Y-130878899D01*
X37404848Y-131273067D01*
X37163332Y-131799751D01*
X37141755Y-131908232D01*
X37281753Y-132140500D01*
X38605000Y-132140500D01*
X38605000Y-129606500D01*
X37281753Y-129606500D01*
X37141755Y-129838768D01*
X36322000Y-129838768D01*
X36322000Y-127298768D01*
X37141755Y-127298768D01*
X37163332Y-127407249D01*
X37404848Y-127933933D01*
X37829533Y-128328101D01*
X37844077Y-128333500D01*
X37829533Y-128338899D01*
X37404848Y-128733067D01*
X37163332Y-129259751D01*
X37141755Y-129368232D01*
X37281753Y-129600500D01*
X38605000Y-129600500D01*
X38605000Y-127066500D01*
X37281753Y-127066500D01*
X37141755Y-127298768D01*
X36322000Y-127298768D01*
X36322000Y-124685250D01*
X37123000Y-124685250D01*
X37123000Y-125499810D01*
X37219673Y-125733199D01*
X37398302Y-125911827D01*
X37612340Y-126000485D01*
X37404848Y-126193067D01*
X37163332Y-126719751D01*
X37141755Y-126828232D01*
X37281753Y-127060500D01*
X38605000Y-127060500D01*
X38605000Y-124526500D01*
X37281750Y-124526500D01*
X37123000Y-124685250D01*
X36322000Y-124685250D01*
X36322000Y-123547190D01*
X37123000Y-123547190D01*
X37123000Y-124361750D01*
X37281750Y-124520500D01*
X38605000Y-124520500D01*
X38605000Y-123197250D01*
X38446250Y-123038500D01*
X37631691Y-123038500D01*
X37398302Y-123135173D01*
X37219673Y-123313801D01*
X37123000Y-123547190D01*
X36322000Y-123547190D01*
X36322000Y-122081750D01*
X45327500Y-122081750D01*
X45327500Y-122671310D01*
X45424173Y-122904699D01*
X45602802Y-123083327D01*
X45836191Y-123180000D01*
X46550750Y-123180000D01*
X46709500Y-123021250D01*
X46709500Y-121923000D01*
X45486250Y-121923000D01*
X45327500Y-122081750D01*
X36322000Y-122081750D01*
X36322000Y-114820000D01*
X36993060Y-114820000D01*
X36993060Y-116320000D01*
X37037338Y-116555317D01*
X37176410Y-116771441D01*
X37388610Y-116916431D01*
X37401697Y-116919081D01*
X37189059Y-117055910D01*
X37044069Y-117268110D01*
X36993060Y-117520000D01*
X36993060Y-119020000D01*
X37037338Y-119255317D01*
X37176410Y-119471441D01*
X37388610Y-119616431D01*
X37396484Y-119618025D01*
X37312770Y-119819630D01*
X37312431Y-120208663D01*
X37460993Y-120568212D01*
X37735841Y-120843540D01*
X38095130Y-120992730D01*
X38484163Y-120993069D01*
X38843712Y-120844507D01*
X39119040Y-120569659D01*
X39268230Y-120210370D01*
X39268569Y-119821337D01*
X39184402Y-119617637D01*
X39306957Y-119538775D01*
X39420610Y-119616431D01*
X39672500Y-119667440D01*
X40972500Y-119667440D01*
X41207817Y-119623162D01*
X41423941Y-119484090D01*
X41568931Y-119271890D01*
X41617915Y-119030000D01*
X43850698Y-119030000D01*
X44869015Y-120048317D01*
X44868931Y-120145163D01*
X45017493Y-120504712D01*
X45292341Y-120780040D01*
X45495200Y-120864274D01*
X45424173Y-120935301D01*
X45327500Y-121168690D01*
X45327500Y-121758250D01*
X45486250Y-121917000D01*
X46709500Y-121917000D01*
X46709500Y-120818750D01*
X46550750Y-120660000D01*
X46521430Y-120660000D01*
X46675540Y-120506159D01*
X46824730Y-120146870D01*
X46825069Y-119757837D01*
X46717294Y-119497000D01*
X46804750Y-119497000D01*
X46963500Y-119338250D01*
X46963500Y-118240000D01*
X45740250Y-118240000D01*
X45581500Y-118398750D01*
X45581500Y-118611198D01*
X44702901Y-117732599D01*
X44456339Y-117567852D01*
X44165500Y-117510000D01*
X41618058Y-117510000D01*
X41613484Y-117485690D01*
X45581500Y-117485690D01*
X45581500Y-118075250D01*
X45740250Y-118234000D01*
X46963500Y-118234000D01*
X46963500Y-117135750D01*
X46804750Y-116977000D01*
X46090191Y-116977000D01*
X45856802Y-117073673D01*
X45678173Y-117252301D01*
X45581500Y-117485690D01*
X41613484Y-117485690D01*
X41575662Y-117284683D01*
X41436590Y-117068559D01*
X41224390Y-116923569D01*
X41211303Y-116920919D01*
X41423941Y-116784090D01*
X41568931Y-116571890D01*
X41619940Y-116320000D01*
X41619940Y-114820000D01*
X41575662Y-114584683D01*
X41436590Y-114368559D01*
X41413819Y-114353000D01*
X41420310Y-114353000D01*
X41653699Y-114256327D01*
X41832327Y-114077698D01*
X41929000Y-113844309D01*
X41929000Y-113429750D01*
X41770250Y-113271000D01*
X40897000Y-113271000D01*
X40897000Y-113291000D01*
X40891000Y-113291000D01*
X40891000Y-113271000D01*
X40871000Y-113271000D01*
X40871000Y-113265000D01*
X40891000Y-113265000D01*
X40891000Y-113245000D01*
X40897000Y-113245000D01*
X40897000Y-113265000D01*
X41770250Y-113265000D01*
X41929000Y-113106250D01*
X41929000Y-112691691D01*
X41832327Y-112458302D01*
X41805414Y-112431388D01*
X41871362Y-112365440D01*
X42244000Y-112365440D01*
X42479317Y-112321162D01*
X42695441Y-112182090D01*
X42840431Y-111969890D01*
X42891440Y-111718000D01*
X42891440Y-110818000D01*
X42847162Y-110582683D01*
X42708090Y-110366559D01*
X42495890Y-110221569D01*
X42244000Y-110170560D01*
X41444000Y-110170560D01*
X41208683Y-110214838D01*
X40992559Y-110353910D01*
X40893367Y-110499083D01*
X40808090Y-110366559D01*
X40704000Y-110295437D01*
X40704000Y-109913302D01*
X40986901Y-109630401D01*
X41151648Y-109383839D01*
X41192206Y-109179940D01*
X41349500Y-109179940D01*
X41584817Y-109135662D01*
X41800941Y-108996590D01*
X41945931Y-108784390D01*
X41996940Y-108532500D01*
X41996940Y-106732500D01*
X41952662Y-106497183D01*
X41813590Y-106281059D01*
X41601390Y-106136069D01*
X41580966Y-106131933D01*
X41750051Y-105963143D01*
X41984233Y-105399170D01*
X41984765Y-104788509D01*
X41751568Y-104224129D01*
X41320143Y-103791949D01*
X40756170Y-103557767D01*
X40145509Y-103557235D01*
X39581129Y-103790432D01*
X39148949Y-104221857D01*
X39100559Y-104338393D01*
X38839346Y-104390352D01*
X38592784Y-104555099D01*
X37753099Y-105394784D01*
X37588352Y-105641346D01*
X37530500Y-105932185D01*
X37530500Y-114193258D01*
X37405183Y-114216838D01*
X37189059Y-114355910D01*
X37044069Y-114568110D01*
X36993060Y-114820000D01*
X36322000Y-114820000D01*
X36322000Y-102696105D01*
X47986823Y-102696105D01*
X48126653Y-102930500D01*
X49463500Y-102930500D01*
X49463500Y-101593653D01*
X49229105Y-101453823D01*
X48680928Y-101657304D01*
X48252347Y-102055074D01*
X48008610Y-102586576D01*
X47986823Y-102696105D01*
X36322000Y-102696105D01*
X36322000Y-99822000D01*
X114173000Y-99822000D01*
X114173000Y-155448000D01*
X114173000Y-155448000D01*
G37*
X114173000Y-155448000D02*
X36322000Y-155448000D01*
X36322000Y-146388500D01*
X37350560Y-146388500D01*
X37350560Y-152188500D01*
X37394838Y-152423817D01*
X37533910Y-152639941D01*
X37746110Y-152784931D01*
X37998000Y-152835940D01*
X44398000Y-152835940D01*
X44633317Y-152791662D01*
X44849441Y-152652590D01*
X44994431Y-152440390D01*
X45045440Y-152188500D01*
X45045440Y-151730250D01*
X45763000Y-151730250D01*
X45763000Y-152294810D01*
X45859673Y-152528199D01*
X46038302Y-152706827D01*
X46271691Y-152803500D01*
X47336250Y-152803500D01*
X47495000Y-152644750D01*
X47495000Y-151571500D01*
X47501000Y-151571500D01*
X47501000Y-152644750D01*
X47659750Y-152803500D01*
X48724309Y-152803500D01*
X48957698Y-152706827D01*
X49136327Y-152528199D01*
X49233000Y-152294810D01*
X49233000Y-151730250D01*
X49074250Y-151571500D01*
X47501000Y-151571500D01*
X47495000Y-151571500D01*
X45921750Y-151571500D01*
X45763000Y-151730250D01*
X45045440Y-151730250D01*
X45045440Y-150173500D01*
X45826808Y-150173500D01*
X45933910Y-150339941D01*
X46055527Y-150423038D01*
X46038302Y-150430173D01*
X45859673Y-150608801D01*
X45763000Y-150842190D01*
X45763000Y-151406750D01*
X45921750Y-151565500D01*
X47495000Y-151565500D01*
X47495000Y-151545500D01*
X47501000Y-151545500D01*
X47501000Y-151565500D01*
X49074250Y-151565500D01*
X49233000Y-151406750D01*
X49233000Y-150842190D01*
X49136327Y-150608801D01*
X48957698Y-150430173D01*
X48940162Y-150422909D01*
X49049441Y-150352590D01*
X49171808Y-150173500D01*
X49566221Y-150173500D01*
X49689410Y-150364941D01*
X49901610Y-150509931D01*
X50153500Y-150560940D01*
X51653500Y-150560940D01*
X51888817Y-150516662D01*
X52104941Y-150377590D01*
X52151469Y-150309494D01*
X52293802Y-150451827D01*
X52527191Y-150548500D01*
X53241750Y-150548500D01*
X53400500Y-150389750D01*
X53400500Y-149291500D01*
X53406500Y-149291500D01*
X53406500Y-150389750D01*
X53565250Y-150548500D01*
X54279809Y-150548500D01*
X54513198Y-150451827D01*
X54691827Y-150273199D01*
X54788500Y-150039810D01*
X54788500Y-149450250D01*
X54629750Y-149291500D01*
X53406500Y-149291500D01*
X53400500Y-149291500D01*
X53380500Y-149291500D01*
X53380500Y-149285500D01*
X53400500Y-149285500D01*
X53400500Y-149265500D01*
X53406500Y-149265500D01*
X53406500Y-149285500D01*
X54629750Y-149285500D01*
X54788500Y-149126750D01*
X54788500Y-148537190D01*
X54691827Y-148303801D01*
X54545275Y-148157250D01*
X54715327Y-147987199D01*
X54812000Y-147753810D01*
X54812000Y-147366895D01*
X106978323Y-147366895D01*
X107181804Y-147915072D01*
X107579574Y-148343653D01*
X108111076Y-148587390D01*
X108220605Y-148609177D01*
X108455000Y-148469347D01*
X108455000Y-147132500D01*
X107118153Y-147132500D01*
X106978323Y-147366895D01*
X54812000Y-147366895D01*
X54812000Y-147164250D01*
X54653250Y-147005500D01*
X53430000Y-147005500D01*
X53430000Y-147025500D01*
X53424000Y-147025500D01*
X53424000Y-147005500D01*
X53404000Y-147005500D01*
X53404000Y-146999500D01*
X53424000Y-146999500D01*
X53424000Y-145901250D01*
X53430000Y-145901250D01*
X53430000Y-146999500D01*
X54653250Y-146999500D01*
X54812000Y-146840750D01*
X54812000Y-146251190D01*
X54715327Y-146017801D01*
X54536698Y-145839173D01*
X54303309Y-145742500D01*
X53588750Y-145742500D01*
X53430000Y-145901250D01*
X53424000Y-145901250D01*
X53265250Y-145742500D01*
X52550691Y-145742500D01*
X52317302Y-145839173D01*
X52176064Y-145980410D01*
X52141090Y-145926059D01*
X51928890Y-145781069D01*
X51677000Y-145730060D01*
X50177000Y-145730060D01*
X49941683Y-145774338D01*
X49725559Y-145913410D01*
X49586110Y-146117500D01*
X49165331Y-146117500D01*
X49062090Y-145957059D01*
X48849890Y-145812069D01*
X48598000Y-145761060D01*
X48413158Y-145761060D01*
X48475730Y-145610370D01*
X48476069Y-145221337D01*
X48327507Y-144861788D01*
X48052659Y-144586460D01*
X47827577Y-144492998D01*
X47099921Y-143765342D01*
X72675475Y-143765342D01*
X72824037Y-144124891D01*
X73098885Y-144400219D01*
X73458174Y-144549409D01*
X73847207Y-144549748D01*
X74206756Y-144401186D01*
X74482084Y-144126338D01*
X74631274Y-143767049D01*
X74631613Y-143378016D01*
X74483051Y-143018467D01*
X74208203Y-142743139D01*
X73848914Y-142593949D01*
X73459881Y-142593610D01*
X73100332Y-142742172D01*
X72825004Y-143017020D01*
X72675814Y-143376309D01*
X72675475Y-143765342D01*
X47099921Y-143765342D01*
X45670654Y-142336075D01*
X45751441Y-142284090D01*
X45896431Y-142071890D01*
X45910086Y-142004459D01*
X45939946Y-142049147D01*
X46421715Y-142371054D01*
X46990000Y-142484093D01*
X47558285Y-142371054D01*
X48040054Y-142049147D01*
X48260000Y-141719974D01*
X48479946Y-142049147D01*
X48961715Y-142371054D01*
X49530000Y-142484093D01*
X50098285Y-142371054D01*
X50580054Y-142049147D01*
X50800000Y-141719974D01*
X51019946Y-142049147D01*
X51501715Y-142371054D01*
X52070000Y-142484093D01*
X52638285Y-142371054D01*
X53120054Y-142049147D01*
X53340000Y-141719974D01*
X53559946Y-142049147D01*
X54041715Y-142371054D01*
X54610000Y-142484093D01*
X55178285Y-142371054D01*
X55660054Y-142049147D01*
X55880000Y-141719974D01*
X56099946Y-142049147D01*
X56581715Y-142371054D01*
X57150000Y-142484093D01*
X57718285Y-142371054D01*
X58200054Y-142049147D01*
X58420000Y-141719974D01*
X58639946Y-142049147D01*
X59121715Y-142371054D01*
X59690000Y-142484093D01*
X60258285Y-142371054D01*
X60740054Y-142049147D01*
X60960000Y-141719974D01*
X61179946Y-142049147D01*
X61661715Y-142371054D01*
X62230000Y-142484093D01*
X62798285Y-142371054D01*
X63280054Y-142049147D01*
X63500000Y-141719974D01*
X63719946Y-142049147D01*
X64201715Y-142371054D01*
X64770000Y-142484093D01*
X65338285Y-142371054D01*
X65820054Y-142049147D01*
X66040000Y-141719974D01*
X66259946Y-142049147D01*
X66741715Y-142371054D01*
X67310000Y-142484093D01*
X67878285Y-142371054D01*
X68360054Y-142049147D01*
X68576671Y-141724956D01*
X68585399Y-141748467D01*
X68979567Y-142173152D01*
X69506251Y-142414668D01*
X69614732Y-142436245D01*
X69847000Y-142296247D01*
X69847000Y-140973000D01*
X69853000Y-140973000D01*
X69853000Y-142296247D01*
X70085268Y-142436245D01*
X70193749Y-142414668D01*
X70720433Y-142173152D01*
X71114601Y-141748467D01*
X71120000Y-141733923D01*
X71125399Y-141748467D01*
X71519567Y-142173152D01*
X72046251Y-142414668D01*
X72154732Y-142436245D01*
X72387000Y-142296247D01*
X72387000Y-140973000D01*
X72393000Y-140973000D01*
X72393000Y-142296247D01*
X72625268Y-142436245D01*
X72733749Y-142414668D01*
X73260433Y-142173152D01*
X73654601Y-141748467D01*
X73660000Y-141733923D01*
X73665399Y-141748467D01*
X74059567Y-142173152D01*
X74586251Y-142414668D01*
X74694732Y-142436245D01*
X74927000Y-142296247D01*
X74927000Y-140973000D01*
X74933000Y-140973000D01*
X74933000Y-142296247D01*
X75165268Y-142436245D01*
X75273749Y-142414668D01*
X75800433Y-142173152D01*
X76194601Y-141748467D01*
X76200000Y-141733923D01*
X76205399Y-141748467D01*
X76599567Y-142173152D01*
X77126251Y-142414668D01*
X77234732Y-142436245D01*
X77467000Y-142296247D01*
X77467000Y-140973000D01*
X74933000Y-140973000D01*
X74927000Y-140973000D01*
X72393000Y-140973000D01*
X72387000Y-140973000D01*
X69853000Y-140973000D01*
X69847000Y-140973000D01*
X69827000Y-140973000D01*
X69827000Y-140967000D01*
X69847000Y-140967000D01*
X69847000Y-140947000D01*
X69853000Y-140947000D01*
X69853000Y-140967000D01*
X72387000Y-140967000D01*
X72387000Y-140947000D01*
X72393000Y-140947000D01*
X72393000Y-140967000D01*
X74927000Y-140967000D01*
X74927000Y-140947000D01*
X74933000Y-140947000D01*
X74933000Y-140967000D01*
X77467000Y-140967000D01*
X77467000Y-140947000D01*
X77473000Y-140947000D01*
X77473000Y-140967000D01*
X77493000Y-140967000D01*
X77493000Y-140973000D01*
X77473000Y-140973000D01*
X77473000Y-142296247D01*
X77705268Y-142436245D01*
X77813749Y-142414668D01*
X78340433Y-142173152D01*
X78734601Y-141748467D01*
X78743329Y-141724956D01*
X78959946Y-142049147D01*
X79441715Y-142371054D01*
X80010000Y-142484093D01*
X80578285Y-142371054D01*
X81060054Y-142049147D01*
X81280000Y-141719974D01*
X81499946Y-142049147D01*
X81981715Y-142371054D01*
X82550000Y-142484093D01*
X83118285Y-142371054D01*
X83600054Y-142049147D01*
X83820000Y-141719974D01*
X84039946Y-142049147D01*
X84521715Y-142371054D01*
X85090000Y-142484093D01*
X85658285Y-142371054D01*
X86140054Y-142049147D01*
X86360000Y-141719974D01*
X86579946Y-142049147D01*
X87061715Y-142371054D01*
X87630000Y-142484093D01*
X88198285Y-142371054D01*
X88680054Y-142049147D01*
X88900000Y-141719974D01*
X89119946Y-142049147D01*
X89601715Y-142371054D01*
X90170000Y-142484093D01*
X90738285Y-142371054D01*
X91220054Y-142049147D01*
X91440000Y-141719974D01*
X91659946Y-142049147D01*
X92141715Y-142371054D01*
X92710000Y-142484093D01*
X93278285Y-142371054D01*
X93760054Y-142049147D01*
X93980000Y-141719974D01*
X94199946Y-142049147D01*
X94681715Y-142371054D01*
X95250000Y-142484093D01*
X95818285Y-142371054D01*
X96300054Y-142049147D01*
X96520000Y-141719974D01*
X96739946Y-142049147D01*
X97221715Y-142371054D01*
X97790000Y-142484093D01*
X98358285Y-142371054D01*
X98840054Y-142049147D01*
X99161961Y-141567378D01*
X99275000Y-140999093D01*
X99275000Y-140940907D01*
X99161961Y-140372622D01*
X98840054Y-139890853D01*
X98554422Y-139700000D01*
X98840054Y-139509147D01*
X99161961Y-139027378D01*
X99275000Y-138459093D01*
X99275000Y-138400907D01*
X99176015Y-137903277D01*
X100522609Y-137903277D01*
X100813448Y-137845425D01*
X101060010Y-137680678D01*
X104258302Y-134482387D01*
X104423048Y-134235825D01*
X104480900Y-133944986D01*
X104480900Y-130631940D01*
X104584500Y-130631940D01*
X104702996Y-130609643D01*
X104813100Y-130631940D01*
X105219500Y-130631940D01*
X105454817Y-130587662D01*
X105670941Y-130448590D01*
X105815931Y-130236390D01*
X105866940Y-129984500D01*
X105866940Y-128714500D01*
X105862848Y-128692754D01*
X105888728Y-128666874D01*
X105896338Y-128707317D01*
X106035410Y-128923441D01*
X106247610Y-129068431D01*
X106499500Y-129119440D01*
X107749500Y-129119440D01*
X107984817Y-129075162D01*
X108200941Y-128936090D01*
X108345931Y-128723890D01*
X108369602Y-128607000D01*
X108939662Y-128607000D01*
X109271437Y-128744765D01*
X109660470Y-128745104D01*
X109891873Y-128649491D01*
X109850560Y-128853500D01*
X109850560Y-130353500D01*
X109894838Y-130588817D01*
X110033910Y-130804941D01*
X110246110Y-130949931D01*
X110286800Y-130958171D01*
X110286800Y-135647631D01*
X109938330Y-135880471D01*
X109929195Y-135894142D01*
X109924762Y-135870583D01*
X109785690Y-135654459D01*
X109573490Y-135509469D01*
X109321600Y-135458460D01*
X107594400Y-135458460D01*
X107359083Y-135502738D01*
X107142959Y-135641810D01*
X106997969Y-135854010D01*
X106946960Y-136105900D01*
X106946960Y-137833100D01*
X106991238Y-138068417D01*
X107130310Y-138284541D01*
X107342510Y-138429531D01*
X107386345Y-138438408D01*
X107073474Y-138906652D01*
X106959400Y-139480141D01*
X106959400Y-139538859D01*
X107073474Y-140112348D01*
X107398330Y-140598529D01*
X107669172Y-140779500D01*
X107398330Y-140960471D01*
X107073474Y-141446652D01*
X106959400Y-142020141D01*
X106959400Y-142078859D01*
X107073474Y-142652348D01*
X107398330Y-143138529D01*
X107669172Y-143319500D01*
X107398330Y-143500471D01*
X107073474Y-143986652D01*
X106959400Y-144560141D01*
X106959400Y-144618859D01*
X107073474Y-145192348D01*
X107398330Y-145678529D01*
X107682271Y-145868252D01*
X107579574Y-145915347D01*
X107181804Y-146343928D01*
X106978323Y-146892105D01*
X107118153Y-147126500D01*
X108455000Y-147126500D01*
X108455000Y-147106500D01*
X108461000Y-147106500D01*
X108461000Y-147126500D01*
X108481000Y-147126500D01*
X108481000Y-147132500D01*
X108461000Y-147132500D01*
X108461000Y-148469347D01*
X108695395Y-148609177D01*
X108804924Y-148587390D01*
X109336426Y-148343653D01*
X109734196Y-147915072D01*
X109734685Y-147913754D01*
X109938330Y-148218529D01*
X110424511Y-148543385D01*
X110998000Y-148657459D01*
X111571489Y-148543385D01*
X112057670Y-148218529D01*
X112382526Y-147732348D01*
X112496600Y-147158859D01*
X112496600Y-147100141D01*
X112382526Y-146526652D01*
X112057670Y-146040471D01*
X111786828Y-145859500D01*
X112057670Y-145678529D01*
X112382526Y-145192348D01*
X112496600Y-144618859D01*
X112496600Y-144560141D01*
X112382526Y-143986652D01*
X112057670Y-143500471D01*
X111786828Y-143319500D01*
X112057670Y-143138529D01*
X112382526Y-142652348D01*
X112496600Y-142078859D01*
X112496600Y-142020141D01*
X112382526Y-141446652D01*
X112057670Y-140960471D01*
X111773729Y-140770748D01*
X111876426Y-140723653D01*
X112274196Y-140295072D01*
X112477677Y-139746895D01*
X112337847Y-139512500D01*
X111001000Y-139512500D01*
X111001000Y-139532500D01*
X110995000Y-139532500D01*
X110995000Y-139512500D01*
X110975000Y-139512500D01*
X110975000Y-139506500D01*
X110995000Y-139506500D01*
X110995000Y-139486500D01*
X111001000Y-139486500D01*
X111001000Y-139506500D01*
X112337847Y-139506500D01*
X112477677Y-139272105D01*
X112274196Y-138723928D01*
X111876426Y-138295347D01*
X111773729Y-138248252D01*
X112057670Y-138058529D01*
X112382526Y-137572348D01*
X112496600Y-136998859D01*
X112496600Y-136940141D01*
X112382526Y-136366652D01*
X112057670Y-135880471D01*
X111709200Y-135647631D01*
X111709200Y-130961200D01*
X111733317Y-130956662D01*
X111949441Y-130817590D01*
X112094431Y-130605390D01*
X112145440Y-130353500D01*
X112145440Y-128853500D01*
X112101162Y-128618183D01*
X111962090Y-128402059D01*
X111749890Y-128257069D01*
X111498000Y-128206060D01*
X110498000Y-128206060D01*
X110330256Y-128237623D01*
X110444537Y-127962405D01*
X110444876Y-127573372D01*
X110296314Y-127213823D01*
X110021466Y-126938495D01*
X109662177Y-126789305D01*
X109273144Y-126788966D01*
X109156892Y-126837000D01*
X108371538Y-126837000D01*
X108352662Y-126736683D01*
X108213590Y-126520559D01*
X108145494Y-126474031D01*
X108287827Y-126331698D01*
X108384500Y-126098309D01*
X108384500Y-125383750D01*
X108225750Y-125225000D01*
X107127500Y-125225000D01*
X107127500Y-125245000D01*
X107121500Y-125245000D01*
X107121500Y-125225000D01*
X106023250Y-125225000D01*
X105864500Y-125383750D01*
X105864500Y-126098309D01*
X105961173Y-126331698D01*
X106102410Y-126472936D01*
X106048059Y-126507910D01*
X105903069Y-126720110D01*
X105854085Y-126962000D01*
X105758800Y-126962000D01*
X105467961Y-127019852D01*
X105221399Y-127184599D01*
X104698800Y-127707198D01*
X104533701Y-127542099D01*
X104287139Y-127377352D01*
X103996300Y-127319500D01*
X89713580Y-127319500D01*
X89645159Y-127250960D01*
X89285870Y-127101770D01*
X88896837Y-127101431D01*
X88537288Y-127249993D01*
X88261960Y-127524841D01*
X88112770Y-127884130D01*
X88112431Y-128273163D01*
X88260993Y-128632712D01*
X88535841Y-128908040D01*
X88895130Y-129057230D01*
X89284163Y-129057569D01*
X89643712Y-128909007D01*
X89713340Y-128839500D01*
X98323660Y-128839500D01*
X98323660Y-129984500D01*
X98367938Y-130219817D01*
X98414300Y-130291866D01*
X98414300Y-131939252D01*
X97902324Y-132451228D01*
X90308772Y-132451228D01*
X90017932Y-132509080D01*
X89771371Y-132673827D01*
X88737133Y-133708065D01*
X88737305Y-133510710D01*
X88940856Y-133426605D01*
X89216184Y-133151757D01*
X89365374Y-132792468D01*
X89365486Y-132664299D01*
X89553627Y-132586561D01*
X89828955Y-132311713D01*
X89978145Y-131952424D01*
X89978484Y-131563391D01*
X89829922Y-131203842D01*
X89555074Y-130928514D01*
X89195785Y-130779324D01*
X89097401Y-130779238D01*
X85344762Y-127026599D01*
X85098200Y-126861852D01*
X84907907Y-126824000D01*
X93231190Y-126824000D01*
X93522029Y-126766148D01*
X93768591Y-126601401D01*
X96809110Y-123560882D01*
X96905956Y-123560966D01*
X97265505Y-123412404D01*
X97335133Y-123342897D01*
X98336100Y-123342897D01*
X98336100Y-123853750D01*
X98494850Y-124012500D01*
X98958660Y-124012500D01*
X98958660Y-124018500D01*
X98494850Y-124018500D01*
X98336100Y-124177250D01*
X98336100Y-124776810D01*
X98432773Y-125010199D01*
X98611402Y-125188827D01*
X98844791Y-125285500D01*
X99012550Y-125285500D01*
X99171300Y-125126750D01*
X99171300Y-125121954D01*
X99177300Y-125126054D01*
X99177300Y-125126750D01*
X99336050Y-125285500D01*
X99503809Y-125285500D01*
X99517226Y-125279943D01*
X99606100Y-125297940D01*
X100012500Y-125297940D01*
X100144162Y-125273166D01*
X100266500Y-125297940D01*
X100672900Y-125297940D01*
X100791396Y-125275643D01*
X100901500Y-125297940D01*
X101307900Y-125297940D01*
X101439562Y-125273166D01*
X101561900Y-125297940D01*
X101968300Y-125297940D01*
X102099962Y-125273166D01*
X102222300Y-125297940D01*
X102628700Y-125297940D01*
X102747196Y-125275643D01*
X102857300Y-125297940D01*
X103263700Y-125297940D01*
X103288888Y-125293201D01*
X103162270Y-125598130D01*
X103161931Y-125987163D01*
X103310493Y-126346712D01*
X103585341Y-126622040D01*
X103944630Y-126771230D01*
X104333663Y-126771569D01*
X104693212Y-126623007D01*
X104968540Y-126348159D01*
X105117730Y-125988870D01*
X105117816Y-125890486D01*
X105553701Y-125454601D01*
X105718448Y-125208040D01*
X105764180Y-124978130D01*
X105815931Y-124902390D01*
X105864500Y-124662549D01*
X105864500Y-125060250D01*
X106023250Y-125219000D01*
X107121500Y-125219000D01*
X107121500Y-123995750D01*
X107127500Y-123995750D01*
X107127500Y-125219000D01*
X108225750Y-125219000D01*
X108384500Y-125060250D01*
X108384500Y-124345691D01*
X108287827Y-124112302D01*
X108109199Y-123933673D01*
X107875810Y-123837000D01*
X107286250Y-123837000D01*
X107127500Y-123995750D01*
X107121500Y-123995750D01*
X106962750Y-123837000D01*
X106373190Y-123837000D01*
X106139801Y-123933673D01*
X105961173Y-124112302D01*
X105866940Y-124339800D01*
X105866940Y-123380500D01*
X105822662Y-123145183D01*
X105683590Y-122929059D01*
X105668116Y-122918486D01*
X107397042Y-121189560D01*
X107561789Y-120942999D01*
X107581569Y-120843559D01*
X107619641Y-120652159D01*
X107619641Y-119292497D01*
X107808424Y-119379049D01*
X107913054Y-119399861D01*
X108137500Y-119259246D01*
X108137500Y-117986000D01*
X108143500Y-117986000D01*
X108143500Y-119259246D01*
X108367946Y-119399861D01*
X108472576Y-119379049D01*
X108981543Y-119145701D01*
X109362469Y-118735342D01*
X109557361Y-118210446D01*
X109416747Y-117986000D01*
X108143500Y-117986000D01*
X108137500Y-117986000D01*
X108117500Y-117986000D01*
X108117500Y-117980000D01*
X108137500Y-117980000D01*
X108137500Y-116706754D01*
X108143500Y-116706754D01*
X108143500Y-117980000D01*
X109416747Y-117980000D01*
X109557361Y-117755554D01*
X109362469Y-117230658D01*
X108981543Y-116820299D01*
X108472576Y-116586951D01*
X108367946Y-116566139D01*
X108143500Y-116706754D01*
X108137500Y-116706754D01*
X107913054Y-116566139D01*
X107808424Y-116586951D01*
X107619641Y-116673503D01*
X107619641Y-115735011D01*
X107688181Y-115666590D01*
X107837371Y-115307301D01*
X107837710Y-114918268D01*
X107689148Y-114558719D01*
X107414300Y-114283391D01*
X107055011Y-114134201D01*
X106665978Y-114133862D01*
X106306429Y-114282424D01*
X106236801Y-114351931D01*
X88223422Y-114351931D01*
X87932582Y-114409783D01*
X87686021Y-114574530D01*
X86008456Y-116252095D01*
X85843709Y-116498657D01*
X85818211Y-116626844D01*
X85280500Y-116519887D01*
X84731349Y-116629120D01*
X84265802Y-116940189D01*
X84010500Y-117322275D01*
X83755198Y-116940189D01*
X83289651Y-116629120D01*
X82740500Y-116519887D01*
X82191349Y-116629120D01*
X81725802Y-116940189D01*
X81470500Y-117322275D01*
X81215198Y-116940189D01*
X80749651Y-116629120D01*
X80200500Y-116519887D01*
X79651349Y-116629120D01*
X79185802Y-116940189D01*
X78930500Y-117322275D01*
X78675198Y-116940189D01*
X78209651Y-116629120D01*
X77660500Y-116519887D01*
X77111349Y-116629120D01*
X76645802Y-116940189D01*
X76549399Y-117084465D01*
X76523662Y-116947683D01*
X76384590Y-116731559D01*
X76184761Y-116595022D01*
X77268478Y-116595022D01*
X77559317Y-116537170D01*
X77805879Y-116372423D01*
X90036614Y-104141688D01*
X90360500Y-104206113D01*
X90684386Y-104141688D01*
X91078712Y-104536014D01*
X91325274Y-104700761D01*
X91616113Y-104758613D01*
X94184887Y-104758613D01*
X94475726Y-104700761D01*
X94722288Y-104536014D01*
X95116615Y-104141688D01*
X95440500Y-104206113D01*
X95989651Y-104096880D01*
X96455198Y-103785811D01*
X96710500Y-103403725D01*
X96965802Y-103785811D01*
X97431349Y-104096880D01*
X97980500Y-104206113D01*
X98529651Y-104096880D01*
X98995198Y-103785811D01*
X99250500Y-103403725D01*
X99505802Y-103785811D01*
X99971349Y-104096880D01*
X100520500Y-104206113D01*
X101069651Y-104096880D01*
X101535198Y-103785811D01*
X101790500Y-103403725D01*
X102045802Y-103785811D01*
X102511349Y-104096880D01*
X103060500Y-104206113D01*
X103609651Y-104096880D01*
X104075198Y-103785811D01*
X104330500Y-103403725D01*
X104585802Y-103785811D01*
X105051349Y-104096880D01*
X105600500Y-104206113D01*
X106149651Y-104096880D01*
X106615198Y-103785811D01*
X106870500Y-103403725D01*
X107125802Y-103785811D01*
X107591349Y-104096880D01*
X108140500Y-104206113D01*
X108689651Y-104096880D01*
X109155198Y-103785811D01*
X109466267Y-103320264D01*
X109575500Y-102771113D01*
X109575500Y-102714887D01*
X109466267Y-102165736D01*
X109155198Y-101700189D01*
X108689651Y-101389120D01*
X108140500Y-101279887D01*
X107591349Y-101389120D01*
X107125802Y-101700189D01*
X106870500Y-102082275D01*
X106615198Y-101700189D01*
X106149651Y-101389120D01*
X105600500Y-101279887D01*
X105051349Y-101389120D01*
X104585802Y-101700189D01*
X104330500Y-102082275D01*
X104075198Y-101700189D01*
X103609651Y-101389120D01*
X103060500Y-101279887D01*
X102511349Y-101389120D01*
X102045802Y-101700189D01*
X101790500Y-102082275D01*
X101535198Y-101700189D01*
X101069651Y-101389120D01*
X100520500Y-101279887D01*
X99971349Y-101389120D01*
X99505802Y-101700189D01*
X99250500Y-102082275D01*
X98995198Y-101700189D01*
X98529651Y-101389120D01*
X97980500Y-101279887D01*
X97431349Y-101389120D01*
X96965802Y-101700189D01*
X96710500Y-102082275D01*
X96455198Y-101700189D01*
X95989651Y-101389120D01*
X95440500Y-101279887D01*
X94891349Y-101389120D01*
X94425802Y-101700189D01*
X94170500Y-102082275D01*
X93915198Y-101700189D01*
X93449651Y-101389120D01*
X92900500Y-101279887D01*
X92351349Y-101389120D01*
X91885802Y-101700189D01*
X91630500Y-102082275D01*
X91375198Y-101700189D01*
X90909651Y-101389120D01*
X90360500Y-101279887D01*
X89811349Y-101389120D01*
X89345802Y-101700189D01*
X89090500Y-102082275D01*
X88835198Y-101700189D01*
X88369651Y-101389120D01*
X87820500Y-101279887D01*
X87271349Y-101389120D01*
X86805802Y-101700189D01*
X86550500Y-102082275D01*
X86295198Y-101700189D01*
X85829651Y-101389120D01*
X85280500Y-101279887D01*
X84731349Y-101389120D01*
X84265802Y-101700189D01*
X84010500Y-102082275D01*
X83755198Y-101700189D01*
X83289651Y-101389120D01*
X82740500Y-101279887D01*
X82191349Y-101389120D01*
X81725802Y-101700189D01*
X81470500Y-102082275D01*
X81215198Y-101700189D01*
X80749651Y-101389120D01*
X80200500Y-101279887D01*
X79651349Y-101389120D01*
X79185802Y-101700189D01*
X78930500Y-102082275D01*
X78675198Y-101700189D01*
X78209651Y-101389120D01*
X77660500Y-101279887D01*
X77111349Y-101389120D01*
X76645802Y-101700189D01*
X76390500Y-102082275D01*
X76135198Y-101700189D01*
X75669651Y-101389120D01*
X75120500Y-101279887D01*
X74571349Y-101389120D01*
X74105802Y-101700189D01*
X73794733Y-102165736D01*
X73685500Y-102714887D01*
X73685500Y-102771113D01*
X73794733Y-103320264D01*
X74105802Y-103785811D01*
X74235500Y-103872473D01*
X74235500Y-104090921D01*
X74205920Y-104120500D01*
X73256038Y-104120500D01*
X73237162Y-104020183D01*
X73098090Y-103804059D01*
X72885890Y-103659069D01*
X72634000Y-103608060D01*
X71384000Y-103608060D01*
X71148683Y-103652338D01*
X70932559Y-103791410D01*
X70787569Y-104003610D01*
X70736560Y-104255500D01*
X70736560Y-105755500D01*
X70780838Y-105990817D01*
X70919910Y-106206941D01*
X70988006Y-106253469D01*
X70845673Y-106395802D01*
X70749000Y-106629191D01*
X70749000Y-107343750D01*
X70907750Y-107502500D01*
X72006000Y-107502500D01*
X72006000Y-107482500D01*
X72012000Y-107482500D01*
X72012000Y-107502500D01*
X73110250Y-107502500D01*
X73269000Y-107343750D01*
X73269000Y-106629191D01*
X73172327Y-106395802D01*
X73031090Y-106254564D01*
X73085441Y-106219590D01*
X73230431Y-106007390D01*
X73254102Y-105890500D01*
X74572495Y-105890500D01*
X74572500Y-105890501D01*
X74854984Y-105834310D01*
X74911175Y-105823133D01*
X75198290Y-105631290D01*
X75746287Y-105083292D01*
X75746290Y-105083290D01*
X75938133Y-104796175D01*
X75957112Y-104700761D01*
X76005501Y-104457500D01*
X76005500Y-104457495D01*
X76005500Y-103872473D01*
X76135198Y-103785811D01*
X76390500Y-103403725D01*
X76645802Y-103785811D01*
X76900500Y-103955995D01*
X76900500Y-113757180D01*
X76668693Y-113988987D01*
X67743315Y-113988987D01*
X69721901Y-112010401D01*
X69886648Y-111763839D01*
X69944500Y-111473000D01*
X69944500Y-108801058D01*
X70169817Y-108758662D01*
X70385941Y-108619590D01*
X70530931Y-108407390D01*
X70581940Y-108155500D01*
X70581940Y-107667250D01*
X70749000Y-107667250D01*
X70749000Y-108381809D01*
X70845673Y-108615198D01*
X71024301Y-108793827D01*
X71257690Y-108890500D01*
X71847250Y-108890500D01*
X72006000Y-108731750D01*
X72006000Y-107508500D01*
X72012000Y-107508500D01*
X72012000Y-108731750D01*
X72170750Y-108890500D01*
X72760310Y-108890500D01*
X72993699Y-108793827D01*
X73172327Y-108615198D01*
X73269000Y-108381809D01*
X73269000Y-107667250D01*
X73110250Y-107508500D01*
X72012000Y-107508500D01*
X72006000Y-107508500D01*
X70907750Y-107508500D01*
X70749000Y-107667250D01*
X70581940Y-107667250D01*
X70581940Y-106855500D01*
X70537662Y-106620183D01*
X70432232Y-106456341D01*
X70530931Y-106311890D01*
X70581940Y-106060000D01*
X70581940Y-104760000D01*
X70537662Y-104524683D01*
X70447025Y-104383829D01*
X70561431Y-104216390D01*
X70612440Y-103964500D01*
X70612440Y-102664500D01*
X70568162Y-102429183D01*
X70429090Y-102213059D01*
X70216890Y-102068069D01*
X69965000Y-102017060D01*
X68465000Y-102017060D01*
X68229683Y-102061338D01*
X68013559Y-102200410D01*
X67868569Y-102412610D01*
X67865919Y-102425697D01*
X67729090Y-102213059D01*
X67516890Y-102068069D01*
X67265000Y-102017060D01*
X65765000Y-102017060D01*
X65529683Y-102061338D01*
X65313559Y-102200410D01*
X65168569Y-102412610D01*
X65139836Y-102554500D01*
X63624302Y-102554500D01*
X62177031Y-101107229D01*
X61930469Y-100942482D01*
X61639630Y-100884630D01*
X56216370Y-100884630D01*
X55925531Y-100942482D01*
X55678969Y-101107229D01*
X55279099Y-101507099D01*
X55219707Y-101595986D01*
X55149348Y-101548974D01*
X54575859Y-101434900D01*
X54517141Y-101434900D01*
X53943652Y-101548974D01*
X53457471Y-101873830D01*
X53276500Y-102144672D01*
X53095529Y-101873830D01*
X52609348Y-101548974D01*
X52035859Y-101434900D01*
X51977141Y-101434900D01*
X51403652Y-101548974D01*
X50917471Y-101873830D01*
X50727748Y-102157771D01*
X50680653Y-102055074D01*
X50252072Y-101657304D01*
X49703895Y-101453823D01*
X49469500Y-101593653D01*
X49469500Y-102930500D01*
X49489500Y-102930500D01*
X49489500Y-102936500D01*
X49469500Y-102936500D01*
X49469500Y-102956500D01*
X49463500Y-102956500D01*
X49463500Y-102936500D01*
X48126653Y-102936500D01*
X47986823Y-103170895D01*
X48008610Y-103280424D01*
X48252347Y-103811926D01*
X48446292Y-103991928D01*
X48367583Y-104006738D01*
X48151459Y-104145810D01*
X48006469Y-104358010D01*
X47955460Y-104609900D01*
X47955460Y-106337100D01*
X47999738Y-106572417D01*
X48138810Y-106788541D01*
X48351010Y-106933531D01*
X48602900Y-106984540D01*
X48706500Y-106984540D01*
X48706500Y-107112231D01*
X48764352Y-107403070D01*
X48929099Y-107649632D01*
X51351272Y-110071805D01*
X51175096Y-110247673D01*
X51025906Y-110606962D01*
X51025567Y-110995995D01*
X51174129Y-111355544D01*
X51243636Y-111425172D01*
X51243636Y-116902219D01*
X51301488Y-117193058D01*
X51466235Y-117439620D01*
X52293175Y-118266560D01*
X51447000Y-118266560D01*
X51404381Y-118274579D01*
X50863940Y-117734138D01*
X50863940Y-117612000D01*
X50819662Y-117376683D01*
X50680590Y-117160559D01*
X50468390Y-117015569D01*
X50351500Y-116991898D01*
X50351500Y-116542800D01*
X50451210Y-116302672D01*
X50451549Y-115913639D01*
X50302987Y-115554090D01*
X50028139Y-115278762D01*
X49668850Y-115129572D01*
X49279817Y-115129233D01*
X48920268Y-115277795D01*
X48644940Y-115552643D01*
X48495750Y-115911932D01*
X48495411Y-116300965D01*
X48581500Y-116509317D01*
X48581500Y-116989962D01*
X48481183Y-117008838D01*
X48265059Y-117147910D01*
X48218531Y-117216006D01*
X48076198Y-117073673D01*
X47842809Y-116977000D01*
X47128250Y-116977000D01*
X46969500Y-117135750D01*
X46969500Y-118234000D01*
X46989500Y-118234000D01*
X46989500Y-118240000D01*
X46969500Y-118240000D01*
X46969500Y-119338250D01*
X47128250Y-119497000D01*
X47842809Y-119497000D01*
X48076198Y-119400327D01*
X48217436Y-119259090D01*
X48252410Y-119313441D01*
X48464610Y-119458431D01*
X48581500Y-119482102D01*
X48581500Y-120647560D01*
X48462500Y-120647560D01*
X48227183Y-120691838D01*
X48011059Y-120830910D01*
X47964531Y-120899006D01*
X47822198Y-120756673D01*
X47588809Y-120660000D01*
X46874250Y-120660000D01*
X46715500Y-120818750D01*
X46715500Y-121917000D01*
X46735500Y-121917000D01*
X46735500Y-121923000D01*
X46715500Y-121923000D01*
X46715500Y-123021250D01*
X46874250Y-123180000D01*
X47588809Y-123180000D01*
X47822198Y-123083327D01*
X47963436Y-122942090D01*
X47998410Y-122996441D01*
X48210610Y-123141431D01*
X48462500Y-123192440D01*
X49962500Y-123192440D01*
X50197817Y-123148162D01*
X50413941Y-123009090D01*
X50540408Y-122824000D01*
X50817785Y-122824000D01*
X50799560Y-122914000D01*
X50799560Y-123214000D01*
X50819067Y-123317671D01*
X50799560Y-123414000D01*
X50799560Y-123714000D01*
X50819067Y-123817671D01*
X50799560Y-123914000D01*
X50799560Y-124214000D01*
X50812980Y-124285323D01*
X50812000Y-124287690D01*
X50812000Y-124348156D01*
X50764151Y-124338639D01*
X50756162Y-124296183D01*
X50617090Y-124080059D01*
X50404890Y-123935069D01*
X50153000Y-123884060D01*
X48653000Y-123884060D01*
X48417683Y-123928338D01*
X48218819Y-124056304D01*
X48216162Y-124042183D01*
X48077090Y-123826059D01*
X47864890Y-123681069D01*
X47613000Y-123630060D01*
X46113000Y-123630060D01*
X45877683Y-123674338D01*
X45661559Y-123813410D01*
X45516569Y-124025610D01*
X45465560Y-124277500D01*
X45465560Y-125277500D01*
X45509838Y-125512817D01*
X45648910Y-125728941D01*
X45861110Y-125873931D01*
X45958312Y-125893615D01*
X45941183Y-125896838D01*
X45725059Y-126035910D01*
X45580069Y-126248110D01*
X45529060Y-126500000D01*
X45529060Y-127500000D01*
X45573338Y-127735317D01*
X45685085Y-127908976D01*
X45608278Y-127908976D01*
X42589210Y-124889908D01*
X42662093Y-124523500D01*
X42549054Y-123955215D01*
X42227147Y-123473446D01*
X41745378Y-123151539D01*
X41177093Y-123038500D01*
X41118907Y-123038500D01*
X40550622Y-123151539D01*
X40068853Y-123473446D01*
X40064903Y-123479358D01*
X39996327Y-123313801D01*
X39817698Y-123135173D01*
X39584309Y-123038500D01*
X38769750Y-123038500D01*
X38611000Y-123197250D01*
X38611000Y-124520500D01*
X38631000Y-124520500D01*
X38631000Y-124526500D01*
X38611000Y-124526500D01*
X38611000Y-127060500D01*
X38631000Y-127060500D01*
X38631000Y-127066500D01*
X38611000Y-127066500D01*
X38611000Y-129600500D01*
X38631000Y-129600500D01*
X38631000Y-129606500D01*
X38611000Y-129606500D01*
X38611000Y-132140500D01*
X38631000Y-132140500D01*
X38631000Y-132146500D01*
X38611000Y-132146500D01*
X38611000Y-133469747D01*
X38843268Y-133609745D01*
X39386467Y-133408101D01*
X39811152Y-133013933D01*
X39867186Y-132891737D01*
X40068853Y-133193554D01*
X40550622Y-133515461D01*
X41118907Y-133628500D01*
X41177093Y-133628500D01*
X41745378Y-133515461D01*
X42068394Y-133299629D01*
X42068394Y-134584254D01*
X41787870Y-134467770D01*
X41398837Y-134467431D01*
X41039288Y-134615993D01*
X40763960Y-134890841D01*
X40670498Y-135115922D01*
X40572210Y-135214210D01*
X40380367Y-135501325D01*
X40378747Y-135509469D01*
X40312999Y-135840000D01*
X40313000Y-135840005D01*
X40313000Y-145741060D01*
X37998000Y-145741060D01*
X37762683Y-145785338D01*
X37546559Y-145924410D01*
X37401569Y-146136610D01*
X37350560Y-146388500D01*
X36322000Y-146388500D01*
X36322000Y-132378768D01*
X37141755Y-132378768D01*
X37163332Y-132487249D01*
X37404848Y-133013933D01*
X37829533Y-133408101D01*
X38372732Y-133609745D01*
X38605000Y-133469747D01*
X38605000Y-132146500D01*
X37281753Y-132146500D01*
X37141755Y-132378768D01*
X36322000Y-132378768D01*
X36322000Y-129838768D01*
X37141755Y-129838768D01*
X37163332Y-129947249D01*
X37404848Y-130473933D01*
X37829533Y-130868101D01*
X37844077Y-130873500D01*
X37829533Y-130878899D01*
X37404848Y-131273067D01*
X37163332Y-131799751D01*
X37141755Y-131908232D01*
X37281753Y-132140500D01*
X38605000Y-132140500D01*
X38605000Y-129606500D01*
X37281753Y-129606500D01*
X37141755Y-129838768D01*
X36322000Y-129838768D01*
X36322000Y-127298768D01*
X37141755Y-127298768D01*
X37163332Y-127407249D01*
X37404848Y-127933933D01*
X37829533Y-128328101D01*
X37844077Y-128333500D01*
X37829533Y-128338899D01*
X37404848Y-128733067D01*
X37163332Y-129259751D01*
X37141755Y-129368232D01*
X37281753Y-129600500D01*
X38605000Y-129600500D01*
X38605000Y-127066500D01*
X37281753Y-127066500D01*
X37141755Y-127298768D01*
X36322000Y-127298768D01*
X36322000Y-124685250D01*
X37123000Y-124685250D01*
X37123000Y-125499810D01*
X37219673Y-125733199D01*
X37398302Y-125911827D01*
X37612340Y-126000485D01*
X37404848Y-126193067D01*
X37163332Y-126719751D01*
X37141755Y-126828232D01*
X37281753Y-127060500D01*
X38605000Y-127060500D01*
X38605000Y-124526500D01*
X37281750Y-124526500D01*
X37123000Y-124685250D01*
X36322000Y-124685250D01*
X36322000Y-123547190D01*
X37123000Y-123547190D01*
X37123000Y-124361750D01*
X37281750Y-124520500D01*
X38605000Y-124520500D01*
X38605000Y-123197250D01*
X38446250Y-123038500D01*
X37631691Y-123038500D01*
X37398302Y-123135173D01*
X37219673Y-123313801D01*
X37123000Y-123547190D01*
X36322000Y-123547190D01*
X36322000Y-122081750D01*
X45327500Y-122081750D01*
X45327500Y-122671310D01*
X45424173Y-122904699D01*
X45602802Y-123083327D01*
X45836191Y-123180000D01*
X46550750Y-123180000D01*
X46709500Y-123021250D01*
X46709500Y-121923000D01*
X45486250Y-121923000D01*
X45327500Y-122081750D01*
X36322000Y-122081750D01*
X36322000Y-114820000D01*
X36993060Y-114820000D01*
X36993060Y-116320000D01*
X37037338Y-116555317D01*
X37176410Y-116771441D01*
X37388610Y-116916431D01*
X37401697Y-116919081D01*
X37189059Y-117055910D01*
X37044069Y-117268110D01*
X36993060Y-117520000D01*
X36993060Y-119020000D01*
X37037338Y-119255317D01*
X37176410Y-119471441D01*
X37388610Y-119616431D01*
X37396484Y-119618025D01*
X37312770Y-119819630D01*
X37312431Y-120208663D01*
X37460993Y-120568212D01*
X37735841Y-120843540D01*
X38095130Y-120992730D01*
X38484163Y-120993069D01*
X38843712Y-120844507D01*
X39119040Y-120569659D01*
X39268230Y-120210370D01*
X39268569Y-119821337D01*
X39184402Y-119617637D01*
X39306957Y-119538775D01*
X39420610Y-119616431D01*
X39672500Y-119667440D01*
X40972500Y-119667440D01*
X41207817Y-119623162D01*
X41423941Y-119484090D01*
X41568931Y-119271890D01*
X41617915Y-119030000D01*
X43850698Y-119030000D01*
X44869015Y-120048317D01*
X44868931Y-120145163D01*
X45017493Y-120504712D01*
X45292341Y-120780040D01*
X45495200Y-120864274D01*
X45424173Y-120935301D01*
X45327500Y-121168690D01*
X45327500Y-121758250D01*
X45486250Y-121917000D01*
X46709500Y-121917000D01*
X46709500Y-120818750D01*
X46550750Y-120660000D01*
X46521430Y-120660000D01*
X46675540Y-120506159D01*
X46824730Y-120146870D01*
X46825069Y-119757837D01*
X46717294Y-119497000D01*
X46804750Y-119497000D01*
X46963500Y-119338250D01*
X46963500Y-118240000D01*
X45740250Y-118240000D01*
X45581500Y-118398750D01*
X45581500Y-118611198D01*
X44702901Y-117732599D01*
X44456339Y-117567852D01*
X44165500Y-117510000D01*
X41618058Y-117510000D01*
X41613484Y-117485690D01*
X45581500Y-117485690D01*
X45581500Y-118075250D01*
X45740250Y-118234000D01*
X46963500Y-118234000D01*
X46963500Y-117135750D01*
X46804750Y-116977000D01*
X46090191Y-116977000D01*
X45856802Y-117073673D01*
X45678173Y-117252301D01*
X45581500Y-117485690D01*
X41613484Y-117485690D01*
X41575662Y-117284683D01*
X41436590Y-117068559D01*
X41224390Y-116923569D01*
X41211303Y-116920919D01*
X41423941Y-116784090D01*
X41568931Y-116571890D01*
X41619940Y-116320000D01*
X41619940Y-114820000D01*
X41575662Y-114584683D01*
X41436590Y-114368559D01*
X41413819Y-114353000D01*
X41420310Y-114353000D01*
X41653699Y-114256327D01*
X41832327Y-114077698D01*
X41929000Y-113844309D01*
X41929000Y-113429750D01*
X41770250Y-113271000D01*
X40897000Y-113271000D01*
X40897000Y-113291000D01*
X40891000Y-113291000D01*
X40891000Y-113271000D01*
X40871000Y-113271000D01*
X40871000Y-113265000D01*
X40891000Y-113265000D01*
X40891000Y-113245000D01*
X40897000Y-113245000D01*
X40897000Y-113265000D01*
X41770250Y-113265000D01*
X41929000Y-113106250D01*
X41929000Y-112691691D01*
X41832327Y-112458302D01*
X41805414Y-112431388D01*
X41871362Y-112365440D01*
X42244000Y-112365440D01*
X42479317Y-112321162D01*
X42695441Y-112182090D01*
X42840431Y-111969890D01*
X42891440Y-111718000D01*
X42891440Y-110818000D01*
X42847162Y-110582683D01*
X42708090Y-110366559D01*
X42495890Y-110221569D01*
X42244000Y-110170560D01*
X41444000Y-110170560D01*
X41208683Y-110214838D01*
X40992559Y-110353910D01*
X40893367Y-110499083D01*
X40808090Y-110366559D01*
X40704000Y-110295437D01*
X40704000Y-109913302D01*
X40986901Y-109630401D01*
X41151648Y-109383839D01*
X41192206Y-109179940D01*
X41349500Y-109179940D01*
X41584817Y-109135662D01*
X41800941Y-108996590D01*
X41945931Y-108784390D01*
X41996940Y-108532500D01*
X41996940Y-106732500D01*
X41952662Y-106497183D01*
X41813590Y-106281059D01*
X41601390Y-106136069D01*
X41580966Y-106131933D01*
X41750051Y-105963143D01*
X41984233Y-105399170D01*
X41984765Y-104788509D01*
X41751568Y-104224129D01*
X41320143Y-103791949D01*
X40756170Y-103557767D01*
X40145509Y-103557235D01*
X39581129Y-103790432D01*
X39148949Y-104221857D01*
X39100559Y-104338393D01*
X38839346Y-104390352D01*
X38592784Y-104555099D01*
X37753099Y-105394784D01*
X37588352Y-105641346D01*
X37530500Y-105932185D01*
X37530500Y-114193258D01*
X37405183Y-114216838D01*
X37189059Y-114355910D01*
X37044069Y-114568110D01*
X36993060Y-114820000D01*
X36322000Y-114820000D01*
X36322000Y-102696105D01*
X47986823Y-102696105D01*
X48126653Y-102930500D01*
X49463500Y-102930500D01*
X49463500Y-101593653D01*
X49229105Y-101453823D01*
X48680928Y-101657304D01*
X48252347Y-102055074D01*
X48008610Y-102586576D01*
X47986823Y-102696105D01*
X36322000Y-102696105D01*
X36322000Y-99822000D01*
X114173000Y-99822000D01*
X114173000Y-155448000D01*
G36*
X50812000Y-130902250D02*
X50840308Y-130930558D01*
X50843838Y-130949317D01*
X50939606Y-131098144D01*
X50812000Y-131225750D01*
X50812000Y-131340310D01*
X50908673Y-131573699D01*
X51087302Y-131752327D01*
X51320691Y-131849000D01*
X52035250Y-131849000D01*
X52194000Y-131690250D01*
X52194000Y-131361440D01*
X52200000Y-131361440D01*
X52200000Y-131690250D01*
X52358750Y-131849000D01*
X53073309Y-131849000D01*
X53138436Y-131822023D01*
X53099560Y-132014000D01*
X53099560Y-133246946D01*
X51227693Y-135118813D01*
X49541187Y-135118813D01*
X49250347Y-135176665D01*
X49003786Y-135341412D01*
X47356408Y-136988790D01*
X46990000Y-136915907D01*
X46421715Y-137028946D01*
X45939946Y-137350853D01*
X45720000Y-137680026D01*
X45500054Y-137350853D01*
X45018285Y-137028946D01*
X44450000Y-136915907D01*
X43881715Y-137028946D01*
X43838394Y-137057892D01*
X43838394Y-133062500D01*
X44660060Y-133062500D01*
X44660060Y-134312500D01*
X44704338Y-134547817D01*
X44843410Y-134763941D01*
X45055610Y-134908931D01*
X45307500Y-134959940D01*
X45335879Y-134959940D01*
X45355352Y-135057839D01*
X45520099Y-135304401D01*
X45694515Y-135478817D01*
X45694431Y-135575663D01*
X45842993Y-135935212D01*
X46117841Y-136210540D01*
X46477130Y-136359730D01*
X46866163Y-136360069D01*
X47225712Y-136211507D01*
X47501040Y-135936659D01*
X47650230Y-135577370D01*
X47650569Y-135188337D01*
X47524186Y-134882466D01*
X47681191Y-134947500D01*
X48395750Y-134947500D01*
X48554500Y-134788750D01*
X48554500Y-133690500D01*
X48560500Y-133690500D01*
X48560500Y-134788750D01*
X48719250Y-134947500D01*
X49433809Y-134947500D01*
X49667198Y-134850827D01*
X49845827Y-134672199D01*
X49942500Y-134438810D01*
X49942500Y-133849250D01*
X49783750Y-133690500D01*
X48560500Y-133690500D01*
X48554500Y-133690500D01*
X48534500Y-133690500D01*
X48534500Y-133684500D01*
X48554500Y-133684500D01*
X48554500Y-132586250D01*
X48560500Y-132586250D01*
X48560500Y-133684500D01*
X49783750Y-133684500D01*
X49942500Y-133525750D01*
X49942500Y-132936190D01*
X49845827Y-132702801D01*
X49667198Y-132524173D01*
X49433809Y-132427500D01*
X48719250Y-132427500D01*
X48560500Y-132586250D01*
X48554500Y-132586250D01*
X48395750Y-132427500D01*
X47681191Y-132427500D01*
X47447802Y-132524173D01*
X47306564Y-132665410D01*
X47271590Y-132611059D01*
X47059390Y-132466069D01*
X46807500Y-132415060D01*
X45307500Y-132415060D01*
X45072183Y-132459338D01*
X44856059Y-132598410D01*
X44711069Y-132810610D01*
X44660060Y-133062500D01*
X43838394Y-133062500D01*
X43838394Y-131893858D01*
X44137436Y-131594815D01*
X44137439Y-131594813D01*
X44141382Y-131590870D01*
X44364860Y-131498531D01*
X44640188Y-131223683D01*
X44789378Y-130864394D01*
X44789413Y-130824000D01*
X50812000Y-130824000D01*
X50812000Y-130902250D01*
X50812000Y-130902250D01*
G37*
X50812000Y-130902250D02*
X50840308Y-130930558D01*
X50843838Y-130949317D01*
X50939606Y-131098144D01*
X50812000Y-131225750D01*
X50812000Y-131340310D01*
X50908673Y-131573699D01*
X51087302Y-131752327D01*
X51320691Y-131849000D01*
X52035250Y-131849000D01*
X52194000Y-131690250D01*
X52194000Y-131361440D01*
X52200000Y-131361440D01*
X52200000Y-131690250D01*
X52358750Y-131849000D01*
X53073309Y-131849000D01*
X53138436Y-131822023D01*
X53099560Y-132014000D01*
X53099560Y-133246946D01*
X51227693Y-135118813D01*
X49541187Y-135118813D01*
X49250347Y-135176665D01*
X49003786Y-135341412D01*
X47356408Y-136988790D01*
X46990000Y-136915907D01*
X46421715Y-137028946D01*
X45939946Y-137350853D01*
X45720000Y-137680026D01*
X45500054Y-137350853D01*
X45018285Y-137028946D01*
X44450000Y-136915907D01*
X43881715Y-137028946D01*
X43838394Y-137057892D01*
X43838394Y-133062500D01*
X44660060Y-133062500D01*
X44660060Y-134312500D01*
X44704338Y-134547817D01*
X44843410Y-134763941D01*
X45055610Y-134908931D01*
X45307500Y-134959940D01*
X45335879Y-134959940D01*
X45355352Y-135057839D01*
X45520099Y-135304401D01*
X45694515Y-135478817D01*
X45694431Y-135575663D01*
X45842993Y-135935212D01*
X46117841Y-136210540D01*
X46477130Y-136359730D01*
X46866163Y-136360069D01*
X47225712Y-136211507D01*
X47501040Y-135936659D01*
X47650230Y-135577370D01*
X47650569Y-135188337D01*
X47524186Y-134882466D01*
X47681191Y-134947500D01*
X48395750Y-134947500D01*
X48554500Y-134788750D01*
X48554500Y-133690500D01*
X48560500Y-133690500D01*
X48560500Y-134788750D01*
X48719250Y-134947500D01*
X49433809Y-134947500D01*
X49667198Y-134850827D01*
X49845827Y-134672199D01*
X49942500Y-134438810D01*
X49942500Y-133849250D01*
X49783750Y-133690500D01*
X48560500Y-133690500D01*
X48554500Y-133690500D01*
X48534500Y-133690500D01*
X48534500Y-133684500D01*
X48554500Y-133684500D01*
X48554500Y-132586250D01*
X48560500Y-132586250D01*
X48560500Y-133684500D01*
X49783750Y-133684500D01*
X49942500Y-133525750D01*
X49942500Y-132936190D01*
X49845827Y-132702801D01*
X49667198Y-132524173D01*
X49433809Y-132427500D01*
X48719250Y-132427500D01*
X48560500Y-132586250D01*
X48554500Y-132586250D01*
X48395750Y-132427500D01*
X47681191Y-132427500D01*
X47447802Y-132524173D01*
X47306564Y-132665410D01*
X47271590Y-132611059D01*
X47059390Y-132466069D01*
X46807500Y-132415060D01*
X45307500Y-132415060D01*
X45072183Y-132459338D01*
X44856059Y-132598410D01*
X44711069Y-132810610D01*
X44660060Y-133062500D01*
X43838394Y-133062500D01*
X43838394Y-131893858D01*
X44137436Y-131594815D01*
X44137439Y-131594813D01*
X44141382Y-131590870D01*
X44364860Y-131498531D01*
X44640188Y-131223683D01*
X44789378Y-130864394D01*
X44789413Y-130824000D01*
X50812000Y-130824000D01*
X50812000Y-130902250D01*
G36*
X79315184Y-133611511D02*
X75354014Y-133611511D01*
X75456327Y-133509199D01*
X75553000Y-133275810D01*
X75553000Y-132686250D01*
X75394250Y-132527500D01*
X74171000Y-132527500D01*
X74171000Y-132547500D01*
X74165000Y-132547500D01*
X74165000Y-132527500D01*
X74145000Y-132527500D01*
X74145000Y-132521500D01*
X74165000Y-132521500D01*
X74165000Y-132501500D01*
X74171000Y-132501500D01*
X74171000Y-132521500D01*
X75394250Y-132521500D01*
X75553000Y-132362750D01*
X75553000Y-132256836D01*
X77960509Y-132256836D01*
X79315184Y-133611511D01*
X79315184Y-133611511D01*
G37*
X79315184Y-133611511D02*
X75354014Y-133611511D01*
X75456327Y-133509199D01*
X75553000Y-133275810D01*
X75553000Y-132686250D01*
X75394250Y-132527500D01*
X74171000Y-132527500D01*
X74171000Y-132547500D01*
X74165000Y-132547500D01*
X74165000Y-132527500D01*
X74145000Y-132527500D01*
X74145000Y-132521500D01*
X74165000Y-132521500D01*
X74165000Y-132501500D01*
X74171000Y-132501500D01*
X74171000Y-132521500D01*
X75394250Y-132521500D01*
X75553000Y-132362750D01*
X75553000Y-132256836D01*
X77960509Y-132256836D01*
X79315184Y-133611511D01*
G36*
X76796214Y-128860105D02*
X76787432Y-128861852D01*
X76540870Y-129026599D01*
X76180666Y-129386803D01*
X75697318Y-129386803D01*
X75743500Y-129275310D01*
X75743500Y-128685750D01*
X75584750Y-128527000D01*
X74361500Y-128527000D01*
X74361500Y-128547000D01*
X74355500Y-128547000D01*
X74355500Y-128527000D01*
X74335500Y-128527000D01*
X74335500Y-128521000D01*
X74355500Y-128521000D01*
X74355500Y-128501000D01*
X74361500Y-128501000D01*
X74361500Y-128521000D01*
X75584750Y-128521000D01*
X75743500Y-128362250D01*
X75743500Y-128198989D01*
X76135098Y-128198989D01*
X76796214Y-128860105D01*
X76796214Y-128860105D01*
G37*
X76796214Y-128860105D02*
X76787432Y-128861852D01*
X76540870Y-129026599D01*
X76180666Y-129386803D01*
X75697318Y-129386803D01*
X75743500Y-129275310D01*
X75743500Y-128685750D01*
X75584750Y-128527000D01*
X74361500Y-128527000D01*
X74361500Y-128547000D01*
X74355500Y-128547000D01*
X74355500Y-128527000D01*
X74335500Y-128527000D01*
X74335500Y-128521000D01*
X74355500Y-128521000D01*
X74355500Y-128501000D01*
X74361500Y-128501000D01*
X74361500Y-128521000D01*
X75584750Y-128521000D01*
X75743500Y-128362250D01*
X75743500Y-128198989D01*
X76135098Y-128198989D01*
X76796214Y-128860105D01*
G36*
X68173431Y-116017663D02*
X68321993Y-116377212D01*
X68596841Y-116652540D01*
X68956130Y-116801730D01*
X69345163Y-116802069D01*
X69704712Y-116653507D01*
X69763299Y-116595022D01*
X74061586Y-116595022D01*
X73869059Y-116718910D01*
X73724069Y-116931110D01*
X73673060Y-117183000D01*
X73673060Y-118783000D01*
X73717338Y-119018317D01*
X73856410Y-119234441D01*
X74068610Y-119379431D01*
X74320500Y-119430440D01*
X75920500Y-119430440D01*
X76155817Y-119386162D01*
X76371941Y-119247090D01*
X76516931Y-119034890D01*
X76548315Y-118879911D01*
X76645802Y-119025811D01*
X77111349Y-119336880D01*
X77660500Y-119446113D01*
X78209651Y-119336880D01*
X78675198Y-119025811D01*
X78930500Y-118643725D01*
X79185802Y-119025811D01*
X79651349Y-119336880D01*
X80200500Y-119446113D01*
X80749651Y-119336880D01*
X81215198Y-119025811D01*
X81470500Y-118643725D01*
X81725802Y-119025811D01*
X82191349Y-119336880D01*
X82740500Y-119446113D01*
X83289651Y-119336880D01*
X83755198Y-119025811D01*
X84010500Y-118643725D01*
X84265802Y-119025811D01*
X84731349Y-119336880D01*
X85280500Y-119446113D01*
X85724018Y-119357892D01*
X83277910Y-121804000D01*
X68976215Y-121804000D01*
X68994440Y-121714000D01*
X68994440Y-121414000D01*
X68981020Y-121342677D01*
X68982000Y-121340310D01*
X68982000Y-121225750D01*
X68953692Y-121197442D01*
X68950162Y-121178683D01*
X68876380Y-121064022D01*
X68943431Y-120965890D01*
X68949797Y-120934453D01*
X68982000Y-120902250D01*
X68982000Y-120787690D01*
X68980333Y-120783665D01*
X68994440Y-120714000D01*
X68994440Y-120414000D01*
X68974933Y-120310329D01*
X68994440Y-120214000D01*
X68994440Y-119914000D01*
X68974933Y-119810329D01*
X68994440Y-119714000D01*
X68994440Y-119414000D01*
X68974933Y-119310329D01*
X68994440Y-119214000D01*
X68994440Y-118914000D01*
X68950162Y-118678683D01*
X68811090Y-118462559D01*
X68598890Y-118317569D01*
X68347000Y-118266560D01*
X66847000Y-118266560D01*
X66656279Y-118302447D01*
X66694440Y-118114000D01*
X66694440Y-116928917D01*
X66868663Y-116929069D01*
X67228212Y-116780507D01*
X67503540Y-116505659D01*
X67652730Y-116146370D01*
X67652893Y-115958998D01*
X68173482Y-115958998D01*
X68173431Y-116017663D01*
X68173431Y-116017663D01*
G37*
X68173431Y-116017663D02*
X68321993Y-116377212D01*
X68596841Y-116652540D01*
X68956130Y-116801730D01*
X69345163Y-116802069D01*
X69704712Y-116653507D01*
X69763299Y-116595022D01*
X74061586Y-116595022D01*
X73869059Y-116718910D01*
X73724069Y-116931110D01*
X73673060Y-117183000D01*
X73673060Y-118783000D01*
X73717338Y-119018317D01*
X73856410Y-119234441D01*
X74068610Y-119379431D01*
X74320500Y-119430440D01*
X75920500Y-119430440D01*
X76155817Y-119386162D01*
X76371941Y-119247090D01*
X76516931Y-119034890D01*
X76548315Y-118879911D01*
X76645802Y-119025811D01*
X77111349Y-119336880D01*
X77660500Y-119446113D01*
X78209651Y-119336880D01*
X78675198Y-119025811D01*
X78930500Y-118643725D01*
X79185802Y-119025811D01*
X79651349Y-119336880D01*
X80200500Y-119446113D01*
X80749651Y-119336880D01*
X81215198Y-119025811D01*
X81470500Y-118643725D01*
X81725802Y-119025811D01*
X82191349Y-119336880D01*
X82740500Y-119446113D01*
X83289651Y-119336880D01*
X83755198Y-119025811D01*
X84010500Y-118643725D01*
X84265802Y-119025811D01*
X84731349Y-119336880D01*
X85280500Y-119446113D01*
X85724018Y-119357892D01*
X83277910Y-121804000D01*
X68976215Y-121804000D01*
X68994440Y-121714000D01*
X68994440Y-121414000D01*
X68981020Y-121342677D01*
X68982000Y-121340310D01*
X68982000Y-121225750D01*
X68953692Y-121197442D01*
X68950162Y-121178683D01*
X68876380Y-121064022D01*
X68943431Y-120965890D01*
X68949797Y-120934453D01*
X68982000Y-120902250D01*
X68982000Y-120787690D01*
X68980333Y-120783665D01*
X68994440Y-120714000D01*
X68994440Y-120414000D01*
X68974933Y-120310329D01*
X68994440Y-120214000D01*
X68994440Y-119914000D01*
X68974933Y-119810329D01*
X68994440Y-119714000D01*
X68994440Y-119414000D01*
X68974933Y-119310329D01*
X68994440Y-119214000D01*
X68994440Y-118914000D01*
X68950162Y-118678683D01*
X68811090Y-118462559D01*
X68598890Y-118317569D01*
X68347000Y-118266560D01*
X66847000Y-118266560D01*
X66656279Y-118302447D01*
X66694440Y-118114000D01*
X66694440Y-116928917D01*
X66868663Y-116929069D01*
X67228212Y-116780507D01*
X67503540Y-116505659D01*
X67652730Y-116146370D01*
X67652893Y-115958998D01*
X68173482Y-115958998D01*
X68173431Y-116017663D01*
G36*
X64042099Y-108042901D02*
X64288661Y-108207648D01*
X64579500Y-108265500D01*
X65107758Y-108265500D01*
X65131338Y-108390817D01*
X65270410Y-108606941D01*
X65482610Y-108751931D01*
X65734500Y-108802940D01*
X67234500Y-108802940D01*
X67469817Y-108758662D01*
X67685941Y-108619590D01*
X67830931Y-108407390D01*
X67833581Y-108394303D01*
X67970410Y-108606941D01*
X68182610Y-108751931D01*
X68424500Y-108800915D01*
X68424500Y-111158198D01*
X67270440Y-112312258D01*
X67270440Y-111706500D01*
X67226162Y-111471183D01*
X67087090Y-111255059D01*
X66874890Y-111110069D01*
X66623000Y-111059060D01*
X65123000Y-111059060D01*
X64887683Y-111103338D01*
X64671559Y-111242410D01*
X64625031Y-111310506D01*
X64482698Y-111168173D01*
X64249309Y-111071500D01*
X63534750Y-111071500D01*
X63376000Y-111230250D01*
X63376000Y-112328500D01*
X63396000Y-112328500D01*
X63396000Y-112334500D01*
X63376000Y-112334500D01*
X63376000Y-113432750D01*
X63534750Y-113591500D01*
X64249309Y-113591500D01*
X64482698Y-113494827D01*
X64623936Y-113353590D01*
X64658910Y-113407941D01*
X64871110Y-113552931D01*
X65110284Y-113601365D01*
X65170618Y-113691661D01*
X65247210Y-113806290D01*
X65429907Y-113988987D01*
X65375602Y-113988987D01*
X65084763Y-114046839D01*
X64838201Y-114211586D01*
X63359599Y-115690188D01*
X63194852Y-115936750D01*
X63186448Y-115979000D01*
X63120690Y-115979000D01*
X63116665Y-115980667D01*
X63047000Y-115966560D01*
X62747000Y-115966560D01*
X62643329Y-115986067D01*
X62547000Y-115966560D01*
X62247000Y-115966560D01*
X62143329Y-115986067D01*
X62047000Y-115966560D01*
X61747000Y-115966560D01*
X61643329Y-115986067D01*
X61547000Y-115966560D01*
X61247000Y-115966560D01*
X61143329Y-115986067D01*
X61047000Y-115966560D01*
X60747000Y-115966560D01*
X60657000Y-115983495D01*
X60657000Y-115487580D01*
X60725540Y-115419159D01*
X60874730Y-115059870D01*
X60874816Y-114961486D01*
X61076401Y-114759901D01*
X61169920Y-114619940D01*
X61289000Y-114619940D01*
X61524317Y-114575662D01*
X61740441Y-114436590D01*
X61885431Y-114224390D01*
X61936440Y-113972500D01*
X61936440Y-112722500D01*
X61893304Y-112493250D01*
X61988000Y-112493250D01*
X61988000Y-113082810D01*
X62084673Y-113316199D01*
X62263302Y-113494827D01*
X62496691Y-113591500D01*
X63211250Y-113591500D01*
X63370000Y-113432750D01*
X63370000Y-112334500D01*
X62146750Y-112334500D01*
X61988000Y-112493250D01*
X61893304Y-112493250D01*
X61892162Y-112487183D01*
X61753090Y-112271059D01*
X61540890Y-112126069D01*
X61289000Y-112075060D01*
X59789000Y-112075060D01*
X59553683Y-112119338D01*
X59337559Y-112258410D01*
X59291031Y-112326506D01*
X59148698Y-112184173D01*
X58915309Y-112087500D01*
X58200750Y-112087500D01*
X58042000Y-112246250D01*
X58042000Y-113344500D01*
X58062000Y-113344500D01*
X58062000Y-113350500D01*
X58042000Y-113350500D01*
X58042000Y-114448750D01*
X58200750Y-114607500D01*
X58915309Y-114607500D01*
X58951000Y-114592716D01*
X58919270Y-114669130D01*
X58918931Y-115058163D01*
X59067493Y-115417712D01*
X59137000Y-115487340D01*
X59137000Y-115984785D01*
X59047000Y-115966560D01*
X58747000Y-115966560D01*
X58643329Y-115986067D01*
X58547000Y-115966560D01*
X58247000Y-115966560D01*
X58143329Y-115986067D01*
X58047000Y-115966560D01*
X57747000Y-115966560D01*
X57643329Y-115986067D01*
X57547000Y-115966560D01*
X57247000Y-115966560D01*
X57175677Y-115979980D01*
X57173310Y-115979000D01*
X57157000Y-115979000D01*
X57157000Y-114605143D01*
X57162691Y-114607500D01*
X57877250Y-114607500D01*
X58036000Y-114448750D01*
X58036000Y-113350500D01*
X58016000Y-113350500D01*
X58016000Y-113344500D01*
X58036000Y-113344500D01*
X58036000Y-112246250D01*
X57877250Y-112087500D01*
X57162691Y-112087500D01*
X57157000Y-112089857D01*
X57157000Y-111580190D01*
X61988000Y-111580190D01*
X61988000Y-112169750D01*
X62146750Y-112328500D01*
X63370000Y-112328500D01*
X63370000Y-111230250D01*
X63211250Y-111071500D01*
X62496691Y-111071500D01*
X62263302Y-111168173D01*
X62084673Y-111346801D01*
X61988000Y-111580190D01*
X57157000Y-111580190D01*
X57157000Y-110769420D01*
X60163901Y-107762519D01*
X60328648Y-107515957D01*
X60386500Y-107225118D01*
X60386500Y-106753020D01*
X60715529Y-106533170D01*
X60915762Y-106233500D01*
X62232698Y-106233500D01*
X64042099Y-108042901D01*
X64042099Y-108042901D01*
G37*
X64042099Y-108042901D02*
X64288661Y-108207648D01*
X64579500Y-108265500D01*
X65107758Y-108265500D01*
X65131338Y-108390817D01*
X65270410Y-108606941D01*
X65482610Y-108751931D01*
X65734500Y-108802940D01*
X67234500Y-108802940D01*
X67469817Y-108758662D01*
X67685941Y-108619590D01*
X67830931Y-108407390D01*
X67833581Y-108394303D01*
X67970410Y-108606941D01*
X68182610Y-108751931D01*
X68424500Y-108800915D01*
X68424500Y-111158198D01*
X67270440Y-112312258D01*
X67270440Y-111706500D01*
X67226162Y-111471183D01*
X67087090Y-111255059D01*
X66874890Y-111110069D01*
X66623000Y-111059060D01*
X65123000Y-111059060D01*
X64887683Y-111103338D01*
X64671559Y-111242410D01*
X64625031Y-111310506D01*
X64482698Y-111168173D01*
X64249309Y-111071500D01*
X63534750Y-111071500D01*
X63376000Y-111230250D01*
X63376000Y-112328500D01*
X63396000Y-112328500D01*
X63396000Y-112334500D01*
X63376000Y-112334500D01*
X63376000Y-113432750D01*
X63534750Y-113591500D01*
X64249309Y-113591500D01*
X64482698Y-113494827D01*
X64623936Y-113353590D01*
X64658910Y-113407941D01*
X64871110Y-113552931D01*
X65110284Y-113601365D01*
X65170618Y-113691661D01*
X65247210Y-113806290D01*
X65429907Y-113988987D01*
X65375602Y-113988987D01*
X65084763Y-114046839D01*
X64838201Y-114211586D01*
X63359599Y-115690188D01*
X63194852Y-115936750D01*
X63186448Y-115979000D01*
X63120690Y-115979000D01*
X63116665Y-115980667D01*
X63047000Y-115966560D01*
X62747000Y-115966560D01*
X62643329Y-115986067D01*
X62547000Y-115966560D01*
X62247000Y-115966560D01*
X62143329Y-115986067D01*
X62047000Y-115966560D01*
X61747000Y-115966560D01*
X61643329Y-115986067D01*
X61547000Y-115966560D01*
X61247000Y-115966560D01*
X61143329Y-115986067D01*
X61047000Y-115966560D01*
X60747000Y-115966560D01*
X60657000Y-115983495D01*
X60657000Y-115487580D01*
X60725540Y-115419159D01*
X60874730Y-115059870D01*
X60874816Y-114961486D01*
X61076401Y-114759901D01*
X61169920Y-114619940D01*
X61289000Y-114619940D01*
X61524317Y-114575662D01*
X61740441Y-114436590D01*
X61885431Y-114224390D01*
X61936440Y-113972500D01*
X61936440Y-112722500D01*
X61893304Y-112493250D01*
X61988000Y-112493250D01*
X61988000Y-113082810D01*
X62084673Y-113316199D01*
X62263302Y-113494827D01*
X62496691Y-113591500D01*
X63211250Y-113591500D01*
X63370000Y-113432750D01*
X63370000Y-112334500D01*
X62146750Y-112334500D01*
X61988000Y-112493250D01*
X61893304Y-112493250D01*
X61892162Y-112487183D01*
X61753090Y-112271059D01*
X61540890Y-112126069D01*
X61289000Y-112075060D01*
X59789000Y-112075060D01*
X59553683Y-112119338D01*
X59337559Y-112258410D01*
X59291031Y-112326506D01*
X59148698Y-112184173D01*
X58915309Y-112087500D01*
X58200750Y-112087500D01*
X58042000Y-112246250D01*
X58042000Y-113344500D01*
X58062000Y-113344500D01*
X58062000Y-113350500D01*
X58042000Y-113350500D01*
X58042000Y-114448750D01*
X58200750Y-114607500D01*
X58915309Y-114607500D01*
X58951000Y-114592716D01*
X58919270Y-114669130D01*
X58918931Y-115058163D01*
X59067493Y-115417712D01*
X59137000Y-115487340D01*
X59137000Y-115984785D01*
X59047000Y-115966560D01*
X58747000Y-115966560D01*
X58643329Y-115986067D01*
X58547000Y-115966560D01*
X58247000Y-115966560D01*
X58143329Y-115986067D01*
X58047000Y-115966560D01*
X57747000Y-115966560D01*
X57643329Y-115986067D01*
X57547000Y-115966560D01*
X57247000Y-115966560D01*
X57175677Y-115979980D01*
X57173310Y-115979000D01*
X57157000Y-115979000D01*
X57157000Y-114605143D01*
X57162691Y-114607500D01*
X57877250Y-114607500D01*
X58036000Y-114448750D01*
X58036000Y-113350500D01*
X58016000Y-113350500D01*
X58016000Y-113344500D01*
X58036000Y-113344500D01*
X58036000Y-112246250D01*
X57877250Y-112087500D01*
X57162691Y-112087500D01*
X57157000Y-112089857D01*
X57157000Y-111580190D01*
X61988000Y-111580190D01*
X61988000Y-112169750D01*
X62146750Y-112328500D01*
X63370000Y-112328500D01*
X63370000Y-111230250D01*
X63211250Y-111071500D01*
X62496691Y-111071500D01*
X62263302Y-111168173D01*
X62084673Y-111346801D01*
X61988000Y-111580190D01*
X57157000Y-111580190D01*
X57157000Y-110769420D01*
X60163901Y-107762519D01*
X60328648Y-107515957D01*
X60386500Y-107225118D01*
X60386500Y-106753020D01*
X60715529Y-106533170D01*
X60915762Y-106233500D01*
X62232698Y-106233500D01*
X64042099Y-108042901D01*
G36*
X62368041Y-103447843D02*
X61007615Y-103447843D01*
X61084390Y-103280424D01*
X61106177Y-103170895D01*
X60966347Y-102936500D01*
X59629500Y-102936500D01*
X59629500Y-102956500D01*
X59623500Y-102956500D01*
X59623500Y-102936500D01*
X59603500Y-102936500D01*
X59603500Y-102930500D01*
X59623500Y-102930500D01*
X59623500Y-102910500D01*
X59629500Y-102910500D01*
X59629500Y-102930500D01*
X60966347Y-102930500D01*
X61106177Y-102696105D01*
X61084390Y-102586576D01*
X61000953Y-102404630D01*
X61324828Y-102404630D01*
X62368041Y-103447843D01*
X62368041Y-103447843D01*
G37*
X62368041Y-103447843D02*
X61007615Y-103447843D01*
X61084390Y-103280424D01*
X61106177Y-103170895D01*
X60966347Y-102936500D01*
X59629500Y-102936500D01*
X59629500Y-102956500D01*
X59623500Y-102956500D01*
X59623500Y-102936500D01*
X59603500Y-102936500D01*
X59603500Y-102930500D01*
X59623500Y-102930500D01*
X59623500Y-102910500D01*
X59629500Y-102910500D01*
X59629500Y-102930500D01*
X60966347Y-102930500D01*
X61106177Y-102696105D01*
X61084390Y-102586576D01*
X61000953Y-102404630D01*
X61324828Y-102404630D01*
X62368041Y-103447843D01*
M02*
