M48
;DRILL file {KiCad 4.0.7-e2-6376~61~ubuntu18.04.1} date Tue Jul 10 18:26:02 2018
;FORMAT={-:-/ absolute / inch / decimal}
FMAT,2
INCH,TZ
T1C0.016
T2C0.031
T3C0.035
T4C0.039
%
G90
G05
M72
T1
X1.81Y-2.92
X2.32Y-3.92
X2.5Y-3.14
X2.62Y-2.31
X2.74Y-4.87
X2.91Y-5.61
X2.95Y-3.67
X3.06Y-5.99
X3.0911Y-6.1831
X3.11Y-4.67
X3.13Y-6.2
X3.13Y-6.25
X3.14Y-6.06
X3.21Y-3.34
X3.21Y-3.5229
X3.25Y-3.4
X3.28Y-3.09
X3.28Y-3.19
X3.3Y-3.82
X3.39Y-3.91
X3.41Y-5.74
X3.4212Y-4.5102
X3.4457Y-4.7301
X3.45Y-3.69
X3.45Y-3.8
X3.4524Y-3.5444
X3.4701Y-4.2077
X3.4968Y-4.6088
X3.5Y-3.18
X3.5001Y-5.9342
X3.5297Y-4.5605
X3.53Y-5.35
X3.5396Y-3.501
X3.55Y-3.18
X3.55Y-5.61
X3.5799Y-4.3564
X3.59Y-3.35
X3.59Y-4.14
X3.6Y-3.97
X3.62Y-3.09
X3.6278Y-4.7054
X3.63Y-5.03
X3.6522Y-4.8546
X3.6605Y-5.9781
X3.67Y-4.27
X3.69Y-2.93
X3.6956Y-4.8054
X3.71Y-5.9
X3.7265Y-4.3546
X3.7292Y-4.8792
X3.74Y-5.26
X3.7566Y-4.4
X3.7681Y-4.9116
X3.78Y-3.64
X3.7886Y-3.3866
X3.82Y-3.45
X3.82Y-3.51
X3.827Y-5.8243
X3.8296Y-4.6454
X3.83Y-3.64
X3.86Y-3.81
X3.8718Y-4.4255
X3.8973Y-6.1396
X3.9244Y-3.46
X3.94Y-2.95
X3.95Y-6.14
X3.9673Y-4.7546
X3.97Y-4.24
X4.02Y-3.12
X4.02Y-4.08
X4.0298Y-4.2789
X4.038Y-5.6888
X4.0464Y-6.1471
X4.06Y-4.68
X4.09Y-3.4
X4.09Y-3.78
X4.09Y-3.82
X4.09Y-3.86
X4.11Y-3.66
X4.11Y-5.28
X4.11Y-5.9862
X4.12Y-3.7296
X4.14Y-3.69
X4.142Y-3.5898
X4.15Y-3.48
X4.1535Y-5.5568
X4.19Y-5.46
X4.21Y-3.49
X4.2186Y-3.5652
X4.22Y-5.87
X4.2376Y-4.0524
X4.24Y-6.14
X4.27Y-4.13
X4.2975Y-6.0334
X4.3Y-4.83
X4.32Y-3.94
X4.3465Y-6.1403
X4.35Y-5.35
X4.3597Y-5.6095
X4.36Y-5.03
X4.3825Y-5.8227
X4.41Y-4.56
X4.452Y-6.1416
X4.4554Y-4.73
X4.48Y-4.44
X4.52Y-4.24
X4.52Y-4.34
X4.52Y-5.49
X4.55Y-6.14
X4.61Y-5.31
X4.6118Y-5.6354
X4.6524Y-6.1384
X4.71Y-4.24
X4.7254Y-4.7351
X4.75Y-4.65
X4.75Y-6.14
X4.79Y-4.19
X4.8451Y-3.531
X4.85Y-6.14
X4.8749Y-3.4314
X4.89Y-5.3
X4.89Y-5.6
X4.8938Y-5.8113
X4.91Y-3.06
X4.95Y-4.71
X4.95Y-6.14
X4.9523Y-3.4603
X4.9879Y-3.6054
X5.Y-4.79
X5.02Y-4.87
X5.0325Y-3.4939
X5.0464Y-6.1453
X5.05Y-4.92
X5.05Y-5.49
X5.11Y-5.62
X5.12Y-5.3
X5.1455Y-3.5632
X5.1461Y-6.148
X5.2306Y-4.2828
X5.2554Y-4.3666
X5.28Y-6.07
X5.2828Y-4.4852
X5.31Y-4.62
X5.3601Y-5.
X5.3882Y-5.1
X5.4002Y-6.0737
X5.4494Y-5.18
X5.45Y-6.1
X5.46Y-5.25
X5.4671Y-4.99
X5.4959Y-5.04
X5.5154Y-5.08
X5.525Y-5.8312
X5.5289Y-6.0039
X5.5403Y-5.13
X5.6444Y-6.1457
X5.67Y-5.39
X5.67Y-5.7
X5.686Y-6.0879
X5.81Y-5.39
X5.8783Y-6.0039
X5.88Y-3.94
X6.17Y-5.93
X6.32Y-3.94
X6.5Y-5.92
X7.02Y-6.15
X7.02Y-6.34
X7.11Y-6.34
X7.24Y-5.65
X7.24Y-6.34
X7.34Y-5.73
X7.36Y-6.34
X7.46Y-6.15
X7.46Y-6.34
X7.72Y-6.16
X7.72Y-6.35
X7.82Y-6.35
X7.8409Y-5.6539
X7.94Y-6.35
X8.04Y-5.73
X8.06Y-6.35
X8.17Y-6.16
X8.17Y-6.35
T2
X2.05Y-4.06
X2.05Y-4.16
X2.05Y-4.26
X2.05Y-4.36
X2.05Y-4.46
X2.05Y-4.56
X2.05Y-4.66
X2.05Y-4.76
X2.05Y-4.86
X2.05Y-4.96
X2.05Y-5.06
X2.05Y-5.16
X2.05Y-5.26
X2.05Y-5.36
X2.65Y-4.06
X2.65Y-4.16
X2.65Y-4.26
X2.65Y-4.36
X2.65Y-4.46
X2.65Y-4.56
X2.65Y-4.66
X2.65Y-4.76
X2.65Y-4.86
X2.65Y-4.96
X2.65Y-5.06
X2.65Y-5.16
X2.65Y-5.26
X2.65Y-5.36
T3
X1.55Y-6.01
X1.55Y-6.11
T4
X1.9Y-2.47
X1.9Y-2.57
X1.9Y-3.26
X1.9Y-3.36
X1.9Y-3.46
X1.9Y-3.56
X2.Y-2.47
X2.Y-2.57
X2.Y-3.26
X2.Y-3.36
X2.Y-3.46
X2.Y-3.56
X2.1Y-2.47
X2.1Y-2.57
X2.2Y-2.47
X2.2Y-2.57
X2.3Y-2.47
X2.3Y-2.57
X9.84Y-3.17
X9.84Y-3.27
X9.84Y-3.37
X9.84Y-3.47
X9.84Y-3.57
X9.94Y-3.17
X9.94Y-3.27
X9.94Y-3.37
X9.94Y-3.47
X9.94Y-3.57
T0
M30
